<svg xmlns="http://www.w3.org/2000/svg" width="500" height="400" viewBox="0 0 500 400" fill="none">
  <rect x="50" y="50" width="400" height="300" rx="20" fill="#CAF0F8" opacity="0.3"/>
  <rect x="100" y="100" width="300" height="200" rx="10" fill="#00B4D8" opacity="0.1"/>
  
  <!-- Computer/Monitor -->
  <rect x="150" y="150" width="200" height="120" rx="5" fill="#023E8A"/>
  <rect x="155" y="155" width="190" height="110" rx="3" fill="#90E0EF"/>
  <rect x="220" y="270" width="60" height="10" fill="#023E8A"/>
  <rect x="200" y="280" width="100" height="5" rx="2" fill="#023E8A"/>
  
  <!-- Graphics on screen -->
  <rect x="175" y="175" width="50" height="10" rx="2" fill="#0077B6"/>
  <rect x="175" y="195" width="80" height="5" rx="2" fill="#0077B6"/>
  <rect x="175" y="205" width="70" height="5" rx="2" fill="#0077B6"/>
  <rect x="175" y="215" width="60" height="5" rx="2" fill="#0077B6"/>
  
  <rect x="275" y="175" width="50" height="50" rx="2" fill="#0077B6" opacity="0.6"/>
  <circle cx="300" cy="230" r="10" fill="#0077B6"/>
  <circle cx="300" cy="230" r="5" fill="#023E8A"/>
  
  <!-- Code/Development Graphics -->
  <line x1="175" y1="245" x2="235" y2="245" stroke="#0077B6" stroke-width="2"/>
  <line x1="175" y1="255" x2="215" y2="255" stroke="#0077B6" stroke-width="2"/>
  <line x1="175" y1="235" x2="245" y2="235" stroke="#023E8A" stroke-width="2"/>
  
  <!-- Decorative Elements -->
  <circle cx="370" cy="120" r="15" fill="#00B4D8" opacity="0.3"/>
  <circle cx="130" cy="280" r="20" fill="#0077B6" opacity="0.2"/>
  <circle cx="380" cy="260" r="25" fill="#90E0EF" opacity="0.4"/>
</svg> 