<svg width="47" height="48" viewBox="0 0 47 48" fill="none" xmlns="http://www.w3.org/2000/svg">
<rect width="47" height="48" rx="23.5" fill="#FCF6E6"/>
<path d="M33.1422 23.6779H32.436V22.6974C31.9461 10.844 15.0527 10.8433 14.5626 22.6975V23.6779H13.8564C13.4005 23.6783 12.9634 23.8596 12.641 24.182C12.3186 24.5043 12.1372 24.9415 12.1367 25.3974V27.5073C12.1372 27.9632 12.3185 28.4004 12.6409 28.7228C12.9633 29.0453 13.4005 29.2267 13.8564 29.2272H14.5626V31.213C14.5633 31.777 14.7876 32.3178 15.1864 32.7166C15.5852 33.1154 16.1259 33.3397 16.69 33.3403H20.3119C20.3888 33.5869 20.5423 33.8024 20.7501 33.9558C20.9578 34.1091 21.2091 34.1923 21.4673 34.1932H23.1789C24.7966 34.1575 24.7956 31.7102 23.1789 31.6755H21.4673C21.209 31.6764 20.9577 31.7596 20.7499 31.913C20.5421 32.0665 20.3886 32.2821 20.3117 32.5287H16.69C16.3411 32.5284 16.0067 32.3896 15.76 32.143C15.5134 31.8963 15.3746 31.5619 15.3743 31.213V30.2934C16.5019 31.0165 18.1616 30.2372 18.1362 28.8392L18.1362 24.0658C18.135 23.8288 18.0852 23.5946 17.9898 23.3776C17.8944 23.1607 17.7556 22.9656 17.5818 22.8044C17.4081 22.6432 17.2031 22.5194 16.9796 22.4406C16.7561 22.3618 16.5188 22.3297 16.2824 22.3463C15.9624 22.3474 15.6493 22.4385 15.3787 22.6092C15.4008 20.4701 16.2661 18.426 17.7866 16.9211C19.3071 15.4163 21.36 14.5722 23.4993 14.5722C25.6386 14.5721 27.6915 15.4163 29.212 16.9211C30.7325 18.426 31.5978 20.47 31.6199 22.6092C31.3494 22.4385 31.0362 22.3474 30.7163 22.3463C30.4799 22.3297 30.2426 22.3618 30.019 22.4406C29.7955 22.5194 29.5906 22.6432 29.4168 22.8044C29.243 22.9656 29.1042 23.1607 29.0088 23.3776C28.9135 23.5946 28.8636 23.8288 28.8624 24.0658V28.8392C28.8798 29.2681 29.0504 29.6765 29.3432 29.9903C29.6361 30.3041 30.0317 30.5025 30.4584 30.5494C30.885 30.5964 31.3143 30.4888 31.6684 30.2462C32.0225 30.0035 32.2778 29.642 32.388 29.2272L33.1422 29.2272C33.5982 29.2267 34.0353 29.0453 34.3577 28.7228C34.6801 28.4004 34.8615 27.9632 34.8619 27.5073V25.3974C34.8614 24.9415 34.6801 24.5043 34.3577 24.182C34.0353 23.8596 33.5981 23.6783 33.1422 23.6779ZM14.5626 28.4156H13.8564C13.6157 28.4153 13.3848 28.3195 13.2146 28.1492C13.0443 27.9789 12.9486 27.7481 12.9483 27.5073V25.3974C12.9487 25.1566 13.0444 24.9259 13.2147 24.7557C13.3849 24.5855 13.6157 24.4897 13.8564 24.4895H14.5626V28.4156ZM21.4673 32.4871H23.1789C23.2391 32.4884 23.2983 32.5027 23.3526 32.5289C23.4068 32.5551 23.4548 32.5926 23.4932 32.6389C23.5317 32.6852 23.5598 32.7393 23.5756 32.7974C23.5913 32.8555 23.5945 32.9163 23.5847 32.9758C23.5846 33.0833 23.5418 33.1865 23.4658 33.2626C23.3897 33.3387 23.2865 33.3815 23.1789 33.3816H21.4673C21.4071 33.3802 21.3479 33.366 21.2937 33.3398C21.2395 33.3136 21.1915 33.2761 21.153 33.2298C21.1145 33.1834 21.0865 33.1294 21.0707 33.0713C21.0549 33.0132 21.0518 32.9524 21.0615 32.8929C21.0616 32.7853 21.1044 32.6822 21.1805 32.6061C21.2566 32.53 21.3597 32.4872 21.4673 32.4871ZM16.2824 23.1579C16.4118 23.1418 16.5432 23.1531 16.668 23.1912C16.7927 23.2293 16.9081 23.2932 17.0064 23.3789C17.1048 23.4646 17.184 23.5701 17.2388 23.6884C17.2936 23.8068 17.3229 23.9354 17.3246 24.0658V28.8392C17.3144 30.0508 15.3848 30.0524 15.3743 28.8392C15.3712 28.8324 15.3765 24.0947 15.3743 24.0837C15.3721 23.963 15.394 23.8431 15.4387 23.731C15.4834 23.6188 15.5499 23.5167 15.6344 23.4306C15.7189 23.3444 15.8197 23.2759 15.931 23.2291C16.0422 23.1823 16.1617 23.1581 16.2824 23.1579ZM31.6244 28.8392C31.6226 28.9696 31.5934 29.0982 31.5386 29.2166C31.4837 29.335 31.4045 29.4404 31.3062 29.5261C31.2078 29.6118 31.0925 29.6758 30.9677 29.7138C30.843 29.7519 30.7116 29.7633 30.5821 29.7471C30.3414 29.7468 30.1106 29.6511 29.9404 29.4809C29.7701 29.3107 29.6743 29.0799 29.674 28.8392V24.0658C29.6743 23.8251 29.7701 23.5943 29.9404 23.4241C30.1106 23.2539 30.3414 23.1582 30.5821 23.1579C30.7131 23.1416 30.846 23.1534 30.972 23.1925C31.098 23.2317 31.2142 23.2972 31.3128 23.3849C31.4115 23.4725 31.4903 23.5801 31.544 23.7006C31.5977 23.8211 31.6252 23.9517 31.6244 24.0837C31.6244 24.0837 31.6273 28.8221 31.6244 28.8392ZM34.0503 27.5073C34.0501 27.7481 33.9543 27.9789 33.7841 28.1492C33.6138 28.3195 33.383 28.4153 33.1422 28.4156H32.436C32.4373 27.4624 32.4351 25.4278 32.436 24.4895H33.1422C33.383 24.4897 33.6137 24.5855 33.784 24.7557C33.9542 24.9259 34.05 25.1567 34.0503 25.3974V27.5073Z" fill="#252525"/>
<path d="M23.4999 19.2222C22.7283 19.2214 21.9739 19.4508 21.3333 19.8808C20.6926 20.3109 20.1946 20.9222 19.903 21.6366C19.6114 22.351 19.5394 23.1361 19.6962 23.8917C19.8529 24.6473 20.2314 25.3389 20.7831 25.8784V28.1511C20.7844 28.2306 20.8087 28.3079 20.8532 28.3737C20.8978 28.4395 20.9605 28.4909 21.0338 28.5216C21.1071 28.5523 21.1877 28.561 21.2658 28.5466C21.344 28.5321 21.4162 28.4952 21.4737 28.4404L22.982 26.9559C23.5092 27.0269 24.0454 26.9888 24.5573 26.8441C25.0692 26.6993 25.5459 26.4509 25.9579 26.1144C26.3699 25.7778 26.7083 25.3601 26.9522 24.8874C27.1962 24.4146 27.3404 23.8968 27.3759 23.366C27.4115 22.8352 27.3376 22.3027 27.1589 21.8017C26.9802 21.3006 26.7005 20.8415 26.3371 20.453C25.9737 20.0645 25.5343 19.7548 25.0463 19.5431C24.5582 19.3313 24.0319 19.2221 23.4999 19.2222ZM22.9207 26.1233C22.8562 26.1111 22.7896 26.1146 22.7267 26.1337C22.6638 26.1527 22.6065 26.1867 22.5595 26.2327L21.5947 27.1822V25.7024C21.5948 25.6452 21.5827 25.5887 21.5593 25.5365C21.5359 25.4843 21.5017 25.4377 21.459 25.3996C21.1353 25.1117 20.876 24.7587 20.6981 24.3636C20.5202 23.9685 20.4278 23.5403 20.4269 23.1071C20.5705 19.0406 26.4292 19.0398 26.573 23.1071C26.5734 23.5598 26.4737 24.007 26.2809 24.4166C26.0882 24.8263 25.8072 25.1882 25.4581 25.4764C25.1091 25.7647 24.7006 25.9722 24.2619 26.084C23.8232 26.1959 23.3652 26.2093 22.9207 26.1233Z" fill="#252525"/>
<path d="M22.0369 22.752C21.9251 22.7536 21.8183 22.7992 21.7398 22.8789C21.6612 22.9586 21.6172 23.066 21.6172 23.1779C21.6172 23.2898 21.6612 23.3972 21.7398 23.4769C21.8183 23.5565 21.9251 23.6021 22.037 23.6037C22.1489 23.6021 22.2556 23.5565 22.3342 23.4768C22.4127 23.3971 22.4567 23.2897 22.4567 23.1778C22.4567 23.0659 22.4127 22.9585 22.3341 22.8788C22.2556 22.7992 22.1488 22.7536 22.0369 22.752Z" fill="#252525"/>
<path d="M23.4998 22.752C23.388 22.7536 23.2812 22.7992 23.2027 22.8789C23.1241 22.9586 23.0801 23.066 23.0801 23.1779C23.0801 23.2898 23.1241 23.3972 23.2027 23.4769C23.2812 23.5565 23.388 23.6021 23.4999 23.6037C23.6118 23.6021 23.7185 23.5565 23.7971 23.4768C23.8756 23.3971 23.9196 23.2897 23.9196 23.1778C23.9196 23.0659 23.8756 22.9585 23.797 22.8788C23.7185 22.7992 23.6117 22.7536 23.4998 22.752Z" fill="#252525"/>
<path d="M24.9608 22.752C24.8489 22.7536 24.7421 22.7992 24.6636 22.8789C24.585 22.9586 24.541 23.066 24.541 23.1779C24.541 23.2898 24.5851 23.3972 24.6636 23.4769C24.7422 23.5565 24.8489 23.6021 24.9608 23.6037C25.0727 23.6021 25.1794 23.5565 25.258 23.4768C25.3365 23.3971 25.3806 23.2897 25.3806 23.1778C25.3806 23.0659 25.3365 22.9585 25.258 22.8788C25.1794 22.7992 25.0727 22.7536 24.9608 22.752Z" fill="#252525"/>
</svg>
