<svg width="38" height="38" viewBox="0 0 38 38" fill="none" xmlns="http://www.w3.org/2000/svg">
<path d="M31.2578 9.1936H36.1611V28.8067H31.2578V9.1936Z" fill="#FF4B63"/>
<path d="M26.3544 26.2426V15.323H21.4512V22.4248C23.5046 23.0411 25.2535 24.4028 26.3544 26.2426Z" fill="#FF4B63"/>
<path d="M18.3881 30.8795L16.2754 31.9355L16.8233 33.0326L19.275 31.8068C19.3768 31.7559 19.4625 31.6776 19.5224 31.5807C19.5823 31.4838 19.614 31.3721 19.6139 31.2582V26.355H18.3881V30.8795Z" fill="#FF4B63"/>
<path d="M18.9996 38.0003C20.0343 37.9996 21.0572 37.7809 22.0017 37.3585C22.9462 36.9361 23.7912 36.3194 24.4815 35.5487L23.5682 34.7317C22.6231 35.7931 21.3388 36.4935 19.9347 36.7132C18.5305 36.933 17.0937 36.6584 15.8695 35.9364C14.6453 35.2144 13.7097 34.0898 13.2226 32.7547C12.7354 31.4195 12.7269 29.9567 13.1985 28.616C13.6701 27.2753 14.5926 26.1399 15.8083 25.4037C17.024 24.6676 18.4576 24.3763 19.8642 24.5797C21.2708 24.7831 22.5631 25.4686 23.5205 26.519C24.4779 27.5694 25.0409 28.9196 25.1134 30.3389H23.29L25.7416 33.6076L28.1932 30.3389H26.3392C26.2783 28.8995 25.7957 27.5096 24.9514 26.3422C24.1071 25.1747 22.9383 24.2811 21.5903 23.7724C20.2423 23.2638 18.7746 23.1625 17.3695 23.4811C15.9644 23.7997 14.6839 24.5243 13.6872 25.5647C12.6905 26.6051 12.0215 27.9154 11.7634 29.3329C11.5053 30.7504 11.6695 32.2124 12.2355 33.5374C12.8015 34.8623 13.7444 35.9917 14.947 36.7851C16.1496 37.5786 17.5588 38.0012 18.9996 38.0003Z" fill="#FF4B63"/>
<path d="M29.4199 30.0325H38.0006V31.2583H29.4199V30.0325Z" fill="#FF4B63"/>
<path d="M0 30.0325H10.4194V31.2583H0V30.0325Z" fill="#FF4B63"/>
<path d="M1.83789 15.323H6.74116V28.807H1.83789V15.323Z" fill="#FF4B63"/>
<path d="M33.7116 9.23786e-06C33.0613 9.23786e-06 32.4378 0.258306 31.978 0.718076C31.5182 1.17785 31.2599 1.80143 31.2599 2.45164C31.2626 2.70166 31.3039 2.94976 31.3825 3.18713L25.5868 6.80329C25.1251 6.36141 24.5083 6.1185 23.8692 6.12687C23.2301 6.13524 22.6199 6.39421 22.1699 6.84803L15.833 3.11971C15.899 2.90302 15.934 2.67812 15.9372 2.45164C15.937 2.08949 15.8566 1.73188 15.7017 1.40452C15.5469 1.07716 15.3214 0.788171 15.0415 0.558332C14.7617 0.328494 14.4343 0.163513 14.0831 0.0752475C13.7319 -0.0130175 13.3655 -0.022374 13.0102 0.0478505C12.6549 0.118075 12.3196 0.266136 12.0284 0.481392C11.7371 0.696647 11.4972 0.97375 11.3258 1.29278C11.1545 1.61182 11.0559 1.96485 11.0372 2.32652C11.0185 2.68819 11.0802 3.0495 11.2178 3.38449L5.20029 7.89917C4.77025 7.54935 4.23341 7.35728 3.67905 7.35491C3.15187 7.35423 2.63844 7.52313 2.21461 7.83665C1.79078 8.15018 1.47903 8.5917 1.3254 9.09601C1.17177 9.60032 1.18441 10.1407 1.36146 10.6372C1.5385 11.1338 1.87056 11.5603 2.30859 11.8536C2.74662 12.147 3.26739 12.2917 3.79397 12.2664C4.32055 12.241 4.82502 12.047 5.23286 11.713C5.64071 11.3789 5.9303 10.9225 6.05886 10.4113C6.18743 9.89999 6.14814 9.36093 5.94682 8.87369L11.9668 4.35901C12.4344 4.73969 13.0271 4.93246 13.6292 4.8997C14.2313 4.86695 14.7996 4.61103 15.2232 4.18188L21.5576 7.91265C21.4917 8.12935 21.4566 8.35425 21.4534 8.58072C21.4534 9.23094 21.7117 9.85452 22.1715 10.3143C22.6312 10.7741 23.2548 11.0324 23.905 11.0324C24.5552 11.0324 25.1788 10.7741 25.6386 10.3143C26.0984 9.85452 26.3567 9.23094 26.3567 8.58072C26.354 8.3307 26.3127 8.0826 26.2341 7.84523L32.0297 4.22908C32.3203 4.50512 32.6741 4.70572 33.0602 4.8133C33.4463 4.92088 33.8529 4.93216 34.2444 4.84616C34.6358 4.76015 35.0002 4.57948 35.3057 4.31997C35.6111 4.06046 35.8483 3.73002 35.9964 3.35759C36.1445 2.98516 36.199 2.5821 36.1552 2.1837C36.1114 1.7853 35.9706 1.40372 35.7451 1.07236C35.5196 0.741009 35.2164 0.46999 34.8618 0.28304C34.5073 0.0960893 34.1124 -0.00109092 33.7116 9.23786e-06Z" fill="#FF4B63"/>
<path d="M16.5478 9.1936H11.6445V26.2423C12.7454 24.4025 14.4943 23.0408 16.5478 22.4245V9.1936Z" fill="#FF4B63"/>
</svg>
