<svg width="190" height="149" viewBox="0 0 190 149" fill="none" xmlns="http://www.w3.org/2000/svg">
<path d="M0.125886 54.8194L1.1231 54.0482C1.74818 54.8608 2.36206 55.7009 2.99471 56.6289L1.95427 57.3408C1.33528 56.4345 0.737304 55.6104 0.125886 54.8194Z" fill="#878787"/>
<path d="M3.79841 60.1808L4.84375 59.4805L4.84538 59.4843L3.79841 60.1808Z" fill="#878787"/>
<path d="M180.295 138.281C179.919 137.226 179.562 136.26 179.213 135.335L180.393 134.888C180.746 135.824 181.105 136.795 181.484 137.857L180.295 138.281Z" fill="#878787"/>
<path d="M3.79121 60.1627L4.8606 59.4978C5.85437 61.0989 6.82186 62.7566 7.7555 64.3556L8.11803 64.9779L7.03171 65.6134L6.66917 64.9911C5.73717 63.396 4.77845 61.7483 3.79121 60.1627ZM8.7169 68.4551L9.29768 68.2103L9.77243 67.8006L9.3093 68.2054L9.32477 68.1989L9.83807 67.8915C11.1167 70.0062 12.2109 71.6834 13.2799 73.1707L12.2586 73.9065C11.165 72.3931 10.0538 70.6866 8.75666 68.5386L8.76441 68.5353L8.71139 68.4528L8.7169 68.4551ZM9.3093 68.2054L9.29768 68.2103L9.32865 68.1973L9.31315 68.2038L9.3093 68.2054ZM14.3661 76.6249L15.3233 75.8021L14.924 76.1528L15.3321 75.8121C16.0852 76.7121 16.8662 77.5593 17.6482 78.3332C18.3046 78.9821 19.013 79.6137 19.7425 80.209L18.9465 81.1873C18.1845 80.5692 17.4499 79.9076 16.7633 79.2303C15.9527 78.4321 15.1509 77.5571 14.3748 76.6349C14.3748 76.6349 14.3716 76.6272 14.3699 76.6233L14.3661 76.6249ZM14.9178 76.1599L14.8502 76.2158L14.9916 76.0969L14.9162 76.156L14.9178 76.1599ZM21.729 83.2246L22.0776 82.6993L22.3789 82.1484L22.101 82.6575L22.4206 82.1718L22.0776 82.6993L22.4245 82.1702C23.5208 82.8891 24.6824 83.5577 25.893 84.1692C25.8779 83.3002 25.8915 82.4236 25.9349 81.5527L26.5433 81.5791L27.1924 81.529L27.1907 81.6117C27.1429 82.6668 27.1342 83.7282 27.1675 84.7811C27.4162 84.8952 27.6687 85.0076 27.9213 85.12L27.4188 86.2755C27.3583 86.2509 27.2961 86.2224 27.2356 86.1977C27.2746 86.7557 27.3253 87.3088 27.3854 87.8626L26.1316 88.0033C26.0421 87.2067 25.9737 86.4057 25.9339 85.5972C24.4515 84.8815 23.0401 84.0856 21.7235 83.2224L21.7219 83.2185L21.729 83.2246ZM28.496 97.6074C27.7237 95.6121 27.1113 93.5313 26.6824 91.4096L26.6728 91.3543L27.2972 91.2781L27.878 91.0334L27.3127 91.2716L27.3525 91.2686L27.9153 91.1545C28.332 93.2038 28.9222 95.2211 29.669 97.1451L28.4928 97.5996L28.496 97.6074ZM27.3105 91.2771L27.295 91.2836L27.3502 91.274L27.3105 91.2771ZM29.8717 100.721L30.4525 100.476L30.9448 100.086L30.4641 100.471L30.5106 100.452L31.0147 100.198C31.9462 102.062 33.0409 103.849 34.277 105.517L33.2661 106.266C31.9884 104.543 30.8472 102.69 29.888 100.759L29.8717 100.721ZM30.4641 100.471L30.4486 100.478L30.5106 100.452L30.4641 100.471ZM35.4155 108.889L35.8766 108.545L36.3864 108.088C37.7723 109.624 39.3061 111.057 40.9495 112.339L40.1733 113.332C38.4689 112.003 36.8835 110.523 35.4467 108.931L35.8988 108.522L35.4379 108.921L35.8711 108.542L35.41 108.887L35.4155 108.889ZM26.2438 78.1308C26.5112 76.0713 26.9391 73.9487 27.5104 71.8204L27.5149 71.8094L28.1212 71.9825L28.7384 72.1055L28.1636 71.9966L28.726 72.1517C28.1693 74.2282 27.7506 76.2967 27.4907 78.2984L26.2415 78.1363L26.2438 78.1308ZM28.1659 71.9911L28.1212 71.9825L28.4192 72.0621L28.1659 71.9911ZM30.6001 87.5065L30.8197 86.9672L31.0162 86.319L31.0382 86.328C32.9745 86.9847 35.0125 87.5257 37.0971 87.9285L36.8567 89.165C34.7126 88.7509 32.619 88.1968 30.6293 87.5216L30.8158 86.9688L30.5962 87.5081L30.6001 87.5065ZM42.9775 115.323L43.3261 114.798L43.5691 114.217L43.3383 114.784L43.6708 114.274C43.9329 114.442 44.1989 114.608 44.4633 114.77C45.9705 115.685 47.5504 116.524 49.1684 117.269L48.6439 118.416C46.9819 117.653 45.3563 116.792 43.8112 115.852C43.5342 115.681 43.2572 115.511 42.9879 115.337L42.9769 115.333L42.9775 115.323ZM43.3367 114.78L43.3277 114.802L43.5015 114.532L43.3383 114.784L43.3367 114.78ZM28.5108 68.5357C29.1806 66.5437 29.9851 64.536 30.8981 62.5693L30.9131 62.5401L31.4741 62.8326L32.0536 63.0718L31.5142 62.8522L31.5615 62.8779L32.0385 63.1009C31.1451 65.0275 30.3585 66.9912 29.7012 68.9369L28.5053 68.5334L28.5108 68.5357ZM31.5087 62.85L31.4647 62.832L31.556 62.8756L31.5087 62.85ZM51.7994 119.726L52.2578 118.553C54.2041 119.287 56.2224 119.9 58.2585 120.383L57.968 121.609C55.8779 121.117 53.8062 120.485 51.812 119.734L52.0419 119.122L51.7955 119.728L51.7994 119.726ZM40.2117 89.6936L40.3251 89.1079L40.3699 88.4461L40.4091 88.4524C42.5106 88.7113 44.6231 88.8881 46.6941 88.9774L46.6407 90.2355C44.5376 90.146 42.3876 89.9668 40.2563 89.7022L40.3267 89.1117L40.2133 89.6975L40.2117 89.6936ZM32.4229 59.5012C33.4264 57.6194 34.5372 55.7653 35.7237 53.9933L36.249 54.3419L36.2205 54.3175L36.7766 54.685L36.7688 54.6882L36.7705 54.6921C35.6068 56.4317 34.5171 58.2495 33.5332 60.0911L32.4213 59.4973L32.4229 59.5012ZM61.3193 122.28L61.5393 121.038C63.6017 121.378 65.7007 121.587 67.7824 121.659L67.7383 122.917C65.6043 122.841 63.449 122.627 61.3381 122.281L61.4406 121.659L61.3232 122.278L61.3193 122.28ZM50.0106 90.3019L50.0514 89.6737L49.9581 89.0519L50.0526 89.655L50.0557 89.6081L50.0547 89.0432C52.1826 89.0402 54.2979 88.9422 56.3459 88.7494L56.464 90.0036C54.3801 90.1978 52.2251 90.2988 50.0575 90.3049L50.0122 90.3057L50.0106 90.3019ZM50.0526 89.655L50.0608 89.6743L50.0557 89.6081L50.0526 89.655ZM37.7093 51.1962C39.0075 49.4729 40.3974 47.8158 41.8363 46.2749L42.296 46.7058L42.2784 46.6858L42.7779 47.1137L42.7556 47.1367C41.349 48.6459 39.9896 50.2673 38.7181 51.9565L37.7109 51.2001L37.7093 51.1962ZM71.1125 122.918L71.1515 122.318L71.102 121.66L71.134 121.66C73.2326 121.587 75.327 121.375 77.3737 121.028L77.5829 122.271C75.4849 122.626 73.3297 122.846 71.1781 122.922L71.1547 122.326L71.1158 122.926L71.1125 122.918ZM59.8153 89.6037L59.7656 88.9772L59.5999 88.3677L59.7651 88.9546L59.7637 88.9187L59.68 88.3522C61.7844 88.0445 63.858 87.6312 65.8456 87.122L66.1598 88.3438C64.1318 88.8654 62.0124 89.2889 59.8644 89.6013L59.8185 89.6114L59.8153 89.6037ZM59.7651 88.9546L59.7717 88.9701L59.7637 88.9187L59.7651 88.9546ZM44.2483 43.8406C45.8314 42.3392 47.4845 40.9496 49.1715 39.7053L49.5452 40.2135L49.5371 40.1942L49.9627 40.685L49.9173 40.7179C48.2719 41.9309 46.6548 43.2871 45.1116 44.7534L44.2428 43.8384L44.2483 43.8406ZM80.8339 121.589L80.7842 120.963L80.5394 120.382L80.7793 120.951L80.7744 120.94L80.6318 120.352C81.139 120.225 81.6485 120.093 82.1492 119.95C83.4938 119.57 84.9195 119.102 86.6319 118.481L87.0632 119.667C85.3221 120.295 83.8693 120.775 82.496 121.163C81.9781 121.308 81.4587 121.449 80.9327 121.575L80.9294 121.567L80.8261 121.593L80.8339 121.589ZM80.787 120.948L80.7919 120.96L80.7821 120.936L80.787 120.948ZM69.4548 87.3885L69.2621 86.7904L69.2637 86.7942L69.2604 86.7865L69.267 86.802L69.0157 86.2057L69.0732 86.1906L69.0716 86.1867C69.9908 85.8906 70.9103 85.5624 71.8045 85.2175C72.0827 85.1095 72.3631 84.9959 72.6419 84.8784C73.3737 84.57 74.125 84.2215 74.8688 83.8443L75.4379 84.9677C74.6686 85.3603 73.8902 85.7202 73.1274 86.0416C72.8371 86.1639 72.545 86.2824 72.2553 86.3954C71.3417 86.7484 70.3973 87.0825 69.4587 87.3868L69.4548 87.3885ZM52.0069 37.7674C53.8661 36.5965 55.7812 35.5798 57.6996 34.7441L57.9456 35.3062L57.7074 34.7409L58.2045 35.8992C56.3426 36.7065 54.484 37.6948 52.6796 38.8336L52.0069 37.7674ZM90.2594 118.466L90.0563 117.941L89.7855 117.298L90.0351 117.89L89.8048 117.29L90.4209 117.053C92.0234 116.441 93.6959 115.769 95.686 114.93L96.1754 116.092C94.1698 116.937 92.4841 117.611 90.8716 118.231L90.2555 118.468L90.2594 118.466ZM77.7043 82.2529L77.773 82.2103L77.7714 82.2064C79.5075 81.1329 81.222 79.8998 82.8616 78.5433L83.6628 79.5142C81.9794 80.9075 80.2194 82.1733 78.4324 83.2774L78.1067 82.7535L77.7027 82.249L77.7043 82.2529ZM61.3151 34.7116L60.9202 33.5148C63.0005 32.8251 65.1203 32.3377 67.2174 32.0559L67.229 32.051L67.3069 32.6793L67.446 33.2909L67.3083 32.7152L67.383 33.3037C65.3583 33.5733 63.3185 34.0452 61.3135 34.7077L61.3151 34.7116ZM98.8073 113.606L100.617 112.825C101.959 112.246 103.306 111.665 104.653 111.097L105.142 112.259C103.799 112.825 102.458 113.408 101.114 113.983L99.3045 114.764L99.0598 114.183L99.3006 114.766L98.8112 113.604L98.8073 113.606ZM85.3489 76.3418L85.7652 76.7454L85.3672 76.3204C86.9044 74.8611 88.3328 73.3063 89.6154 71.7082L90.5997 72.497C89.2822 74.1419 87.8154 75.7356 86.2361 77.2354L86.2161 77.2529L85.797 76.7776L85.3473 76.3379L85.3489 76.3418ZM70.7009 33.041L70.6678 31.7829C71.7129 31.7529 72.7676 31.7781 73.806 31.8512C74.9061 31.9302 76.0252 32.065 77.122 32.2549L76.9262 33.5L77.0046 32.9609L76.9114 33.4971C76.9114 33.4971 76.9075 33.4987 76.9036 33.5004C75.8515 33.3191 74.7793 33.1873 73.7221 33.113C72.7212 33.0423 71.7079 33.0179 70.7042 33.0487L70.7009 33.041ZM108.266 110.961L108.073 110.504L107.776 109.799L108.025 110.378L107.788 109.794C109.972 108.906 111.924 108.161 113.754 107.517L114.172 108.704C112.361 109.34 110.43 110.081 108.262 110.962L108.266 110.961ZM91.5914 69.029L91.5991 69.0258L91.5975 69.0219C92.8117 67.2291 93.8325 65.3993 94.6403 63.5726L95.7935 64.0806C94.9572 65.9695 93.8979 67.8702 92.6419 69.7262L92.1244 69.3743L92.6313 69.7443L91.5952 69.0274L91.5914 69.029ZM80.1498 34.2253L80.4904 33.0103C82.6318 33.6126 84.6582 34.4183 86.5131 35.4012L85.9303 36.5176L86.124 36.1442L85.9248 36.5153C84.1464 35.5732 82.2025 34.8011 80.1482 34.2214L80.1498 34.2253ZM95.8028 60.4885L95.8095 60.472C96.4438 58.4175 96.8005 56.3751 96.865 54.3965L98.1237 54.4406C98.0558 56.53 97.6824 58.6844 97.011 60.8457L95.8044 60.4924L95.8028 60.4885ZM117.26 107.668L117.185 107.057L116.933 106.46L116.995 106.444L116.993 106.44C117.977 106.135 118.96 105.848 119.91 105.594C120.993 105.306 122.097 105.037 123.191 104.799L123.459 106.031C122.386 106.265 121.301 106.526 120.236 106.811C119.301 107.059 118.335 107.342 117.367 107.641L117.183 107.053L117.258 107.664L117.26 107.668ZM117.188 107.042L88.7361 38.2533L89.4712 37.2277C91.3119 38.5448 92.8965 40.0656 94.1772 41.7418L93.6778 42.1255L93.7126 42.1108L93.1888 42.523L93.1806 42.5037L93.1767 42.5053C91.9743 40.9284 90.4818 39.4964 88.74 38.2516L117.188 107.042ZM96.7181 51.1803L97.2938 51.0426L96.7052 51.1173C96.568 50.0992 96.348 49.0794 96.0445 48.0994C95.7497 47.1293 95.3649 46.1836 94.9098 45.2766L96.0332 44.7075C96.5238 45.677 96.9325 46.6902 97.2511 47.7277C97.5708 48.7785 97.8075 49.8596 97.9531 50.9517L97.958 50.9633L97.3335 51.0395L96.7219 51.1787L96.7181 51.1803ZM126.732 105.4L126.655 104.776L126.411 104.195L126.649 104.76L126.639 104.683L126.551 104.15C128.647 103.8 130.79 103.54 132.918 103.377L133.016 104.635C130.926 104.795 128.823 105.052 126.762 105.397L126.729 105.406L126.732 105.4ZM126.654 104.763L126.661 104.778L126.646 104.689L126.654 104.763ZM136.371 104.462L136.352 103.832L136.35 103.828L136.347 103.852L136.297 103.203L136.332 103.201C138.464 103.142 140.621 103.177 142.746 103.307L142.67 104.566C140.587 104.436 138.467 104.404 136.371 104.462ZM145.966 104.846L146.083 104.226L146.038 103.598L146.086 104.212L146.094 104.176L146.158 103.602C146.479 103.64 146.799 103.674 147.122 103.716C149.123 103.963 150.885 104.26 152.501 104.623L152.226 105.851C150.646 105.5 148.923 105.209 146.964 104.963C146.65 104.922 146.334 104.887 146.018 104.851L146.017 104.847L145.964 104.842L145.966 104.846ZM146.086 104.212L146.093 104.227L146.094 104.176L146.086 104.212ZM155.398 106.703L155.619 106.158L155.804 105.515L155.83 105.522C158.051 106.237 159.986 107.118 161.743 108.206L161.079 109.279C159.408 108.246 157.564 107.409 155.443 106.725L155.621 106.162L155.399 106.707L155.398 106.703ZM163.734 111.21L164.144 110.732L164.494 110.211L164.166 110.709L164.548 110.252C166.152 111.582 167.701 113.104 169.152 114.772L168.202 115.601C166.795 113.983 165.295 112.513 163.745 111.224L163.732 111.216L163.734 111.21ZM164.164 110.705L164.148 110.73L164.311 110.534L164.164 110.705ZM170.787 117.831L171.276 117.402L171.308 117.443C172.548 119.1 173.734 120.907 174.832 122.82L173.738 123.449C172.664 121.581 171.508 119.812 170.298 118.197L170.787 117.831ZM175.313 126.365L175.894 126.12L176.441 125.807L175.925 126.107L175.948 126.097L176.458 125.837C177.288 127.47 178.071 129.178 178.867 131.054C178.951 131.256 179.036 131.457 179.121 131.658L177.956 132.14C177.871 131.939 177.788 131.741 177.705 131.544C176.925 129.693 176.148 128.01 175.335 126.406L175.315 126.359L175.313 126.365ZM175.925 126.107L175.894 126.12L175.948 126.097L175.925 126.107ZM179.214 135.331L179.194 135.284L179.783 135.059L179.752 135.072L180.364 134.814L180.374 134.837L180.398 134.895L179.216 135.334L179.214 135.331Z" fill="#878787"/>
<path d="M183.352 145.268C180.924 142.32 177.33 138.865 174.162 137.049L180.536 137.135L185.489 133.124C184.121 136.51 183.434 141.449 183.35 145.264L183.352 145.268Z" fill="#878787"/>
</svg>
