<svg width="55" height="55" viewBox="0 0 55 55" fill="none" xmlns="http://www.w3.org/2000/svg">
<circle cx="27.5" cy="27.5" r="27.5" fill="white"/>
<path d="M45.74 39.1315L45.4688 38.9597C46.8171 36.8408 47.7739 34.5261 48.3084 32.0781L48.6214 32.1471C48.0788 34.632 47.1093 36.9821 45.74 39.1331V39.1315Z" fill="#3A3A3A"/>
<path d="M45.1235 37.6191L45.8154 38.7091L47.0819 38.9675L44.5039 40.6145L45.1235 37.6191Z" fill="#3A3A3A"/>
<path d="M22.7191 6.57677L22.6484 6.26375C24.2119 5.9106 25.8252 5.73242 27.4432 5.73242C28.3133 5.73242 29.1897 5.78379 30.0469 5.88652L30.0084 6.20597C29.1641 6.10484 28.3004 6.05347 27.4432 6.05347C25.8493 6.05347 24.2601 6.23004 22.7191 6.57677Z" fill="#3A3A3A"/>
<path d="M28.9492 7.09454L29.6347 5.99977L29.32 4.74609L31.9189 6.35934L28.9492 7.09454Z" fill="#3A3A3A"/>
<path d="M10.1838 40.6055C8.67333 38.6278 7.52399 36.4286 6.76953 34.0706L7.07453 33.9727C7.81935 36.297 8.95103 38.4625 10.4391 40.4112L10.1838 40.6055Z" fill="#3A3A3A"/>
<path d="M8.32421 34.5633L7.04324 34.398L6.03516 35.2054L6.4172 32.1699L8.32421 34.5633Z" fill="#3A3A3A"/>
<path d="M21.5207 25.4549C21.5207 26.3361 21.3313 27.0649 20.9541 27.6396C20.5768 28.2142 20.0487 28.6428 19.3697 28.9237C18.6907 29.2063 17.9025 29.3459 17.0052 29.3459H15.774V33.131H13.082V21.75H16.6601C18.2027 21.75 19.3986 22.0566 20.2462 22.6698C21.0937 23.283 21.5191 24.2108 21.5191 25.4533H21.5207V25.4549ZM18.7469 25.4629C18.7469 25.0584 18.6714 24.7229 18.5205 24.4564C18.3696 24.1916 18.1433 23.9941 17.8399 23.8657C17.5365 23.7373 17.1545 23.6731 16.6954 23.6731H15.7756V27.3924H16.8351C17.2348 27.3924 17.5767 27.3233 17.8608 27.1869C18.1449 27.0504 18.3648 26.8386 18.5173 26.5544C18.6698 26.2703 18.7469 25.9059 18.7469 25.4629Z" fill="#10B93D"/>
<path d="M28.5293 23.815V33.135H25.8373V23.815H22.6445V21.7539H31.8537L31.8088 23.8696L28.5293 23.815Z" fill="#1E69E5"/>
<path d="M41.8093 29.8075C41.8093 30.5138 41.6247 31.1383 41.2555 31.6792C40.8863 32.2218 40.3566 32.6456 39.6679 32.9522C38.9777 33.2588 38.1494 33.4129 37.1814 33.4129C36.1091 33.4129 35.2102 33.2556 34.4847 32.941C33.7591 32.6263 33.1587 32.2363 32.6836 31.7707L34.0464 30.2602C34.467 30.6278 34.9325 30.9103 35.4414 31.111C35.9502 31.31 36.5089 31.4112 37.1156 31.4112C37.4929 31.4112 37.8235 31.3566 38.1093 31.2474C38.3934 31.1383 38.6149 30.9794 38.7738 30.7707C38.9327 30.562 39.0114 30.3116 39.0114 30.0146C39.0114 29.7353 38.9488 29.501 38.822 29.3083C38.6968 29.1173 38.4849 28.9439 38.1863 28.7914C37.8877 28.639 37.4736 28.4816 36.9423 28.3227C36.0562 28.0498 35.3435 27.748 34.8041 27.419C34.2647 27.0899 33.8731 26.7095 33.6307 26.2777C33.3867 25.8459 33.2647 25.3418 33.2647 24.7671C33.2647 24.0721 33.4573 23.4781 33.8426 22.9853C34.2278 22.4925 34.7463 22.1169 35.398 21.8569C36.0498 21.5968 36.7657 21.4668 37.549 21.4668C38.4303 21.4668 39.2072 21.5936 39.8798 21.8488C40.5524 22.1041 41.1351 22.4669 41.6279 22.9372L40.3566 24.3995C39.9729 24.0769 39.5604 23.8377 39.1173 23.6804C38.6743 23.5247 38.2232 23.446 37.7625 23.446C37.4238 23.446 37.1253 23.4878 36.8684 23.5729C36.6116 23.6579 36.4109 23.7815 36.2697 23.9469C36.1268 24.1106 36.0562 24.3161 36.0562 24.5633C36.0562 24.8105 36.1252 25.0063 36.2616 25.1717C36.3981 25.3354 36.6357 25.4911 36.976 25.6356C37.3147 25.78 37.785 25.9486 38.3886 26.1412C39.1045 26.3595 39.7193 26.6212 40.2314 26.9246C40.7434 27.228 41.1335 27.61 41.4048 28.0707C41.6761 28.5298 41.8109 29.1109 41.8109 29.8108V29.8075H41.8093Z" fill="#EB3D2E"/>
<path d="M26.9741 45.3366C26.5407 45.3254 26.1057 45.2981 25.6771 45.2564L25.6931 45.0959C26.1169 45.1376 26.5487 45.1633 26.9773 45.1745L26.9725 45.335H26.9741V45.3366ZM28.2727 45.3238L28.2647 45.1633C28.6933 45.144 29.1251 45.1087 29.5473 45.0573L29.5666 45.2162C29.1396 45.2676 28.7045 45.3029 28.2727 45.3222V45.3238ZM24.3913 45.0846C23.9659 45.0108 23.5373 44.9225 23.12 44.8182L23.1585 44.6625C23.5726 44.7652 23.9964 44.8535 24.4186 44.9257L24.3913 45.0846ZM30.8507 45.0172L30.8202 44.8599C31.2392 44.7796 31.6614 44.6817 32.0739 44.5693L32.1157 44.7235C31.6983 44.8358 31.2729 44.9353 30.8507 45.0156V45.0172ZM21.8711 44.4602C21.4602 44.3254 21.0508 44.1745 20.6511 44.0107L20.7121 43.8614C21.1086 44.0236 21.5147 44.1729 21.9209 44.3061L21.8711 44.4586V44.4602ZM33.3565 44.3398L33.3035 44.1889C33.7064 44.0476 34.1094 43.8903 34.501 43.7202L34.5652 43.8679C34.1703 44.0396 33.7642 44.1985 33.3581 44.3414H33.3565V44.3398ZM19.4665 43.473C19.0796 43.2803 18.696 43.0717 18.3252 42.8518L18.407 42.7137C18.7746 42.932 19.1551 43.1391 19.5387 43.3301L19.4665 43.473ZM35.7354 43.306L35.6616 43.1632C36.0388 42.9657 36.4144 42.7506 36.7788 42.5243L36.8639 42.6607C36.4963 42.8887 36.1175 43.1054 35.737 43.3044H35.7354V43.306ZM17.232 42.1487C16.8772 41.9015 16.5273 41.6398 16.1918 41.3685L16.2929 41.2433C16.6252 41.5114 16.972 41.7714 17.3235 42.017L17.232 42.1487ZM37.941 41.9384L37.8463 41.8084C38.1914 41.5579 38.5334 41.2899 38.8592 41.0154L38.9619 41.139C38.6313 41.4167 38.2877 41.6864 37.9394 41.94H37.941V41.9384ZM15.2126 40.5162C14.898 40.2208 14.5898 39.911 14.296 39.5948L14.4132 39.4856C14.7022 39.7986 15.0088 40.1068 15.3218 40.399L15.2126 40.5162ZM39.9251 40.2657L39.8127 40.1502C40.1193 39.8516 40.4179 39.5386 40.702 39.2191L40.8224 39.3251C40.5367 39.6461 40.2349 39.9623 39.9251 40.2641V40.2657ZM13.4485 38.6108C13.1788 38.2737 12.9188 37.9221 12.6748 37.5674L12.8064 37.4759C13.0488 37.8274 13.3056 38.1757 13.5737 38.5096L13.4485 38.6091V38.6108ZM41.6507 38.3234L41.5239 38.2255C41.7839 37.8868 42.0344 37.5336 42.2703 37.1757L42.4052 37.264C42.1676 37.6251 41.9139 37.9815 41.6523 38.3234H41.6507ZM11.9797 36.471C11.763 36.0986 11.5559 35.7149 11.3649 35.3281L11.5094 35.2574C11.6972 35.6411 11.9027 36.0215 12.1178 36.3907L11.9797 36.4726V36.471ZM43.0777 36.1531L42.9381 36.0745C43.1468 35.7005 43.3442 35.3152 43.524 34.9268L43.6701 34.9942C43.4871 35.3858 43.288 35.7743 43.0777 36.1515V36.1531ZM10.8352 34.1434C10.673 33.7437 10.5254 33.3328 10.3937 32.9218L10.5462 32.8721C10.6763 33.2798 10.8239 33.6859 10.9845 34.0824L10.8352 34.1434ZM44.1757 33.7983L44.0264 33.7405C44.1773 33.3408 44.317 32.9315 44.439 32.5221L44.5931 32.5687C44.4695 32.9828 44.3298 33.397 44.1757 33.7999V33.7983ZM10.0422 31.6714C9.94106 31.2524 9.85278 30.8238 9.78215 30.3984L9.94107 30.3727C10.0117 30.7949 10.0984 31.2187 10.1979 31.6344L10.0422 31.673V31.6714ZM44.9173 31.3102L44.76 31.2765C44.8515 30.8607 44.9302 30.4337 44.9912 30.0099L45.1501 30.0324C45.0875 30.461 45.0104 30.8896 44.9173 31.3102ZM9.61521 29.111C9.57508 28.6824 9.55099 28.2458 9.54297 27.814L9.70349 27.8108C9.71152 28.2394 9.7372 28.6712 9.77573 29.0966L9.61521 29.111ZM45.2897 28.7418L45.1292 28.7306C45.1597 28.3052 45.1758 27.8734 45.1758 27.4448C45.1758 27.2008 45.1709 26.9552 45.1613 26.7112L45.3218 26.7048C45.3315 26.9504 45.3363 27.1992 45.3363 27.4448C45.3363 27.8766 45.3202 28.3132 45.2897 28.7418ZM9.72275 26.5234L9.56223 26.5154C9.5847 26.0836 9.62163 25.6485 9.6746 25.2216L9.83351 25.2408C9.78054 25.6646 9.74362 26.0948 9.72115 26.5234H9.72275ZM45.0618 25.427C45.0136 25.0016 44.9494 24.5747 44.8708 24.1541L45.0281 24.1252C45.1083 24.549 45.1726 24.9808 45.2207 25.4094L45.0618 25.427ZM10.039 23.9711L9.88167 23.939C9.96514 23.5152 10.0663 23.0898 10.1802 22.6757L10.3343 22.719C10.2204 23.13 10.1209 23.5521 10.0374 23.9711H10.039ZM44.5883 22.8988C44.4791 22.4846 44.3523 22.0705 44.2142 21.6676L44.3667 21.6146C44.5064 22.0223 44.6348 22.4397 44.744 22.8571L44.5883 22.8988ZM10.7228 21.491L10.5719 21.4364C10.7164 21.0287 10.8785 20.6226 11.0535 20.2277L11.2012 20.2919C11.0278 20.6836 10.8689 21.0865 10.7244 21.4894H10.7228V21.491ZM43.7503 20.4669C43.5818 20.0736 43.3972 19.6819 43.2013 19.3031L43.3442 19.2292C43.5416 19.6113 43.7278 20.0062 43.898 20.4027L43.7503 20.4653V20.4669ZM11.763 19.1345L11.6217 19.0591C11.824 18.6771 12.0439 18.2998 12.2735 17.9338L12.4099 18.0189C12.182 18.3801 11.9653 18.7557 11.7646 19.1345H11.763ZM42.5689 18.1842C42.3458 17.8199 42.105 17.4587 41.8562 17.112L41.9862 17.0189C42.2366 17.3688 42.479 17.7332 42.7053 18.1008L42.5689 18.1842ZM13.1323 16.9546L13.0022 16.8599C13.2575 16.5116 13.5287 16.1697 13.8081 15.8406L13.9301 15.945C13.6523 16.2708 13.3843 16.6095 13.1307 16.9546H13.1323ZM41.0696 16.0942C40.7951 15.7652 40.5062 15.4441 40.2108 15.1359L40.3264 15.0252C40.6249 15.335 40.9171 15.6608 41.1932 15.9915L41.0696 16.0942ZM14.8017 14.9947L14.6877 14.8823C14.9895 14.5757 15.3073 14.2755 15.6316 13.9898L15.7375 14.1102C15.4165 14.3927 15.1019 14.6897 14.8017 14.9947ZM39.2846 14.2418C38.9668 13.9561 38.6345 13.6784 38.2958 13.4167L38.3937 13.2899C38.734 13.5548 39.0695 13.8341 39.3905 14.123L39.283 14.2418H39.2846ZM16.7344 13.2979L16.6381 13.1695C16.9816 12.9095 17.3396 12.6591 17.7007 12.4231L17.7874 12.5579C17.4294 12.7907 17.0747 13.0395 16.7344 13.2979ZM37.2492 12.6639C36.8928 12.4263 36.5236 12.2 36.1512 11.9897L36.2298 11.85C36.6055 12.0619 36.9779 12.2915 37.3375 12.5306L37.2492 12.6639ZM18.8918 11.8966L18.8148 11.7553C19.1936 11.5466 19.5837 11.3508 19.9737 11.171L20.0411 11.3171C19.6543 11.4953 19.2674 11.6895 18.8934 11.8966H18.8918ZM35.0083 11.3974C34.6198 11.2144 34.2217 11.0442 33.8236 10.8901L33.8814 10.7408C34.2827 10.8965 34.6856 11.0683 35.0757 11.2529L35.0067 11.3974H35.0083ZM21.2274 10.8243L21.1712 10.6734C21.5741 10.5225 21.9899 10.3845 22.404 10.2641L22.449 10.4182C22.038 10.5386 21.6271 10.675 21.2274 10.8243ZM32.6052 10.4711C32.1975 10.3475 31.7786 10.2368 31.3612 10.1421L31.3965 9.98636C31.8171 10.0811 32.2409 10.1934 32.6518 10.3186L32.6052 10.4727V10.4711ZM23.6962 10.1019L23.6625 9.94462C24.0847 9.85473 24.5149 9.77768 24.9419 9.71828L24.9644 9.8772C24.5406 9.9366 24.1152 10.012 23.6962 10.1019ZM30.0963 9.90449C29.6741 9.84189 29.2439 9.79213 28.8169 9.76002L28.8298 9.5995C29.26 9.63321 29.695 9.68137 30.1204 9.74558L30.0963 9.90449ZM26.2437 9.74558L26.2325 9.58505C26.6306 9.55937 27.0351 9.54492 27.4364 9.54492H27.5295V9.70544H27.4364C27.0383 9.70544 26.637 9.71828 26.2421 9.74397H26.2437V9.74558Z" fill="#666666"/>
<path d="M27.7109 52.8792V52.7187C28.1315 52.7139 28.5585 52.6995 28.9806 52.6738L28.9903 52.8343C28.5649 52.86 28.1347 52.8744 27.7109 52.8792ZM26.4299 52.8616C26.0045 52.8455 25.576 52.8166 25.1522 52.7797L25.1666 52.6192C25.5872 52.6561 26.0142 52.6834 26.4364 52.701L26.4299 52.8616ZM30.2664 52.7267L30.2488 52.5678C30.6693 52.5213 31.0931 52.4635 31.5089 52.3961L31.5346 52.555C31.1156 52.6224 30.6886 52.6802 30.2664 52.7267ZM23.8808 52.6336C23.4619 52.5742 23.0365 52.5052 22.6175 52.425L22.648 52.2676C23.0638 52.3479 23.486 52.4169 23.9033 52.4763L23.8808 52.6352V52.6336ZM32.7931 52.3174L32.7593 52.1601C33.1719 52.0718 33.5876 51.9723 33.997 51.8615L34.0387 52.0172C33.6278 52.1264 33.2088 52.2275 32.7931 52.3174ZM21.3671 52.1521C20.9545 52.0509 20.5388 51.9386 20.131 51.8166L20.1776 51.6625C20.5821 51.7829 20.9946 51.8968 21.4056 51.9964L21.3671 52.1521ZM35.2667 51.6561L35.2169 51.5036C35.6182 51.3735 36.0212 51.2323 36.4177 51.0814L36.4738 51.2323C36.0757 51.3832 35.668 51.526 35.2651 51.6561H35.2667ZM18.9143 51.4169C18.513 51.274 18.1101 51.1199 17.7168 50.9562L17.7778 50.8085C18.1694 50.9706 18.5691 51.1247 18.9672 51.266L18.9143 51.4169ZM37.6585 50.7475L37.5943 50.5998C37.9795 50.4313 38.3664 50.2483 38.7436 50.0605L38.8159 50.2033C38.4354 50.3927 38.047 50.5757 37.6585 50.7459V50.7475ZM16.5434 50.4361C16.1581 50.2531 15.7728 50.0589 15.3988 49.8566L15.4743 49.7153C15.8467 49.916 16.2287 50.1086 16.6108 50.29L16.5417 50.4345H16.5434V50.4361ZM39.9427 49.603L39.8641 49.4633C40.2301 49.2562 40.5977 49.0363 40.954 48.81L41.0407 48.9464C40.6811 49.1744 40.3119 49.3959 39.9427 49.603ZM14.2864 49.2209C13.9236 49.001 13.5592 48.7683 13.2077 48.5291L13.2976 48.3958C13.6491 48.6334 14.0087 48.8646 14.3699 49.0829L14.2864 49.2209ZM42.1034 48.2353L42.0103 48.1037C42.3538 47.8613 42.6973 47.6045 43.0296 47.3444L43.1291 47.4712C42.7936 47.7329 42.4485 47.9913 42.1034 48.2353ZM12.1643 47.7842C11.824 47.529 11.4869 47.2609 11.1594 46.9881L11.2622 46.8645C11.5864 47.1341 11.9219 47.4006 12.2606 47.6542L12.1643 47.7826V47.7842ZM44.1179 46.6558L44.012 46.5338C44.3314 46.2577 44.646 45.9687 44.951 45.6766L45.0618 45.7922C44.7552 46.0859 44.4374 46.3765 44.1163 46.6558H44.1179ZM10.1963 46.1453C9.88487 45.858 9.57506 45.5578 9.27649 45.2544L9.39047 45.1421C9.68583 45.4438 9.99403 45.7424 10.3038 46.0281L10.1947 46.1453H10.1963ZM45.9639 44.882L45.8467 44.7712C46.1357 44.4646 46.4214 44.1452 46.6959 43.8225L46.8179 43.9269C46.5418 44.2511 46.2545 44.5722 45.9623 44.8804H45.9639V44.882ZM8.40325 44.317C8.12073 43.9991 7.84302 43.6701 7.57816 43.3378L7.70337 43.2383C7.96824 43.5673 8.24433 43.8948 8.52364 44.211L8.40325 44.317ZM47.6253 42.9333L47.4985 42.8353C47.7554 42.5015 48.0074 42.1547 48.2498 41.8064L48.3814 41.8979C48.139 42.2478 47.8854 42.5962 47.6253 42.9333ZM6.80284 42.3201C6.55403 41.9749 6.31004 41.6202 6.08049 41.2638L6.21532 41.1771C6.44487 41.5303 6.68566 41.8834 6.93447 42.227L6.80444 42.3217H6.80284V42.3201ZM49.0829 40.8256L48.9464 40.7405C49.1696 40.381 49.3863 40.0117 49.5901 39.6409L49.7314 39.718C49.5259 40.0904 49.3076 40.4628 49.0829 40.824V40.8256ZM5.4111 40.1739C5.19761 39.8047 4.99053 39.4274 4.79791 39.0518L4.94078 38.978C5.1334 39.352 5.33727 39.7276 5.54916 40.0936L5.40951 40.1739H5.4111ZM50.3221 38.5815L50.1777 38.5109C50.3623 38.132 50.5404 37.742 50.7074 37.3519L50.8551 37.4145C50.6881 37.8062 50.5083 38.1994 50.3221 38.5815ZM4.24411 37.9009C4.06914 37.5124 3.9022 37.1175 3.74809 36.7226L3.89738 36.6632C4.05148 37.0549 4.21682 37.4482 4.39018 37.8335L4.24411 37.8993V37.9009ZM51.3286 36.2218L51.1777 36.1656C51.3238 35.7691 51.4618 35.363 51.587 34.9585L51.7411 35.0067C51.6143 35.4144 51.4763 35.8221 51.3286 36.2218ZM3.30987 35.5187C3.17503 35.1158 3.04821 34.7049 2.93424 34.2955L3.08835 34.2522C3.20232 34.6599 3.32753 35.0676 3.46076 35.469L3.30826 35.5203H3.30987V35.5187ZM52.0895 33.7754L51.9338 33.7353C52.0381 33.3276 52.1344 32.9102 52.2179 32.4945L52.3752 32.5266C52.2901 32.9439 52.1938 33.3629 52.0895 33.7738V33.7754ZM2.62122 33.0531C2.52812 32.6389 2.44465 32.2168 2.37081 31.7978L2.52973 31.7705C2.60197 32.1863 2.68544 32.6068 2.77854 33.0178L2.62122 33.0531ZM52.5999 31.2665L52.441 31.2424C52.5036 30.825 52.5566 30.3997 52.5983 29.9791L52.7589 29.9951C52.7171 30.4173 52.6625 30.8443 52.5999 31.2649V31.2665ZM2.18621 30.5313C2.13484 30.1091 2.09471 29.6805 2.06421 29.2567L2.22474 29.2455C2.25523 29.6661 2.29537 30.0931 2.34673 30.512L2.18782 30.5313H2.18621ZM52.8536 28.719L52.693 28.711C52.7139 28.2904 52.7251 27.8618 52.7251 27.4396C52.7251 27.0833 52.7171 26.7237 52.7027 26.3689L52.8632 26.3625C52.8776 26.7189 52.8857 27.0816 52.8857 27.4396C52.8857 27.8666 52.8744 28.2968 52.8536 28.719ZM2.00482 27.9774C2.00161 27.7976 2 27.6194 2 27.438C2 27.1892 2.00321 26.942 2.01124 26.6964L2.17176 26.7012C2.16534 26.9468 2.16052 27.1924 2.16052 27.438C2.16052 27.6162 2.16213 27.796 2.16534 27.9726L2.00482 27.9758V27.9774ZM2.23919 25.4299L2.07866 25.417C2.11237 24.9933 2.15571 24.5647 2.21028 24.1441L2.36921 24.165C2.31463 24.5839 2.27129 25.0093 2.23758 25.4299H2.23919ZM52.6176 25.0976C52.5791 24.677 52.5293 24.2516 52.4699 23.8343L52.6288 23.8118C52.6882 24.2324 52.7396 24.661 52.7781 25.0831L52.6176 25.0976ZM2.56504 22.9081L2.40773 22.8792C2.48318 22.4602 2.57147 22.038 2.66778 21.6255L2.82348 21.6624C2.72717 22.0733 2.64049 22.4923 2.56504 22.9081ZM52.258 22.579C52.1778 22.1648 52.0847 21.7459 51.9835 21.3365L52.1392 21.298C52.242 21.7106 52.3351 22.1311 52.4153 22.5485L52.258 22.579ZM3.14453 20.4312L2.99043 20.3863C3.10761 19.9785 3.23763 19.5676 3.37568 19.1647L3.52818 19.216C3.39013 19.6157 3.26171 20.0251 3.14613 20.4296H3.14453V20.4312ZM51.6464 20.1102C51.5244 19.7072 51.3896 19.2995 51.2467 18.9014L51.3976 18.8468C51.5421 19.2482 51.6769 19.6559 51.7989 20.0636L51.6448 20.1102H51.6464ZM3.97122 18.0218L3.82194 17.9624C3.98085 17.5659 4.15261 17.1694 4.33079 16.7841L4.47686 16.8515C4.30029 17.2352 4.13014 17.6285 3.97122 18.0218ZM50.7892 17.7184C50.6271 17.3283 50.4521 16.9382 50.2708 16.5594L50.4152 16.4904C50.5982 16.8724 50.7732 17.2657 50.9369 17.6574L50.7892 17.7184ZM5.0403 15.7086L4.89744 15.6348C5.09488 15.2576 5.30516 14.8803 5.52187 14.5143L5.65992 14.5962C5.44482 14.959 5.23614 15.3346 5.0403 15.7086ZM49.6945 15.4261C49.4938 15.0553 49.2803 14.6845 49.062 14.3233L49.1985 14.2398C49.4184 14.6026 49.6335 14.975 49.8357 15.3491L49.6945 15.4261ZM6.33572 13.5159L6.20248 13.4276C6.43684 13.0728 6.68405 12.7197 6.93607 12.3762L7.06609 12.4709C6.81568 12.8112 6.57008 13.1627 6.33732 13.5159H6.33572ZM48.375 13.2558C48.1374 12.9059 47.8886 12.5592 47.635 12.2221L47.7634 12.1258C48.0186 12.4645 48.269 12.8144 48.5082 13.1659L48.375 13.2558ZM7.84463 11.4644L7.72103 11.3633C7.99071 11.0326 8.27162 10.7067 8.55575 10.3921L8.67453 10.4997C8.39201 10.8127 8.11271 11.1369 7.84463 11.466V11.4644ZM46.842 11.2252C46.5707 10.901 46.2882 10.5799 46.0009 10.2701L46.118 10.161C46.407 10.4724 46.6911 10.7966 46.964 11.1225L46.8404 11.2252H46.842ZM9.54938 9.57667L9.43541 9.46269C9.73558 9.16091 10.047 8.86394 10.3616 8.57982L10.4692 8.69861C10.1562 8.98273 9.84635 9.27649 9.54778 9.57667H9.54938ZM45.1148 9.35835C44.813 9.0646 44.5 8.77245 44.1821 8.49153L44.2881 8.37114C44.6075 8.65366 44.9221 8.94742 45.2255 9.24278L45.1132 9.35675H45.1148V9.35835ZM11.4355 7.86871L11.3344 7.7451C11.6619 7.47703 12.0022 7.21217 12.3441 6.95854L12.4388 7.08696C12.0985 7.33738 11.7614 7.60063 11.4355 7.8671V7.86871ZM43.2078 7.67287C42.8771 7.40961 42.5352 7.14956 42.1933 6.90396L42.2864 6.77394C42.6315 7.02275 42.975 7.2828 43.3073 7.54766L43.2078 7.67287ZM13.4806 6.35819L13.3923 6.22496C13.7454 5.99059 14.1098 5.76104 14.4758 5.54434L14.5577 5.68239C14.1949 5.89749 13.8321 6.12543 13.4806 6.35819ZM41.1418 6.18643C40.7871 5.95688 40.4211 5.73376 40.0551 5.52187L40.1354 5.38221C40.5046 5.5941 40.8722 5.81883 41.2301 6.04999L41.1434 6.18482H41.1418V6.18643ZM15.6653 5.06117L15.5898 4.91991C15.9655 4.72086 16.3523 4.52983 16.736 4.35165L16.8034 4.49773C16.4214 4.67431 16.0393 4.86533 15.6653 5.06117ZM38.9346 4.91348C38.5574 4.72086 38.1706 4.53465 37.7853 4.36289L37.8511 4.21682C38.238 4.39018 38.628 4.57799 39.0069 4.77222L38.933 4.91509H38.9346V4.91348ZM17.9688 3.99209L17.9078 3.8428C18.3027 3.68388 18.7056 3.53299 19.1069 3.39333L19.1599 3.54583C18.7618 3.68388 18.3605 3.83477 17.9688 3.99209ZM36.6103 3.87009C36.2154 3.71599 35.8109 3.57151 35.4112 3.43828L35.4609 3.28579C35.8638 3.41902 36.27 3.5667 36.6681 3.7208L36.6103 3.87009ZM20.3718 3.15897L20.3269 3.00487C20.7346 2.88609 21.152 2.77693 21.5645 2.67901L21.6014 2.83472C21.1905 2.93264 20.7763 3.04179 20.3702 3.15897H20.3718ZM34.1928 3.06747C33.7851 2.95511 33.3709 2.85077 32.9584 2.75927L32.9937 2.60196C33.4079 2.69506 33.8268 2.7978 34.2361 2.91177L34.1928 3.06587V3.06747ZM22.8471 2.57307L22.8182 2.41575C23.2355 2.3387 23.6625 2.27128 24.0831 2.21671L24.104 2.37562C23.685 2.4302 23.2628 2.49762 22.8471 2.57307ZM31.7095 2.51528C31.2938 2.44465 30.87 2.38365 30.4494 2.33388L30.4687 2.17497C30.8909 2.22473 31.3178 2.28573 31.7368 2.35797L31.7095 2.51688V2.51528ZM25.3689 2.23918L25.356 2.07865C25.7814 2.04494 26.2116 2.01926 26.6338 2.00642L26.6386 2.16694C26.2181 2.17979 25.7911 2.20387 25.3689 2.23758V2.23918ZM29.1845 2.2151C28.7639 2.18621 28.3369 2.16855 27.9132 2.16052L27.9164 2C28.3418 2.00803 28.7736 2.02568 29.1957 2.05458L29.1845 2.2151Z" fill="#666666"/>
<path fill-rule="evenodd" clip-rule="evenodd" d="M27.401 27.5717L27.2394 27.3563L27.43 27.5468C27.421 27.5558 27.4119 27.5631 27.4093 27.5652L27.4038 27.5695L27.402 27.5709L27.4014 27.5713L27.401 27.5717ZM27.1914 27.2932L27.1918 27.293L27.2394 27.3563L27.1836 27.3004C27.1872 27.2969 27.1898 27.2946 27.1903 27.2941L27.1914 27.2932ZM27.1914 27.2932C27.1914 27.2932 27.1915 27.2932 27.1914 27.2932V27.2932Z" fill="black"/>
<path d="M8.11115 25.4959L3.96484 24.8313L4.04832 24.3081L7.72749 24.8988L8.03088 23.0078L8.48837 23.1427L8.11115 25.4959Z" fill="#3A3A3A"/>
<path d="M5.35223 20.5325L6.68938 20.9948L7.19663 19.5244L7.60918 19.6657L7.10193 21.1361L8.51131 21.6224L9.13414 19.8182L9.53545 19.9562L8.73925 22.2613L4.76953 20.8905L5.54806 18.6367L5.93814 18.8358L5.35384 20.5309H5.35223V20.5325Z" fill="#3A3A3A"/>
<path d="M9.90881 16.9632L9.1062 18.4175L9.88153 19.2282L9.62951 19.6841L6.61328 16.4576L6.94075 15.8652L11.2765 16.7L11.0084 17.1863L9.90881 16.9616V16.9632ZM8.78676 18.0853L9.45775 16.8701L7.15906 16.3885L8.78676 18.0853Z" fill="#3A3A3A"/>
<path d="M10.8664 12.383C11.0301 12.5147 11.1441 12.664 11.2099 12.8325C11.2757 13.0011 11.2998 13.1776 11.2821 13.3606C11.2645 13.5452 11.2147 13.7266 11.1296 13.9064L13.3609 14.1022L12.9644 14.5967L10.8407 14.3623L10.4859 14.8037L11.8921 15.9322L11.5598 16.3463L8.28516 13.717L8.96096 12.8759C9.28522 12.4713 9.60786 12.2273 9.93051 12.1423C10.2516 12.0572 10.5646 12.1374 10.868 12.3798V12.383H10.8664ZM10.5116 12.8261C10.3013 12.6575 10.1007 12.5965 9.91286 12.6431C9.72505 12.6896 9.52921 12.8405 9.32535 13.0942L8.9433 13.5693L10.1617 14.5469L10.5437 14.0717C10.7315 13.8374 10.831 13.6159 10.8391 13.4088C10.8471 13.2017 10.7379 13.0075 10.5116 12.8261Z" fill="#3A3A3A"/>
<path d="M15.0704 12.5954L11.5196 10.8023C11.5517 10.8361 11.6063 10.8906 11.6833 10.9677C11.7604 11.0447 11.8519 11.1362 11.9578 11.2422C12.0638 11.3481 12.1729 11.4621 12.2885 11.5825C12.4025 11.7029 12.5148 11.8249 12.6224 11.9469L14.0141 13.5264L13.6465 13.8507L10.8711 10.6996L11.4088 10.2261L14.9885 12.0143C14.9484 11.971 14.8713 11.8955 14.7573 11.7847C14.6434 11.674 14.5101 11.5391 14.3544 11.377C14.1987 11.2165 14.0382 11.0415 13.8729 10.8537L12.4843 9.27738L12.8519 8.95312L15.6274 12.1042L15.072 12.5938L15.0704 12.5954Z" fill="#3A3A3A"/>
<path d="M41.8888 12.7348C41.7411 12.9081 41.5838 13.0253 41.4153 13.0863C41.2467 13.1457 41.075 13.1617 40.9 13.1345C40.725 13.1072 40.5533 13.0478 40.3863 12.9579C40.2194 12.868 40.0605 12.7604 39.9128 12.6368L39.0508 11.9097L41.7588 8.69922L42.5486 9.36539C42.6898 9.48417 42.8166 9.6142 42.929 9.75225C43.0414 9.8919 43.1264 10.0364 43.1826 10.1889C43.2388 10.3414 43.2549 10.4971 43.2324 10.656C43.2099 10.8149 43.1329 10.9738 42.9996 11.1295C42.8825 11.2676 42.7556 11.3607 42.6192 11.4088C42.4811 11.457 42.3431 11.4714 42.2034 11.4522C42.0638 11.4329 41.9338 11.3912 41.8118 11.3286C41.9161 11.449 42.0012 11.5822 42.0686 11.7315C42.136 11.8808 42.1601 12.0397 42.1424 12.2082C42.1248 12.3784 42.0397 12.5534 41.8872 12.7332H41.8888V12.7348ZM41.4506 12.3896C41.587 12.2275 41.6609 12.0766 41.6721 11.9354C41.6833 11.7941 41.6512 11.6625 41.5758 11.5405C41.5004 11.4185 41.4008 11.3045 41.2772 11.2002L40.7298 10.7379L39.7362 11.9145L40.2643 12.3607C40.343 12.4282 40.4313 12.4876 40.526 12.5421C40.6207 12.5967 40.7218 12.632 40.8262 12.6513C40.9305 12.6705 41.0364 12.6609 41.1408 12.624C41.2451 12.5855 41.3479 12.5068 41.449 12.388L41.4506 12.3896ZM42.5694 10.8037C42.7235 10.6223 42.7749 10.4457 42.7284 10.2723C42.6802 10.1006 42.5598 9.93203 42.3656 9.7683L41.8872 9.36539L41.0108 10.4056L41.5277 10.8422C41.7171 11.0027 41.8984 11.083 42.0718 11.083C42.2452 11.083 42.4105 10.9899 42.5694 10.8021V10.8037Z" fill="#3A3A3A"/>
<path d="M46.4389 13.3939L44.2686 15.2255C44.0519 15.4085 43.8256 15.5241 43.5864 15.5754C43.3472 15.6268 43.1145 15.6108 42.8897 15.5289C42.665 15.447 42.4595 15.2977 42.2765 15.0826C42.0903 14.8627 41.9764 14.6348 41.9362 14.3988C41.8961 14.1628 41.9218 13.9333 42.0165 13.7102C42.1096 13.487 42.2637 13.2848 42.4788 13.105L44.6491 11.2734L44.9878 11.6747L42.8047 13.5175C42.5607 13.723 42.4258 13.9349 42.4018 14.1516C42.3777 14.3683 42.4531 14.5802 42.6281 14.7889C42.8047 14.9992 43.0021 15.1099 43.2204 15.1212C43.4387 15.1324 43.6683 15.0361 43.9123 14.8306L46.0954 12.9862L46.4389 13.3939Z" fill="#3A3A3A"/>
<path d="M48.4687 16.6411L48.1027 16.8562L47.6291 16.0519L44.7397 17.7519L45.2133 18.5561L44.8473 18.7712L43.6289 16.7004L43.9949 16.4853L44.4684 17.2896L47.3578 15.5896L46.8843 14.7854L47.2503 14.5703L48.4687 16.6411Z" fill="#3A3A3A"/>
<path d="M45.3125 19.7657L49.2405 18.2793L49.4283 18.7753L45.9418 20.0932L46.6192 21.8846L46.1552 21.9954L45.3125 19.7657Z" fill="#3A3A3A"/>
<path d="M48.9409 24.9879C48.5974 25.0537 48.2973 25.0746 48.0404 25.0489C47.7836 25.0233 47.5653 24.9623 47.3823 24.8675C47.1993 24.7728 47.05 24.6524 46.9328 24.508C46.8156 24.3635 46.7209 24.2078 46.6519 24.0376C46.5829 23.8675 46.5315 23.6973 46.4994 23.5288L46.3164 22.5833L50.4402 21.7871L50.6104 22.6668C50.6569 22.9076 50.6762 23.1483 50.665 23.3875C50.6553 23.6267 50.5959 23.8514 50.4868 24.0649C50.3776 24.2768 50.1995 24.4646 49.9539 24.6235C49.7083 24.7825 49.3695 24.9061 48.9409 24.9879ZM48.8334 24.4341C49.193 24.3651 49.4723 24.272 49.6745 24.1532C49.8768 24.0344 50.0181 23.9044 50.1015 23.7599C50.185 23.6155 50.2316 23.4662 50.2396 23.3121C50.2476 23.158 50.238 23.0103 50.2107 22.869L50.1176 22.3843L46.8349 23.0183L46.9296 23.5095C46.9585 23.6572 47.0099 23.8001 47.0853 23.9381C47.1608 24.0762 47.2699 24.1933 47.4144 24.2929C47.5588 24.3908 47.7467 24.4566 47.9762 24.4871C48.2058 24.5176 48.4931 24.4999 48.835 24.4341H48.8334Z" fill="#3A3A3A"/>
<path d="M18.9948 45.1627L17.1039 48.9206L16.6624 48.6669L17.6448 46.7021C17.7139 46.5705 17.7829 46.4373 17.8551 46.3024C17.9258 46.1676 17.9964 46.0376 18.0638 45.9156C18.1328 45.7936 18.1938 45.6844 18.2484 45.5897C18.303 45.495 18.3463 45.4212 18.3768 45.3682L16.2852 47.5802L15.8261 47.3153L16.648 44.3697C16.6207 44.4227 16.579 44.4982 16.5228 44.5993C16.4666 44.7004 16.404 44.8128 16.3318 44.938C16.2595 45.0632 16.1857 45.1916 16.107 45.32C16.0284 45.4501 15.9545 45.5688 15.8839 45.6796L14.688 47.5288L14.2578 47.28L16.5613 43.7598L17.2002 44.129L16.3526 46.9606L18.3511 44.7935L18.9964 45.1643L18.9948 45.1627Z" fill="#3A3A3A"/>
<path d="M20.1104 46.079L19.6224 47.4065L21.0815 47.9427L20.9306 48.352L19.4715 47.8159L18.9562 49.2156L20.7476 49.8738L20.6016 50.2719L18.3125 49.4291L19.762 45.4883L21.9997 46.3118L21.7926 46.697L20.1104 46.0774V46.079Z" fill="#3A3A3A"/>
<path d="M24.1789 49.9516L22.5448 49.6514L22.0215 50.6434L21.5078 50.5487L23.609 46.6641L24.2752 46.7861L24.8611 51.1635L24.3154 51.064L24.1789 49.95V49.9516ZM22.7583 49.2437L24.1227 49.4941L23.8498 47.1617L22.7583 49.2437Z" fill="#3A3A3A"/>
<path d="M28.6233 50.1039C28.6201 50.3431 28.5559 50.555 28.4323 50.7396C28.3087 50.9242 28.1337 51.0654 27.9042 51.1666C27.6746 51.2677 27.3969 51.3159 27.0694 51.3094C26.7628 51.3046 26.4851 51.2533 26.2379 51.1553C25.9907 51.0574 25.7804 50.9226 25.6055 50.7492L25.9249 50.4009C26.0694 50.5389 26.2347 50.6497 26.4225 50.7332C26.6103 50.8166 26.8303 50.86 27.0855 50.8648C27.2556 50.868 27.4162 50.8423 27.5655 50.7893C27.7147 50.7364 27.8367 50.6529 27.9298 50.5389C28.0229 50.425 28.0711 50.2805 28.0743 50.1039C28.0759 49.9675 28.0518 49.8519 28.0005 49.7556C27.9491 49.6593 27.8576 49.5726 27.7244 49.4971C27.5911 49.4201 27.4049 49.3446 27.1674 49.2692C26.8929 49.1841 26.6537 49.0878 26.4546 48.9819C26.254 48.8759 26.0999 48.7475 25.9907 48.595C25.8816 48.4425 25.8302 48.2563 25.8334 48.0348C25.8366 47.8261 25.8976 47.6399 26.0164 47.4794C26.1352 47.3188 26.2973 47.1936 26.5028 47.1037C26.7083 47.0139 26.9442 46.9721 27.2107 46.9769C27.5012 46.9818 27.7533 47.0267 27.9668 47.1134C28.1803 47.1985 28.3729 47.3205 28.5446 47.4778L28.2284 47.8181C28.0807 47.6816 27.9202 47.5821 27.7484 47.5195C27.5767 47.4569 27.4017 47.4232 27.2219 47.4216C27.0694 47.42 26.9298 47.4392 26.8014 47.4842C26.6729 47.5275 26.5702 47.5949 26.4932 47.6832C26.4161 47.7731 26.376 47.8871 26.3728 48.0268C26.3712 48.1471 26.4017 48.2515 26.4659 48.3398C26.5301 48.4281 26.6376 48.5099 26.7917 48.5838C26.9442 48.6592 27.1545 48.7379 27.4194 48.8213C27.6361 48.8872 27.8367 48.9706 28.0213 49.0669C28.2059 49.1649 28.3536 49.2949 28.4644 49.4586C28.5751 49.6223 28.6297 49.8374 28.6249 50.1071V50.1039H28.6233Z" fill="#3A3A3A"/>
<path d="M31.884 46.5954L32.3254 49.3997C32.3687 49.679 32.3511 49.9342 32.2708 50.1654C32.1906 50.3965 32.0573 50.5876 31.8695 50.7384C31.6817 50.8893 31.4489 50.9873 31.1696 51.0306C30.8839 51.0755 30.6303 51.0547 30.4072 50.9664C30.184 50.8797 30.0026 50.7368 29.8598 50.541C29.7185 50.3452 29.6254 50.1092 29.5821 49.8315L29.1406 47.0272L29.6591 46.9453L30.1038 49.7689C30.1535 50.0835 30.2643 50.3082 30.436 50.4415C30.6078 50.5747 30.8293 50.6213 31.0974 50.5779C31.3687 50.5346 31.5661 50.4238 31.6881 50.244C31.8117 50.0642 31.847 49.817 31.7989 49.5008L31.3542 46.6772L31.8807 46.5938H31.884V46.5954Z" fill="#3A3A3A"/>
<path d="M35.4661 46.6736C35.5336 46.8726 35.5496 47.0604 35.5143 47.237C35.479 47.4152 35.4035 47.5757 35.2912 47.7218C35.1772 47.8678 35.0375 47.9931 34.869 48.1006L36.646 49.4667L36.0456 49.6705L34.381 48.3318L33.8433 48.5131L34.4211 50.2195L33.9187 50.3897L32.5703 46.4119L33.5928 46.0652C34.084 45.8982 34.4869 45.8661 34.8048 45.9689C35.121 46.07 35.3425 46.306 35.4661 46.6736ZM34.9284 46.8549C34.8417 46.5997 34.7069 46.4408 34.5223 46.3798C34.3393 46.3188 34.0921 46.3397 33.7839 46.444L33.206 46.6399L33.7068 48.1183L34.2847 47.9224C34.5688 47.8261 34.7711 47.6929 34.8899 47.5227C35.0087 47.3526 35.0215 47.1294 34.9268 46.8549H34.9284Z" fill="#3A3A3A"/>
<path d="M36.4812 45.3352L37.157 46.5793L38.523 45.8377L38.7317 46.2213L37.3657 46.9629L38.0768 48.2728L39.7542 47.3626L39.9565 47.735L37.8135 48.8988L35.8086 45.2084L37.9034 44.0703L38.0559 44.4796L36.4812 45.3352Z" fill="#3A3A3A"/>
</svg>
