  <svg width="40" height="40" viewBox="0 0 40 40" fill="none" xmlns="http://www.w3.org/2000/svg">
                    <circle cx="20" cy="20" r="20" fill="#252525"/>
                    <path d="M18.5259 15.16L15.6859 20.44L14.0459 20.88C14.2326 20.5333 14.4459 20.24 14.6859 20C14.9526 19.76 15.2326 19.64 15.5259 19.64C16.2193 19.64 16.8459 19.9333 17.4059 20.52C17.9926 21.1067 18.2859 21.84 18.2859 22.72C18.2859 23.6533 17.9659 24.4667 17.3259 25.16C16.6859 25.8267 15.8993 26.16 14.9659 26.16C14.0593 26.16 13.2726 25.8267 12.6059 25.16C11.9393 24.4933 11.6059 23.68 11.6059 22.72C11.6059 22.3467 11.6859 21.9067 11.8459 21.4C12.0059 20.8667 12.2993 20.2 12.7259 19.4L15.8059 13.72L18.5259 15.16ZM27.1259 15.16L24.2859 20.44L22.6459 20.88C22.8326 20.5333 23.0459 20.24 23.2859 20C23.5259 19.76 23.8059 19.64 24.1259 19.64C24.8193 19.64 25.4459 19.9333 26.0059 20.52C26.5926 21.1067 26.8859 21.84 26.8859 22.72C26.8859 23.6533 26.5526 24.4667 25.8859 25.16C25.2459 25.8267 24.4593 26.16 23.5259 26.16C22.6459 26.16 21.8726 25.8267 21.2059 25.16C20.5393 24.4933 20.2059 23.68 20.2059 22.72C20.2059 22.3467 20.2859 21.9067 20.4459 21.4C20.6059 20.8667 20.8993 20.2 21.3259 19.4L24.4059 13.72L27.1259 15.16Z" fill="white"/>
                    </svg>