<svg width="96" height="96" viewBox="0 0 96 96" fill="none" xmlns="http://www.w3.org/2000/svg">
<g filter="url(#filter0_d_646_548)">
<rect x="8" y="8" width="80" height="80" rx="40" fill="white" shape-rendering="crispEdges"/>
<rect x="8.5" y="8.5" width="79" height="79" rx="39.5" stroke="#FBFBFB" shape-rendering="crispEdges"/>
<path d="M66.2363 36.7701V57.9271C66.2363 58.6005 65.9688 59.2462 65.4927 59.7223C65.0166 60.1985 64.3708 60.466 63.6975 60.466H31.5388C30.8655 60.466 30.2197 60.1985 29.7436 59.7223C29.2675 59.2462 29 58.6005 29 57.9271V36.7701L29.8463 35.9238H65.3901L66.2363 36.7701Z" fill="#EDEDED"/>
<path d="M66.2363 32.5388V36.7702H29V32.5388C29 31.8655 29.2675 31.2197 29.7436 30.7436C30.2197 30.2675 30.8655 30 31.5388 30H63.6975C64.3708 30 65.0166 30.2675 65.4927 30.7436C65.9688 31.2197 66.2363 31.8655 66.2363 32.5388Z" fill="#478CFF"/>
<path d="M50.966 48.1488H49.7784V57.9671H45.4204V48.1488H44.2329C44.1452 48.1432 44.0607 48.1138 43.9885 48.0636C43.9163 48.0135 43.8592 47.9445 43.8233 47.8642C43.7874 47.7839 43.7741 47.6953 43.7849 47.608C43.7956 47.5207 43.83 47.438 43.8843 47.3688L47.2508 42.8742C47.2904 42.8186 47.3427 42.7732 47.4033 42.7419C47.464 42.7107 47.5312 42.6943 47.5994 42.6943C47.6676 42.6943 47.7349 42.7107 47.7955 42.7419C47.8562 42.7732 47.9085 42.8186 47.9481 42.8742L51.3146 47.3688C51.3689 47.438 51.4032 47.5207 51.414 47.608C51.4247 47.6953 51.4114 47.7839 51.3755 47.8642C51.3397 47.9445 51.2825 48.0135 51.2103 48.0636C51.1382 48.1138 51.0536 48.1432 50.966 48.1488Z" fill="#15EC88"/>
<path d="M33.2277 34.2321H32.3814C32.157 34.2321 31.9417 34.1429 31.783 33.9842C31.6243 33.8255 31.5352 33.6103 31.5352 33.3858C31.5352 33.1614 31.6243 32.9461 31.783 32.7874C31.9417 32.6287 32.157 32.5396 32.3814 32.5396H33.2277C33.4522 32.5396 33.6674 32.6287 33.8261 32.7874C33.9848 32.9461 34.074 33.1614 34.074 33.3858C34.074 33.6103 33.9848 33.8255 33.8261 33.9842C33.6674 34.1429 33.4522 34.2321 33.2277 34.2321Z" fill="#FF584A"/>
<path d="M37.466 34.2321H36.6197C36.3953 34.2321 36.18 34.1429 36.0213 33.9842C35.8626 33.8255 35.7734 33.6103 35.7734 33.3858C35.7734 33.1614 35.8626 32.9461 36.0213 32.7874C36.18 32.6287 36.3953 32.5396 36.6197 32.5396H37.466C37.6904 32.5396 37.9057 32.6287 38.0644 32.7874C38.2231 32.9461 38.3123 33.1614 38.3123 33.3858C38.3123 33.6103 38.2231 33.8255 38.0644 33.9842C37.9057 34.1429 37.6904 34.2321 37.466 34.2321Z" fill="#FFC107"/>
<path d="M41.7004 34.2321H40.8541C40.6296 34.2321 40.4144 34.1429 40.2557 33.9842C40.097 33.8255 40.0078 33.6103 40.0078 33.3858C40.0078 33.1614 40.097 32.9461 40.2557 32.7874C40.4144 32.6287 40.6296 32.5396 40.8541 32.5396H41.7004C41.9248 32.5396 42.1401 32.6287 42.2988 32.7874C42.4575 32.9461 42.5467 33.1614 42.5467 33.3858C42.5467 33.6103 42.4575 33.8255 42.2988 33.9842C42.1401 34.1429 41.9248 34.2321 41.7004 34.2321Z" fill="#15EC88"/>
<path d="M62.8525 34.2321H59.4674C59.2429 34.2321 59.0277 34.1429 58.869 33.9842C58.7103 33.8255 58.6211 33.6103 58.6211 33.3858C58.6211 33.1614 58.7103 32.9461 58.869 32.7874C59.0277 32.6287 59.2429 32.5396 59.4674 32.5396H62.8525C63.0769 32.5396 63.2922 32.6287 63.4509 32.7874C63.6096 32.9461 63.6988 33.1614 63.6988 33.3858C63.6988 33.6103 63.6096 33.8255 63.4509 33.9842C63.2922 34.1429 63.0769 34.2321 62.8525 34.2321Z" fill="#EDEDED"/>
<path d="M54.6437 54.7935H40.7042C39.5494 54.7935 38.6133 55.7342 38.6133 56.8947V63.8988C38.6133 65.0593 39.5494 66.0001 40.7042 66.0001H54.6437C55.7985 66.0001 56.7346 65.0593 56.7346 63.8988V56.8947C56.7346 55.7342 55.7985 54.7935 54.6437 54.7935Z" fill="#478CFF"/>
<path d="M44.1817 62.4595C44.0443 62.4594 43.91 62.4187 43.7956 62.3425L41.7048 60.9486C41.6094 60.8849 41.5311 60.7987 41.477 60.6976C41.4229 60.5964 41.3945 60.4835 41.3945 60.3687C41.3945 60.254 41.4229 60.1411 41.477 60.0399C41.5311 59.9388 41.6094 59.8525 41.7048 59.7889L43.7956 58.395C43.9494 58.2924 44.1377 58.2551 44.3189 58.2913C44.5002 58.3275 44.6597 58.4343 44.7623 58.5881C44.8649 58.7418 44.9022 58.9301 44.866 59.1114C44.8297 59.2926 44.723 59.4521 44.5692 59.5547L43.3454 60.3687L44.5664 61.1827C44.6907 61.2656 44.7851 61.3863 44.8357 61.5269C44.8862 61.6675 44.8902 61.8206 44.8471 61.9637C44.804 62.1067 44.7161 62.2321 44.5963 62.3214C44.4765 62.4107 44.3311 62.4591 44.1817 62.4595Z" fill="#15EC88"/>
<path d="M51.1548 62.4595C51.0052 62.4597 50.8594 62.4117 50.7392 62.3227C50.6189 62.2336 50.5305 62.1082 50.4871 61.965C50.4436 61.8218 50.4474 61.6684 50.4979 61.5275C50.5483 61.3867 50.6428 61.2658 50.7673 61.1827L51.9911 60.3687L50.7701 59.5547C50.6163 59.4521 50.5096 59.2926 50.4734 59.1114C50.4372 58.9301 50.4745 58.7418 50.5771 58.5881C50.6796 58.4343 50.8391 58.3275 51.0204 58.2913C51.2017 58.2551 51.3899 58.2924 51.5437 58.395L53.6345 59.7889C53.73 59.8525 53.8082 59.9388 53.8624 60.0399C53.9165 60.1411 53.9448 60.254 53.9448 60.3687C53.9448 60.4835 53.9165 60.5964 53.8624 60.6976C53.8082 60.7987 53.73 60.8849 53.6345 60.9486L51.5437 62.3425C51.4286 62.4192 51.2932 62.46 51.1548 62.4595Z" fill="#15EC88"/>
<path d="M46.9698 63.1564C46.8595 63.1563 46.7507 63.13 46.6525 63.0797C46.5543 63.0293 46.4694 62.9564 46.4049 62.8668C46.3404 62.7773 46.2981 62.6737 46.2814 62.5645C46.2648 62.4554 46.2743 62.3439 46.3091 62.2392L47.703 58.0576C47.7614 57.882 47.8872 57.7368 48.0527 57.6539C48.2181 57.5711 48.4097 57.5573 48.5853 57.6157C48.7609 57.6742 48.9061 57.7999 48.989 57.9654C49.0719 58.1309 49.0856 58.3225 49.0272 58.4981L47.6333 62.6797C47.587 62.8189 47.4979 62.9399 47.3788 63.0254C47.2596 63.111 47.1165 63.1569 46.9698 63.1564Z" fill="#15EC88"/>
</g>
<defs>
<filter id="filter0_d_646_548" x="0" y="0" width="96" height="96" filterUnits="userSpaceOnUse" color-interpolation-filters="sRGB">
<feFlood flood-opacity="0" result="BackgroundImageFix"/>
<feColorMatrix in="SourceAlpha" type="matrix" values="0 0 0 0 0 0 0 0 0 0 0 0 0 0 0 0 0 0 127 0" result="hardAlpha"/>
<feOffset/>
<feGaussianBlur stdDeviation="4"/>
<feComposite in2="hardAlpha" operator="out"/>
<feColorMatrix type="matrix" values="0 0 0 0 0 0 0 0 0 0 0 0 0 0 0 0 0 0 0.1 0"/>
<feBlend mode="normal" in2="BackgroundImageFix" result="effect1_dropShadow_646_548"/>
<feBlend mode="normal" in="SourceGraphic" in2="effect1_dropShadow_646_548" result="shape"/>
</filter>
</defs>
</svg>
