<svg width="48" height="40" viewBox="0 0 48 40" fill="none" xmlns="http://www.w3.org/2000/svg">
<path fill-rule="evenodd" clip-rule="evenodd" d="M9.6613 30.4754C5.03875 24.4158 4.88453 16.1266 9.31783 9.91705C11.3789 7.03021 14.2374 4.83486 17.5867 3.57018C17.9363 3.43769 18.3289 3.60798 18.4639 3.94855C18.5989 4.29038 18.421 4.67418 18.0775 4.80667C11.7164 7.20896 7.447 13.2997 7.447 19.9633C7.447 23.6003 8.70448 27.1466 10.9987 29.9974L11.1765 27.6137C11.2071 27.248 11.5322 26.9757 11.9065 27.0021C12.2807 27.0291 12.5567 27.3475 12.5321 27.7121L12.207 31.9163C12.1762 32.3691 11.7087 32.6397 11.293 32.4884L7.25668 31.009C6.90702 30.8807 6.72909 30.4987 6.858 30.1564C6.99289 29.8134 7.3794 29.6394 7.73515 29.7678L9.6613 30.4754ZM20.9482 36.808C20.9482 37.0161 20.8501 37.2128 20.6783 37.3381L17.2309 39.8674C16.9372 40.0828 16.5073 40.0336 16.2802 39.7343C16.0532 39.4423 16.1145 39.0261 16.4152 38.8066L18.237 37.4706H0.680855C0.306625 37.4706 0 37.1731 0 36.8079C0 36.4409 0.306732 36.1447 0.680855 36.1447H18.2369L16.4151 34.8075C16.1145 34.588 16.0531 34.1725 16.2801 33.8798C16.5009 33.5872 16.9303 33.5272 17.2308 33.7472L20.6782 36.2772C20.8501 36.402 20.9482 36.5981 20.9482 36.808ZM48 36.808C48 37.0161 47.8958 37.2128 47.7301 37.3381L44.2766 39.8675C43.9759 40.0879 43.5495 40.0264 43.3258 39.7344C43.1049 39.4424 43.1663 39.0262 43.4608 38.8067L45.2888 37.4707H37.1181C36.7438 37.4707 36.4433 37.1732 36.4433 36.808C36.4433 36.441 36.7438 36.1448 37.1181 36.1448H45.2888L43.4608 34.8076C43.1663 34.5881 43.105 34.1726 43.3258 33.8799C43.5527 33.5873 43.976 33.5273 44.2766 33.7473L47.7301 36.2773C47.8957 36.402 48 36.5981 48 36.808ZM25.6286 37.4676C34.8984 36.6872 42.0375 29.0881 42.0375 19.9634C42.0375 10.0539 33.6213 2.07331 23.4632 2.40334L25.1132 1.19326C25.4138 0.973802 25.4752 0.558786 25.2482 0.264986C25.0213 -0.0276655 24.598 -0.0869685 24.2974 0.132494L20.85 2.6631C20.4897 2.9261 20.4906 3.46097 20.85 3.72335L24.2974 6.2527C24.4201 6.3427 24.5673 6.38519 24.7084 6.38519C25.3384 6.38519 25.644 5.58074 25.1132 5.19182L23.1381 3.74412C32.6785 3.23253 40.6818 10.6631 40.6818 19.9634C40.6818 28.3209 34.0201 35.4299 25.5119 36.1466C25.1377 36.1789 24.8617 36.4998 24.8924 36.8644C24.9243 37.232 25.2609 37.5035 25.6286 37.4676ZM27.616 17.8621C27.8552 18.1433 27.8185 18.5607 27.5301 18.7958L23.4877 22.0855C23.2186 22.3075 22.8219 22.2846 22.5737 22.0448L20.5556 20.0707C20.2918 19.8117 20.2918 19.3925 20.5556 19.1328C20.8194 18.8743 21.2488 18.8743 21.5186 19.1341L23.0951 20.6794L26.6591 17.777C26.9474 17.543 27.3768 17.5808 27.616 17.8621ZM23.0155 28.4042C23.8313 28.5008 24.6532 28.484 25.463 28.355C25.69 28.3185 25.9231 28.3988 26.0765 28.5685L27.4567 30.0797L29.4012 29.2461L29.1988 27.2331C29.1742 27.0064 29.2724 26.7852 29.4503 26.646C30.1005 26.1507 30.671 25.5702 31.1495 24.9219C31.2845 24.7366 31.5053 24.6335 31.7384 24.6467L33.7995 24.7643L34.5724 22.8297L32.9775 21.5489C32.7996 21.405 32.7076 21.1813 32.7321 20.9558C32.8302 20.1613 32.8119 19.3577 32.6831 18.5649C32.6462 18.3407 32.726 18.1134 32.8977 17.9623L34.4436 16.6179L33.5909 14.7157L31.5358 14.9153C31.3027 14.9369 31.0757 14.8434 30.9346 14.6641C30.4255 14.032 29.8304 13.4738 29.1679 13.0072C28.9778 12.8747 28.8735 12.657 28.8858 12.4303L29.0085 10.4125L27.0271 9.65687L25.7205 11.2203C25.5733 11.3953 25.3464 11.4865 25.1132 11.4583C24.3035 11.3612 23.4754 11.3774 22.6657 11.5075C22.4387 11.5435 22.2056 11.4637 22.0522 11.294L20.6781 9.78279L18.7274 10.6164L18.936 12.6294C18.9544 12.8549 18.8624 13.0762 18.6784 13.2165C18.0282 13.7118 17.4577 14.2911 16.9792 14.9406C16.8442 15.1259 16.6234 15.2284 16.3903 15.2158L14.3292 15.0977L13.5563 17.0329L15.1513 18.3137C15.3353 18.4577 15.4274 18.6814 15.3966 18.9069C15.2985 19.7014 15.3168 20.5062 15.4456 21.2977C15.4825 21.5213 15.4027 21.7486 15.231 21.8997L13.6851 23.2448L14.5378 25.1469L16.5928 24.9472C16.8259 24.9244 17.0529 25.0191 17.194 25.1979C17.7031 25.8311 18.2981 26.3888 18.9606 26.8553C19.1508 26.9878 19.255 27.2055 19.2427 27.4322L19.12 29.45L21.1014 30.2056L22.408 28.6423C22.5554 28.4672 22.7823 28.3773 23.0155 28.4042ZM26.7695 31.321C26.9658 31.5351 27.2786 31.6023 27.5485 31.4871L30.3948 30.2674C30.6646 30.1518 30.8242 29.8807 30.7996 29.5946L30.5788 27.4568C31.1125 27.0173 31.597 26.5268 32.0204 25.9906L34.2164 26.1159C34.5047 26.1315 34.7807 25.9636 34.885 25.695L36.0198 22.864C36.1241 22.596 36.0444 22.2919 35.8175 22.1102L34.1183 20.7483C34.1735 20.0725 34.1612 19.3913 34.0753 18.716L35.7132 17.2883C35.9341 17.0982 36.0016 16.7899 35.885 16.5273L34.6397 13.743C34.5169 13.4798 34.241 13.3214 33.9526 13.3491L31.7628 13.5614C31.3149 13.0414 30.812 12.5689 30.2661 12.1522L30.3949 10.0096C30.4071 9.72233 30.2354 9.45725 29.9593 9.35294L27.064 8.24718C26.7941 8.14162 26.4812 8.22139 26.291 8.44388L24.9047 10.1037C24.2115 10.048 23.5122 10.0624 22.8251 10.1463L21.3591 8.5416C21.169 8.32746 20.85 8.25918 20.5801 8.37487L17.7338 9.59517C17.464 9.7097 17.3044 9.98199 17.329 10.2674L17.5498 12.4046C17.0161 12.8442 16.5377 13.3359 16.1083 13.8708L13.9184 13.7461C13.6239 13.7299 13.348 13.899 13.2436 14.1677L12.1149 16.9986C12.0045 17.2655 12.0904 17.5708 12.3112 17.7524L14.0104 19.1131C13.9552 19.79 13.9675 20.4713 14.0534 21.146L12.4156 22.5744C12.1947 22.7645 12.1272 23.0727 12.2439 23.3354L13.4892 26.1196C13.6119 26.3829 13.8878 26.5418 14.1823 26.5136L16.366 26.3014C16.8139 26.8213 17.3169 27.2938 17.8689 27.7106L17.7401 29.8533C17.7218 30.1405 17.8935 30.4056 18.1696 30.5099L21.065 31.6156C21.3364 31.7206 21.6496 31.6408 21.8379 31.4189L23.2303 29.7578C23.9235 29.8148 24.6167 29.8004 25.3099 29.7159L26.7695 31.321ZM22.1811 24.6395C24.8373 25.6535 27.843 24.3667 28.8797 21.7701C29.9187 19.1702 28.6122 16.237 25.9476 15.2224C23.3004 14.2144 20.2971 15.4688 19.249 18.0911C18.2123 20.6877 19.525 23.6249 22.1811 24.6395ZM30.1433 22.2534C31.456 18.9757 29.7937 15.2673 26.4383 13.9882C23.0726 12.7047 19.2915 14.3293 17.9854 17.609C16.6788 20.8868 18.335 24.5939 21.6904 25.8742C25.0055 27.1395 28.8185 25.568 30.1433 22.2534Z" fill="#EB3D2E"/>
</svg>
