<svg width="14" height="14" viewBox="0 0 14 14" fill="none" xmlns="http://www.w3.org/2000/svg">
<path fill-rule="evenodd" clip-rule="evenodd" d="M7 0C10.8653 0 14 3.13469 14 7C14 10.8653 10.8653 14 7 14C3.13469 14 0 10.8653 0 7C0 3.13469 3.13469 0 7 0ZM5.54636 9.27365L3.83259 7.55846C3.54062 7.26632 3.54056 6.78992 3.83259 6.49784C4.12468 6.20582 4.6032 6.20764 4.89316 6.49784L6.10136 7.70699L9.10695 4.7014C9.39904 4.40931 9.87549 4.40931 10.1675 4.7014C10.4596 4.99342 10.4592 5.47029 10.1675 5.76196L6.63078 9.2987C6.33912 9.59037 5.86224 9.59078 5.57022 9.2987C5.56201 9.29049 5.55409 9.28216 5.54636 9.27365Z" fill="#00BA00"/>
</svg>
