<svg width="46" height="40" viewBox="0 0 46 40" fill="none" xmlns="http://www.w3.org/2000/svg">
<path d="M18.2794 15.2049C15.1873 18.3375 15.1873 23.4348 18.2794 26.5674C19.8254 28.1337 21.8562 28.9169 23.8871 28.9169C25.9179 28.9169 27.9487 28.1337 29.4947 26.5674C32.5868 23.4348 32.5868 18.3375 29.4947 15.2049C26.4027 12.0722 21.3714 12.0722 18.2794 15.2049ZM28.6845 25.7465C27.3618 27.0866 25.6249 27.7566 23.8871 27.7566C22.1502 27.7566 20.4114 27.0866 19.0896 25.7465C16.4442 23.0664 16.4442 18.7049 19.0896 16.0248C20.4123 14.6847 22.1492 14.0146 23.8871 14.0146C25.6239 14.0146 27.3618 14.6847 28.6845 16.0248C31.3309 18.7049 31.3309 23.0664 28.6845 25.7465ZM42.6283 7.34234C40.7693 7.34234 39.2576 8.87385 39.2576 10.7573C39.2576 11.2378 39.3569 11.6951 39.5344 12.1109L33.7893 15.9097C33.7081 15.7434 33.6232 15.5781 33.5335 15.4166L34.9669 13.8706C35.258 13.5564 35.2513 13.071 34.9497 12.7655L31.9025 9.67828C31.601 9.37372 31.1219 9.36598 30.8117 9.66087L29.2867 11.1131C28.529 10.6828 27.7244 10.3454 26.8875 10.1076L26.8245 7.9882C26.8121 7.55698 26.4676 7.21858 26.041 7.21858H21.7322C21.3056 7.21858 20.962 7.55698 20.9487 7.9882L20.8857 10.1076C20.0478 10.3464 19.2423 10.6838 18.4846 11.115L16.9614 9.66184C16.6513 9.36598 16.1712 9.37275 15.8697 9.67828L14.7512 10.8114L9.49565 5.48694C9.93083 4.91165 10.1895 4.19328 10.1895 3.41495C10.1895 1.53151 8.67779 0 6.81874 0C4.95969 0 3.44897 1.53054 3.44897 3.41399C3.44897 5.29743 4.96064 6.82894 6.81969 6.82894C7.49632 6.82894 8.12713 6.62493 8.65584 6.27589L13.9429 11.6323L12.8244 12.7655C12.5228 13.071 12.5152 13.5564 12.8082 13.8706L14.2425 15.4137C13.8178 16.1814 13.4838 16.9974 13.2481 17.8463L11.1572 17.9101C10.7306 17.9227 10.3965 18.2717 10.3965 18.7039V20.306H6.69181C6.41887 18.6981 5.03413 17.4712 3.37072 17.4712C1.51167 17.4712 0 19.0027 0 20.8861C0 22.7696 1.51167 24.3011 3.37072 24.3011C5.03413 24.3011 6.41887 23.0741 6.69181 21.4662H10.3965V23.0693C10.3965 23.5015 10.7306 23.8496 11.1562 23.8631L13.2481 23.9269C13.4838 24.7758 13.8169 25.5918 14.2425 26.3595L12.8082 27.9026C12.5161 28.2169 12.5228 28.7032 12.8244 29.0078L15.8716 32.0949C16.1731 32.4005 16.6522 32.4072 16.9624 32.1114L18.4855 30.6582C18.5743 30.7085 18.664 30.7578 18.7537 30.8052L16.2466 33.9262C15.6683 33.4544 14.9344 33.1701 14.1356 33.1701C12.2766 33.1701 10.7649 34.7016 10.7649 36.585C10.7649 38.4685 12.2766 40 14.1356 40C15.9947 40 17.5064 38.4685 17.5064 36.585C17.5064 35.9353 17.326 35.3272 17.0139 34.8099L19.8311 31.3031C20.1756 31.4404 20.5278 31.5622 20.8857 31.6647L20.9506 33.785C20.9639 34.2162 21.3075 34.5546 21.7331 34.5546H21.7341H26.0429C26.4685 34.5546 26.8131 34.2162 26.8264 33.785L26.8913 31.6647C27.7273 31.4268 28.5309 31.0894 29.2886 30.6592L30.8136 32.1114C31.1238 32.4072 31.6038 32.3995 31.9044 32.094L33.0229 30.9608L35.9127 33.8885C35.5882 34.4135 35.3992 35.0332 35.3992 35.6965C35.3992 37.5799 36.9109 39.1115 38.7699 39.1115C40.629 39.1115 42.1407 37.5799 42.1407 35.6965C42.1407 33.8131 40.629 32.2816 38.7699 32.2816C37.9798 32.2816 37.2525 32.559 36.6771 33.0222L33.8322 30.14L34.9507 29.0068C35.2523 28.7013 35.2589 28.2159 34.9669 27.9017L33.5335 26.3566C33.9572 25.5899 34.2903 24.7758 34.526 23.9279L36.6189 23.8621C37.0445 23.8486 37.3785 23.5005 37.3785 23.0683V18.703C37.3785 18.2717 37.0445 17.9227 36.6189 17.9092L34.526 17.8434C34.4458 17.5543 34.3533 17.2701 34.2512 16.9897L40.1623 13.0816C40.7779 13.7526 41.6559 14.1732 42.6293 14.1732C44.4883 14.1732 46 12.6417 46 10.7583C46 8.87482 44.4874 7.34234 42.6283 7.34234ZM4.59418 3.41399C4.59418 2.1706 5.59241 1.15927 6.81969 1.15927C8.04697 1.15927 9.04521 2.1706 9.04521 3.41399C9.04521 4.65737 8.04697 5.6687 6.81969 5.6687C5.59241 5.6687 4.59418 4.65737 4.59418 3.41399ZM3.37072 23.1408C2.14344 23.1408 1.1452 22.1295 1.1452 20.8861C1.1452 19.6427 2.14344 18.6314 3.37072 18.6314C4.598 18.6314 5.59623 19.6427 5.59623 20.8861C5.59623 22.1295 4.598 23.1408 3.37072 23.1408ZM14.1347 38.8398C12.9074 38.8398 11.9092 37.8284 11.9092 36.585C11.9092 35.3417 12.9074 34.3303 14.1347 34.3303C14.6596 34.3303 15.1425 34.516 15.5232 34.8254L15.4564 34.9085L15.9976 35.3552C16.2256 35.7091 16.3592 36.1316 16.3592 36.585C16.3602 37.8284 15.362 38.8398 14.1347 38.8398ZM38.769 33.4418C39.9963 33.4418 40.9945 34.4531 40.9945 35.6965C40.9945 36.9399 39.9963 37.9512 38.769 37.9512C37.5417 37.9512 36.5435 36.9399 36.5435 35.6965C36.5435 34.4531 37.5417 33.4418 38.769 33.4418ZM36.2324 19.0578V22.7135L34.2216 22.7763C33.8685 22.787 33.5736 23.0277 33.4858 23.3739C33.2529 24.2991 32.8912 25.1838 32.4112 26.0037C32.2308 26.3112 32.2728 26.6921 32.5143 26.9532L33.8914 28.4383L31.3404 31.0227L29.8746 29.6275C29.6179 29.3829 29.2409 29.3413 28.9374 29.5231C28.1281 30.0094 27.2549 30.3759 26.3416 30.6118C26 30.6998 25.7623 30.9995 25.7518 31.3563L25.6898 33.3934H22.0815L22.0194 31.3563C22.008 30.9985 21.7713 30.6998 21.4296 30.6118C20.5154 30.3759 19.6412 30.0094 18.8319 29.5221C18.5285 29.3394 18.1515 29.381 17.8948 29.6266L16.4327 31.0217L13.8818 28.4373L15.2598 26.9551C15.5013 26.695 15.5433 26.3131 15.3629 26.0057C14.8819 25.1838 14.5193 24.2982 14.2864 23.371C14.1996 23.0248 13.9037 22.7841 13.5506 22.7734L11.5408 22.7125V19.0578L13.5506 18.9969C13.9037 18.9862 14.1996 18.7455 14.2864 18.3994C14.5193 17.4721 14.8819 16.5855 15.3629 15.7647C15.5433 15.4572 15.5013 15.0753 15.2598 14.8152L13.8818 13.333L16.4327 10.7486L17.8957 12.1447C18.1524 12.3903 18.5294 12.4319 18.8329 12.2492C19.6441 11.7609 20.5182 11.3945 21.4335 11.1585C21.7751 11.0696 22.0118 10.7708 22.0232 10.4131L22.0834 8.37688H25.6908L25.7509 10.4131C25.7614 10.7708 25.9981 11.0706 26.3407 11.1585C27.2549 11.3945 28.1291 11.7609 28.9384 12.2472C29.2418 12.43 29.6178 12.3874 29.8755 12.1428L31.3414 10.7476L33.8923 13.332L32.5143 14.8171C32.2728 15.0772 32.2318 15.4591 32.4112 15.7656C32.8912 16.5855 33.2529 17.4702 33.4858 18.3955C33.5726 18.7416 33.8685 18.9824 34.2206 18.993L36.2324 19.0578ZM42.6283 13.012C41.4011 13.012 40.4028 12.0007 40.4028 10.7573C40.4028 9.51391 41.4011 8.50257 42.6283 8.50257C43.8556 8.50257 44.8538 9.51391 44.8538 10.7573C44.8538 12.0007 43.8556 13.012 42.6283 13.012ZM20.6022 18.207C19.582 18.207 18.7527 19.0472 18.7527 20.0807V22.9852C18.7527 23.3052 19.0094 23.5653 19.3253 23.5653C19.6412 23.5653 19.8979 23.3052 19.8979 22.9852V22.1131H21.3065V22.9852C21.3065 23.3052 21.5632 23.5653 21.8791 23.5653C22.195 23.5653 22.4517 23.3052 22.4517 22.9852V20.0807C22.4517 19.0472 21.6215 18.207 20.6022 18.207ZM19.897 20.9528V20.0807C19.897 19.6872 20.2129 19.3672 20.6013 19.3672C20.9897 19.3672 21.3056 19.6872 21.3056 20.0807V20.9528H19.897ZM25.6306 18.207H24.0751C23.7592 18.207 23.5025 18.467 23.5025 18.7871V22.9852C23.5025 23.3052 23.7592 23.5653 24.0751 23.5653C24.3909 23.5653 24.6477 23.3052 24.6477 22.9852V21.4662H25.6306C26.5172 21.4662 27.2387 20.7353 27.2387 19.8371C27.2387 18.9389 26.5172 18.207 25.6306 18.207ZM25.6306 20.306H24.6477V19.3672H25.6306C25.8864 19.3672 26.0935 19.578 26.0935 19.8361C26.0935 20.0943 25.8864 20.306 25.6306 20.306ZM28.4497 18.207C28.7656 18.207 29.0223 18.467 29.0223 18.7871V22.9852C29.0223 23.3052 28.7656 23.5653 28.4497 23.5653C28.1339 23.5653 27.8771 23.3052 27.8771 22.9852V18.7871C27.8771 18.4661 28.1329 18.207 28.4497 18.207Z" fill="#E6B625"/>
</svg>
