<svg width="45" height="45" viewBox="0 0 45 45" fill="none" xmlns="http://www.w3.org/2000/svg">
<path d="M9.50667 29.0116C8.68 29.0885 7.85333 29.1653 7 29.2166C6.11991 29.2678 5.24009 29.2934 4.33333 29.2934C3.58658 29.2934 3 29.8571 3 30.5744V43H11V30.2926C11 29.4984 10.2532 28.9092 9.50667 29.0116Z" fill="#FF584A"/>
<path d="M40.6533 11.4634C40.0668 12.1254 39.5334 12.7609 39 13.3435C37.9867 14.5086 36.9199 15.5941 35.4532 16.9446C35.1599 17.183 35 17.5536 35 17.9244V43H43V12.3107C43 11.0927 41.4532 10.5367 40.6533 11.4634Z" fill="#FFD400"/>
<path d="M29.9199 21.2226C29.3067 21.6408 28.6667 22.033 28 22.399C26.9332 23.0526 25.8667 23.6538 24.7468 24.2029C24.2933 24.412 24 24.8565 24 25.3532V43H32V22.3205C32 21.2487 30.8 20.6473 29.9199 21.2226Z" fill="#FDBF00"/>
<path d="M45 1.31402V6.5701C45 7.30587 44.42 7.88412 43.6816 7.88412C42.9433 7.88412 42.3633 7.30587 42.3633 6.5701V5.62401L37.1602 11.4407C33.0469 16.066 28.0635 19.719 22.5 22.1893C16.9366 24.686 10.8722 26 4.70221 26C3.48923 26 2.43331 25.9473 1.19397 25.8423C0.482145 25.7897 -0.0715655 25.159 0.00753593 24.4233C0.0601823 23.7136 0.692906 23.1353 1.43127 23.2406C8.81408 23.8714 15.9873 22.4522 22.4999 19.2986C27.2724 16.9859 31.5966 13.7534 35.1825 9.70614L41.4931 2.62804H38.4082C37.6698 2.62804 37.0899 2.04978 37.0899 1.31402C37.0899 0.578081 37.6698 0 38.4082 0H43.6816C44.42 0 45 0.578081 45 1.31402Z" fill="#15EC88"/>
<path d="M19.4367 26.0718C18.8067 26.3374 18.1534 26.5767 17.5 26.7892C16.6367 27.1081 15.7733 27.3473 14.91 27.5864C14.3733 27.7461 14 28.2774 14 28.8888V43H21V27.3207C21 26.4172 20.2066 25.7793 19.4367 26.0718Z" fill="#FF8F4A"/>
<path d="M45 43.5C45 44.3399 44.42 45 43.6816 45H1.31836C0.57999 45 0 44.3399 0 43.5C0 42.6599 0.57999 42 1.31836 42H43.6816C44.42 42 45 42.6599 45 43.5Z" fill="#478CFF"/>
</svg>
