<svg width="61" height="60" viewBox="0 0 61 60" fill="none" xmlns="http://www.w3.org/2000/svg">
<path d="M23.2383 39.7279C23.0655 39.7279 22.8958 39.64 22.7997 39.4805C22.6555 39.2423 22.7302 38.9325 22.9663 38.7843L32.9474 32.5102L20.5648 39.6584C20.3246 39.7995 20.0169 39.7197 19.8727 39.4815C19.7276 39.2444 19.8001 38.9356 20.0332 38.7853L35.7783 28.703L16.8016 39.6584C16.5604 39.7995 16.2547 39.7197 16.1095 39.4815C15.9643 39.2433 16.0369 38.9356 16.27 38.7853L33.7458 27.5999L12.8595 39.6584C12.6162 39.7985 12.3095 39.7177 12.1653 39.4785C12.0212 39.2392 12.0968 38.9295 12.334 38.7812L25.4731 30.6148L10.0859 39.4969C9.84257 39.638 9.53383 39.5572 9.3907 39.3159C9.24757 39.0767 9.32425 38.7659 9.56143 38.6187L22.1597 30.8448L8.09847 38.9622C7.85719 39.1033 7.54845 39.0225 7.4043 38.7833C7.26015 38.5441 7.3358 38.2343 7.57094 38.086L27.3675 25.679L6.06504 37.9777C5.82172 38.1177 5.51297 38.038 5.36985 37.7967C5.22672 37.5575 5.30339 37.2467 5.54058 37.0995L20.5914 27.8197L4.71248 36.9881C4.46815 37.1291 4.1594 37.0473 4.01729 36.8061C3.87417 36.5658 3.95186 36.254 4.19109 36.1088L12.4311 31.0933L3.77909 36.0884C3.53577 36.2285 3.22703 36.1487 3.0839 35.9074C2.94077 35.6682 3.01745 35.3574 3.25463 35.2102L18.8903 25.5757L2.79049 34.8708C2.54717 35.0109 2.23945 34.9301 2.09632 34.6909C1.95217 34.4516 2.02783 34.1419 2.26501 33.9936L21.5299 22.018L1.89799 33.3567C1.65467 33.4968 1.34797 33.416 1.20382 33.1768C1.05967 32.9375 1.13532 32.6268 1.37251 32.4795L19.5548 21.198L1.26516 31.7578C1.02082 31.8989 0.712077 31.8171 0.569972 31.5758C0.426845 31.3356 0.504543 31.0237 0.74377 30.8786L8.16696 26.3609L0.959483 30.5207C0.716166 30.6618 0.409465 30.58 0.265316 30.3418C0.121166 30.1026 0.196819 29.7918 0.432979 29.6446L18.9117 18.1167L0.767283 28.5936C0.523967 28.7337 0.215221 28.6529 0.0720938 28.4137C-0.0710334 28.1735 0.00564189 27.8637 0.242824 27.7155L13.6825 19.411L0.882808 26.8005C0.640514 26.9405 0.329723 26.8587 0.187618 26.6195C0.0444907 26.3793 0.122188 26.0674 0.360393 25.9212L6.45557 22.1959L1.23858 25.2066C0.996287 25.3477 0.685496 25.2659 0.543391 25.0247C0.400264 24.7844 0.477962 24.4736 0.716166 24.3274L4.04694 22.295L1.88674 23.5423C1.66183 23.6752 1.36842 23.6118 1.21507 23.3961C1.06274 23.1814 1.0975 22.8859 1.29685 22.7132L4.19723 20.2023C4.02241 20.2002 3.85372 20.1082 3.76069 19.9467C3.61858 19.7024 3.70241 19.3895 3.94778 19.2485L8.04735 16.8828C8.27431 16.7488 8.5667 16.8143 8.71902 17.029C8.87135 17.2436 8.83659 17.5391 8.63724 17.7119L6.02414 19.9733L39.8441 0.449705C40.0864 0.3076 40.3962 0.389387 40.5393 0.631681C40.6824 0.87193 40.6047 1.18272 40.3665 1.32892L37.0081 3.3787L41.3316 0.883176C41.5729 0.742093 41.8837 0.822858 42.0268 1.06413C42.1699 1.3054 42.0922 1.61619 41.854 1.76239L35.765 5.48472L42.7475 1.45364C42.9888 1.31256 43.2975 1.39332 43.4427 1.63357C43.5858 1.87382 43.5092 2.18359 43.272 2.33183L29.8323 10.6363L44.3158 2.27458C44.5581 2.13349 44.8648 2.21426 45.01 2.45349C45.1541 2.69271 45.0785 3.0035 44.8423 3.15072L26.3666 14.6766L45.9382 3.37359C46.1805 3.23149 46.4903 3.31429 46.6334 3.55557C46.7766 3.79684 46.6989 4.10763 46.4596 4.2528L39.0191 8.78278L46.9371 4.21089C47.1794 4.06878 47.4861 4.14955 47.6312 4.39082C47.7754 4.63004 47.6997 4.94083 47.4626 5.08805L29.2741 16.3736L48.1751 5.4612C48.4164 5.3191 48.7251 5.39986 48.8693 5.64114C49.0134 5.88036 48.9378 6.19013 48.7006 6.33837L29.4582 18.2997L49.2874 6.85261C49.5287 6.71152 49.8374 6.79127 49.9826 7.03356C50.1257 7.27279 50.0491 7.58358 49.8119 7.73079L34.1578 17.3776L50.1227 8.16018C50.365 8.01807 50.6747 8.10088 50.8179 8.34215C50.961 8.58342 50.8833 8.89421 50.6441 9.03939L42.4327 14.0386L50.7075 9.26123C50.9497 9.11913 51.2585 9.19989 51.4026 9.44219C51.5458 9.68141 51.4691 9.9922 51.2319 10.1394L36.1739 19.4233L51.3035 10.6884C51.5458 10.5484 51.8535 10.6281 51.9976 10.8673C52.1418 11.1066 52.0661 11.4163 51.831 11.5646L32.0355 23.9706L51.8586 12.5266C52.1009 12.3845 52.4096 12.4652 52.5538 12.7075C52.6969 12.9468 52.6202 13.2576 52.3831 13.4048L39.7633 21.1919L52.1438 14.0448C52.3851 13.9037 52.6939 13.9844 52.838 14.2247C52.9822 14.4649 52.9065 14.7737 52.6693 14.9219L39.5384 23.0843L52.5875 15.5507C52.8298 15.4106 53.1355 15.4903 53.2797 15.7275C53.4248 15.9647 53.3522 16.2734 53.1191 16.4237L35.6413 27.6102L54.5187 16.712C54.761 16.573 55.0667 16.6517 55.2108 16.8889C55.356 17.1261 55.2834 17.4348 55.0503 17.5851L39.3033 27.6694L56.0144 18.0216C56.2567 17.8826 56.5644 17.9603 56.7086 18.2006C56.8527 18.4388 56.7781 18.7485 56.5419 18.8968L46.569 25.1657L56.9938 19.1472C57.2351 19.0062 57.5387 19.0859 57.6859 19.3231C57.8311 19.5582 57.7606 19.867 57.5285 20.0183L43.6973 28.9985L58.0161 20.7319C58.2584 20.5898 58.5651 20.6705 58.7103 20.9118C58.8545 21.15 58.7788 21.4608 58.5426 21.609L55.7179 23.3664L58.5079 21.7562C58.7502 21.6172 59.0579 21.6959 59.2021 21.9352C59.3462 22.1734 59.2705 22.4831 59.0354 22.6324L55.6024 24.7854L58.924 22.8675C59.1653 22.7275 59.4699 22.8062 59.6161 23.0423C59.7613 23.2785 59.6907 23.5873 59.4587 23.7386L51.2554 29.069L59.3012 24.4245C59.5415 24.2845 59.8471 24.3622 59.9923 24.5994C60.1375 24.8345 60.068 25.1432 59.8369 25.2956L53.3144 29.5597L59.472 26.0041C59.7122 25.864 60.0189 25.9427 60.1631 26.1789C60.3082 26.414 60.2387 26.7228 60.0077 26.8741L55.7966 29.6303L59.4505 27.5212C59.6907 27.3822 59.9954 27.4599 60.1416 27.695C60.2868 27.9301 60.2183 28.2389 59.9872 28.3912L57.733 29.8705L59.247 28.9975C59.4852 28.8594 59.7879 28.9341 59.9351 29.1672C60.0823 29.4003 60.0179 29.7059 59.7909 29.8613L56.4837 32.1268L58.7134 30.8397C58.9465 30.7007 59.2501 30.7763 59.3973 31.0033C59.5466 31.2323 59.4893 31.5359 59.2695 31.6954L56.2567 33.8842L57.5735 33.1246C57.8055 32.9876 58.103 33.0592 58.2533 33.2811C58.4026 33.5049 58.3556 33.8055 58.1429 33.9701L55.9244 35.6958C55.9899 35.7377 56.0471 35.797 56.089 35.8696C56.2311 36.114 56.1473 36.4268 55.9019 36.5679L51.5938 39.0552C51.3617 39.1912 51.0643 39.1206 50.914 38.8988C50.7647 38.6749 50.8117 38.3743 51.0244 38.2097L51.6398 37.7313L48.3111 39.6523C48.077 39.7893 47.7744 39.7156 47.6272 39.4887C47.4779 39.2597 47.5351 38.9561 47.7549 38.7966L50.7657 36.6088L45.4629 39.6696C45.2247 39.8087 44.922 39.733 44.7748 39.4999C44.6276 39.2668 44.692 38.9612 44.919 38.8058L48.2201 36.5454L42.8089 39.6696C42.5696 39.8097 42.264 39.731 42.1178 39.4958C41.9726 39.2607 42.0411 38.952 42.2721 38.7996L44.5387 37.3111L40.4544 39.6696C40.2132 39.8097 39.9075 39.731 39.7633 39.4948C39.6182 39.2597 39.6877 38.9509 39.9187 38.7996L44.1175 36.0516L37.8505 39.6696C37.6103 39.8097 37.3046 39.731 37.1594 39.4948C37.0143 39.2587 37.0838 38.9509 37.3148 38.7986L43.8425 34.5314L34.943 39.6686C34.7028 39.8087 34.3971 39.73 34.2509 39.4938C34.1057 39.2576 34.1763 38.9489 34.4083 38.7976L42.6054 33.4712L31.8719 39.6686C31.6317 39.8097 31.3229 39.7289 31.1777 39.4897C31.0336 39.2515 31.1092 38.9417 31.3444 38.7925L34.7999 36.6261L29.5297 39.6686C29.2874 39.8087 28.9787 39.7279 28.8356 39.4887C28.6914 39.2505 28.7671 38.9397 29.0032 38.7915L31.8116 37.0433L27.2663 39.6676C27.026 39.8077 26.7203 39.73 26.5742 39.4918C26.429 39.2566 26.4995 38.9479 26.7316 38.7966L40.5638 29.8153L23.5 39.6676C23.4192 39.7146 23.3313 39.7361 23.2444 39.7361L23.2383 39.7279Z" fill="#478CFF"/>
<path d="M10.8085 16.2848C10.6409 16.2848 10.4773 16.202 10.3792 16.0507C10.2309 15.8217 10.2882 15.518 10.509 15.3586L11.1705 14.8811C11.013 14.8852 10.8392 14.8157 10.7339 14.6726C10.5806 14.463 10.6082 14.1706 10.8004 13.9937L12.6948 12.2537C12.5516 12.2271 12.4218 12.1413 12.3441 12.0063C12.202 11.762 12.2858 11.4491 12.5312 11.3081L15.7853 9.43002C16.0102 9.29916 16.2985 9.35948 16.4529 9.57008C16.6062 9.77966 16.5786 10.0721 16.3864 10.2489L14.9081 11.6086L18.8911 9.30837C19.1253 9.17035 19.4269 9.24396 19.5761 9.47296C19.7244 9.70197 19.6671 10.0056 19.4463 10.1651L19.2377 10.3154L20.2856 9.71014C20.53 9.56702 20.8428 9.65085 20.9839 9.89723C21.126 10.1416 21.0421 10.4544 20.7968 10.5955L11.0631 16.2153C10.9834 16.2623 10.8944 16.2838 10.8075 16.2838L10.8085 16.2848Z" fill="#478CFF"/>
<path d="M21.3941 10.5403C21.2264 10.5403 21.0618 10.4575 20.9647 10.3062C20.8165 10.0772 20.8748 9.77256 21.0966 9.61308L25.8423 6.22198L23.2241 7.73402C22.991 7.86999 22.6915 7.79843 22.5432 7.57556C22.394 7.35064 22.444 7.04803 22.6587 6.88548L25.5376 4.69359C25.4579 4.64963 25.3884 4.58522 25.3414 4.50139C25.1992 4.25705 25.2831 3.94422 25.5284 3.80313L30.4449 0.965123C30.678 0.82813 30.9765 0.899694 31.1257 1.12359C31.275 1.34748 31.2249 1.65111 31.0102 1.81366L29.6761 2.82987L34.4575 0.0695555C34.6906 -0.0684601 34.9943 0.00514823 35.1425 0.235174C35.2907 0.464178 35.2325 0.768834 35.0106 0.928319L30.267 4.31737L37.6155 0.0756896C37.8599 -0.0664154 38.1727 0.0174163 38.3138 0.262777C38.4559 0.507116 38.3721 0.819951 38.1267 0.961034L21.6507 10.4739C21.571 10.5209 21.482 10.5424 21.3951 10.5424L21.3941 10.5403Z" fill="#478CFF"/>
<path d="M28.5691 21.5532C28.3736 21.5532 28.1815 21.443 28.0769 21.2469C27.9189 20.9541 28.0121 20.5791 28.2849 20.41L30.0593 19.3061C30.3299 19.1357 30.6788 19.2362 30.8357 19.5303C30.9937 19.8231 30.9005 20.1981 30.6277 20.3672L28.8533 21.4711C28.7635 21.5275 28.6657 21.5532 28.5691 21.5532Z" fill="#C0D7FF"/>
<path d="M30.9489 59.9978C30.7842 59.9978 30.6235 59.9168 30.5259 59.7681C30.3774 59.5424 30.4272 59.2399 30.6408 59.0758L35.7232 55.1827L28.2491 59.5332C28.0131 59.6717 27.7142 59.5968 27.5657 59.366C27.4193 59.1343 27.4793 58.8286 27.702 58.6697L34.5904 53.7818L26.2509 58.6379C26.0119 58.7784 25.7079 58.7004 25.5635 58.4625C25.418 58.2256 25.4882 57.9159 25.719 57.7641L28.6507 55.8401L25.0204 57.9549C24.7815 58.0943 24.4784 58.0174 24.334 57.7815C24.1886 57.5467 24.2557 57.238 24.4835 57.0842L32.2119 51.8958L23.5114 56.9611C23.2714 57.1006 22.9694 57.0236 22.824 56.7867C22.6796 56.5519 22.7477 56.2422 22.9765 56.0893L31.9638 50.1031L22.0938 55.8504C21.8539 55.9919 21.5478 55.9129 21.4044 55.6709C21.26 55.432 21.3342 55.1212 21.5681 54.9725L23.7209 53.6064L21.2173 55.0638C20.9773 55.2053 20.6722 55.1253 20.5278 54.8853C20.3845 54.6474 20.4577 54.3367 20.6905 54.1869L25.8634 50.8795L20.2848 54.1274C20.0458 54.2679 19.7418 54.19 19.5964 53.951C19.452 53.7141 19.5232 53.4044 19.754 53.2526L30.1313 46.4757L19.1784 52.8537C18.9395 52.9962 18.6334 52.9152 18.489 52.6763C18.3456 52.4383 18.4178 52.1276 18.6507 51.9768L27.3715 46.3721L18.2836 51.663C18.0415 51.8045 17.7355 51.7225 17.5931 51.4835C17.4497 51.2435 17.525 50.9328 17.7599 50.7841L22.2037 47.9843L17.6124 50.6569C17.3704 50.7974 17.0643 50.7164 16.922 50.4764C16.7786 50.2375 16.8538 49.9257 17.0887 49.778L21.5224 46.9895L16.9952 49.6252C16.7552 49.7667 16.4481 49.6857 16.3047 49.4457C16.1613 49.2057 16.2366 48.895 16.4705 48.7463L23.2206 44.4809L16.3779 48.4653C16.139 48.6068 15.8339 48.5268 15.6885 48.2878C15.5451 48.0499 15.6173 47.7392 15.8502 47.5884L27.7305 39.9418L15.6783 46.9597C15.4393 47.1013 15.1332 47.0223 14.9889 46.7813C14.8455 46.5423 14.9187 46.2316 15.1516 46.0818L25.7953 39.2895L15.1129 45.5086C14.8739 45.6501 14.5679 45.5701 14.4245 45.3311C14.2801 45.0942 14.3523 44.7835 14.5841 44.6327L26.3963 36.9953L14.5729 43.8789C14.334 44.0205 14.0269 43.9394 13.8825 43.6994C13.7391 43.4605 13.8143 43.1487 14.0482 43L18.8896 39.9407L14.2333 42.6523C13.9943 42.7918 13.6923 42.7149 13.5469 42.479C13.4015 42.2431 13.4686 41.9355 13.6964 41.7816L26.501 33.171L13.7737 40.5807C13.5347 40.7232 13.2286 40.6422 13.0842 40.4022C12.9408 40.1643 13.0141 39.8536 13.2469 39.7028L17.0836 37.2517L13.5489 39.309C13.31 39.4505 13.0039 39.3705 12.8595 39.1305C12.7161 38.8916 12.7893 38.5808 13.0222 38.4311L15.1058 37.104L13.3812 38.108C13.1412 38.2485 12.8381 38.1706 12.6927 37.9316C12.5483 37.6958 12.6185 37.386 12.8493 37.2343L18.611 33.4622L13.2184 36.6025C12.9856 36.741 12.6815 36.6661 12.5351 36.4333C12.3887 36.2005 12.4507 35.8949 12.6744 35.7369L22.8057 28.6533L13.0781 34.3165C12.8392 34.456 12.5351 34.3791 12.3917 34.1432C12.2463 33.9083 12.3134 33.5986 12.5422 33.4448L18.0049 29.7907L13.0405 32.6807C12.8015 32.8212 12.4975 32.7433 12.3521 32.5043C12.2077 32.2674 12.2788 31.9577 12.5097 31.8059L13.9872 30.8419L13.0364 31.3947C12.8025 31.5321 12.5015 31.4583 12.3541 31.2285C12.2077 30.9978 12.2656 30.6932 12.4873 30.5332L13.1788 30.0368L13.0364 30.1189C12.8147 30.2512 12.528 30.1896 12.3734 29.9804C12.2209 29.7702 12.2463 29.4779 12.4365 29.3005L13.8388 27.9806L13.0374 28.4472C12.8412 28.56 12.5941 28.5313 12.4304 28.3733C12.2677 28.2164 12.228 27.9672 12.3317 27.7652L12.8402 26.7868H12.8381C12.6632 26.7868 12.4914 26.6945 12.3978 26.5304C12.2565 26.2853 12.3399 25.9715 12.5839 25.8299L13.792 25.1264C13.9872 25.0105 14.2364 25.0423 14.3991 25.2002C14.5618 25.3572 14.6014 25.6064 14.4977 25.8084L14.0472 26.675L17.1965 24.8423C17.4182 24.711 17.705 24.7705 17.8595 24.9808C18.0121 25.191 17.9866 25.4833 17.7965 25.6607L16.3932 26.9806L21.8701 23.7932C22.104 23.6547 22.404 23.7285 22.5525 23.9593C22.6989 24.1901 22.6409 24.4946 22.4192 24.6546L21.7328 25.1469L30.7862 19.8755C31.0252 19.735 31.3292 19.8129 31.4746 20.0519C31.619 20.2888 31.5478 20.5985 31.317 20.7503L29.8283 21.7215L31.6729 20.6477C31.9099 20.5072 32.2149 20.5842 32.3593 20.8211C32.5047 21.0559 32.4366 21.3656 32.2088 21.5195L26.7492 25.1725L32.9451 21.5646C33.1779 21.4261 33.482 21.501 33.6284 21.7338C33.7748 21.9666 33.7128 22.2722 33.4891 22.4302L23.3578 29.5148L35.0195 22.7245C35.2585 22.585 35.5625 22.662 35.7079 22.9009C35.8523 23.1368 35.7822 23.4465 35.5513 23.5983L29.7937 27.3673L36.6018 23.4034C36.8428 23.2629 37.1478 23.3419 37.2912 23.5819C37.4346 23.8219 37.3614 24.1316 37.1285 24.2813L35.0266 25.6217L37.999 23.8906C38.241 23.7511 38.5451 23.8301 38.6884 24.069C38.8318 24.308 38.7586 24.6177 38.5257 24.7685L34.6992 27.2124L39.6382 24.3367C39.8762 24.1972 40.1782 24.2741 40.3246 24.51C40.47 24.7449 40.4029 25.0536 40.1751 25.2074L27.3715 33.8181L42.7031 24.8915C42.9441 24.7521 43.2502 24.831 43.3936 25.071C43.537 25.311 43.4617 25.6217 43.2278 25.7705L38.3773 28.8349L44.8152 25.0874C45.0562 24.9469 45.3602 25.0269 45.5036 25.2648C45.648 25.5018 45.5758 25.8125 45.344 25.9633L33.544 33.5925L46.9669 25.7766C47.2069 25.6361 47.513 25.7151 47.6564 25.9551C47.7997 26.195 47.7265 26.5048 47.4937 26.6545L36.8509 33.4468L47.0432 27.5119C47.2842 27.3724 47.5872 27.4514 47.7326 27.6893C47.876 27.9272 47.8038 28.238 47.5709 28.3887L35.6957 36.0313L47.0432 29.4246C47.2842 29.2841 47.5903 29.364 47.7337 29.604C47.877 29.844 47.8018 30.1548 47.5679 30.3035L40.8046 34.578L47.0442 30.9455C47.2842 30.8029 47.5913 30.8839 47.7347 31.126C47.878 31.3649 47.8028 31.6767 47.5679 31.8244L43.121 34.6211L47.035 32.3423C47.2761 32.1997 47.5811 32.2818 47.7255 32.5218C47.8689 32.7618 47.7936 33.0725 47.5587 33.2212L43.1251 36.0149L46.9934 33.7637C47.2333 33.6232 47.5394 33.7032 47.6828 33.9412C47.8262 34.1791 47.754 34.4898 47.5211 34.6406L38.8033 40.2433L46.8825 35.539C47.1215 35.3985 47.4255 35.4764 47.5709 35.7154C47.7153 35.9523 47.6442 36.262 47.4133 36.4138L37.036 43.1897L46.6588 37.5871C46.8998 37.4466 47.2049 37.5255 47.3483 37.7655C47.4916 38.0034 47.4184 38.3142 47.1856 38.4639L42.0096 41.7734L46.4066 39.2136C46.6476 39.0741 46.9527 39.1521 47.0961 39.3931C47.2405 39.632 47.1662 39.9428 46.9323 40.0915L44.7816 41.4565L46.1138 40.6812C46.3507 40.5407 46.6547 40.6176 46.8012 40.8555C46.9456 41.0904 46.8774 41.4001 46.6486 41.5529L37.6583 47.5412L45.528 42.959C45.765 42.8175 46.068 42.8954 46.2144 43.1323C46.3598 43.3672 46.2927 43.6759 46.0649 43.8297L38.3437 49.0129L44.7267 45.2963C44.9657 45.1568 45.2708 45.2347 45.4141 45.4716C45.5595 45.7085 45.4894 46.0183 45.2585 46.17L42.3218 48.0971L43.9213 47.1659C44.1552 47.0274 44.4572 47.1023 44.6047 47.333C44.7511 47.5648 44.6911 47.8704 44.4684 48.0294L37.5729 52.9214L42.1875 50.2354C42.4184 50.098 42.7163 50.1698 42.8648 50.3954C43.0133 50.621 42.9634 50.9236 42.7499 51.0876L37.6715 54.9776L38.601 54.4372C38.844 54.2936 39.1562 54.3787 39.2955 54.6248C39.4369 54.8699 39.3535 55.1838 39.1094 55.3253L31.2001 59.9311C31.1208 59.9783 31.0323 59.9998 30.9459 59.9998L30.9489 59.9978Z" fill="#C0D7FF"/>
<path d="M30.4132 55.9226C30.2496 55.9226 30.09 55.843 29.9915 55.697C29.8431 55.4744 29.8898 55.1732 30.1012 55.0088L32.653 53.0136L28.6541 55.3325C28.4183 55.4703 28.1196 55.3958 27.9712 55.165C27.8249 54.9342 27.8858 54.63 28.1084 54.4727L30.4224 52.8411L27.3178 54.6422C27.081 54.7811 26.7791 54.7055 26.6328 54.4717C26.4875 54.2389 26.5515 53.9336 26.7781 53.7784L29.5707 51.866L26.1074 53.8744C25.8686 54.0153 25.5637 53.9357 25.4204 53.6998C25.2761 53.465 25.3452 53.1566 25.5749 53.0045L25.9164 52.7808L25.1948 53.1985C24.9621 53.3383 24.6583 53.2618 24.5109 53.03C24.3656 52.7982 24.4276 52.4929 24.6522 52.3367L31.8004 47.3672L23.8219 51.9946C23.5882 52.1345 23.2853 52.0579 23.138 51.8262C22.9927 51.5944 23.0546 51.2891 23.2792 51.1329L32.3065 44.8544L22.4835 50.5519C22.2447 50.6928 21.9398 50.6132 21.7955 50.3753C21.6512 50.1394 21.7234 49.83 21.9551 49.6799L24.1938 48.2382L21.7732 49.6421C21.5364 49.781 21.2346 49.7055 21.0882 49.4716C20.9429 49.2378 21.0079 48.9325 21.2346 48.7773L31.1276 42.0455L20.7356 48.0728C20.4958 48.2106 20.196 48.1341 20.0506 47.9013C19.9053 47.6674 19.9704 47.3621 20.198 47.208L30.8878 39.9606L19.8281 46.3758C19.5893 46.5167 19.2854 46.4381 19.1401 46.2002C18.9958 45.9643 19.0669 45.656 19.2976 45.5049L26.0088 41.144L19.2478 45.0658C19.0121 45.2057 18.7092 45.1291 18.5629 44.8953C18.4176 44.6615 18.4826 44.3552 18.7092 44.201L29.1856 37.0853L18.5863 43.233C18.3464 43.3719 18.0426 43.2953 17.8993 43.0584C17.755 42.8236 17.8241 42.5152 18.0537 42.3631L23.4022 38.8568L18.197 41.876C17.9582 42.0159 17.6544 41.9373 17.5101 41.7014C17.3647 41.4656 17.4349 41.1572 17.6655 41.0061L21.2142 38.6873L17.8962 40.612C17.6574 40.7519 17.3546 40.6743 17.2093 40.4374C17.0649 40.2025 17.134 39.8952 17.3627 39.7431L20.6055 37.6081L17.6472 39.3244C17.4135 39.4623 17.1127 39.3878 16.9643 39.157C16.818 38.9273 16.879 38.623 17.1015 38.4647L24.2213 33.4391L17.3749 37.411C17.1371 37.5499 16.8343 37.4733 16.6889 37.2384C16.5436 37.0036 16.6107 36.6973 16.8383 36.5441L19.1848 34.9727L17.2469 36.0969C17.0141 36.2337 16.7133 36.1602 16.567 35.9335C16.4186 35.7048 16.4755 35.4016 16.694 35.2423L22.6766 30.8763L17.13 34.0926C16.9125 34.2223 16.629 34.1661 16.4735 33.9619C16.319 33.7597 16.3363 33.4728 16.5162 33.2911L18.5822 31.1989L17.1066 32.0546C16.9247 32.1608 16.6981 32.1424 16.5345 32.0107C16.3709 31.8779 16.3048 31.6584 16.3688 31.4573L16.6859 30.4587C16.5751 30.4199 16.4765 30.3423 16.4125 30.231C16.2713 29.987 16.3546 29.6745 16.5985 29.5336L17.2357 29.164C17.4166 29.0588 17.6452 29.0752 17.8078 29.2079C17.9714 29.3406 18.0375 29.5602 17.9735 29.7613L17.7357 30.5097L21.3667 28.4043C21.5862 28.2767 21.8677 28.3318 22.0232 28.535C22.1776 28.7372 22.1604 29.0241 21.9805 29.2059L19.9155 31.298L30.5667 25.1186C30.7994 24.9797 31.1002 25.0553 31.2465 25.282C31.3949 25.5107 31.338 25.8139 31.1195 25.9732L25.1359 30.3413L32.3258 26.1703C32.5625 26.0314 32.8654 26.108 33.0117 26.3428C33.157 26.5767 33.09 26.884 32.8623 27.0371L30.527 28.6014L33.6194 26.8074C33.8521 26.6696 34.155 26.7441 34.3023 26.9749C34.4487 27.2046 34.3877 27.5089 34.1651 27.6671L27.0393 32.6968L35.723 27.66C35.9629 27.5201 36.2647 27.5977 36.41 27.8346C36.5543 28.0694 36.4852 28.3768 36.2566 28.5289L33.0259 30.6547L37.3155 28.1664C37.5543 28.0276 37.8592 28.1052 38.0025 28.341C38.1478 28.5769 38.0777 28.8852 37.847 29.0364L34.2901 31.3603L39.037 28.6075C39.2758 28.4666 39.5807 28.5463 39.724 28.7821C39.8683 29.017 39.7992 29.3253 39.5695 29.4775L34.2271 32.9796L41.0979 28.9945C41.3357 28.8567 41.6375 28.9322 41.7829 29.165C41.9282 29.3988 41.8631 29.7051 41.6365 29.8593L31.1551 36.9791L42.9597 30.1319C43.1985 29.9921 43.5023 30.0697 43.6476 30.3076C43.792 30.5434 43.7208 30.8518 43.4901 31.0029L36.786 35.3587L42.9586 31.7779C43.1964 31.637 43.4972 31.7156 43.6436 31.9494C43.7889 32.1832 43.7239 32.4885 43.4962 32.6427L32.8034 39.8932L42.8956 34.0395C43.1334 33.9006 43.4353 33.9772 43.5806 34.21C43.7259 34.4438 43.6609 34.7491 43.4342 34.9043L33.5391 41.6371L42.7178 36.3134C42.9576 36.1745 43.2625 36.2531 43.4058 36.49C43.5501 36.7259 43.4779 37.0353 43.2462 37.1853L41.0095 38.625L42.5339 37.7418C42.7717 37.605 43.0704 37.6795 43.2178 37.9103C43.3631 38.1421 43.3011 38.4474 43.0765 38.6036L34.0554 44.879L42.0623 40.2342C42.2981 40.0974 42.5999 40.1719 42.7462 40.4027C42.8916 40.6345 42.8296 40.9397 42.605 41.096L35.4578 46.0644L41.3997 42.6184C41.6375 42.4785 41.9434 42.5561 42.0867 42.7929C42.231 43.0278 42.1619 43.3361 41.9322 43.4883L41.0176 44.0887C41.2117 44.0652 41.4099 44.1469 41.5186 44.3225C41.664 44.5553 41.5999 44.8606 41.3733 45.0158L38.5837 46.9262L39.9109 46.1573C40.1447 46.0195 40.4465 46.094 40.5939 46.3248C40.7402 46.5555 40.6792 46.8598 40.4567 47.017L38.1366 48.6528L38.5309 48.424C38.7616 48.2872 39.0573 48.3587 39.2067 48.5803C39.3551 48.8028 39.3083 49.1041 39.0969 49.2684L35.6285 51.9793C35.7484 52.0151 35.8562 52.0957 35.9232 52.2131C36.0645 52.4572 35.9812 52.7696 35.7373 52.9105L30.6673 55.8511C30.588 55.8981 30.4996 55.9196 30.4132 55.9196V55.9226Z" fill="#15EC88"/>
<path d="M5.4317 38.0701C7.7268 39.4904 10.1487 39.796 12.743 39.8319C17.8068 66.1507 42.1422 65.7456 47.3226 39.8165C60.4512 40.0329 65.1419 21.0883 53.0518 15.4451C52.2942 -1.63829 27.6008 -5.9094 20.8463 9.55271C16.0451 7.79094 10.4174 11.0325 10.0939 16.3649C-0.335972 17.6919 -3.89678 32.5982 5.4317 38.0701ZM34.0804 57.9305C21.6931 63.8054 12.2977 41.7311 13.5695 31.545C14.0056 29.8745 12.2937 25.8988 14.9093 26.0126C20.1536 25.6783 25.615 24.2119 29.5886 20.5766C29.977 20.2084 29.8817 20.2515 30.2711 20.5714C34.3897 24.5554 40.344 25.8701 45.8733 26.0659C48.6005 36.7585 44.7648 52.274 34.0804 57.9305ZM10.741 17.3299C11.029 17.2991 11.5503 17.1002 11.5503 16.729C11.5503 11.8108 16.3971 8.71387 20.7773 10.8776C21.1262 11.0499 21.7499 10.8212 21.9041 10.4613C24.8604 3.56189 32.2437 -0.470279 39.5712 1.28943C46.8074 2.86661 50.8236 9.51887 51.9128 16.2931C62.8447 21.0842 59.574 38.7603 47.5062 38.7254C50.7364 16.4952 43.7202 30.6139 31.9344 20.2874C31.2863 19.6875 30.7711 19.2742 29.831 19.4783C16.1587 31.3748 9.73387 16.0409 12.5878 38.7387C-0.637185 39.6073 -2.54892 18.6805 10.7399 17.3309L10.741 17.3299Z" fill="#262626"/>
<path d="M43.8391 28.9803C38.6238 29.0915 34.0299 25.5486 29.5937 24.4658C25.6659 27.7647 20.2296 27.9726 15.8224 29.5042C15.2684 39.8034 18.6744 53.3108 30.1664 55.9221C41.0504 52.6129 45.9223 38.7699 43.8391 28.9803ZM40.9083 43.8588C39.074 48.784 35.363 53.2346 30.2774 55.0328C19.8976 51.4231 16.9159 39.5553 17.3309 29.7286C21.7795 29.1594 26.1618 27.8409 29.9008 25.3459C33.7404 27.9366 38.2057 29.2469 42.7954 29.7883C42.7881 34.5663 42.5972 39.3216 40.9072 43.8598L40.9083 43.8588Z" fill="#262626"/>
<path d="M34.5574 35.5342C31.6955 37.0471 30.2677 41.1147 27.9811 43.5482L26.568 42.104C26.1995 41.7274 24.7591 42.3046 25.1538 42.7081L27.2535 44.854C29.9863 44.9216 32.0703 38.9623 34.1816 37.0514C34.422 36.5889 35.6167 35.6404 34.5574 35.5342Z" fill="#FF584A"/>
</svg>
