<svg width="49" height="61" viewBox="0 0 49 61" fill="none" xmlns="http://www.w3.org/2000/svg">
<path d="M12.0382 31.4501C11.8663 31.4501 11.6975 31.3627 11.6019 31.204C11.4585 30.9671 11.5328 30.659 11.7677 30.5105L18.0422 26.575L9.72567 31.3759C9.48771 31.5142 9.18262 31.4369 9.0372 31.202C8.8928 30.9671 8.96297 30.66 9.19381 30.5095L24.9034 20.3045L6.72571 30.7993C6.48673 30.9407 6.17962 30.8603 6.03623 30.6213C5.89284 30.3854 5.96606 30.0763 6.19996 29.9288L18.2608 22.3333L5.05896 29.9552C4.81998 30.0956 4.51388 30.0163 4.36947 29.7783C4.22609 29.5424 4.29829 29.2342 4.53218 29.0858L19.5889 19.5235L3.58643 28.7624C3.3444 28.9017 3.03729 28.8224 2.89492 28.5824C2.75255 28.3424 2.82984 28.0343 3.06576 27.8878L6.33826 25.8824L2.84204 27.9C2.60306 28.0393 2.29696 27.961 2.15357 27.7241C2.00917 27.4892 2.08035 27.181 2.31323 27.0316L19.7069 15.8768L1.82002 26.2028C1.57901 26.3431 1.26986 26.2607 1.1285 26.0228C0.986133 25.7838 1.06342 25.4736 1.30037 25.3282L2.6173 24.5238L1.43969 25.2031C1.20071 25.3434 0.896643 25.2641 0.750204 25.0272C0.606816 24.7912 0.679019 24.4831 0.91088 24.3346L16.6022 14.3107L1.06342 23.2811C0.822407 23.4204 0.515293 23.3411 0.371905 23.1011C0.229534 22.8621 0.306821 22.553 0.543766 22.4065L1.28104 21.955L1.05223 22.0872C0.813254 22.2276 0.508174 22.1482 0.363769 21.9113C0.219364 21.6764 0.29055 21.3682 0.523428 21.2188L14.2968 12.3826L1.4946 19.7737C1.27291 19.9018 0.988167 19.8439 0.833593 19.6384C0.680036 19.433 0.703425 19.1442 0.889524 18.9662L3.73186 16.2459C3.49186 16.3619 3.2 16.2775 3.06576 16.0446C2.92441 15.8015 3.0078 15.4904 3.25186 15.35L6.87113 13.2612C7.09079 13.1301 7.37655 13.1901 7.53214 13.3965C7.6857 13.6019 7.66231 13.8907 7.47621 14.0687L4.63896 16.7839L32.5945 0.651258C32.8355 0.511938 33.1396 0.591258 33.283 0.827187C33.4274 1.0621 33.3562 1.37023 33.1233 1.51972L19.353 10.3548L34.6701 1.5126C34.9111 1.37226 35.2182 1.45158 35.3616 1.6926C35.5039 1.93158 35.4267 2.24073 35.1897 2.38716L34.4494 2.8397L35.7022 2.11666C35.9433 1.97836 36.2473 2.05666 36.3917 2.29259C36.5351 2.52852 36.4629 2.83665 36.231 2.98512L20.5438 13.007L37.2988 3.33088C37.5388 3.19054 37.848 3.27088 37.9903 3.51088C38.1327 3.75087 38.0554 4.06002 37.8185 4.20544L36.4822 5.02306L38.087 4.09663C38.329 3.95833 38.632 4.03663 38.7754 4.27256C38.9198 4.50747 38.8476 4.8156 38.6158 4.96509L21.2252 16.1178L39.3459 5.65559C39.5859 5.51424 39.893 5.59458 40.0374 5.83559C40.1798 6.07457 40.1025 6.38372 39.8666 6.53016L36.5626 8.55386L39.9388 6.60541C40.1798 6.46609 40.4849 6.54541 40.6283 6.78236C40.7717 7.0193 40.6995 7.32642 40.4656 7.47489L25.419 17.031L40.6995 8.2081C40.9395 8.06979 41.2456 8.14708 41.3889 8.38606C41.5323 8.62199 41.4591 8.93114 41.2252 9.07859L29.1674 16.672L41.1825 9.73553C41.4215 9.5952 41.7255 9.67452 41.871 9.90943C42.0154 10.1443 41.9452 10.4515 41.7144 10.602L25.9987 20.811L41.5415 11.8375C41.7825 11.6982 42.0886 11.7786 42.232 12.0155C42.3754 12.2524 42.3011 12.5606 42.0662 12.7091L35.8039 16.6375L42.6082 12.7091C42.8493 12.5697 43.1543 12.648 43.2977 12.886C43.4411 13.124 43.3679 13.4311 43.134 13.5795L36.6449 17.6768L43.7889 13.5521C44.0279 13.4138 44.3319 13.4901 44.4774 13.727C44.6218 13.9619 44.5506 14.269 44.3197 14.4195L34.907 20.512L44.9584 14.7094C45.1974 14.57 45.5014 14.6473 45.6458 14.8833C45.7902 15.1192 45.7211 15.4243 45.4913 15.5758L37.0293 21.0906L45.8746 15.9846C46.1146 15.8463 46.4217 15.9236 46.5651 16.1626C46.7085 16.3995 46.6343 16.7076 46.3994 16.8561L46.378 16.8703C46.6078 16.7493 46.8987 16.8266 47.04 17.0503C47.1865 17.2822 47.1234 17.5853 46.8987 17.7408L37.5287 24.2106L46.9933 18.7466C47.2333 18.6073 47.5363 18.6846 47.6807 18.9205C47.8251 19.1564 47.756 19.4625 47.5251 19.613L45.3102 21.056L47.1956 19.9679C47.4326 19.8306 47.7336 19.9049 47.88 20.1367C48.0265 20.3686 47.9624 20.6727 47.7377 20.8272L43.192 23.9431L47.216 21.6204C47.4458 21.4842 47.7458 21.5554 47.8943 21.7801C48.0427 22.0048 47.9909 22.3059 47.7753 22.4665L42.6865 26.2872L46.7553 23.938C46.9882 23.8028 47.2861 23.875 47.4346 24.0977C47.5831 24.3235 47.5292 24.6245 47.3136 24.7851L45.4567 26.1712L45.7923 25.978C46.0343 25.8356 46.3465 25.92 46.4868 26.1641C46.6282 26.4072 46.5448 26.7183 46.3007 26.8587L38.4785 31.3739C38.2466 31.5122 37.9487 31.4369 37.7992 31.2142C37.6507 30.9884 37.7046 30.6874 37.9202 30.5268L39.774 29.1437L35.8833 31.3891C35.6514 31.5244 35.3534 31.4532 35.205 31.2295C35.0565 31.0057 35.1084 30.7037 35.3239 30.543L40.4137 26.7224L32.3291 31.3891C32.0921 31.5284 31.7911 31.4522 31.6447 31.2203C31.4982 30.9884 31.5623 30.6844 31.787 30.5298L36.3287 27.416L29.4471 31.3881C29.2081 31.5264 28.904 31.4491 28.7596 31.2142C28.6152 30.9793 28.6844 30.6722 28.9152 30.5217L31.1382 29.0736L27.1295 31.3871C26.8925 31.5264 26.5915 31.4501 26.4451 31.2193C26.2987 30.9874 26.3617 30.6844 26.5864 30.5288L35.9534 24.0621L23.2641 31.3871C23.0241 31.5284 22.717 31.4481 22.5736 31.2091C22.4302 30.9722 22.5045 30.664 22.7394 30.5156L22.7475 30.5105L21.2302 31.3861C20.9923 31.5244 20.6862 31.4471 20.5428 31.2122C20.3984 30.9773 20.4675 30.6712 20.6974 30.5196L29.1583 25.0058L18.1072 31.3851C17.8672 31.5234 17.5652 31.4471 17.4188 31.2101C17.2744 30.9752 17.3456 30.6681 17.5764 30.5176L26.9942 24.4221L14.9334 31.3851C14.6944 31.5264 14.3883 31.4461 14.2439 31.2081C14.1005 30.9712 14.1737 30.663 14.4076 30.5146L20.8845 26.4255L12.2934 31.3851C12.2131 31.4318 12.1256 31.4532 12.0392 31.4532L12.0382 31.4501Z" fill="#478CFF"/>
<path d="M17.594 7.85537C17.4344 7.85537 17.2768 7.78012 17.1791 7.63978C17.0276 7.42521 17.0642 7.1303 17.2645 6.95945L20.5035 4.20153C20.3448 4.20153 20.1415 4.11611 20.0438 3.94729C19.9025 3.70425 19.9859 3.39307 20.2299 3.25273L24.5743 0.744968C24.8021 0.611749 25.0929 0.67785 25.2434 0.892423C25.3949 1.107 25.3583 1.40191 25.158 1.57275L22.1692 4.11814L29.183 0.0697232C29.4261 -0.0736646 29.7373 0.011758 29.8776 0.255822C30.0189 0.49887 29.9356 0.810052 29.6915 0.950389L17.8483 7.78826C17.7689 7.83503 17.6805 7.85639 17.594 7.85639V7.85537Z" fill="#478CFF"/>
<path d="M8.99996 12.5505C8.84641 12.5505 8.69488 12.4813 8.59624 12.3502C8.44167 12.1478 8.46099 11.861 8.64302 11.681L10.3016 10.0427C10.1389 10.0315 9.98436 9.94104 9.8969 9.78952C9.75555 9.54647 9.83893 9.23529 10.083 9.09495L12.9772 7.42413C13.1958 7.29396 13.4796 7.35091 13.6352 7.55633C13.7897 7.7587 13.7704 8.04547 13.5884 8.22547L12.1728 9.62376L15.8175 7.51972C16.0595 7.37836 16.3717 7.46175 16.5121 7.70582C16.6534 7.94886 16.57 8.26005 16.326 8.40038L9.25521 12.4834C9.17589 12.5302 9.08844 12.5515 9.00098 12.5515L8.99996 12.5505Z" fill="#478CFF"/>
<path d="M28.6967 27.409C28.5217 27.409 28.3499 27.3175 28.2563 27.1548C28.115 26.9117 28.1984 26.6005 28.4424 26.4602L32.2071 24.286C32.4044 24.1701 32.6535 24.2016 32.8183 24.3633C32.981 24.5229 33.0166 24.7721 32.9068 24.9724L32.6007 25.5267L32.9891 25.3019C33.2322 25.1585 33.5444 25.244 33.6837 25.488C33.8251 25.7311 33.7417 26.0422 33.4976 26.1826L31.5247 27.3216C31.3275 27.4375 31.0783 27.4049 30.9136 27.2443C30.7509 27.0846 30.7153 26.8355 30.8251 26.6351L31.1312 26.0819L28.9509 27.3399C28.8705 27.3866 28.7831 27.409 28.6967 27.409Z" fill="#FF584A"/>
<path d="M21.1377 36.535C20.977 36.535 20.8204 36.4587 20.7218 36.3184C20.5702 36.1018 20.6099 35.8059 20.8113 35.637L23.3973 33.4679L20.3628 35.2201C20.135 35.3543 19.8421 35.2872 19.6916 35.0716C19.5411 34.856 19.5808 34.5591 19.7831 34.3903L23.2987 31.4615L20.3546 33.1608C20.1238 33.2961 19.8269 33.2259 19.6784 33.0042C19.5299 32.7825 19.5777 32.4825 19.7892 32.3188L25.2949 28.0639L20.3465 30.9205C20.1096 31.0588 19.8086 30.9835 19.6621 30.7517C19.5157 30.5208 19.5787 30.2168 19.8045 30.0612L20.1747 29.807C19.9804 29.8395 19.773 29.7561 19.6601 29.5792C19.5126 29.3493 19.5726 29.0473 19.7953 28.8897L20.6282 28.3009L20.3374 28.4687C20.1065 28.6029 19.8106 28.5348 19.6631 28.3151C19.5136 28.0944 19.5584 27.7955 19.7679 27.6307L23.1034 24.9857L19.0703 27.3134C18.8394 27.4477 18.5455 27.3785 18.395 27.1599C18.2465 26.9392 18.2913 26.6402 18.5008 26.4755L21.8719 23.807L15.9035 27.2534C15.6717 27.3887 15.3737 27.3175 15.2252 27.0948C15.0768 26.87 15.1286 26.569 15.3422 26.4073L19.5553 23.2254L15.9361 25.3152C15.7052 25.4504 15.4083 25.3802 15.2598 25.1585C15.1113 24.9369 15.1591 24.6358 15.3707 24.4731L19.8757 20.9993C19.7699 20.9678 19.6753 20.9017 19.6072 20.8071C19.4557 20.5925 19.4923 20.2986 19.6906 20.1278L22.3855 17.8142C22.3112 17.5895 22.4017 17.3353 22.6143 17.2132L24.097 16.357C24.3207 16.2248 24.6146 16.2878 24.7661 16.5034C24.9176 16.718 24.881 17.0119 24.6817 17.1827L24.4926 17.3454L25.0061 17.0495C25.237 16.9153 25.5339 16.9834 25.6824 17.2061C25.8308 17.4288 25.783 17.7288 25.5715 17.8915L22.0265 20.6251L26.1797 18.2281C26.4095 18.0919 26.7095 18.1631 26.8579 18.3868C27.0054 18.6115 26.9546 18.9115 26.741 19.0742L22.5309 22.2532L27.3918 19.4464C27.6206 19.3102 27.9176 19.3793 28.0671 19.6C28.2156 19.8207 28.1708 20.1196 27.9613 20.2844L24.5871 22.9559L28.5867 20.6464C28.8155 20.5112 29.1125 20.5793 29.261 20.8C29.4105 21.0206 29.3657 21.3196 29.1562 21.4844L25.8217 24.1294L29.7796 21.8444C30.0135 21.7061 30.3155 21.7813 30.462 22.0101C30.6094 22.2399 30.5494 22.542 30.3267 22.6996L29.4928 23.2884L30.5881 22.6569C30.826 22.5186 31.127 22.5949 31.2725 22.8257C31.4189 23.0565 31.3558 23.3606 31.1301 23.5162L31.0864 23.5457L31.3314 23.4043C31.5623 23.2691 31.8592 23.3392 32.0077 23.5609C32.1562 23.7826 32.1084 24.0826 31.8969 24.2464L26.3942 28.4992L27.9298 27.6134C28.1586 27.4802 28.4505 27.5463 28.601 27.7619C28.7515 27.9775 28.7118 28.2744 28.5094 28.4432L24.9929 31.373L27.9298 29.6778C28.1586 29.5446 28.4484 29.6107 28.6 29.8263C28.7515 30.0429 28.7118 30.3388 28.5105 30.5076L25.9244 32.6767L27.9298 31.5195C28.1474 31.3924 28.4291 31.4473 28.5857 31.6466C28.7413 31.8469 28.7261 32.1327 28.5491 32.3137L27.1468 33.7557L27.9308 33.3042C28.1271 33.1893 28.3762 33.2218 28.54 33.3794C28.7027 33.5381 28.7403 33.7852 28.6325 33.9855L28.1718 34.8398C28.3335 34.852 28.4861 34.9415 28.5725 35.092C28.7139 35.335 28.6305 35.6462 28.3864 35.7865L27.2068 36.4679C27.0105 36.5828 26.7613 36.5533 26.5976 36.3926C26.4349 36.234 26.3973 35.9869 26.5051 35.7865L26.8844 35.0828L24.4844 36.4679C24.2668 36.596 23.9861 36.5411 23.8285 36.3397C23.6729 36.1404 23.6882 35.8547 23.8651 35.6737L25.2664 34.2327L21.3929 36.4679C21.3136 36.5147 21.2251 36.536 21.1387 36.536L21.1377 36.535Z" fill="#FF584A"/>
<path d="M21.7529 44.6949C21.6004 44.6949 21.4489 44.6257 21.3502 44.4966C21.1957 44.2942 21.2129 44.0085 21.3929 43.8274L23.7146 41.4997L20.3567 43.438C20.1401 43.563 19.8635 43.5132 19.7058 43.3169C19.5492 43.1227 19.5574 42.841 19.7262 42.6559L21.0401 41.2119L20.3567 41.6065C20.1574 41.7244 19.9021 41.6878 19.7394 41.5221C19.5767 41.3553 19.5482 41.101 19.6692 40.9027L20.0282 40.3129C19.9011 40.2804 19.7882 40.198 19.717 40.076C19.5757 39.8329 19.6591 39.5217 19.9031 39.3814L21.0838 38.7001C21.2841 38.5821 21.5373 38.6177 21.7011 38.7845C21.8638 38.9512 21.8923 39.2065 21.7712 39.4038L21.5729 39.7302L23.3597 38.699C23.5743 38.5729 23.8499 38.6228 24.0105 38.8201C24.1671 39.0143 24.159 39.296 23.9902 39.4811L22.6753 40.9251L26.5335 38.699C26.7532 38.5709 27.0359 38.6268 27.1905 38.8292C27.3451 39.0316 27.3278 39.3173 27.1478 39.4984L24.8261 41.8251L27.9257 40.0363C28.1393 39.9102 28.4159 39.9611 28.5755 40.1563C28.7322 40.3505 28.725 40.6312 28.5572 40.8163L27.3776 42.1251L27.9389 41.8017C28.1179 41.698 28.3376 41.7122 28.5013 41.8363C28.664 41.9604 28.7362 42.1698 28.6864 42.3681L28.4179 43.4064C28.5105 43.4491 28.5918 43.5193 28.6467 43.6149C28.7881 43.858 28.7047 44.1691 28.4606 44.3095L27.9512 44.6034C27.7712 44.7061 27.5505 44.6918 27.3888 44.5688C27.2261 44.4447 27.1539 44.2352 27.2037 44.0369L27.3969 43.2895L25.0997 44.6156C24.8841 44.7417 24.6075 44.6908 24.4498 44.4956C24.2932 44.3013 24.3004 44.0207 24.4682 43.8356L25.6478 42.5268L22.0072 44.6278C21.9278 44.6746 21.8404 44.6949 21.7529 44.6949Z" fill="#FF584A"/>
<path d="M13.9757 59.9244C13.8069 59.9244 13.6421 59.84 13.5455 59.6885C13.3991 59.4566 13.4621 59.1536 13.6869 58.998L16.5241 57.0384L11.6428 59.8563C11.4099 59.9936 11.1069 59.9193 10.9605 59.6905C10.813 59.4607 10.873 59.1577 11.0957 59.001L14.8258 56.3713L9.77471 59.2868C9.54082 59.4251 9.23777 59.3499 9.09235 59.121C8.9449 58.8922 9.0049 58.5892 9.22659 58.4316L12.256 56.2909L9.18489 58.0634C8.95201 58.1977 8.65507 58.1285 8.5066 57.9038C8.35812 57.679 8.40999 57.378 8.62558 57.2173L11.6123 54.974L9.16862 56.3855C8.93981 56.5187 8.64592 56.4526 8.49541 56.234C8.34592 56.0153 8.38863 55.7184 8.59507 55.5506L10.5344 53.9784L9.16862 54.7655C8.9449 54.8987 8.65507 54.8357 8.50049 54.6211C8.34897 54.4076 8.38355 54.1137 8.57982 53.9418L9.22862 53.3764L9.21235 53.3855C8.99574 53.5137 8.71507 53.4598 8.55846 53.2594C8.40185 53.0611 8.41507 52.7774 8.58897 52.5954L10.4398 50.6541C10.4266 50.4659 10.5191 50.2788 10.693 50.1781L11.2025 49.8842C11.4191 49.7571 11.6998 49.81 11.8564 50.0103C12.013 50.2086 11.9998 50.4924 11.8259 50.6744L11.7638 50.7385L13.2496 49.8812C13.4753 49.749 13.7641 49.812 13.9177 50.0256C14.0692 50.2391 14.0347 50.533 13.8384 50.7049L13.1936 51.2662L15.5977 49.8791C15.8265 49.7449 16.1204 49.812 16.2709 50.0307C16.4204 50.2493 16.3777 50.5463 16.1712 50.714L14.233 52.2862L18.4075 49.8761C18.6383 49.7398 18.9373 49.81 19.0858 50.0358C19.2342 50.2605 19.1824 50.5615 18.9668 50.7222L15.979 52.9666L21.3393 49.872C21.5752 49.7347 21.8752 49.809 22.0217 50.0378C22.1691 50.2666 22.1091 50.5696 21.8874 50.7273L18.862 52.8659L24.0525 49.87C24.2864 49.7327 24.5884 49.8069 24.7348 50.0358C24.8823 50.2656 24.8223 50.5686 24.5996 50.7252L20.8654 53.3581L26.9121 49.8669C27.1501 49.7297 27.4511 49.8059 27.5965 50.0347C27.7429 50.2666 27.6799 50.5696 27.4551 50.7252L24.6189 52.6849L29.5043 49.8649C29.7422 49.7246 30.0463 49.8019 30.1907 50.0368C30.3361 50.2707 30.268 50.5768 30.0402 50.7293L29.9883 50.7629L31.5493 49.8619C31.7822 49.7256 32.0812 49.7988 32.2286 50.0225C32.3771 50.2483 32.3232 50.5493 32.1066 50.71L26.9121 54.5682L35.071 49.8578C35.3018 49.7215 35.6008 49.7927 35.7493 50.0164C35.8977 50.2402 35.8469 50.5412 35.6323 50.7029L30.1022 54.8865L37.0977 50.8483C37.3306 50.712 37.6306 50.7842 37.778 51.01C37.9255 51.2357 37.8706 51.5388 37.653 51.6984L34.1049 54.2967L38.6679 51.6629C38.8997 51.5256 39.1997 51.5998 39.3482 51.8256C39.4967 52.0513 39.4407 52.3544 39.2221 52.514L36.9187 54.191L39.1041 52.9299C39.337 52.7937 39.636 52.8659 39.7845 53.0927C39.9329 53.3194 39.877 53.6215 39.6584 53.7801L39.0106 54.254L39.1041 54.2001C39.3278 54.0689 39.6167 54.1309 39.7702 54.3425C39.9228 54.553 39.8912 54.8448 39.697 55.0187L38.017 56.5238L39.1041 55.8963C39.3075 55.7763 39.5678 55.817 39.7285 55.9879C39.8902 56.1608 39.9126 56.4211 39.7824 56.6174L38.9262 57.9078C39.1519 57.8234 39.4194 57.9109 39.5445 58.1295C39.6858 58.3726 39.6024 58.6838 39.3584 58.8241L37.5665 59.8583C37.3621 59.9783 37.1028 59.9366 36.9421 59.7668C36.7804 59.5939 36.7581 59.3336 36.8882 59.1373L37.7353 57.8611L34.2757 59.8583C34.053 59.9905 33.7632 59.9285 33.6096 59.716C33.4571 59.5054 33.4886 59.2136 33.6818 59.0397L35.3638 57.5336L31.3368 59.8583C31.1049 59.9946 30.8059 59.9234 30.6564 59.6956C30.508 59.4688 30.5639 59.1668 30.7825 59.0082L31.4283 58.5363L29.1371 59.8583C28.9043 59.9946 28.6053 59.9214 28.4568 59.6956C28.3083 59.4699 28.3643 59.1668 28.5829 59.0072L30.8853 57.3302L26.5053 59.8583C26.2735 59.9946 25.9735 59.9234 25.825 59.6966C25.6775 59.4699 25.7325 59.1678 25.9501 59.0082L29.4992 56.4089L23.5237 59.8583C23.2918 59.9936 22.9938 59.9224 22.8454 59.6997C22.6969 59.477 22.7477 59.1749 22.9623 59.0133L28.4914 54.8296L19.7813 59.8583C19.5495 59.9946 19.2505 59.9224 19.102 59.6977C18.9536 59.4729 19.0075 59.1709 19.2241 59.0102L24.4186 55.152L16.2658 59.8583C16.0268 59.9956 15.7228 59.9204 15.5794 59.6865C15.434 59.4526 15.5021 59.1465 15.7299 58.9939L15.7828 58.9594L14.2258 59.8583C14.1455 59.9051 14.058 59.9265 13.9716 59.9265L13.9757 59.9244Z" fill="#15EC88"/>
<path d="M28.2136 51.7891C28.0448 51.7891 27.881 51.7047 27.7834 51.5532C27.638 51.3224 27.7 51.0183 27.9248 50.8627L28.3559 50.5637L26.3516 51.721C26.1187 51.8583 25.8156 51.784 25.6692 51.5552C25.5217 51.3254 25.5817 51.0224 25.8045 50.8658L28.0702 49.2681L23.8204 51.721C23.5906 51.8552 23.2926 51.7861 23.1452 51.5664C22.9957 51.3447 23.0425 51.0457 23.2519 50.881L27.9115 47.2231L20.1198 51.721C19.89 51.8562 19.591 51.7871 19.4435 51.5644C19.2951 51.3427 19.3428 51.0427 19.5544 50.879L24.037 47.4112L16.5697 51.721C16.3337 51.8583 16.0327 51.784 15.8863 51.5542C15.7399 51.3244 15.8009 51.0203 16.0246 50.8637L17.8256 49.6078L14.1646 51.721C13.9287 51.8603 13.6277 51.784 13.4802 51.5522C13.3338 51.3203 13.3979 51.0163 13.6236 50.8617L14.5328 50.2393L11.965 51.721C11.7341 51.8562 11.4382 51.7871 11.2887 51.5654C11.1403 51.3437 11.187 51.0447 11.3975 50.88L15.9951 47.2912L9.61689 50.9735C9.38401 51.1088 9.08198 51.0366 8.93554 50.8098C8.78809 50.581 8.84605 50.279 9.06571 50.1203L10.9674 48.7536L9.17452 49.7888C8.94469 49.9231 8.64877 49.8549 8.49928 49.6353C8.3508 49.4146 8.39555 49.1156 8.60504 48.9498L10.9094 47.1275L9.16944 48.1312C8.95385 48.2573 8.67826 48.2065 8.51962 48.0112C8.36097 47.816 8.37013 47.5353 8.53894 47.3502L10.4243 45.2685L9.17045 45.9926C8.95791 46.1167 8.68538 46.0679 8.52572 45.8797C8.36809 45.6896 8.36809 45.414 8.52572 45.2248L9.00978 44.6523C8.91012 44.6106 8.82266 44.5374 8.76571 44.4367C8.62436 44.1936 8.70775 43.8825 8.95181 43.7421L10.6359 42.7699C10.8474 42.6449 11.1199 42.6947 11.2806 42.8828C11.4382 43.073 11.4382 43.3486 11.2806 43.5377L11.1758 43.6608L12.7226 42.7679C12.9372 42.6408 13.2138 42.6916 13.3724 42.8879C13.5301 43.0832 13.5219 43.3638 13.3531 43.5489L11.4677 45.6306L16.4283 42.7679C16.6561 42.6326 16.9531 42.7018 17.1036 42.9215C17.252 43.1421 17.2073 43.4411 16.9978 43.6069L14.6955 45.4272L19.3032 42.7679C19.5361 42.6296 19.8381 42.7048 19.9845 42.9316C20.132 43.1604 20.074 43.4625 19.8544 43.6211L17.9507 44.9889L21.7977 42.7679C22.0276 42.6326 22.3245 42.7028 22.474 42.9235C22.6225 43.1452 22.5757 43.4442 22.3652 43.6089L17.7676 47.1977L25.4434 42.7679C25.6804 42.6316 25.9814 42.7059 26.1278 42.9367C26.2743 43.1686 26.2102 43.4726 25.9844 43.6272L25.0753 44.2496L27.6431 42.7679C27.879 42.6306 28.18 42.7049 28.3265 42.9347C28.4729 43.1645 28.4119 43.4686 28.1881 43.6252L26.3872 44.8811L30.0481 42.7679C30.2779 42.6326 30.5769 42.7018 30.7244 42.9245C30.8729 43.1462 30.8251 43.4462 30.6135 43.6099L26.1309 47.0777L33.5982 42.7679C33.8281 42.6326 34.124 42.7028 34.2735 42.9225C34.423 43.1442 34.3762 43.4431 34.1667 43.6079L29.5091 47.2648L37.2755 42.7811C37.5084 42.6438 37.8114 42.7181 37.9578 42.9469C38.1053 43.1767 38.0453 43.4798 37.8226 43.6364L35.5548 45.236L38.6199 43.4676C38.8578 43.3303 39.1568 43.4055 39.3043 43.6353C39.4507 43.8662 39.3876 44.1703 39.1629 44.3258L38.7277 44.6279L39.0785 44.4255C39.3053 44.2933 39.5971 44.3574 39.7476 44.5719C39.8992 44.7865 39.8626 45.0804 39.6632 45.2523L36.3307 48.1119L39.109 46.5082C39.3348 46.376 39.6256 46.439 39.7771 46.6536C39.9287 46.8661 39.8941 47.16 39.6968 47.3319L38.69 48.2075L39.109 47.9665C39.3134 47.8465 39.5748 47.8882 39.7365 48.061C39.8971 48.236 39.9165 48.4993 39.7822 48.6946L39.0216 49.8031C39.2138 49.7919 39.409 49.8763 39.5117 50.0553C39.6531 50.2983 39.5697 50.6095 39.3256 50.7498L37.6436 51.722C37.4392 51.842 37.1778 51.8013 37.0162 51.6274C36.8555 51.4525 36.8351 51.1891 36.9704 50.9939L37.6741 49.9688L34.6325 51.724C34.4057 51.8573 34.1148 51.7932 33.9643 51.5786C33.8128 51.3661 33.8474 51.0722 34.0447 50.9003L35.0494 50.0258L32.1074 51.724C31.8806 51.8573 31.5898 51.7932 31.4383 51.5776C31.2867 51.363 31.3234 51.0691 31.5227 50.8973L34.8552 48.0377L28.4688 51.724C28.3885 51.7708 28.301 51.7922 28.2146 51.7922L28.2136 51.7891Z" fill="#15EC88"/>
<path d="M47.6147 24.7598C49.6364 19.7972 46.8947 14.5498 42.5494 12.0146C41.6687 -1.29708 22.228 -4.28992 16.7203 7.58279C12.8966 6.41433 8.38241 8.74514 8.09564 12.9959C2.02352 14.1603 -2.05744 20.7379 1.08896 26.569C4.63704 33.3377 13.0735 31.1319 19.3277 31.4624C18.266 37.8366 21.9463 36.4871 26.6496 36.4871C29.6496 36.6844 28.8838 33.4404 28.9387 31.4624C35.7044 31.493 44.7358 32.6116 47.6147 24.7598ZM27.2537 35.6268C24.1449 35.2526 19.7985 37.2834 20.8043 32.3553C20.4697 27.1567 22.6164 25.9822 16.2403 26.4754C14.3864 25.012 22.0297 19.9507 23.0436 18.1477C23.3608 17.9067 23.79 17.0667 24.1541 17.324C26.8215 19.9121 29.4279 22.6822 32.1004 25.309C32.2997 25.5225 32.8885 26.3879 32.3983 26.4754C30.877 26.7449 28.5879 25.852 27.4652 26.994C27.2679 29.7672 27.8516 33.0997 27.2547 35.6278L27.2537 35.6268ZM39.9643 30.2584C36.3542 30.8594 32.5885 30.3214 28.9397 30.4821V27.3347C40.3782 28.2794 28.3001 20.1775 25.6266 16.845C23.7646 15.1417 21.7571 17.986 20.5694 19.1789C17.5165 22.4138 9.39935 28.3496 19.3287 27.3398V30.4821C14.5562 30.0916 9.14715 31.6648 4.92687 28.8489C-1.76964 23.3605 2.03573 14.8905 9.55189 13.2797C9.55189 9.62174 13.1183 7.11703 16.5016 8.73396C16.8759 8.91294 17.5826 8.82853 17.7738 8.39328C20.1544 2.96489 26.0191 -0.188626 31.8512 1.35305C37.3539 2.72998 40.5481 7.66719 41.263 12.9644C48.9896 16.1616 48.2971 28.4371 39.9643 30.2584Z" fill="#262626"/>
<path d="M8.16967 53.0875C6.33207 62.6192 13.9418 59.4128 20.1034 59.9274C25.8267 59.9253 31.5571 59.9314 37.2774 59.9243C41.0431 59.8308 41.1478 52.9003 38.9065 51.197C40.7563 49.8984 40.1085 46.8526 40.1167 44.8462C39.0021 40.8975 32.1185 43.4134 28.9446 42.7401C29.0158 40.8273 29.3524 38.2534 26.6097 38.8219C23.2467 39.0172 18.2109 37.4958 19.3346 42.7401C15.8821 43.3859 9.82829 40.8781 8.17374 44.9652C8.12696 46.8445 7.48019 50.3926 9.40932 51.3424C8.78594 51.7146 8.30798 52.2882 8.16967 53.0875ZM20.6119 39.3924C20.742 39.3955 20.8742 39.3934 21.0054 39.3924C21.0624 39.1819 21.3919 39.2368 21.098 39.3924C24.2789 39.7646 28.4524 37.7521 27.4762 42.7412H20.8081C20.921 41.6551 20.559 40.4093 20.9932 39.4087C20.9007 39.4178 20.7837 39.4178 20.6119 39.3924ZM9.62287 48.8113C9.38491 45.2693 9.23847 42.7839 13.6855 43.6106H30.6693C33.2554 44.0144 38.8628 41.9836 38.6553 46.1337C38.6553 47.2401 39.174 50.5644 37.5754 50.8604C33.292 49.8373 8.96797 53.1251 9.62287 48.8113ZM12.0656 51.7451C16.1302 52.8119 40.4614 49.274 38.6513 54.2529C38.6513 55.4244 39.1994 58.8067 37.4533 58.9653H25.425C20.7847 58.9653 16.0774 59.2013 11.4422 58.9653C8.71373 58.7599 9.76829 55.1549 9.62694 53.2929C9.72965 51.8651 10.9591 51.68 12.0656 51.7451Z" fill="#262626"/>
<path d="M21.0044 39.3926C21.0003 39.3977 20.9963 39.4038 20.9922 39.4089C21.0318 39.4048 21.0695 39.4007 21.0969 39.3926C21.0664 39.3926 21.0349 39.3926 21.0044 39.3926Z" fill="#262626"/>
<path d="M13.4869 47.5472C13.8916 47.5248 14.5476 47.4597 14.7174 47.0459C14.333 46.7835 13.4259 47.0214 13.2266 47.4404C13.2794 47.5299 13.3893 47.5452 13.4869 47.5472Z" fill="#262626"/>
<path d="M17.4396 47.5778C17.8067 47.7608 19.1674 47.3897 18.6416 46.9087C18.2745 46.7256 16.9138 47.0968 17.4396 47.5778Z" fill="#262626"/>
<path d="M27.7711 47.719C28.4687 47.7363 29.6585 48.018 29.9636 47.179C29.8954 46.1835 26.4704 46.7804 27.7711 47.719Z" fill="#262626"/>
<path d="M32.6919 47.5443C33.3468 47.532 34.8895 47.8046 35.0024 46.9849C34.4604 46.8619 32.3584 46.7612 32.6919 47.5443Z" fill="#262626"/>
<path d="M13.3907 55.7856C13.7425 55.9788 14.2317 55.8872 14.5256 55.6269C15.5028 54.4656 12.4846 54.8073 13.3907 55.7856Z" fill="#262626"/>
<path d="M17.4453 55.7193C17.8968 55.8505 18.5456 55.7102 18.7876 55.278C18.7683 54.5967 16.8158 55.2078 17.4453 55.7193Z" fill="#262626"/>
<path d="M28.6209 55.6889C28.9657 55.7977 30.4992 55.3167 29.6979 55.0685C28.6393 54.7919 26.0969 55.7448 28.6209 55.6889Z" fill="#262626"/>
<path d="M33.7032 55.6838C34.0428 55.7896 35.5774 55.3117 34.7822 55.0737C33.7306 54.8032 31.1832 55.7428 33.7032 55.6838Z" fill="#262626"/>
</svg>
