<svg width="41" height="41" viewBox="0 0 41 41" fill="none" xmlns="http://www.w3.org/2000/svg">
<path d="M12.401 39.6995C18.8594 39.6995 24.0949 34.4635 24.0949 28.0046C24.0949 21.5456 18.8594 16.3096 12.401 16.3096C5.9426 16.3096 0.707031 21.5456 0.707031 28.0046C0.707031 34.4635 5.9426 39.6995 12.401 39.6995Z" fill="#F5F8F9"/>
<path d="M27.9033 23.2405C34.1774 23.2405 39.2636 18.1539 39.2636 11.8793C39.2636 5.60467 34.1774 0.518066 27.9033 0.518066C21.6291 0.518066 16.543 5.60467 16.543 11.8793C16.543 18.1539 21.6291 23.2405 27.9033 23.2405Z" fill="#F5F8F9"/>
<path d="M27.8236 16.6337C30.1532 16.6337 32.0417 14.745 32.0417 12.4152C32.0417 10.0854 30.1532 8.19678 27.8236 8.19678C25.494 8.19678 23.6055 10.0854 23.6055 12.4152C23.6055 14.745 25.494 16.6337 27.8236 16.6337Z" fill="#F5F8F9"/>
<path d="M34.1969 11.4717C34.1969 11.2609 34.0266 11.0906 33.8157 11.0906L33.3487 11.0533C33.2635 11.0533 33.1873 10.9973 33.1654 10.9146C33.0414 10.4597 32.9375 9.8993 32.7089 9.49787C32.6667 9.42403 32.6805 9.33084 32.7405 9.27078L33.2092 8.80204C33.3576 8.65367 33.3576 8.41281 33.2092 8.26357L31.8801 6.93521C31.7317 6.78598 31.4901 6.78598 31.3409 6.93521L30.8754 7.40072C30.8155 7.4607 30.7222 7.47448 30.6476 7.43236C30.247 7.20292 29.8148 7.02204 29.3599 6.89798C29.278 6.87524 29.2221 6.79983 29.2221 6.71474V6.05222C29.2221 5.84221 29.0509 5.67188 28.8409 5.67188H26.9621C26.7513 5.67188 26.581 5.84221 26.581 6.05222V6.71151C26.581 6.79668 26.5243 6.87287 26.4423 6.89476C25.9874 7.01802 25.5552 7.19804 25.1538 7.42756C25.08 7.46975 24.9868 7.45511 24.9267 7.39513L24.4581 6.92719C24.3097 6.77795 24.0688 6.77795 23.9197 6.92719L22.5915 8.25633C22.4422 8.4047 22.4422 8.64643 22.5915 8.7948L23.0569 9.2611C23.1169 9.32108 23.1307 9.41435 23.0885 9.48818C22.8591 9.88875 22.6782 10.321 22.5542 10.776C22.5315 10.8579 22.4561 10.9138 22.3709 10.9138H21.7084C21.4984 10.9138 21.3281 11.085 21.3281 11.295V13.1748C21.3281 13.3848 21.4984 13.5551 21.7084 13.5551H22.3676C22.4528 13.5551 22.529 13.6119 22.5508 13.6938C22.6741 14.1496 22.8541 14.5818 23.0828 14.9832C23.1233 15.0537 23.112 15.1421 23.0577 15.2022C23.0577 15.2022 23.0707 15.2841 23.0682 15.2866L22.8315 15.6652C22.6831 15.8145 22.6831 16.0561 22.8315 16.2045L23.9667 17.3399C24.116 17.4882 24.3568 17.4882 24.5051 17.3399L24.9714 16.8736C25.0323 16.8127 25.1255 16.7989 25.1993 16.8419C25.5999 17.0714 26.105 17.2871 26.5608 17.4113C26.6427 17.434 26.6978 17.5094 26.6978 17.5945V18.257C26.6978 18.467 26.869 18.6381 27.079 18.6381L28.6878 18.7379C28.8978 18.7379 29.0689 18.5675 29.0689 18.3568V17.6975C29.0689 17.6123 29.1249 17.5369 29.2067 17.5142C29.6625 17.3909 30.2487 17.1387 30.6493 16.9092C30.723 16.867 30.8163 16.8808 30.8764 16.9409L31.345 17.4096C31.4934 17.5588 31.7343 17.5588 31.8834 17.4096L33.0503 16.2273C33.1986 16.078 33.1986 15.8372 33.0503 15.6888L32.5832 15.2225C32.5232 15.1616 32.5093 15.0684 32.5515 14.9946C32.7819 14.594 32.9724 14.0782 33.0973 13.6225C33.1199 13.5406 33.1953 13.4847 33.2805 13.4847H33.943C34.153 13.4847 34.3234 13.3143 34.3234 13.1043L34.1969 11.4717ZM29.8927 14.2371C28.7899 15.34 27.0027 15.34 25.8999 14.2371C24.7972 13.1342 24.7972 11.3468 25.8999 10.244C27.0028 9.14106 28.7899 9.14106 29.8927 10.244C30.9955 11.3468 30.9955 13.1342 29.8927 14.2371Z" fill="#15EC88"/>
<path d="M12.3314 32.4564C14.661 32.4564 16.5496 30.5678 16.5496 28.238C16.5496 25.9082 14.661 24.0195 12.3314 24.0195C10.0018 24.0195 8.11328 25.9082 8.11328 28.238C8.11328 30.5678 10.0018 32.4564 12.3314 32.4564Z" fill="#F5F8F9"/>
<path d="M18.7047 27.295C18.7047 27.0841 18.5344 26.9139 18.3236 26.9139L17.8565 26.8766C17.7713 26.8766 17.6951 26.8206 17.6732 26.7379C17.5492 26.2829 17.4454 25.7225 17.2167 25.3211C17.1745 25.2473 17.1884 25.1541 17.2483 25.094L17.717 24.6253C17.8654 24.4769 17.8654 24.2361 17.717 24.0868L16.3879 22.7585C16.2396 22.6092 15.9979 22.6092 15.8487 22.7585L15.3832 23.224C15.3233 23.2839 15.23 23.2977 15.1554 23.2556C14.7548 23.0262 14.3226 22.8453 13.8677 22.7212C13.7858 22.6985 13.7299 22.6231 13.7299 22.538V21.8755C13.7299 21.6655 13.5588 21.4951 13.3488 21.4951H11.47C11.2591 21.4951 11.0888 21.6655 11.0888 21.8755V22.5348C11.0888 22.6199 11.0321 22.6961 10.9501 22.718C10.4953 22.8413 10.063 23.0213 9.66161 23.2508C9.58786 23.293 9.49458 23.2784 9.43453 23.2184L8.96587 22.7504C8.8175 22.6012 8.57664 22.6012 8.42748 22.7504L7.09928 24.0796C6.95004 24.2279 6.95004 24.4697 7.09928 24.618L7.56471 25.0843C7.62468 25.1443 7.63854 25.2376 7.59635 25.3114C7.3669 25.712 7.18602 26.1443 7.06197 26.5992C7.0393 26.6812 6.96389 26.7371 6.87872 26.7371H6.2162C6.00619 26.7371 5.83594 26.9082 5.83594 27.1182V28.998C5.83594 29.208 6.00619 29.3784 6.2162 29.3784H6.87542C6.96059 29.3784 7.03678 29.4351 7.05866 29.517C7.18193 29.9728 7.36194 30.405 7.5906 30.8064C7.63114 30.877 7.6198 30.9654 7.56549 31.0254C7.56549 31.0254 7.57848 31.1074 7.57604 31.1098L7.33927 31.4885C7.1909 31.6377 7.1909 31.8794 7.33927 32.0278L8.47455 33.1631C8.62371 33.3115 8.86457 33.3115 9.01294 33.1631L9.47924 32.6968C9.54008 32.636 9.63328 32.6222 9.70711 32.6652C10.1077 32.8947 10.6129 33.1104 11.0686 33.2345C11.1505 33.2572 11.2056 33.3326 11.2056 33.4177V34.0803C11.2056 34.2903 11.3768 34.4614 11.5868 34.4614L13.1956 34.5611C13.4056 34.5611 13.5767 34.3908 13.5767 34.18V33.5207C13.5767 33.4355 13.6327 33.3601 13.7145 33.3375C14.1703 33.2142 14.7565 32.962 15.1571 32.7325C15.2309 32.6903 15.3241 32.704 15.3842 32.7641L15.8528 33.2328C16.0012 33.3821 16.2421 33.3821 16.3912 33.2328L17.5581 32.0505C17.7064 31.9013 17.7064 31.6604 17.5581 31.512L17.091 31.0457C17.031 30.9849 17.0172 30.8917 17.0594 30.8179C17.2897 30.4173 17.4802 29.9015 17.6051 29.4457C17.6277 29.3638 17.7031 29.3079 17.7883 29.3079H18.4508C18.6608 29.3079 18.8312 29.1376 18.8312 28.9276L18.7047 27.295ZM14.4005 30.0603C13.2977 31.1632 11.5105 31.1632 10.4077 30.0603C9.30497 28.9574 9.30497 27.1701 10.4077 26.0672C11.5106 24.9643 13.2977 24.9643 14.4005 26.0672C15.5033 27.1701 15.5033 28.9574 14.4005 30.0603Z" fill="#15EC88"/>
<path d="M31.3715 20.888L31.201 20.0988C31.1703 19.9566 30.9825 19.9237 30.9052 20.0468L29.0248 23.0438C28.9556 23.154 28.9854 23.2992 29.0925 23.3732L32.0033 25.3869C32.1227 25.4695 32.2822 25.3655 32.2548 25.2229L32.0832 24.3296C32.0607 24.2126 32.1267 24.0976 32.2384 24.0558C33.8522 23.4525 35.3656 22.5019 36.6633 21.2041C41.5136 16.3533 41.5136 8.48882 36.6633 3.63806C31.813 -1.21269 23.9491 -1.21269 19.0988 3.63806C14.2485 8.48874 14.2485 16.3533 19.0988 21.2041C22.819 24.9246 22.787 30.9766 19.003 34.6571C15.3558 38.2045 9.48434 38.2045 5.83711 34.6571C2.05307 30.9766 2.02112 24.9246 5.74132 21.2041C6.58118 20.3641 7.44553 19.756 8.45793 19.3032C8.566 19.2549 8.69312 19.2892 8.76011 19.3868L9.31905 20.2019C9.40091 20.3213 9.58636 20.2817 9.61233 20.1392L10.2475 16.6539C10.2708 16.5259 10.1893 16.4022 10.0624 16.3732L6.60826 15.5824C6.46729 15.5501 6.35772 15.7046 6.43486 15.827L6.84629 16.4797C6.92256 16.6007 6.87864 16.7618 6.75073 16.8259C5.6027 17.4019 4.60541 18.1325 3.63772 19.1003C-1.21256 23.951 -1.21256 31.8155 3.63764 36.6662C8.48335 41.5125 16.3566 41.5125 21.2023 36.6662C26.0525 31.8155 26.0525 23.951 21.2022 19.1003C17.482 15.3798 17.5139 9.32781 21.298 5.64729C24.9453 2.09986 30.8167 2.09986 34.4639 5.64729C38.248 9.32781 38.2799 15.3798 34.5597 19.1003C33.712 19.9481 32.7432 20.6011 31.709 21.0592C31.5677 21.1217 31.4042 21.0392 31.3715 20.888Z" fill="#478CFF"/>
</svg>
