<svg width="61" height="61" viewBox="0 0 61 61" fill="none" xmlns="http://www.w3.org/2000/svg">
<path d="M21.3527 7.32891C21.2459 7.32891 21.1418 7.2953 21.0551 7.23284C20.9685 7.17038 20.9036 7.08224 20.8699 6.9809C20.8361 6.87956 20.8351 6.77015 20.8669 6.66819C20.8988 6.56623 20.9619 6.47687 21.0473 6.41278L23.5189 4.52757C23.4514 4.48352 23.3953 4.42424 23.355 4.35452C23.2875 4.23762 23.2692 4.0987 23.3041 3.96832C23.3391 3.83793 23.4244 3.72677 23.5413 3.65927L28.1555 0.995348C28.2675 0.932028 28.3992 0.913408 28.5242 0.943231C28.6493 0.973054 28.7585 1.04911 28.8298 1.15611C28.9011 1.26311 28.9292 1.39313 28.9086 1.52004C28.8879 1.64695 28.82 1.76134 28.7185 1.84023L27.9662 2.41434L31.7 0.258366C31.7579 0.224419 31.8219 0.202262 31.8884 0.193168C31.9549 0.184075 32.0226 0.188227 32.0875 0.205383C32.1524 0.22254 32.2132 0.252363 32.2665 0.293135C32.3199 0.333908 32.3646 0.384824 32.3982 0.442954C32.4317 0.501083 32.4535 0.565277 32.4621 0.631839C32.4708 0.698402 32.4662 0.766018 32.4486 0.830796C32.431 0.895573 32.4008 0.956232 32.3596 1.00928C32.3185 1.06233 32.2673 1.10672 32.2089 1.13989L21.6062 7.26071C21.5291 7.30521 21.4417 7.32873 21.3527 7.32891Z" fill="#478CFF"/>
<path d="M15.5175 38.7642C15.4071 38.7643 15.2996 38.7285 15.2114 38.6622C15.1231 38.5959 15.0588 38.5027 15.0281 38.3967C14.9974 38.2906 15.0021 38.1775 15.0413 38.0743C15.0806 37.9711 15.1523 37.8835 15.2457 37.8246L29.6484 28.7579L12.4341 38.6929C12.3193 38.7536 12.1857 38.7681 12.0605 38.7334C11.9354 38.6988 11.8282 38.6176 11.761 38.5065C11.6937 38.3954 11.6715 38.2628 11.6988 38.1359C11.7261 38.0089 11.8009 37.8972 11.9079 37.8236L29.1017 26.9226L9.02815 38.5128C8.91233 38.5821 8.77369 38.6027 8.64274 38.5699C8.51178 38.537 8.39923 38.4535 8.32985 38.3377C8.26046 38.2219 8.23993 38.0832 8.27277 37.9523C8.3056 37.8213 8.38911 37.7088 8.50493 37.6394L19.9159 30.5658L7.11851 37.9539C7.00326 38.0198 6.86685 38.038 6.73835 38.0047C6.60986 37.9715 6.49944 37.8893 6.43066 37.7758C6.36188 37.6622 6.34018 37.5263 6.37017 37.397C6.40016 37.2677 6.47949 37.1553 6.59122 37.0836L26.2169 24.6292L5.07349 36.8362C4.95862 36.8925 4.82679 36.9034 4.70422 36.8669C4.58165 36.8304 4.47733 36.749 4.41202 36.6391C4.34671 36.5291 4.32519 36.3986 4.35175 36.2735C4.37831 36.1483 4.451 36.0378 4.55536 35.9639L18.1661 27.5374L3.83568 35.8081C3.72028 35.8717 3.58474 35.888 3.45755 35.8537C3.33035 35.8194 3.22142 35.7371 3.15366 35.6241C3.0859 35.5111 3.06459 35.3763 3.0942 35.2479C3.12382 35.1195 3.20206 35.0076 3.31247 34.9358L17.7762 25.978L2.79637 34.6304C2.68129 34.6911 2.54734 34.7054 2.42203 34.6704C2.29672 34.6354 2.18957 34.5537 2.12259 34.4422C2.05561 34.3307 2.0339 34.1977 2.0619 34.0706C2.0899 33.9436 2.1655 33.8321 2.27316 33.759L20.5369 22.3338L1.85784 33.1157C1.74229 33.1855 1.60376 33.2065 1.4727 33.1742C1.34165 33.1418 1.22882 33.0587 1.15903 32.9432C1.08924 32.8276 1.06822 32.6891 1.10057 32.558C1.13293 32.427 1.21602 32.3141 1.33157 32.2444L21.9029 19.2647L1.14122 31.2519C1.08401 31.2865 1.02053 31.3095 0.954425 31.3196C0.888317 31.3297 0.820869 31.3267 0.755931 31.3107C0.624783 31.2784 0.511823 31.1954 0.4419 31.0798C0.371977 30.9643 0.35082 30.8257 0.383082 30.6946C0.415344 30.5634 0.498383 30.4504 0.613931 30.3805L20.9359 17.5363L0.794104 29.1651C0.67815 29.2312 0.540882 29.2491 0.411867 29.2149C0.282852 29.1808 0.172413 29.0973 0.104338 28.9825C0.0362641 28.8677 0.0160013 28.7308 0.0479146 28.6012C0.0798279 28.4716 0.161364 28.3597 0.27496 28.2897L3.60156 26.265L0.794104 27.8866C0.678286 27.956 0.53965 27.9765 0.408693 27.9437C0.277736 27.9108 0.165187 27.8273 0.0958037 27.7115C0.0264209 27.5957 0.00588835 27.4571 0.038723 27.3261C0.0715576 27.1951 0.15507 27.0826 0.270888 27.0132L12.0616 19.7136L1.08218 26.0523C0.966619 26.1189 0.829519 26.1375 0.700381 26.1041C0.571244 26.0707 0.460393 25.9879 0.391684 25.8735C0.322974 25.7592 0.301899 25.6224 0.332993 25.4927C0.364088 25.363 0.444866 25.2507 0.557944 25.1799L13.9946 16.7779L2.01053 23.6998C1.89471 23.7694 1.75602 23.79 1.62497 23.7573C1.49392 23.7245 1.38124 23.6411 1.31172 23.5253C1.2422 23.4094 1.22154 23.2708 1.25428 23.1397C1.28702 23.0087 1.37048 22.896 1.4863 22.8265L11.0671 16.8593L4.70499 20.53C4.58967 20.5946 4.45374 20.6118 4.32595 20.578C4.19817 20.5442 4.08856 20.462 4.02031 20.3487C3.95207 20.2355 3.93055 20.1002 3.9603 19.9714C3.99006 19.8426 4.06876 19.7305 4.17974 19.6587L12.1624 14.6372L8.91923 16.5082C8.8084 16.5717 8.67772 16.5912 8.55315 16.5629C8.42858 16.5346 8.31922 16.4604 8.24679 16.3552C8.17437 16.2499 8.14417 16.1213 8.1622 15.9948C8.18022 15.8683 8.24515 15.7533 8.3441 15.6724L13.3096 11.6394L9.25616 13.9806C9.14873 14.0434 9.02202 14.0647 8.89997 14.0404C8.77793 14.0161 8.66901 13.948 8.5938 13.8488C8.5186 13.7497 8.48232 13.6264 8.49183 13.5023C8.50134 13.3783 8.55597 13.262 8.6454 13.1755L11.345 10.538C11.2267 10.5978 11.0898 10.6092 10.9633 10.5696C10.8368 10.53 10.7308 10.4427 10.6677 10.3262C10.6046 10.2097 10.5894 10.0731 10.6254 9.94558C10.6614 9.81804 10.7457 9.70957 10.8604 9.64323L14.3377 7.63588C14.445 7.57399 14.5712 7.55336 14.6926 7.57786C14.814 7.60236 14.9223 7.67029 14.9973 7.76894C15.0722 7.86758 15.1086 7.99017 15.0996 8.11371C15.0906 8.23725 15.0368 8.35328 14.9484 8.44004L12.2519 11.0755L18.3595 7.55037C18.4704 7.48682 18.601 7.46728 18.7256 7.49563C18.8502 7.52397 18.9595 7.59813 19.032 7.70337C19.1044 7.80861 19.1346 7.93724 19.1166 8.06372C19.0985 8.1902 19.0336 8.30527 18.9346 8.38609L13.9651 12.4201L34.848 0.363778C34.9633 0.299163 35.0992 0.281949 35.227 0.315779C35.3548 0.349608 35.4644 0.431826 35.5326 0.545036C35.6009 0.658246 35.6224 0.793566 35.5927 0.922361C35.5629 1.05116 35.4842 1.16332 35.3732 1.23513L27.3916 6.2576L36.8421 0.80047C36.9579 0.731087 37.0965 0.710555 37.2275 0.743389C37.3585 0.776224 37.471 0.859736 37.5404 0.975554C37.6098 1.09137 37.6303 1.23001 37.5975 1.36097C37.5646 1.49192 37.4811 1.60447 37.3653 1.67385L27.7968 7.63486L38.5543 1.4265C38.6693 1.3658 38.8033 1.35148 38.9286 1.38648C39.0539 1.42148 39.1611 1.50313 39.228 1.61467C39.295 1.72622 39.3167 1.85917 39.2887 1.98623C39.2607 2.11329 39.1851 2.22479 39.0775 2.29785L25.6265 10.71L40.2063 2.28868C40.3223 2.2193 40.4611 2.19882 40.5921 2.23175C40.7232 2.26468 40.8358 2.34833 40.9052 2.46428C40.9745 2.58023 40.995 2.719 40.9621 2.85005C40.9292 2.9811 40.8455 3.0937 40.7296 3.16309L28.9328 10.4657L41.5225 3.19668C41.6388 3.12784 41.7776 3.10798 41.9084 3.14149C42.0393 3.17499 42.1515 3.2591 42.2203 3.37533C42.2892 3.49155 42.309 3.63036 42.2755 3.76122C42.242 3.89208 42.1579 4.00427 42.0417 4.07312L38.7354 6.08455L42.4224 3.953C42.5379 3.88308 42.6765 3.86192 42.8077 3.89418C42.9388 3.92645 43.0518 4.00948 43.1217 4.12503C43.1916 4.24058 43.2128 4.37917 43.1805 4.51032C43.1483 4.64147 43.0652 4.75443 42.9497 4.82435L22.6297 17.6696L43.8292 5.43002C43.9447 5.36023 44.0833 5.3392 44.2143 5.37156C44.3454 5.40392 44.4582 5.48701 44.528 5.60256C44.5978 5.71811 44.6188 5.85665 44.5864 5.9877C44.5541 6.11875 44.471 6.23158 44.3554 6.30137L23.7861 19.281L44.9804 7.04344C45.096 6.97681 45.2331 6.9582 45.3622 6.99163C45.4914 7.02507 45.6022 7.10786 45.6709 7.2222C45.7397 7.33653 45.7607 7.47328 45.7296 7.603C45.6985 7.73272 45.6178 7.84504 45.5047 7.91581L27.2491 19.3339L45.8101 8.61716C45.9259 8.54778 46.0645 8.52724 46.1955 8.56008C46.3264 8.59291 46.439 8.67643 46.5084 8.79224C46.5777 8.90806 46.5983 9.0467 46.5654 9.17766C46.5326 9.30861 46.4491 9.42116 46.3333 9.49054L31.8736 18.4483L46.3699 10.0789C46.4855 10.0138 46.622 9.99637 46.7503 10.0304C46.8786 10.0645 46.9885 10.1473 47.0566 10.2612C47.1247 10.3751 47.1456 10.5111 47.1149 10.6402C47.0842 10.7693 47.0042 10.8813 46.8921 10.9523L33.2712 19.3808L46.7679 11.5885C46.8835 11.5187 47.022 11.4977 47.1531 11.53C47.2841 11.5624 47.397 11.6455 47.4667 11.761C47.5365 11.8766 47.5576 12.0151 47.5252 12.1462C47.4928 12.2772 47.4098 12.3901 47.2942 12.4598L27.6624 24.9153L47.512 13.4544C47.6279 13.385 47.7665 13.3645 47.8974 13.3973C48.0284 13.4301 48.141 13.5136 48.2103 13.6295C48.2797 13.7453 48.3003 13.8839 48.2674 14.0149C48.2346 14.1458 48.1511 14.2584 48.0353 14.3278L36.6314 21.4003L49.8421 13.773C49.9573 13.7071 50.0937 13.6889 50.2222 13.7222C50.3507 13.7555 50.4611 13.8376 50.5299 13.9511C50.5987 14.0647 50.6204 14.2006 50.5904 14.3299C50.5604 14.4592 50.4811 14.5717 50.3694 14.6433L33.1663 25.5504L52.1793 14.5741C52.2949 14.5043 52.4336 14.4833 52.5648 14.5158C52.6959 14.5482 52.8088 14.6315 52.8786 14.7471C52.9484 14.8628 52.9693 15.0015 52.9369 15.1326C52.9044 15.2638 52.8212 15.3767 52.7055 15.4465L38.3018 24.5132L53.8649 15.5279C53.9802 15.4576 54.1187 15.4359 54.25 15.4677C54.3812 15.4995 54.4944 15.5821 54.5648 15.6974C54.6351 15.8127 54.6568 15.9511 54.625 16.0824C54.5932 16.2136 54.5106 16.3269 54.3953 16.3972L37.7633 27.0855L55.4957 16.8482C55.6105 16.785 55.7453 16.7686 55.8719 16.8023C55.9986 16.836 56.1073 16.9173 56.1755 17.0292C56.2437 17.1411 56.2662 17.275 56.2381 17.403C56.2101 17.531 56.1337 17.6433 56.025 17.7164L41.0614 27.3552L56.7752 18.2794C56.8901 18.2171 57.0246 18.2014 57.1508 18.2356C57.2769 18.2697 57.3851 18.3511 57.4529 18.4629C57.5207 18.5746 57.5429 18.7082 57.5149 18.8359C57.4869 18.9635 57.4108 19.0755 57.3025 19.1487L45.9628 26.3872L57.6588 19.6342C57.7735 19.5701 57.9086 19.5529 58.0358 19.5861C58.163 19.6194 58.2724 19.7006 58.341 19.8126C58.4097 19.9247 58.4323 20.059 58.4042 20.1874C58.3761 20.3158 58.2994 20.4284 58.1901 20.5015L46.6387 27.9945L58.4039 21.2008C58.5189 21.1301 58.6573 21.1079 58.7886 21.1392C58.92 21.1706 59.0335 21.2528 59.1042 21.3678C59.175 21.4828 59.1971 21.6212 59.1658 21.7525C59.1345 21.8838 59.0523 21.9974 58.9373 22.0681L48.7855 28.7172L58.918 22.8672C59.0328 22.8004 59.1693 22.7811 59.2981 22.8136C59.427 22.8461 59.5381 22.9276 59.6076 23.0409C59.6771 23.1541 59.6996 23.2901 59.6702 23.4197C59.6408 23.5493 59.5619 23.6623 59.4503 23.7345L52.4999 28.2541L59.1724 24.4002C59.2869 24.3322 59.4236 24.3117 59.553 24.3433C59.6824 24.3748 59.7942 24.4559 59.8646 24.569C59.9349 24.6821 59.9581 24.8182 59.9292 24.9483C59.9003 25.0783 59.8216 25.1918 59.7099 25.2644L52.7992 29.8685L59.2223 26.1592C59.2791 26.1238 59.3422 26.1 59.4082 26.089C59.4741 26.0781 59.5416 26.0802 59.6067 26.0953C59.6719 26.1105 59.7334 26.1383 59.7877 26.1772C59.8421 26.2161 59.8883 26.2653 59.9237 26.322C59.959 26.3788 59.9829 26.4419 59.9938 26.5079C60.0048 26.5738 60.0026 26.6413 59.9875 26.7064C59.9724 26.7716 59.9446 26.8331 59.9057 26.8875C59.8668 26.9418 59.8176 26.988 59.7608 27.0234L54.7902 30.3642L59.0208 27.9212C59.1332 27.8573 59.2657 27.8386 59.3914 27.8688C59.5172 27.8991 59.6267 27.9761 59.6977 28.0842C59.7687 28.1922 59.7959 28.3233 59.7738 28.4507C59.7517 28.5781 59.6819 28.6923 59.5786 28.7702L53.3407 33.4048L58.1677 30.6177C58.2806 30.5519 58.4145 30.5319 58.5416 30.5621C58.6687 30.5922 58.7794 30.6701 58.8507 30.7796C58.922 30.8891 58.9485 31.0218 58.9246 31.1503C58.9007 31.2788 58.8284 31.3931 58.7225 31.4697L56.6073 33.0159L56.8475 32.8775C56.9643 32.8111 57.1027 32.7936 57.2324 32.8288C57.3621 32.864 57.4726 32.9491 57.5398 33.0655C57.607 33.1819 57.6255 33.3201 57.5911 33.45C57.5568 33.58 57.4724 33.6911 57.3564 33.759L48.9534 38.6095C48.8408 38.6731 48.7081 38.6914 48.5825 38.6606C48.4568 38.6299 48.3476 38.5525 48.2769 38.4442C48.2063 38.3358 48.1795 38.2046 48.2021 38.0772C48.2248 37.9499 48.295 37.8359 48.3987 37.7585L50.5129 36.2122L46.2111 38.6929C46.0987 38.7569 45.9662 38.7756 45.8405 38.7453C45.7147 38.715 45.6052 38.6381 45.5342 38.53C45.4632 38.4219 45.436 38.2908 45.4581 38.1634C45.4802 38.036 45.55 37.9218 45.6533 37.844L51.8891 33.2134L42.3939 38.6929C42.2798 38.7561 42.1459 38.7731 42.0197 38.7404C41.8935 38.7078 41.7847 38.6279 41.7156 38.5173C41.6465 38.4068 41.6225 38.2739 41.6485 38.1462C41.6746 38.0184 41.7486 37.9055 41.8554 37.8308L46.826 34.4879L39.5427 38.6929C39.4285 38.7553 39.2949 38.7715 39.1691 38.7384C39.0434 38.7053 38.9351 38.6253 38.8665 38.5149C38.7978 38.4044 38.7741 38.2719 38.8001 38.1445C38.826 38.0171 38.8998 37.9045 39.0062 37.8297L45.9169 33.2256L36.4502 38.6929C36.3357 38.7544 36.2021 38.7697 36.0767 38.7358C35.9513 38.7019 35.8436 38.6214 35.7756 38.5106C35.7077 38.3999 35.6847 38.2673 35.7113 38.1402C35.7379 38.013 35.8122 37.9009 35.9188 37.8267L42.8703 33.2979L33.5287 38.6929C33.4143 38.7552 33.2804 38.7712 33.1546 38.7377C33.0288 38.7043 32.9205 38.6238 32.8522 38.513C32.7839 38.4021 32.7606 38.2693 32.7872 38.1418C32.8139 38.0144 32.8883 37.9019 32.9953 37.8277L43.1421 31.1867L30.14 38.6929C30.0252 38.7597 29.8887 38.779 29.7598 38.7465C29.631 38.7141 29.5199 38.6325 29.4504 38.5192C29.3809 38.406 29.3584 38.27 29.3878 38.1404C29.4172 38.0108 29.4961 37.8979 29.6077 37.8257L41.1622 30.3317L26.678 38.6929C26.5631 38.7552 26.4287 38.7709 26.3025 38.7367C26.1763 38.7026 26.0682 38.6212 26.0004 38.5094C25.9326 38.3977 25.9104 38.2641 25.9384 38.1364C25.9664 38.0088 26.0424 37.8968 26.1508 37.8236L37.4895 30.5861L23.4461 38.6929C23.3315 38.7552 23.1973 38.771 23.0713 38.7372C22.9453 38.7033 22.8372 38.6224 22.7691 38.5111C22.7011 38.3999 22.6783 38.2667 22.7056 38.1391C22.7329 38.0116 22.8081 37.8994 22.9158 37.8257L37.8794 28.1859L19.6798 38.6929C19.5649 38.7561 19.4302 38.7725 19.3035 38.7388C19.1769 38.7051 19.0681 38.6238 18.9999 38.5119C18.9317 38.4 18.9093 38.2661 18.9373 38.1381C18.9654 38.0101 19.0417 37.8978 19.1504 37.8246L35.7845 27.1364L15.7719 38.6929C15.6949 38.7387 15.6071 38.7633 15.5175 38.7642Z" fill="#478CFF"/>
<path d="M3.87895 49.9384C3.77986 49.9382 3.68296 49.9092 3.60015 49.8548C3.51733 49.8004 3.4522 49.7229 3.41275 49.632C3.3733 49.5411 3.36124 49.4407 3.37806 49.3431C3.39487 49.2454 3.43983 49.1548 3.50741 49.0823L3.8535 48.7118L2.40194 49.5485C2.29591 49.6098 2.17134 49.6308 2.05108 49.6076C1.93083 49.5845 1.82295 49.5188 1.74723 49.4225C1.67152 49.3263 1.63305 49.2059 1.63888 49.0836C1.6447 48.9613 1.69444 48.8452 1.77896 48.7566L3.32316 47.1421L1.17533 48.384C1.06828 48.4442 0.943075 48.4637 0.822804 48.4388C0.702533 48.4139 0.595309 48.3464 0.520908 48.2487C0.446507 48.151 0.409947 48.0297 0.417971 47.9071C0.425996 47.7846 0.478063 47.669 0.56457 47.5819L1.91638 46.2423L0.772228 46.9039C0.667406 46.9673 0.543254 46.9907 0.422552 46.9699C0.301851 46.9491 0.192696 46.8855 0.115117 46.7907C0.0375378 46.6959 -0.00326195 46.5764 0.000203985 46.4539C0.00366992 46.3315 0.0511691 46.2144 0.133986 46.1242L1.01144 45.1327C0.939962 45.1186 0.872346 45.0893 0.813164 45.0468C0.753982 45.0043 0.704615 44.9496 0.668399 44.8864C0.601147 44.7697 0.582883 44.6311 0.617608 44.501C0.652333 44.3709 0.737216 44.2598 0.853663 44.1922L2.94042 42.9869C3.04501 42.9264 3.16773 42.905 3.28662 42.9267C3.40551 42.9484 3.51282 43.0116 3.58934 43.1052C3.66586 43.1987 3.7066 43.3164 3.70427 43.4372C3.70194 43.5581 3.65669 43.6741 3.57663 43.7646L2.96587 44.4619L4.82868 43.387C4.93573 43.3268 5.06094 43.3073 5.18121 43.3322C5.30148 43.357 5.4087 43.4246 5.4831 43.5223C5.5575 43.62 5.59406 43.7413 5.58604 43.8639C5.57802 43.9864 5.52595 44.1019 5.43944 44.1891L4.0805 45.5318L5.90158 44.4813C6.00761 44.42 6.13218 44.399 6.25243 44.4221C6.37269 44.4453 6.48057 44.511 6.55628 44.6072C6.632 44.7035 6.67047 44.8238 6.66464 44.9461C6.65881 45.0685 6.60908 45.1846 6.52455 45.2732L4.98035 46.8856L6.29654 46.1242C6.40214 46.0637 6.52592 46.0431 6.64543 46.066C6.76495 46.0889 6.87229 46.1539 6.948 46.2492C7.02371 46.3445 7.06277 46.4637 7.05811 46.5854C7.05344 46.707 7.00535 46.8229 6.92257 46.9121L6.14487 47.7468C6.25523 47.7876 6.34756 47.8662 6.40546 47.9687C6.47271 48.0854 6.49097 48.2239 6.45625 48.3541C6.42152 48.4842 6.33664 48.5953 6.22019 48.6629L4.13344 49.8702C4.05627 49.9154 3.96837 49.9389 3.87895 49.9384Z" fill="#15EC88"/>
<path d="M8.68355 60.1382C8.58555 60.1383 8.48962 60.11 8.40728 60.0569C8.32494 60.0037 8.25969 59.9279 8.21938 59.8386C8.17907 59.7493 8.16541 59.6502 8.18003 59.5533C8.19466 59.4564 8.23695 59.3658 8.30183 59.2923L9.19252 58.2825L7.09863 59.4888C6.99085 59.5547 6.86238 59.5782 6.73822 59.5547C6.61406 59.5312 6.50309 59.4623 6.4269 59.3615C6.35072 59.2607 6.31476 59.1351 6.32603 59.0093C6.3373 58.8834 6.39499 58.7662 6.48788 58.6805L7.73281 57.4896L6.1825 58.3904C6.07275 58.4527 5.94381 58.4719 5.82067 58.4444C5.69753 58.417 5.58898 58.3448 5.51607 58.2418C5.44317 58.1389 5.41109 58.0125 5.42608 57.8872C5.44107 57.762 5.50205 57.6467 5.59719 57.5639L5.85981 57.3379C5.75598 57.3915 5.63685 57.4078 5.52243 57.384C5.40801 57.3602 5.30527 57.2977 5.23147 57.2071C5.15768 57.1165 5.11732 57.0032 5.11719 56.8863C5.11705 56.7694 5.15715 56.6561 5.23073 56.5653L6.24154 55.3214C6.14597 55.3278 6.05051 55.3074 5.96584 55.2627C5.88116 55.2179 5.81062 55.1505 5.76209 55.0679C5.69484 54.9512 5.67657 54.8126 5.7113 54.6825C5.74602 54.5524 5.83091 54.4413 5.94735 54.3737L8.03411 53.1684C8.13711 53.1092 8.2576 53.0878 8.3747 53.108C8.4918 53.1283 8.59813 53.1888 8.67525 53.2793C8.75237 53.3697 8.79541 53.4842 8.79693 53.6031C8.79845 53.7219 8.75834 53.8375 8.68355 53.9298L7.76029 55.0669L10.1199 53.7049C10.2297 53.6414 10.3594 53.6213 10.4834 53.6485C10.6073 53.6756 10.7167 53.7481 10.7899 53.8517C10.8632 53.9553 10.8952 54.0826 10.8795 54.2085C10.8638 54.3345 10.8016 54.45 10.7052 54.5325L10.4466 54.7544L10.8894 54.4989C10.9972 54.4329 11.1257 54.4094 11.2498 54.4329C11.374 54.4565 11.485 54.5253 11.5611 54.6261C11.6373 54.727 11.6733 54.8525 11.662 54.9784C11.6507 55.1043 11.5931 55.2214 11.5002 55.3071L10.2573 56.4981L11.3831 55.8476C11.4877 55.7871 11.6104 55.7657 11.7293 55.7874C11.8482 55.8091 11.9555 55.8723 12.032 55.9659C12.1085 56.0594 12.1493 56.1771 12.147 56.2979C12.1446 56.4188 12.0994 56.5348 12.0193 56.6253L11.093 57.6758C11.2012 57.6478 11.3155 57.6558 11.4188 57.6986C11.522 57.7414 11.6085 57.8167 11.6651 57.913C11.7326 58.0299 11.7509 58.1688 11.7159 58.2992C11.681 58.4296 11.5957 58.5408 11.4788 58.6083L8.93804 60.07C8.86085 60.1151 8.77296 60.1387 8.68355 60.1382Z" fill="#15EC88"/>
<path d="M55.4597 49.7813C55.3633 49.7814 55.269 49.7541 55.1875 49.7027C55.1061 49.6513 55.0409 49.5779 54.9995 49.4909C54.9581 49.4039 54.9423 49.307 54.9538 49.2113C54.9654 49.1157 55.0038 49.0253 55.0647 48.9507L56.9072 46.6949L54.0794 48.3236C53.971 48.3857 53.8435 48.4057 53.7213 48.3799C53.5991 48.3541 53.4906 48.2843 53.4166 48.1837C53.3425 48.0831 53.308 47.9588 53.3197 47.8344C53.3314 47.7101 53.3883 47.5943 53.4798 47.5093L54.4346 46.6328L53.7221 47.0471C53.6186 47.1061 53.4977 47.127 53.3804 47.106C53.2632 47.0851 53.157 47.0237 53.0803 46.9325C53.0037 46.8413 52.9614 46.7262 52.9609 46.607C52.9605 46.4879 53.0018 46.3724 53.0777 46.2806L54.0325 45.1436C53.9223 45.1396 53.8163 45.0998 53.7306 45.0304C53.6448 44.9609 53.584 44.8655 53.5573 44.7584C53.5305 44.6514 53.5392 44.5385 53.5822 44.4369C53.6251 44.3352 53.6999 44.2503 53.7953 44.1949L55.8821 42.9897C55.9857 42.9301 56.1069 42.9088 56.2246 42.9297C56.3423 42.9505 56.4489 43.0121 56.5257 43.1036C56.6025 43.1951 56.6447 43.3107 56.6448 43.4302C56.645 43.5497 56.6031 43.6655 56.5265 43.7572L55.7172 44.7201L57.8844 43.4701C57.9928 43.408 58.1202 43.388 58.2424 43.4138C58.3646 43.4396 58.4731 43.5095 58.5471 43.61C58.6212 43.7106 58.6557 43.8349 58.644 43.9593C58.6324 44.0837 58.5754 44.1994 58.4839 44.2845L57.5322 45.164L58.8097 44.426C58.9128 44.3661 59.0336 44.3444 59.1511 44.3645C59.2686 44.3846 59.3753 44.4454 59.4526 44.5361C59.5299 44.6269 59.5729 44.7419 59.5741 44.8611C59.5753 44.9803 59.5346 45.0961 59.4591 45.1884L57.6085 47.4472L59.1843 46.5382C59.2422 46.5013 59.307 46.4766 59.3747 46.4655C59.4424 46.4543 59.5117 46.457 59.5784 46.4733C59.6451 46.4897 59.7078 46.5193 59.7627 46.5605C59.8176 46.6017 59.8636 46.6535 59.898 46.713C59.9323 46.7724 59.9543 46.8382 59.9626 46.9063C59.9708 46.9745 59.9653 47.0436 59.9461 47.1095C59.927 47.1754 59.8947 47.2368 59.8513 47.2899C59.8078 47.3431 59.7541 47.3869 59.6932 47.4187L55.7141 49.7161C55.6365 49.7597 55.5487 49.7822 55.4597 49.7813Z" fill="#15EC88"/>
<path d="M51.5495 60.13C51.4549 60.13 51.3623 60.1037 51.2819 60.054C51.2015 60.0043 51.1365 59.9332 51.0942 59.8487C51.052 59.7642 51.0341 59.6695 51.0425 59.5754C51.051 59.4812 51.0856 59.3913 51.1423 59.3157L52.4218 57.6066L49.5716 59.2536C49.4625 59.3166 49.334 59.3369 49.2108 59.3106C49.0876 59.2843 48.9785 59.2132 48.9047 59.1111C48.8309 59.0091 48.7975 58.8833 48.8111 58.758C48.8247 58.6328 48.8842 58.517 48.9782 58.4332L49.7589 57.7359L48.8621 58.254C48.7538 58.3128 48.6279 58.3304 48.5076 58.3034C48.3874 58.2764 48.2811 58.2067 48.2083 58.1072C48.1356 58.0077 48.1014 57.8852 48.1121 57.7625C48.1228 57.6397 48.1777 57.525 48.2666 57.4397L48.9517 56.8208L48.6127 57.0152C48.5079 57.075 48.3851 57.0956 48.2665 57.0733C48.1478 57.051 48.0409 56.9872 47.965 56.8934C47.889 56.7995 47.8488 56.6817 47.8517 56.561C47.8546 56.4403 47.9002 56.3246 47.9806 56.2344L48.8173 55.3081C48.7205 55.2817 48.6336 55.2272 48.5676 55.1515C48.5017 55.0758 48.4596 54.9823 48.4466 54.8827C48.4337 54.7832 48.4505 54.682 48.4949 54.592C48.5393 54.5019 48.6093 54.427 48.6962 54.3767L50.783 53.1715C50.8879 53.111 51.0111 53.0899 51.1302 53.1121C51.2493 53.1343 51.3566 53.1982 51.4328 53.2925C51.509 53.3867 51.5491 53.505 51.5458 53.6261C51.5426 53.7472 51.4962 53.8632 51.4151 53.9532L50.9061 54.5172L52.604 53.5369C52.7123 53.4781 52.8383 53.4605 52.9585 53.4875C53.0787 53.5145 53.1851 53.5842 53.2578 53.6837C53.3306 53.7832 53.3648 53.9057 53.354 54.0284C53.3433 54.1512 53.2884 54.2659 53.1995 54.3513L52.5134 54.9712L53.5538 54.3716C53.662 54.3142 53.7873 54.2978 53.9066 54.3254C54.0259 54.3529 54.1314 54.4226 54.2035 54.5215C54.2756 54.6205 54.3096 54.7422 54.2993 54.8642C54.289 54.9863 54.235 55.1005 54.1472 55.186L53.3654 55.8822L54.0658 55.475C54.1672 55.4169 54.2856 55.3954 54.401 55.4143C54.5165 55.4332 54.6218 55.4912 54.6995 55.5787C54.7771 55.6661 54.8223 55.7776 54.8274 55.8945C54.8325 56.0113 54.7972 56.1263 54.7274 56.2202L53.4479 57.9293L53.6515 57.8122C53.7683 57.7458 53.9067 57.7283 54.0364 57.7635C54.1661 57.7987 54.2766 57.8838 54.3438 58.0002C54.411 58.1166 54.4295 58.2548 54.3951 58.3848C54.3607 58.5147 54.2764 58.6258 54.1604 58.6937L51.809 60.0517C51.7314 60.1013 51.6416 60.1284 51.5495 60.13Z" fill="#15EC88"/>
<path d="M30.0041 58.1053C29.9025 58.1055 29.8033 58.0754 29.719 58.0187C29.6347 57.962 29.5694 57.8814 29.5313 57.7873C29.4932 57.6931 29.4841 57.5898 29.5052 57.4904C29.5264 57.3911 29.5767 57.3004 29.6499 57.2299L29.6957 57.1851L28.8416 57.6788C28.7324 57.741 28.6041 57.7607 28.4813 57.7339C28.3585 57.7072 28.25 57.636 28.1766 57.534C28.1031 57.432 28.07 57.3065 28.0836 57.1815C28.0972 57.0566 28.1566 56.9411 28.2502 56.8573L28.7052 56.4502L27.9112 56.9072C27.8077 56.9662 27.6867 56.9869 27.5694 56.9659C27.4521 56.9448 27.3459 56.8832 27.2693 56.7919C27.1928 56.7005 27.1507 56.5852 27.1504 56.466C27.1502 56.3469 27.1917 56.2314 27.2679 56.1397L29.2223 53.8086L27.2394 54.9528C27.1343 55.0133 27.0111 55.0342 26.8919 55.0119C26.7727 54.9896 26.6654 54.9255 26.5893 54.8311C26.5132 54.7367 26.4733 54.6183 26.4768 54.4971C26.4803 54.3759 26.5269 54.2599 26.6083 54.17L27.4348 53.262C27.3085 53.2257 27.2014 53.1413 27.1366 53.0269C27.0693 52.9102 27.0511 52.7716 27.0858 52.6415C27.1205 52.5114 27.2054 52.4003 27.3219 52.3326L29.4086 51.1274C29.5137 51.0669 29.6369 51.046 29.7561 51.0683C29.8753 51.0906 29.9826 51.1547 30.0587 51.2491C30.1348 51.3435 30.1747 51.4619 30.1712 51.5831C30.1678 51.7043 30.1211 51.8203 30.0397 51.9102L29.5582 52.4395L31.2134 51.4857C31.317 51.4268 31.4379 51.406 31.5552 51.4271C31.6725 51.4482 31.7787 51.5097 31.8553 51.6011C31.9318 51.6924 31.9739 51.8077 31.9742 51.9269C31.9745 52.0461 31.9329 52.1616 31.8567 52.2532L29.9023 54.5884L32.5683 53.0462C32.6774 52.984 32.8058 52.9644 32.9286 52.9911C33.0514 53.0178 33.1599 53.089 33.2333 53.191C33.3068 53.293 33.3399 53.4185 33.3263 53.5435C33.3127 53.6684 33.2533 53.7839 33.1597 53.8677L32.7057 54.2687L32.7657 54.2351C32.8733 54.1714 33.0006 54.1494 33.1233 54.1735C33.246 54.1975 33.3555 54.2659 33.431 54.3656C33.5065 54.4653 33.5427 54.5892 33.5327 54.7139C33.5226 54.8385 33.467 54.9551 33.3765 55.0414L32.7963 55.6022C32.8867 55.6355 32.9658 55.6938 33.0244 55.7703C33.083 55.8467 33.1187 55.9383 33.1273 56.0342C33.1359 56.1302 33.1172 56.2266 33.0732 56.3123C33.0292 56.398 32.9617 56.4695 32.8787 56.5184L30.2576 58.0341C30.181 58.0801 30.0934 58.1047 30.0041 58.1053Z" fill="#15EC88"/>
<path d="M9.24832 45.9653C8.49538 46.0331 7.73807 46.0372 6.98444 45.9776C6.86816 45.0979 6.42168 44.2953 5.73552 43.7326C5.04937 43.17 4.17492 42.8893 3.28948 42.9476C2.40405 43.0059 1.57391 43.3987 0.967407 44.0464C0.360905 44.6941 0.0234375 45.5483 0.0234375 46.4356C0.0234375 47.323 0.360905 48.1771 0.967407 48.8248C1.57391 49.4726 2.40405 49.8654 3.28948 49.9236C4.17492 49.9819 5.04937 49.7013 5.73552 49.1386C6.42168 48.5759 6.86816 47.7734 6.98444 46.8937C13.4412 47.6398 12.3286 43.9346 12.293 39.1198C13.6163 39.2215 14.962 39.2602 16.3128 39.2745V48.7901C16.5693 52.3579 17.2523 56.6933 12.1952 56.0052C11.5193 51.9447 4.98014 52.3406 4.96792 56.5549C4.93128 60.9096 11.4124 61.1702 12.2054 57.2236C16.5611 57.7937 17.7022 55.9268 17.2309 51.8622V39.2887C18.6143 39.2887 20.0038 39.2582 21.3933 39.2124C21.6162 40.0053 20.6807 51.6006 22.3338 48.4878V39.1798C24.7484 39.0902 27.1517 38.9762 29.5051 38.9243V51.0876C28.6366 51.2432 27.8495 51.6967 27.2791 52.37C26.7088 53.0433 26.3909 53.8942 26.3801 54.7765C26.6295 59.399 33.6278 58.9134 33.6237 54.4386C33.6102 53.5901 33.2845 52.7764 32.7086 52.1531C32.1328 51.5298 31.3475 51.1406 30.5027 51.0601V38.9101C32.8806 38.8388 35.0284 38.9793 37.6812 39.1228C37.8949 39.9066 36.991 51.4835 38.6065 48.5519C38.6065 45.4248 38.6065 42.2981 38.6065 39.1717C39.9298 39.2378 41.2765 39.2877 42.6232 39.2928V52.0475C42.1 56.1691 43.6289 57.5972 47.7801 57.0822C48.4529 61.162 55.0745 60.9788 55.0399 56.5732C55.0155 52.2796 48.3216 51.9721 47.7851 56.1589C42.8085 56.7595 43.6004 52.3294 43.8437 48.8848C43.8437 45.6851 43.8437 42.4854 43.8437 39.2857C45.174 39.2666 46.502 39.1687 47.8208 38.9925C47.9114 43.6129 46.417 47.7854 52.8992 47.0107C53.681 50.9033 60.1153 50.8473 60.1265 46.4743C60.1337 42.1298 53.5782 41.8336 52.886 45.8717C47.3983 46.625 49.0637 42.5125 48.8244 38.8378C64.0934 36.6899 62.822 14.7973 47.9887 13.2826C45.8806 3.50337 37.2526 -2.71313 27.4001 1.17231C26.0682 1.73981 24.8258 2.49795 23.7121 3.42295C22.7899 4.18844 20.924 7.29822 19.8776 7.73287C13.4086 5.30511 7.18803 11.0055 8.265 17.6221C-3.46258 21.306 -1.96826 39.0241 11.0765 39.0078C10.6602 41.2442 12.3754 45.3586 9.24832 45.9653ZM0.938952 46.4366C0.923683 43.3533 5.63059 43.2749 6.08663 46.1384C6.0417 46.2082 6.01918 46.2901 6.0221 46.373C6.02501 46.456 6.05321 46.5361 6.10291 46.6026C5.74766 49.577 0.954221 49.5535 0.938952 46.4366ZM8.82792 59.1913C5.77412 59.46 5.23157 54.6666 8.17237 54.0782C11.4837 53.4166 12.0904 58.8646 8.82792 59.1913ZM32.4643 54.7124C32.3482 58.1062 27.5629 57.6542 27.5212 54.4579C27.7462 51.1313 32.5213 51.5039 32.4673 54.7104L32.4643 54.7124ZM51.581 54.0243C54.5727 54.3175 54.478 59.1201 51.4344 59.1903C48.1282 59.2554 48.2452 53.7423 51.581 54.0243ZM56.0487 43.8847C59.3885 43.2637 59.9077 48.7209 56.634 48.9916C53.5711 49.2543 53.1578 44.4466 56.0487 43.8847ZM8.35051 18.813C8.61804 18.7351 8.85203 18.5703 9.01568 18.3448C9.17932 18.1192 9.26331 17.8456 9.25443 17.5671C8.98554 16.2155 9.08477 14.8165 9.54173 13.5164C9.99868 12.2163 10.7966 11.0629 11.852 10.1768C12.9074 9.29067 14.1815 8.70441 15.541 8.47934C16.9006 8.25427 18.2957 8.39865 19.5803 8.89739C21.7526 8.83936 22.5252 5.73264 24.2099 4.46633C30.2839 -0.933789 40.511 0.754958 44.7456 7.64635C45.9895 9.59976 45.8083 12.6505 47.3423 14.2334C62.7752 16.5115 63.0063 37.4147 46.5148 37.6865C34.3688 37.714 22.2015 37.7405 10.0637 37.6407C7.8197 37.4448 5.71596 36.4664 4.12028 34.8765C2.5246 33.2866 1.5385 31.1865 1.33438 28.9432C1.13026 26.7 1.72111 24.4563 3.00363 22.6046C4.28615 20.7528 6.17873 19.4108 8.35051 18.813Z" fill="#262626"/>
</svg>
