<svg width="41" height="41" viewBox="0 0 41 41" fill="none" xmlns="http://www.w3.org/2000/svg">
<path d="M16.213 20.1507C16.213 17.9771 17.9751 16.215 20.1487 16.215L21.7229 12.2007L20.1487 7.9502H17.3937C16.7416 7.9502 16.213 8.47883 16.213 9.13089V9.77027C16.213 10.499 15.8443 11.1891 15.2175 11.5606C14.5766 11.9405 13.8066 11.9446 13.1629 11.5729L12.573 11.2324C12.0083 10.9063 11.2862 11.0998 10.9602 11.6645L8.20525 16.4362C7.87922 17.0009 8.0727 17.723 8.63738 18.049L9.22718 18.3896C9.87081 18.7612 10.2523 19.43 10.2438 20.1749C10.2354 20.9036 9.82209 21.568 9.19097 21.9324L8.63738 22.2521C8.0727 22.5781 7.87922 23.3002 8.20525 23.8649L10.9602 28.6366C11.2862 29.2013 12.0083 29.3949 12.573 29.0687L13.1629 28.7282C13.8065 28.3566 14.5765 28.3606 15.2174 28.7405C15.8443 29.1124 16.213 29.8025 16.213 30.5313V31.1705C16.213 31.8225 16.7416 32.3511 17.3937 32.3511H20.1487L22.51 28.4942L20.1487 24.0863C17.9751 24.0863 16.213 22.3242 16.213 20.1507Z" fill="#478CFF"/>
<path d="M31.6597 22.2522L31.0699 21.9117C30.4263 21.5401 30.0448 20.8713 30.0533 20.1263C30.0617 19.3976 30.475 18.7332 31.1061 18.3688L31.6597 18.0492C32.2244 17.7232 32.4179 17.0011 32.0918 16.4364L29.3369 11.6646C29.0109 11.1 28.2888 10.9064 27.7241 11.2325L27.1342 11.5731C26.4906 11.9447 25.7206 11.9406 25.0797 11.5607C24.4528 11.189 24.0841 10.4988 24.0841 9.77003V9.13089C24.0841 8.47883 23.5554 7.9502 22.9034 7.9502H20.1484V16.215C22.322 16.215 24.0841 17.9771 24.0841 20.1507C24.0841 22.3242 22.322 24.0863 20.1484 24.0863V32.3511H22.9034C23.5554 32.3511 24.0841 31.8225 24.0841 31.1705V30.5311C24.0841 29.8023 24.4528 29.1123 25.0796 28.7407C25.7205 28.3609 26.4905 28.3568 27.1342 28.7284L27.7241 29.069C28.2888 29.395 29.0109 29.2015 29.3369 28.6368L32.0918 23.8651C32.4179 23.3004 32.2244 22.5782 31.6597 22.2522Z" fill="#478CFF"/>
<path d="M17.3965 20.1505C17.3965 18.6314 18.6324 17.3956 20.1515 17.3956L20.9386 16.2149L20.1515 15.0342C17.3303 15.0342 15.0352 17.3294 15.0352 20.1505C15.0352 22.9717 17.3303 25.2668 20.1515 25.2668L20.9386 24.0074L20.1515 22.9055C18.6324 22.9055 17.3965 21.6696 17.3965 20.1505Z" fill="#FFF4F4"/>
<path d="M20.1484 15.0342V17.3956C21.6675 17.3956 22.9034 18.6314 22.9034 20.1505C22.9034 21.6696 21.6675 22.9055 20.1484 22.9055V25.2668C22.9696 25.2668 25.2648 22.9717 25.2648 20.1505C25.2648 17.3294 22.9696 15.0342 20.1484 15.0342Z" fill="#EBEBF0"/>
<path d="M20.1505 0C14.7681 0 9.70788 2.09596 5.90188 5.90188C2.09604 9.70788 0 14.7681 0 20.1505C0 23.1899 0.661187 26.1127 1.9653 28.8378C2.24678 29.4261 2.95173 29.6747 3.53995 29.3932C4.12809 29.1118 4.37674 28.4068 4.09535 27.8186C2.94472 25.4141 2.36138 22.8343 2.36138 20.1505C2.36138 10.3415 10.3415 2.36138 20.1505 2.36138L21.4099 1.18069L20.1505 0Z" fill="#15EC88"/>
<path d="M20.1484 2.36138C24.0459 2.36138 27.752 3.60622 30.8126 5.90794L27.8667 6.29576C27.2202 6.38085 26.7651 6.97395 26.8502 7.62042C26.9353 8.26696 27.5284 8.722 28.1749 8.63691L33.7162 7.9074C34.3626 7.82231 34.8177 7.22921 34.7326 6.58275L34.0031 1.04153C33.918 0.395059 33.3249 -0.0600578 32.6784 0.0250307H32.6783C32.0319 0.110119 31.5767 0.70322 31.6618 1.34969L31.9898 3.84087C28.5698 1.34654 24.4626 0 20.1484 0V2.36138Z" fill="#15EC88"/>
<path d="M20.1491 37.9396C16.2517 37.9396 12.5456 36.6947 9.48497 34.393L12.4309 34.0052C13.0773 33.9201 13.5325 33.327 13.4474 32.6805C13.3623 32.034 12.7692 31.579 12.1227 31.664L6.58141 32.3935C5.93494 32.4786 5.47983 33.0717 5.56492 33.7182L6.2945 39.2594C6.37959 39.9059 6.97269 40.361 7.61916 40.2759C8.26563 40.1908 8.72082 39.5977 8.63574 38.9513L8.30774 36.4601C11.7278 38.9544 15.835 40.301 20.1491 40.301L21.4085 39.1203L20.1491 37.9396Z" fill="#FF584A"/>
<path d="M38.3336 11.4628C38.0521 10.8746 37.3472 10.626 36.759 10.9074C36.1708 11.1889 35.9222 11.8939 36.2036 12.4821C37.3542 14.8865 37.9375 17.4664 37.9375 20.1502C37.9375 29.9592 29.9574 37.9393 20.1484 37.9393V40.3007C25.5308 40.3007 30.591 38.2047 34.397 34.3988C38.2029 30.5928 40.2989 25.5326 40.2989 20.1502C40.2989 17.1108 39.6377 14.188 38.3336 11.4628Z" fill="#FF584A"/>
</svg>
