<svg width="61" height="61" viewBox="0 0 61 61" fill="none" xmlns="http://www.w3.org/2000/svg">
<path d="M21.8946 24.3852C21.7819 24.3852 21.6724 24.348 21.583 24.2795C21.4937 24.2109 21.4294 24.1147 21.4003 24.0059C21.3711 23.8971 21.3787 23.7817 21.4218 23.6776C21.4649 23.5735 21.5411 23.4866 21.6387 23.4303L24.3367 21.8735C24.4536 21.8123 24.5897 21.7987 24.7165 21.8355C24.8433 21.8722 24.9509 21.9566 25.017 22.0708C25.083 22.1851 25.1024 22.3205 25.071 22.4487C25.0396 22.5769 24.9598 22.688 24.8484 22.7588L22.1504 24.3156C22.0727 24.3609 21.9845 24.3849 21.8946 24.3852Z" fill="#15EC88"/>
<path d="M17.4571 11.7979C17.3444 11.7979 17.2349 11.7607 17.1455 11.6921C17.0562 11.6236 16.9919 11.5274 16.9628 11.4186C16.9336 11.3098 16.9412 11.1944 16.9843 11.0903C17.0274 10.9862 17.1036 10.8993 17.2012 10.843L18.1848 10.2759C18.243 10.2389 18.3082 10.214 18.3763 10.2028C18.4444 10.1916 18.514 10.1943 18.5811 10.2107C18.6481 10.2272 18.7111 10.257 18.7664 10.2984C18.8216 10.3398 18.8679 10.3919 18.9024 10.4517C18.9369 10.5115 18.959 10.5776 18.9674 10.6461C18.9757 10.7146 18.9701 10.7841 18.9508 10.8504C18.9316 10.9167 18.8992 10.9784 18.8555 11.0318C18.8118 11.0852 18.7577 11.1293 18.6965 11.1613L17.7129 11.7283C17.6352 11.7736 17.547 11.7976 17.4571 11.7979Z" fill="#15EC88"/>
<path d="M19.0339 26.5111C18.9317 26.5111 18.8319 26.4805 18.7473 26.4233C18.6627 26.3661 18.5971 26.2849 18.559 26.1901C18.5209 26.0954 18.512 25.9914 18.5336 25.8915C18.5551 25.7916 18.606 25.7005 18.6798 25.6298L21.1413 23.2757L17.5088 25.3729C17.3978 25.4379 17.2665 25.4587 17.1408 25.4311C17.0152 25.4036 16.9046 25.3298 16.8309 25.2244C16.7572 25.119 16.7259 24.9897 16.7433 24.8623C16.7606 24.7349 16.8253 24.6186 16.9244 24.5367L21.4392 20.7568L14.3768 24.8315C14.2637 24.8963 14.13 24.9155 14.0032 24.8851C13.8763 24.8547 13.7659 24.777 13.6944 24.6678C13.6229 24.5587 13.5958 24.4265 13.6186 24.298C13.6414 24.1696 13.7123 24.0547 13.817 23.9768L17.1424 21.5204L13.2029 23.7957C13.0884 23.8611 12.953 23.8798 12.8251 23.8479C12.6971 23.816 12.5864 23.7359 12.516 23.6244C12.4457 23.5129 12.4211 23.3785 12.4474 23.2492C12.4737 23.12 12.5489 23.0059 12.6573 22.9308L13.2714 22.5091L13.2387 22.5275C13.1254 22.5915 12.992 22.6099 12.8657 22.579C12.7393 22.5481 12.6295 22.4703 12.5584 22.3613C12.4874 22.2524 12.4605 22.1204 12.4833 21.9924C12.506 21.8643 12.5767 21.7497 12.6809 21.6719L16.7125 18.7231L13.0504 20.8377C12.9374 20.9006 12.8048 20.9184 12.6792 20.8875C12.5536 20.8566 12.4444 20.7794 12.3735 20.6712C12.3025 20.5631 12.2752 20.4321 12.2969 20.3046C12.3186 20.1772 12.3878 20.0626 12.4905 19.9841L16.1445 17.2666L11.5622 19.9114C11.4491 19.9772 11.3151 19.9972 11.1877 19.9672C11.0603 19.9373 10.9493 19.8597 10.8773 19.7504C10.8054 19.6412 10.778 19.5085 10.8009 19.3796C10.8237 19.2508 10.8951 19.1356 11.0002 19.0578L13.3922 17.2789L11.3574 18.4539C11.2459 18.517 11.1148 18.5359 10.99 18.507C10.8651 18.478 10.7557 18.4033 10.6833 18.2976C10.6109 18.1919 10.5808 18.0629 10.5989 17.936C10.617 17.8092 10.6821 17.6938 10.7812 17.6126L14.4178 14.674L13.34 15.2973C13.2428 15.3533 13.1299 15.3758 13.0187 15.3614C12.9074 15.3469 12.804 15.2963 12.7243 15.2173C12.6447 15.1384 12.5931 15.0354 12.5777 14.9243C12.5623 14.8132 12.5838 14.7001 12.6389 14.6024L13.1599 13.6812C13.0632 13.686 12.9669 13.6651 12.8809 13.6205C12.795 13.5759 12.7224 13.5092 12.6706 13.4274C12.6031 13.3099 12.5849 13.1705 12.62 13.0396C12.6551 12.9088 12.7407 12.7972 12.8579 12.7293L14.2305 11.9361C14.3277 11.8805 14.4404 11.8584 14.5514 11.873C14.6624 11.8877 14.7655 11.9383 14.8449 12.0172C14.9244 12.0961 14.9758 12.1988 14.9912 12.3097C15.0067 12.4206 14.9854 12.5334 14.9306 12.631L14.4557 13.4703L19.606 10.5021C19.7177 10.4375 19.8497 10.4175 19.9756 10.446C20.1014 10.4746 20.2118 10.5497 20.2847 10.6562C20.3575 10.7627 20.3875 10.8928 20.3685 11.0204C20.3495 11.148 20.283 11.2638 20.1823 11.3445L16.5457 14.2779L20.5262 11.9801C20.6393 11.9143 20.7733 11.8943 20.9007 11.9242C21.028 11.9542 21.1391 12.0317 21.211 12.141C21.283 12.2503 21.3103 12.383 21.2875 12.5118C21.2646 12.6407 21.1933 12.7558 21.0881 12.8337L18.6941 14.6126L23.2815 11.9637C23.3946 11.8994 23.5278 11.8806 23.6542 11.9111C23.7807 11.9415 23.8907 12.0189 23.9622 12.1276C24.0336 12.2362 24.0609 12.368 24.0387 12.4961C24.0164 12.6242 23.9463 12.7391 23.8424 12.8173L20.1884 15.5348L24.4197 13.0916C24.533 13.0277 24.6663 13.0093 24.7927 13.0402C24.919 13.0711 25.0289 13.1489 25.0999 13.2578C25.171 13.3668 25.1978 13.4987 25.1751 13.6268C25.1524 13.7549 25.0817 13.8695 24.9775 13.9473L20.9448 16.8961L24.085 15.0844C24.1995 15.019 24.3348 15.0003 24.4628 15.0322C24.5908 15.0641 24.7015 15.1442 24.7718 15.2557C24.8422 15.3673 24.8668 15.5017 24.8404 15.6309C24.8141 15.7601 24.7389 15.8742 24.6305 15.9493L24.0164 16.3679L24.4913 16.0936C24.6045 16.0288 24.7382 16.0096 24.865 16.04C24.9919 16.0705 25.1023 16.1482 25.1738 16.2573C25.2453 16.3664 25.2724 16.4987 25.2496 16.6271C25.2268 16.7555 25.1559 16.8704 25.0512 16.9483L21.7237 19.4047L26.0184 16.9258C26.1293 16.8611 26.2604 16.8405 26.3858 16.868C26.5111 16.8955 26.6216 16.969 26.6953 17.0741C26.7689 17.1792 26.8004 17.3081 26.7835 17.4354C26.7666 17.5626 26.7025 17.6788 26.6039 17.761L22.0891 21.5398L24.3061 20.2604C24.4145 20.1941 24.5436 20.1705 24.6685 20.1941C24.7933 20.2178 24.9049 20.287 24.9815 20.3884C25.0581 20.4898 25.0943 20.616 25.0829 20.7426C25.0716 20.8691 25.0136 20.9869 24.9202 21.0731L20.5129 25.291C20.5433 25.4004 20.5364 25.5168 20.4934 25.6218C20.4505 25.7269 20.3738 25.8147 20.2754 25.8714L19.2939 26.4374C19.2156 26.4853 19.1257 26.5108 19.0339 26.5111Z" fill="#15EC88"/>
<path d="M45.4258 47.9265C45.3132 47.9265 45.2036 47.8893 45.1143 47.8207C45.0249 47.7521 44.9607 47.656 44.9315 47.5472C44.9023 47.4384 44.9099 47.323 44.953 47.2189C44.9961 47.1148 45.0724 47.0279 45.1699 46.9715L47.8679 45.4147C47.9849 45.3536 48.121 45.3399 48.2477 45.3767C48.3745 45.4135 48.4822 45.4978 48.5482 45.6121C48.6143 45.7264 48.6336 45.8618 48.6022 45.99C48.5708 46.1182 48.4911 46.2293 48.3797 46.3001L45.6817 47.8569C45.604 47.9022 45.5157 47.9262 45.4258 47.9265Z" fill="#15EC88"/>
<path d="M41.0039 35.3389C40.8913 35.3389 40.7818 35.3017 40.6924 35.2332C40.603 35.1646 40.5388 35.0684 40.5096 34.9596C40.4805 34.8508 40.488 34.7354 40.5311 34.6313C40.5742 34.5273 40.6505 34.4403 40.748 34.384L41.7317 33.8169C41.7899 33.7799 41.855 33.755 41.9231 33.7438C41.9912 33.7326 42.0609 33.7353 42.128 33.7518C42.195 33.7682 42.258 33.798 42.3132 33.8394C42.3685 33.8808 42.4147 33.933 42.4493 33.9927C42.4838 34.0525 42.5059 34.1186 42.5142 34.1871C42.5226 34.2556 42.5169 34.3251 42.4977 34.3914C42.4785 34.4577 42.446 34.5194 42.4023 34.5728C42.3586 34.6263 42.3046 34.6703 42.2434 34.7023L41.2598 35.2693C41.1821 35.3146 41.0939 35.3386 41.0039 35.3389Z" fill="#15EC88"/>
<path d="M42.569 50.0523C42.4668 50.0523 42.367 50.0217 42.2824 49.9645C42.1977 49.9073 42.1322 49.8261 42.0941 49.7313C42.056 49.6366 42.0471 49.5325 42.0686 49.4327C42.0902 49.3328 42.1411 49.2417 42.2148 49.171L44.6529 46.8425L41.0439 48.9244C40.9325 48.9883 40.8011 49.0079 40.6758 48.9794C40.5506 48.9509 40.4406 48.8763 40.3678 48.7705C40.295 48.6647 40.2646 48.5354 40.2827 48.4082C40.3009 48.281 40.3661 48.1653 40.4656 48.084L44.5086 44.8088L38.8792 48.0595C38.7662 48.1247 38.6327 48.1443 38.5057 48.1143C38.3788 48.0843 38.2681 48.007 38.1963 47.8982C38.1244 47.7894 38.0968 47.6572 38.1191 47.5288C38.1414 47.4003 38.2119 47.2851 38.3162 47.2069L41.3172 44.9551L36.8925 47.5139C36.7798 47.5781 36.647 47.597 36.5209 47.5671C36.3948 47.5371 36.2848 47.4603 36.2131 47.3523C36.1413 47.2444 36.1133 47.1132 36.1345 46.9853C36.1557 46.8574 36.2247 46.7424 36.3275 46.6634L40.9416 43.1742L37.045 45.4259C36.9327 45.49 36.8003 45.5092 36.6745 45.4797C36.5486 45.4502 36.4386 45.3741 36.3665 45.2668C36.2944 45.1594 36.2656 45.0288 36.2859 44.9011C36.3062 44.7734 36.3741 44.6581 36.4759 44.5785L41.3397 40.8293L36.0686 43.8722C35.9571 43.9361 35.8257 43.9558 35.7005 43.9273C35.5752 43.8988 35.4653 43.8242 35.3924 43.7184C35.3196 43.6126 35.2892 43.4832 35.3074 43.3561C35.3255 43.2289 35.3908 43.1132 35.4903 43.0319L39.3868 39.8876L34.8833 42.4843C34.7701 42.5492 34.6365 42.5683 34.5096 42.5379C34.3828 42.5075 34.2723 42.4298 34.2009 42.3207C34.1294 42.2116 34.1023 42.0793 34.1251 41.9509C34.1478 41.8224 34.2188 41.7076 34.3235 41.6297L36.4841 40.0381C36.3948 40.0461 36.3049 40.029 36.2247 39.9889C36.1444 39.9488 36.0769 39.8871 36.0297 39.8109C35.9576 39.7025 35.9296 39.5707 35.9512 39.4423C35.9729 39.314 36.0427 39.1987 36.1464 39.12L36.6581 38.728C36.559 38.7511 36.4553 38.7442 36.3602 38.708C36.2651 38.6719 36.1829 38.6083 36.1241 38.5252C36.0654 38.4422 36.0327 38.3435 36.0303 38.2418C36.0278 38.1401 36.0558 38.04 36.1105 37.9542L36.5762 37.2265C36.469 37.213 36.3688 37.1659 36.29 37.092C36.2112 37.0181 36.1578 36.9212 36.1374 36.815C36.1171 36.7089 36.1309 36.5991 36.1768 36.5012C36.2227 36.4034 36.2984 36.3227 36.393 36.2705L37.7656 35.4773C37.8646 35.4209 37.9796 35.3992 38.0924 35.4157C38.2052 35.4321 38.3092 35.4857 38.3881 35.5679C38.467 35.6502 38.5161 35.7564 38.5277 35.8698C38.5394 35.9832 38.5129 36.0972 38.4524 36.1937L38.1115 36.726L42.9937 33.9072C43.1063 33.8435 43.2387 33.8248 43.3645 33.8548C43.4902 33.8848 43.6 33.9612 43.6717 34.0688C43.7433 34.1764 43.7716 34.3072 43.7509 34.4348C43.7301 34.5624 43.6618 34.6774 43.5598 34.7567L43.181 35.0453L43.4994 34.8621C43.6125 34.7973 43.7462 34.7781 43.8731 34.8085C43.9999 34.839 44.1103 34.9167 44.1818 35.0258C44.2533 35.1349 44.2804 35.2672 44.2576 35.3956C44.2348 35.524 44.1639 35.6389 44.0592 35.7168L42.3008 37.0115L44.5638 35.7065C44.6753 35.6426 44.8067 35.623 44.9319 35.6515C45.0572 35.68 45.1671 35.7546 45.24 35.8604C45.3128 35.9662 45.3431 36.0955 45.325 36.2227C45.3069 36.3499 45.2416 36.4656 45.1421 36.5469L41.2527 39.6901L47.4758 36.0965C47.5881 36.0324 47.7204 36.0132 47.8463 36.0427C47.9722 36.0723 48.0822 36.1483 48.1543 36.2557C48.2264 36.363 48.2551 36.4937 48.2348 36.6213C48.2145 36.749 48.1467 36.8643 48.0448 36.944L43.181 40.6942L47.5945 38.1497C47.7072 38.0856 47.8399 38.0666 47.9661 38.0966C48.0922 38.1266 48.2022 38.2033 48.2739 38.3113C48.3457 38.4193 48.3737 38.5505 48.3525 38.6783C48.3313 38.8062 48.2623 38.9213 48.1595 39.0002L43.5536 42.4802L48.1851 39.8068C48.298 39.7416 48.4316 39.722 48.5585 39.752C48.6854 39.7819 48.7961 39.8592 48.8679 39.968C48.9398 40.0769 48.9674 40.209 48.9451 40.3375C48.9228 40.466 48.8523 40.5811 48.748 40.6594L45.744 42.9111L49.6241 40.6717C49.7355 40.6089 49.8664 40.5901 49.991 40.619C50.1155 40.6479 50.2248 40.7223 50.2972 40.8277C50.3696 40.9331 50.3999 41.0618 50.3822 41.1885C50.3645 41.3151 50.3 41.4305 50.2014 41.512L46.1595 44.7873L47.8371 43.82C47.9454 43.7583 48.0725 43.7382 48.1946 43.7636C48.3167 43.7889 48.4253 43.858 48.5 43.9577C48.5748 44.0575 48.6106 44.1811 48.6007 44.3054C48.5907 44.4297 48.5357 44.5461 48.4461 44.6327L44.0449 48.8343C44.0748 48.9434 44.0677 49.0593 44.0247 49.1639C43.9818 49.2685 43.9054 49.356 43.8074 49.4126L42.8259 49.9786C42.7485 50.0259 42.6597 50.0514 42.569 50.0523Z" fill="#15EC88"/>
<path d="M51.5972 50.0808C51.4921 50.0807 51.3895 50.0483 51.3035 49.9879C51.2174 49.9275 51.1521 49.842 51.1163 49.7432C51.0805 49.6443 51.076 49.5368 51.1035 49.4354C51.1309 49.3339 51.189 49.2433 51.2697 49.176L55.2011 45.9007L53.7538 46.7369C53.6427 46.8035 53.5104 46.8254 53.3837 46.7983C53.257 46.7712 53.1453 46.6971 53.0711 46.5908C52.997 46.4846 52.9659 46.3542 52.9841 46.2259C53.0023 46.0976 53.0686 45.981 53.1694 45.8997L55.1417 44.262L54.3229 44.7359C54.2119 44.7997 54.0811 44.8196 53.9562 44.7917C53.8313 44.7638 53.7213 44.69 53.6481 44.5851C53.5749 44.4801 53.5436 44.3515 53.5605 44.2246C53.5775 44.0977 53.6413 43.9818 53.7395 43.8997L55.0128 42.8383L54.5245 43.1208C54.4129 43.1863 54.2807 43.2071 54.1543 43.179C54.028 43.1509 53.917 43.076 53.8437 42.9693C53.7704 42.8627 53.7403 42.7322 53.7593 42.6042C53.7783 42.4762 53.8451 42.3602 53.9462 42.2794L54.4068 41.9069C54.2943 41.9381 54.1745 41.9299 54.0673 41.8836C53.9601 41.8374 53.872 41.7558 53.8175 41.6526C53.763 41.5493 53.7454 41.4306 53.7677 41.316C53.79 41.2014 53.8509 41.0978 53.9401 41.0225L54.6177 40.4535L54.3976 40.5794C54.2864 40.6426 54.1556 40.662 54.0308 40.6336C53.9061 40.6052 53.7965 40.5311 53.7237 40.4259C53.6509 40.3207 53.6201 40.1921 53.6374 40.0653C53.6548 39.9386 53.7189 39.8229 53.8173 39.7411L54.0414 39.5579C53.9426 39.5818 53.8389 39.5762 53.7432 39.5419C53.6476 39.5075 53.5641 39.4458 53.5031 39.3644C53.4287 39.2627 53.3944 39.1371 53.4069 39.0117C53.4193 38.8863 53.4776 38.7699 53.5706 38.6848L54.7988 37.5589L53.7518 38.1638C53.6463 38.2247 53.5226 38.2459 53.4029 38.2237C53.2832 38.2016 53.1753 38.1374 53.0986 38.0429C53.0219 37.9483 52.9814 37.8295 52.9845 37.7078C52.9875 37.5861 53.0338 37.4694 53.1151 37.3788L55.1499 35.1158L52.9063 36.4054C52.7997 36.4678 52.6741 36.4895 52.5528 36.4665C52.4314 36.4435 52.3224 36.3774 52.246 36.2804C52.1695 36.1834 52.1308 36.062 52.1368 35.9386C52.1429 35.8152 52.1933 35.6982 52.2789 35.6091L53.9391 33.8691L51.9483 35.0185C51.8414 35.0795 51.7161 35.0999 51.5954 35.076C51.4747 35.0521 51.3666 34.9855 51.291 34.8884C51.2154 34.7912 51.1773 34.6701 51.1837 34.5472C51.1902 34.4243 51.2407 34.3079 51.326 34.2192L52.8347 32.6655L50.8368 33.8139C50.729 33.8752 50.6026 33.8953 50.4811 33.8705C50.3596 33.8457 50.2513 33.7776 50.1762 33.6789C50.1011 33.5802 50.0645 33.4576 50.073 33.3339C50.0816 33.2101 50.1347 33.0937 50.2227 33.0063L51.5041 31.7463L49.6433 32.821C49.5344 32.8826 49.4066 32.9021 49.2843 32.8758C49.1619 32.8495 49.0534 32.7794 48.9793 32.6785C48.9052 32.5777 48.8706 32.4532 48.882 32.3286C48.8935 32.2039 48.9502 32.0878 49.0415 32.0022L49.9627 31.1609L48.4079 32.0575C48.2977 32.1208 48.1678 32.1409 48.0436 32.1137C47.9194 32.0865 47.8097 32.014 47.736 31.9104C47.6623 31.8068 47.6298 31.6795 47.6448 31.5532C47.6599 31.4269 47.7214 31.3108 47.8174 31.2274L48.3936 30.7279L47.0794 31.4864C46.9683 31.5493 46.8378 31.5686 46.7133 31.5402C46.5888 31.5118 46.4794 31.438 46.4065 31.3331C46.3337 31.2282 46.3027 31.0999 46.3197 30.9734C46.3366 30.8468 46.4002 30.7312 46.498 30.6491L46.7662 30.427L45.6035 31.0984C45.4936 31.1603 45.3648 31.1793 45.2417 31.152C45.1186 31.1247 45.01 31.053 44.9366 30.9505C44.8631 30.848 44.8301 30.7221 44.8438 30.5968C44.8575 30.4714 44.917 30.3556 45.0109 30.2714L46.2503 29.1865L43.2709 30.906C43.1591 30.9698 43.0274 30.9891 42.902 30.96C42.7766 30.931 42.6667 30.8558 42.5943 30.7495C42.5219 30.6431 42.4922 30.5133 42.5112 30.386C42.5301 30.2587 42.5964 30.1433 42.6967 30.0626L43.5585 29.3779L40.4603 31.165C40.349 31.2294 40.2177 31.2496 40.0922 31.2216C39.9668 31.1936 39.8565 31.1194 39.7833 31.0138C39.71 30.9082 39.6792 30.7788 39.6969 30.6516C39.7146 30.5243 39.7796 30.4083 39.8789 30.3267L42.3354 28.296L34.8176 32.6358C34.7593 32.6728 34.6942 32.6977 34.6261 32.7089C34.558 32.7201 34.4883 32.7174 34.4213 32.701C34.3542 32.6845 34.2912 32.6547 34.236 32.6133C34.1808 32.5719 34.1345 32.5198 34.0999 32.46C34.0654 32.4002 34.0433 32.3341 34.035 32.2656C34.0267 32.1971 34.0323 32.1276 34.0515 32.0613C34.0707 31.995 34.1032 31.9333 34.1469 31.8799C34.1906 31.8264 34.2446 31.7824 34.3058 31.7504L47.0999 24.3626C47.2111 24.2982 47.3425 24.278 47.4679 24.306C47.5933 24.334 47.7036 24.4082 47.7769 24.5138C47.8501 24.6194 47.8809 24.7487 47.8632 24.876C47.8455 25.0033 47.7805 25.1193 47.6812 25.2009L45.2248 27.2336L48.9985 25.0555C49.1103 24.9905 49.2426 24.9703 49.3688 24.9989C49.495 25.0275 49.6056 25.1028 49.6785 25.2096C49.7514 25.3165 49.7811 25.447 49.7617 25.5749C49.7422 25.7028 49.6751 25.8185 49.5737 25.8989L48.715 26.5816L50.2667 25.686C50.3767 25.6231 50.5061 25.6032 50.63 25.6303C50.7538 25.6573 50.8632 25.7293 50.9369 25.8324C51.0107 25.9355 51.0436 26.0622 51.0293 26.1882C51.0149 26.3141 50.9543 26.4302 50.8593 26.5141L49.6229 27.5959L51.5676 26.4701C51.6786 26.4071 51.8092 26.3879 51.9337 26.4162C52.0582 26.4446 52.1676 26.5184 52.2404 26.6233C52.3132 26.7282 52.3442 26.8565 52.3273 26.983C52.3104 27.1096 52.2468 27.2252 52.1489 27.3073L51.8808 27.5284L52.5235 27.1579C52.6337 27.0947 52.7633 27.0748 52.8874 27.1019C53.0114 27.129 53.1209 27.2012 53.1946 27.3046C53.2684 27.4079 53.3011 27.535 53.2864 27.6611C53.2717 27.7872 53.2107 27.9033 53.1151 27.9869L52.5368 28.4874L53.4846 27.9409C53.5936 27.8793 53.7213 27.8598 53.8437 27.8861C53.9661 27.9123 54.0746 27.9825 54.1487 28.0834C54.2228 28.1842 54.2574 28.3087 54.2459 28.4333C54.2345 28.558 54.1777 28.6741 54.0865 28.7597L53.1653 29.6041L54.4744 28.8498C54.5821 28.7884 54.7085 28.7683 54.83 28.7931C54.9515 28.8179 55.0599 28.886 55.1349 28.9847C55.21 29.0834 55.2467 29.206 55.2381 29.3297C55.2296 29.4535 55.1764 29.5699 55.0885 29.6573L53.8081 30.9173L55.503 29.9388C55.6101 29.8763 55.7362 29.8547 55.8579 29.8782C55.9796 29.9016 56.0887 29.9684 56.1649 30.0662C56.2411 30.1641 56.2791 30.2862 56.2721 30.41C56.265 30.5337 56.2132 30.6507 56.1264 30.7392L54.6166 32.2929L56.5061 31.2028C56.6126 31.142 56.7374 31.1214 56.8578 31.1448C56.9782 31.1682 57.0862 31.2341 57.1621 31.3305C57.2379 31.4269 57.2767 31.5473 57.2713 31.6698C57.2659 31.7923 57.2166 31.9088 57.1325 31.9981L55.4723 33.7381L57.4242 32.6122C57.5295 32.5514 57.6531 32.5301 57.7728 32.5521C57.8925 32.5742 58.0003 32.6381 58.0771 32.7325C58.1539 32.8269 58.1945 32.9456 58.1917 33.0672C58.1889 33.1888 58.1429 33.3055 58.0618 33.3963L56.026 35.6562L58.3146 34.3359C58.4236 34.2751 58.551 34.2563 58.6728 34.2829C58.7947 34.3094 58.9026 34.3796 58.9764 34.4801C59.0502 34.5807 59.0847 34.7047 59.0735 34.8289C59.0623 34.9531 59.0061 35.069 58.9155 35.1547L57.6872 36.2805L58.8295 35.6214C58.9407 35.557 59.0721 35.5368 59.1975 35.5648C59.3229 35.5928 59.4332 35.667 59.5065 35.7726C59.5797 35.8782 59.6106 36.0075 59.5928 36.1348C59.5751 36.2621 59.5102 36.3781 59.4108 36.4597L59.243 36.5968C59.3562 36.5565 59.4799 36.5573 59.5926 36.5991C59.7052 36.6408 59.7996 36.7209 59.8591 36.8252C59.9187 36.9296 59.9397 37.0516 59.9183 37.1698C59.897 37.288 59.8347 37.395 59.7425 37.4719L59.0628 38.0431L59.4559 37.8169C59.5673 37.7541 59.6982 37.7353 59.8227 37.7642C59.9473 37.7931 60.0565 37.8675 60.1289 37.9729C60.2013 38.0783 60.2317 38.207 60.2139 38.3337C60.1962 38.4603 60.1317 38.5757 60.0331 38.6572L59.6534 38.9642H59.6606C59.7714 38.9018 59.9015 38.8828 60.0255 38.911C60.1496 38.9392 60.2586 39.0127 60.3315 39.117C60.4043 39.2212 60.4357 39.3489 60.4196 39.4751C60.4034 39.6013 60.3408 39.7169 60.244 39.7994L58.9718 40.8598L59.8121 40.3757C59.9231 40.3107 60.0544 40.2899 60.1801 40.3175C60.3057 40.345 60.4163 40.4188 60.49 40.5242C60.5637 40.6296 60.595 40.7589 60.5776 40.8863C60.5603 41.0138 60.4956 41.13 60.3965 41.2119L58.4242 42.8495L59.8458 42.0307C59.9567 41.9682 60.0868 41.9493 60.2108 41.9775C60.3348 42.0057 60.4439 42.0791 60.5168 42.1834C60.5896 42.2877 60.621 42.4154 60.6048 42.5416C60.5886 42.6678 60.5261 42.7834 60.4293 42.8659L56.4989 46.1412L59.6391 44.3285C59.6973 44.2915 59.7625 44.2666 59.8306 44.2554C59.8987 44.2442 59.9684 44.2469 60.0354 44.2634C60.1024 44.2798 60.1655 44.3096 60.2207 44.351C60.2759 44.3924 60.3222 44.4446 60.3567 44.5043C60.3913 44.5641 60.4133 44.6302 60.4217 44.6987C60.43 44.7672 60.4244 44.8367 60.4051 44.903C60.3859 44.9693 60.3535 45.031 60.3098 45.0844C60.2661 45.1379 60.212 45.1819 60.1509 45.2139L51.8521 50.006C51.7754 50.0533 51.6874 50.0792 51.5972 50.0808Z" fill="#478CFF"/>
<path d="M28.0659 27.7096C27.9575 27.7099 27.8518 27.6757 27.7641 27.612C27.6764 27.5483 27.6111 27.4585 27.5778 27.3553C27.5444 27.2522 27.5447 27.1411 27.5785 27.0381C27.6123 26.9351 27.678 26.8456 27.766 26.7823L28.5224 26.2347C28.4209 26.2289 28.3234 26.1929 28.2424 26.1315C28.1614 26.07 28.1005 25.9858 28.0676 25.8896C28.0346 25.7934 28.0311 25.6895 28.0574 25.5913C28.0837 25.4931 28.1387 25.4049 28.2154 25.3381L32.1907 21.8683L29.6319 23.3453C29.522 23.409 29.3923 23.4296 29.2681 23.403C29.1438 23.3764 29.0339 23.3045 28.9597 23.2013C28.8856 23.0982 28.8524 22.9711 28.8667 22.8449C28.8811 22.7186 28.9418 22.6022 29.0372 22.5183L32.2388 19.7005L30.1621 20.8991C30.0498 20.9645 29.9167 20.9848 29.79 20.9557C29.6633 20.9266 29.5524 20.8504 29.4798 20.7425C29.4073 20.6347 29.3785 20.5032 29.3993 20.3749C29.4201 20.2466 29.489 20.131 29.592 20.0516L30.2061 19.5746C30.0947 19.6001 29.978 19.5875 29.8746 19.539C29.7712 19.4904 29.687 19.4086 29.6355 19.3067C29.5839 19.2047 29.5679 19.0885 29.5901 18.9764C29.6123 18.8643 29.6713 18.7629 29.7578 18.6882L31.6605 17.0281L30.4262 17.7446C30.3171 17.8098 30.1877 17.8322 30.0631 17.8073C29.9385 17.7824 29.8276 17.712 29.752 17.6098C29.6764 17.5077 29.6415 17.3811 29.6541 17.2546C29.6668 17.1282 29.726 17.0109 29.8202 16.9257L31.9113 14.9677L30.2685 15.9155C30.1596 15.9754 30.0326 15.9937 29.9113 15.9668C29.7899 15.9399 29.6825 15.8698 29.609 15.7696C29.5355 15.6693 29.5011 15.5457 29.5121 15.4219C29.5231 15.298 29.5788 15.1825 29.6688 15.0967L31.0833 13.8122L29.9206 14.4836C29.815 14.5444 29.6912 14.5656 29.5714 14.5433C29.4516 14.521 29.3437 14.4567 29.2671 14.3619C29.1905 14.2672 29.1502 14.1482 29.1535 14.0265C29.1568 13.9047 29.2034 13.788 29.2849 13.6975L31.4446 11.3076L29.1283 12.6443C29.0184 12.7081 28.8887 12.7286 28.7645 12.702C28.6402 12.6754 28.5303 12.6035 28.4562 12.5004C28.382 12.3972 28.3488 12.2701 28.3632 12.1439C28.3775 12.0176 28.4383 11.9012 28.5337 11.8173L29.1734 11.2544L28.4897 11.6474C28.3812 11.7101 28.2535 11.7308 28.1308 11.7057C28.0081 11.6805 27.8989 11.6113 27.8238 11.511C27.7488 11.4107 27.7131 11.2864 27.7236 11.1616C27.7341 11.0367 27.7899 10.9201 27.8807 10.8337L29.0158 9.76105L27.6002 10.5799C27.4913 10.639 27.3647 10.6567 27.2438 10.6295C27.1229 10.6024 27.016 10.5323 26.9428 10.4323C26.8697 10.3322 26.8353 10.2091 26.8461 10.0856C26.8569 9.96221 26.9121 9.84688 27.0015 9.76105L27.7404 9.09371L26.6883 9.69964C26.5783 9.76163 26.4492 9.78078 26.326 9.7534C26.2028 9.72602 26.094 9.65404 26.0206 9.55132C25.9472 9.44859 25.9144 9.32236 25.9284 9.19689C25.9424 9.07142 26.0024 8.95557 26.0967 8.87161L26.5122 8.50928L25.7384 8.95656C25.6318 9.01893 25.5062 9.04062 25.3848 9.01764C25.2635 8.99467 25.1545 8.92856 25.0781 8.83154C25.0016 8.73451 24.9628 8.61311 24.9689 8.48973C24.9749 8.36636 25.0254 8.24933 25.111 8.16026L26.7138 6.47246L24.1018 7.97602C23.9928 8.04128 23.8633 8.06363 23.7387 8.03873C23.6141 8.01383 23.5032 7.94345 23.4276 7.8413C23.352 7.73916 23.3172 7.61254 23.3298 7.48609C23.3424 7.35964 23.4016 7.24241 23.4959 7.1572L24.7036 6.02211L22.4601 7.32199C22.3492 7.38663 22.2181 7.40726 22.0927 7.37978C21.9674 7.3523 21.8569 7.27873 21.7832 7.17364C21.7096 7.06855 21.6781 6.93962 21.695 6.8124C21.7119 6.68518 21.776 6.56897 21.8746 6.48679L22.3772 6.06408L20.8644 6.93817C20.7529 7.00328 20.621 7.02386 20.4949 6.99578C20.3689 6.96769 20.2582 6.89303 20.1849 6.78674C20.1117 6.68045 20.0813 6.5504 20.0998 6.42265C20.1184 6.29489 20.1846 6.17888 20.2851 6.09785L20.7324 5.73348L18.935 6.77133C18.8243 6.8346 18.694 6.85425 18.5695 6.82644C18.4451 6.79863 18.3355 6.72537 18.2622 6.62099C18.189 6.51662 18.1573 6.38865 18.1735 6.26216C18.1897 6.13567 18.2524 6.01977 18.3496 5.93716L19.7088 4.78774L15.3721 7.29231C15.3139 7.32644 15.2495 7.34872 15.1827 7.35786C15.1158 7.36701 15.0478 7.36283 14.9825 7.34558C14.9173 7.32833 14.8561 7.29834 14.8025 7.25735C14.7489 7.21635 14.7039 7.16515 14.6701 7.10671C14.6364 7.04826 14.6145 6.98371 14.6058 6.91678C14.5971 6.84985 14.6018 6.78187 14.6194 6.71673C14.6371 6.6516 14.6675 6.59061 14.7089 6.53727C14.7502 6.48393 14.8017 6.43929 14.8604 6.40593L24.1642 1.03447C24.275 0.971204 24.4053 0.951551 24.5297 0.97936C24.6542 1.00717 24.7638 1.08044 24.837 1.18481C24.9103 1.28919 24.9419 1.41715 24.9258 1.54364C24.9096 1.67013 24.8468 1.78603 24.7497 1.86864L23.3915 3.01704L25.7323 1.66496C25.8438 1.59985 25.9757 1.57927 26.1017 1.60735C26.2277 1.63543 26.3385 1.7101 26.4117 1.81639C26.485 1.92268 26.5154 2.05273 26.4968 2.18048C26.4783 2.30824 26.4121 2.42425 26.3116 2.50528L25.8653 2.86863L26.9216 2.25451C27.0323 2.19226 27.1622 2.17339 27.286 2.20156C27.4098 2.22972 27.5188 2.30292 27.5916 2.40692C27.6645 2.51092 27.6961 2.6383 27.6803 2.7643C27.6645 2.8903 27.6024 3.00592 27.5061 3.08869L27.0015 3.51754L28.025 2.92697C28.134 2.86171 28.2634 2.83936 28.3881 2.86426C28.5127 2.88917 28.6236 2.95954 28.6991 3.06169C28.7747 3.16384 28.8096 3.29046 28.797 3.4169C28.7844 3.54335 28.7252 3.66059 28.6309 3.74579L27.4211 4.87883L29.2727 3.81232C29.3791 3.75146 29.504 3.73086 29.6244 3.7543C29.7448 3.77773 29.8527 3.84362 29.9286 3.93998C30.0045 4.03633 30.0433 4.15674 30.0379 4.27928C30.0324 4.40182 29.9832 4.51833 29.8991 4.6076L28.3013 6.28106L30.594 4.95764C30.7042 4.89451 30.8338 4.87456 30.9579 4.90167C31.0819 4.92878 31.1914 5.00102 31.2651 5.10436C31.3389 5.2077 31.3716 5.33476 31.3569 5.46085C31.3422 5.58695 31.2812 5.70309 31.1856 5.7867L30.767 6.15108L31.4098 5.78056C31.5187 5.72141 31.6453 5.70377 31.7662 5.73091C31.8871 5.75806 31.994 5.82815 32.0672 5.92817C32.1403 6.02819 32.1747 6.15135 32.1639 6.27479C32.1531 6.39822 32.0979 6.51356 32.0085 6.59938L31.2696 7.26672L32.2378 6.70787C32.3464 6.62644 32.4829 6.59147 32.6172 6.61067C32.7516 6.62986 32.8728 6.70164 32.9543 6.81023C33.0357 6.91881 33.0707 7.0553 33.0515 7.18966C33.0323 7.32402 32.9605 7.44526 32.8519 7.5267L31.7138 8.60652L33.0873 7.81635C33.1961 7.76005 33.3214 7.74461 33.4405 7.77281C33.5597 7.80102 33.6648 7.87101 33.7367 7.97008C33.8087 8.06916 33.8427 8.19074 33.8327 8.31277C33.8226 8.43481 33.7692 8.54919 33.682 8.63517L33.0433 9.19811L33.7485 8.7887C33.8541 8.72788 33.9779 8.70672 34.0977 8.72902C34.2175 8.75132 34.3253 8.81562 34.402 8.91036C34.4786 9.0051 34.5189 9.12406 34.5156 9.24585C34.5123 9.36764 34.4657 9.48427 34.3841 9.57477L32.2245 11.9647L34.7014 10.5318C34.8103 10.4726 34.937 10.455 35.0579 10.4821C35.1788 10.5093 35.2857 10.5794 35.3588 10.6794C35.432 10.7794 35.4664 10.9026 35.4556 11.026C35.4448 11.1494 35.3896 11.2648 35.3002 11.3506L33.8877 12.6351L35.2562 11.8439C35.3652 11.7787 35.4947 11.7563 35.6193 11.7812C35.7439 11.8061 35.8548 11.8765 35.9304 11.9786C36.006 12.0808 36.0408 12.2074 36.0282 12.3339C36.0156 12.4603 35.9564 12.5775 35.8621 12.6628L33.769 14.633L35.7495 13.4908C35.8597 13.4276 35.9893 13.4077 36.1134 13.4348C36.2374 13.4619 36.3469 13.5342 36.4206 13.6375C36.4944 13.7408 36.5271 13.8679 36.5124 13.994C36.4977 14.1201 36.4367 14.2362 36.3411 14.3198L34.4394 15.9739L36.0545 15.0414C36.1668 14.9773 36.2992 14.9581 36.4251 14.9877C36.551 15.0172 36.661 15.0933 36.7331 15.2006C36.8052 15.3079 36.8339 15.4386 36.8136 15.5663C36.7933 15.6939 36.7254 15.8092 36.6236 15.8889L36.1456 16.2594L36.1845 16.2379C36.2943 16.1763 36.4229 16.1572 36.5458 16.1845C36.6687 16.2117 36.7773 16.2832 36.8507 16.3854C36.9242 16.4877 36.9574 16.6134 36.944 16.7385C36.9306 16.8637 36.8716 16.9795 36.7782 17.0639L33.5715 19.8848L36.2234 18.3495C36.3336 18.2853 36.4637 18.2646 36.5884 18.2913C36.713 18.3181 36.8232 18.3904 36.8973 18.4941C36.9715 18.5978 37.0042 18.7254 36.9892 18.852C36.9742 18.9786 36.9124 19.0951 36.816 19.1785L32.8427 22.6575L36.0003 20.8356C36.1139 20.7704 36.2481 20.7513 36.3754 20.7821C36.5027 20.8129 36.6133 20.8913 36.6845 21.0012C36.7557 21.1111 36.7821 21.2441 36.7582 21.3728C36.7343 21.5016 36.662 21.6163 36.5561 21.6933L36.0075 22.0905C36.1221 22.0843 36.2354 22.1169 36.3293 22.1829C36.4232 22.2489 36.4921 22.3446 36.5251 22.4546C36.558 22.5645 36.5531 22.6823 36.511 22.7891C36.4689 22.8959 36.3921 22.9855 36.293 23.0434L28.3218 27.6492C28.2433 27.6916 28.1551 27.7124 28.0659 27.7096Z" fill="#478CFF"/>
<path d="M41.4943 60.2373C41.3852 60.2372 41.2789 60.2022 41.191 60.1374C41.1031 60.0727 41.0382 59.9815 41.0059 59.8772C40.9735 59.7729 40.9753 59.661 41.0111 59.5578C41.0469 59.4547 41.1147 59.3657 41.2047 59.3038L48.1575 54.5301L39.0072 59.8115C38.9497 59.8464 38.8859 59.8696 38.8195 59.8798C38.7531 59.8901 38.6853 59.8871 38.62 59.8711C38.5547 59.8552 38.4932 59.8265 38.439 59.7868C38.3847 59.747 38.3389 59.697 38.304 59.6395C38.2691 59.5821 38.2459 59.5183 38.2357 59.4519C38.2254 59.3854 38.2284 59.3176 38.2444 59.2523C38.2603 59.187 38.289 59.1255 38.3287 59.0713C38.3685 59.0171 38.4185 58.9713 38.476 58.9364L39.5292 58.266L37.5138 59.4307C37.4025 59.4943 37.2714 59.5138 37.1464 59.4853C37.0214 59.4569 36.9117 59.3826 36.8389 59.2771C36.766 59.1716 36.7355 59.0426 36.7532 58.9156C36.7709 58.7887 36.8356 58.673 36.9345 58.5914L38.2518 57.5188L35.9141 58.8678C35.8026 58.9317 35.6712 58.9513 35.546 58.9228C35.4207 58.8943 35.3108 58.8198 35.2379 58.714C35.1651 58.6081 35.1348 58.4788 35.1529 58.3516C35.171 58.2245 35.2363 58.1087 35.3358 58.0275L35.9284 57.5464L34.651 58.2844C34.5395 58.3486 34.4078 58.3685 34.2823 58.3399C34.1567 58.3114 34.0465 58.2366 33.9737 58.1304C33.9009 58.0243 33.8707 57.8946 33.8893 57.7672C33.9078 57.6398 33.9737 57.524 34.0738 57.4431L34.1945 57.3407L33.5804 57.6948C33.4703 57.759 33.3401 57.7797 33.2155 57.753C33.0908 57.7262 32.9807 57.6539 32.9065 57.5502C32.8324 57.4465 32.7996 57.3189 32.8147 57.1923C32.8297 57.0657 32.8914 56.9492 32.9878 56.8658L33.7708 56.1821L32.432 56.9548C32.3275 57.0152 32.2049 57.0367 32.0861 57.0154C31.9672 56.9942 31.8597 56.9316 31.7825 56.8388C31.7054 56.7459 31.6635 56.6288 31.6644 56.508C31.6652 56.3873 31.7087 56.2707 31.7872 56.179L33.648 54.0071L30.7995 55.6509C30.6924 55.7119 30.5668 55.7322 30.4459 55.7081C30.325 55.6839 30.2169 55.6169 30.1414 55.5194C30.066 55.4219 30.0283 55.3005 30.0352 55.1774C30.0421 55.0543 30.0933 54.9378 30.1793 54.8494L31.6286 53.3817L29.6511 54.5229C29.5461 54.5838 29.4228 54.6054 29.3033 54.5837C29.1838 54.5621 29.0759 54.4986 28.9988 54.4048C28.9218 54.3109 28.8807 54.1927 28.8828 54.0712C28.8849 53.9498 28.9301 53.8331 29.0104 53.742L30.8241 51.6796L28.4014 53.0777C28.2925 53.1369 28.1659 53.1545 28.045 53.1274C27.9241 53.1002 27.8171 53.0301 27.744 52.9301C27.6708 52.8301 27.6365 52.7069 27.6473 52.5835C27.658 52.46 27.7133 52.3447 27.8026 52.2589L28.5805 51.5578L27.6675 52.0839C27.5613 52.1447 27.4369 52.1654 27.3167 52.1424C27.1965 52.1193 27.0886 52.054 27.0125 51.9582C26.9364 51.8624 26.8971 51.7424 26.9018 51.6202C26.9065 51.4979 26.9548 51.3813 27.0381 51.2917L28.9203 49.2866L26.729 50.5516C26.6218 50.6134 26.4959 50.6343 26.3746 50.6105C26.2532 50.5866 26.1446 50.5196 26.0688 50.4219C25.993 50.3241 25.9552 50.2022 25.9624 50.0788C25.9695 49.9553 26.0211 49.8386 26.1077 49.7502L28.0984 47.7298L25.9736 48.958C25.8626 49.0218 25.7318 49.0417 25.6069 49.0138C25.4819 48.9859 25.372 48.9122 25.2988 48.8072C25.2255 48.7022 25.1943 48.5736 25.2112 48.4467C25.2281 48.3198 25.292 48.2039 25.3902 48.1218L26.0289 47.5896L25.5703 47.8536C25.4596 47.918 25.3287 47.9385 25.2036 47.911C25.0785 47.8836 24.9682 47.8103 24.8946 47.7055C24.8209 47.6007 24.7892 47.4721 24.8057 47.3451C24.8223 47.2181 24.8858 47.1019 24.9838 47.0195L26.1292 46.0522L25.208 46.5804C25.0979 46.6425 24.9687 46.6617 24.8452 46.6343C24.7218 46.6068 24.6129 46.5346 24.5395 46.4317C24.4662 46.3287 24.4335 46.2022 24.4479 46.0765C24.4623 45.9509 24.5227 45.8351 24.6174 45.7513L26.5212 44.1045L24.9265 45.0256C24.814 45.0893 24.6816 45.108 24.5558 45.078C24.43 45.048 24.3203 44.9716 24.2486 44.864C24.1769 44.7564 24.1486 44.6257 24.1694 44.4981C24.1901 44.3704 24.2584 44.2554 24.3605 44.1761L24.6461 43.9571C24.5497 43.9739 24.4505 43.9631 24.3599 43.926C24.2694 43.8889 24.1911 43.8269 24.1343 43.7472C24.0607 43.6425 24.029 43.514 24.0455 43.387C24.062 43.2601 24.1254 43.1439 24.2234 43.0615L26.8221 40.8742L24.7709 42.0543C24.6607 42.1167 24.5313 42.136 24.4077 42.1084C24.284 42.0809 24.175 42.0085 24.1017 41.9053C24.0284 41.802 23.9959 41.6752 24.0106 41.5494C24.0254 41.4236 24.0862 41.3078 24.1814 41.2243L27.8661 38.0513L24.9552 39.7309C24.84 39.7993 24.7027 39.8199 24.5726 39.7881C24.4425 39.7564 24.33 39.6749 24.2592 39.5612C24.1885 39.4475 24.1652 39.3106 24.1943 39.1798C24.2233 39.0491 24.3025 38.935 24.4148 38.862L33.4545 32.816L25.3359 37.5027C25.2218 37.5665 25.0875 37.5842 24.9607 37.5521C24.834 37.52 24.7243 37.4406 24.6542 37.3302C24.5841 37.2198 24.559 37.0867 24.5839 36.9583C24.6089 36.83 24.682 36.716 24.7883 36.6399L33.3563 30.6768L24.3615 35.8743C24.2474 35.9381 24.1131 35.9557 23.9863 35.9237C23.8596 35.8916 23.7499 35.8122 23.6798 35.7018C23.6097 35.5913 23.5846 35.4583 23.6095 35.3299C23.6345 35.2015 23.7076 35.0876 23.8139 35.0114L29.7299 30.9112L20.0064 36.5263C19.8918 36.5928 19.7557 36.6123 19.627 36.5805C19.4983 36.5488 19.3869 36.4683 19.3163 36.3561C19.2457 36.2438 19.2215 36.1086 19.2486 35.9788C19.2758 35.849 19.3523 35.7349 19.4619 35.6604L24.4526 32.2489L17.0925 36.4986C16.9774 36.5641 16.8415 36.5824 16.7133 36.5498C16.585 36.5172 16.4744 36.4361 16.4046 36.3237C16.3348 36.2113 16.3113 36.0762 16.339 35.9468C16.3667 35.8174 16.4434 35.7037 16.5531 35.6297L22.0299 31.99L14.8356 36.1435C14.7224 36.2069 14.5895 36.225 14.4635 36.1941C14.3376 36.1632 14.228 36.0856 14.1571 35.9771C14.0861 35.8686 14.059 35.7371 14.0812 35.6094C14.1034 35.4816 14.1733 35.367 14.2767 35.2888L16.2214 33.8559L13.112 35.646C13.002 35.7098 12.8723 35.7303 12.7481 35.7037C12.6239 35.6771 12.514 35.6052 12.4398 35.5021C12.3656 35.3989 12.3325 35.2718 12.3468 35.1456C12.3611 35.0193 12.4219 34.9029 12.5173 34.819L14.8571 32.7525L11.2348 34.8374C11.1292 34.8983 11.0054 34.9194 10.8857 34.8971C10.7659 34.8748 10.658 34.8105 10.5814 34.7158C10.5048 34.6211 10.4645 34.5021 10.4678 34.3803C10.471 34.2585 10.5176 34.1419 10.5992 34.0514L12.8059 31.6123L9.25122 33.6696C9.14096 33.733 9.01107 33.753 8.88685 33.7258C8.76263 33.6986 8.65298 33.6262 8.57926 33.5226C8.50554 33.4189 8.47304 33.2916 8.48808 33.1653C8.50313 33.0391 8.56465 32.9229 8.66064 32.8395L9.40065 32.1988L8.19801 32.8927C8.09089 32.9538 7.96533 32.9741 7.84443 32.95C7.72352 32.9258 7.6154 32.8588 7.53994 32.7613C7.46448 32.6638 7.42675 32.5424 7.4337 32.4193C7.44065 32.2962 7.4918 32.1797 7.57775 32.0913L9.10178 30.5386L6.92065 31.7976C6.81227 31.8639 6.68309 31.8875 6.55825 31.8639C6.43341 31.8402 6.32183 31.771 6.24523 31.6696C6.16862 31.5682 6.13247 31.442 6.1438 31.3154C6.15513 31.1889 6.21314 31.071 6.30654 30.9849L7.45493 29.8867L5.9002 30.7843C5.78991 30.8487 5.65954 30.8695 5.53468 30.8427C5.40982 30.8159 5.29949 30.7434 5.22537 30.6394C5.15125 30.5354 5.1187 30.4074 5.13409 30.2806C5.14949 30.1539 5.21174 30.0374 5.3086 29.9542L5.68321 29.6297L5.15405 29.9368C5.04848 29.9976 4.92467 30.0188 4.8049 29.9965C4.68512 29.9742 4.57723 29.9099 4.50063 29.8151C4.42402 29.7204 4.38373 29.6014 4.38699 29.4797C4.39026 29.3579 4.43687 29.2412 4.51844 29.1507L6.3137 27.161L4.07013 28.4588C3.96122 28.5188 3.83422 28.537 3.71285 28.5101C3.59148 28.4833 3.48404 28.4131 3.41058 28.3129C3.33713 28.2126 3.30268 28.089 3.31368 27.9652C3.32468 27.8414 3.38036 27.7258 3.47034 27.64L4.31271 26.8754L3.41507 27.3933C3.30681 27.4585 3.17826 27.4813 3.05417 27.4574C2.93009 27.4335 2.81925 27.3645 2.743 27.2637C2.66675 27.1629 2.63049 27.0375 2.64119 26.9116C2.65189 26.7857 2.7088 26.6681 2.80096 26.5817L4.16941 25.2675L2.74978 26.0863C2.64411 26.1471 2.5202 26.1682 2.40037 26.1458C2.28053 26.1233 2.17263 26.0589 2.09611 25.964C2.01959 25.869 1.97947 25.7499 1.98296 25.6281C1.98646 25.5062 2.03335 25.3896 2.1152 25.2992L4.38947 22.7885L2.00261 24.1672C1.89459 24.2303 1.76718 24.2517 1.64446 24.2273C1.52174 24.2029 1.41222 24.1343 1.33661 24.0347C1.26099 23.935 1.22451 23.811 1.23407 23.6863C1.24363 23.5615 1.29857 23.4446 1.38849 23.3576L3.42633 21.373L1.5369 22.462C1.42572 22.5253 1.29487 22.5446 1.17013 22.5162C1.0454 22.4878 0.935827 22.4137 0.863008 22.3085C0.79019 22.2033 0.759406 22.0747 0.776723 21.9479C0.79404 21.8212 0.858201 21.7055 0.956564 21.6237L1.60957 21.0853L1.32196 21.2512C1.21358 21.3175 1.08441 21.3411 0.959563 21.3175C0.834721 21.2938 0.723143 21.2246 0.646538 21.1232C0.569933 21.0218 0.533779 20.8956 0.545111 20.769C0.556443 20.6424 0.614451 20.5246 0.707847 20.4385L3.74465 17.5399L1.14387 19.0373C1.03383 19.1012 0.903913 19.1219 0.779473 19.0952C0.655034 19.0685 0.545001 18.9964 0.470847 18.893C0.396693 18.7895 0.363739 18.6622 0.378416 18.5358C0.393092 18.4093 0.454346 18.2929 0.550224 18.2092L4.27791 14.9411L1.24929 16.6893C1.13547 16.7542 1.00108 16.773 0.873809 16.7418C0.746541 16.7106 0.636097 16.6317 0.565236 16.5215C0.494375 16.4113 0.468497 16.2781 0.492935 16.1493C0.517373 16.0206 0.590265 15.9061 0.696589 15.8295L1.64744 15.153L1.47652 15.2553C1.36142 15.3273 1.22246 15.3505 1.09021 15.32C0.957954 15.2895 0.843242 15.2077 0.771306 15.0926C0.69937 14.9775 0.676103 14.8385 0.706623 14.7063C0.737143 14.574 0.818949 14.4593 0.934047 14.3874L9.24405 8.79997L2.09165 12.934C1.97783 12.9989 1.84344 13.0177 1.71617 12.9865C1.5889 12.9553 1.47846 12.8764 1.4076 12.7662C1.33674 12.656 1.31086 12.5228 1.3353 12.394C1.35973 12.2653 1.43263 12.1508 1.53895 12.0742L9.56851 6.35886L3.4816 9.87262C3.36637 9.94442 3.22733 9.9675 3.09508 9.93679C2.96283 9.90608 2.84819 9.82409 2.77639 9.70886C2.70459 9.59362 2.68151 9.45459 2.71222 9.32234C2.74293 9.19008 2.82492 9.07545 2.94016 9.00365L4.44986 7.99547C4.348 7.98296 4.25226 7.94012 4.17506 7.8725C4.09787 7.80489 4.04278 7.71562 4.01696 7.61631C3.99114 7.51699 3.99577 7.4122 4.03026 7.31554C4.06474 7.21889 4.12749 7.13484 4.21035 7.0743L7.02914 4.99347C6.97044 4.95118 6.92157 4.89672 6.88585 4.8338C6.85173 4.77553 6.82947 4.71109 6.82037 4.64418C6.81126 4.57727 6.81549 4.50922 6.83281 4.44395C6.85012 4.37868 6.88019 4.31748 6.92126 4.26389C6.96234 4.21029 7.01361 4.16535 7.07213 4.13166L12.2061 1.16344C12.3193 1.0986 12.453 1.07943 12.5798 1.10985C12.7067 1.14026 12.8171 1.21796 12.8886 1.32707C12.9601 1.43618 12.9872 1.56847 12.9644 1.6969C12.9416 1.82533 12.8707 1.94022 12.766 2.01808L12.1007 2.50937L16.0925 0.206439C16.2076 0.138045 16.345 0.11751 16.4751 0.149241C16.6052 0.180972 16.7177 0.262441 16.7884 0.376165C16.8591 0.489889 16.8825 0.626805 16.8534 0.757534C16.8243 0.888262 16.7451 1.00239 16.6329 1.07541L16.4507 1.19721L18.4251 0.0672396C18.5389 0.00231075 18.6733 -0.0164821 18.8006 0.014734C18.9278 0.0459501 19.0383 0.124796 19.1091 0.235025C19.18 0.345253 19.2059 0.478463 19.1814 0.607204C19.157 0.735945 19.0841 0.850407 18.9778 0.927002L10.9452 6.63623L21.7556 0.394768C21.8706 0.328152 22.0069 0.308843 22.1358 0.340923C22.2648 0.373004 22.3761 0.453959 22.4465 0.566675C22.5168 0.679392 22.5405 0.815034 22.5126 0.944926C22.4848 1.07482 22.4075 1.18878 22.2971 1.26272L10.9421 8.89311C11.0175 8.93521 11.081 8.9957 11.1267 9.06896C11.1724 9.14221 11.1989 9.22584 11.2036 9.31207C11.2083 9.39829 11.1911 9.4843 11.1536 9.56209C11.1161 9.63988 11.0595 9.70691 10.9892 9.75696L8.66679 11.41C8.75451 11.4359 8.83366 11.485 8.896 11.552C8.95834 11.6189 9.00158 11.7014 9.02123 11.7907C9.04088 11.8801 9.03621 11.9731 9.00772 12.06C8.97922 12.147 8.92794 12.2247 8.85921 12.2851L5.13153 15.5542L6.90018 14.5307C7.00856 14.4644 7.13774 14.4407 7.26258 14.4644C7.38742 14.488 7.499 14.5573 7.57561 14.6587C7.65221 14.76 7.68836 14.8863 7.67703 15.0128C7.6657 15.1394 7.60769 15.2572 7.5143 15.3434L4.48363 18.2471L6.46621 17.1018C6.57739 17.0385 6.70824 17.0192 6.83298 17.0476C6.95771 17.076 7.06728 17.1501 7.1401 17.2553C7.21292 17.3604 7.2437 17.4891 7.22639 17.6158C7.20907 17.7426 7.14491 17.8583 7.04654 17.9401L6.38944 18.4805L6.46416 18.4385C6.57218 18.3754 6.69959 18.354 6.82231 18.3784C6.94502 18.4028 7.05454 18.4714 7.13016 18.571C7.20578 18.6707 7.24225 18.7947 7.23269 18.9194C7.22313 19.0442 7.1682 19.1611 7.07827 19.2481L5.04043 21.2338L6.70673 20.2716C6.8124 20.2108 6.93631 20.1897 7.05615 20.2122C7.17599 20.2346 7.28388 20.2991 7.3604 20.394C7.43693 20.4889 7.47705 20.608 7.47355 20.7299C7.47005 20.8518 7.42316 20.9684 7.34132 21.0587L5.06397 23.5694L7.30754 22.2747C7.41581 22.2095 7.54436 22.1867 7.66844 22.2106C7.79253 22.2346 7.90337 22.3036 7.97962 22.4043C8.05586 22.5051 8.09213 22.6305 8.08143 22.7565C8.07073 22.8824 8.01382 22.9999 7.92166 23.0863L6.55218 24.3975L7.93906 23.5971C8.04797 23.5372 8.17497 23.5189 8.29634 23.5458C8.41771 23.5726 8.52515 23.6428 8.59861 23.743C8.67206 23.8433 8.70651 23.9669 8.69551 24.0907C8.68451 24.2146 8.62883 24.3301 8.53885 24.4159L7.69341 25.1835L8.61459 24.6544C8.72015 24.5936 8.84396 24.5724 8.96373 24.5947C9.08351 24.617 9.1914 24.6813 9.268 24.776C9.34461 24.8708 9.3849 24.9897 9.38164 25.1115C9.37837 25.2333 9.33177 25.35 9.2502 25.4405L7.45698 27.4251L9.78857 26.0802C9.89871 26.017 10.0284 25.9971 10.1524 26.0242C10.2764 26.0513 10.3859 26.1235 10.4597 26.2269C10.5334 26.3302 10.5661 26.4573 10.5514 26.5834C10.5367 26.7095 10.4757 26.8256 10.3802 26.9092L10.0045 27.2357L10.6299 26.8744C10.7383 26.8081 10.8675 26.7845 10.9923 26.8081C11.1172 26.8318 11.2287 26.901 11.3053 27.0024C11.3819 27.1038 11.4181 27.23 11.4068 27.3566C11.3954 27.4831 11.3374 27.6009 11.244 27.6871L10.0967 28.7853L11.8459 27.7751C11.953 27.7141 12.0785 27.6938 12.1994 27.7179C12.3203 27.7421 12.4285 27.809 12.5039 27.9065C12.5794 28.004 12.6171 28.1255 12.6102 28.2486C12.6032 28.3717 12.5521 28.4881 12.4661 28.5765L10.938 30.1292L13.5347 28.6298C13.6449 28.5664 13.7748 28.5464 13.899 28.5736C14.0233 28.6007 14.1329 28.6732 14.2066 28.7768C14.2804 28.8804 14.3129 29.0078 14.2978 29.134C14.2828 29.2603 14.2212 29.3764 14.1253 29.4598L13.3842 30.1016L15.115 29.1057C15.2207 29.0442 15.3449 29.0226 15.4652 29.0447C15.5854 29.0669 15.6938 29.1313 15.7706 29.2265C15.8474 29.3216 15.8876 29.4411 15.884 29.5633C15.8803 29.6856 15.833 29.8024 15.7506 29.8928L13.5439 32.3298L18.7639 29.3176C18.8738 29.2538 19.0035 29.2333 19.1277 29.2599C19.252 29.2865 19.3619 29.3584 19.436 29.4615C19.5102 29.5647 19.5434 29.6918 19.529 29.818C19.5147 29.9443 19.4539 30.0607 19.3585 30.1446L17.0188 32.2111L23.5929 28.4158C23.7061 28.351 23.8397 28.3318 23.9666 28.3623C24.0934 28.3927 24.2038 28.4704 24.2753 28.5795C24.3468 28.6886 24.3739 28.8209 24.3511 28.9493C24.3283 29.0777 24.2574 29.1926 24.1527 29.2705L22.208 30.7034L35.6203 22.9645C35.7352 22.9011 35.8702 22.8842 35.9972 22.9175C36.1242 22.9507 36.2336 23.0314 36.3027 23.143C36.3718 23.2546 36.3954 23.3885 36.3686 23.517C36.3418 23.6456 36.2667 23.7589 36.1587 23.8335L30.6777 27.4681L35.5825 24.637C35.6969 24.5734 35.8313 24.556 35.9581 24.5885C36.085 24.6209 36.1945 24.7008 36.2643 24.8116C36.334 24.9224 36.3587 25.0557 36.3331 25.1841C36.3076 25.3125 36.2338 25.4262 36.127 25.5019L31.1342 28.9143L39.955 23.8233C40.0695 23.7536 40.2067 23.7316 40.3372 23.7621C40.4678 23.7925 40.5811 23.873 40.653 23.9861C40.7248 24.0993 40.7494 24.2361 40.7215 24.3672C40.6936 24.4982 40.6153 24.6131 40.5036 24.6871L34.5886 28.7812L43.3531 23.722C43.4672 23.6582 43.6015 23.6405 43.7282 23.6726C43.855 23.7047 43.9647 23.7841 44.0348 23.8945C44.1049 24.0049 44.13 24.1379 44.1051 24.2663C44.0801 24.3947 44.007 24.5086 43.9006 24.5848L35.3358 30.5458L46.3899 24.1662C46.5047 24.1018 46.6399 24.0841 46.7675 24.1169C46.895 24.1497 47.005 24.2303 47.0745 24.3421C47.1441 24.4538 47.168 24.5881 47.1411 24.717C47.1142 24.8459 47.0387 24.9595 46.9303 25.0341L32.734 34.5304C32.7463 34.5437 32.7575 34.5591 32.7698 34.5754C32.8434 34.6794 32.8756 34.8071 32.8601 34.9335C32.8446 35.06 32.7824 35.1761 32.6859 35.2591L29.0012 38.4321L31.3328 37.0892C31.4435 37.0259 31.5738 37.0063 31.6983 37.0341C31.8227 37.0619 31.9323 37.1352 32.0056 37.2396C32.0788 37.3439 32.1105 37.4719 32.0943 37.5984C32.0782 37.7249 32.0154 37.8408 31.9182 37.9234L29.3236 40.1076L30.8712 39.214C30.9837 39.1504 31.1161 39.1317 31.2419 39.1616C31.3676 39.1916 31.4774 39.2681 31.5491 39.3757C31.6208 39.4833 31.6491 39.614 31.6283 39.7416C31.6075 39.8692 31.5393 39.9843 31.4372 40.0636L30.9315 40.4494H30.9387C31.043 40.4495 31.1448 40.4814 31.2305 40.541C31.3162 40.6005 31.3816 40.6848 31.418 40.7826C31.4544 40.8804 31.4601 40.9869 31.4342 41.088C31.4084 41.1891 31.3523 41.2798 31.2734 41.3481L29.3676 42.996L30.5795 42.2969C30.69 42.2349 30.8197 42.2161 30.9433 42.2442C31.0669 42.2723 31.1757 42.3453 31.2486 42.449C31.3215 42.5527 31.3533 42.6798 31.3378 42.8056C31.3223 42.9314 31.2607 43.0471 31.1649 43.1301L30.0206 44.0973L30.6531 43.7329C30.764 43.6694 30.8946 43.6496 31.0193 43.6775C31.1439 43.7054 31.2537 43.7788 31.3269 43.8835C31.4002 43.9882 31.4316 44.1165 31.4151 44.2431C31.3986 44.3698 31.3352 44.4857 31.2376 44.5681L30.5999 45.1014L30.8619 44.9499C30.9692 44.888 31.0952 44.8672 31.2167 44.8911C31.3381 44.9151 31.4468 44.9823 31.5225 45.0802C31.5982 45.1782 31.6358 45.3003 31.6284 45.4239C31.621 45.5474 31.5691 45.6641 31.4822 45.7523L29.4914 47.7707L31.4095 46.6643C31.5159 46.6027 31.6409 46.5815 31.7617 46.6045C31.8825 46.6276 31.9909 46.6933 32.0672 46.7897C32.1434 46.8861 32.1825 47.0067 32.1771 47.1296C32.1718 47.2524 32.1224 47.3692 32.038 47.4585L30.1557 49.4626L32.2621 48.2456C32.371 48.1865 32.4977 48.1688 32.6185 48.196C32.7394 48.2231 32.8464 48.2932 32.9195 48.3932C32.9927 48.4933 33.027 48.6164 33.0163 48.7399C33.0055 48.8633 32.9503 48.9786 32.8609 49.0645L32.0851 49.7646L33.0062 49.2333C33.1113 49.1725 33.2346 49.1509 33.3541 49.1726C33.4736 49.1942 33.5815 49.2576 33.6585 49.3515C33.7355 49.4454 33.7767 49.5636 33.7745 49.685C33.7724 49.8064 33.7272 49.9232 33.647 50.0143L31.8333 52.0818L34.3726 50.6161C34.4798 50.5543 34.6057 50.5334 34.727 50.5573C34.8484 50.5811 34.957 50.6481 35.0328 50.7459C35.1086 50.8436 35.1464 50.9655 35.1392 51.089C35.1321 51.2125 35.0805 51.3292 34.9939 51.4175L33.5487 52.8884L35.7309 51.6284C35.8354 51.568 35.958 51.5466 36.0768 51.5678C36.1957 51.589 36.3032 51.6516 36.3804 51.7445C36.4575 51.8373 36.4994 51.9545 36.4985 52.0752C36.4977 52.1959 36.4542 52.3125 36.3757 52.4042L34.5139 54.5772L37.8086 52.6755C37.9188 52.6113 38.0489 52.5906 38.1736 52.6173C38.2982 52.6441 38.4084 52.7164 38.4825 52.8201C38.5567 52.9238 38.5894 53.0514 38.5744 53.178C38.5593 53.3046 38.4976 53.4211 38.4012 53.5045L37.6193 54.1862L39.392 53.1627C39.5035 53.0996 39.6347 53.0806 39.7595 53.1096C39.8843 53.1385 39.9938 53.2132 40.0662 53.3189C40.1386 53.4246 40.1687 53.5537 40.1506 53.6805C40.1324 53.8074 40.0674 53.9228 39.9683 54.004L39.8444 54.1063L41.0163 53.4298C41.1278 53.3647 41.2598 53.3441 41.3858 53.3722C41.5118 53.4003 41.6225 53.4749 41.6958 53.5812C41.7691 53.6875 41.7995 53.8176 41.7809 53.9453C41.7623 54.0731 41.6962 54.1891 41.5957 54.2701L41.003 54.7502L43.2855 53.4329C43.3968 53.3693 43.5279 53.3498 43.6529 53.3783C43.7779 53.4067 43.8877 53.4811 43.9605 53.5865C44.0333 53.692 44.0639 53.821 44.0462 53.948C44.0285 54.0749 43.9637 54.1906 43.8648 54.2722L42.5475 55.3448L59.404 45.6121C59.5197 45.5475 59.6559 45.5302 59.784 45.5639C59.9122 45.5977 60.0222 45.6798 60.091 45.793C60.1598 45.9063 60.1821 46.0418 60.153 46.1711C60.1239 46.3003 60.0459 46.4133 59.9352 46.4862L58.8779 47.1607L58.9884 47.0962C59.1029 47.0308 59.2383 47.0121 59.3662 47.044C59.4942 47.0759 59.6049 47.1559 59.6753 47.2675C59.7456 47.379 59.7702 47.5134 59.7439 47.6427C59.7176 47.7719 59.6424 47.886 59.534 47.9611L52.5801 52.7359L57.924 49.6509C58.039 49.5855 58.1749 49.5672 58.3031 49.5998C58.4314 49.6324 58.542 49.7134 58.6118 49.8259C58.6816 49.9383 58.7051 50.0734 58.6774 50.2028C58.6498 50.3322 58.5731 50.4459 58.4634 50.5199L56.8923 51.568C56.993 51.5466 57.0979 51.5555 57.1936 51.5938C57.2893 51.6321 57.3714 51.6979 57.4296 51.7829C57.502 51.891 57.5305 52.0225 57.5094 52.1509C57.4883 52.2792 57.4192 52.3947 57.316 52.4738L53.9496 55.0654C54.0162 55.0823 54.0786 55.1123 54.1333 55.1538C54.188 55.1953 54.2338 55.2474 54.2679 55.3069C54.3355 55.4244 54.3537 55.5638 54.3186 55.6947C54.2835 55.8255 54.1979 55.9371 54.0806 56.005L48.6498 59.1411C48.5374 59.2043 48.4053 59.2228 48.2799 59.1928C48.1545 59.1629 48.045 59.0867 47.9733 58.9794C47.9017 58.8722 47.8731 58.7419 47.8934 58.6146C47.9137 58.4872 47.9813 58.3722 48.0828 58.2926L50.5832 56.3663L44.0624 60.1319C43.9473 60.1973 43.8114 60.2156 43.6832 60.183C43.5549 60.1504 43.4443 60.0693 43.3745 59.9569C43.3047 59.8445 43.2812 59.7094 43.3089 59.58C43.3366 59.4506 43.4133 59.3369 43.523 59.2629L44.8044 58.4072L41.7512 60.1697C41.6732 60.2147 41.5845 60.2381 41.4943 60.2373Z" fill="#478CFF"/>
<path d="M48.3752 57.4573C48.2683 57.456 48.1645 57.4213 48.0784 57.358C47.9922 57.2948 47.928 57.2061 47.8948 57.1045C47.8617 57.0029 47.8611 56.8934 47.8933 56.7915C47.9255 56.6896 47.9888 56.6003 48.0743 56.5361L50.193 55.0008L46.236 57.2843C46.1213 57.3497 45.9857 57.3682 45.8576 57.336C45.7295 57.3037 45.6189 57.2231 45.5488 57.1112C45.4788 56.9992 45.4547 56.8645 45.4817 56.7352C45.5087 56.6059 45.5846 56.492 45.6936 56.4174L46.4326 55.92L44.5902 56.9844C44.4754 57.0463 44.3413 57.0619 44.2153 57.0282C44.0893 56.9945 43.9809 56.914 43.9123 56.803C43.8437 56.6921 43.82 56.5591 43.8462 56.4314C43.8723 56.3036 43.9462 56.1906 44.0529 56.1155L44.8942 55.5597L43.144 56.5699C43.0554 56.6208 42.9537 56.644 42.8518 56.6366C42.7499 56.6292 42.6526 56.5915 42.5724 56.5283C42.4921 56.4651 42.4326 56.3794 42.4015 56.2821C42.3704 56.1848 42.3691 56.0804 42.3978 55.9824L42.7049 54.9272L41.1921 55.7992C41.1157 55.8434 41.0291 55.8671 40.9408 55.8679C40.8524 55.8688 40.7654 55.8467 40.6881 55.804C40.6109 55.7612 40.546 55.6992 40.4998 55.6239C40.4536 55.5486 40.4276 55.4627 40.4245 55.3744L40.4009 54.6784L39.7489 55.0551C39.6821 55.0937 39.6074 55.1167 39.5304 55.1224C39.4534 55.128 39.3761 55.1162 39.3043 55.0877C39.2325 55.0593 39.1681 55.015 39.1159 54.9581C39.0637 54.9012 39.025 54.8332 39.0028 54.7593L38.8431 54.2281L38.6067 54.3642C38.5123 54.4186 38.4031 54.4415 38.2949 54.4295C38.1866 54.4175 38.085 54.3714 38.0049 54.2977L36.7766 53.1718C36.6928 53.1992 36.6032 53.2041 36.5168 53.1862C36.4305 53.1682 36.3503 53.128 36.2843 53.0695L35.1983 52.135C35.1121 52.0922 35.0408 52.0244 34.9936 51.9405C34.9593 51.8838 34.9367 51.8208 34.9271 51.7552C34.9175 51.6896 34.9211 51.6228 34.9377 51.5586C34.9543 51.4944 34.9835 51.4342 35.0237 51.3815C35.0639 51.3288 35.1142 51.2847 35.1717 51.2517L35.2024 51.2343C35.2941 51.1825 35.3995 51.1602 35.5042 51.1704C35.609 51.1807 35.7081 51.223 35.7879 51.2916L36.6845 52.0623C36.7718 52.0309 36.8661 52.0238 36.9571 52.0418C37.0482 52.0599 37.1326 52.1023 37.2014 52.1647L38.4214 53.2854L38.8933 53.0132C38.9601 52.9747 39.0347 52.9519 39.1116 52.9463C39.1885 52.9408 39.2656 52.9527 39.3373 52.9811C39.4089 53.0096 39.4732 53.0538 39.5254 53.1106C39.5775 53.1674 39.6161 53.2352 39.6384 53.309L39.7991 53.8402L40.623 53.3632C40.6995 53.319 40.7861 53.2953 40.8744 53.2945C40.9627 53.2936 41.0497 53.3157 41.127 53.3584C41.2043 53.4012 41.2692 53.4632 41.3154 53.5385C41.3616 53.6138 41.3875 53.6997 41.3907 53.788L41.4152 54.484L43.2985 53.397C43.3872 53.3459 43.4891 53.3226 43.5911 53.3301C43.6931 53.3375 43.7905 53.3753 43.8708 53.4387C43.9511 53.502 44.0106 53.588 44.0416 53.6854C44.0726 53.7829 44.0737 53.8874 44.0447 53.9855L43.7376 55.0408L59.3116 46.0491C59.4265 45.9856 59.5614 45.9688 59.6884 46.002C59.8154 46.0352 59.9248 46.116 59.994 46.2276C60.0631 46.3392 60.0867 46.4731 60.0599 46.6016C60.0331 46.7301 59.958 46.8434 59.85 46.9181L58.9145 47.5322C59.032 47.4859 59.1624 47.4846 59.2808 47.5287C59.3992 47.5728 59.497 47.6591 59.5556 47.771C59.6141 47.8829 59.6293 48.0125 59.598 48.1349C59.5668 48.2573 59.4914 48.3638 59.3863 48.4339L58.3218 49.1504C58.4362 49.1275 58.5549 49.1444 58.6583 49.1982C58.7618 49.252 58.8437 49.3395 58.8906 49.4463C58.9376 49.553 58.9466 49.6726 58.9163 49.7852C58.8861 49.8977 58.8182 49.9966 58.7241 50.0654L56.6044 51.6007L56.892 51.4349C57.0033 51.3701 57.135 51.3498 57.2607 51.3778C57.3864 51.4059 57.4969 51.4803 57.5702 51.5862C57.6434 51.6922 57.674 51.8218 57.6559 51.9494C57.6378 52.0769 57.5722 52.1929 57.4723 52.2742L55.3905 53.9835C55.4614 54.0325 55.5188 54.0987 55.5573 54.1759C55.5958 54.2531 55.6142 54.3388 55.6107 54.425C55.6072 54.5112 55.582 54.5951 55.5374 54.6689C55.4929 54.7427 55.4303 54.8041 55.3557 54.8473L51.8931 56.8534C51.7819 56.9167 51.651 56.936 51.5263 56.9076C51.4016 56.8792 51.292 56.8051 51.2192 56.7C51.1464 56.5948 51.1156 56.4661 51.1329 56.3394C51.1502 56.2126 51.2144 56.097 51.3127 56.0152L52.0118 55.4399L48.6342 57.3928C48.5552 57.4373 48.4658 57.4595 48.3752 57.4573Z" fill="#478CFF"/>
<path d="M50.3179 51.3818C50.2095 51.382 50.1038 51.3478 50.0161 51.2842C49.9283 51.2205 49.8631 51.1306 49.8297 51.0275C49.7964 50.9243 49.7966 50.8133 49.8305 50.7103C49.8643 50.6073 49.93 50.5177 50.018 50.4544L52.5266 48.6377C52.4248 48.6267 52.3287 48.5854 52.2506 48.5191C52.1725 48.4529 52.1161 48.3647 52.0887 48.2661C52.0612 48.1674 52.064 48.0628 52.0966 47.9657C52.1293 47.8687 52.1903 47.7836 52.2718 47.7216L53.6136 46.6981C53.514 46.7186 53.4106 46.7092 53.3163 46.6711C53.222 46.6331 53.141 46.568 53.0834 46.4842C53.0111 46.3769 52.9821 46.2462 53.0022 46.1184C53.0223 45.9906 53.0901 45.8752 53.1919 45.7953L54.151 45.0431C54.0385 45.0796 53.9168 45.076 53.8066 45.0329C53.6965 44.9899 53.6046 44.91 53.5467 44.8068C53.4888 44.7037 53.4684 44.5837 53.489 44.4672C53.5096 44.3507 53.5699 44.245 53.6597 44.1679L55.3843 42.6971L54.4959 43.2089C54.3858 43.272 54.2561 43.292 54.1321 43.2649C54.0081 43.2378 53.8985 43.1655 53.8248 43.0622C53.7511 42.9588 53.7184 42.8318 53.7331 42.7057C53.7478 42.5796 53.8088 42.4635 53.9043 42.3798L55.3372 41.1383L54.4939 41.6235C54.3832 41.6857 54.2533 41.7046 54.1295 41.6764C54.0057 41.6482 53.8967 41.575 53.8239 41.471C53.751 41.367 53.7194 41.2397 53.7352 41.1137C53.751 40.9877 53.8131 40.8721 53.9094 40.7893L54.5645 40.2407L54.3362 40.3717C54.2302 40.4332 54.1057 40.4546 53.9852 40.4321C53.8648 40.4096 53.7564 40.3446 53.6798 40.2489C53.6032 40.1532 53.5635 40.0332 53.5679 39.9108C53.5723 39.7883 53.6205 39.6715 53.7037 39.5815L56.0322 37.0534L53.7907 38.3471C53.6799 38.4096 53.5498 38.4286 53.4257 38.4004C53.3017 38.3721 53.1926 38.2987 53.1198 38.1944C53.0469 38.0902 53.0155 37.9625 53.0317 37.8363C53.0479 37.7101 53.1105 37.5945 53.2073 37.512L53.369 37.3758C53.2601 37.4357 53.1331 37.454 53.0117 37.4271C52.8904 37.4003 52.7829 37.3301 52.7095 37.2299C52.636 37.1296 52.6016 37.006 52.6126 36.8822C52.6236 36.7584 52.6792 36.6428 52.7692 36.557L54.3414 34.9859L52.6177 35.9808C52.5129 36.041 52.3901 36.0622 52.2711 36.0406C52.1521 36.019 52.0446 35.9559 51.9677 35.8625C51.8908 35.7692 51.8494 35.6516 51.8509 35.5307C51.8525 35.4097 51.8968 35.2932 51.976 35.2019L53.9268 32.9583L51.4008 34.4158C51.2918 34.4791 51.1632 34.4999 51.0398 34.4743C50.9163 34.4487 50.8067 34.3784 50.7319 34.277C50.6571 34.1755 50.6223 34.05 50.6343 33.9245C50.6463 33.7991 50.7042 33.6824 50.7969 33.597L51.7467 32.7188L50.4407 33.4721C50.3307 33.5341 50.2017 33.5532 50.0784 33.5258C49.9552 33.4985 49.8464 33.4265 49.773 33.3238C49.6996 33.221 49.6668 33.0948 49.6808 32.9693C49.6949 32.8439 49.7548 32.728 49.8491 32.6441L50.3209 32.2346L49.4673 32.727C49.3567 32.79 49.2266 32.8095 49.1024 32.7818C48.9782 32.754 48.8687 32.681 48.7955 32.5769C48.7222 32.4728 48.6903 32.3452 48.7061 32.2189C48.7219 32.0926 48.7842 31.9767 48.8808 31.8938L49.1347 31.6789L48.4182 32.0883C48.3126 32.1491 48.1888 32.1703 48.0691 32.148C47.9493 32.1257 47.8414 32.0614 47.7648 31.9666C47.6882 31.8719 47.6479 31.7529 47.6512 31.6311C47.6544 31.5093 47.701 31.3927 47.7826 31.3022L49.6751 29.2081L46.147 31.2439C46.0409 31.3054 45.9163 31.3268 45.7957 31.3041C45.6752 31.2815 45.5668 31.2163 45.4903 31.1204C45.4138 31.0246 45.3743 30.9044 45.3789 30.7819C45.3835 30.6593 45.432 30.5425 45.5155 30.4527L47.6751 28.117L42.7827 30.9481C42.6704 31.0122 42.538 31.0314 42.4121 31.0018C42.2863 30.9723 42.1762 30.8962 42.1041 30.7889C42.0321 30.6816 42.0033 30.5509 42.0236 30.4232C42.0439 30.2956 42.1118 30.1803 42.2136 30.1006L42.7827 29.6533L39.9608 31.2828C39.8503 31.3448 39.7206 31.3636 39.597 31.3355C39.4734 31.3074 39.3646 31.2344 39.2917 31.1307C39.2188 31.027 39.187 30.8999 39.2025 30.7741C39.2179 30.6482 39.2795 30.5326 39.3754 30.4496L42.2709 28.0085L33.4184 33.119C33.3065 33.1844 33.1738 33.2049 33.0473 33.1763C32.9209 33.1477 32.8099 33.0721 32.737 32.9649C32.6641 32.8577 32.6346 32.7267 32.6545 32.5986C32.6744 32.4705 32.7422 32.3546 32.8442 32.2746L38.1031 28.117L34.3846 30.2664C34.2756 30.3327 34.1457 30.3559 34.0204 30.3314C33.8952 30.3069 33.7836 30.2364 33.7076 30.1339C33.6316 30.0314 33.5967 29.9041 33.6096 29.7772C33.6226 29.6502 33.6825 29.5326 33.7777 29.4476L36.49 26.8888L35.228 27.6165C35.129 27.6719 35.0144 27.6928 34.9022 27.676C34.79 27.6592 34.6865 27.6055 34.6081 27.5235C34.5297 27.4415 34.4808 27.3357 34.4691 27.2229C34.4573 27.11 34.4835 26.9964 34.5433 26.9L35.1891 25.9072C35.1145 25.8603 35.0533 25.7948 35.0114 25.7173C34.9695 25.6397 34.9484 25.5527 34.95 25.4645C34.9517 25.3764 34.9761 25.2902 35.0208 25.2142C35.0656 25.1383 35.1292 25.0752 35.2055 25.0311L36.1983 24.4569C36.2978 24.3997 36.4137 24.3776 36.5273 24.3942C36.6408 24.4108 36.7455 24.4651 36.8245 24.5483C36.9035 24.6316 36.9523 24.739 36.9629 24.8533C36.9735 24.9675 36.9454 25.0821 36.8831 25.1785L36.5658 25.6687L39.7766 23.8141C39.8856 23.7478 40.0155 23.7246 40.1408 23.7491C40.266 23.7736 40.3776 23.8441 40.4536 23.9466C40.5296 24.0491 40.5646 24.1764 40.5516 24.3034C40.5386 24.4303 40.4787 24.5479 40.3835 24.6329L37.6722 27.1917L43.6731 23.7271C43.7853 23.6596 43.919 23.6376 44.0468 23.6657C44.1746 23.6938 44.2869 23.7698 44.3604 23.878C44.4339 23.9863 44.4632 24.1186 44.4422 24.2478C44.4211 24.377 44.3514 24.4932 44.2473 24.5725L38.9956 28.7209L46.7621 24.2368C46.8729 24.1736 47.0032 24.1539 47.1277 24.1817C47.2521 24.2095 47.3617 24.2828 47.4349 24.3872C47.5082 24.4915 47.5398 24.6195 47.5237 24.746C47.5075 24.8725 47.4447 24.9884 47.3476 25.071L44.4531 27.5111L48.8686 24.9625C48.9808 24.8984 49.1132 24.8792 49.2391 24.9087C49.365 24.9383 49.475 25.0143 49.5471 25.1217C49.6192 25.229 49.6479 25.3596 49.6276 25.4873C49.6073 25.615 49.5395 25.7303 49.4376 25.81L48.8634 26.2542L50.0917 25.5459C50.1978 25.4844 50.3224 25.463 50.443 25.4857C50.5635 25.5083 50.6719 25.5735 50.7484 25.6694C50.8249 25.7652 50.8644 25.8854 50.8598 26.0079C50.8552 26.1305 50.8067 26.2473 50.7232 26.3371L48.5635 28.6718L51.9709 26.7056C52.0764 26.6447 52.2002 26.6236 52.32 26.6459C52.4398 26.6682 52.5477 26.7325 52.6243 26.8272C52.7009 26.922 52.7412 27.0409 52.7379 27.1627C52.7347 27.2845 52.688 27.4011 52.6065 27.4916L50.716 29.5899L53.5553 27.9522C53.666 27.8879 53.7969 27.8674 53.922 27.8948C54.0471 27.9222 54.1574 27.9956 54.2311 28.1004C54.3047 28.2051 54.3364 28.3337 54.3199 28.4607C54.3034 28.5878 54.2398 28.704 54.1418 28.7864L53.8869 29.0013L54.3854 28.7137C54.4955 28.6506 54.6252 28.6306 54.7492 28.6577C54.8732 28.6849 54.9827 28.7571 55.0565 28.8604C55.1302 28.9638 55.1629 29.0908 55.1482 29.2169C55.1335 29.343 55.0725 29.4592 54.977 29.5428L54.5061 29.9522L55.2062 29.5489C55.3152 29.4856 55.4438 29.4648 55.5672 29.4904C55.6907 29.516 55.8003 29.5863 55.8751 29.6877C55.9499 29.7892 55.9847 29.9147 55.9727 30.0402C55.9607 30.1656 55.9028 30.2823 55.8101 30.3677L54.8582 31.248L56.0691 30.5489C56.1739 30.4886 56.2967 30.4674 56.4157 30.4891C56.5347 30.5107 56.6422 30.5738 56.7191 30.6671C56.796 30.7605 56.8374 30.8781 56.8359 30.999C56.8344 31.1199 56.79 31.2364 56.7108 31.3278L54.7579 33.5683L57.2031 32.1569C57.3106 32.0971 57.4361 32.0781 57.5565 32.1033C57.6768 32.1284 57.7841 32.1961 57.8587 32.2939C57.9333 32.3917 57.9701 32.5131 57.9625 32.6359C57.9549 32.7586 57.9033 32.8745 57.8172 32.9624L56.2441 34.5304L57.9738 33.5325C58.0848 33.4687 58.2157 33.4488 58.3406 33.4767C58.4655 33.5046 58.5754 33.5783 58.6486 33.6833C58.7219 33.7883 58.7531 33.9169 58.7362 34.0438C58.7193 34.1707 58.6554 34.2866 58.5573 34.3687L58.3986 34.5007L58.4232 34.4874C58.529 34.4266 58.6532 34.4057 58.7731 34.4284C58.8931 34.451 59.001 34.5159 59.0774 34.6111C59.1537 34.7064 59.1935 34.8258 59.1896 34.9479C59.1856 35.0699 59.1381 35.1865 59.0557 35.2766L56.7272 37.8057L59.1325 36.4168C59.2433 36.3533 59.3739 36.3335 59.4986 36.3613C59.6233 36.3892 59.733 36.4627 59.8063 36.5674C59.8795 36.6721 59.9109 36.8003 59.8944 36.927C59.8779 37.0537 59.8146 37.1696 59.7169 37.252L59.066 37.7975L59.4436 37.5795C59.5539 37.5151 59.6843 37.4943 59.8092 37.5211C59.934 37.5479 60.0443 37.6204 60.1185 37.7244C60.1926 37.8284 60.2251 37.9564 60.2097 38.0831C60.1943 38.2099 60.1321 38.3264 60.0352 38.4096L58.6023 39.6542L59.7097 39.0155C59.8202 38.9527 59.9501 38.9333 60.0741 38.961C60.1981 38.9886 60.3074 39.0615 60.3807 39.1653C60.454 39.2691 60.486 39.3964 60.4706 39.5225C60.4552 39.6487 60.3934 39.7646 60.2973 39.8476L58.5747 41.3174L59.8704 40.5692C59.9825 40.5047 60.1148 40.485 60.2408 40.514C60.3669 40.5431 60.4772 40.6188 60.5497 40.7259C60.6221 40.833 60.6514 40.9635 60.6315 41.0913C60.6117 41.2191 60.5442 41.3346 60.4426 41.4147L59.546 42.1168L59.8899 41.9182C60.0026 41.8527 60.1361 41.8326 60.2631 41.8621C60.3901 41.8916 60.501 41.9685 60.5733 42.0771C60.6455 42.1856 60.6736 42.3176 60.6518 42.4462C60.63 42.5748 60.5599 42.6901 60.4559 42.7688L59.2666 43.6756L59.806 43.3686C59.9193 43.3055 60.0524 43.2878 60.1783 43.3191C60.3042 43.3504 60.4135 43.4284 60.4841 43.5372C60.5547 43.6461 60.5814 43.7777 60.5586 43.9054C60.5359 44.0331 60.4655 44.1474 60.3617 44.2253L58.6248 45.4821L59.5726 44.9346C59.6308 44.8975 59.696 44.8727 59.7641 44.8615C59.8322 44.8503 59.9019 44.853 59.9689 44.8694C60.0359 44.8858 60.099 44.9156 60.1542 44.957C60.2094 44.9984 60.2557 45.0506 60.2902 45.1103C60.3248 45.1701 60.3469 45.2362 60.3552 45.3047C60.3635 45.3733 60.3579 45.4427 60.3386 45.509C60.3194 45.5753 60.287 45.637 60.2433 45.6905C60.1996 45.7439 60.1455 45.7879 60.0844 45.8199L50.5738 51.3162C50.4958 51.3604 50.4075 51.383 50.3179 51.3818Z" fill="#478CFF"/>
<path d="M25.5269 9.08239C25.4051 9.0849 25.2865 9.04306 25.1932 8.96468L24.5013 8.35056C24.4169 8.36756 24.3295 8.36327 24.2471 8.33807C24.1648 8.31288 24.09 8.26757 24.0295 8.20625L23.4 7.55938L23.2629 7.63921C23.1625 7.69703 23.0455 7.7191 22.931 7.70181C22.8164 7.68452 22.7112 7.6289 22.6324 7.54402L21.5556 6.38335L20.6129 6.92786C20.5344 6.97324 20.4452 6.99692 20.3545 6.99648C20.2638 6.99604 20.1748 6.97149 20.0967 6.92536C20.0186 6.87922 19.9541 6.81316 19.91 6.73392C19.8658 6.65469 19.8435 6.56514 19.8453 6.47444L19.8545 5.96268L18.3847 6.81016C18.2883 6.86571 18.1764 6.88832 18.0659 6.87456C17.9555 6.8608 17.8526 6.81141 17.7727 6.73388C17.6929 6.65635 17.6405 6.55491 17.6235 6.44493C17.6065 6.33494 17.6258 6.22242 17.6785 6.12439L17.8259 5.85009L15.1709 7.38538C15.0539 7.44656 14.9178 7.46019 14.7911 7.42341C14.6643 7.38663 14.5566 7.3023 14.4906 7.18802C14.4245 7.07374 14.4052 6.93836 14.4366 6.81016C14.468 6.68195 14.5477 6.57084 14.6591 6.50003L18.874 4.06711C18.9706 4.01096 19.0829 3.98798 19.1938 4.00165C19.3047 4.01533 19.408 4.06492 19.4881 4.14285C19.569 4.22071 19.622 4.32301 19.639 4.43398C19.656 4.54495 19.6361 4.65844 19.5823 4.75696L19.4338 5.03127L20.1298 4.63005C20.2084 4.58467 20.2976 4.56099 20.3883 4.56143C20.479 4.56187 20.568 4.58641 20.6461 4.63255C20.7242 4.67868 20.7886 4.74475 20.8328 4.82399C20.877 4.90322 20.8993 4.99277 20.8975 5.08347L20.8872 5.59523L21.399 5.29943C21.4996 5.24147 21.6169 5.21942 21.7316 5.23691C21.8464 5.25439 21.9518 5.31036 22.0305 5.39564L23.1052 6.55223L23.2352 6.47751C23.3339 6.42076 23.4486 6.3985 23.5613 6.41426C23.674 6.43001 23.7782 6.48288 23.8575 6.56451L24.5116 7.23799C24.5846 7.2288 24.6587 7.23498 24.7292 7.25613C24.7997 7.27728 24.8651 7.31294 24.921 7.36081L25.7869 8.12334C25.8654 8.16477 25.9317 8.22612 25.9791 8.30125C26.0265 8.37638 26.0533 8.46263 26.0568 8.55138C26.0603 8.64013 26.0404 8.72824 25.9992 8.80688C25.9579 8.88553 25.8967 8.95195 25.8217 8.99948C25.7327 9.05324 25.6308 9.08189 25.5269 9.08239Z" fill="#478CFF"/>
<path d="M19.0649 36.6593C18.9575 36.6593 18.8529 36.6255 18.7657 36.5627C18.6786 36.4999 18.6134 36.4112 18.5794 36.3093C18.5455 36.2074 18.5444 36.0974 18.5765 35.9949C18.6085 35.8924 18.672 35.8025 18.7579 35.7381L20.5317 34.3758L16.847 36.5016C16.7334 36.5631 16.6008 36.5794 16.4758 36.5473C16.3507 36.5151 16.2425 36.4369 16.1727 36.3283C16.1029 36.2196 16.0767 36.0886 16.0995 35.9615C16.1222 35.8344 16.1922 35.7206 16.2953 35.6429L18.415 34.1363L14.8634 36.1833C14.7505 36.2471 14.6176 36.2656 14.4916 36.2352C14.3656 36.2047 14.2558 36.1276 14.1844 36.0193C14.1131 35.9111 14.0855 35.7798 14.1072 35.652C14.1289 35.5241 14.1984 35.4093 14.3015 35.3307L16.6996 33.5324L13.0292 35.6562C12.918 35.7195 12.7872 35.7388 12.6624 35.7104C12.5377 35.682 12.4281 35.6079 12.3553 35.5027C12.2825 35.3976 12.2517 35.2689 12.269 35.1422C12.2864 35.0154 12.3505 34.8997 12.4489 34.8179L14.3485 33.2612L11.3998 34.9633C11.2914 35.0296 11.1622 35.0532 11.0374 35.0296C10.9125 35.0059 10.8009 34.9367 10.7243 34.8353C10.6477 34.7339 10.6116 34.6077 10.6229 34.4811C10.6342 34.3546 10.6922 34.2368 10.7856 34.1506L12.7856 32.2407L9.71504 34.0186C9.60957 34.0794 9.48587 34.1006 9.36616 34.0785C9.24644 34.0563 9.13855 33.9922 9.06186 33.8976C8.98518 33.803 8.94471 33.6842 8.94775 33.5625C8.95078 33.4408 8.9971 33.3242 9.0784 33.2335L11.0681 31.0145L7.99756 32.7852C7.88752 32.8492 7.7576 32.8698 7.63316 32.8431C7.50872 32.8164 7.39869 32.7443 7.32454 32.6409C7.25038 32.5375 7.21743 32.4101 7.23211 32.2837C7.24678 32.1573 7.30804 32.0409 7.40391 31.9572L8.09172 31.3543L7.03749 31.9623C6.93244 32.0225 6.80943 32.0436 6.69034 32.0217C6.57124 31.9997 6.46378 31.9363 6.38704 31.8426C6.31031 31.749 6.26928 31.6311 6.27125 31.51C6.27321 31.389 6.31805 31.2725 6.39779 31.1814L8.23092 29.0944L5.6588 30.5785C5.55426 30.6382 5.432 30.6592 5.31352 30.6377C5.19505 30.6162 5.08795 30.5536 5.01105 30.461C4.93416 30.3683 4.89241 30.2515 4.89313 30.1311C4.89385 30.0107 4.93701 29.8944 5.015 29.8027L6.93002 27.5847L4.41522 29.035C4.30618 29.1003 4.17676 29.1226 4.05214 29.0977C3.92753 29.0728 3.81664 29.0025 3.74105 28.9003C3.66546 28.7982 3.63058 28.6715 3.64319 28.5451C3.6558 28.4186 3.71501 28.3014 3.80929 28.2162L4.96076 27.1282L3.65679 27.8815C3.54965 27.9433 3.42375 27.9642 3.30239 27.9403C3.18103 27.9165 3.07242 27.8495 2.99664 27.7517C2.92086 27.654 2.88305 27.5321 2.89019 27.4086C2.89734 27.2852 2.94896 27.1684 3.03551 27.0801L4.7407 25.3401L2.8656 26.4271C2.76003 26.4879 2.63623 26.5091 2.51645 26.4868C2.39668 26.4645 2.28879 26.4002 2.21218 26.3054C2.13558 26.2107 2.09528 26.0917 2.09855 25.9699C2.10181 25.8481 2.14842 25.7315 2.22999 25.641L4.50324 23.1201L2.07544 24.5213C1.96557 24.5831 1.83675 24.6022 1.71368 24.5749C1.59061 24.5476 1.48194 24.4758 1.40851 24.3733C1.33508 24.2709 1.30206 24.1449 1.31577 24.0196C1.32948 23.8943 1.38896 23.7784 1.48282 23.6943L2.55035 22.7598L1.69366 23.2531C1.58499 23.3172 1.45627 23.3384 1.3328 23.3124C1.20932 23.2865 1.10001 23.2153 1.02632 23.1129C0.951842 23.0116 0.917248 22.8865 0.929141 22.7613C0.941034 22.6361 0.998581 22.5197 1.09081 22.4343L2.98945 20.6841L1.34157 21.636C1.23254 21.7002 1.10357 21.7218 0.979563 21.6965C0.855556 21.6713 0.745309 21.6009 0.670111 21.4991C0.594913 21.3974 0.560099 21.2713 0.57239 21.1454C0.584681 21.0194 0.643207 20.9025 0.736665 20.8171L3.33335 18.4047L1.12253 19.682C1.01201 19.747 0.881147 19.768 0.755825 19.7411C0.630503 19.7142 0.519848 19.6412 0.445746 19.5366C0.371644 19.432 0.33949 19.3034 0.355644 19.1763C0.371798 19.0491 0.435083 18.9327 0.532983 18.8499L3.26682 16.505L1.11742 17.7445C1.00399 17.809 0.870206 17.8278 0.743413 17.7969C0.616621 17.7661 0.5064 17.688 0.435289 17.5786C0.364178 17.4691 0.337548 17.3367 0.360844 17.2083C0.38414 17.0799 0.455602 16.9653 0.560619 16.8878L1.02325 16.5511C0.910379 16.5613 0.797295 16.5338 0.70174 16.4729C0.606185 16.4119 0.533566 16.321 0.495276 16.2143C0.456985 16.1076 0.45519 15.9913 0.490171 15.8835C0.525152 15.7757 0.59493 15.6825 0.688559 15.6186L6.77342 11.4682L1.61076 14.4518C1.49709 14.5161 1.36317 14.5344 1.2364 14.5032C1.10964 14.4719 0.999619 14.3934 0.928864 14.2836C0.858108 14.1739 0.831969 14.0413 0.855794 13.9129C0.87962 13.7845 0.951611 13.6701 1.05703 13.5931L7.09583 9.2738L2.40297 11.9831C2.28864 12.0476 2.15388 12.0658 2.02655 12.0338C1.89922 12.0017 1.78907 11.922 1.71887 11.8111C1.64867 11.7001 1.6238 11.5664 1.6494 11.4377C1.675 11.3089 1.74911 11.1949 1.8564 11.1192L3.20439 10.1919C3.0931 10.2377 2.96923 10.2428 2.85454 10.2064C2.73986 10.1699 2.64169 10.0942 2.5773 9.9925C2.5129 9.89083 2.48639 9.76972 2.50243 9.65045C2.51847 9.53118 2.57602 9.42138 2.66499 9.34033L5.88705 6.35573C5.77472 6.35534 5.66564 6.318 5.57664 6.24948C5.48763 6.18096 5.42364 6.08505 5.39454 5.97656C5.36544 5.86807 5.37284 5.75301 5.4156 5.64914C5.45837 5.54527 5.53412 5.45836 5.63117 5.4018L9.10092 3.39979C9.20993 3.33648 9.33848 3.31563 9.46191 3.34124C9.58534 3.36686 9.69498 3.43713 9.7698 3.53858C9.84462 3.64003 9.87937 3.76554 9.86737 3.89103C9.85538 4.01652 9.79749 4.13316 9.7048 4.21861L6.7028 6.99748L13.8214 2.88802C13.9359 2.82258 14.0713 2.80385 14.1992 2.83576C14.3272 2.86767 14.4379 2.94775 14.5082 3.05929C14.5786 3.17084 14.6032 3.30524 14.5769 3.43446C14.5505 3.56369 14.4753 3.67777 14.367 3.7529L13.0671 4.64747L15.7016 3.12651C15.8153 3.06227 15.9492 3.0439 16.076 3.07517C16.2028 3.10644 16.3128 3.18498 16.3835 3.29471C16.4543 3.40444 16.4804 3.53706 16.4566 3.66543C16.4328 3.7938 16.3608 3.90821 16.2554 3.98524L10.2166 8.30248L18.0762 3.76314C18.1909 3.69659 18.3269 3.67714 18.4556 3.70889C18.5844 3.74063 18.6957 3.8211 18.7663 3.93333C18.8369 4.04557 18.8612 4.18081 18.834 4.31059C18.8069 4.44036 18.7304 4.55452 18.6207 4.62904L9.09376 11.1284C9.14184 11.1638 9.18282 11.2079 9.21453 11.2584C9.28572 11.3682 9.31213 11.5012 9.28834 11.6298C9.26454 11.7585 9.19234 11.8732 9.08659 11.9503L7.90954 12.807C8.00122 12.8291 8.08502 12.8761 8.15169 12.9428C8.21836 13.0095 8.26529 13.0933 8.28732 13.185C8.30934 13.2767 8.3056 13.3727 8.2765 13.4624C8.2474 13.5522 8.19409 13.6321 8.12243 13.6934L5.3845 16.0403L6.73862 15.2594C6.84765 15.1951 6.97662 15.1736 7.10063 15.1988C7.22464 15.2241 7.33488 15.2944 7.41008 15.3962C7.48528 15.498 7.52009 15.624 7.5078 15.75C7.49551 15.8759 7.43698 15.9929 7.34353 16.0782L4.74889 18.4876L6.47148 17.4927C6.58047 17.4303 6.70861 17.4102 6.83149 17.4361C6.95438 17.462 7.06343 17.5323 7.13789 17.6334C7.21236 17.7345 7.24703 17.8595 7.23531 17.9846C7.22359 18.1096 7.1663 18.226 7.07434 18.3115L5.17775 20.0607L6.55848 19.2634C6.66835 19.2016 6.79717 19.1825 6.92024 19.2098C7.04331 19.2371 7.15198 19.3089 7.22541 19.4113C7.29884 19.5138 7.33186 19.6398 7.31815 19.7651C7.30444 19.8904 7.24496 20.0063 7.1511 20.0904L6.08254 21.027L6.79901 20.6175C6.90458 20.5567 7.02838 20.5356 7.14816 20.5579C7.26793 20.5802 7.37582 20.6445 7.45243 20.7392C7.52903 20.8339 7.56933 20.9529 7.56606 21.0747C7.5628 21.1965 7.51619 21.3131 7.43462 21.4036L5.16035 23.9215L7.46942 22.5909C7.57644 22.5299 7.70186 22.5095 7.82268 22.5336C7.94349 22.5576 8.05159 22.6244 8.12712 22.7217C8.20265 22.819 8.24055 22.9403 8.23386 23.0633C8.22717 23.1863 8.17634 23.3028 8.0907 23.3913L6.38653 25.1313L8.24218 24.0607C8.35123 23.9944 8.48113 23.9712 8.60638 23.9957C8.73164 24.0202 8.84321 24.0907 8.91922 24.1932C8.99522 24.2957 9.03017 24.423 9.0172 24.5499C9.00424 24.6769 8.94429 24.7945 8.84913 24.8795L7.69664 25.9593L9.03542 25.1866C9.14007 25.1262 9.2627 25.1048 9.3816 25.1262C9.5005 25.1476 9.60801 25.2103 9.68509 25.3034C9.76218 25.3964 9.80387 25.5137 9.80279 25.6345C9.80172 25.7553 9.75794 25.8718 9.67921 25.9634L7.77034 28.1845L10.4151 26.6492C10.5201 26.5896 10.6427 26.569 10.7614 26.591C10.88 26.613 10.9871 26.6763 11.0636 26.7696C11.1401 26.8629 11.1812 26.9803 11.1796 27.101C11.178 27.2216 11.1338 27.3379 11.0548 27.4291L9.2217 29.5151L12.0691 27.8774C12.179 27.8147 12.3083 27.7949 12.4319 27.8218C12.5556 27.8488 12.6648 27.9206 12.7386 28.0234C12.8124 28.1262 12.8455 28.2527 12.8315 28.3785C12.8175 28.5043 12.7574 28.6204 12.6628 28.7044L11.977 29.3063L13.3363 28.5222C13.4416 28.4621 13.5649 28.4413 13.6842 28.4636C13.8034 28.4859 13.9109 28.5498 13.9874 28.644C14.0638 28.7382 14.1044 28.8565 14.1017 28.9778C14.0991 29.0991 14.0534 29.2155 13.9729 29.3063L11.9842 31.5242L15.9759 29.2213C16.0843 29.1596 16.2114 29.1395 16.3335 29.1648C16.4555 29.1902 16.5642 29.2592 16.6389 29.359C16.7137 29.4588 16.7495 29.5824 16.7395 29.7067C16.7296 29.831 16.6746 29.9474 16.5849 30.034L14.586 31.9429L19.2615 29.2448C19.3727 29.1804 19.5041 29.1602 19.6295 29.1882C19.7549 29.2163 19.8652 29.2904 19.9385 29.3961C20.0117 29.5017 20.0425 29.631 20.0248 29.7583C20.0071 29.8856 19.9421 30.0015 19.8428 30.0831L17.9442 31.6399L23.5869 28.382C23.6998 28.3168 23.8334 28.2972 23.9603 28.3272C24.0872 28.3572 24.1979 28.4345 24.2698 28.5433C24.3416 28.6521 24.3692 28.7842 24.3469 28.9127C24.3246 29.0412 24.2541 29.1563 24.1498 29.2346L21.7527 31.0319L27.3606 27.7945C27.4744 27.7312 27.608 27.7135 27.7343 27.7453C27.8606 27.777 27.97 27.8556 28.0404 27.9652C28.1107 28.0748 28.1366 28.2071 28.1128 28.3351C28.089 28.4631 28.0173 28.5773 27.9123 28.6543L25.7844 30.1609L26.7404 29.6102C26.8528 29.5457 26.9855 29.5262 27.1118 29.5558C27.238 29.5853 27.3483 29.6617 27.4204 29.7694C27.4925 29.8771 27.5211 30.0082 27.5003 30.1361C27.4795 30.2641 27.4109 30.3794 27.3084 30.4587L25.5377 31.819L26.1232 31.4813C26.2345 31.4165 26.3662 31.3961 26.4919 31.4242C26.6176 31.4522 26.7281 31.5266 26.8014 31.6326C26.8746 31.7385 26.9053 31.8682 26.8871 31.9957C26.869 32.1232 26.8034 32.2392 26.7035 32.3205L26.0372 32.8671C26.1421 32.8884 26.2377 32.9421 26.3105 33.0206C26.3894 33.1062 26.4367 33.2161 26.4447 33.3322C26.4527 33.4484 26.4209 33.5637 26.3545 33.6593L25.855 34.3758C25.9092 34.4168 25.9544 34.4683 25.9881 34.5273C26.0556 34.6447 26.0738 34.7842 26.0387 34.915C26.0036 35.0459 25.918 35.1574 25.8008 35.2253L24.808 35.7985C24.7072 35.8567 24.5897 35.8789 24.4747 35.8614C24.3597 35.8438 24.2541 35.7877 24.1753 35.7021C24.0965 35.6165 24.0492 35.5066 24.0412 35.3905C24.0332 35.2745 24.0651 35.1592 24.1314 35.0636L24.2102 34.95L21.7312 36.3829C21.6201 36.4451 21.4897 36.4637 21.3656 36.4349C21.2416 36.4061 21.1327 36.3321 21.0602 36.2273C20.9878 36.1225 20.9571 35.9945 20.974 35.8683C20.991 35.742 21.0544 35.6266 21.1519 35.5447L21.197 35.5068L19.3229 36.5897C19.2446 36.6353 19.1556 36.6593 19.0649 36.6593Z" fill="#478CFF"/>
<path d="M25.9345 16.5246C25.3531 16.4724 25.3726 16.0405 25.1925 15.5113C24.8404 15.0548 25.1638 14.7457 25.3317 14.3117C26.0573 12.5953 23.432 11.2289 22.0656 12.3312C21.4259 12.0641 20.8998 12.018 20.822 11.2125C19.9704 9.45611 16.5344 10.147 16.3492 12.1511C16.1834 12.2104 16.0176 12.2729 15.8558 12.3435C14.3717 11.2831 12.3165 12.4919 11.9009 14.0671C11.9398 14.67 12.7873 15.3107 12.2438 15.8143C12.1414 16.0467 12.0555 16.2861 11.9869 16.5307C11.5084 16.5879 11.0679 16.8199 10.7502 17.1823C10.4325 17.5446 10.2599 18.0116 10.2658 18.4935C10.2716 18.9754 10.4554 19.4381 10.7818 19.7926C11.1083 20.1471 11.5542 20.3684 12.034 20.414C11.8528 20.6125 12.1364 20.8735 12.1906 21.0977C12.6133 21.6873 12.2203 22.067 12.0115 22.6217C11.7157 24.2778 14.0463 25.3689 15.3605 24.3842C16.0513 24.6473 16.56 24.7722 16.646 25.592C17.5672 27.2296 20.9121 26.5613 21.0789 24.5736C21.2447 24.5122 21.4115 24.4477 21.5743 24.3761C23.0594 25.4385 25.1167 24.2307 25.5323 22.6535C25.4934 22.0516 24.6459 21.4109 25.1894 20.9073C25.2889 20.6813 25.373 20.4487 25.4412 20.2113C27.4166 20.0291 27.9898 16.8879 25.9345 16.5246ZM23.171 24.0577C23.1638 24.0506 23.1782 24.0506 23.2007 24.0526C23.1915 24.0547 23.1771 24.0639 23.172 24.0577H23.171ZM24.9263 19.6402C23.9335 19.8224 23.7882 20.8807 23.4883 21.6555C23.8209 22.5654 24.3614 23.0731 23.3532 23.938C22.9781 23.7252 22.5591 23.6014 22.1286 23.5762C21.698 23.5509 21.2675 23.6248 20.87 23.7922C20.4726 23.9597 20.1189 24.2161 19.8362 24.5418C19.5536 24.8675 19.3494 25.2538 19.2396 25.6708C17.909 25.8663 18.2427 24.6708 17.4822 24.0639C17.0096 23.7428 16.4513 23.5711 15.8799 23.5711C15.3085 23.5711 14.7502 23.7428 14.2776 24.0639C14.3154 24.0639 14.1496 24.113 14.1517 24.1181L14.3564 23.8715C12.424 22.6268 14.3963 22.0885 13.7218 20.8121C13.4864 18.8828 11.3677 20.0588 11.7955 17.7252C11.7955 17.7549 11.8047 17.3843 11.7423 17.3772C13.0278 17.1397 14.3277 15.8265 13.687 14.4745C13.1752 13.8122 13.4956 13.2032 14.1568 12.8184C14.5291 13.0136 14.9403 13.1231 15.3604 13.1388C15.7804 13.1546 16.1987 13.0762 16.5845 12.9093C16.9704 12.7425 17.314 12.4915 17.5903 12.1747C17.8666 11.8579 18.0685 11.4833 18.1813 11.0784C19.1792 10.8737 19.3768 11.583 19.6327 12.3486C20.0968 12.8029 20.7043 13.082 21.3514 13.138C21.9985 13.194 22.6449 13.0235 23.1802 12.6557C23.1711 12.666 23.166 12.6792 23.166 12.693C23.166 12.7068 23.1711 12.7201 23.1802 12.7304L23.0778 12.8532C25.0225 14.0702 22.8895 14.7979 23.8117 16.1377C24.2672 17.9493 26.1505 16.673 25.6408 19.3362C25.6427 19.345 25.6455 19.3535 25.6489 19.3618C25.3941 19.4529 25.1648 19.5399 24.9274 19.6402H24.9263Z" fill="#262626"/>
<path d="M46.6083 36.4382L46.6032 36.4331L46.5469 36.4546C46.5682 36.4529 46.589 36.4473 46.6083 36.4382Z" fill="#262626"/>
<path d="M37.8672 47.3317L37.902 47.3634C37.9593 47.3419 38.0043 47.3214 38.0586 47.304C38.163 47.1137 38.0146 47.2119 37.8672 47.3317Z" fill="#262626"/>
<path d="M49.9934 40.1812C49.673 40.0297 49.3373 39.9059 49.0047 39.7769C48.8871 39.4124 48.7392 39.0584 48.5625 38.7186C50.0466 36.7811 47.3926 34.387 45.4919 35.7575C45.2158 35.6228 44.9306 35.5075 44.6383 35.4126C44.3006 32.9234 40.2904 33.0718 39.9362 35.4884C39.7186 35.5655 39.5047 35.6531 39.2945 35.7514C37.2925 34.3185 34.4645 36.953 36.0028 38.9622C35.9547 38.9561 35.7081 39.4289 35.7234 39.3941C35.6589 39.5466 35.6211 39.7012 35.5689 39.8639C35.0767 39.9412 34.6278 40.1904 34.302 40.5673C33.9761 40.9442 33.7945 41.4244 33.7892 41.9226C33.7839 42.4207 33.9554 42.9047 34.2731 43.2884C34.5909 43.6721 35.0344 43.9308 35.5248 44.0184C35.6428 44.3844 35.7914 44.7398 35.9691 45.0808C34.4849 47.0194 37.141 49.4134 39.0396 48.0419C39.3176 48.1756 39.6033 48.2925 39.8953 48.3919C40.2228 50.8771 44.2463 50.7276 44.5871 48.3152C44.8062 48.2364 45.0232 48.1463 45.234 48.048C47.2371 49.481 50.0661 46.8474 48.5277 44.8372C48.5758 44.8434 48.8225 44.3695 48.8071 44.4053C48.8706 44.2538 48.9095 44.0983 48.9617 43.9376C50.7355 43.7226 51.453 41.1515 49.9934 40.1812ZM49.1664 42.7185C49.1711 42.7077 49.1769 42.6974 49.1838 42.6878C49.1797 42.696 49.1705 42.7042 49.1664 42.7185ZM46.7693 36.3532C46.8512 36.3051 46.888 36.2775 46.7693 36.3532V36.3532ZM46.8235 47.3572C46.8563 47.351 47.1398 47.4933 46.8235 47.3572V47.3572ZM48.4346 43.0143C47.4878 43.2457 47.2606 44.3951 47.0405 45.1965C47.4285 46.0225 47.7672 46.7082 46.8205 47.3561C46.4581 47.1357 46.0486 47.0043 45.6256 46.9727C45.2025 46.9411 44.7781 47.0103 44.3869 47.1745C43.9958 47.3387 43.6492 47.5932 43.3755 47.9173C43.1018 48.2414 42.9088 48.6257 42.8124 49.0388C42.1614 49.0061 41.665 49.1299 41.5176 48.3224C41.3742 48.0133 41.1666 47.7384 40.9087 47.5158C40.6509 47.2931 40.3486 47.1279 40.0219 47.0311C39.6953 46.9343 39.3518 46.9081 39.0143 46.9543C38.6767 47.0004 38.3529 47.1179 38.0642 47.2988C38.0192 47.3541 38.0151 47.4912 37.9076 47.3582C37.8398 47.3798 37.7762 47.4127 37.7193 47.4554C37.7561 47.4227 37.8124 47.3756 37.8728 47.3265C37.707 47.176 37.4327 46.917 37.5115 46.9928C37.1195 46.6857 36.7551 46.2548 37.1533 45.7973C37.2984 45.5344 37.3839 45.2427 37.4037 44.943C37.4235 44.6433 37.3771 44.3429 37.2678 44.0631C37.1585 43.7834 36.989 43.5311 36.7712 43.3242C36.5535 43.1173 36.2929 42.9608 36.008 42.8659C35.0376 42.7963 35.488 41.5855 35.3048 41.1024C36.6108 40.8557 37.9086 39.4371 37.27 38.0707C36.7111 37.3942 37.2751 36.9059 37.6415 36.388C37.9998 36.6225 38.4093 36.7675 38.8353 36.8106C39.2614 36.8537 39.6916 36.7938 40.0896 36.6359C40.4876 36.4779 40.8419 36.2266 41.1225 35.9031C41.4031 35.5796 41.6018 35.1934 41.7018 34.777C42.7069 34.5498 43.0058 35.1107 43.2177 35.9551C43.6296 36.4089 44.1859 36.7061 44.7921 36.7963C45.3983 36.8864 46.017 36.7638 46.5431 36.4494C46.5114 36.4494 46.5011 36.431 46.5431 36.3635C46.5431 36.3696 46.5615 36.3952 46.5953 36.428C46.6441 36.4113 46.6914 36.3904 46.7365 36.3655C46.6928 36.3911 46.6473 36.4137 46.6004 36.4331C48.6475 37.7196 46.3363 38.1956 47.3558 39.6705C47.6055 41.4883 49.8552 40.3685 49.151 42.7155C48.9105 42.8107 48.6751 42.9232 48.4325 43.0143H48.4346Z" fill="#262626"/>
<path d="M45.9592 23.9994C42.7463 23.5874 39.4838 23.8096 36.3565 24.6534C43.6429 3.38965 13.4878 -9.71968 2.4409 9.43971C-6.082 23.7066 9.25758 41.2509 24.6514 35.7556C17.9268 54.1391 42.5969 68.4194 55.697 54.48C65.9394 44.7544 59.8843 26.0239 45.9592 23.9994ZM15.3762 35.4403C-5.53749 32.074 -0.970512 -6.64705 21.2431 6.13474C-2.96332 4.60969 4.02736 39.1363 26.9206 28.3596C26.198 30.4906 25.4518 32.6881 24.8612 34.9102C21.7782 35.7894 18.538 35.9705 15.3762 35.4403ZM27.2624 27.2347C10.6741 36.3257 -1.64092 14.1223 15.9637 7.17158C28.2225 4.84817 32.0392 17.9882 27.2624 27.2347ZM34.293 57.2425C14.0866 45.1884 34.8242 27.421 29.6677 12.2135C25.5337 5.77549 17.1746 1.47054 9.52575 3.492C18.1408 -2.38406 30.7414 2.2781 34.5387 11.7519C37.5519 18.7773 34.4906 26.2092 32.3749 32.9736C24.9769 46.2611 37.3554 59.8822 51.3552 56.9528C48.8027 58.538 45.8684 59.4019 42.8641 59.4529C39.8599 59.5039 36.8979 58.7401 34.293 57.2425ZM50.1065 50.4647C37.4875 60.4318 27.027 44.7708 33.7884 32.7659C46.5917 25.8069 60.1268 38.6245 50.1065 50.4647ZM54.5609 54.3643C50.3511 58.0623 43.8517 56.6468 39.4977 53.9232C63.9538 55.5189 57.1259 21.241 34.0126 32.1702C34.7812 29.9031 35.596 27.5571 36.2234 25.1764C53.1454 19.2932 67.1564 41.7135 54.5609 54.3643Z" fill="#262626"/>
</svg>
