<svg width="62" height="61" viewBox="0 0 62 61" fill="none" xmlns="http://www.w3.org/2000/svg">
<path d="M1.45669 18.6545C1.34641 18.6546 1.23905 18.6191 1.15066 18.5531C1.06228 18.4872 0.997616 18.3944 0.966351 18.2887C0.935086 18.1829 0.9389 18.0699 0.97722 17.9665C1.01554 17.8631 1.08631 17.7749 1.17894 17.715L6.66544 14.1615L1.32394 17.2484C1.20907 17.3166 1.07203 17.3371 0.942224 17.3054C0.81242 17.2738 0.700197 17.1925 0.629638 17.0791C0.559078 16.9656 0.535804 16.829 0.56481 16.6986C0.593815 16.5682 0.67279 16.4543 0.784786 16.3814L9.00279 10.9021L1.32394 15.3368C1.20902 15.4001 1.07414 15.4167 0.94729 15.3832C0.82044 15.3498 0.711352 15.2687 0.642658 15.1569C0.573963 15.0452 0.550934 14.9112 0.578348 14.7829C0.605762 14.6546 0.681515 14.5418 0.789891 14.4679L4.7396 11.9048L1.32394 13.8746C1.20902 13.9379 1.07414 13.9545 0.94729 13.921C0.82044 13.8875 0.711352 13.8065 0.642658 13.6947C0.573963 13.5829 0.550934 13.449 0.578348 13.3207C0.605762 13.1924 0.681515 13.0795 0.789891 13.0056L3.80425 11.043L1.32394 12.4726C1.21063 12.5376 1.0767 12.5567 0.949723 12.526C0.822744 12.4953 0.712375 12.417 0.641332 12.3074C0.570289 12.1978 0.543978 12.0651 0.567814 11.9366C0.59165 11.8082 0.66382 11.6937 0.769469 11.6169L8.24001 6.20492L1.32394 10.2047C1.21038 10.2694 1.07631 10.2882 0.949336 10.257C0.822367 10.2259 0.712182 10.1472 0.641488 10.0373C0.570793 9.9273 0.544976 9.7944 0.569356 9.66597C0.593737 9.53753 0.666458 9.42333 0.772532 9.34692L4.63442 6.58988L1.32394 8.50551C1.21298 8.56977 1.08191 8.58993 0.956772 8.56198C0.831634 8.53403 0.721594 8.46002 0.648522 8.35466C0.57545 8.2493 0.544698 8.1203 0.562376 7.9933C0.580055 7.86631 0.644871 7.75061 0.743941 7.66921L4.78351 4.34341L1.32394 6.34073C1.21581 6.4069 1.08694 6.43048 0.96239 6.40688C0.837841 6.38328 0.726525 6.31419 0.650099 6.21305C0.573674 6.11192 0.537605 5.98597 0.548911 5.85971C0.560216 5.73345 0.618087 5.61591 0.711265 5.52996L2.95774 3.3856L1.32394 4.32809C1.21902 4.38882 1.09592 4.41024 0.976652 4.38851C0.857388 4.36679 0.749747 4.30333 0.672987 4.2095C0.596228 4.11567 0.555361 3.99759 0.557696 3.87638C0.560032 3.75518 0.605419 3.63876 0.685737 3.54796L1.56799 2.5493C1.49622 2.53496 1.42832 2.50551 1.36881 2.4629C1.3093 2.42029 1.25955 2.36551 1.22285 2.30218C1.18885 2.24399 1.1667 2.17964 1.15769 2.11285C1.14869 2.04605 1.15299 1.97813 1.17037 1.91301C1.18774 1.84789 1.21783 1.78685 1.25891 1.73342C1.29999 1.67999 1.35124 1.63522 1.40971 1.60169L3.50302 0.396766C3.60787 0.336154 3.73086 0.314789 3.85001 0.336487C3.96916 0.358185 4.07672 0.421533 4.15347 0.515217C4.23034 0.608999 4.27132 0.727078 4.26907 0.848315C4.26683 0.969552 4.22151 1.08603 4.14122 1.17691L3.51833 1.8825L6.13139 0.376344C6.23952 0.310176 6.36839 0.286597 6.49294 0.310196C6.61749 0.333795 6.72881 0.402884 6.80523 0.50402C6.88166 0.605157 6.91773 0.731107 6.90642 0.857367C6.89511 0.983627 6.83724 1.10117 6.74407 1.18712L4.49759 3.33148L9.61547 0.376344C9.72626 0.313497 9.85655 0.294336 9.98075 0.322623C10.105 0.350911 10.2141 0.424604 10.2867 0.529233C10.3594 0.633863 10.3903 0.761872 10.3734 0.888128C10.3565 1.01438 10.2931 1.12977 10.1955 1.21162L6.15692 4.5364L13.3671 0.376344C13.4806 0.311567 13.6147 0.292819 13.7417 0.323962C13.8686 0.355104 13.9788 0.433766 14.0495 0.543735C14.1202 0.653704 14.146 0.786602 14.1217 0.915041C14.0973 1.04348 14.0246 1.15767 13.9185 1.23409L10.0566 3.99112L16.311 0.376344C16.4243 0.311316 16.5582 0.292198 16.6852 0.322925C16.8122 0.353652 16.9225 0.431886 16.9936 0.541525C17.0646 0.651164 17.0909 0.783866 17.0671 0.912317C17.0433 1.04077 16.9711 1.15519 16.8654 1.23205L9.39593 6.63583L19.8441 0.604055C19.9592 0.539738 20.0947 0.52245 20.2223 0.555812C20.3498 0.589174 20.4596 0.670598 20.5285 0.783034C20.5973 0.89547 20.6201 1.0302 20.5918 1.159C20.5636 1.28781 20.4867 1.40071 20.3771 1.47405L17.3556 3.43972L21.1695 1.23817C21.2846 1.17386 21.4201 1.15657 21.5477 1.18993C21.6753 1.22329 21.785 1.30472 21.8539 1.41715C21.9228 1.52959 21.9455 1.66432 21.9173 1.79312C21.889 1.92193 21.8121 2.03482 21.7025 2.10817L17.761 4.66506L22.2304 2.08468C22.3452 2.01941 22.4808 2.00112 22.6087 2.03367C22.7367 2.06621 22.847 2.14704 22.9167 2.25921C22.9863 2.37138 23.0097 2.50616 22.9821 2.63526C22.9545 2.76436 22.878 2.87774 22.7686 2.95162L14.5444 8.4371L23.5855 3.21813C23.7006 3.15382 23.8361 3.13653 23.9637 3.16989C24.0912 3.20325 24.201 3.28468 24.2698 3.39711C24.3387 3.50955 24.3615 3.64427 24.3332 3.77308C24.305 3.90189 24.2281 4.01478 24.1185 4.08813L18.6391 7.63347L24.6924 4.13919C24.8076 4.07276 24.9443 4.05395 25.0732 4.08675C25.2021 4.11955 25.3131 4.20138 25.3826 4.31482C25.4523 4.42834 25.4749 4.56459 25.4455 4.6945C25.4161 4.82442 25.3371 4.93771 25.2254 5.0102L20.8713 7.83055L25.883 4.9377C25.9981 4.87339 26.1336 4.8561 26.2612 4.88946C26.3888 4.92282 26.4985 5.00425 26.5674 5.11668C26.6363 5.22912 26.659 5.36385 26.6308 5.49265C26.6026 5.62146 26.5256 5.73436 26.416 5.8077L23.0157 8.01844L27.4994 5.42989C27.6134 5.36448 27.7482 5.34554 27.8758 5.37699C28.0034 5.40845 28.1139 5.48788 28.1844 5.59877C28.2549 5.70965 28.28 5.84345 28.2543 5.97233C28.2287 6.10121 28.1543 6.21524 28.0468 6.29069L20.371 11.6291L31.0264 5.48196C31.1406 5.41934 31.2745 5.40276 31.4005 5.43559C31.5266 5.46843 31.6353 5.54822 31.7045 5.65861C31.7736 5.769 31.798 5.90166 31.7725 6.02942C31.7471 6.15717 31.6738 6.27037 31.5676 6.34583L25.4408 10.4834L34.1061 5.47992C34.2197 5.41514 34.3537 5.3964 34.4807 5.42754C34.6077 5.45868 34.7179 5.53734 34.7886 5.64731C34.8592 5.75728 34.8851 5.89018 34.8607 6.01862C34.8363 6.14706 34.7636 6.26125 34.6575 6.33767L26.2373 12.3327L38.113 5.48196C38.2274 5.4186 38.3617 5.40155 38.4883 5.43433C38.6149 5.46711 38.7241 5.54721 38.7934 5.65813C38.8627 5.76905 38.8868 5.90232 38.8607 6.03047C38.8346 6.15861 38.7603 6.27186 38.6532 6.34686L32.8971 10.2128L41.0977 5.48196C41.2118 5.41756 41.3462 5.39946 41.4733 5.4314C41.6003 5.46334 41.7102 5.54288 41.7802 5.65357C41.8503 5.76426 41.8751 5.89763 41.8495 6.02609C41.824 6.15456 41.7501 6.2683 41.643 6.34379L34.6779 11.1186L44.448 5.48196C44.5623 5.41934 44.6961 5.40276 44.8222 5.43559C44.9482 5.46843 45.057 5.54822 45.1261 5.65861C45.1953 5.769 45.2197 5.90166 45.1942 6.02942C45.1688 6.15717 45.0954 6.27037 44.9892 6.34583L38.791 10.5416L47.5553 5.48196C47.6695 5.41848 47.8036 5.40116 47.9301 5.43356C48.0567 5.46596 48.166 5.54562 48.2355 5.65615C48.3051 5.76667 48.3297 5.89966 48.3042 6.02776C48.2788 6.15586 48.2052 6.26933 48.0986 6.34481L41.2703 11.0124L50.8576 5.48196C50.9716 5.41919 51.1053 5.4023 51.2313 5.43475C51.3573 5.4672 51.4662 5.54654 51.5356 5.65656C51.6051 5.76658 51.63 5.89898 51.6051 6.02671C51.5803 6.15444 51.5076 6.26786 51.4019 6.34379L44.3694 11.1768L54.2386 5.48196C54.3536 5.41954 54.4882 5.40366 54.6146 5.43759C54.7409 5.47153 54.8495 5.55269 54.9177 5.66433C54.986 5.77597 55.0088 5.90955 54.9814 6.03751C54.954 6.16547 54.8786 6.27803 54.7706 6.35196L53.193 7.37309L56.4606 5.48503C56.5749 5.42166 56.7093 5.40461 56.8359 5.43739C56.9625 5.47017 57.0717 5.55028 57.141 5.6612C57.2102 5.77212 57.2343 5.90539 57.2082 6.03353C57.1821 6.16168 57.1079 6.27492 57.0007 6.34992L51.3233 10.1638L58.5845 5.97108C58.6991 5.90319 58.8357 5.88276 58.9651 5.91416C59.0945 5.94556 59.2066 6.02629 59.2773 6.13914C59.3481 6.25199 59.3719 6.38801 59.3438 6.5182C59.3156 6.64838 59.2377 6.76242 59.1267 6.83597L53.58 10.5876L59.623 7.09942C59.7371 7.03594 59.8712 7.01862 59.9978 7.05102C60.1243 7.08342 60.2336 7.16308 60.3032 7.27361C60.3728 7.38413 60.3974 7.51712 60.3719 7.64522C60.3464 7.77332 60.2728 7.88679 60.1662 7.96227L55.7223 11.0032L59.9773 8.54534C60.0902 8.48065 60.2236 8.46153 60.3501 8.49187C60.4767 8.52221 60.5868 8.59973 60.6582 8.70859C60.7295 8.81744 60.7565 8.94941 60.7338 9.07755C60.7111 9.20568 60.6403 9.32029 60.5359 9.39797L55.4537 13.1547L59.9845 10.5406C60.0944 10.4784 60.2235 10.4592 60.3469 10.4866C60.4702 10.5141 60.579 10.5863 60.6521 10.6893C60.7253 10.7923 60.7577 10.9188 60.743 11.0443C60.7283 11.1698 60.6676 11.2854 60.5726 11.3687L56.4054 14.957L59.9916 12.8872C60.1037 12.8219 60.2364 12.8017 60.3628 12.8307C60.4892 12.8597 60.5999 12.9357 60.6723 13.0433C60.7447 13.1509 60.7734 13.2821 60.7526 13.4101C60.7318 13.5381 60.6631 13.6535 60.5604 13.7326L60.1519 14.0482C60.2378 14.0304 60.3269 14.0355 60.4102 14.0629C60.4935 14.0903 60.5682 14.1391 60.6267 14.2044C60.7052 14.2902 60.752 14.4003 60.7595 14.5163C60.7669 14.6324 60.7345 14.7475 60.6676 14.8426L59.4923 16.5193L60.0028 16.2252C60.0609 16.1883 60.1259 16.1635 60.1939 16.1523C60.2618 16.1411 60.3313 16.1438 60.3982 16.1602C60.4651 16.1766 60.528 16.2063 60.583 16.2476C60.6381 16.2889 60.6843 16.341 60.7188 16.4006C60.7532 16.4602 60.7753 16.5262 60.7836 16.5945C60.7919 16.6629 60.7863 16.7322 60.7671 16.7983C60.7479 16.8645 60.7155 16.926 60.6719 16.9793C60.6283 17.0326 60.5744 17.0766 60.5134 17.1085L58.0055 18.5524C57.905 18.6098 57.7879 18.6314 57.6734 18.6135C57.559 18.5957 57.454 18.5394 57.3758 18.4541C57.2975 18.3687 57.2506 18.2592 57.2428 18.1437C57.2349 18.0281 57.2666 17.9133 57.3326 17.8182L58.5079 16.1405L54.3284 18.5534C54.2164 18.6187 54.0837 18.6389 53.9572 18.6099C53.8308 18.5809 53.7202 18.5048 53.6478 18.3972C53.5754 18.2896 53.5467 18.1585 53.5674 18.0304C53.5882 17.9024 53.657 17.7871 53.7597 17.7079L54.0047 17.519L52.2076 18.5554C52.0976 18.6176 51.9685 18.6369 51.8451 18.6094C51.7218 18.5819 51.613 18.5097 51.5399 18.4067C51.4667 18.3037 51.4344 18.1772 51.449 18.0517C51.4637 17.9262 51.5244 17.8106 51.6194 17.7273L55.7876 14.138L48.1292 18.5575C48.0163 18.6221 47.8829 18.6413 47.7564 18.6109C47.6298 18.5806 47.5197 18.5031 47.4483 18.3942C47.377 18.2854 47.35 18.1534 47.3727 18.0252C47.3954 17.8971 47.4662 17.7825 47.5706 17.7048L52.6548 13.9573L44.6696 18.5666C44.5555 18.6324 44.4203 18.6514 44.2925 18.6198C44.1646 18.5882 44.0539 18.5085 43.9834 18.3971C43.9127 18.2854 43.8881 18.1506 43.9148 18.0211C43.9414 17.8916 44.0173 17.7775 44.1264 17.7028L48.5693 14.6639L41.8074 18.5677C41.6929 18.6329 41.5577 18.6514 41.4299 18.6192C41.3021 18.587 41.1917 18.5066 41.1218 18.3949C41.0519 18.2832 41.0279 18.1488 41.0548 18.0198C41.0817 17.8908 41.1575 17.7772 41.2662 17.7028L46.8119 13.945L38.8002 18.5697C38.6856 18.6339 38.5507 18.6515 38.4235 18.6189C38.2963 18.5862 38.1866 18.5057 38.1171 18.3942C38.0477 18.2827 38.0239 18.1487 38.0507 18.0202C38.0775 17.8916 38.1529 17.7783 38.2611 17.7038L43.9426 13.8879L35.8308 18.5707C35.7158 18.6332 35.5812 18.649 35.4548 18.6151C35.3284 18.5812 35.2199 18.5 35.1516 18.3884C35.0834 18.2767 35.0606 18.1431 35.088 18.0152C35.1153 17.8872 35.1908 17.7747 35.2988 17.7007L36.8785 16.6796L33.6027 18.5707C33.4884 18.6385 33.3522 18.659 33.223 18.6279C33.0938 18.5968 32.9818 18.5166 32.9108 18.4043C32.8398 18.2919 32.8154 18.1563 32.8428 18.0263C32.8702 17.8963 32.9472 17.7821 33.0574 17.7079L40.0909 12.8759L30.2238 18.5728C30.1093 18.6427 29.9718 18.6647 29.8412 18.6341C29.7106 18.6035 29.5972 18.5227 29.5257 18.4092C29.4542 18.2957 29.4302 18.1586 29.459 18.0275C29.4878 17.8965 29.567 17.782 29.6795 17.7089L36.5017 13.0383L26.9184 18.5728C26.8038 18.6407 26.6672 18.6611 26.5378 18.6297C26.4084 18.5983 26.2963 18.5176 26.2256 18.4047C26.1548 18.2919 26.131 18.1558 26.1591 18.0257C26.1873 17.8955 26.2652 17.7814 26.3762 17.7079L32.5785 13.5111L23.8091 18.5738C23.6949 18.6373 23.5608 18.6546 23.4343 18.6222C23.3078 18.5898 23.1985 18.5101 23.1289 18.3996C23.0593 18.2891 23.0347 18.1561 23.0602 18.028C23.0857 17.8999 23.1593 17.7864 23.2659 17.7109L30.2279 12.9362L20.4557 18.5789C20.341 18.6454 20.205 18.6646 20.0764 18.6326C19.9478 18.6006 19.8367 18.5198 19.7665 18.4074C19.6964 18.2949 19.6727 18.1596 19.7005 18.03C19.7283 17.9004 19.8054 17.7868 19.9155 17.713L25.6686 13.846L17.4669 18.5809C17.3533 18.6457 17.2193 18.6645 17.0923 18.6333C16.9653 18.6022 16.8551 18.5235 16.7844 18.4136C16.7137 18.3036 16.6879 18.1707 16.7123 18.0422C16.7367 17.9138 16.8094 17.7996 16.9155 17.7232L25.3347 11.7282L13.462 18.5799C13.3476 18.6452 13.2123 18.6636 13.0845 18.6314C12.9567 18.5992 12.8463 18.5189 12.7764 18.4072C12.7065 18.2955 12.6825 18.1611 12.7094 18.0321C12.7364 17.9031 12.8121 17.7895 12.9208 17.715L19.0476 13.5754L10.3782 18.5789C10.2643 18.6443 10.1295 18.6633 10.0019 18.6318C9.87432 18.6003 9.76377 18.5209 9.69327 18.41C9.62277 18.2991 9.59773 18.1653 9.62337 18.0365C9.64901 17.9076 9.72335 17.7936 9.83092 17.7181L17.5067 12.3786L6.76142 18.583C6.64631 18.6473 6.51078 18.6646 6.38321 18.6312C6.25564 18.5979 6.14593 18.5164 6.07704 18.404C6.00815 18.2916 5.98544 18.1568 6.01365 18.028C6.04187 17.8992 6.11882 17.7863 6.2284 17.713L9.62466 15.5053L4.29235 18.584C4.23515 18.619 4.17163 18.6424 4.1054 18.6528C4.03917 18.6633 3.97152 18.6606 3.90633 18.6449C3.77468 18.6132 3.66101 18.5305 3.59032 18.415C3.51964 18.2995 3.49774 18.1607 3.52943 18.029C3.56112 17.8973 3.64382 17.7837 3.75932 17.713L8.11033 14.8906L1.71095 18.5861C1.63386 18.6312 1.54604 18.6549 1.45669 18.6545Z" fill="#2B6BD6"/>
<path d="M6.61646 16.6124C6.5093 16.6124 6.40486 16.5786 6.31793 16.516C6.231 16.4533 6.16599 16.3649 6.1321 16.2632C6.09821 16.1616 6.09717 16.0518 6.12912 15.9496C6.16107 15.8473 6.2244 15.7576 6.31012 15.6933L8.01132 14.3924L6.44287 15.2982C6.33278 15.3774 6.19574 15.4096 6.06188 15.3878C5.92802 15.366 5.80832 15.2918 5.7291 15.1818C5.64989 15.0717 5.61765 14.9346 5.63948 14.8008C5.66131 14.6669 5.73542 14.5472 5.84551 14.468L7.3772 13.1497L6.43674 13.693C6.33293 13.7528 6.21139 13.7742 6.09339 13.7534C5.9754 13.7327 5.86846 13.6711 5.79129 13.5794C5.71412 13.4878 5.67165 13.3719 5.67129 13.2521C5.67094 13.1323 5.71273 13.0162 5.78935 12.9241L6.77269 11.7426C6.66098 11.7413 6.55276 11.7035 6.46464 11.6348C6.37652 11.5661 6.31336 11.4704 6.28485 11.3624C6.25634 11.2544 6.26404 11.14 6.30679 11.0367C6.34954 10.9335 6.42496 10.8472 6.5215 10.7909L8.6148 9.58702C8.71861 9.52721 8.84015 9.50581 8.95815 9.52656C9.07615 9.54732 9.18309 9.60891 9.26025 9.70056C9.33742 9.79221 9.3799 9.90808 9.38025 10.0279C9.38061 10.1477 9.33882 10.2638 9.26219 10.3559L8.40853 11.3771L11.5556 9.5666C11.6656 9.50438 11.7947 9.48514 11.9181 9.51261C12.0414 9.54008 12.1502 9.61231 12.2233 9.71532C12.2965 9.81833 12.3288 9.94482 12.3142 10.0703C12.2995 10.1958 12.2388 10.3114 12.1438 10.3947L10.6121 11.712L14.3311 9.56762C14.4434 9.50275 14.5761 9.48304 14.7024 9.51251C14.8287 9.54198 14.9391 9.6184 15.0111 9.72627C15.0831 9.83414 15.1113 9.96537 15.0901 10.0933C15.0689 10.2213 14.9997 10.3363 14.8968 10.4152L13.1976 11.711L16.9155 9.5666C17.0243 9.50344 17.1525 9.48264 17.2757 9.50819C17.3988 9.53374 17.5082 9.60385 17.5828 9.70506C17.6575 9.80628 17.6921 9.93149 17.6802 10.0567C17.6682 10.1819 17.6105 10.2983 17.518 10.3835L14.2749 13.3907L20.8989 9.5666C21.0077 9.5015 21.1368 9.4792 21.2611 9.50404C21.3855 9.52888 21.4961 9.59909 21.5715 9.701C21.6469 9.80291 21.6817 9.92923 21.6691 10.0554C21.6566 10.1815 21.5975 10.2985 21.5034 10.3835L18.2358 13.4469L24.9528 9.5666C25.0638 9.50317 25.1946 9.48373 25.3193 9.51212C25.444 9.54051 25.5535 9.61466 25.6262 9.71991C25.6988 9.82516 25.7293 9.95384 25.7117 10.0805C25.694 10.2072 25.6294 10.3226 25.5307 10.4039L22.9902 12.4717L28.0284 9.5666C28.1415 9.50367 28.2743 9.48604 28.3999 9.51728C28.5255 9.54852 28.6345 9.6263 28.705 9.73487C28.7754 9.84345 28.802 9.97473 28.7793 10.1022C28.7567 10.2296 28.6864 10.3436 28.5829 10.4213L28.1254 10.7531L30.183 9.5666C30.2933 9.50472 30.4226 9.48597 30.546 9.51401C30.6693 9.54204 30.7778 9.61484 30.8505 9.71832C30.9232 9.8218 30.955 9.94859 30.9395 10.0741C30.9241 10.1996 30.8627 10.315 30.7671 10.3978L27.9324 12.7933L33.5261 9.5666C33.6365 9.50372 33.7663 9.48423 33.8902 9.51191C34.0141 9.53959 34.1233 9.61246 34.1964 9.7163C34.2695 9.82014 34.3013 9.9475 34.2855 10.0735C34.2698 10.1995 34.2077 10.3151 34.1112 10.3978L31.2715 12.7954L36.8713 9.5666C36.9811 9.50381 37.1103 9.48398 37.2338 9.51096C37.3573 9.53793 37.4665 9.60979 37.5401 9.71262C37.6136 9.81545 37.6465 9.94192 37.6322 10.0676C37.6178 10.1932 37.5574 10.309 37.4626 10.3927L34.4452 13.0282L40.4422 9.5666C40.5538 9.50175 40.6858 9.48155 40.8116 9.51007C40.9375 9.53859 41.0479 9.61371 41.1206 9.72032C41.1933 9.82694 41.2229 9.95713 41.2036 10.0847C41.1842 10.2123 41.1172 10.3278 41.0161 10.408L38.7533 12.2072L43.3269 9.5666C43.4402 9.50157 43.5741 9.48245 43.7011 9.51318C43.8281 9.5439 43.9385 9.62214 44.0095 9.73178C44.0805 9.84142 44.1069 9.97412 44.083 10.1026C44.0592 10.231 43.987 10.3454 43.8814 10.4223L43.62 10.6102L45.4294 9.5666C45.5429 9.50081 45.6773 9.48121 45.8048 9.51187C45.9323 9.54252 46.0432 9.62108 46.1143 9.73124C46.1855 9.84141 46.2115 9.97474 46.1871 10.1036C46.1626 10.2324 46.0895 10.3469 45.9828 10.4233L45.892 10.4877L47.488 9.56864C47.5995 9.50504 47.7309 9.48579 47.856 9.51474C47.9811 9.54368 48.0907 9.61869 48.1629 9.72482C48.2352 9.83095 48.2648 9.96041 48.2459 10.0874C48.227 10.2144 48.1609 10.3296 48.0608 10.41L45.8144 12.1909L50.3665 9.5666C50.4751 9.50833 50.6011 9.4913 50.7213 9.51866C50.8414 9.54601 50.9476 9.61591 51.0203 9.71545C51.093 9.81498 51.1272 9.93744 51.1166 10.0602C51.1061 10.183 51.0514 10.2978 50.9629 10.3835L47.8403 13.1855L53.3921 9.98117C53.5036 9.91872 53.6345 9.90034 53.7588 9.92968C53.8832 9.95901 53.9921 10.0339 54.0639 10.1396C54.1357 10.2453 54.1653 10.3741 54.1468 10.5006C54.1283 10.627 54.0631 10.7419 53.9639 10.8226L52.2525 12.1827L54.3969 10.9472C54.5075 10.8815 54.6389 10.86 54.7647 10.8869C54.8905 10.9139 55.0015 10.9874 55.0754 11.0927C55.1494 11.198 55.1808 11.3274 55.1635 11.4549C55.1462 11.5824 55.0814 11.6986 54.982 11.7804L53.8312 12.7494L54.8523 12.1582C54.9581 12.0968 55.0823 12.0755 55.2025 12.0979C55.3227 12.1204 55.4308 12.1853 55.5072 12.2807C55.5836 12.3762 55.6232 12.4959 55.6188 12.618C55.6145 12.7402 55.5664 12.8568 55.4834 12.9465L54.5644 13.9401L54.8983 13.7471C54.9855 13.6966 55.0858 13.673 55.1864 13.6794C55.2871 13.6858 55.3835 13.7219 55.4637 13.783C55.5439 13.8442 55.6041 13.9277 55.6369 14.0231C55.6697 14.1185 55.6734 14.2214 55.6478 14.3189L55.3874 15.3135C55.4815 15.3569 55.5599 15.4282 55.612 15.5177C55.6794 15.6349 55.6976 15.774 55.6625 15.9045C55.6275 16.0351 55.5422 16.1464 55.4252 16.2141L54.9146 16.5082C54.8274 16.5583 54.7274 16.5815 54.6271 16.5749C54.5268 16.5684 54.4307 16.5324 54.3508 16.4714C54.2708 16.4105 54.2107 16.3273 54.1778 16.2323C54.145 16.1373 54.1409 16.0347 54.1661 15.9374L54.3479 15.2389L52.1423 16.5102C52.0365 16.5709 51.9126 16.5917 51.7928 16.569C51.6731 16.5462 51.5654 16.4814 51.4893 16.3862C51.4132 16.2909 51.3737 16.1716 51.3779 16.0498C51.3821 15.928 51.4297 15.8117 51.5122 15.7219L52.4312 14.7284L49.3454 16.5164C49.2351 16.5782 49.1058 16.597 48.9824 16.569C48.8591 16.5409 48.7506 16.4681 48.6778 16.3646C48.6051 16.2612 48.5734 16.1344 48.5888 16.0088C48.6043 15.8833 48.6657 15.768 48.7613 15.6852L49.9121 14.7151L46.7865 16.5184C46.6749 16.582 46.5435 16.6013 46.4184 16.5723C46.2934 16.5434 46.1838 16.4684 46.1115 16.3622C46.0392 16.2561 46.0096 16.1266 46.0286 15.9996C46.0475 15.8727 46.1136 15.7575 46.2136 15.677L47.9271 14.3158L44.1091 16.5194C44.0005 16.5777 43.8745 16.5947 43.7543 16.5674C43.6342 16.54 43.528 16.4701 43.4553 16.3706C43.3826 16.271 43.3484 16.1486 43.359 16.0258C43.3695 15.903 43.4241 15.7882 43.5127 15.7025L46.6343 12.9016L40.3534 16.5276C40.2419 16.5901 40.111 16.6084 39.9866 16.5791C39.8623 16.5498 39.7534 16.4748 39.6816 16.3692C39.6097 16.2635 39.5802 16.1347 39.5987 16.0082C39.6172 15.8818 39.6824 15.7669 39.7815 15.6862L42.028 13.9054L37.482 16.5296C37.3685 16.5954 37.2341 16.615 37.1066 16.5844C36.979 16.5537 36.8682 16.4752 36.797 16.365C36.7259 16.2548 36.6998 16.1215 36.7243 15.9926C36.7488 15.8638 36.8219 15.7493 36.9285 15.6729L37.0204 15.6076L35.4203 16.5266C35.307 16.5916 35.1731 16.6107 35.0461 16.58C34.9191 16.5493 34.8088 16.471 34.7377 16.3614C34.6667 16.2518 34.6404 16.1191 34.6642 15.9906C34.688 15.8622 34.7602 15.7477 34.8659 15.6709L35.1314 15.4799L33.3158 16.5276C33.2042 16.5925 33.0722 16.6126 32.9464 16.5841C32.8205 16.5556 32.7101 16.4805 32.6374 16.3739C32.5647 16.2673 32.5351 16.1371 32.5544 16.0095C32.5738 15.8819 32.6408 15.7664 32.7419 15.6862L35.0037 13.888L30.4281 16.5296C30.3182 16.5937 30.1883 16.6143 30.064 16.5877C29.9396 16.561 29.8297 16.4888 29.7557 16.3854C29.6818 16.2819 29.6491 16.1545 29.6641 16.0282C29.6791 15.902 29.7407 15.7858 29.8368 15.7025L32.8542 13.067L26.8449 16.5307C26.7344 16.5949 26.6039 16.6153 26.4791 16.5879C26.3543 16.5606 26.2442 16.4874 26.1708 16.3829C26.0973 16.2783 26.0656 16.15 26.0821 16.0233C26.0986 15.8966 26.162 15.7807 26.2598 15.6984L29.0965 13.2998L23.4956 16.5327C23.3852 16.5958 23.2551 16.6154 23.131 16.5877C23.0068 16.5599 22.8975 16.4868 22.8244 16.3827C22.7513 16.2786 22.7198 16.1509 22.7359 16.0247C22.752 15.8985 22.8147 15.7829 22.9116 15.7005L25.7462 13.3039L20.1494 16.5347C20.0363 16.5977 19.9035 16.6153 19.7779 16.5841C19.6523 16.5528 19.5433 16.475 19.4729 16.3665C19.4024 16.2579 19.3758 16.1266 19.3985 15.9992C19.4212 15.8718 19.4914 15.7577 19.5949 15.6801L20.0493 15.3502L17.9969 16.5368C17.8857 16.6017 17.754 16.6223 17.6283 16.5943C17.5026 16.5662 17.3921 16.4918 17.319 16.3857C17.2459 16.2797 17.2156 16.1499 17.2341 16.0225C17.2527 15.895 17.3187 15.7793 17.4189 15.6984L19.9595 13.6286L14.9182 16.5388C14.8094 16.6039 14.6803 16.6262 14.556 16.6014C14.4317 16.5765 14.321 16.5063 14.2456 16.4044C14.1702 16.3025 14.1354 16.1762 14.148 16.05C14.1606 15.9239 14.2196 15.8069 14.3137 15.7219L17.5813 12.6586L10.8613 16.5388C10.7525 16.602 10.6243 16.6228 10.5011 16.5972C10.378 16.5717 10.2686 16.5016 10.194 16.4004C10.1193 16.2991 10.0847 16.1739 10.0966 16.0487C10.1086 15.9235 10.1663 15.8072 10.2588 15.7219L13.5009 12.7157L6.86664 16.5439C6.79069 16.5883 6.70441 16.6119 6.61646 16.6124Z" fill="white"/>
<path d="M13.0635 54.3632C12.9521 54.3634 12.8437 54.3271 12.7548 54.2599C12.6659 54.1927 12.6014 54.0983 12.5712 53.991C12.541 53.8837 12.5467 53.7695 12.5875 53.6658C12.6283 53.5621 12.7019 53.4746 12.797 53.4166L24.4113 46.3269L10.6098 54.2917C10.4939 54.3545 10.3583 54.3701 10.2312 54.3352C10.1042 54.3003 9.99551 54.2177 9.92798 54.1045C9.86046 53.9914 9.8393 53.8565 9.86893 53.7281C9.89856 53.5997 9.97669 53.4877 10.087 53.4156L29.4015 41.5195L7.27786 54.2917C7.16194 54.3537 7.02659 54.3685 6.89999 54.3332C6.77339 54.2979 6.66528 54.2151 6.59818 54.1021C6.53108 53.989 6.51015 53.8545 6.53975 53.7264C6.56935 53.5984 6.6472 53.4867 6.75709 53.4146L23.4137 43.2636L4.30945 54.2917C4.19361 54.3545 4.05797 54.3701 3.9309 54.3352C3.80383 54.3003 3.69517 54.2177 3.62765 54.1045C3.56012 53.9914 3.53896 53.8565 3.56859 53.7281C3.59822 53.5997 3.67635 53.4877 3.78664 53.4156L28.6919 38.0987L2.20287 53.3911C2.08615 53.4599 1.94688 53.4795 1.81571 53.4456C1.68453 53.4117 1.57219 53.3271 1.5034 53.2103C1.43462 53.0936 1.41501 52.9543 1.44891 52.8232C1.4828 52.692 1.56742 52.5797 1.68414 52.5109L9.35687 47.9036L1.55242 52.4077C1.43583 52.4767 1.29664 52.4964 1.16546 52.4627C1.03429 52.429 0.921871 52.3446 0.852948 52.228C0.784024 52.1114 0.764238 51.9722 0.797942 51.8411C0.831645 51.7099 0.916078 51.5975 1.03267 51.5285L18.4061 41.0008L1.32777 50.8607C1.21193 50.9235 1.07629 50.9391 0.949221 50.9042C0.82215 50.8694 0.713489 50.7867 0.645964 50.6735C0.578439 50.5604 0.557279 50.4255 0.586911 50.2971C0.616543 50.1687 0.694671 50.0567 0.804955 49.9846L26.6231 34.1061L1.32777 48.7102C1.21118 48.7792 1.07199 48.799 0.940814 48.7652C0.809638 48.7315 0.697224 48.6471 0.6283 48.5305C0.559377 48.4139 0.539591 48.2747 0.573294 48.1436C0.606998 48.0124 0.691431 47.9 0.808018 47.8311L14.8801 39.2985L1.32777 47.1224C1.21171 47.1866 1.07524 47.2031 0.947235 47.1684C0.819232 47.1337 0.709744 47.0506 0.641943 46.9366C0.574142 46.8226 0.553349 46.6867 0.583964 46.5577C0.614579 46.4287 0.6942 46.3166 0.805976 46.2452L17.3901 36.1157L1.32777 45.3865C1.27004 45.4207 1.20614 45.4432 1.13972 45.4527C1.0733 45.4622 1.00566 45.4585 0.940665 45.4419C0.875666 45.4252 0.814581 45.3959 0.760897 45.3557C0.707214 45.3154 0.661984 45.265 0.62779 45.2073C0.558731 45.0907 0.538815 44.9514 0.572423 44.8202C0.606031 44.6889 0.690409 44.5764 0.806997 44.5073L10.8446 38.4102L1.32777 43.9048C1.21118 43.9738 1.07199 43.9935 0.940814 43.9598C0.809638 43.9261 0.697224 43.8417 0.6283 43.7251C0.559377 43.6085 0.539591 43.4693 0.573294 43.3382C0.606998 43.207 0.691431 43.0946 0.808018 43.0256L3.80706 41.2142L1.32777 42.6437C1.21171 42.7079 1.07524 42.7244 0.947235 42.6897C0.819232 42.655 0.709744 42.5719 0.641943 42.458C0.574142 42.344 0.553349 42.2081 0.583964 42.0791C0.614579 41.95 0.6942 41.838 0.805976 41.7666L10.7844 35.6633L1.32777 41.1192C1.21171 41.1834 1.07524 41.1999 0.947235 41.1652C0.819232 41.1305 0.709744 41.0474 0.641943 40.9334C0.574142 40.8194 0.553349 40.6836 0.583964 40.5545C0.614579 40.4255 0.6942 40.3134 0.805976 40.2421L8.0049 35.841L1.32777 39.6988C1.21171 39.763 1.07524 39.7795 0.947235 39.7448C0.819232 39.7101 0.709744 39.627 0.641943 39.513C0.574142 39.3991 0.553349 39.2632 0.583964 39.1341C0.614579 39.0051 0.6942 38.893 0.805976 38.8217L7.12265 34.9496L1.32777 38.2948C1.21246 38.3604 1.07612 38.3786 0.947646 38.3454C0.819169 38.3123 0.708642 38.2304 0.639481 38.1172C0.570319 38.004 0.547956 37.8682 0.577128 37.7388C0.6063 37.6094 0.684716 37.4964 0.795765 37.4238L18.2876 26.172L1.32777 35.9625C1.21201 36.0263 1.07604 36.0427 0.948448 36.0082C0.820856 35.9738 0.711584 35.8913 0.64361 35.7779C0.575636 35.6646 0.554256 35.5293 0.583965 35.4005C0.613674 35.2718 0.692157 35.1595 0.802912 35.0874L7.74656 30.7609L1.32777 34.4666C1.21216 34.5327 1.07532 34.5509 0.94642 34.5176C0.817521 34.4842 0.706764 34.4017 0.637768 34.2879C0.568772 34.174 0.546996 34.0376 0.577084 33.9079C0.607172 33.7782 0.686742 33.6654 0.798828 33.5935L9.59173 28.0264L1.32777 32.797C1.27024 32.8315 1.20649 32.8543 1.14015 32.8641C1.07382 32.874 1.0062 32.8706 0.94115 32.8543C0.876103 32.838 0.814906 32.809 0.761052 32.7691C0.707198 32.7291 0.661742 32.6789 0.627279 32.6214C0.592817 32.5639 0.570022 32.5001 0.560198 32.4338C0.550373 32.3675 0.55371 32.2998 0.570019 32.2348C0.586328 32.1697 0.61529 32.1085 0.65525 32.0547C0.695209 32.0008 0.745385 31.9554 0.802912 31.9209L2.45305 30.8937L1.32981 31.5431C1.21506 31.6084 1.07948 31.6267 0.951533 31.5941C0.823586 31.5616 0.713218 31.4807 0.643592 31.3686C0.573966 31.2564 0.550496 31.1216 0.578107 30.9925C0.605718 30.8634 0.682264 30.75 0.79168 30.6762L11.4114 23.612L1.32981 29.4324C1.21541 29.4988 1.07971 29.5182 0.951284 29.4866C0.822861 29.4549 0.71174 29.3746 0.641328 29.2626C0.570915 29.1507 0.546705 29.0157 0.573798 28.8863C0.600892 28.7568 0.677172 28.6429 0.786575 28.5686L9.91951 22.3397L1.32777 27.2962C1.21328 27.3615 1.078 27.38 0.950222 27.3478C0.822441 27.3156 0.712058 27.2352 0.642158 27.1235C0.572259 27.0118 0.548257 26.8774 0.575172 26.7484C0.602088 26.6194 0.677836 26.5058 0.786575 26.4314L6.08008 22.8574L1.32777 25.6042C1.21431 25.67 1.07988 25.6896 0.952352 25.659C0.824827 25.6283 0.713991 25.5498 0.642822 25.4396C0.571652 25.3294 0.545609 25.1961 0.570092 25.0673C0.594575 24.9384 0.667705 24.8239 0.774321 24.7475L6.47117 20.6477L1.32777 23.6171C1.21537 23.6811 1.08289 23.7001 0.95707 23.6701C0.831252 23.6402 0.721478 23.5636 0.649919 23.4559C0.578361 23.3482 0.550351 23.2173 0.571546 23.0897C0.592741 22.9622 0.661562 22.8474 0.76411 22.7686L4.86596 19.6664L1.32777 21.7087C1.21904 21.7709 1.0912 21.791 0.968605 21.7651C0.846009 21.7393 0.737211 21.6692 0.662922 21.5683C0.588634 21.4674 0.554043 21.3427 0.565735 21.2179C0.577427 21.0932 0.634585 20.9771 0.726328 20.8918L4.01537 17.8692L1.32777 19.4203C1.22712 19.4785 1.1096 19.5007 0.994664 19.483C0.879727 19.4654 0.774255 19.409 0.695695 19.3233C0.61707 19.2376 0.570061 19.1276 0.562448 19.0116C0.554835 18.8955 0.587073 18.7803 0.653828 18.6851L2.02418 16.7276L1.92206 16.7848C1.86395 16.8217 1.79897 16.8465 1.73102 16.8577C1.66308 16.8689 1.59357 16.8662 1.52669 16.8498C1.45981 16.8334 1.39693 16.8037 1.34184 16.7624C1.28676 16.7211 1.24059 16.6691 1.20613 16.6094C1.17167 16.5498 1.14963 16.4838 1.14132 16.4155C1.13302 16.3471 1.13863 16.2778 1.15782 16.2117C1.177 16.1455 1.20937 16.084 1.25296 16.0307C1.29656 15.9774 1.35049 15.9334 1.4115 15.9015L3.50481 14.6925C3.60547 14.6341 3.72307 14.6118 3.83813 14.6294C3.95318 14.647 4.05877 14.7033 4.13742 14.7891C4.21606 14.8749 4.26304 14.985 4.27055 15.1011C4.27807 15.2173 4.24568 15.3325 4.17875 15.4277L2.80942 17.3862L7.51476 14.6721C7.6235 14.6098 7.75133 14.5897 7.87393 14.6156C7.99652 14.6415 8.10532 14.7116 8.17961 14.8125C8.2539 14.9134 8.28849 15.0381 8.2768 15.1628C8.2651 15.2876 8.20795 15.4037 8.1162 15.489L4.82716 18.5115L11.4798 14.6721C11.5922 14.6081 11.7247 14.5892 11.8505 14.6191C11.9763 14.649 12.0861 14.7256 12.1576 14.8333C12.2292 14.941 12.2572 15.0719 12.236 15.1995C12.2148 15.3271 12.146 15.4418 12.0434 15.5206L7.94465 18.6187L14.7862 14.6701C14.8996 14.6043 15.0341 14.5847 15.1616 14.6153C15.2891 14.646 15.4 14.7245 15.4711 14.8347C15.5423 14.9449 15.5683 15.0782 15.5439 15.207C15.5194 15.3359 15.4462 15.4504 15.3396 15.5268L9.64074 19.6256L18.2253 14.6721C18.3395 14.6109 18.4726 14.5954 18.5978 14.6287C18.723 14.662 18.8308 14.7416 18.8995 14.8514C18.9681 14.9612 18.9925 15.093 18.9676 15.2201C18.9428 15.3472 18.8705 15.4601 18.7655 15.536L13.4679 19.1099L21.158 14.6721C21.2721 14.6086 21.4063 14.5913 21.5328 14.6237C21.6593 14.6561 21.7686 14.7357 21.8382 14.8463C21.9078 14.9568 21.9324 15.0898 21.9069 15.2179C21.8814 15.346 21.8078 15.4595 21.7012 15.5349L12.5703 21.7638L24.8575 14.6721C24.972 14.6096 25.1061 14.5933 25.2322 14.6265C25.3584 14.6597 25.467 14.7399 25.5358 14.8507C25.6047 14.9615 25.6285 15.0944 25.6025 15.2222C25.5764 15.3501 25.5024 15.463 25.3957 15.538L14.776 22.6021L28.5101 14.6721C28.626 14.6053 28.7635 14.5866 28.8931 14.6201C29.0226 14.6537 29.1338 14.7367 29.2028 14.8514C29.2717 14.9661 29.2928 15.1033 29.2616 15.2334C29.2304 15.3635 29.1494 15.4762 29.036 15.5472L27.3869 16.5714L30.683 14.6721C30.7987 14.606 30.9355 14.5877 31.0644 14.6211C31.1933 14.6545 31.3041 14.7369 31.373 14.8508C31.442 14.9647 31.4638 15.101 31.4337 15.2307C31.4036 15.3605 31.3241 15.4733 31.212 15.5452L22.414 21.1144L33.5769 14.6721C33.6928 14.6053 33.8304 14.5866 33.9599 14.6201C34.0894 14.6537 34.2006 14.7367 34.2696 14.8514C34.3385 14.9661 34.3596 15.1033 34.3284 15.2334C34.2973 15.3635 34.2162 15.4762 34.1028 15.5472L27.151 19.8798L36.1685 14.6721C36.2838 14.6065 36.4202 14.5883 36.5486 14.6214C36.6771 14.6546 36.7876 14.7364 36.8568 14.8497C36.926 14.9629 36.9483 15.0986 36.9192 15.2281C36.89 15.3575 36.8116 15.4705 36.7005 15.5431L19.2179 26.7898L40.2071 14.6721C40.2647 14.6378 40.3284 14.6151 40.3948 14.6054C40.4611 14.5958 40.5288 14.5993 40.5938 14.6157C40.6587 14.6322 40.7199 14.6612 40.7736 14.7013C40.8274 14.7414 40.8727 14.7917 40.907 14.8493C40.9414 14.9069 40.964 14.9706 40.9737 15.037C40.9834 15.1033 40.9799 15.1709 40.9634 15.2359C40.947 15.3009 40.9179 15.3621 40.8778 15.4158C40.8377 15.4696 40.7875 15.5149 40.7299 15.5492L34.3989 19.4295L42.6404 14.6721C42.7565 14.6079 42.8929 14.5914 43.0209 14.6261C43.1489 14.6608 43.2584 14.7439 43.3262 14.8579C43.394 14.9719 43.4148 15.1077 43.3842 15.2368C43.3536 15.3658 43.274 15.4779 43.1622 15.5492L35.9694 19.9472L45.1064 14.6721C45.2225 14.6079 45.3589 14.5914 45.487 14.6261C45.615 14.6608 45.7244 14.7439 45.7922 14.8579C45.86 14.9719 45.8808 15.1077 45.8502 15.2368C45.8196 15.3658 45.74 15.4779 45.6282 15.5492L35.658 21.6494L47.7419 14.6721C47.8581 14.6089 47.9942 14.5933 48.1216 14.6284C48.2491 14.6636 48.3579 14.7468 48.4252 14.8606C48.4926 14.9743 48.5131 15.1098 48.4826 15.2384C48.4521 15.3671 48.3729 15.4788 48.2617 15.5503L45.2565 17.3638L49.9241 14.6721C50.0404 14.6058 50.1781 14.5879 50.3075 14.6221C50.4369 14.6564 50.5477 14.7401 50.616 14.8553C50.6843 14.9704 50.7046 15.1078 50.6726 15.2378C50.6406 15.3678 50.5588 15.48 50.4449 15.5503L40.4195 21.6402L52.4902 14.6721C52.6062 14.6079 52.7427 14.5914 52.8707 14.6261C52.9987 14.6608 53.1082 14.7439 53.176 14.8579C53.2438 14.9719 53.2646 15.1077 53.234 15.2368C53.2034 15.3658 53.1237 15.4779 53.012 15.5492L36.433 25.6757L55.4964 14.6721C55.6125 14.6089 55.7486 14.5933 55.876 14.6284C56.0035 14.6636 56.1123 14.7468 56.1796 14.8606C56.247 14.9743 56.2676 15.1098 56.2371 15.2384C56.2066 15.3671 56.1274 15.4788 56.0161 15.5503L41.9195 24.096L57.9511 14.8447C58.0669 14.7837 58.2016 14.7694 58.3275 14.8049C58.4534 14.8403 58.5609 14.9227 58.6278 15.0351C58.6948 15.1475 58.716 15.2813 58.6872 15.4088C58.6584 15.5364 58.5817 15.6481 58.4729 15.7208L32.665 31.5901L59.5124 16.0894C59.629 16.0205 59.7682 16.0007 59.8994 16.0344C60.0306 16.0681 60.143 16.1525 60.2119 16.2691C60.2808 16.3857 60.3006 16.5249 60.2669 16.6561C60.2332 16.7873 60.1488 16.8997 60.0322 16.9686L42.6649 27.4933L59.9679 17.5037C60.0842 17.4388 60.2213 17.4221 60.3499 17.4569C60.4785 17.4918 60.5884 17.5755 60.656 17.6903C60.7237 17.805 60.7439 17.9416 60.7122 18.071C60.6806 18.2004 60.5996 18.3123 60.4866 18.3829L52.8128 22.9902L59.9811 18.8587C60.0972 18.7945 60.2337 18.778 60.3617 18.8127C60.4897 18.8474 60.5992 18.9305 60.667 19.0445C60.7348 19.1585 60.7556 19.2944 60.7249 19.4234C60.6943 19.5524 60.6147 19.6645 60.5029 19.7358L35.6079 35.0527L59.9811 20.9714C60.0971 20.9095 60.2324 20.8946 60.359 20.9299C60.4856 20.9652 60.5937 21.048 60.6608 21.161C60.7279 21.2741 60.7488 21.4086 60.7192 21.5367C60.6896 21.6647 60.6118 21.7764 60.5019 21.8486L43.827 32.0169L59.9811 22.6879C60.0975 22.6186 60.2365 22.5983 60.3678 22.6315C60.4991 22.6648 60.6118 22.7488 60.6811 22.8651C60.7504 22.9814 60.7707 23.1205 60.7375 23.2518C60.7043 23.383 60.6203 23.4957 60.5039 23.5651L41.1914 35.4591L59.9801 24.6117C60.096 24.5498 60.2314 24.5349 60.358 24.5702C60.4846 24.6055 60.5927 24.6883 60.6598 24.8013C60.7269 24.9144 60.7478 25.0489 60.7182 25.177C60.6886 25.305 60.6108 25.4167 60.5009 25.4889L48.8968 32.5744L59.9811 26.1751C60.0972 26.1109 60.2337 26.0944 60.3617 26.1291C60.4897 26.1638 60.5992 26.2469 60.667 26.3608C60.7348 26.4748 60.7556 26.6107 60.7249 26.7397C60.6943 26.8688 60.6147 26.9808 60.5029 27.0522L47.5122 35.0425L59.9811 27.8446C60.097 27.7818 60.2326 27.7662 60.3597 27.8011C60.4868 27.836 60.5954 27.9186 60.6629 28.0318C60.7305 28.1449 60.7516 28.2798 60.722 28.4082C60.6924 28.5366 60.6142 28.6486 60.5039 28.7207L49.0929 35.7563L59.9811 29.4702C60.0964 29.4077 60.2313 29.392 60.3579 29.4263C60.4844 29.4606 60.5929 29.5422 60.6609 29.6543C60.7289 29.7664 60.7512 29.9004 60.7231 30.0285C60.695 30.1565 60.6187 30.2689 60.5101 30.3423L42.9202 41.5277L59.9811 31.683C60.096 31.6221 60.2298 31.6074 60.3552 31.6418C60.4806 31.6762 60.5882 31.7572 60.6559 31.8682C60.7237 31.9792 60.7465 32.1118 60.7198 32.2391C60.6931 32.3664 60.6188 32.4786 60.5121 32.553L44.3988 42.9348L59.9811 33.9397C60.0962 33.8781 60.2305 33.8629 60.3565 33.8972C60.4824 33.9316 60.5904 34.0129 60.6583 34.1244C60.7261 34.2359 60.7487 34.3692 60.7213 34.4969C60.6939 34.6245 60.6187 34.7368 60.5111 34.8107L49.0132 42.1628L59.9811 35.8318C60.0962 35.7664 60.2321 35.7482 60.3603 35.7811C60.4884 35.814 60.5988 35.8953 60.6682 36.008C60.7376 36.1206 60.7605 36.2559 60.7322 36.3851C60.7038 36.5143 60.6264 36.6275 60.5162 36.7008L48.4016 44.6737L59.9811 37.9895C60.0964 37.927 60.2313 37.9113 60.3579 37.9455C60.4844 37.9798 60.5929 38.0615 60.6609 38.1736C60.7289 38.2857 60.7512 38.4196 60.7231 38.5477C60.695 38.6758 60.6187 38.7881 60.5101 38.8615L56.1672 41.6298L59.9811 39.4292C60.0956 39.3667 60.2297 39.3504 60.3558 39.3836C60.482 39.4169 60.5906 39.4971 60.6594 39.6079C60.7283 39.7187 60.7521 39.8516 60.7261 39.9794C60.7 40.1072 60.626 40.2202 60.5193 40.2952L52.5953 45.5866L59.9811 41.3234C60.096 41.2592 60.2312 41.2418 60.3585 41.2748C60.4859 41.3078 60.5956 41.3888 60.6647 41.5007C60.7339 41.6127 60.7572 41.747 60.7297 41.8757C60.7022 42.0044 60.6261 42.1175 60.5172 42.1914L56.2847 44.9852L59.9811 42.8551C60.0952 42.7907 60.2296 42.7726 60.3567 42.8046C60.4837 42.8365 60.5936 42.916 60.6636 43.0267C60.7337 43.1374 60.7585 43.2708 60.7329 43.3992C60.7074 43.5277 60.6335 43.6415 60.5264 43.7169L55.6342 47.0928L59.9811 44.5839C60.0947 44.5215 60.2278 44.5046 60.3533 44.5367C60.4789 44.5688 60.5875 44.6474 60.6572 44.7566C60.727 44.8658 60.7526 44.9975 60.7289 45.1249C60.7051 45.2523 60.6339 45.3659 60.5295 45.4426L57.3834 47.6544L59.9811 46.1533C60.0915 46.0905 60.2213 46.071 60.3452 46.0987C60.4691 46.1263 60.5783 46.1992 60.6514 46.3031C60.7245 46.4069 60.7563 46.5343 60.7405 46.6603C60.7248 46.7863 60.6626 46.9019 60.5662 46.9845L56.3408 50.5585L59.9811 48.458C60.093 48.3945 60.2248 48.3756 60.35 48.405C60.4753 48.4344 60.5848 48.5101 60.6567 48.6168C60.7285 48.7235 60.7575 48.8534 60.7377 48.9806C60.7179 49.1077 60.6508 49.2227 60.5499 49.3025L59.9883 49.7406C60.0915 49.684 60.2111 49.6648 60.3269 49.6863C60.4426 49.7078 60.5474 49.7686 60.6234 49.8584C60.6995 49.9483 60.7421 50.0617 60.7442 50.1794C60.7462 50.2971 60.7075 50.4119 60.6347 50.5044L59.4011 52.0514L59.5145 51.987C59.6312 51.926 59.7669 51.9124 59.8934 51.9491C60.0199 51.9858 60.1273 52.0699 60.1932 52.1839C60.2591 52.2979 60.2784 52.433 60.247 52.5609C60.2157 52.6888 60.1362 52.7997 60.025 52.8703L57.5713 54.2917C57.4683 54.3508 57.3479 54.3721 57.2308 54.3519C57.1138 54.3318 57.0075 54.2715 56.9301 54.1815C56.8527 54.0914 56.8091 53.9772 56.8069 53.8584C56.8046 53.7397 56.8438 53.6239 56.9178 53.531L58.1533 51.9829L54.1403 54.2917C54.0284 54.3565 53.896 54.3764 53.77 54.3474C53.6439 54.3184 53.5336 54.2427 53.4612 54.1354C53.3889 54.0282 53.3599 53.8975 53.3802 53.7698C53.4005 53.642 53.4685 53.5268 53.5705 53.4472L54.1321 53.0092L51.9112 54.2917C51.8009 54.3546 51.6711 54.3741 51.5471 54.3464C51.4232 54.3187 51.314 54.2458 51.2409 54.142C51.1678 54.0382 51.136 53.9108 51.1518 53.7848C51.1675 53.6588 51.2297 53.5432 51.3261 53.4605L55.5505 49.8866L47.9206 54.2917C47.8071 54.3541 47.674 54.3709 47.5485 54.3389C47.4229 54.3068 47.3143 54.2282 47.2445 54.119C47.1748 54.0098 47.1492 53.8781 47.1729 53.7507C47.1966 53.6233 47.2679 53.5097 47.3723 53.4329L50.5174 51.2232L45.2075 54.2917C45.0937 54.3539 44.9605 54.3704 44.8349 54.3379C44.7094 54.3054 44.6009 54.2264 44.5315 54.1168C44.4621 54.0073 44.437 53.8754 44.4613 53.748C44.4855 53.6206 44.5574 53.5072 44.6622 53.4309L49.5555 50.051L42.2044 54.2917C42.0897 54.355 41.9551 54.3718 41.8284 54.3387C41.7017 54.3055 41.5926 54.225 41.5236 54.1136C41.4546 54.0023 41.4311 53.8687 41.4578 53.7405C41.4846 53.6123 41.5595 53.4992 41.6673 53.4248L45.9029 50.6238L39.5484 54.2917C39.434 54.3542 39.2999 54.3705 39.1738 54.3373C39.0476 54.3041 38.939 54.2239 38.8701 54.1131C38.8013 54.0023 38.7774 53.8694 38.8035 53.7416C38.8296 53.6137 38.9036 53.5008 39.0103 53.4258L46.9332 48.1343L36.2706 54.2917C36.1554 54.3542 36.0205 54.3699 35.8939 54.3356C35.7674 54.3014 35.6588 54.2197 35.5908 54.1076C35.5228 53.9955 35.5006 53.8615 35.5287 53.7335C35.5567 53.6054 35.633 53.493 35.7417 53.4197L40.0753 50.6626L33.7811 54.2917C33.6663 54.3559 33.5311 54.3734 33.4037 54.3403C33.2764 54.3073 33.1667 54.2264 33.0975 54.1144C33.0284 54.0025 33.0051 53.8681 33.0326 53.7395C33.0601 53.6108 33.1362 53.4977 33.245 53.4237L45.3586 45.4529L30.0418 54.2917C29.9267 54.3533 29.7924 54.3685 29.6664 54.3341C29.5405 54.2998 29.4325 54.2185 29.3646 54.107C29.2968 53.9954 29.2742 53.8622 29.3016 53.7345C29.329 53.6069 29.4042 53.4946 29.5118 53.4207L41.0097 46.0686L26.766 54.2917C26.651 54.3541 26.5164 54.37 26.39 54.3361C26.2637 54.3021 26.1551 54.221 26.0869 54.1093C26.0186 53.9977 25.9958 53.8641 26.0232 53.7362C26.0506 53.6082 26.126 53.4956 26.234 53.4217L42.3524 43.0389L22.8571 54.2917C22.7418 54.3562 22.6058 54.3734 22.478 54.3398C22.3502 54.3061 22.2404 54.2242 22.1717 54.1112C22.1031 53.9982 22.0809 53.863 22.1099 53.7341C22.1389 53.6051 22.2168 53.4924 22.3272 53.4197L39.912 42.2353L19.0249 54.2917C18.909 54.3545 18.7734 54.3701 18.6463 54.3352C18.5193 54.3003 18.4106 54.2177 18.3431 54.1045C18.2755 53.9914 18.2544 53.8565 18.284 53.7281C18.3136 53.5997 18.3918 53.4877 18.5021 53.4156L29.9182 46.3759L16.2076 54.2917C16.0918 54.3545 15.9561 54.3701 15.829 54.3352C15.702 54.3003 15.5933 54.2177 15.5258 54.1045C15.4583 53.9914 15.4371 53.8565 15.4667 53.7281C15.4964 53.5997 15.5745 53.4877 15.6848 53.4156L28.6694 45.4304L13.3188 54.2917C13.2415 54.3376 13.1535 54.3623 13.0635 54.3632Z" fill="#478CFF"/>
<path d="M16.8614 60.4898C16.7501 60.4901 16.6417 60.454 16.5528 60.387C16.464 60.32 16.3994 60.2258 16.369 60.1188C16.3386 60.0117 16.344 59.8976 16.3844 59.7939C16.4248 59.6902 16.498 59.6025 16.5928 59.5443L17.5026 58.9816L15.5492 60.1049C15.4333 60.1717 15.2958 60.1904 15.1662 60.1568C15.0367 60.1233 14.9255 60.0403 14.8566 59.9256C14.7877 59.8109 14.7665 59.6737 14.7977 59.5436C14.8289 59.4134 14.9099 59.3008 15.0234 59.2298L22.2999 54.6766L14.7119 59.0572C14.5966 59.1197 14.4617 59.1354 14.3352 59.1011C14.2086 59.0669 14.1001 58.9852 14.0321 58.8731C13.9641 58.761 13.9419 58.627 13.9699 58.499C13.998 58.3709 14.0743 58.2585 14.183 58.1852L26.2047 50.5523L14.6027 57.2529C14.4871 57.3206 14.3496 57.3402 14.2197 57.3075C14.0899 57.2747 13.9781 57.1923 13.9084 57.0779C13.8388 56.9635 13.8169 56.8264 13.8474 56.696C13.8779 56.5656 13.9585 56.4524 14.0717 56.3808L27.9998 47.4685L14.6027 55.1994C14.4873 55.2639 14.3514 55.2811 14.2235 55.2475C14.0957 55.2138 13.9859 55.1319 13.9172 55.0189C13.8486 54.9059 13.8264 54.7707 13.8554 54.6417C13.8844 54.5128 13.9623 54.4001 14.0727 54.3274L27.3371 45.8612L14.6027 53.2133C14.4865 53.2829 14.3474 53.3035 14.216 53.2706C14.0847 53.2376 13.9718 53.1539 13.9022 53.0377C13.8326 52.9215 13.812 52.7824 13.8449 52.6511C13.8778 52.5197 13.9616 52.4068 14.0778 52.3372L19.7501 48.8143L14.6027 51.7858C14.4868 51.8486 14.3512 51.8642 14.2241 51.8293C14.097 51.7944 13.9884 51.7117 13.9208 51.5986C13.8533 51.4854 13.8322 51.3505 13.8618 51.2221C13.8914 51.0937 13.9696 50.9818 14.0798 50.9097L16.3345 49.5209L14.5986 50.5196C14.4833 50.5852 14.3469 50.6034 14.2184 50.5702C14.09 50.5371 13.9794 50.4552 13.9103 50.342C13.8411 50.2288 13.8188 50.0931 13.8479 49.9636C13.8771 49.8342 13.9555 49.7212 14.0666 49.6486L28.7146 40.2318L14.6027 48.3783C14.4869 48.442 14.3509 48.4584 14.2233 48.424C14.0957 48.3896 13.9865 48.307 13.9185 48.1937C13.8505 48.0803 13.8291 47.9451 13.8589 47.8163C13.8886 47.6875 13.967 47.5753 14.0778 47.5032L19.4591 44.159L14.6027 46.963C14.4865 47.0326 14.3474 47.0532 14.216 47.0203C14.0847 46.9873 13.9718 46.9036 13.9022 46.7874C13.8326 46.6712 13.812 46.5321 13.8449 46.4008C13.8778 46.2694 13.9616 46.1565 14.0778 46.0869L18.8362 43.1256L14.6027 45.5722C14.4874 45.6347 14.3525 45.6504 14.2259 45.6162C14.0994 45.5819 13.9909 45.5002 13.9229 45.3881C13.8549 45.276 13.8326 45.1421 13.8607 45.014C13.8888 44.8859 13.965 44.7736 14.0737 44.7002L24.047 38.3621L14.6027 43.8149C14.4873 43.8805 14.351 43.8987 14.2225 43.8655C14.0941 43.8324 13.9835 43.7505 13.9144 43.6373C13.8452 43.5241 13.8228 43.3884 13.852 43.2589C13.8812 43.1295 13.9596 43.0165 14.0706 42.9439L25.3112 35.7072L14.6027 41.887C14.487 41.9531 14.3502 41.9714 14.2213 41.938C14.0924 41.9046 13.9816 41.8222 13.9127 41.7083C13.8437 41.5944 13.8219 41.4581 13.852 41.3284C13.8821 41.1986 13.9616 41.0858 14.0737 41.0139L21.3625 36.3872L14.6027 40.292C14.4879 40.3573 14.3523 40.3756 14.2244 40.343C14.0964 40.3105 13.9861 40.2296 13.9164 40.1175C13.8468 40.0053 13.8233 39.8705 13.851 39.7414C13.8786 39.6123 13.9551 39.4989 14.0645 39.4251L26.7622 31.01L14.6027 38.0333C14.4867 38.1033 14.3478 38.1244 14.2163 38.0919C14.0848 38.0595 13.9717 37.9761 13.9017 37.8602C13.8316 37.7443 13.8106 37.6053 13.843 37.4739C13.8755 37.3424 13.9588 37.2292 14.0747 37.1592L17.9285 34.7259L14.6027 36.6456C14.4877 36.7089 14.3529 36.7255 14.226 36.692C14.0992 36.6585 13.9901 36.5775 13.9214 36.4657C13.8527 36.3539 13.8297 36.22 13.8571 36.0917C13.8845 35.9634 13.9602 35.8505 14.0686 35.7766L22.2897 30.4259L14.6027 34.8637C14.4881 34.9316 14.3515 34.952 14.222 34.9206C14.0926 34.8892 13.9806 34.8085 13.9098 34.6957C13.8391 34.5828 13.8152 34.4468 13.8434 34.3166C13.8715 34.1864 13.9494 34.0724 14.0604 33.9988L23.4129 27.6474L14.6027 32.7336C14.4886 32.798 14.3542 32.8162 14.2271 32.7842C14.1001 32.7523 13.9902 32.6727 13.9202 32.562C13.8501 32.4514 13.8253 32.318 13.8509 32.1895C13.8764 32.061 13.9503 31.9473 14.0574 31.8718L21.1225 26.9959L14.6027 30.7588C14.4893 30.8214 14.3564 30.8387 14.2309 30.807C14.1053 30.7753 13.9964 30.6972 13.9264 30.5883C13.8563 30.4794 13.8302 30.3479 13.8534 30.2205C13.8766 30.0931 13.9473 29.9793 14.0512 29.9021L19.5245 26.0004L14.6027 28.8432C14.4891 28.9079 14.355 28.9267 14.2281 28.8955C14.1011 28.8644 13.9909 28.7857 13.9202 28.6758C13.8495 28.5658 13.8237 28.4329 13.8481 28.3045C13.8725 28.176 13.9452 28.0618 14.0512 27.9854L16.7766 26.0453L14.6027 27.3013C14.4917 27.3668 14.36 27.3879 14.2341 27.3603C14.1082 27.3328 13.9974 27.2587 13.9239 27.1529C13.8504 27.047 13.8196 26.9173 13.8377 26.7897C13.8558 26.6621 13.9215 26.5461 14.0216 26.465L17.3638 23.7008L14.6027 25.2917C14.4977 25.3524 14.3746 25.3738 14.2554 25.3521C14.1361 25.3304 14.0285 25.2669 13.9517 25.1731C13.8749 25.0793 13.8341 24.9612 13.8364 24.84C13.8387 24.7188 13.8841 24.6024 13.9645 24.5116L15.9904 22.214L14.6027 23.0146C14.4989 23.0738 14.3776 23.0947 14.26 23.0737C14.1423 23.0527 14.0358 22.9911 13.9589 22.8996C13.882 22.8082 13.8396 22.6926 13.8392 22.5731C13.8387 22.4536 13.8801 22.3378 13.9563 22.2457L14.4454 21.6636C14.3573 21.6273 14.2811 21.5671 14.2254 21.4897C14.1698 21.4123 14.1369 21.3209 14.1305 21.2257C14.1241 21.1306 14.1445 21.0356 14.1893 20.9515C14.2342 20.8674 14.3016 20.7975 14.3841 20.7497L16.0751 19.7735C16.179 19.7144 16.3004 19.6936 16.418 19.7147C16.5357 19.7359 16.6422 19.7976 16.719 19.8893C16.7958 19.9809 16.838 20.0965 16.8383 20.2161C16.8386 20.3356 16.7969 20.4515 16.7205 20.5435L16.6071 20.6783L18.1797 19.7715C18.2845 19.7114 18.4072 19.6904 18.526 19.7123C18.6448 19.7341 18.752 19.7974 18.8286 19.8909C18.9051 19.9843 18.9461 20.1019 18.9441 20.2227C18.9421 20.3435 18.8974 20.4597 18.8179 20.5506L16.7919 22.8481L22.1243 19.7776C22.2351 19.7148 22.3653 19.6956 22.4895 19.7239C22.6137 19.7522 22.7229 19.8259 22.7955 19.9305C22.8682 20.0351 22.8991 20.1632 22.8822 20.2894C22.8653 20.4157 22.8019 20.531 22.7043 20.6129L19.3631 23.3761L25.592 19.7776C25.7055 19.7128 25.8396 19.6941 25.9666 19.7252C26.0936 19.7564 26.2037 19.835 26.2744 19.945C26.3451 20.055 26.371 20.1879 26.3466 20.3163C26.3222 20.4448 26.2495 20.559 26.1434 20.6354L23.415 22.5755L28.2684 19.7776C28.3819 19.7128 28.516 19.6941 28.643 19.7252C28.7699 19.7564 28.8801 19.835 28.9508 19.945C29.0215 20.055 29.0473 20.1879 29.0229 20.3163C28.9986 20.4448 28.9258 20.559 28.8198 20.6354L23.3435 24.5361L31.588 19.7776C31.7019 19.7155 31.8351 19.699 31.9606 19.7314C32.0862 19.7639 32.1946 19.843 32.264 19.9525C32.3334 20.0621 32.3586 20.1939 32.3343 20.3213C32.31 20.4487 32.2381 20.5621 32.1333 20.6384L25.0733 25.5123L35.0068 19.7776C35.1211 19.7133 35.2557 19.6955 35.3828 19.7278C35.5099 19.7601 35.6197 19.8401 35.6895 19.9512C35.7592 20.0623 35.7835 20.1959 35.7573 20.3245C35.7312 20.453 35.6566 20.5665 35.549 20.6415L26.1965 26.9929L38.3571 19.9727C38.4722 19.9083 38.6077 19.8911 38.7353 19.9244C38.8628 19.9578 38.9726 20.0392 39.0414 20.1516C39.1103 20.2641 39.133 20.3988 39.1048 20.5276C39.0766 20.6564 38.9997 20.7693 38.8901 20.8427L30.6751 26.1872L39.7366 20.956C39.852 20.8943 39.9866 20.8793 40.1127 20.914C40.2388 20.9487 40.3468 21.0305 40.4144 21.1425C40.482 21.2545 40.504 21.3881 40.4759 21.5159C40.4478 21.6436 40.3718 21.7557 40.2635 21.8291L36.3975 24.2706L40.6168 21.8352C40.7318 21.7685 40.8682 21.7493 40.997 21.7816C41.1259 21.8139 41.2371 21.8952 41.3071 22.0082C41.377 22.1212 41.4001 22.257 41.3715 22.3868C41.3429 22.5165 41.2649 22.63 41.1539 22.7031L28.4562 31.1121L42.0484 23.2658C42.1637 23.2033 42.2986 23.1876 42.4252 23.2219C42.5517 23.2561 42.6602 23.3378 42.7282 23.4499C42.7962 23.562 42.8185 23.696 42.7904 23.824C42.7623 23.9521 42.686 24.0645 42.5774 24.1378L35.2916 28.7635L43.0593 24.2798C43.1743 24.2173 43.3089 24.2015 43.4353 24.2354C43.5617 24.2693 43.6702 24.3505 43.7385 24.4621C43.8067 24.5738 43.8295 24.7073 43.8022 24.8353C43.7748 24.9633 43.6993 25.0758 43.5913 25.1498L32.3447 32.3905L44.2806 25.4959C44.3962 25.4299 44.5331 25.4116 44.662 25.4449C44.7909 25.4783 44.9016 25.5608 44.9706 25.6746C45.0396 25.7885 45.0614 25.9249 45.0313 26.0546C45.0012 26.1843 44.9216 26.2971 44.8095 26.369L34.8352 32.7091L45.3967 26.6192C45.5123 26.5574 45.6473 26.5425 45.7736 26.5775C45.9 26.6125 46.008 26.6948 46.0753 26.8073C46.1426 26.9198 46.1641 27.0538 46.1353 27.1817C46.1065 27.3096 46.0296 27.4215 45.9205 27.4943L41.1652 30.4555L46.2126 27.5382C46.3288 27.4686 46.4678 27.448 46.5992 27.4809C46.7306 27.5138 46.8435 27.5976 46.9131 27.7138C46.9827 27.83 47.0033 27.9691 46.9703 28.1004C46.9374 28.2318 46.8536 28.3447 46.7374 28.4143L41.3765 31.7391L46.6598 28.69C46.7754 28.6223 46.9129 28.6027 47.0427 28.6354C47.1726 28.6681 47.2844 28.7506 47.354 28.865C47.4237 28.9793 47.4456 29.1165 47.4151 29.2469C47.3845 29.3773 47.304 29.4905 47.1908 29.562L32.5499 38.9748L46.7068 30.8058C46.7644 30.7714 46.8282 30.7488 46.8945 30.7391C46.9609 30.7294 47.0285 30.7329 47.0935 30.7494C47.1585 30.7658 47.2196 30.7949 47.2734 30.835C47.3271 30.8751 47.3724 30.9253 47.4068 30.9829C47.4411 31.0405 47.4637 31.1043 47.4734 31.1707C47.4831 31.237 47.4796 31.3046 47.4632 31.3696C47.4467 31.4346 47.4176 31.4957 47.3775 31.5495C47.3375 31.6032 47.2872 31.6486 47.2296 31.6829L44.9505 33.087L46.7068 32.073C46.8224 32.0112 46.9574 31.9963 47.0837 32.0313C47.2101 32.0663 47.3181 32.1486 47.3854 32.2611C47.4527 32.3736 47.4742 32.5077 47.4454 32.6355C47.4166 32.7634 47.3397 32.8753 47.2306 32.9481L41.5583 36.471L46.7068 33.4995C46.8224 33.4334 46.9592 33.4151 47.0881 33.4485C47.217 33.4819 47.3278 33.5643 47.3968 33.6782C47.4658 33.7921 47.4876 33.9284 47.4575 34.0581C47.4274 34.1878 47.3478 34.3007 47.2357 34.3726L33.9713 42.8387L46.7068 35.4866C46.8222 35.4221 46.9581 35.4049 47.0859 35.4385C47.2138 35.4722 47.3236 35.5541 47.3922 35.6671C47.4609 35.7801 47.483 35.9153 47.454 36.0442C47.425 36.1732 47.3472 36.2859 47.2368 36.3586L33.3096 45.273L46.7068 37.5452C46.8223 37.4817 46.9578 37.4653 47.0851 37.4994C47.2124 37.5336 47.3215 37.6156 47.3897 37.7284C47.4579 37.8411 47.4798 37.9759 47.451 38.1045C47.4221 38.2331 47.3446 38.3455 47.2347 38.4182L35.2202 46.046L46.7068 39.4118C46.8227 39.345 46.9602 39.3263 47.0898 39.3598C47.2193 39.3934 47.3305 39.4764 47.3995 39.5911C47.4684 39.7058 47.4895 39.843 47.4583 39.9731C47.4271 40.1032 47.3461 40.2159 47.2327 40.2869L39.947 44.8421L46.7027 40.9425C46.819 40.8731 46.9581 40.8528 47.0894 40.8861C47.2207 40.9193 47.3334 41.0033 47.4027 41.1196C47.472 41.2359 47.4923 41.375 47.4591 41.5063C47.4259 41.6376 47.3418 41.7503 47.2255 41.8196L46.3167 42.3802L46.7027 42.1586C46.8172 42.0961 46.9513 42.0798 47.0774 42.113C47.2035 42.1462 47.3122 42.2265 47.381 42.3373C47.4499 42.448 47.4737 42.581 47.4476 42.7088C47.4216 42.8366 47.3476 42.9496 47.2408 43.0245L34.3747 51.602L46.7068 44.4888C46.822 44.4199 46.9597 44.399 47.0901 44.4308C47.2205 44.4626 47.3331 44.5445 47.4036 44.6588C47.4741 44.773 47.4968 44.9104 47.4667 45.0413C47.4366 45.1721 47.3562 45.2858 47.2429 45.3578L38.8799 50.8647L46.7068 46.3462C46.8218 46.2809 46.9577 46.2627 47.0859 46.2955C47.2141 46.3284 47.3245 46.4097 47.3939 46.5224C47.4633 46.6351 47.4862 46.7703 47.4578 46.8995C47.4295 47.0288 47.352 47.142 47.2419 47.2152L41.8207 50.782L46.7068 47.9606C46.8218 47.8953 46.9577 47.8771 47.0859 47.9099C47.2141 47.9428 47.3245 48.0241 47.3939 48.1368C47.4633 48.2495 47.4862 48.3847 47.4578 48.5139C47.4295 48.6432 47.352 48.7563 47.2419 48.8296L44.5869 50.5747L46.7119 49.3494C46.8252 49.2843 46.9591 49.2652 47.0861 49.296C47.2131 49.3267 47.3235 49.4049 47.3945 49.5146C47.4655 49.6242 47.4919 49.7569 47.468 49.8853C47.4442 50.0138 47.372 50.1282 47.2664 50.2051L41.2744 54.5163L46.7037 51.3835C46.8177 51.3207 46.9514 51.3038 47.0774 51.3362C47.2034 51.3687 47.3123 51.448 47.3817 51.5581C47.4512 51.6681 47.4761 51.8005 47.4512 51.9282C47.4264 52.0559 47.3537 52.1693 47.248 52.2453L45.99 53.1122L46.7048 52.7038C46.8181 52.6382 46.9523 52.6187 47.0797 52.6493C47.207 52.6799 47.3177 52.7583 47.3889 52.8682C47.4602 52.9783 47.4864 53.1116 47.4621 53.2405C47.4378 53.3694 47.3648 53.484 47.2582 53.5605L46.0502 54.4274L46.7048 54.0506C46.8155 53.9888 46.9453 53.9704 47.0689 53.9991C47.1925 54.0277 47.3009 54.1013 47.3732 54.2056C47.4455 54.3098 47.4763 54.4373 47.4598 54.563C47.4432 54.6888 47.3805 54.8039 47.2837 54.8859L45.3936 56.436L46.7068 55.6783C46.8151 55.6157 46.9427 55.5951 47.0652 55.6203C47.1877 55.6455 47.2968 55.7148 47.3715 55.8151C47.4466 55.9158 47.482 56.0406 47.4709 56.1656C47.4598 56.2907 47.403 56.4073 47.3113 56.4932L46.4372 57.3101L46.7068 57.1559C46.8106 57.0961 46.9321 57.0747 47.0501 57.0954C47.1681 57.1162 47.2751 57.1778 47.3522 57.2694C47.4294 57.3611 47.4719 57.4769 47.4722 57.5967C47.4726 57.7166 47.4308 57.8327 47.3542 57.9248L46.8559 58.5221C46.9639 58.5639 47.0542 58.6418 47.1112 58.7427C47.1786 58.8597 47.1969 58.9988 47.1621 59.1293C47.1273 59.2598 47.0421 59.3712 46.9253 59.4391L45.2354 60.4153C45.1316 60.4745 45.0103 60.4954 44.8927 60.4744C44.775 60.4534 44.6685 60.3918 44.5916 60.3003C44.5147 60.2089 44.4723 60.0933 44.4719 59.9738C44.4714 59.8543 44.5128 59.7385 44.589 59.6464L44.7309 59.4748L43.0971 60.4173C42.9883 60.4824 42.8592 60.5047 42.7349 60.4799C42.6106 60.4551 42.4999 60.3848 42.4245 60.2829C42.3491 60.181 42.3143 60.0547 42.3269 59.9286C42.3395 59.8024 42.3986 59.6854 42.4926 59.6004L43.3667 58.7835L40.5382 60.4173C40.4274 60.4802 40.2971 60.4993 40.1729 60.4711C40.0487 60.4428 39.9396 60.3691 39.8669 60.2644C39.7943 60.1598 39.7633 60.0318 39.7802 59.9056C39.7971 59.7793 39.8606 59.6639 39.9582 59.5821L41.8514 58.0259L37.7087 60.4184C37.5952 60.4841 37.4608 60.5037 37.3332 60.4731C37.2057 60.4424 37.0949 60.3639 37.0237 60.2537C36.9525 60.1435 36.9265 60.0102 36.951 59.8814C36.9755 59.7525 37.0486 59.638 37.1552 59.5616L38.3663 58.6927L35.3744 60.4184C35.2604 60.4811 35.1267 60.498 35.0007 60.4656C34.8747 60.4331 34.7658 60.3538 34.6964 60.2438C34.6269 60.1337 34.602 60.0013 34.6269 59.8736C34.6517 59.7459 34.7244 59.6325 34.8301 59.5565L36.0881 58.6896L33.0932 60.4184C32.9799 60.4834 32.8459 60.5025 32.719 60.4718C32.592 60.4411 32.4816 60.3628 32.4106 60.2532C32.3395 60.1435 32.3132 60.0108 32.337 59.8824C32.3609 59.7539 32.433 59.6395 32.5387 59.5627L38.5174 55.2474L29.5591 60.4184C29.4443 60.4808 29.31 60.4969 29.1838 60.4633C29.0575 60.4297 28.949 60.349 28.8804 60.2378C28.8119 60.1266 28.7885 59.9934 28.8152 59.8655C28.842 59.7376 28.9167 59.6249 29.024 59.5504L31.685 57.8053L27.1564 60.4184C27.0415 60.4826 26.9063 60.5 26.7789 60.467C26.6516 60.4339 26.5419 60.353 26.4727 60.2411C26.4036 60.1291 26.3803 59.9948 26.4078 59.8661C26.4353 59.7374 26.5114 59.6243 26.6203 59.5504L32.0414 55.9846L24.3605 60.4184C24.2457 60.4826 24.1105 60.5 23.9831 60.467C23.8557 60.4339 23.746 60.353 23.6769 60.2411C23.6077 60.1291 23.5845 59.9948 23.612 59.8661C23.6395 59.7374 23.7156 59.6243 23.8244 59.5504L32.1874 54.0425L21.143 60.4184C21.0284 60.4826 20.8935 60.5002 20.7662 60.4675C20.639 60.4348 20.5293 60.3544 20.4599 60.2429C20.3905 60.1314 20.3667 59.9974 20.3935 59.8688C20.4203 59.7402 20.4956 59.6269 20.6038 59.5524L33.47 50.975L17.1156 60.4184C17.0388 60.4646 16.951 60.4893 16.8614 60.4898Z" fill="#15EC88"/>
<path d="M42.932 28.8352C42.8457 28.8352 42.7608 28.8133 42.6852 28.7716C42.6097 28.7299 42.5459 28.6697 42.4999 28.5967C42.4539 28.5237 42.4272 28.4402 42.4222 28.354C42.4172 28.2679 42.4342 28.1819 42.4714 28.104L43.0514 26.895L40.5722 28.3246C40.4726 28.3818 40.3567 28.4037 40.2431 28.3869C40.1295 28.3701 40.025 28.3155 39.9462 28.232C39.8675 28.1484 39.8192 28.0408 39.8092 27.9264C39.7992 27.812 39.828 27.6976 39.8911 27.6016L41.1501 25.6921L39.2957 26.7613C39.196 26.8187 39.0798 26.8408 38.9659 26.8239C38.8521 26.807 38.7473 26.7521 38.6685 26.6681C38.5898 26.5842 38.5417 26.4761 38.5321 26.3614C38.5225 26.2467 38.552 26.1321 38.6157 26.0363L39.7532 24.334L39.1109 24.7047C39.0176 24.7586 38.9096 24.7816 38.8024 24.7704C38.6952 24.7591 38.5942 24.7143 38.5141 24.6422C38.434 24.5701 38.3787 24.4745 38.3562 24.369C38.3337 24.2636 38.3452 24.1538 38.389 24.0553L38.9945 22.6941C38.9115 22.7175 38.8238 22.7194 38.7398 22.6997C38.6558 22.6801 38.5782 22.6394 38.5141 22.5816C38.4501 22.5238 38.4017 22.4507 38.3736 22.3691C38.3455 22.2875 38.3385 22.2002 38.3533 22.1151L38.5136 21.1961C38.4733 21.1598 38.4388 21.1174 38.4115 21.0705C38.3442 20.9532 38.3262 20.814 38.3614 20.6835C38.3966 20.5529 38.4822 20.4417 38.5993 20.3741L38.8699 20.2179C38.9541 20.1697 39.0502 20.1465 39.1471 20.1509C39.244 20.1554 39.3376 20.1873 39.4169 20.243C39.4963 20.2987 39.5582 20.3759 39.5953 20.4655C39.6324 20.5551 39.6433 20.6534 39.6266 20.7489L39.5449 21.2155L39.8308 21.0511C39.9241 20.9974 40.0319 20.9746 40.1389 20.9858C40.2459 20.9971 40.3467 21.0418 40.4267 21.1138C40.5068 21.1857 40.5621 21.281 40.5847 21.3862C40.6073 21.4914 40.5962 21.6011 40.5528 21.6995L39.9574 23.0372L41.1379 22.3571C41.2376 22.2997 41.3538 22.2776 41.4677 22.2945C41.5815 22.3114 41.6863 22.3663 41.7651 22.4503C41.8438 22.5342 41.8919 22.6423 41.9015 22.757C41.9111 22.8717 41.8816 22.9863 41.8179 23.0821L40.6814 24.7813L42.5102 23.7265C42.6098 23.6693 42.7257 23.6473 42.8393 23.6641C42.9529 23.6809 43.0575 23.7355 43.1362 23.8191C43.2149 23.9027 43.2632 24.0103 43.2732 24.1247C43.2832 24.2391 43.2544 24.3535 43.1913 24.4494L41.9323 26.36L43.9694 25.1897C44.0638 25.1356 44.1731 25.1131 44.2812 25.1254C44.3893 25.1377 44.4907 25.1843 44.5705 25.2583C44.6503 25.3323 44.7044 25.4298 44.7248 25.5367C44.7453 25.6436 44.7311 25.7542 44.6842 25.8525L44.1052 27.0604L45.204 26.4263C45.288 26.3777 45.3842 26.3541 45.4811 26.3582C45.5781 26.3623 45.6719 26.394 45.7516 26.4495C45.8312 26.505 45.8933 26.5821 45.9307 26.6716C45.9681 26.7612 45.9792 26.8596 45.9627 26.9553L45.8973 27.3341L46.0219 27.2626C46.1386 27.2016 46.2743 27.188 46.4008 27.2247C46.5273 27.2614 46.6347 27.3455 46.7006 27.4595C46.7665 27.5735 46.7858 27.7086 46.7545 27.8365C46.7231 27.9644 46.6436 28.0753 46.5325 28.1459L45.4644 28.7586C45.3804 28.8071 45.2844 28.8307 45.1875 28.8266C45.0906 28.8225 44.9969 28.791 44.9173 28.7356C44.8378 28.6802 44.7756 28.6033 44.7381 28.5139C44.7006 28.4245 44.6894 28.3262 44.7057 28.2307L44.772 27.8447L43.1873 28.7586C43.1104 28.8063 43.0223 28.8327 42.932 28.8352Z" fill="#C6CEDD"/>
<path d="M61.0077 18.3124C60.2724 14.33 63.2797 6.87581 57.9933 5.50751C48.3212 5.38701 38.6205 5.53303 28.9413 5.47177C20.5477 2.66878 24.3973 -0.705013 12.1438 0.366146C-4.1574 -1.94262 1.02582 6.97486 0.354942 18.4503C1.19737 24.6658 -1.98139 52.2495 2.28793 53.9108C5.95785 54.5592 9.84425 53.97 13.5734 54.161C13.5826 56.6403 12.878 60.6012 16.5346 60.3439C21.6478 60.3514 26.7605 60.3514 31.873 60.3439C37.5851 59.577 49.6405 63.8004 47.7382 54.161C51.9054 53.4626 59.9671 56.4075 61.0066 50.5779C61.1874 39.8346 60.9505 29.0638 61.0077 18.3124ZM2.64737 1.69463C29.4529 -1.816 17.6732 7.43028 33.3107 6.30909H53.7587C60.6625 5.16237 59.6291 10.3885 59.5505 15.4073C58.5968 14.717 57.1141 14.7834 55.9133 14.8008C56.868 6.00275 44.6615 10.5304 39.3946 9.49091H11.8579C8.31562 8.90376 4.58546 10.6826 5.39827 14.8008C4.132 14.6959 2.8653 14.9978 1.78247 15.6626C2.32163 11.1421 0.600012 5.75258 2.64737 1.69463ZM6.8932 14.8008C5.54429 7.19747 17.9663 11.525 22.5164 10.46C32.2164 10.464 41.9171 10.464 51.6184 10.46C54.2733 10.5028 54.4153 12.7708 54.4235 14.7997L6.8932 14.8008ZM42.4651 59.674H18.581C14.7518 60.3551 14.8437 57.3163 15.0581 54.3734C15.0581 44.026 15.0581 33.6762 15.0581 23.3241C15.0581 22.255 14.8896 20.6906 16.2998 20.5221C23.4967 20.6763 30.9529 19.937 38.0793 20.8029C37.3829 27.67 39.1005 29.5744 46.0247 28.8473C46.8191 38.2233 45.9696 47.8065 46.2555 57.2489C46.7129 59.8313 44.3735 59.9181 42.4651 59.674ZM41.9453 24.2645C43.2414 25.352 44.4331 26.558 45.505 27.8671C40.4667 28.5134 38.9698 26.7438 39.5702 21.7965C40.4586 22.5838 41.2489 23.5671 41.9453 24.2645ZM58.5896 53.1623C55.274 54.306 51.2692 53.2645 47.7371 53.5994C47.4992 45.2313 48.2967 36.6487 47.4216 28.3695C47.4384 28.3251 47.4462 28.2777 47.4444 28.2303C47.4427 28.1828 47.4314 28.1362 47.4113 28.0932C47.3912 28.0502 47.3627 28.0116 47.3275 27.9798C47.2923 27.948 47.251 27.9235 47.2061 27.9079C44.9137 25.0838 42.3356 22.504 39.513 20.2097C34.8699 19.1354 29.6826 20.1964 24.866 19.8461C21.3942 20.517 14.6486 17.857 13.5734 22.5072C13.3814 32.8593 13.6878 43.236 13.5734 53.5994C-4.15332 55.2495 3.22532 48.6878 1.78043 34.534C2.83117 30.2789 -1.29519 13.7949 5.45648 15.3562C5.6607 15.6708 6.32341 15.6125 6.67161 15.3562C22.6011 15.3494 38.5334 15.3471 54.4684 15.3491C54.6726 15.6891 55.4078 15.6034 55.7356 15.3072C62.2912 15.3379 58.6162 24.6301 59.5219 28.7963C58.7979 36.7212 61.0342 45.7623 58.5937 53.1685L58.5896 53.1623Z" fill="#262626"/>
<path d="M23.8442 38.8583C27.5682 39.2382 22.2328 36.1891 21.3659 35.3865C28.7486 30.1604 23.4612 32.028 19.8516 35.3763C19.9874 36.7528 22.7944 37.684 23.8442 38.8583Z" fill="#FF584A"/>
<path d="M37.3586 32.0312C33.7591 31.8883 39.0516 34.7985 39.8583 35.5898C32.8513 40.4504 37.3514 39.5436 41.3512 35.8145C41.8332 34.2961 38.3266 33.2566 37.3586 32.0312Z" fill="#FF584A"/>
<path d="M30.3817 39.519C30.348 38.1467 34.2405 28.7104 30.9311 31.4859C30.9627 32.8593 27.0723 42.2955 30.3817 39.519Z" fill="#FF584A"/>
<path d="M20.5159 44.1622C16.6009 46.4168 38.841 44.7401 40.8005 45.2252C44.7165 42.9695 22.4765 44.6462 20.5159 44.1622Z" fill="#FF584A"/>
<path d="M40.9338 49.2474C38.9048 49.758 16.969 48.0047 20.3836 50.3492C22.4136 49.8427 44.3494 51.5929 40.9338 49.2474Z" fill="#FF584A"/>
<path d="M34.0246 54.5583C29.3519 54.8728 24.23 53.9283 19.7656 54.931C23.5846 55.85 29.0579 54.9382 33.4099 55.2506C33.8479 55.3742 35.0641 54.6216 34.0246 54.5583Z" fill="#FF584A"/>
</svg>
