<svg width="41" height="41" viewBox="0 0 41 41" fill="none" xmlns="http://www.w3.org/2000/svg">
<path fill-rule="evenodd" clip-rule="evenodd" d="M10.8532 7.55006H35.3912C36.0178 7.55006 36.6162 7.79921 37.0597 8.2409C37.5014 8.68447 37.7506 9.28282 37.7506 9.90948V16.5159C37.7506 17.1425 37.5014 17.7409 37.0597 18.1844C36.6162 18.6261 36.0178 18.8753 35.3912 18.8753H29.7285C28.9471 18.8753 28.3129 19.5095 28.3129 20.2909C28.3129 21.0724 28.9471 21.7066 29.7285 21.7066H35.3912C36.7672 21.7066 38.0884 21.1592 39.0624 20.1871C40.0345 19.2132 40.5819 17.8919 40.5819 16.5159C40.5819 14.4717 40.5819 11.9537 40.5819 9.90948C40.5819 8.53347 40.0345 7.21219 39.0624 6.23822C38.0884 5.26614 36.7672 4.71875 35.3912 4.71875C27.6824 4.71875 10.8532 4.71875 10.8532 4.71875C10.0717 4.71875 9.4375 5.35296 9.4375 6.1344C9.4375 6.91584 10.0717 7.55006 10.8532 7.55006Z" fill="#478CFF"/>
<path fill-rule="evenodd" clip-rule="evenodd" d="M22.1786 33.032H5.19073C4.56407 33.032 3.96572 32.7829 3.52215 32.3412C3.08046 31.8976 2.83131 31.2993 2.83131 30.6726C2.83131 28.6284 2.83131 26.1104 2.83131 24.0662C2.83131 23.4396 3.08046 22.8412 3.52215 22.3976C3.96572 21.956 4.56407 21.7068 5.19073 21.7068H15.5722C16.3536 21.7068 16.9878 21.0726 16.9878 20.2911C16.9878 19.5097 16.3536 18.8755 15.5722 18.8755H5.19073C3.81472 18.8755 2.49344 19.4229 1.51947 20.395C0.547386 21.3689 0 22.6902 0 24.0662V30.6726C0 32.0486 0.547386 33.3699 1.51947 34.3439C2.49344 35.3159 3.81472 35.8633 5.19073 35.8633H22.1786C22.96 35.8633 23.5942 35.2291 23.5942 34.4477C23.5942 33.6662 22.96 33.032 22.1786 33.032Z" fill="#478CFF"/>
<path fill-rule="evenodd" clip-rule="evenodd" d="M34.5032 23.0655L31.7304 20.2908L34.5032 17.5162C35.0562 16.965 35.0562 16.0665 34.5032 15.5154C33.952 14.9623 33.0535 14.9623 32.5024 15.5154L28.7273 19.2904C28.1742 19.8435 28.1742 20.7382 28.7273 21.2912L32.5024 25.0663C33.0535 25.6194 33.952 25.6194 34.5032 25.0663C35.0562 24.5152 35.0562 23.6167 34.5032 23.0655Z" fill="#478CFF"/>
<path fill-rule="evenodd" clip-rule="evenodd" d="M21.2906 39.2231L25.0657 35.448C25.6187 34.8949 25.6187 34.0002 25.0657 33.4472L21.2906 29.6721C20.7394 29.1191 19.8409 29.1191 19.2898 29.6721C18.7367 30.2233 18.7367 31.1217 19.2898 31.6729L22.0626 34.4476L19.2898 37.2223C18.7367 37.7734 18.7367 38.6719 19.2898 39.2231C19.8409 39.7761 20.7394 39.7761 21.2906 39.2231Z" fill="#478CFF"/>
<path fill-rule="evenodd" clip-rule="evenodd" d="M14.1562 18.4037V22.1788C14.1562 23.3056 14.6036 24.3853 15.4001 25.1819C16.1967 25.9784 17.2764 26.4257 18.4032 26.4257H22.1783C23.3052 26.4257 24.3848 25.9784 25.1814 25.1819C25.9779 24.3853 26.4253 23.3056 26.4253 22.1788V18.4037C26.4253 17.2768 25.9779 16.1972 25.1814 15.4006C24.3848 14.6041 23.3052 14.1567 22.1783 14.1567H18.4032C17.2764 14.1567 16.1967 14.6041 15.4001 15.4006C14.6036 16.1972 14.1562 17.2768 14.1562 18.4037Z" fill="#FF584A"/>
<path fill-rule="evenodd" clip-rule="evenodd" d="M0 4.24696V8.02204C0 9.1489 0.447347 10.2286 1.24389 11.0251C2.04043 11.8217 3.1201 12.269 4.24696 12.269H8.02204C9.1489 12.269 10.2286 11.8217 11.0251 11.0251C11.8217 10.2286 12.269 9.1489 12.269 8.02204V4.24696C12.269 3.1201 11.8217 2.04043 11.0251 1.24389C10.2286 0.447347 9.1489 0 8.02204 0H4.24696C3.1201 0 2.04043 0.447347 1.24389 1.24389C0.447347 2.04043 0 3.1201 0 4.24696Z" fill="#15EC88"/>
<path fill-rule="evenodd" clip-rule="evenodd" d="M28.3125 32.56V36.335C28.3125 37.4619 28.7598 38.5416 29.5564 39.3381C30.3529 40.1346 31.4326 40.582 32.5595 40.582H36.3345C37.4614 40.582 38.5411 40.1346 39.3376 39.3381C40.1342 38.5416 40.5815 37.4619 40.5815 36.335V32.56C40.5815 31.4331 40.1342 30.3534 39.3376 29.5569C38.5411 28.7603 37.4614 28.313 36.3345 28.313H32.5595C31.4326 28.313 30.3529 28.7603 29.5564 29.5569C28.7598 30.3534 28.3125 31.4331 28.3125 32.56Z" fill="#15EC88"/>
</svg>
