<svg width="30" height="40" viewBox="0 0 30 40" fill="none" xmlns="http://www.w3.org/2000/svg">
<path fill-rule="evenodd" clip-rule="evenodd" d="M13.7694 38.5894C13.7199 38.8893 13.4579 39.1037 13.1613 39.1037C13.1267 39.1037 13.097 39.1017 13.0674 39.0968C9.63137 38.5801 6.47715 36.866 4.19317 34.2697C1.87942 31.6471 0.608859 28.289 0.608859 24.8142C0.608859 23.4715 0.791775 22.1571 1.15761 20.8864L0.974691 21.0152C0.697852 21.2086 0.312211 21.144 0.114415 20.8713C-0.0832856 20.5981 -0.0190279 20.2194 0.262738 20.0259L2.03267 18.7912C2.04252 18.7849 2.05248 18.7785 2.06233 18.7727C2.13645 18.7256 2.21558 18.6955 2.30458 18.6829C2.38372 18.6702 2.47261 18.6741 2.55668 18.6964C2.56654 18.6999 2.58142 18.7042 2.5962 18.7086C2.64065 18.7237 2.68519 18.7436 2.71979 18.7674C2.80385 18.8184 2.87304 18.8875 2.92251 18.9672V18.9677C2.95218 19.0109 2.97199 19.0577 2.98677 19.1072L3.61466 21.1595C3.71351 21.4799 3.52566 21.8178 3.19935 21.9145C2.87797 22.0107 2.53194 21.8289 2.43309 21.5086L2.3441 21.2169C2.01286 22.3801 1.8398 23.5843 1.8398 24.8141C1.8398 31.2955 6.74906 36.9204 13.2503 37.8984C13.5864 37.9491 13.8188 38.2582 13.7694 38.5894ZM30 24.8142C30 28.289 28.7245 31.6471 26.4157 34.2697C24.542 36.3969 22.0899 37.9321 19.3707 38.7016L19.687 38.8435C19.9985 38.9836 20.132 39.3433 19.9886 39.6476C19.8848 39.8693 19.6623 40 19.4299 40C19.3409 40 19.2568 39.9825 19.1729 39.9446L17.1953 39.0506C17.1854 39.0453 17.1755 39.0399 17.1607 39.0336C17.1112 39.0065 17.0618 38.9724 17.0173 38.9325C16.9283 38.8475 16.864 38.7346 16.8442 38.6053C16.8244 38.476 16.8442 38.6049 16.8442 38.6044C16.8393 38.5941 16.8393 38.583 16.8393 38.5723C16.8146 38.3837 16.8788 38.2033 17.0074 38.0759L18.4955 36.5218C18.7279 36.2783 19.1184 36.2666 19.3656 36.4961C19.6128 36.726 19.6277 37.1096 19.3904 37.3531L19.2915 37.4585C24.8089 35.7654 28.7639 30.6354 28.7639 24.8141C28.7639 22.9766 28.3883 21.197 27.6466 19.5242C27.5082 19.2175 27.6516 18.8601 27.963 18.7265C28.2794 18.5928 28.6403 18.7323 28.7738 19.0395C29.5848 20.866 30 22.809 30 24.8142ZM18.5303 22.1727C18.2831 21.9418 17.8926 21.9506 17.6602 22.1927L14.6395 25.3018L13.0674 23.7925C12.8251 23.5587 12.4345 23.563 12.1972 23.8027C11.9599 24.0419 11.9648 24.4259 12.2071 24.6597L14.2242 26.5974C14.3428 26.7083 14.4961 26.7699 14.6543 26.7699H14.6692C14.8323 26.767 14.9905 26.6994 15.0992 26.5823L18.55 23.0297C18.7874 22.7876 18.7775 22.4036 18.5303 22.1727ZM15.3267 29.9331C18.377 29.9331 20.8589 27.4913 20.8589 24.4905C20.8589 21.4898 18.3771 19.0485 15.3267 19.0485C12.2714 19.0485 9.78955 21.4898 9.78955 24.4905C9.78955 27.4913 12.2713 29.9331 15.3267 29.9331ZM22.0948 24.4905C22.0948 20.8213 19.0592 17.8361 15.3266 17.8361C11.594 17.8361 8.55851 20.8214 8.55851 24.4905C8.55851 28.1597 11.5941 31.1449 15.3266 31.1449C19.0593 31.1449 22.0948 28.1597 22.0948 24.4905ZM16.8444 33.5468C16.9087 33.3426 17.0818 33.189 17.2943 33.1424C18.3128 32.9193 19.2719 32.5274 20.1519 31.9767C20.3397 31.8619 20.5721 31.8512 20.765 31.9484L21.9466 32.539C21.9762 32.556 22.0059 32.5517 22.0306 32.525L23.499 31.086C23.5237 31.0593 23.5287 31.0321 23.5088 30.998L22.9106 29.8386C22.8118 29.6476 22.8216 29.4196 22.9403 29.2387C23.499 28.373 23.8994 27.4265 24.1268 26.4261C24.1712 26.2171 24.3295 26.0479 24.5372 25.9818L25.7929 25.5798C25.8275 25.5681 25.8473 25.5463 25.8473 25.5079V23.473C25.8473 23.4351 25.8275 23.4128 25.7929 23.4011L24.5372 22.9991C24.3295 22.933 24.1713 22.7638 24.1268 22.5549C23.8993 21.555 23.4989 20.6085 22.9403 19.7427C22.8216 19.5619 22.8118 19.3334 22.9106 19.1423L23.5088 17.9829C23.5287 17.9494 23.5236 17.9222 23.499 17.8949L22.0306 16.456C22.0059 16.4293 21.9762 16.4249 21.9466 16.4424L20.765 17.0331C20.5721 17.1303 20.3398 17.1196 20.1519 17.0044C19.2719 16.4536 18.3128 16.0618 17.2943 15.8392C17.0818 15.7925 16.9087 15.6389 16.8444 15.4347L16.4341 14.198C16.4192 14.1621 16.3995 14.1461 16.3599 14.1461H14.2884C14.2538 14.1461 14.2291 14.1621 14.2193 14.198L13.8089 15.4347C13.7397 15.6389 13.5716 15.7925 13.359 15.8392C12.3405 16.0618 11.3765 16.4536 10.4965 17.0044C10.3136 17.1196 10.0812 17.1303 9.8884 17.0331L8.70684 16.4424C8.67224 16.4249 8.64751 16.4293 8.61784 16.456L7.15442 17.8954C7.12968 17.9222 7.11982 17.9494 7.13954 17.9829L7.74269 19.1423C7.84154 19.3334 7.82675 19.5618 7.71302 19.7427C7.15442 20.6085 6.7539 21.555 6.52653 22.5549C6.47706 22.7639 6.32381 22.9331 6.11615 22.9991L4.85545 23.4011C4.82086 23.4128 4.80598 23.4351 4.80598 23.473V25.5079C4.80598 25.5463 4.82086 25.5681 4.85545 25.5798L6.11615 25.9818C6.32381 26.048 6.47706 26.2171 6.52653 26.4266C6.75399 27.426 7.15442 28.3725 7.71302 29.2387C7.82675 29.4195 7.84154 29.6476 7.74269 29.8386L7.13954 30.998C7.11973 31.0321 7.12968 31.0593 7.15442 31.086L8.61784 32.525C8.64751 32.5517 8.67224 32.556 8.70684 32.539L9.8884 31.9484C9.97247 31.9042 10.0713 31.8823 10.1652 31.8823C10.279 31.8823 10.3976 31.914 10.4965 31.9767C11.3765 32.5274 12.3405 32.9193 13.359 33.1424C13.5716 33.189 13.7397 33.3426 13.8089 33.5468L14.2193 34.783C14.2291 34.8195 14.2538 34.835 14.2884 34.835H16.3599C16.3995 34.835 16.4193 34.8189 16.4341 34.783L16.8444 33.5468ZM5.33511 12.4552L7.91082 8.97658L10.4866 12.4552H9.68075C9.33965 12.4552 9.06272 12.7265 9.06272 13.0614V15.2805C8.60296 15.139 8.09373 15.2552 7.74771 15.5989L6.75892 16.5716V13.0613C6.75892 12.7264 6.48208 12.4551 6.14089 12.4551H5.33511V12.4552ZM12.7509 8.97022L15.3267 5.49109L17.9024 8.97022H17.0965C16.7553 8.97022 16.4785 9.24148 16.4785 9.57639V12.9393C16.439 12.9354 16.3995 12.9335 16.3598 12.9335H14.2883C14.2488 12.9335 14.2092 12.936 14.1746 12.9393V9.57639C14.1746 9.24148 13.8978 8.97022 13.5566 8.97022H12.7509ZM20.1667 5.11484L22.7425 1.63619L25.3182 5.11484H24.5123C24.1712 5.11484 23.8944 5.3861 23.8944 5.72102V16.5716L22.9056 15.5989C22.5546 15.2552 22.0454 15.1385 21.5905 15.2805V5.72102C21.5905 5.3861 21.3137 5.11484 20.9726 5.11484H20.1667ZM17.6058 35.1578L17.9073 34.2434C18.8219 34.0101 19.697 33.6543 20.5127 33.1823L21.3828 33.6193C21.8921 33.8731 22.5001 33.7778 22.9056 33.3821L24.369 31.9431C24.7694 31.5469 24.8684 30.9461 24.6113 30.4478L24.1663 29.5908C24.6459 28.7887 25.0068 27.9297 25.2441 27.03L26.1735 26.733C26.7174 26.56 27.0783 26.068 27.0783 25.508V23.4731C27.0783 22.9136 26.7174 22.4212 26.1735 22.2486L25.2441 21.9516C25.2095 21.815 25.17 21.6799 25.1254 21.5453V6.32729H26.5294C26.7569 6.32729 26.9695 6.1994 27.0782 5.99627C27.182 5.79304 27.1622 5.54905 27.0238 5.36434L23.2367 0.249405C23.123 0.0929212 22.9401 0 22.7424 0C22.5446 0 22.3568 0.0928262 22.243 0.249405L18.456 5.36434C18.3175 5.54905 18.3027 5.79313 18.4065 5.99627C18.5103 6.1995 18.7229 6.32729 18.9553 6.32729H20.3543V15.7118C19.5831 15.2835 18.7673 14.9563 17.9071 14.7376L17.7093 14.1416V10.1822H19.1084C19.3408 10.1822 19.5534 10.0543 19.6621 9.85116C19.7659 9.64793 19.7462 9.40395 19.6077 9.21972L15.8257 4.10478C15.707 3.94772 15.5241 3.85537 15.3263 3.85537C15.1285 3.85537 14.9407 3.94772 14.827 4.10478L11.04 9.21972C10.9066 9.40395 10.8868 9.64793 10.9905 9.85116C11.0944 10.0544 11.3069 10.1822 11.5393 10.1822H12.9384V14.1416L12.7406 14.7376C11.8853 14.9563 11.0646 15.2835 10.2934 15.7118V13.6677H11.6975C11.9248 13.6677 12.1374 13.5398 12.2462 13.3367C12.3501 13.133 12.3303 12.889 12.1918 12.7047L8.40478 7.5898C8.29105 7.43331 8.10813 7.34039 7.91043 7.34039C7.71264 7.34039 7.52479 7.43322 7.41106 7.5898L3.62403 12.7047C3.49059 12.889 3.47078 13.133 3.57455 13.3367C3.67843 13.5398 3.89091 13.6677 4.1233 13.6677H5.52238V21.5452C5.48286 21.6793 5.44324 21.8145 5.40372 21.9515L4.47426 22.2485C3.93536 22.4211 3.56953 22.9135 3.56953 23.473V25.5079C3.56953 26.0679 3.93536 26.5599 4.47426 26.7329L5.40372 27.0299C5.64104 27.9297 6.00687 28.7882 6.48643 29.5907L6.04146 30.4477C5.78443 30.946 5.87835 31.5473 6.2837 31.943L7.74713 33.382C8.14756 33.7777 8.76066 33.873 9.26486 33.6192L10.1399 33.1822C10.9557 33.6542 11.8258 34.01 12.7404 34.2434L13.0469 35.1577C13.2199 35.6901 13.7192 36.0473 14.2878 36.0473H16.3593C16.9285 36.0474 17.4278 35.6901 17.6058 35.1578Z" fill="#A84BFF"/>
</svg>
