<svg width="40" height="40" viewBox="0 0 40 40" fill="none" xmlns="http://www.w3.org/2000/svg">
<path d="M34.9615 5.03844C31.7125 1.78937 27.3926 0 22.7977 0C18.2028 0 13.883 1.78937 10.634 5.03844C10.3966 5.27578 10.1637 5.52258 9.94154 5.77195C9.72592 6.01406 9.74732 6.38523 9.98951 6.60086C10.2317 6.81656 10.6029 6.795 10.8184 6.55289C11.0255 6.32031 11.2429 6.09016 11.4643 5.86867C14.4915 2.84141 18.5165 1.17414 22.7978 1.17414C27.079 1.17414 31.104 2.84133 34.1312 5.86867C40.3805 12.118 40.3805 22.2863 34.1312 28.5356C31.104 31.5629 27.079 33.2302 22.7978 33.2302C18.5165 33.2302 14.4915 31.563 11.4643 28.5356C8.83217 25.9035 7.19029 22.4167 6.84115 18.7176C6.49647 15.0662 7.41748 11.383 9.43443 8.34656C9.61381 8.07648 9.54029 7.71203 9.27022 7.53266C9.00022 7.35328 8.63576 7.4268 8.45631 7.69687C6.29107 10.9566 5.30225 14.9097 5.67217 18.828C5.95826 21.8592 7.05381 24.757 8.81264 27.2155L7.08857 28.9396C6.85928 28.7106 6.48772 28.7106 6.25857 28.9398L0.992871 34.2055C-0.330957 35.5293 -0.330957 37.6834 0.992871 39.0071C1.65467 39.6691 2.52412 40 3.39357 40C4.26303 40 5.13248 39.6691 5.79436 39.0072L7.28256 37.519C7.51186 37.2897 7.51186 36.918 7.28256 36.6887C7.05326 36.4594 6.68154 36.4594 6.45225 36.6887L4.96404 38.1769C4.54451 38.5964 3.98678 38.8274 3.3935 38.8274C2.80022 38.8274 2.24248 38.5964 1.82295 38.1769C1.40342 37.7573 1.1724 37.1996 1.1724 36.6063C1.1724 36.013 1.40342 35.4553 1.82295 35.0358L6.6735 30.1852L9.81451 33.3262L8.11272 35.028C7.88342 35.2573 7.88342 35.6291 8.11272 35.8584C8.34201 36.0877 8.71373 36.0877 8.94303 35.8584L11.0599 33.7415C11.2891 33.5123 11.2892 33.1407 11.0601 32.9115L12.7808 31.1908C15.6822 33.2777 19.153 34.4045 22.7976 34.4045C27.3925 34.4045 31.7122 32.6151 34.9614 29.366C38.2105 26.117 39.9999 21.797 39.9999 17.2022C39.9999 12.6073 38.2105 8.2875 34.9615 5.03844ZM10.23 32.0811L7.91873 29.7698L9.5342 28.1544C9.88053 28.5741 10.2469 28.9789 10.6339 29.3659C11.0222 29.7543 11.4263 30.1211 11.8439 30.4672L10.23 32.0811Z" fill="#E6B625"/>
<path d="M28.8041 29.718C30.2146 29.0412 31.4958 28.132 32.612 27.0159C38.0233 21.6044 38.0233 12.7995 32.612 7.38812C27.2005 1.97671 18.3957 1.97679 12.9843 7.38812C7.57295 12.7995 7.57295 21.6044 12.9843 27.0159C15.6192 29.6508 19.1766 31.0792 22.8145 31.0791C24.047 31.0791 25.2891 30.9151 26.5072 30.5785C26.8197 30.4922 27.003 30.1688 26.9167 29.8562C26.8302 29.5437 26.5069 29.3604 26.1944 29.4467C21.7872 30.6644 17.0438 29.4148 13.8146 26.1855C8.861 21.2319 8.861 13.1719 13.8146 8.21843C18.7681 3.26499 26.828 3.26483 31.7817 8.21843C36.7353 13.172 36.7353 21.232 31.7818 26.1855C30.7594 27.2077 29.5868 28.0401 28.2962 28.6594C28.0038 28.7998 27.8806 29.1504 28.0208 29.4427C28.1612 29.7351 28.5119 29.8581 28.8041 29.718Z" fill="#E6B625"/>
<path d="M23.5083 14.5272C23.8326 14.5272 24.0954 14.2644 24.0954 13.9401C24.0954 13.6159 23.8326 13.353 23.5083 13.353H20.759C20.4347 13.353 20.1719 13.6159 20.1719 13.9401V20.465C20.1719 20.7892 20.4347 21.0521 20.759 21.0521H23.5083C23.8326 21.0521 24.0954 20.7892 24.0954 20.465C24.0954 20.1408 23.8326 19.8779 23.5083 19.8779H21.3461V17.7897H23.3055C23.6298 17.7897 23.8927 17.5268 23.8927 17.2026C23.8927 16.8783 23.6298 16.6154 23.3055 16.6154H21.3461V14.5272H23.5083Z" fill="#E6B625"/>
<path d="M16.5459 19.9074C15.8259 19.9074 15.1307 19.6146 14.6862 19.1241C14.4685 18.8839 14.0972 18.8656 13.8569 19.0834C13.6166 19.3012 13.5984 19.6724 13.8162 19.9127C14.4796 20.6447 15.5 21.0816 16.546 21.0816C17.7986 21.0816 18.89 20.2601 19.0846 19.1706C19.309 17.9137 18.3207 17.0719 17.321 16.7031C16.4736 16.3906 15.6875 16.0493 15.4892 15.9621C15.2788 15.808 15.1767 15.5616 15.2149 15.2952C15.2631 14.9599 15.5207 14.6907 15.9042 14.5752C16.9615 14.257 17.9161 15.0231 17.9342 15.0378C18.1823 15.2445 18.5511 15.2119 18.7593 14.9644C18.9679 14.7162 18.9358 14.3459 18.6876 14.1372C18.6295 14.0883 17.2436 12.9456 15.5656 13.4509C14.7454 13.698 14.1657 14.3407 14.0526 15.1284C13.9474 15.8618 14.265 16.5671 14.8815 16.9691C14.9074 16.9859 14.9347 17.0008 14.9629 17.0134C15.0007 17.0303 15.9006 17.4309 16.9147 17.8049C17.6427 18.0734 18.0122 18.496 17.9286 18.9643C17.8468 19.4215 17.3345 19.9074 16.5459 19.9074Z" fill="#E6B625"/>
<path d="M32.4272 17.2024C32.4272 15.0631 30.6868 13.3228 28.5475 13.3228C26.4083 13.3228 24.668 15.0631 24.668 17.2024C24.668 19.3416 26.4083 21.0819 28.5475 21.0819C30.6868 21.082 32.4272 19.3416 32.4272 17.2024ZM25.8423 17.2024C25.8423 15.7106 27.0559 14.497 28.5476 14.497C30.0394 14.497 31.253 15.7106 31.253 17.2024C31.253 18.6942 30.0394 19.9078 28.5476 19.9078C27.0559 19.9078 25.8423 18.6942 25.8423 17.2024Z" fill="#E6B625"/>
</svg>
