<svg width="40" height="40" viewBox="0 0 40 40" fill="none" xmlns="http://www.w3.org/2000/svg">
<path d="M37.3383 3.33377C37.3361 1.4935 35.8448 0.00220437 34.0045 0H3.33377C1.4935 0.00220437 0.00220437 1.4935 0 3.33377V34.0045C0.00220437 35.8448 1.4935 37.3361 3.33377 37.3383H23.2271C27.1636 40.9867 33.2801 40.8706 37.0754 37.0754C40.8706 33.2801 40.9867 27.1636 37.3383 23.2271V3.33377ZM1.33351 3.33377C1.33351 2.22906 2.22906 1.33351 3.33377 1.33351H34.0045C35.1092 1.33351 36.0048 2.22906 36.0048 3.33377V5.33404H1.33351V3.33377ZM3.33377 36.0048C2.22906 36.0048 1.33351 35.1092 1.33351 34.0045V6.66755H36.0048V22.0216C32.0303 19.0171 26.4491 19.4032 22.9261 22.9261C19.4032 26.4491 19.0171 32.0303 22.0216 36.0048H3.33377ZM38.6718 30.004C38.6718 34.7911 34.7911 38.6718 30.004 38.6718C25.2169 38.6718 21.3362 34.7911 21.3362 30.004C21.3362 25.2169 25.2169 21.3362 30.004 21.3362C34.7888 21.3417 38.6663 25.2192 38.6718 30.004Z" fill="#226FEF"/>
<path d="M3.33472 4.0005C3.70296 4.0005 4.00148 3.70199 4.00148 3.33375C4.00148 2.96551 3.70296 2.66699 3.33472 2.66699C2.96649 2.66699 2.66797 2.96551 2.66797 3.33375C2.66797 3.70199 2.96649 4.0005 3.33472 4.0005Z" fill="#226FEF"/>
<path d="M6.00269 4.0005C6.37093 4.0005 6.66945 3.70199 6.66945 3.33375C6.66945 2.96551 6.37093 2.66699 6.00269 2.66699C5.63445 2.66699 5.33594 2.96551 5.33594 3.33375C5.33594 3.70199 5.63445 4.0005 6.00269 4.0005Z" fill="#226FEF"/>
<path d="M8.66675 4.0005C9.03499 4.0005 9.33351 3.70199 9.33351 3.33375C9.33351 2.96551 9.03499 2.66699 8.66675 2.66699C8.29852 2.66699 8 2.96551 8 3.33375C8 3.70199 8.29852 4.0005 8.66675 4.0005Z" fill="#226FEF"/>
<path d="M22.6678 2.66699H14.6668C14.2985 2.66699 14 2.96551 14 3.33375C14 3.70199 14.2985 4.0005 14.6668 4.0005H22.6678C23.0361 4.0005 23.3346 3.70199 23.3346 3.33375C23.3346 2.96551 23.0361 2.66699 22.6678 2.66699Z" fill="#226FEF"/>
<path d="M32.6741 27.3367H28.6736V25.3365C28.6736 24.6 29.2707 24.0029 30.0071 24.0029C30.7436 24.0029 31.3406 24.6 31.3406 25.3365C31.3406 25.7047 31.6392 26.0032 32.0074 26.0032C32.3756 26.0032 32.6741 25.7047 32.6741 25.3365C32.6741 23.8635 31.4801 22.6694 30.0071 22.6694C28.5342 22.6694 27.3401 23.8635 27.3401 25.3365V27.3367C26.2354 27.3367 25.3398 28.2323 25.3398 29.337V34.671C25.3398 35.7757 26.2354 36.6713 27.3401 36.6713H32.6741C33.7789 36.6713 34.6744 35.7757 34.6744 34.671V29.337C34.6744 28.2323 33.7789 27.3367 32.6741 27.3367ZM33.3409 34.671C33.3409 35.0393 33.0424 35.3378 32.6741 35.3378H27.3401C26.9719 35.3378 26.6734 35.0393 26.6734 34.671V29.337C26.6734 28.9687 26.9719 28.6702 27.3401 28.6702H32.6741C33.0424 28.6702 33.3409 28.9687 33.3409 29.337V34.671Z" fill="#226FEF"/>
<path d="M30.0042 30.0039C28.8995 30.0039 28.0039 30.8995 28.0039 32.0042C28.0039 33.1089 28.8995 34.0044 30.0042 34.0044C31.1089 34.0044 32.0044 33.1089 32.0044 32.0042C32.0044 30.8995 31.1089 30.0039 30.0042 30.0039ZM30.0042 32.6709C29.6359 32.6709 29.3374 32.3724 29.3374 32.0042C29.3374 31.6359 29.6359 31.3374 30.0042 31.3374C30.3724 31.3374 30.6709 31.6359 30.6709 32.0042C30.6709 32.3724 30.3724 32.6709 30.0042 32.6709Z" fill="#226FEF"/>
<path d="M13.5507 16.4937C13.7262 16.6548 13.9744 16.7099 14.2016 16.6384C14.4288 16.5668 14.6007 16.3795 14.6523 16.147C14.704 15.9144 14.6277 15.672 14.4521 15.5109L11.3344 12.6886L14.4555 9.82618C14.631 9.66515 14.7073 9.4227 14.6557 9.19014C14.604 8.95759 14.4322 8.77027 14.2049 8.69875C13.9777 8.62722 13.7296 8.68236 13.554 8.84339L10.4329 11.7058C10.1599 11.9513 10.0039 12.3013 10.0039 12.6686C10.0039 13.0358 10.1599 13.3858 10.4329 13.6314L13.5507 16.4937Z" fill="#226FEF"/>
<path d="M22.847 16.4531C22.9665 16.5834 23.1329 16.6609 23.3096 16.6685C23.4863 16.6762 23.6588 16.6133 23.7891 16.4937L26.9102 13.6314C27.1833 13.3858 27.3392 13.0358 27.3392 12.6686C27.3392 12.3013 27.1833 11.9513 26.9102 11.7058L23.7898 8.84339C23.6142 8.68236 23.3661 8.62722 23.1389 8.69875C22.9116 8.77027 22.7398 8.95759 22.6881 9.19014C22.6365 9.4227 22.7128 9.66515 22.8883 9.82618L26.0094 12.6486L22.8883 15.5109C22.7579 15.6304 22.6803 15.7967 22.6725 15.9734C22.6648 16.1501 22.7275 16.3227 22.847 16.4531Z" fill="#226FEF"/>
<path d="M16.3272 16.5737C16.6428 16.7633 17.0523 16.6612 17.242 16.3457L21.2426 9.67813C21.4242 9.36319 21.32 8.96082 21.0084 8.77357C20.6968 8.58631 20.2926 8.68319 20.0997 8.99137L16.0992 15.6589C15.9096 15.9745 16.0117 16.384 16.3272 16.5737Z" fill="#226FEF"/>
<path d="M4.66675 20.6694C5.03499 20.6694 5.33351 20.3709 5.33351 20.0027C5.33351 19.6345 5.03499 19.3359 4.66675 19.3359C4.29852 19.3359 4 19.6345 4 20.0027C4 20.3709 4.29852 20.6694 4.66675 20.6694Z" fill="#226FEF"/>
<path d="M4.66675 23.3364C5.03499 23.3364 5.33351 23.0379 5.33351 22.6697C5.33351 22.3014 5.03499 22.0029 4.66675 22.0029C4.29852 22.0029 4 22.3014 4 22.6697C4 23.0379 4.29852 23.3364 4.66675 23.3364Z" fill="#226FEF"/>
<path d="M4.66675 26.0034C5.03499 26.0034 5.33351 25.7049 5.33351 25.3367C5.33351 24.9684 5.03499 24.6699 4.66675 24.6699C4.29852 24.6699 4 24.9684 4 25.3367C4 25.7049 4.29852 26.0034 4.66675 26.0034Z" fill="#226FEF"/>
<path d="M4.66675 28.6704C5.03499 28.6704 5.33351 28.3719 5.33351 28.0037C5.33351 27.6354 5.03499 27.3369 4.66675 27.3369C4.29852 27.3369 4 27.6354 4 28.0037C4 28.3719 4.29852 28.6704 4.66675 28.6704Z" fill="#226FEF"/>
<path d="M4.66675 31.3374C5.03499 31.3374 5.33351 31.0389 5.33351 30.6707C5.33351 30.3024 5.03499 30.0039 4.66675 30.0039C4.29852 30.0039 4 30.3024 4 30.6707C4 31.0389 4.29852 31.3374 4.66675 31.3374Z" fill="#226FEF"/>
<path d="M4.66675 34.0044C5.03499 34.0044 5.33351 33.7059 5.33351 33.3377C5.33351 32.9694 5.03499 32.6709 4.66675 32.6709C4.29852 32.6709 4 32.9694 4 33.3377C4 33.7059 4.29852 34.0044 4.66675 34.0044Z" fill="#226FEF"/>
<path d="M7.33472 20.6694H14.0023C14.3705 20.6694 14.669 20.3709 14.669 20.0027C14.669 19.6345 14.3705 19.3359 14.0023 19.3359H7.33472C6.96649 19.3359 6.66797 19.6345 6.66797 20.0027C6.66797 20.3709 6.96649 20.6694 7.33472 20.6694Z" fill="#226FEF"/>
<path d="M17.336 24.6699H7.33472C6.96649 24.6699 6.66797 24.9684 6.66797 25.3367C6.66797 25.7049 6.96649 26.0034 7.33472 26.0034H17.336C17.7043 26.0034 18.0028 25.7049 18.0028 25.3367C18.0028 24.9684 17.7043 24.6699 17.336 24.6699Z" fill="#226FEF"/>
<path d="M15.3358 30.0039H7.33472C6.96649 30.0039 6.66797 30.3024 6.66797 30.6707C6.66797 31.0389 6.96649 31.3374 7.33472 31.3374H15.3358C15.704 31.3374 16.0025 31.0389 16.0025 30.6707C16.0025 30.3024 15.704 30.0039 15.3358 30.0039Z" fill="#226FEF"/>
<path d="M7.33472 23.3364H20.0031C20.3713 23.3364 20.6698 23.0379 20.6698 22.6697C20.6698 22.3014 20.3713 22.0029 20.0031 22.0029H7.33472C6.96649 22.0029 6.66797 22.3014 6.66797 22.6697C6.66797 23.0379 6.96649 23.3364 7.33472 23.3364Z" fill="#226FEF"/>
<path d="M7.33472 28.6704H11.3353C11.7035 28.6704 12.002 28.3719 12.002 28.0037C12.002 27.6354 11.7035 27.3369 11.3353 27.3369H7.33472C6.96649 27.3369 6.66797 27.6354 6.66797 28.0037C6.66797 28.3719 6.96649 28.6704 7.33472 28.6704Z" fill="#226FEF"/>
<path d="M10.6685 32.6709H7.33472C6.96649 32.6709 6.66797 32.9694 6.66797 33.3377C6.66797 33.7059 6.96649 34.0044 7.33472 34.0044H10.6685C11.0367 34.0044 11.3353 33.7059 11.3353 33.3377C11.3353 32.9694 11.0367 32.6709 10.6685 32.6709Z" fill="#226FEF"/>
<path d="M16.6707 20.6694H18.6709C19.0392 20.6694 19.3377 20.3709 19.3377 20.0027C19.3377 19.6345 19.0392 19.3359 18.6709 19.3359H16.6707C16.3024 19.3359 16.0039 19.6345 16.0039 20.0027C16.0039 20.3709 16.3024 20.6694 16.6707 20.6694Z" fill="#226FEF"/>
<path d="M16.003 27.3369H14.0027C13.6345 27.3369 13.3359 27.6354 13.3359 28.0037C13.3359 28.3719 13.6345 28.6704 14.0027 28.6704H16.003C16.3712 28.6704 16.6697 28.3719 16.6697 28.0037C16.6697 27.6354 16.3712 27.3369 16.003 27.3369Z" fill="#226FEF"/>
</svg>
