<svg width="37" height="40" viewBox="0 0 37 40" fill="none" xmlns="http://www.w3.org/2000/svg">
<path d="M36.8572 17.5512C36.7471 17.4407 36.59 17.3894 36.4361 17.4146L36.326 17.4325C36.1251 12.8236 34.2262 8.52032 30.9408 5.2626C27.5178 1.86911 22.9837 0 18.1727 0C13.3188 0 8.75555 1.89756 5.32281 5.3439C1.89007 8.79024 0 13.3715 0 18.2447C0 21.3919 0.815468 24.5 2.35733 27.2341C3.78014 29.7561 5.79411 31.9098 8.20731 33.5008L1.2066 39.1317C1.01468 39.2862 0.96771 39.5602 1.09809 39.7699C1.18959 39.9171 1.34751 40 1.51109 40C1.57992 40 1.65037 39.9854 1.71677 39.9545L15.9862 33.2585L19.9891 37.2772C20.0806 37.3683 20.2037 37.4203 20.3324 37.4203C20.4612 37.4203 20.5851 37.3691 20.6758 37.2772L33.2034 24.6992L34.8643 26.3667C34.993 26.4959 35.1842 26.5423 35.3575 26.4862C35.5308 26.4301 35.6587 26.2805 35.6878 26.1L36.9941 17.974C37.0183 17.8195 36.9673 17.6618 36.8572 17.5512ZM0.971759 18.2447C0.971759 8.72276 8.68834 0.97561 18.1727 0.97561C27.3906 0.97561 35.0141 8.39024 35.3599 17.5886L34.2011 17.7764C33.9533 9.11463 26.8586 2.14553 18.1727 2.14553C9.33051 2.14553 2.13706 9.36748 2.13706 18.2447C2.13706 23.9301 5.12522 29.1813 9.97106 32.0813L9.00497 32.8577C4.04171 29.7138 0.971759 24.1463 0.971759 18.2447ZM28.0757 19.552L29.7779 21.261L20.3316 30.7463L16.7701 27.1707C16.5952 26.9951 16.3158 26.9797 16.1231 27.135L10.7873 31.4268C9.72002 30.8228 8.74421 30.0992 7.87206 29.278L10.2383 26.9024C10.4278 26.7122 10.4278 26.4033 10.2383 26.2122C10.0488 26.0219 9.74107 26.0219 9.55077 26.2122L7.18454 28.5878C4.71384 25.9398 3.23596 22.4504 3.11692 18.7333H6.46463C6.73267 18.7333 6.95051 18.5146 6.95051 18.2455C6.95051 17.9764 6.73267 17.7577 6.46463 17.7577H3.11773C3.23839 13.9553 4.76405 10.5033 7.18859 7.90732L9.55077 10.2789C9.64552 10.374 9.77023 10.422 9.89412 10.422C10.018 10.422 10.1427 10.374 10.2375 10.2789C10.427 10.0886 10.427 9.77967 10.2375 9.58862L7.8753 7.21707C10.461 4.78211 13.8994 3.25122 17.6868 3.13008V6.49106C17.6868 6.76016 17.9047 6.97886 18.1727 6.97886C18.4407 6.97886 18.6586 6.76016 18.6586 6.49106V3.13008C22.446 3.25122 25.8844 4.78293 28.4701 7.21707L26.1079 9.58862C25.9184 9.77886 25.9184 10.0878 26.1079 10.2789C26.2027 10.374 26.3274 10.422 26.4513 10.422C26.5752 10.422 26.6999 10.374 26.7946 10.2789L29.1568 7.90732C31.6194 10.5431 33.154 14.0618 33.2325 17.9341L28.3414 18.726C28.1616 18.7553 28.0126 18.8829 27.9567 19.0577C27.9008 19.2317 27.947 19.4228 28.0757 19.552ZM34.8797 25.0024L33.5467 23.6642C33.3572 23.474 33.0495 23.474 32.8592 23.6642L20.3316 36.2423L16.4316 32.3268C16.2867 32.1813 16.0672 32.1431 15.8826 32.2301L4.98269 37.3447L16.3911 28.1691L19.9891 31.7813C20.0806 31.8724 20.2037 31.9244 20.3324 31.9244C20.4612 31.9244 20.5851 31.8732 20.6758 31.7813L30.8104 21.6065C30.9011 21.5146 30.953 21.3911 30.953 21.2618C30.953 21.1325 30.9019 21.0081 30.8104 20.9171L29.4362 19.5374L35.9275 18.4862L34.8797 25.0024ZM26.0383 13.1228L20.1081 16.5602C19.6376 16.0163 18.9453 15.6715 18.1735 15.6715C16.7604 15.6715 15.6105 16.826 15.6105 18.2447C15.6105 18.539 15.6607 18.8211 15.7514 19.0854L14.2371 19.9634C14.0047 20.0984 13.9253 20.3967 14.0589 20.6301C14.1488 20.7862 14.3124 20.874 14.48 20.874C14.5626 20.874 14.646 20.8528 14.7221 20.8089L16.2373 19.9309C16.7078 20.4748 17.4002 20.8195 18.1719 20.8195C19.585 20.8195 20.7349 19.665 20.7349 18.2463C20.7349 17.952 20.6847 17.6699 20.594 17.4057L26.5234 13.9691C26.7558 13.8341 26.8351 13.5358 26.7015 13.3024C26.5671 13.0683 26.2707 12.9878 26.0383 13.1228ZM18.1735 19.8423C17.2965 19.8423 16.5823 19.126 16.5823 18.2447C16.5823 17.3642 17.2957 16.6472 18.1735 16.6472C19.0505 16.6472 19.7648 17.3634 19.7648 18.2447C19.764 19.1252 19.0505 19.8423 18.1735 19.8423Z" fill="#A84BFF"/>
</svg>
