<svg width="40" height="40" viewBox="0 0 40 40" fill="none" xmlns="http://www.w3.org/2000/svg">
<path d="M26.4573 15.4835C26.4573 13.0591 25.7384 10.6892 24.3915 8.67339C23.0445 6.65758 21.1301 5.08645 18.8903 4.15867C16.6504 3.2309 14.1858 2.98815 11.8079 3.46112C9.43014 3.9341 7.24598 5.10156 5.53168 6.81586C3.81738 8.53016 2.64992 10.7143 2.17694 13.0921C1.70397 15.4699 1.94672 17.9346 2.87449 20.1744C3.80227 22.4143 5.3734 24.3287 7.38921 25.6756C9.40501 27.0226 11.775 27.7415 14.1994 27.7415C17.4492 27.7378 20.5649 26.4451 22.8629 24.1471C25.161 21.8491 26.4536 18.7334 26.4573 15.4835ZM3.23172 15.4835C3.23172 13.3143 3.87496 11.1939 5.0801 9.39024C6.28524 7.58663 7.99815 6.18088 10.0022 5.35076C12.0063 4.52065 14.2115 4.30345 16.339 4.72664C18.4665 5.14983 20.4208 6.1944 21.9546 7.72825C23.4885 9.2621 24.5331 11.2163 24.9562 13.3439C25.3794 15.4714 25.1622 17.6766 24.3321 19.6807C23.502 21.6847 22.0963 23.3976 20.2926 24.6028C18.489 25.8079 16.3685 26.4512 14.1994 26.4512C11.2916 26.4479 8.50378 25.2914 6.44765 23.2352C4.39152 21.1791 3.23497 18.3913 3.23172 15.4835Z" fill="#E6B625"/>
<path d="M16.1289 31.6143V29.5413C19.6917 29.0509 22.9355 27.2263 25.2047 24.4362C27.474 21.646 28.5994 18.0985 28.3536 14.5105C28.1079 10.9225 26.5092 7.56159 23.8807 5.10698C21.2522 2.65237 17.7898 1.28711 14.1934 1.28711C10.597 1.28711 7.1347 2.65237 4.50619 5.10698C1.87768 7.56159 0.278992 10.9225 0.033207 14.5105C-0.212578 18.0985 0.912871 21.646 3.18211 24.4362C5.45134 27.2263 8.69514 29.0509 12.258 29.5413V31.6122C12.0881 31.6122 11.9196 31.6457 11.7627 31.7109C11.6058 31.776 11.4633 31.8715 11.3434 31.9919C11.2235 32.1122 11.1286 32.2551 11.0641 32.4122C10.9995 32.5693 10.9666 32.7377 10.9673 32.9076L10.9875 38.7133C10.9894 39.0546 11.1262 39.3813 11.3679 39.6221C11.6097 39.863 11.9368 39.9986 12.2781 39.9992H16.1282C16.2981 39.9992 16.4664 39.9656 16.6233 39.9005C16.7801 39.8353 16.9226 39.7398 17.0426 39.6195C17.1625 39.4992 17.2575 39.3563 17.3221 39.1992C17.3868 39.0421 17.4197 38.8738 17.4192 38.7039L17.399 32.8975C17.397 32.56 17.2629 32.2368 17.0255 31.997C16.7882 31.7571 16.4663 31.6198 16.1289 31.6143ZM1.29033 15.4833C1.29033 12.9314 2.04709 10.4367 3.4649 8.31477C4.88271 6.19287 6.89789 4.53905 9.25563 3.56244C11.6134 2.58584 14.2077 2.33031 16.7107 2.82818C19.2136 3.32605 21.5128 4.55495 23.3173 6.35948C25.1218 8.16401 26.3507 10.4631 26.8486 12.9661C27.3465 15.469 27.0909 18.0634 26.1143 20.4212C25.1377 22.7789 23.4839 24.7941 21.362 26.2119C19.2401 27.6297 16.7454 28.3864 14.1934 28.3864C10.7725 28.3826 7.49279 27.0219 5.07382 24.603C2.65486 22.184 1.29419 18.9043 1.29033 15.4833ZM13.5483 29.6604C13.7623 29.67 13.9771 29.6768 14.1934 29.6768C14.4098 29.6768 14.6246 29.67 14.8386 29.6604V31.6122H13.5483V29.6604ZM12.2778 38.7083L12.2576 32.9025H16.1087L16.1283 38.7089L12.2778 38.7083Z" fill="#E6B625"/>
<path d="M10.322 7.0964C8.18747 7.0964 6.45109 8.62612 6.45109 10.5068C6.45118 10.6263 6.45949 10.7456 6.47597 10.864C5.90301 11.122 5.41482 11.537 5.06789 12.0609C4.72097 12.5849 4.52949 13.1963 4.51562 13.8245C4.51785 14.5285 4.75885 15.2108 5.19921 15.76C4.75885 16.3092 4.51785 16.9915 4.51562 17.6955C4.53101 18.3205 4.72101 18.9287 5.06411 19.4513C5.40721 19.974 5.88973 20.3902 6.45708 20.6529C6.57109 22.444 8.26117 23.8704 10.322 23.8704C10.8997 23.8791 11.4726 23.7636 12.0018 23.5317C12.5311 23.2999 13.0043 22.9571 13.3897 22.5266C13.4917 22.4094 13.5479 22.2592 13.5478 22.1038V8.86302C13.5479 8.70762 13.4917 8.55745 13.3897 8.44026C13.0043 8.00972 12.5311 7.66693 12.0018 7.43508C11.4726 7.20324 10.8997 7.08774 10.322 7.0964ZM12.2575 21.8461C11.7301 22.3295 11.0373 22.5922 10.322 22.5801C9.7252 22.6251 9.13301 22.4464 8.66064 22.0788C8.18827 21.7113 7.86951 21.1812 7.76637 20.5917L8.5762 20.0707H9.67686V18.7804H8.38655C8.26278 18.7805 8.14164 18.8161 8.03752 18.8831L7.06373 19.5096C6.705 19.3557 6.39682 19.1039 6.1744 18.7831C5.95198 18.4623 5.82429 18.0854 5.80593 17.6955C5.81189 17.4173 5.87799 17.1436 5.99968 16.8934C6.12138 16.6432 6.29579 16.4222 6.51094 16.2458C6.52567 16.2329 6.53181 16.2138 6.5452 16.1998H8.38655V14.9095H6.18001C5.94206 14.5974 5.8109 14.217 5.80593 13.8245C5.82522 13.4227 5.9606 13.035 6.19567 12.7085C6.43075 12.3821 6.75545 12.1307 7.13044 11.985L7.93043 12.785C8.0514 12.906 8.21546 12.974 8.38655 12.974H9.67686V11.6837H8.65369L7.77924 10.8093C7.75618 10.71 7.7435 10.6086 7.7414 10.5068C7.7414 9.33806 8.89908 8.38671 10.322 8.38671C11.0373 8.37461 11.7301 8.63731 12.2575 9.1207V21.8461Z" fill="#E6B625"/>
<path d="M15.417 23.8295C15.6735 23.8567 15.9314 23.8703 16.1894 23.8704C16.2234 23.8704 16.2571 23.8704 16.2908 23.8698C16.9753 23.8573 17.655 23.7518 18.311 23.5561C18.4447 23.5168 18.5621 23.4353 18.6457 23.3238C18.7292 23.2123 18.7744 23.0767 18.7744 22.9373V22.0037C18.7703 21.9378 18.7835 21.8719 18.8126 21.8127C18.8418 21.7534 18.886 21.7029 18.9407 21.666C19.2786 21.4984 19.6009 21.3011 19.9037 21.0763C19.9465 21.0488 19.9965 21.0346 20.0473 21.0357C20.0981 21.0367 20.1475 21.0528 20.1891 21.0819L20.9493 21.5488C21.0751 21.6257 21.2234 21.6573 21.3697 21.6384C21.516 21.6195 21.6514 21.5512 21.7535 21.4448C22.7811 20.3616 23.5054 19.027 23.8537 17.5752C23.886 17.4425 23.8753 17.3031 23.8234 17.1769C23.7714 17.0507 23.6808 16.9442 23.5646 16.8727L22.6082 16.2855C22.6712 15.7526 22.6712 15.2142 22.6082 14.6814L23.5643 14.0936C23.6805 14.0223 23.7712 13.9159 23.8232 13.7897C23.8751 13.6636 23.8857 13.5243 23.8535 13.3917C23.5066 11.9396 22.7837 10.6044 21.7573 9.52015C21.6556 9.41311 21.5201 9.34435 21.3737 9.32542C21.2272 9.30649 21.0787 9.33854 20.9531 9.41619L20.1895 9.88494C20.1478 9.91389 20.0985 9.92993 20.0478 9.93105C19.997 9.93217 19.947 9.91832 19.9041 9.89123C19.6014 9.66612 19.2791 9.46856 18.9411 9.30092C18.8862 9.264 18.8419 9.21334 18.8126 9.15398C18.7834 9.09462 18.7702 9.02863 18.7744 8.96259V8.02572C18.7744 7.88642 18.7293 7.75088 18.6458 7.63935C18.5623 7.52783 18.445 7.44632 18.3114 7.40702C17.5901 7.19195 16.8403 7.08744 16.0877 7.09704C15.8612 7.09956 15.6375 7.11405 15.4167 7.13799C15.2583 7.15476 15.1117 7.22957 15.0052 7.348C14.8987 7.46643 14.8399 7.62009 14.8399 7.77936V12.6848C14.8399 12.7856 14.8634 12.885 14.9087 12.975C14.954 13.0651 15.0198 13.1432 15.1007 13.2033C15.1817 13.2633 15.2756 13.3035 15.3749 13.3207C15.4742 13.3379 15.5761 13.3316 15.6725 13.3022C15.8399 13.2513 16.0138 13.2254 16.1887 13.2254C16.7516 13.2632 17.2767 13.5216 17.6501 13.9444C18.0235 14.3672 18.2149 14.9203 18.1828 15.4834C18.2149 16.0466 18.0235 16.5997 17.6501 17.0225C17.2767 17.4453 16.7516 17.7037 16.1887 17.7415C16.0138 17.7415 15.8398 17.7156 15.6724 17.6646C15.576 17.6353 15.4741 17.629 15.3748 17.6461C15.2754 17.6633 15.1816 17.7036 15.1006 17.7636C15.0196 17.8236 14.9539 17.9018 14.9086 17.9918C14.8633 18.0819 14.8398 18.1813 14.8398 18.282V23.1881C14.8398 23.3474 14.8988 23.5011 15.0053 23.6195C15.1119 23.738 15.2585 23.8127 15.417 23.8295ZM16.1302 19.0311C16.5836 19.0208 17.0304 18.9205 17.4448 18.7361C17.8591 18.5516 18.2326 18.2866 18.5437 17.9565C18.8547 17.6264 19.0971 17.2378 19.2566 16.8133C19.4162 16.3887 19.4898 15.9367 19.4731 15.4834C19.5057 14.578 19.1785 13.6965 18.563 13.0316C17.9476 12.3667 17.094 11.9725 16.1887 11.9351C16.1692 11.9351 16.1497 11.9351 16.1302 11.9357V8.38673C16.5852 8.38431 17.0392 8.43121 17.4841 8.5266V8.96258C17.4791 9.26884 17.559 9.5705 17.7149 9.83415C17.8708 10.0978 18.0967 10.3132 18.3674 10.4564C18.6369 10.5902 18.8938 10.748 19.1351 10.9277C19.3844 11.1096 19.6827 11.2122 19.9911 11.2224C20.2995 11.2325 20.6039 11.1495 20.8645 10.9844L21.1673 10.7985C21.7577 11.5228 22.2021 12.3546 22.4759 13.2481L21.5711 13.8044C21.4611 13.8719 21.3739 13.9708 21.3207 14.0884C21.2676 14.206 21.251 14.3369 21.2731 14.464C21.3958 15.1381 21.3958 15.8288 21.2731 16.5028C21.2512 16.6301 21.2678 16.761 21.3209 16.8786C21.374 16.9963 21.4612 17.0954 21.5711 17.1631L22.4762 17.7188C22.2014 18.6118 21.7556 19.4429 21.1638 20.1659L20.8642 19.9819C20.6034 19.817 20.299 19.7344 19.9906 19.7448C19.6822 19.7551 19.384 19.8579 19.1348 20.0399C18.8934 20.2193 18.6365 20.3768 18.3671 20.5105C18.0965 20.6537 17.8708 20.869 17.715 21.1325C17.5591 21.3961 17.4792 21.6976 17.4841 22.0037V22.4371C17.0862 22.5251 16.6804 22.5729 16.2729 22.5795C16.2256 22.5808 16.1777 22.5801 16.1302 22.5801V19.0311Z" fill="#E6B625"/>
<path d="M11.6145 11.6841H10.3242V12.9744H11.6145V11.6841Z" fill="#E6B625"/>
<path d="M11.6145 18.7805H10.3242V20.0708H11.6145V18.7805Z" fill="#E6B625"/>
<path d="M10.3216 14.9094H9.03125V16.1997H10.3216V14.9094Z" fill="#E6B625"/>
<path d="M30.7801 4.05992C30.6679 3.9476 30.5183 3.88061 30.3598 3.87178C30.2013 3.86294 30.0451 3.91288 29.9211 4.01203L26.6953 6.59265L27.5011 7.60071L30.2761 5.38047L32.4485 7.55278C32.5084 7.61271 32.5795 7.66024 32.6578 7.69267C32.736 7.7251 32.8199 7.7418 32.9046 7.7418C32.9894 7.7418 33.0733 7.7251 33.1515 7.69267C33.2298 7.66024 33.3009 7.61271 33.3608 7.55278L36.619 4.29457L37.9878 5.66331C38.0477 5.72324 38.1188 5.77077 38.197 5.80321C38.2753 5.83564 38.3592 5.85234 38.4439 5.85234C38.5073 5.85244 38.5703 5.84309 38.631 5.8246C38.7427 5.79076 38.8431 5.72724 38.9216 5.6408C39 5.55437 39.0535 5.44827 39.0764 5.33381L39.9887 0.771731C40.0095 0.667576 40.0043 0.559887 39.9736 0.458224C39.9428 0.356561 39.8874 0.26407 39.8123 0.188962C39.7372 0.113853 39.6447 0.0584513 39.543 0.0276748C39.4414 -0.00310182 39.3337 -0.00830099 39.2295 0.0125387L34.6675 0.924846C34.553 0.947746 34.4468 1.00129 34.3604 1.07978C34.2739 1.15826 34.2104 1.25874 34.1766 1.37049C34.1428 1.48225 34.1399 1.60109 34.1683 1.71434C34.1968 1.82759 34.2554 1.931 34.338 2.01354L35.7067 3.3823L32.9046 6.18437L30.7801 4.05992ZM38.5337 1.4673L38.0476 3.89863L36.1027 1.95369L38.5337 1.4673Z" fill="#E6B625"/>
<path d="M31.6136 23.2261C29.9548 23.2261 28.3332 23.718 26.954 24.6395C25.5748 25.5611 24.4998 26.871 23.865 28.4035C23.2302 29.936 23.0641 31.6224 23.3877 33.2493C23.7113 34.8762 24.5101 36.3707 25.6831 37.5436C26.856 38.7165 28.3504 39.5153 29.9774 39.8389C31.6043 40.1626 33.2906 39.9965 34.8231 39.3617C36.3557 38.7269 37.6655 37.6519 38.5871 36.2727C39.5087 34.8934 40.0006 33.2719 40.0006 31.6131C39.9981 29.3895 39.1136 27.2577 37.5413 25.6854C35.969 24.113 33.8372 23.2286 31.6136 23.2261ZM31.6136 38.7098C30.21 38.7098 28.8379 38.2936 27.6709 37.5138C26.5038 36.734 25.5942 35.6256 25.0571 34.3289C24.5199 33.0321 24.3794 31.6052 24.6532 30.2286C24.9271 28.852 25.603 27.5875 26.5955 26.595C27.5879 25.6025 28.8525 24.9266 30.2291 24.6527C31.6057 24.3789 33.0326 24.5195 34.3294 25.0566C35.6261 25.5937 36.7345 26.5033 37.5143 27.6704C38.2941 28.8374 38.7103 30.2095 38.7103 31.6131C38.7082 33.4946 37.9598 35.2984 36.6294 36.6289C35.2989 37.9593 33.4951 38.7077 31.6136 38.7098Z" fill="#E6B625"/>
<path d="M31.6141 26.4514C30.8444 26.4523 30.1065 26.7584 29.5622 27.3027C29.0179 27.8469 28.7118 28.5849 28.7109 29.3546H30.0012C30.0012 29.0356 30.0958 28.7238 30.2731 28.4585C30.4503 28.1933 30.7022 27.9866 30.9969 27.8645C31.2916 27.7424 31.6159 27.7105 31.9288 27.7727C32.2417 27.835 32.5291 27.9886 32.7546 28.2141C32.9802 28.4397 33.1338 28.7271 33.196 29.04C33.2583 29.3528 33.2263 29.6771 33.1042 29.9718C32.9822 30.2666 32.7754 30.5185 32.5102 30.6957C32.245 30.8729 31.9331 30.9675 31.6141 30.9675C31.5294 30.9675 31.4455 30.9841 31.3672 31.0166C31.2889 31.049 31.2178 31.0965 31.1579 31.1564C31.098 31.2163 31.0505 31.2875 31.018 31.3657C30.9856 31.444 30.969 31.5279 30.969 31.6127V34.1933H32.2593V32.1854C32.9552 32.0267 33.5683 31.6173 33.9815 31.0353C34.3947 30.4532 34.5789 29.7394 34.4991 29.0301C34.4193 28.3208 34.081 27.6657 33.5488 27.1901C33.0167 26.7144 32.3279 26.4514 31.6141 26.4514Z" fill="#E6B625"/>
<path d="M32.2591 35.4834H30.9688V36.7737H32.2591V35.4834Z" fill="#E6B625"/>
</svg>
