<svg width="89" height="89" viewBox="0 0 89 89" fill="none" xmlns="http://www.w3.org/2000/svg">
<path d="M75.4492 27.5402C78.2926 32.7191 79.7918 38.5348 79.7918 44.4993C79.7918 45.0533 79.7488 45.6103 79.7243 46.1673C80.2475 46.0875 80.78 46.0338 81.3263 46.0338C81.825 46.0338 82.3129 46.0798 82.7932 46.1458C82.8163 45.5965 82.8608 45.0471 82.8608 44.4993C82.8608 37.5051 80.9519 30.7059 77.3673 24.749C76.9192 25.5393 76.4205 26.3019 75.8559 27.0201L75.4492 27.5402Z" fill="#7F93BE"/>
<path d="M29.7211 12.4523C34.2172 10.3701 39.0201 9.28365 44.0317 9.22074C44.4092 8.15581 44.8772 7.13538 45.4357 6.16866C39.4866 6.03209 33.4468 7.3011 28.0547 9.85601C28.7283 10.6325 29.2915 11.5056 29.7211 12.4523Z" fill="#7F93BE"/>
<path d="M13.969 26.8092L11.991 24.1714C8.44486 29.8305 6.45924 36.2738 6.19531 42.9657H9.26427C9.50979 37.2482 11.1102 31.7302 13.969 26.8092Z" fill="#7F93BE"/>
<path d="M68.6289 70.2405L69.4667 73.5918C71.7531 71.6293 73.7924 69.4165 75.5571 66.9828L73.6206 64.4019C72.1659 66.524 70.5025 68.4836 68.6289 70.2405Z" fill="#7F93BE"/>
<path d="M42.9668 46.0342H30.6909V57.7238L23.0185 53.8876L15.3461 57.7238V46.0342H3.07031V76.7238H7.19039C8.91821 73.1009 12.6071 70.5858 16.8806 70.5858C21.1542 70.5858 24.843 73.1009 26.5709 76.7238H42.9668V46.0342Z" fill="#7F93BE"/>
<path d="M27.5 79.793C27.5721 80.2963 27.6228 80.8057 27.6228 81.3274C27.6228 81.8492 27.5721 82.3586 27.5 82.8619H43.0903C43.0182 82.3586 42.9675 81.8492 42.9675 81.3274C42.9675 80.8057 43.0182 80.2963 43.0903 79.793H27.5Z" fill="#7F93BE"/>
<path d="M64.785 67.517H55.242C53.5495 67.517 52.1731 66.1406 52.1731 64.4481V61.3791C52.1731 59.6866 53.5495 58.3102 55.242 58.3102H62.4832L62.006 56.4028C61.8357 55.72 61.2234 55.2412 60.5176 55.2412H46.0352V73.8253C47.987 71.8289 50.703 70.586 53.7076 70.586C57.9811 70.586 61.67 73.101 63.3978 76.7239H67.0867L64.785 67.517Z" fill="#7F93BE"/>
<path d="M0 79.793V82.8619H6.26067C6.18855 82.3586 6.13792 81.8492 6.13792 81.3274C6.13792 80.8057 6.18855 80.2963 6.26067 79.793H0Z" fill="#7F93BE"/>
<path d="M16.8833 73.6553C12.6528 73.6553 9.21094 77.0971 9.21094 81.3277C9.21094 85.5582 12.6528 89.0001 16.8833 89.0001C21.1139 89.0001 24.5557 85.5582 24.5557 81.3277C24.5557 77.0971 21.1139 73.6553 16.8833 73.6553ZM16.8833 84.3966C15.1877 84.3966 13.8144 83.0233 13.8144 81.3277C13.8144 79.6321 15.1877 78.2587 16.8833 78.2587C18.5789 78.2587 19.9523 79.6321 19.9523 81.3277C19.9523 83.0233 18.5789 84.3966 16.8833 84.3966Z" fill="#7F93BE"/>
<path d="M18.418 52.7583L23.0214 50.4565L27.6248 52.7583V46.0342H18.418V52.7583Z" fill="#7F93BE"/>
<path d="M53.7076 73.6553C49.477 73.6553 46.0352 77.0971 46.0352 81.3277C46.0352 85.5582 49.477 89.0001 53.7076 89.0001C57.9381 89.0001 61.3799 85.5582 61.3799 81.3277C61.3799 77.0971 57.9381 73.6553 53.7076 73.6553ZM53.7076 84.3966C52.012 84.3966 50.6386 83.0233 50.6386 81.3277C50.6386 79.6321 52.012 78.2587 53.7076 78.2587C55.4032 78.2587 56.7765 79.6321 56.7765 81.3277C56.7765 83.0233 55.4032 84.3966 53.7076 84.3966Z" fill="#7F93BE"/>
<path d="M55.2422 64.4484H64.0179L63.2506 61.3794H55.2422V64.4484Z" fill="#7F93BE"/>
<path d="M64.447 81.3274C64.447 81.8492 64.3963 82.3586 64.3242 82.8619H67.5159V79.793H64.3242C64.3963 80.2963 64.447 80.8057 64.447 81.3274Z" fill="#7F93BE"/>
<path d="M19.9497 29.6662L26.0877 21.4813C27.0774 20.1647 27.6221 18.529 27.6221 16.8794C27.6221 12.6489 24.1803 9.20703 19.9497 9.20703C15.7192 9.20703 12.2773 12.6489 12.2773 16.8794C12.2773 18.529 12.8221 20.1647 13.8118 21.4813L19.9497 29.6662ZM19.9497 13.8105C21.6453 13.8105 23.0187 15.1838 23.0187 16.8794C23.0187 18.575 21.6453 19.9484 19.9497 19.9484C18.2541 19.9484 16.8808 18.575 16.8808 16.8794C16.8808 15.1838 18.2541 13.8105 19.9497 13.8105Z" fill="#7F93BE"/>
<path d="M81.3286 49.103C77.0981 49.103 73.6562 52.5449 73.6562 56.7754C73.6562 58.425 74.201 60.0607 75.1907 61.3773L81.3286 69.5622L87.4666 61.3773C88.4563 60.0607 89.001 58.425 89.001 56.7754C89.001 52.5449 85.5592 49.103 81.3286 49.103ZM81.3286 59.8444C79.633 59.8444 78.2597 58.471 78.2597 56.7754C78.2597 55.0798 79.633 53.7065 81.3286 53.7065C83.0242 53.7065 84.3976 55.0798 84.3976 56.7754C84.3976 58.471 83.0242 59.8444 81.3286 59.8444Z" fill="#7F93BE"/>
<path d="M61.3799 40.4826L73.4456 25.124C75.5601 22.4341 76.7247 19.0674 76.7247 15.644V15.3448C76.7247 6.88367 69.8411 0 61.3799 0C52.9188 0 46.0352 6.88367 46.0352 15.3448V15.644C46.0352 19.0659 47.1998 22.4341 49.3143 25.124L61.3799 40.4826ZM61.3799 4.60344C67.3122 4.60344 72.1213 9.4125 72.1213 15.3448C72.1213 21.2771 67.3122 26.0861 61.3799 26.0861C55.4477 26.0861 50.6386 21.2771 50.6386 15.3448C50.6386 9.4125 55.4477 4.60344 61.3799 4.60344Z" fill="#7F93BE"/>
<path d="M33.7578 36.8271H36.8268V39.8961H33.7578V36.8271Z" fill="#7F93BE"/>
<path d="M39.8984 36.8271H42.9674V39.8961H39.8984V36.8271Z" fill="#7F93BE"/>
<path d="M46.0352 36.8271H49.1041V39.8961H46.0352V36.8271Z" fill="#7F93BE"/>
</svg>
