<svg width="106" height="80" viewBox="0 0 106 80" fill="none" xmlns="http://www.w3.org/2000/svg">
<path d="M10.5685 56.2827H6.40255L2.50291 75.7258C2.00545 78.2012 4.79194 79.8093 8.48579 79.8093C12.1796 79.8093 14.9654 78.203 14.4701 75.7258L10.5685 56.2827Z" fill="#3855AF"/>
<path d="M11.549 51.2192C11.549 52.9086 10.182 54.2867 8.48155 54.2867C6.7922 54.2867 5.41406 52.9086 5.41406 51.2192C5.41406 49.5188 6.79219 48.1406 8.48155 48.1406C10.182 48.1406 11.549 49.5188 11.549 51.2192Z" fill="#3855AF"/>
<path d="M104.619 18.0489L54.2411 0.275684C53.2016 -0.0918947 52.3851 -0.0918947 51.346 0.275684L0.964145 18.0489C0.324873 18.2739 0 18.7338 0 19.4114V24.2254C0 24.9037 0.324883 25.3646 0.964145 25.5896L52.7918 43.8741L104.619 25.5896C105.259 25.3628 105.584 24.9048 105.584 24.226V19.4121C105.584 18.7337 105.258 18.274 104.619 18.0489Z" fill="#3855AF"/>
<path d="M52.7929 48.2155L51.4312 47.7343L20.4961 36.8203V47.8269C20.4961 64.9509 31.3879 72.6678 52.7926 72.6678C74.1964 72.6678 85.0873 64.9509 85.0873 47.8269V36.8203L54.1541 47.7343L52.7929 48.2155Z" fill="#3855AF"/>
<path d="M10.5333 33.3056L6.4375 31.8613V46.4689H10.5333V33.3056Z" fill="#3855AF"/>
</svg>
