<svg width="45" height="42" viewBox="0 0 45 42" fill="none" xmlns="http://www.w3.org/2000/svg">
<path d="M26.4494 39.9278H3.43447C1.54086 39.9278 0 38.3698 0 36.4545V4.40545C0 2.49048 1.54086 0.932129 3.43447 0.932129H21.1164C21.2969 0.932129 21.4712 1.00037 21.6039 1.12356L29.6546 8.58253C29.8009 8.71796 29.8838 8.90834 29.8838 9.10781V18.3943C29.8838 18.7904 29.5629 19.111 29.1671 19.111C28.7717 19.111 28.4504 18.7904 28.4504 18.3943V9.42102L20.8354 2.36555H3.43447C2.33141 2.36555 1.43342 3.28034 1.43342 4.40545V36.4545C1.43342 37.5792 2.33141 38.4951 3.43447 38.4951H26.4487C27.5524 38.4951 28.4497 37.5799 28.4497 36.4545V32.2588C28.4497 31.8627 28.771 31.5421 29.1664 31.5421C29.5622 31.5421 29.8831 31.8627 29.8831 32.2588V36.4545C29.8838 38.3698 28.343 39.9278 26.4494 39.9278Z" fill="#A84BFF"/>
<path d="M29.16 9.82452H22.7925C21.4746 9.82452 20.4023 8.74071 20.4023 7.40982V1.64884C20.4023 1.25269 20.7236 0.932129 21.1191 0.932129C21.5149 0.932129 21.8358 1.25269 21.8358 1.64884V7.40982C21.8358 7.95086 22.2652 8.3911 22.7925 8.3911H29.16C29.5555 8.3911 29.8767 8.71131 29.8767 9.10781C29.8767 9.50396 29.5555 9.82452 29.16 9.82452Z" fill="#A84BFF"/>
<path d="M17.4648 24.5474H22.0325V25.9808H17.4648V24.5474Z" fill="#A84BFF"/>
<path d="M17.4648 29.3926H24.2571V30.826H17.4648V29.3926Z" fill="#A84BFF"/>
<path d="M4.88672 33.8948H24.9977V35.3282H4.88672V33.8948Z" fill="#A84BFF"/>
<path d="M17.4609 20.0452H23.5159V21.4786H17.4609V20.0452Z" fill="#A84BFF"/>
<path d="M14.147 30.8262H4.88859C4.49313 30.8262 4.17188 30.506 4.17188 30.1095V20.1193C4.17188 19.7231 4.49313 19.4026 4.88859 19.4026H14.147C14.5428 19.4026 14.8637 19.7231 14.8637 20.1193V30.1095C14.8637 30.506 14.5435 30.8262 14.147 30.8262ZM5.6053 29.3928H13.4303V20.836H5.6053V29.3928Z" fill="#A84BFF"/>
<path d="M28.8498 32.9913C24.6765 32.9913 21.2812 29.5527 21.2812 25.3262C21.2812 21.0998 24.6765 17.6611 28.8498 17.6611C33.0233 17.6611 36.4183 21.0998 36.4183 25.3262C36.4183 29.5527 33.0233 32.9913 28.8498 32.9913ZM28.8498 19.0946C25.4671 19.0946 22.7147 21.8897 22.7147 25.3262C22.7147 28.7628 25.4671 31.5579 28.8498 31.5579C32.2328 31.5579 34.9848 28.7628 34.9848 25.3262C34.9848 21.8897 32.2328 19.0946 28.8498 19.0946Z" fill="#A84BFF"/>
<path d="M36.7789 34.0006C36.5941 34.0006 36.409 33.9288 36.2686 33.7871L33.2296 30.705C32.9518 30.4226 32.9553 29.9698 33.237 29.6916C33.5187 29.413 33.9722 29.4172 34.2504 29.6989L37.2891 32.7806C37.5673 33.063 37.5638 33.5162 37.2821 33.7941C37.1421 33.9316 36.9602 34.0006 36.7789 34.0006Z" fill="#A84BFF"/>
<path d="M42.4116 41.0679C41.8692 41.0679 41.3569 40.851 40.966 40.4558L36.2482 35.6705C35.8716 35.3041 35.6596 34.8062 35.6526 34.2658C35.6445 33.7104 35.8594 33.1691 36.2415 32.7806C36.6251 32.3922 37.1339 32.178 37.6743 32.178C38.2111 32.178 38.7357 32.3981 39.1133 32.7806L43.8373 37.5719C44.2121 37.9316 44.4298 38.4349 44.4372 38.9759C44.4449 39.5299 44.2314 40.0562 43.838 40.4558C43.4804 40.8387 42.9785 41.0609 42.4389 41.0679C42.4298 41.0679 42.4211 41.0679 42.4116 41.0679ZM37.6743 33.6114C37.5654 33.6114 37.4055 33.6422 37.2627 33.7871C37.1476 33.9029 37.0835 34.0709 37.086 34.2455C37.0867 34.3376 37.1101 34.5108 37.2487 34.6441C37.2536 34.649 37.2578 34.6536 37.2627 34.6585L41.9875 39.4504C42.1079 39.5722 42.2576 39.6275 42.4204 39.6359C42.5667 39.6338 42.7035 39.5729 42.8046 39.4648C42.9408 39.3265 43.0072 39.1645 43.0051 38.9969C43.003 38.8418 42.9415 38.6987 42.8316 38.5934L38.0935 33.7892C37.9812 33.6737 37.8328 33.6114 37.6743 33.6114Z" fill="#A84BFF"/>
<path d="M13.6129 9.9662C13.8449 9.78492 13.9632 9.52701 13.9632 9.19875C13.9632 9.03392 13.9387 8.88904 13.8907 8.76935C13.8428 8.64757 13.771 8.54013 13.6787 8.44914H13.678C13.5884 8.36165 13.4788 8.28641 13.3532 8.22552C13.2377 8.16883 13.1061 8.11283 12.949 8.05334C12.8703 8.02604 12.7978 7.99525 12.7327 7.96515C12.6725 7.93645 12.6193 7.90496 12.5735 7.87066C12.5378 7.84337 12.5098 7.81327 12.4916 7.78037C12.4759 7.75238 12.4682 7.71808 12.4682 7.67294C12.4682 7.6033 12.4895 7.55675 12.5385 7.52106C12.6543 7.43287 12.9312 7.44057 13.1467 7.49446C13.2552 7.52176 13.3553 7.56095 13.4435 7.61204L13.5842 7.69148L13.8571 6.96673L13.7553 6.90723C13.6601 6.85019 13.5303 6.7977 13.3696 6.75115C13.2083 6.70391 13.0228 6.67941 12.8171 6.67941C12.4538 6.67941 12.1585 6.7718 11.9415 6.95343C11.7158 7.1417 11.6017 7.40277 11.6017 7.72788C11.6017 7.88361 11.6297 8.02184 11.6846 8.13733C11.7385 8.24827 11.8102 8.3466 11.8991 8.42814C11.9835 8.50548 12.0832 8.57163 12.1966 8.62552C12.3068 8.67696 12.415 8.72211 12.5189 8.7585C12.6186 8.79315 12.7103 8.82814 12.7915 8.86489C12.8668 8.89848 12.9284 8.93488 12.977 8.97163C13.0186 9.00242 13.0508 9.03812 13.0722 9.07486C13.0911 9.10706 13.1002 9.1487 13.1002 9.19805C13.1002 9.27959 13.0753 9.33488 13.0179 9.37792C12.9728 9.41222 12.8738 9.45387 12.661 9.45387C12.4846 9.45387 12.3327 9.43322 12.2102 9.39297C12.0776 9.34853 11.9793 9.30828 11.9089 9.26839L11.7665 9.1886L11.5422 9.82097C11.4452 9.54415 11.3515 9.28099 11.2633 9.04477C11.1558 8.7564 11.0519 8.48554 10.9553 8.23917C10.8535 7.9795 10.753 7.73523 10.6578 7.51301C10.5609 7.28729 10.4591 7.05876 10.353 6.83059L10.3152 6.75115H9.60552L9.56842 6.83129C9.46169 7.06016 9.35985 7.28869 9.26361 7.51301C9.16562 7.74223 9.06589 7.98685 8.96685 8.23917C8.86676 8.49359 8.76422 8.76445 8.66099 9.04477C8.57 9.29254 8.47306 9.56655 8.37367 9.85317L8.1623 9.20435L8.01742 9.27959L8.01672 9.28029C7.95512 9.31283 7.86483 9.34853 7.74865 9.38562C7.64051 9.42167 7.49143 9.43952 7.307 9.43952C7.16072 9.43952 7.03684 9.41572 6.93885 9.36918C6.84051 9.32263 6.75897 9.25824 6.69703 9.17635C6.63124 9.09061 6.58189 8.98667 6.5504 8.86769C6.51645 8.74135 6.4993 8.60102 6.4993 8.44914C6.4993 8.27906 6.521 8.12858 6.563 8.0019C6.60394 7.88011 6.66063 7.77827 6.73168 7.70023C6.80097 7.62324 6.88496 7.5655 6.98084 7.52666C7.19607 7.43637 7.47463 7.45421 7.69126 7.52106C7.81234 7.55815 7.90403 7.597 7.96282 7.63409L8.1098 7.72648L8.37227 6.98422L8.26903 6.92613C8.24804 6.91458 8.21094 6.89463 8.15915 6.86664C8.1035 6.83654 8.03316 6.80854 7.94497 6.78055C7.86483 6.75465 7.7707 6.7319 7.65766 6.71021C7.54637 6.68956 7.42109 6.67871 7.28566 6.67871C7.05784 6.67871 6.84191 6.71896 6.64349 6.7977C6.44191 6.87574 6.26343 6.99402 6.11365 7.14765C5.96387 7.30163 5.84489 7.48991 5.76055 7.70723C5.67586 7.92526 5.63281 8.17582 5.63281 8.45404C5.63281 8.73016 5.67026 8.97932 5.74235 9.19525C5.81619 9.41362 5.92538 9.60225 6.06571 9.75693C6.20639 9.91126 6.38102 10.0309 6.58469 10.1104C6.78312 10.1884 7.01024 10.2287 7.25766 10.2287C7.37875 10.2287 7.49703 10.2213 7.60972 10.207C7.71925 10.1919 7.81969 10.1734 7.90753 10.1499C7.99957 10.1247 8.07551 10.1002 8.1378 10.0747C8.20954 10.0467 8.26588 10.018 8.30963 9.9879L8.33133 9.97285L8.26518 10.1604H9.14393L9.17787 10.0659C9.21847 9.94625 9.26081 9.82587 9.30456 9.70408C9.33675 9.6117 9.36895 9.51966 9.40044 9.42517H10.5028C10.535 9.51966 10.5682 9.6124 10.6018 9.70408C10.6456 9.82307 10.6886 9.94345 10.7292 10.0645L10.7618 10.1604H11.6647L11.5989 9.97355V9.97285L11.6111 9.97985C11.6524 10.0043 11.7056 10.0302 11.7686 10.0572C11.8316 10.0845 11.9054 10.1104 11.9957 10.137C12.0867 10.1636 12.1871 10.1856 12.2939 10.2028C12.408 10.2199 12.5326 10.2287 12.6638 10.2287C13.0715 10.2294 13.392 10.1405 13.6129 9.9662ZM10.2592 8.68326H9.64296C9.71295 8.48904 9.7819 8.30426 9.84769 8.13068C9.88443 8.03479 9.91803 7.9473 9.95093 7.86576C9.98312 7.9466 10.0171 8.03409 10.0528 8.12648C10.1196 8.30216 10.1889 8.48834 10.2592 8.68326Z" fill="#A84BFF"/>
<path d="M16.5411 9.39563H15.0153V8.76291H16.2787V8.00665H15.0153V7.51706H16.4344V6.75171H14.1758V10.161H16.5411V9.39563Z" fill="#A84BFF"/>
<path d="M6.34837 14.6207C6.25878 14.5332 6.14924 14.4573 6.02221 14.3964C5.89832 14.3362 5.76639 14.2795 5.61976 14.2253C5.54067 14.1973 5.46823 14.1679 5.40244 14.1364C5.34014 14.107 5.28695 14.0755 5.24391 14.0416C5.20821 14.015 5.18021 13.9849 5.16237 13.9534C5.14592 13.924 5.13857 13.889 5.13857 13.8445C5.13857 13.7749 5.16027 13.7283 5.20891 13.6926C5.32579 13.6059 5.59526 13.6122 5.81818 13.666C5.92422 13.6926 6.02466 13.7329 6.11495 13.7836L6.25528 13.8631L6.52825 13.1387L6.42676 13.0792C6.33122 13.0218 6.20069 12.9693 6.04111 12.9227C5.88118 12.8755 5.6957 12.8521 5.48852 12.8521C5.12492 12.8521 4.82991 12.9437 4.61188 13.125C4.38616 13.3143 4.27208 13.5751 4.27208 13.8998C4.27208 14.0566 4.30007 14.1941 4.35537 14.3089C4.40821 14.4195 4.48065 14.5175 4.56954 14.6001C4.65563 14.6788 4.75607 14.7453 4.8663 14.7971C4.96744 14.8451 5.07558 14.8902 5.19036 14.9311C5.28975 14.9647 5.38109 15.0004 5.46193 15.0365C5.53507 15.0694 5.59736 15.1061 5.6474 15.1432C5.68905 15.174 5.72125 15.2097 5.74294 15.2465C5.76149 15.2793 5.77094 15.3203 5.77094 15.3703C5.77094 15.4522 5.74574 15.5072 5.68905 15.5495C5.64461 15.5842 5.54592 15.6248 5.33349 15.6248C5.15747 15.6248 5.00523 15.6041 4.88275 15.5639C4.75607 15.5222 4.65493 15.4809 4.58319 15.4407L4.44006 15.3581L4.17969 16.0916L4.28082 16.1511C4.32247 16.1752 4.37531 16.2011 4.43831 16.2284C4.50165 16.2547 4.57549 16.2813 4.66578 16.3086C4.75292 16.3345 4.85335 16.3558 4.96324 16.373C5.07278 16.3912 5.19736 16.3996 5.33349 16.3996C5.74434 16.3996 6.06385 16.3121 6.28468 16.1381C6.51705 15.9558 6.63428 15.6979 6.63428 15.3703C6.63428 15.2041 6.61014 15.0599 6.56219 14.9402C6.5132 14.8192 6.44181 14.711 6.34837 14.6207Z" fill="#A84BFF"/>
<path d="M6.53906 13.6976H7.48639V16.3324H8.33014V13.6976H9.27747V12.9221H6.53906V13.6976Z" fill="#A84BFF"/>
<path d="M11.2754 14.9634C11.2754 15.0887 11.2617 15.1965 11.2351 15.2843C11.2103 15.3641 11.1756 15.4292 11.1319 15.4772C11.0906 15.523 11.0388 15.5576 10.9786 15.5797C10.8512 15.6269 10.6689 15.6269 10.5436 15.5797C10.4862 15.5583 10.4355 15.524 10.3931 15.4772C10.3494 15.4292 10.3151 15.3648 10.2899 15.2843C10.2626 15.1972 10.2496 15.0887 10.2496 14.9634V12.9221H9.40625V15.0173C9.40625 15.2115 9.43285 15.3928 9.48429 15.5569C9.53818 15.7267 9.62252 15.8751 9.73381 16.0003C9.84685 16.1281 9.99103 16.2278 10.1615 16.2964C10.3287 16.3646 10.5293 16.3989 10.7557 16.3989C10.9821 16.3989 11.1837 16.3646 11.3534 16.2964C11.527 16.2278 11.6733 16.1281 11.787 16.0003C11.899 15.8744 11.9833 15.7253 12.0386 15.5576C12.0925 15.3942 12.1188 15.2115 12.1188 15.0173V12.9221H11.2754V14.9634Z" fill="#A84BFF"/>
<path d="M14.9218 13.3054C14.7556 13.1619 14.5529 13.0552 14.3206 12.9887C14.0962 12.9233 13.8446 12.8904 13.5752 12.8904C13.452 12.8904 13.3092 12.8946 13.1402 12.9047C12.9711 12.9149 12.8105 12.9369 12.6642 12.9716L12.5547 12.9957V16.2577L12.6635 16.2839C12.8098 16.3179 12.968 16.3406 13.1346 16.3528C13.292 16.363 13.4376 16.3686 13.5668 16.3686C13.8397 16.3686 14.0941 16.3343 14.3206 16.2661C14.5536 16.1961 14.7563 16.0862 14.9232 15.9399C15.0919 15.7926 15.2238 15.6067 15.3148 15.3866C15.4044 15.1703 15.4502 14.9131 15.4502 14.6255C15.4502 14.3312 15.4044 14.0715 15.3148 13.8552C15.2214 13.6337 15.0898 13.4496 14.9218 13.3054ZM14.5837 14.6248C14.5837 14.9338 14.5032 15.1752 14.3451 15.3408C14.1879 15.5049 13.9377 15.5889 13.6025 15.5889C13.5164 15.5889 13.4471 15.5882 13.3946 15.5868V13.6694C13.4534 13.6673 13.5258 13.6659 13.6112 13.6659C13.95 13.6659 14.1988 13.7471 14.3514 13.9067C14.5053 14.0673 14.5837 14.3095 14.5837 14.6248Z" fill="#A84BFF"/>
<path d="M17.448 12.9221L17.4106 13.0061C17.3095 13.2339 17.195 13.4663 17.0694 13.6941C16.9819 13.8527 16.8909 14.0122 16.7985 14.1736C16.7075 14.0175 16.6173 13.8576 16.5305 13.6955C16.4094 13.4698 16.2953 13.2374 16.1928 13.0061L16.1557 12.9221H15.1758L15.2843 13.13C15.4459 13.4411 15.6223 13.7631 15.8075 14.0868C15.9786 14.387 16.1672 14.6988 16.3663 15.0142V16.3324H17.2055V15.0058C17.4026 14.6967 17.5898 14.387 17.7634 14.0847C17.9432 13.7701 18.1179 13.4485 18.2844 13.1307L18.3919 12.9228H17.448V12.9221Z" fill="#A84BFF"/>
</svg>
