<svg width="40" height="40" viewBox="0 0 40 40" fill="none" xmlns="http://www.w3.org/2000/svg">
<path d="M31.4164 20.2371H35.5223C35.7338 21.1267 36.5301 21.7924 37.4819 21.7924C38.5955 21.7924 39.5038 20.8841 39.5038 19.7706C39.5038 18.657 38.5955 17.7487 37.4819 17.7487C36.5301 17.7487 35.7338 18.4144 35.5223 19.304H31.4164V14.6382H35.5223C35.7338 15.5278 36.5301 16.1934 37.4819 16.1934C38.5955 16.1934 39.5038 15.2852 39.5038 14.1716C39.5038 13.058 38.5955 12.1497 37.4819 12.1497C36.5301 12.1497 35.7338 12.8154 35.5223 13.705H31.4164V11.6707C31.4164 11.1606 31.2111 10.6629 30.8441 10.3021L28.5982 8.05628C28.2374 7.69546 27.7397 7.48394 27.2296 7.48394H25.8112V4.00015C26.7008 3.78863 27.3727 2.99233 27.3727 2.03429C27.3727 0.920718 26.4644 0.0124421 25.3509 0.0124421C24.2373 0.0124421 23.329 0.920718 23.329 2.03429C23.329 2.98611 23.9947 3.78241 24.8781 3.99393V7.47772H20.2122V3.99393C21.1019 3.78241 21.7675 2.98611 21.7675 2.02807C21.7675 0.914497 20.8592 0.00622106 19.7457 0.00622106C18.6321 0.00622106 17.7238 0.914497 17.7238 2.02807C17.7238 2.97989 18.3895 3.77619 19.2791 3.9877V7.4715H14.6071V3.9877C15.4967 3.77619 16.1686 2.97989 16.1686 2.02185C16.1686 0.908276 15.2603 0 14.1467 0C13.0331 0 12.1249 0.908276 12.1249 2.02185C12.1249 2.97367 12.7905 3.76997 13.6739 3.98148V7.46528H12.5603C12.0627 7.46528 11.5961 7.64569 11.2477 7.98163C10.7998 8.40466 10.383 8.76548 9.96615 9.12009C9.54934 9.47469 9.13875 9.83551 8.70327 10.2461C8.31135 10.6131 8.08739 11.1295 8.08739 11.6645V13.6863H3.98148C3.76997 12.7967 2.97367 12.1311 2.02185 12.1311C0.908276 12.1311 0 13.0394 0 14.1529C0 15.2665 0.908276 16.1748 2.02185 16.1748C2.97367 16.1748 3.76997 15.5091 3.98148 14.6195H8.08739V19.2853H3.98148C3.76997 18.3957 2.97367 17.73 2.02185 17.73C0.908276 17.73 0 18.6383 0 19.7519C0 20.8655 0.908276 21.7737 2.02185 21.7737C2.97367 21.7737 3.76997 21.1081 3.98148 20.2185H8.08739V24.8843H3.98148C3.76997 23.9947 2.97367 23.329 2.02185 23.329C0.908276 23.329 0 24.2373 0 25.3509C0 26.4644 0.908276 27.3727 2.02185 27.3727C2.97367 27.3727 3.76997 26.707 3.98148 25.8174H8.08739V27.8579C8.08739 28.3681 8.29268 28.8658 8.65351 29.2266L9.28183 29.8549L10.9055 31.4786C11.2664 31.8394 11.764 32.0447 12.2742 32.0447H13.6863V35.5285C12.7967 35.74 12.1373 36.5363 12.1373 37.4882C12.1373 38.6017 13.0456 39.51 14.1592 39.51C15.2727 39.51 16.181 38.6017 16.181 37.4882C16.181 36.5363 15.5153 35.7338 14.6195 35.5223V32.0447H19.2915V35.5285C18.4019 35.74 17.7363 36.5363 17.7363 37.4882C17.7363 38.6017 18.6445 39.51 19.7581 39.51C20.8717 39.51 21.78 38.6017 21.78 37.4882C21.78 36.5363 21.1143 35.7338 20.2247 35.5223V32.0447H24.8843V35.5285C23.9947 35.74 23.3352 36.5363 23.3352 37.4882C23.3352 38.6017 24.2435 39.51 25.3571 39.51C26.4706 39.51 27.3789 38.6017 27.3789 37.4882C27.3789 36.5363 26.7133 35.7338 25.8174 35.5223V32.0447H26.9372C27.4349 32.0447 27.9015 31.8581 28.2561 31.5284C28.704 31.0991 29.1395 30.7259 29.5625 30.365C29.9669 30.0167 30.3713 29.6683 30.8005 29.2639C31.1924 28.8969 31.4226 28.3743 31.4226 27.8455V25.8237H35.5285C35.74 26.7133 36.5363 27.3789 37.4882 27.3789C38.6017 27.3789 39.51 26.4706 39.51 25.3571C39.51 24.2435 38.6017 23.3352 37.4882 23.3352C36.5363 23.3352 35.74 24.0009 35.5285 24.8905H31.4226V20.2371H31.4164ZM37.4819 18.6819C38.0792 18.6819 38.5706 19.1733 38.5706 19.7706C38.5706 20.3678 38.0792 20.8592 37.4819 20.8592C36.8847 20.8592 36.3932 20.3678 36.3932 19.7706C36.3932 19.1733 36.8847 18.6819 37.4819 18.6819ZM37.4819 13.0829C38.0792 13.0829 38.5706 13.5744 38.5706 14.1716C38.5706 14.7688 38.0792 15.2603 37.4819 15.2603C36.8847 15.2603 36.3932 14.7688 36.3932 14.1716C36.3932 13.5744 36.8847 13.0829 37.4819 13.0829ZM24.2622 2.04051C24.2622 1.44329 24.7536 0.951823 25.3509 0.951823C25.9481 0.951823 26.4395 1.44329 26.4395 2.04051C26.4395 2.63773 25.9481 3.1292 25.3509 3.1292C24.7536 3.1292 24.2622 2.63773 24.2622 2.04051ZM18.6632 2.04051C18.6632 1.44329 19.1547 0.951823 19.7519 0.951823C20.3491 0.951823 20.8406 1.44329 20.8406 2.04051C20.8406 2.63773 20.3491 3.1292 19.7519 3.1292C19.1547 3.1292 18.6632 2.63773 18.6632 2.04051ZM13.0642 2.04051C13.0642 1.44329 13.5557 0.951823 14.1529 0.951823C14.7502 0.951823 15.2416 1.44329 15.2416 2.04051C15.2416 2.63773 14.7502 3.1292 14.1529 3.1292C13.5557 3.1292 13.0642 2.63773 13.0642 2.04051ZM2.02185 15.2603C1.42462 15.2603 0.93316 14.7688 0.93316 14.1716C0.93316 13.5744 1.42462 13.0829 2.02185 13.0829C2.61907 13.0829 3.10431 13.5681 3.11053 14.1592V14.1716V14.184C3.10431 14.775 2.61907 15.2603 2.02185 15.2603ZM2.02185 20.8592C1.42462 20.8592 0.93316 20.3678 0.93316 19.7706C0.93316 19.1733 1.42462 18.6819 2.02185 18.6819C2.61907 18.6819 3.10431 19.1671 3.11053 19.7581V19.7706V19.783C3.10431 20.374 2.61907 20.8592 2.02185 20.8592ZM2.02185 26.4582C1.42462 26.4582 0.93316 25.9667 0.93316 25.3695C0.93316 24.7723 1.42462 24.2808 2.02185 24.2808C2.61907 24.2808 3.10431 24.7661 3.11053 25.3571V25.3695V25.382C3.10431 25.973 2.61907 26.4582 2.02185 26.4582ZM15.2416 37.5006C15.2416 38.0978 14.7502 38.5893 14.1529 38.5893C13.5557 38.5893 13.0642 38.0978 13.0642 37.5006C13.0642 36.9034 13.5557 36.4119 14.1529 36.4119C14.7502 36.4119 15.2416 36.9034 15.2416 37.5006ZM20.8406 37.5006C20.8406 38.0978 20.3491 38.5893 19.7519 38.5893C19.1547 38.5893 18.6632 38.0978 18.6632 37.5006C18.6632 36.9034 19.1547 36.4119 19.7519 36.4119C20.3491 36.4119 20.8406 36.9034 20.8406 37.5006ZM26.4395 37.5006C26.4395 38.0978 25.9481 38.5893 25.3509 38.5893C24.7536 38.5893 24.2622 38.0978 24.2622 37.5006C24.2622 36.9034 24.7536 36.4119 25.3509 36.4119C25.9481 36.4119 26.4395 36.9034 26.4395 37.5006ZM37.4819 24.2808C38.0792 24.2808 38.5706 24.7723 38.5706 25.3695C38.5706 25.9667 38.0792 26.4582 37.4819 26.4582C36.8847 26.4582 36.3932 25.9667 36.3932 25.3695C36.3932 24.7723 36.8847 24.2808 37.4819 24.2808ZM30.1597 28.5982C29.7429 28.9902 29.3448 29.3323 28.9466 29.6745C28.5174 30.0415 28.0757 30.4272 27.6091 30.8689C27.4287 31.0369 27.1923 31.1302 26.931 31.1302H12.2679C12.0067 31.1302 11.7454 31.0245 11.5587 30.8378C10.9553 30.2344 10.4763 29.7554 9.94127 29.2204L9.31294 28.592C9.12631 28.4054 9.02055 28.1441 9.02055 27.8828V11.6832C9.02055 11.4094 9.13875 11.1357 9.34404 10.9429C9.7733 10.5447 10.1714 10.1963 10.5758 9.84795C11.0051 9.48091 11.4343 9.10764 11.8885 8.67839C12.0689 8.51042 12.3053 8.4171 12.5603 8.4171H27.2234C27.4847 8.4171 27.746 8.52286 27.9326 8.71572L30.1784 10.9615C30.365 11.1482 30.477 11.4094 30.477 11.6707V14.1592V14.1716V14.184V19.7519V19.7643V19.7768V25.3446V25.3571V25.3695V27.8579C30.4832 28.1317 30.365 28.3992 30.1597 28.5982Z" fill="#04E37B"/>
<path d="M27.2047 10.4268C26.8563 10.1344 26.4146 9.97266 25.9605 9.97266H13.537C13.0829 9.97266 12.635 10.1344 12.2928 10.4268L11.2663 11.2977C10.8309 11.6648 10.582 12.206 10.582 12.7721V26.7633C10.582 27.3357 10.8309 27.8707 11.2663 28.2377L12.2928 29.1087C12.6412 29.4011 13.0829 29.5628 13.537 29.5628H25.9605C26.4146 29.5628 26.8563 29.4011 27.2047 29.1087L28.2374 28.2377C28.6729 27.8707 28.928 27.3294 28.928 26.7571V12.7784C28.928 12.206 28.6791 11.6648 28.2374 11.2977L27.2047 10.4268ZM27.9948 26.7633C27.9948 27.0619 27.8642 27.3357 27.6402 27.5285L26.6075 28.3995C26.4271 28.5488 26.1969 28.6359 25.9605 28.6359H13.537C13.3006 28.6359 13.0705 28.555 12.89 28.3995L11.8636 27.5285C11.6396 27.3357 11.509 27.0619 11.509 26.7633V12.7721C11.509 12.4797 11.6396 12.1998 11.8636 12.0069L12.89 11.136C13.0705 10.9867 13.3006 10.8996 13.537 10.8996H25.9605C26.1969 10.8996 26.4271 10.9805 26.6075 11.136L27.6402 12.0069C27.8642 12.1998 27.9948 12.4735 27.9948 12.7721V26.7633Z" fill="#04E37B"/>
<path d="M20.5345 20.6229L18.606 16.2184C18.5313 16.0505 18.3633 15.9385 18.1767 15.9385H18.015C17.8283 15.9385 17.6604 16.0505 17.5857 16.2184L14.6494 22.9434C14.5436 23.1798 14.6556 23.4535 14.892 23.5593C15.1284 23.665 15.4021 23.5531 15.5079 23.3167L16.4037 21.2699H19.8066L20.7025 23.3167C20.7771 23.4909 20.9513 23.5966 21.1317 23.5966C21.1939 23.5966 21.2561 23.5842 21.3183 23.5593C21.5547 23.4535 21.6605 23.1798 21.561 22.9434L20.5345 20.6229ZM16.8081 20.3368L18.102 17.388L19.396 20.3368H16.8081Z" fill="#04E37B"/>
<path d="M24.4314 15.9443C24.1764 15.9443 23.9648 16.1559 23.9648 16.4109V23.1359C23.9648 23.391 24.1764 23.6025 24.4314 23.6025C24.6865 23.6025 24.898 23.391 24.898 23.1359V16.4109C24.898 16.1496 24.6865 15.9443 24.4314 15.9443Z" fill="#04E37B"/>
</svg>
