<svg width="43" height="41" viewBox="0 0 43 41" fill="none" xmlns="http://www.w3.org/2000/svg">
<path d="M7.69777 3.56055C6.16282 3.56055 4.91406 4.80889 4.91406 6.34318C4.91406 7.87747 6.16282 9.12581 7.69777 9.12581C9.23395 9.12581 10.4838 7.87747 10.4838 6.34318C10.4838 4.80889 9.23395 3.56055 7.69777 3.56055ZM7.69777 7.46629C7.07791 7.46629 6.57367 6.96246 6.57367 6.34318C6.57367 5.7239 7.07791 5.22015 7.69777 5.22015C8.31885 5.22015 8.82425 5.72399 8.82425 6.34326C8.82425 6.96254 8.31885 7.46629 7.69777 7.46629Z" fill="#E6B625"/>
<path d="M32.0369 3.56055H24.6782C23.1433 3.56055 21.8945 4.80889 21.8945 6.34318C21.8945 7.87747 23.1433 9.12581 24.6782 9.12581H32.0369C33.5718 9.12581 34.8206 7.87747 34.8206 6.34318C34.8206 4.80889 33.5718 3.56055 32.0369 3.56055ZM32.0369 7.46629H24.6782C24.0584 7.46629 23.5541 6.96246 23.5541 6.34318C23.5541 5.7239 24.0585 5.22007 24.6782 5.22007H32.0369C32.6568 5.22007 33.161 5.7239 33.161 6.34318C33.161 6.96246 32.6568 7.46629 32.0369 7.46629Z" fill="#E6B625"/>
<path d="M14.9126 3.56055C13.3777 3.56055 12.1289 4.80889 12.1289 6.34318C12.1289 7.87747 13.3777 9.12581 14.9126 9.12581C16.4488 9.12581 17.6986 7.87747 17.6986 6.34318C17.6986 4.80889 16.4488 3.56055 14.9126 3.56055ZM14.9126 7.46629C14.2928 7.46629 13.7885 6.96246 13.7885 6.34318C13.7885 5.7239 14.2928 5.22007 14.9126 5.22007C15.5337 5.22007 16.0391 5.7239 16.0391 6.34318C16.0391 6.96246 15.5337 7.46629 14.9126 7.46629Z" fill="#E6B625"/>
<path d="M13.5597 17.3169C13.1141 17.2102 12.6662 17.4853 12.5597 17.9311L10.9135 24.8198C10.8071 25.2656 11.082 25.7133 11.5277 25.8198C11.5925 25.8352 11.6575 25.8427 11.7213 25.8427C12.0965 25.8427 12.4366 25.5865 12.5276 25.2056L14.1738 18.3169C14.2804 17.8711 14.0054 17.4235 13.5597 17.3169Z" fill="#E6B625"/>
<path d="M16.6061 25.0098C16.7642 25.1507 16.9614 25.22 17.1577 25.22C17.3862 25.22 17.6137 25.1262 17.7777 24.9421L20.1046 22.33C20.4885 21.9026 20.4885 21.2333 20.107 20.8087L17.7776 18.1939C17.4727 17.8516 16.9481 17.8215 16.6061 18.1262C16.2638 18.431 16.2335 18.9556 16.5383 19.2977L18.5607 21.5679L16.5383 23.8382C16.2336 24.1805 16.2638 24.705 16.6061 25.0098Z" fill="#E6B625"/>
<path d="M8.48215 18.1261C8.13985 17.8213 7.61545 17.8518 7.31058 18.1939L4.98397 20.8057C4.59953 21.2332 4.59953 21.9028 4.98134 22.3273L7.31066 24.9421C7.47466 25.1262 7.70209 25.2199 7.93068 25.2199C8.12701 25.2199 8.32425 25.1507 8.48232 25.0098C8.82462 24.7049 8.85491 24.1804 8.55004 23.8382L6.52772 21.5681L8.55004 19.2978C8.85474 18.9555 8.82446 18.4309 8.48215 18.1261Z" fill="#E6B625"/>
<path d="M40.2696 26.9513H39.9615C39.8001 26.4286 39.591 25.9241 39.336 25.4419L39.5558 25.2213C39.9069 24.8723 40.1007 24.4063 40.1015 23.9092C40.1022 23.4108 39.9091 22.943 39.5576 22.5915L39.1292 22.1634V4.48857C39.1292 2.01351 37.3826 0 35.2356 0H3.89356C1.74658 0 0 2.01351 0 4.48857V27.6809C0 30.1559 1.74658 32.1694 3.89356 32.1694H8.76204C9.22029 32.1694 9.5918 31.7979 9.5918 31.3397C9.5918 30.8814 9.22029 30.5099 8.76204 30.5099H3.89356C2.68266 30.5099 1.65961 29.2143 1.65961 27.6809V12.6266H37.4695V21.0118C37.3749 20.9973 37.2792 20.9877 37.1817 20.9877C37.1807 20.9877 37.1797 20.9877 37.1788 20.9877C36.6816 20.9885 36.2156 21.1821 35.8694 21.5302L35.6451 21.7535C35.1528 21.4934 34.64 21.2819 34.1114 21.1204V20.8248C34.1114 19.7992 33.2768 18.9649 32.251 18.9649H30.7493C29.7248 18.9649 28.8914 19.7992 28.8914 20.8248V21.1406C28.3726 21.3036 27.8718 21.5133 27.393 21.7681L27.1781 21.5538C26.829 21.203 26.363 21.0093 25.8658 21.0086C25.8649 21.0086 25.864 21.0086 25.863 21.0086C25.3658 21.0086 24.8989 21.2016 24.5481 21.5521L23.4872 22.6125C23.1357 22.9639 22.9426 23.4318 22.9433 23.9301C22.944 24.4272 23.1377 24.8932 23.4862 25.2395L23.7154 25.4693C23.4666 25.9441 23.2623 26.4393 23.1042 26.9512H22.7891C21.7645 26.9512 20.931 27.7844 20.931 28.8087V30.3118C20.931 30.3786 20.9347 30.4446 20.9416 30.5096H16.1136C15.6553 30.5096 15.2838 30.8811 15.2838 31.3393C15.2838 31.7976 15.6553 32.1691 16.1136 32.1691H22.789H23.1074C23.2678 32.6858 23.4753 33.185 23.7283 33.6629L23.5041 33.8861C22.7822 34.6119 22.7828 35.7901 23.5058 36.5125L24.5673 37.5736C24.9163 37.9244 25.3824 38.1181 25.8796 38.1188H25.8823C26.3796 38.1188 26.8465 37.9258 27.1973 37.5752L27.4195 37.3531C27.9017 37.6073 28.4031 37.815 28.9192 37.9746V38.2957C28.9192 39.3213 29.7526 40.1556 30.7772 40.1556H32.2812C33.3057 40.1556 34.1392 39.3213 34.1392 38.2957V37.9765C34.6601 37.8158 35.1635 37.6073 35.6451 37.3531L35.8664 37.5735C36.2154 37.9244 36.6814 38.118 37.1785 38.1188H37.1814C37.6787 38.1188 38.1455 37.9258 38.497 37.5746L39.5556 36.5142C39.9067 36.1653 40.1005 35.6993 40.1012 35.2021C40.102 34.7038 39.9088 34.2359 39.5572 33.8845L39.3358 33.6631C39.5883 33.1848 39.7956 32.6853 39.9558 32.1692H40.2694C41.2952 32.1692 42.1298 31.336 42.1298 30.3118V28.8087C42.1299 27.7845 41.2954 26.9513 40.2696 26.9513ZM1.65961 10.967V4.48857C1.65961 2.95519 2.68266 1.65961 3.89356 1.65961H35.2356C36.4465 1.65961 37.4696 2.95519 37.4696 4.48857V10.967L1.65961 10.967ZM40.4703 30.3119C40.4703 30.4173 40.3765 30.5097 40.2695 30.5097H39.3206C38.9337 30.5097 38.5981 30.7771 38.5117 31.1542C38.3325 31.9363 38.0247 32.678 37.5967 33.3589C37.3906 33.6868 37.4387 34.1137 37.7127 34.3875L38.3842 35.0585C38.4344 35.1087 38.4418 35.1686 38.4418 35.1999C38.4417 35.2373 38.432 35.2915 38.3835 35.3395L37.3233 36.4016C37.2731 36.4518 37.2131 36.4594 37.1815 36.4594C37.1814 36.4594 37.1813 36.4594 37.1813 36.4594C37.1436 36.4594 37.0892 36.4496 37.0406 36.4006L36.3667 35.7295C36.0926 35.4565 35.6665 35.4092 35.3393 35.6149C34.6574 36.0439 33.9126 36.3522 33.1253 36.5314C32.7477 36.6174 32.4797 36.9531 32.4797 37.3405V38.296C32.4797 38.4026 32.387 38.4962 32.2813 38.4962H30.7774C30.6717 38.4962 30.5789 38.4027 30.5789 38.296V37.3382C30.5789 36.9504 30.3104 36.6143 29.9322 36.5288C29.155 36.353 28.4115 36.0452 27.7224 35.614C27.5866 35.529 27.4341 35.4876 27.2824 35.4876C27.0681 35.4876 26.8556 35.5704 26.6956 35.7306L26.0242 36.4016C25.9739 36.4518 25.9139 36.4594 25.8824 36.4594C25.8823 36.4594 25.8822 36.4594 25.8821 36.4594C25.8445 36.4594 25.79 36.4496 25.7424 36.4017L24.6792 35.339C24.6047 35.2646 24.6055 35.1328 24.6782 35.0597L25.352 34.3886C25.6274 34.1144 25.6755 33.686 25.468 33.3575C25.0394 32.6788 24.7312 31.9376 24.5518 31.1544C24.4654 30.7773 24.1298 30.5099 23.7429 30.5099H22.7892C22.6816 30.5099 22.5907 30.4193 22.5907 30.3121V28.809C22.5907 28.7018 22.6816 28.6111 22.7892 28.6111H23.7405C24.1278 28.6111 24.4637 28.3431 24.5497 27.9655C24.7267 27.1873 25.031 26.4491 25.4541 25.7713C25.6583 25.444 25.6101 25.0192 25.3376 24.746L24.6588 24.0652C24.6127 24.0194 24.603 23.9652 24.6029 23.9278C24.6029 23.8966 24.6103 23.8367 24.6605 23.7866L25.7213 22.7262C25.7716 22.676 25.8316 22.6685 25.8632 22.6685H25.8634C25.901 22.6685 25.9555 22.6783 26.0041 22.7272L26.6733 23.3937C26.9482 23.6675 27.3758 23.7144 27.7032 23.5067C28.3812 23.0768 29.1238 22.7655 29.9103 22.5814C30.2855 22.4936 30.5509 22.1589 30.5509 21.7734V20.825C30.5509 20.7165 30.6417 20.6247 30.7493 20.6247H32.2509C32.3597 20.6247 32.4517 20.7165 32.4517 20.825V21.7595C32.4517 22.1483 32.7216 22.4849 33.1012 22.5694C33.8907 22.7452 34.644 23.0558 35.34 23.4925C35.6671 23.6975 36.0928 23.6501 36.3666 23.3774L37.0433 22.7035C37.0892 22.6574 37.1436 22.6476 37.1812 22.6476H37.1814C37.213 22.6476 37.273 22.6551 37.3232 22.7053L38.3841 23.7656C38.4343 23.8158 38.4417 23.8757 38.4417 23.9069C38.4416 23.9443 38.4319 23.9985 38.3831 24.047L37.7116 24.7205C37.4381 24.9947 37.3907 25.4216 37.5974 25.7491C38.027 26.4302 38.336 27.176 38.5161 27.9658C38.6021 28.3433 38.9379 28.6112 39.3252 28.6112H40.2695C40.3765 28.6112 40.4703 28.7037 40.4703 28.8091V30.3119Z" fill="#E6B625"/>
<path d="M31.532 24.4922C28.7358 24.4922 26.4609 26.7661 26.4609 29.561C26.4609 32.3547 28.7358 34.6276 31.532 34.6276C34.327 34.6276 36.6008 32.3548 36.6008 29.561C36.6008 26.7661 34.327 24.4922 31.532 24.4922ZM31.532 32.968C29.651 32.968 28.1205 31.4396 28.1205 29.561C28.1205 27.6811 29.651 26.1518 31.532 26.1518C33.4118 26.1518 34.9412 27.6811 34.9412 29.561C34.9412 31.4396 33.4117 32.968 31.532 32.968Z" fill="#E6B625"/>
<path d="M12.4632 30.5098H12.4469C11.9887 30.5098 11.6172 30.8813 11.6172 31.3395C11.6172 31.7978 11.9887 32.1693 12.4469 32.1693H12.4632C12.9215 32.1693 13.293 31.7978 13.293 31.3395C13.293 30.8813 12.9215 30.5098 12.4632 30.5098Z" fill="#E6B625"/>
</svg>
