<svg width="79" height="79" viewBox="0 0 79 79" fill="none" xmlns="http://www.w3.org/2000/svg">
<path d="M53.541 28.082C39.5029 28.082 28.082 39.5029 28.082 53.541C28.082 67.5791 39.5029 79 53.541 79C67.5791 79 79 67.5791 79 53.541C79 39.5029 67.5791 28.082 53.541 28.082ZM53.541 51.2266C57.3697 51.2266 60.4844 54.3412 60.4844 58.1699C60.4844 61.1833 58.5436 63.7283 55.8555 64.687V69.7422H51.2266V64.687C48.5384 63.7283 46.5977 61.1833 46.5977 58.1699H51.2266C51.2266 59.4469 52.2641 60.4844 53.541 60.4844C54.818 60.4844 55.8555 59.4469 55.8555 58.1699C55.8555 56.893 54.818 55.8555 53.541 55.8555C49.7123 55.8555 46.5977 52.7408 46.5977 48.9121C46.5977 45.8987 48.5384 43.3537 51.2266 42.3951V37.3398H55.8555V42.3951C58.5436 43.3537 60.4844 45.8987 60.4844 48.9121H55.8555C55.8555 47.6351 54.818 46.5977 53.541 46.5977C52.2641 46.5977 51.2266 47.6351 51.2266 48.9121C51.2266 50.1891 52.2641 51.2266 53.541 51.2266Z" fill="#B59625"/>
<path d="M25.7676 28.082C40.0431 28.082 51.2266 21.9818 51.2266 14.1953C51.2266 6.40887 40.0431 0 25.7676 0C11.492 0 0 6.40887 0 14.1953C0 21.9818 11.492 28.082 25.7676 28.082Z" fill="#B59625"/>
<path d="M0 52.084V55.8552C0 63.6416 11.492 69.7419 25.7676 69.7419C26.5773 69.7419 27.3619 69.6674 28.1592 69.6283C26.3838 66.8369 25.0598 63.7396 24.2802 60.4284C13.9569 60.1434 4.99336 56.9712 0 52.084Z" fill="#B59625"/>
<path d="M23.5644 55.7373C23.5113 55.0093 23.4531 54.2821 23.4531 53.5407C23.4531 51.128 23.7693 48.7928 24.3084 46.5429C13.9724 46.2628 4.99783 43.0889 0 38.1973V41.9684C0 49.3418 10.3783 55.1364 23.5644 55.7373Z" fill="#B59625"/>
<path d="M25.7676 41.9684C25.77 41.9684 25.7721 41.9681 25.7747 41.9681C27.3011 38.3199 29.5201 35.0312 32.2757 32.2758C30.1854 32.54 28.0252 32.7106 25.7676 32.7106C14.779 32.7106 5.23468 29.4338 0 24.3105V28.0817C0 35.8682 11.492 41.9684 25.7676 41.9684Z" fill="#B59625"/>
</svg>
