<svg width="77" height="79" viewBox="0 0 77 79" fill="none" xmlns="http://www.w3.org/2000/svg">
<path fill-rule="evenodd" clip-rule="evenodd" d="M0.721152 63.956H35.8442C36.3069 66.2685 37.1332 68.4499 38.261 70.4397H0.721152C0.323926 70.4397 6.44889e-08 70.1172 6.44889e-08 69.7217V64.6742C-0.000166908 64.2785 0.323926 63.956 0.721152 63.956ZM6.58738 28.9408V61.2961H14.6251V35.8689C14.6251 35.0779 15.2731 34.4327 16.0676 34.4327H29.244C30.0384 34.4327 30.6865 35.0779 30.6865 35.8689V61.2961H35.4787C35.4373 60.7456 35.4163 60.1895 35.4163 59.6286C35.4163 54.4895 37.1835 49.7613 40.1461 46.0138C39.565 45.8281 39.1426 45.2845 39.1426 44.6458V35.8689C39.1426 35.0779 39.7906 34.4327 40.5851 34.4327H56.1014C56.8959 34.4327 57.5439 35.0779 57.5439 35.8689V37.5975C60.1457 37.5975 62.6426 38.0445 64.9613 38.8658V28.9408C64.3746 29.0424 63.7711 29.0954 63.1552 29.0954C59.3562 29.0954 55.8804 27.0554 54.0283 23.7747C52.1761 27.0554 48.7004 29.0954 44.9013 29.0954C41.1023 29.0954 37.6263 27.0554 35.7744 23.7747C33.9225 27.0554 30.4465 29.0954 26.6476 29.0954C22.8486 29.0954 19.3728 27.0554 17.5207 23.7747C15.6687 27.0554 12.1926 29.0954 8.39369 29.0954C7.77756 29.0954 7.17412 29.0424 6.58738 28.9408ZM57.5439 40.2572C46.7986 40.2572 38.0878 48.9301 38.0878 59.6286C38.0878 70.327 46.7986 79 57.5439 79C68.2892 79 77 70.3272 77 59.6286C77 48.9301 68.2892 40.2572 57.5439 40.2572ZM48.6168 51.594H45.9834C45.2458 51.594 44.6477 50.9985 44.6477 50.264C44.6477 49.5296 45.2458 48.9341 45.9834 48.9341L49.647 48.9396C50.2409 48.9391 50.7822 49.3376 50.9358 49.9369L51.5858 52.4565H69.1047C70.0276 52.4565 70.6629 53.3643 70.3684 54.2185L68.4061 62.325C67.9907 64.0418 66.4901 65.2286 64.7144 65.2286H52.8804C52.6825 65.2286 52.5159 65.3945 52.5159 65.5915C52.5159 65.7883 52.6827 65.9542 52.8804 65.9542H67.4365C68.1742 65.9542 68.7723 66.5497 68.7723 67.2842C68.7723 68.0187 68.1742 68.6142 67.4365 68.6142H66.7404C67.1109 68.9681 67.3417 69.4658 67.3417 70.0174C67.3417 71.0912 66.4674 71.9615 65.3891 71.9615C64.3106 71.9615 63.4365 71.0911 63.4365 70.0174C63.4365 69.4658 63.6673 68.9679 64.0378 68.6142H55.2828C55.6533 68.9681 55.884 69.4658 55.884 70.0174C55.884 71.0912 55.0098 71.9615 53.9315 71.9615C52.8532 71.9615 51.9789 71.0911 51.9789 70.0174C51.9789 69.4587 52.2157 68.9551 52.5947 68.6005C51.0554 68.4564 49.8442 67.1607 49.8442 65.5913C49.8442 64.4416 50.502 63.3959 51.5294 62.8852C50.5585 59.1214 49.5875 55.3578 48.6168 51.594ZM1.46351 17.3483H16.4943L21.0864 0H10.653C10.5722 0 10.5424 0.0108061 10.5045 0.0846189L1.46351 17.3483ZM19.2507 17.3483L23.8426 0H34.4385V17.3483H19.2507ZM37.11 17.3483H52.298L47.7059 0H37.11V17.3483ZM60.8957 0C61.0223 0 61.043 0.0826238 61.0949 0.181872L70.085 17.3483H55.0542L50.4623 0H60.8957ZM70.832 20.0083C70.1887 23.7167 66.9439 26.4355 63.155 26.4355C59.3659 26.4355 56.1215 23.7167 55.4781 20.0083H70.832ZM52.5782 20.0083C51.9348 23.7169 48.6904 26.4355 44.9013 26.4355C41.1124 26.4355 37.8678 23.7167 37.2244 20.0083H52.5782ZM34.3243 20.0083C33.6809 23.7169 30.4363 26.4355 26.6474 26.4355C22.8583 26.4355 19.614 23.7169 18.9705 20.0083H34.3243ZM16.0706 20.0083C15.4272 23.7169 12.1826 26.4355 8.39352 26.4355C4.60459 26.4355 1.35982 23.7167 0.716477 20.0083H16.0706Z" fill="#656565"/>
</svg>
