<svg width="40" height="40" viewBox="0 0 40 40" fill="none" xmlns="http://www.w3.org/2000/svg">
<path fill-rule="evenodd" clip-rule="evenodd" d="M2.35449 0H32.0212H32.0233C33.3232 0.000323886 34.377 1.05401 34.3772 2.35393V2.35627V6.7868V19.8345C35.7764 20.7291 37.5164 21.4973 39.478 21.6528C39.7727 21.6761 40 21.9221 40 22.2178V29.6422C40 32.184 38.7267 34.5303 36.9546 36.3627C35.2079 38.169 32.9828 39.4708 31.0827 39.9806C30.9865 40.0065 30.8852 40.0065 30.789 39.9806C28.8883 39.4709 26.6629 38.169 24.916 36.3627C23.5419 34.942 22.4679 33.2124 22.0545 31.3223H2.35628C1.05498 31.3223 0 30.2674 0 28.966V6.7868V2.35393C0.000242915 1.05401 1.05401 0.000323886 2.35393 0H2.35449ZM2.35449 1.1336C1.68057 1.13457 1.13457 1.68065 1.1336 2.35449V6.22H13.4359L15.4906 3.88065C15.5982 3.75814 15.7534 3.68793 15.9164 3.68793C16.0795 3.68793 16.2347 3.75814 16.3423 3.88065L18.3971 6.22H33.2436V2.35627V2.35449C33.2427 1.68065 32.6966 1.13457 32.0228 1.1336H32.021H2.35449ZM27.5611 2.74235C28.0771 2.74235 28.4961 3.16138 28.4961 3.67749C28.4961 4.19352 28.0771 4.61255 27.5611 4.61255C27.0449 4.61255 26.6259 4.19352 26.6259 3.67749C26.6259 3.16138 27.0449 2.74235 27.5611 2.74235ZM24.8181 2.74235C25.3341 2.74235 25.7531 3.16138 25.7531 3.67749C25.7531 4.19352 25.3341 4.61255 24.8181 4.61255C24.3019 4.61255 23.8829 4.19352 23.8829 3.67749C23.8829 3.16138 24.3019 2.74235 24.8181 2.74235ZM30.304 2.74235C30.8202 2.74235 31.2391 3.16138 31.2391 3.67749C31.2391 4.19352 30.8202 4.61255 30.304 4.61255C29.7879 4.61255 29.3689 4.19352 29.3689 3.67749C29.3689 3.16138 29.7879 2.74235 30.304 2.74235ZM23.004 22.7282V29.6422C23.004 31.8914 24.1626 33.9531 25.7309 35.5747C27.2798 37.1763 29.2351 38.3529 30.9358 38.8448C32.636 38.3529 34.5909 37.1763 36.1397 35.5747C37.7079 33.9531 38.8664 31.8914 38.8664 29.6422V22.7282C36.6711 22.4423 34.746 21.4871 33.245 20.441H28.6254C27.1245 21.4871 25.1994 22.4423 23.004 22.7282ZM28.7918 21.5944C28.8032 21.5522 28.8113 21.5273 28.8113 21.5273C28.9134 21.472 29.0251 21.4511 29.1329 21.461C29.1494 21.4594 29.1669 21.4587 29.1855 21.4587H32.7888C32.9007 21.4587 33.01 21.4918 33.1032 21.5538C34.4375 22.4431 35.9138 23.1215 37.4785 23.4555C37.4785 23.4555 37.927 23.4797 37.927 24.0116V29.6414C37.927 31.0906 37.3413 32.525 36.423 33.7894C35.0861 35.6301 33.0449 37.1097 31.1142 37.7498C30.9983 37.7882 30.8732 37.7882 30.7574 37.7498C28.8266 37.1097 26.7855 35.6297 25.4487 33.7889C24.5303 32.5244 23.9446 31.0901 23.9446 29.6414V24.0099C23.9446 23.7424 24.1316 23.5114 24.3931 23.4555C25.9577 23.1215 27.433 22.4431 28.7674 21.5538L28.7918 21.5944ZM36.7934 24.4594C35.3107 24.0831 33.9052 23.4299 32.6189 22.5923C32.0001 22.5923 29.8705 22.5923 29.2517 22.5923C27.9654 23.4299 26.5606 24.0831 25.0782 24.4594V29.6414C25.0782 30.8603 25.5932 32.0589 26.3658 33.1227C27.5215 34.714 29.2613 36.0091 30.9358 36.612C32.6103 36.0091 34.3501 34.7144 35.5057 33.1232C36.2784 32.0594 36.7934 30.8606 36.7934 29.6414V24.4594ZM34.5101 26.8091C34.753 26.6118 35.1102 26.6488 35.3074 26.8916C35.5046 27.1345 35.4676 27.4917 35.2248 27.689L29.4139 32.4083C29.2903 32.5087 29.1301 32.5525 28.9726 32.5289C28.8151 32.5053 28.6748 32.4166 28.5861 32.2844L26.5325 29.2259C26.3581 28.9661 26.4273 28.6138 26.687 28.4393C26.9467 28.2649 27.2992 28.3342 27.4735 28.5939L29.1811 31.1371L34.5101 26.8091ZM4.68551 17.8401V19.3369C6.70834 19.3731 7.71911 21.8156 6.31449 23.2708L7.37393 24.3294C8.83045 22.9242 11.2713 23.935 11.3074 25.9589H12.8043C12.8405 23.9372 15.2831 22.9253 16.7383 24.3299L17.7972 23.2709C16.3927 21.8156 17.4046 19.3731 19.4262 19.3369V17.8401C17.4049 17.8039 16.3929 15.3619 17.7968 13.9066L16.7383 12.8471C15.283 14.2517 12.8405 13.241 12.8043 11.2181H11.3074C11.2713 13.2407 8.82923 14.2515 7.37393 12.8476L6.31498 13.9066C7.71887 15.3619 6.7081 17.8039 4.68551 17.8401ZM12.0564 22.9694C9.64324 22.9694 7.67587 21.001 7.67587 18.589C7.67587 16.1758 9.64324 14.2085 12.0564 14.2085C14.4684 14.2085 16.4368 16.1758 16.4368 18.589C16.4368 21.001 14.4684 22.9694 12.0564 22.9694ZM12.0564 21.8358C13.8442 21.8358 15.3032 20.3768 15.3032 18.589C15.3032 16.8003 13.8442 15.3421 12.0564 15.3421C10.2677 15.3421 8.80947 16.8003 8.80947 18.589C8.80947 20.3768 10.2677 21.8358 12.0564 21.8358ZM1.1336 7.3536V28.966C1.1336 29.6413 1.68097 30.1886 2.35628 30.1886H21.89C21.8771 30.0076 21.8704 29.8254 21.8704 29.6422V22.2178C21.8704 21.9221 22.0977 21.6761 22.3925 21.6528C24.6568 21.4733 26.6257 20.4775 28.1162 19.413C28.2123 19.3444 28.3274 19.3074 28.4456 19.3074H33.2436V7.3536H19.3928L20.4258 8.52971C20.5727 8.69692 20.6082 8.93465 20.5164 9.13749C20.4246 9.34024 20.2226 9.47052 20 9.47052H18.1962V12.7024L18.6304 13.137C19.0551 13.5618 19.0551 14.2508 18.6304 14.6755C17.8818 15.4241 18.4133 16.7069 19.4718 16.7069C20.0745 16.7069 20.5598 17.1942 20.5598 17.7949V19.382C20.5598 19.9828 20.0745 20.4701 19.4718 20.4701C18.4133 20.4701 17.8818 21.7528 18.6304 22.5015C19.0549 22.9259 19.0549 23.6164 18.6304 24.0409L17.5083 25.163C17.0838 25.5874 16.3934 25.5874 15.9689 25.163C15.2202 24.4143 13.9375 24.9458 13.9375 26.0044C13.9375 26.6071 13.4502 27.0925 12.8495 27.0925H11.2623C10.6615 27.0925 10.1743 26.6071 10.1743 26.0044C10.1743 24.9445 8.89215 24.4137 8.14283 25.163C7.71814 25.5878 7.02915 25.5878 6.60462 25.1632L5.4813 24.0409C5.05684 23.6164 5.05684 22.9259 5.4813 22.5015C6.23004 21.7528 5.69919 20.4701 4.63992 20.4701C4.03919 20.4701 3.5519 19.9828 3.5519 19.382V17.7949C3.5519 17.1942 4.03919 16.7069 4.63992 16.7069C5.69919 16.7069 6.23004 15.4241 5.4813 14.6755C5.0566 14.2508 5.0566 13.5618 5.4813 13.137L6.60445 12.0139C7.02915 11.5892 7.71814 11.5892 8.14283 12.0139C8.89158 12.7626 10.1743 12.2317 10.1743 11.1725C10.1743 10.5718 10.6615 10.0845 11.2623 10.0845H12.8495C13.1587 10.0845 13.4379 10.2136 13.636 10.4209V9.47052H11.8329C11.6103 9.47052 11.4083 9.34024 11.3165 9.13749C11.2247 8.93465 11.2602 8.69692 11.407 8.52971L12.4401 7.3536H1.1336ZM17.0626 11.7446V8.90372C17.0626 8.59068 17.3164 8.33692 17.6294 8.33692H18.7477L15.9164 5.1136L13.0852 8.33692H14.2028C14.5158 8.33692 14.7696 8.59068 14.7696 8.90372V12.3067C15.164 12.4325 15.6233 12.3595 15.9689 12.0139C16.2644 11.7185 16.6887 11.6287 17.0626 11.7446Z" fill="#A84BFF"/>
</svg>
