<svg width="38" height="40" viewBox="0 0 38 40" fill="none" xmlns="http://www.w3.org/2000/svg">
<path d="M2.94965 2.78945C2.97811 2.72368 3.01908 2.66422 3.07022 2.61449C3.12136 2.56476 3.18167 2.52572 3.2477 2.4996C3.31373 2.47348 3.38419 2.4608 3.45506 2.46228C3.52592 2.46375 3.59581 2.47935 3.66073 2.5082L7.59268 4.2533C7.65762 4.28212 7.71631 4.32362 7.76542 4.37542C7.81453 4.42723 7.85309 4.48832 7.87889 4.55523C7.9047 4.62213 7.91724 4.69353 7.91582 4.76534C7.91439 4.83716 7.89901 4.90798 7.87057 4.97378C7.84213 5.03958 7.80117 5.09905 7.75004 5.14881C7.69892 5.19857 7.63862 5.23763 7.57259 5.26378C7.50656 5.28993 7.43609 5.30264 7.36521 5.30119C7.29434 5.29974 7.22443 5.28417 7.1595 5.25535L3.22754 3.51001C3.16259 3.4812 3.10387 3.43971 3.05475 3.3879C3.00563 3.33609 2.96706 3.27498 2.94126 3.20807C2.91545 3.14115 2.90291 3.06974 2.90435 2.99791C2.90579 2.92608 2.92119 2.85525 2.94965 2.78945ZM3.96213 6.89998C3.81899 6.89998 3.6817 6.9576 3.58048 7.06016C3.47926 7.16272 3.42239 7.30182 3.42239 7.44686C3.42239 7.59191 3.47926 7.73101 3.58048 7.83357C3.6817 7.93613 3.81899 7.99375 3.96213 7.99375H6.27455C6.4177 7.99375 6.55498 7.93613 6.6562 7.83357C6.75743 7.73101 6.81429 7.59191 6.81429 7.44686C6.81429 7.30182 6.75743 7.16272 6.6562 7.06016C6.55498 6.9576 6.4177 6.89998 6.27455 6.89998H3.96213ZM21.4954 3.09524C21.5663 3.09534 21.6365 3.08125 21.702 3.05376C21.7676 3.02628 21.8271 2.98594 21.8771 2.93508L23.5118 1.2788C23.5619 1.22802 23.6017 1.16773 23.6288 1.10137C23.6559 1.03502 23.6699 0.9639 23.6699 0.892079C23.6699 0.820258 23.6559 0.749139 23.6288 0.682785C23.6017 0.616431 23.5619 0.55614 23.5118 0.505355C23.4617 0.454569 23.4022 0.414284 23.3367 0.386799C23.2712 0.359314 23.201 0.345168 23.1301 0.345168C23.0592 0.345168 22.989 0.359314 22.9236 0.386799C22.8581 0.414284 22.7986 0.454569 22.7484 0.505355L21.1138 2.16163C21.0382 2.2381 20.9867 2.33557 20.9659 2.4417C20.945 2.54783 20.9557 2.65785 20.9965 2.75783C21.0374 2.85781 21.1066 2.94327 21.1954 3.00337C21.2842 3.06347 21.3887 3.09553 21.4955 3.09547L21.4954 3.09524ZM8.4063 2.93508C8.50753 3.03764 8.64482 3.09526 8.78798 3.09526C8.93114 3.09526 9.06843 3.03764 9.16965 2.93508C9.27088 2.83251 9.32775 2.6934 9.32775 2.54835C9.32775 2.4033 9.27088 2.26419 9.16965 2.16163L7.535 0.505355C7.48488 0.454569 7.42538 0.414284 7.35989 0.386799C7.2944 0.359314 7.22421 0.345168 7.15333 0.345168C7.01017 0.345168 6.87288 0.402789 6.77165 0.505355C6.67043 0.60792 6.61356 0.747029 6.61356 0.892079C6.61356 1.03713 6.67043 1.17624 6.77165 1.2788L8.4063 2.93508ZM24.009 6.89998C23.8658 6.89998 23.7285 6.9576 23.6273 7.06016C23.5261 7.16272 23.4692 7.30182 23.4692 7.44686C23.4692 7.59191 23.5261 7.73101 23.6273 7.83357C23.7285 7.93613 23.8658 7.99375 24.009 7.99375H26.3213C26.4645 7.99375 26.6017 7.93613 26.703 7.83357C26.8042 7.73101 26.8611 7.59191 26.8611 7.44686C26.8611 7.30182 26.8042 7.16272 26.703 7.06016C26.6017 6.9576 26.4645 6.89998 26.3213 6.89998H24.009ZM14.0992 7.92343H16.1865C16.3423 7.92336 16.4966 7.95523 16.6399 8.01713C16.7833 8.07902 16.9129 8.16966 17.0208 8.28359C17.12 8.3872 17.1972 8.51034 17.2476 8.64539C17.298 8.78044 17.3205 8.92454 17.3138 9.06876L16.8765 17.8785C16.8632 18.1725 16.7387 18.4501 16.5288 18.6536C16.319 18.8571 16.0399 18.971 15.7494 18.9716H14.5342C14.2436 18.971 13.9644 18.857 13.7545 18.6534C13.5446 18.4497 13.4202 18.172 13.4069 17.8779L12.9721 9.06861C12.9647 8.92511 12.9865 8.78162 13.0362 8.64704C13.0859 8.51247 13.1624 8.38968 13.2609 8.28633C13.3691 8.17141 13.4992 8.07996 13.6433 8.01751C13.7874 7.95506 13.9425 7.92292 14.0992 7.92304V7.92343ZM16.1865 9.0172H14.0992C14.0821 9.0172 14.0653 9.02267 14.0514 9.03282L14.4854 17.8237C14.4849 17.8374 14.4898 17.8507 14.4989 17.8607C14.5081 17.8708 14.5207 17.8768 14.5342 17.8776H15.7494C15.7628 17.8768 15.7754 17.8708 15.7845 17.8608C15.7936 17.8508 15.7985 17.8376 15.7981 17.824L16.2343 9.03337C16.2205 9.02281 16.2037 9.01718 16.1865 9.0172ZM22.4129 4.9737C22.4413 5.03948 22.4823 5.09893 22.5334 5.14866C22.5846 5.19839 22.6449 5.23743 22.7109 5.26355C22.777 5.28967 22.8474 5.30235 22.9183 5.30088C22.9891 5.2994 23.059 5.2838 23.1239 5.25496L27.056 3.50985C27.1209 3.48103 27.1796 3.43954 27.2287 3.38773C27.2778 3.33593 27.3164 3.27483 27.3422 3.20793C27.368 3.14102 27.3805 3.06963 27.3791 2.99781C27.3777 2.926 27.3623 2.85517 27.3339 2.78937C27.3054 2.72358 27.2645 2.6641 27.2133 2.61434C27.1622 2.56459 27.1019 2.52552 27.0359 2.49937C26.9699 2.47323 26.8994 2.46052 26.8285 2.46196C26.7576 2.46341 26.6877 2.47899 26.6228 2.50781L22.6908 4.25307C22.6258 4.28188 22.5671 4.32337 22.518 4.37518C22.4689 4.42699 22.4303 4.48809 22.4045 4.55501C22.3787 4.62192 22.3661 4.69333 22.3676 4.76516C22.369 4.83699 22.3844 4.9079 22.4129 4.9737ZM17.0148 21.246C17.0148 21.6213 16.905 21.9883 16.6991 22.3004C16.4933 22.6125 16.2008 22.8558 15.8585 22.9994C15.5162 23.1431 15.1396 23.1807 14.7762 23.1074C14.4129 23.0342 14.0791 22.8534 13.8171 22.588C13.5552 22.3225 13.3768 21.9844 13.3045 21.6162C13.2323 21.248 13.2694 20.8664 13.4111 20.5196C13.5529 20.1728 13.793 19.8764 14.1011 19.6679C14.4091 19.4593 14.7713 19.348 15.1418 19.3481C15.6384 19.3487 16.1145 19.5488 16.4656 19.9046C16.8167 20.2604 17.0143 20.7428 17.0148 21.246ZM15.9353 21.246C15.9354 21.087 15.8888 20.9315 15.8017 20.7993C15.7145 20.6671 15.5906 20.564 15.4456 20.5032C15.3006 20.4423 15.1411 20.4264 14.9871 20.4574C14.8332 20.4884 14.6918 20.565 14.5809 20.6774C14.4699 20.7899 14.3943 20.9331 14.3637 21.0891C14.3331 21.245 14.3488 21.4067 14.4089 21.5536C14.469 21.7005 14.5707 21.826 14.7012 21.9144C14.8317 22.0027 14.9851 22.0498 15.142 22.0498C15.3523 22.0495 15.5539 21.9647 15.7026 21.814C15.8513 21.6633 15.9349 21.4591 15.9351 21.246H15.9353ZM35.4949 19.2204C36.028 21.0223 35.8332 22.9649 34.9535 24.6214C34.0737 26.2779 32.5808 27.5127 30.803 28.0545C29.7001 28.3902 28.5326 28.4452 27.4038 28.2145C26.275 27.9838 25.2198 27.4745 24.3317 26.7319C23.4435 25.9893 22.7498 25.0362 22.3121 23.957C21.8743 22.8778 21.706 21.7059 21.8221 20.5451C21.9381 19.3843 22.3349 18.2704 22.9774 17.3021C23.6198 16.3338 24.488 15.541 25.5051 14.9939C26.5221 14.4468 27.6567 14.1623 28.8082 14.1656C29.9597 14.1689 31.0927 14.46 32.1067 15.0129C32.9179 15.4524 33.6351 16.0506 34.2167 16.7728C34.7982 17.495 35.2326 18.3269 35.4947 19.2204H35.4949ZM34.4608 19.5349C34.0672 18.2044 33.2304 17.0534 32.0931 16.278C30.9558 15.5025 29.5882 15.1507 28.2236 15.2825C26.8589 15.4142 25.5815 16.0214 24.6092 17.0005C23.6369 17.9796 23.0297 19.2701 22.8912 20.6519C22.7527 22.0338 23.0914 23.4216 23.8496 24.5788C24.6078 25.736 25.7386 26.5909 27.0493 26.998C28.36 27.405 29.7694 27.339 31.0373 26.8111C32.3053 26.2831 33.3534 25.3261 34.0029 24.1029C34.3735 23.4099 34.6047 22.6494 34.6832 21.8653C34.7618 21.0813 34.6861 20.2892 34.4606 19.5349H34.4608ZM36.9013 25.6817C35.8703 27.6217 34.1956 29.1298 32.1732 29.9396C30.1509 30.7493 27.9111 30.8086 25.8498 30.1069L24.9547 31.7922L25.244 31.95C25.3064 31.9841 25.3616 32.0302 25.4064 32.0859C25.4513 32.1415 25.4848 32.2056 25.5052 32.2744C25.5256 32.3432 25.5324 32.4154 25.5253 32.4869C25.5181 32.5583 25.4971 32.6277 25.4635 32.6909L22.2659 38.7123C22.1159 38.9957 21.9119 39.2462 21.6657 39.4492C21.4196 39.6522 21.1361 39.8037 20.8317 39.8949C20.6046 39.9644 20.3686 39.9998 20.1314 40C19.7139 39.9989 19.3037 39.8882 18.941 39.6787C18.5783 39.4691 18.2753 39.1679 18.0617 38.8045C17.8481 38.441 17.7311 38.0276 17.7221 37.6046C17.7131 37.1817 17.8124 36.7636 18.0104 36.3911L21.208 30.3699C21.2416 30.3066 21.2872 30.2506 21.3421 30.2052C21.397 30.1598 21.4603 30.1258 21.5282 30.1051C21.5961 30.0845 21.6673 30.0776 21.7379 30.0848C21.8084 30.0921 21.8769 30.1134 21.9393 30.1474L22.2267 30.3042L23.1212 28.6195C22.7253 28.3065 22.3555 27.9609 22.0156 27.5863H3.73043C3.07541 27.586 2.432 27.4111 1.86485 27.0791C1.29771 26.747 0.826798 26.2696 0.499452 25.6947C0.172106 25.1199 -0.00014826 24.4678 9.57484e-08 23.8041C0.000148451 23.1405 0.172694 22.4885 0.500297 21.9138L11.9094 1.89006C12.2371 1.31537 12.7084 0.838179 13.2757 0.506416C13.8431 0.174653 14.4866 0 15.1417 0C15.7968 0 16.4403 0.174653 17.0077 0.506416C17.5751 0.838179 18.0463 1.31537 18.3741 1.89006L24.6577 12.916C25.1338 12.6756 25.6293 12.477 26.1388 12.3222C27.297 11.9664 28.5133 11.8468 29.7174 11.9704C30.9215 12.094 32.0894 12.4582 33.1537 13.0421C35.3047 14.2149 36.9078 16.2054 37.6105 18.5757C38.3133 20.946 38.0581 23.5021 36.9011 25.6817H36.9013ZM21.1629 26.492C20.9634 26.1922 20.7812 25.8809 20.6172 25.5597H3.73043C3.42651 25.5595 3.128 25.4782 2.86488 25.3241C2.60175 25.17 2.38327 24.9485 2.23138 24.6818C2.07949 24.415 1.99953 24.1125 1.99954 23.8046C1.99954 23.4966 2.07951 23.1941 2.23141 22.9274L13.6426 2.90156C13.7944 2.63475 14.0129 2.41313 14.276 2.25896C14.5391 2.10479 14.8377 2.02351 15.1417 2.02328C15.4456 2.02305 15.7443 2.10388 16.0077 2.25765C16.271 2.41142 16.4898 2.63271 16.642 2.8993L22.9748 14.0152C23.2144 13.818 23.4637 13.6333 23.7218 13.4618L17.4391 2.43695C17.2061 2.02855 16.8711 1.68945 16.4679 1.4537C16.0646 1.21795 15.6072 1.09384 15.1417 1.09384C14.6761 1.09384 14.2188 1.21795 13.8155 1.4537C13.4122 1.68945 13.0773 2.02855 12.8443 2.43695L1.43529 22.4607C1.20257 22.8691 1.08001 23.3324 1.07992 23.804C1.07984 24.2756 1.20223 24.7389 1.4348 25.1474C1.66737 25.5559 2.00193 25.8952 2.40489 26.1312C2.80784 26.3672 3.26499 26.4916 3.73043 26.492H21.1629ZM15.708 3.44852C15.6508 3.34786 15.5685 3.26425 15.4692 3.20612C15.37 3.14798 15.2574 3.11737 15.1428 3.11737C15.0281 3.11737 14.9155 3.14798 14.8163 3.20612C14.7171 3.26425 14.6347 3.34786 14.5775 3.44852L3.16632 23.4749C3.10678 23.5744 3.0753 23.6884 3.0753 23.8048C3.0753 23.9211 3.10678 24.0352 3.16632 24.1346C3.22073 24.2375 3.30234 24.323 3.402 24.3815C3.50167 24.44 3.61545 24.4692 3.73058 24.4659H20.143C19.5495 22.8211 19.4239 21.0404 19.7806 19.3269C20.1373 17.6133 20.962 16.0357 22.1606 14.7739L15.708 3.44852ZM24.2569 32.6541L23.9794 32.5025C23.9755 32.5005 23.9717 32.4991 23.9677 32.497C23.9638 32.4949 23.9586 32.4914 23.954 32.4886L22.1937 31.5284C22.1927 31.5278 22.1917 31.5275 22.1907 31.5271L22.1873 31.5249L21.9034 31.37L18.9615 36.9096C18.7956 37.2258 18.7599 37.5956 18.8623 37.9383C18.9647 38.2809 19.1969 38.5686 19.508 38.7383C19.8192 38.9081 20.184 38.9461 20.5227 38.844C20.8614 38.742 21.1465 38.5082 21.3156 38.1938L24.2569 32.6541ZM24.843 29.6942C24.7025 29.6267 24.5628 29.5563 24.4243 29.4809C24.2858 29.4054 24.1493 29.3262 24.0156 29.2444L23.1773 30.8226L24.0038 31.2735L24.843 29.6942ZM36.5766 18.8903C36.2721 17.8529 35.7676 16.887 35.0923 16.0485C34.4169 15.21 33.5842 14.5155 32.6422 14.0052C31.7025 13.49 30.6714 13.1685 29.6084 13.0594C28.5455 12.9503 27.4717 13.0558 26.4492 13.3697C25.853 13.5507 25.2792 13.8 24.7388 14.1127C24.7332 14.1162 24.7281 14.1201 24.7224 14.1234C24.7168 14.1266 24.7112 14.1291 24.7056 14.1321C24.1769 14.4417 23.6847 14.8114 23.2387 15.234C23.2196 15.2551 23.199 15.2747 23.177 15.2925C22.3074 16.1348 21.6327 17.1619 21.2015 18.2999C20.7703 19.4379 20.5932 20.6586 20.6831 21.8741C20.773 23.0897 21.1275 24.27 21.7212 25.3302C22.315 26.3904 23.1331 27.3042 24.1169 28.0058C24.121 28.0086 24.1246 28.0114 24.1289 28.0143C25.0694 28.6812 26.1387 29.1388 27.2664 29.3567C28.394 29.5747 29.5545 29.5481 30.6713 29.2788C31.7881 29.0096 32.8359 28.5036 33.7458 27.7943C34.6557 27.0851 35.407 26.1886 35.9502 25.1638C36.4589 24.2121 36.7762 23.1675 36.8837 22.0907C36.9913 21.0138 36.8869 19.926 36.5766 18.8903Z" fill="#226FEF"/>
</svg>
