<svg width="69" height="64" viewBox="0 0 69 64" fill="none" xmlns="http://www.w3.org/2000/svg">
<path d="M23.8535 55.4061C25.0812 56.484 26.3485 57.5961 27.6521 58.7491C27.661 58.757 27.6701 58.765 27.6792 58.7729L32.016 62.5189C32.597 63.021 33.3182 63.2719 34.0393 63.2719C34.7605 63.2719 35.4818 63.0208 36.0629 62.5189L40.3989 58.7729C40.4079 58.765 40.4168 58.7572 40.4257 58.7494C49.0108 51.157 55.4475 45.3444 60.1043 39.6755C65.5434 33.0545 68.0768 27.0681 68.0768 20.8358C68.0768 9.56031 59.2445 0.728027 47.9694 0.728027C42.9017 0.728027 37.8945 2.63624 34.0393 5.94404C30.1831 2.63603 25.1759 0.728027 20.108 0.728027C8.83249 0.727821 0 9.56031 0 20.8356C0 34.4653 9.48947 42.7959 23.8535 55.4061ZM21.658 25.81H29.9113V17.5563H38.165V25.81H46.4185V34.0635H38.165V42.3168H29.9113V34.0635H21.658V25.81Z" fill="#58AE56"/>
</svg>
