<svg width="38" height="40" viewBox="0 0 38 40" fill="none" xmlns="http://www.w3.org/2000/svg">
<path d="M18.3265 20.8618C18.5428 20.8618 18.7179 20.6867 18.7179 20.4704C18.7179 20.3428 18.7179 17.7031 18.7179 17.8021C18.7179 17.096 18.1433 16.5215 17.4369 16.5215C16.7308 16.5215 16.1562 17.096 16.1562 17.8021C16.1562 17.874 16.1562 20.5106 16.1562 20.4704C16.1562 20.6867 16.3313 20.8618 16.5477 20.8618C16.764 20.8618 16.9391 20.6867 16.9391 20.4704V19.0831H17.9349V20.4704C17.935 20.6867 18.11 20.8618 18.3265 20.8618ZM16.9392 18.3003V17.8022C16.9392 17.5277 17.1624 17.3045 17.4369 17.3045C17.7113 17.3045 17.935 17.5277 17.935 17.8022V18.3003H16.9392Z" fill="#226FEF"/>
<path d="M20.8459 17.3043C21.0622 17.3043 21.2373 17.1292 21.2373 16.9129C21.2373 16.6966 21.0622 16.5215 20.8459 16.5215H19.5672C19.3509 16.5215 19.1758 16.6966 19.1758 16.9129C19.1758 17.1292 19.3509 17.3043 19.5672 17.3043H19.8149V20.1737H19.5672C19.3509 20.1737 19.1758 20.3487 19.1758 20.5651C19.1758 20.7814 19.3509 20.9565 19.5672 20.9565H20.8459C21.0622 20.9565 21.2373 20.7814 21.2373 20.5651C21.2373 20.3487 21.0622 20.1737 20.8459 20.1737H20.5978V17.3043H20.8459Z" fill="#226FEF"/>
<path d="M8.04583 17.3434C7.98735 19.871 8.82741 22.3416 10.4112 24.3004C11.6706 25.8558 12.1561 27.4767 12.3416 28.5627C12.3783 28.7776 12.5821 28.9191 12.7933 28.8827C13.0066 28.8464 13.1499 28.6442 13.1132 28.4312C12.9122 27.2531 12.3854 25.4946 11.02 23.808C9.55265 21.9934 8.77435 19.704 8.82839 17.3622C8.95759 12.0948 13.1848 7.86773 18.452 7.73888C23.9594 7.58519 28.5692 12.0276 28.5692 17.6072C28.5692 19.8935 27.7695 22.121 26.3173 23.8802C24.9988 25.4838 24.4862 27.2412 24.2881 28.4327C24.2526 28.646 24.3967 28.8475 24.61 28.883C24.8233 28.9193 25.0247 28.7745 25.0603 28.5612C25.2427 27.4637 25.7136 25.8475 26.9216 24.378C28.489 22.4797 29.3521 20.0748 29.3521 17.6072C29.3521 11.6347 24.4547 6.8171 18.4329 6.95606C12.7477 7.09519 8.18497 11.6576 8.04583 17.3434Z" fill="#226FEF"/>
<path d="M26.2468 31.376C26.2468 30.4314 25.4784 29.6631 24.5338 29.6631H12.8612C11.9168 29.6631 11.1484 30.4314 11.1484 31.376C11.1484 31.9108 11.3998 32.3832 11.7849 32.6976C11.3998 33.012 11.1484 33.4843 11.1484 34.0191C11.1484 34.9637 11.9168 35.7321 12.8612 35.7321H24.5338C25.4784 35.7321 26.2468 34.9637 26.2468 34.0191C26.2468 33.4843 25.9954 33.012 25.6103 32.6976C25.9954 32.3832 26.2468 31.9108 26.2468 31.376ZM25.4639 34.019C25.4639 34.532 25.0468 34.9491 24.5338 34.9491H12.8612C12.3486 34.9491 11.9314 34.532 11.9314 34.019C11.9314 33.506 12.3486 33.089 12.8612 33.089H24.5338C25.0468 33.089 25.4639 33.506 25.4639 34.019ZM12.8612 32.3061C12.3486 32.3061 11.9314 31.889 11.9314 31.376C11.9314 30.8631 12.3486 30.446 12.8612 30.446H24.5338C25.0468 30.446 25.4639 30.8631 25.4639 31.376C25.4639 31.889 25.0468 32.3061 24.5338 32.3061H12.8612Z" fill="#226FEF"/>
<path d="M22.2324 36.7604C20.9517 39.9357 16.4463 39.9374 15.165 36.7604C15.0843 36.5596 14.8542 36.4641 14.6554 36.5436C14.4547 36.6246 14.3579 36.8528 14.4386 37.0532C15.9834 40.8817 21.4136 40.8822 22.9586 37.0532C23.0393 36.8529 22.9426 36.6247 22.7418 36.5436C22.5436 36.4645 22.3135 36.5597 22.2324 36.7604Z" fill="#226FEF"/>
<path d="M37.3871 18.6998C37.3871 17.774 36.6336 17.0205 35.7077 17.0205H33.3434C32.4175 17.0205 31.6641 17.774 31.6641 18.6998C31.6641 19.6257 32.4175 20.3791 33.3434 20.3791H35.7077C36.6336 20.3791 37.3871 19.6257 37.3871 18.6998ZM32.447 18.6998C32.447 18.2056 32.8491 17.8034 33.3434 17.8034H35.7077C36.202 17.8034 36.6041 18.2056 36.6041 18.6998C36.6041 19.1941 36.202 19.5962 35.7077 19.5962H33.3434C32.8491 19.5962 32.447 19.1941 32.447 18.6998Z" fill="#226FEF"/>
<path d="M20.3704 4.04368V1.67932C20.3704 0.753453 19.6169 0 18.691 0C17.7652 0 17.0117 0.753453 17.0117 1.67932V4.04368C17.0117 4.96954 17.7652 5.72299 18.691 5.72299C19.6169 5.72299 20.3704 4.96954 20.3704 4.04368ZM17.7946 4.04368V1.67932C17.7946 1.18506 18.1968 0.782913 18.691 0.782913C19.1853 0.782913 19.5874 1.18506 19.5874 1.67932V4.04368C19.5874 4.53793 19.1853 4.94008 18.691 4.94008C18.1968 4.94008 17.7946 4.53793 17.7946 4.04368Z" fill="#226FEF"/>
<path d="M7.84026 5.47709C7.18761 4.82524 6.12385 4.82063 5.46729 5.47594C4.80479 6.13365 4.81109 7.20087 5.46632 7.85094L7.13756 9.52219C7.78861 10.1732 8.84448 10.1899 9.51035 9.52334C10.1696 8.87007 10.1706 7.8025 9.51088 7.14789L7.84026 5.47709ZM8.95788 8.96875C8.61483 9.31277 8.03184 9.30976 7.69145 8.96875L6.01905 7.29635C5.6689 6.94939 5.66695 6.38095 6.02003 6.03063C6.37674 5.67471 6.94554 5.69006 7.2869 6.03063L8.95815 7.70231C8.9585 7.70267 8.95894 7.70311 8.9593 7.70347C9.30838 8.04989 9.31193 8.6178 8.95788 8.96875Z" fill="#226FEF"/>
<path d="M1.67932 17.0205C0.753275 17.0205 0 17.774 0 18.6998C0 19.6257 0.753275 20.3791 1.67932 20.3791H4.04367C4.96954 20.3791 5.72282 19.6257 5.72282 18.6998C5.72282 17.774 4.96954 17.0205 4.04367 17.0205H1.67932ZM4.9399 18.6998C4.9399 19.1941 4.53793 19.5962 4.04367 19.5962H1.67932C1.18506 19.5962 0.782913 19.1941 0.782913 18.6998C0.782913 18.2056 1.18506 17.8034 1.67932 17.8034H4.04367C4.53793 17.8034 4.9399 18.2056 4.9399 18.6998Z" fill="#226FEF"/>
<path d="M30.2428 9.5221L31.9137 7.85192C32.5715 7.19803 32.5739 6.13196 31.9137 5.47576C31.25 4.81451 30.1964 4.82107 29.5406 5.47692L27.87 7.14745C27.2098 7.80205 27.2105 8.86927 27.8689 9.5221C28.5351 10.1883 29.59 10.1757 30.2428 9.5221ZM28.4224 7.70214L30.0941 6.03045C30.4419 5.6826 31.0016 5.67151 31.361 6.0308C31.3613 6.0308 31.3618 6.03116 31.3618 6.0316C31.7114 6.37802 31.7145 6.9462 31.361 7.29732L29.6889 8.96857C29.3499 9.30913 28.768 9.3141 28.4213 8.96741C28.0713 8.61984 28.0689 8.05326 28.4224 7.70214Z" fill="#226FEF"/>
<path d="M13.9331 22.7355L14.6594 23.4618C14.8238 23.6266 15.0516 23.721 15.2848 23.721H15.6943V24.9454C15.6943 25.1617 15.8693 25.3368 16.0857 25.3368C16.302 25.3368 16.4771 25.1617 16.4771 24.9454V23.721H18.3051V24.9454C18.3051 25.1617 18.4802 25.3368 18.6965 25.3368C18.9129 25.3368 19.088 25.1617 19.088 24.9454V23.721H20.9155V24.9454C20.9155 25.1617 21.0906 25.3368 21.307 25.3368C21.5233 25.3368 21.6984 25.1617 21.6984 24.9454V23.721H22.1078C22.344 23.721 22.5661 23.6293 22.7329 23.4622L23.4592 22.7362C23.6239 22.5719 23.7183 22.344 23.7183 22.1108V21.7014H24.9427C25.1591 21.7014 25.3341 21.5263 25.3341 21.31C25.3341 21.0936 25.1591 20.9186 24.9427 20.9186H23.7183V19.0905H24.9427C25.1591 19.0905 25.3341 18.9155 25.3341 18.6991C25.3341 18.4828 25.1591 18.3077 24.9427 18.3077H23.7183V16.4797H24.9427C25.1591 16.4797 25.3341 16.3046 25.3341 16.0883C25.3341 15.8719 25.1591 15.6968 24.9427 15.6968H23.7183V15.2874C23.7183 15.1383 23.669 14.8688 23.5368 14.74L22.8101 14.0133C22.5777 13.781 22.3613 13.6773 22.1079 13.6773H21.6985V12.4529C21.6985 12.2366 21.5234 12.0615 21.307 12.0615C21.0907 12.0615 20.9156 12.2366 20.9156 12.4529V13.6773H19.088V12.4529C19.088 12.2366 18.913 12.0615 18.6966 12.0615C18.4803 12.0615 18.3052 12.2366 18.3052 12.4529V13.6773H16.4772V12.4529C16.4772 12.2366 16.3021 12.0615 16.0858 12.0615C15.8694 12.0615 15.6944 12.2366 15.6944 12.4529V13.6773H15.2849C15.0517 13.6773 14.8239 13.7717 14.6603 13.9361L13.9332 14.6628C13.7689 14.8271 13.6744 15.055 13.6744 15.2874V15.6968H12.45C12.2338 15.6968 12.0586 15.8719 12.0586 16.0883C12.0586 16.3046 12.2338 16.4797 12.45 16.4797H13.6744V18.3077H12.45C12.2338 18.3077 12.0586 18.4828 12.0586 18.6991C12.0586 18.9155 12.2338 19.0905 12.45 19.0905H13.6744V20.9186H12.45C12.2338 20.9186 12.0586 21.0936 12.0586 21.31C12.0586 21.5263 12.2338 21.7014 12.45 21.7014H13.6744V22.1108C13.6744 22.3433 13.7688 22.5712 13.9331 22.7355ZM14.4573 15.2873C14.4573 15.261 14.468 15.235 14.4868 15.2162L15.2146 14.4891C15.2325 14.4708 15.2585 14.4601 15.2849 14.4601H22.1081C22.1459 14.4601 22.2247 14.5347 22.2568 14.5668L22.9292 15.2392C22.933 15.2549 22.9357 15.2721 22.9357 15.2874V22.1109C22.9357 22.1373 22.925 22.1633 22.9062 22.182L22.1796 22.9086C22.1605 22.9277 22.1352 22.9381 22.1081 22.9381H15.2849C15.2586 22.9381 15.2326 22.9274 15.2138 22.9086L14.4868 22.182C14.468 22.1633 14.4573 22.1373 14.4573 22.1109V15.2873Z" fill="#226FEF"/>
</svg>
