<svg width="38" height="40" viewBox="0 0 38 40" fill="none" xmlns="http://www.w3.org/2000/svg">
<path d="M22.331 28.3465V24.6919C22.331 24.4263 22.1527 24.1978 21.9053 24.1465L20.9146 23.9408L20.281 22.3318L20.8438 21.4478C20.9842 21.2274 20.957 20.933 20.7786 20.7452L18.3251 18.161C18.1468 17.9732 17.8673 17.9444 17.658 18.0924L16.8187 18.6852L15.291 18.0178L15.0956 16.9743C15.0469 16.7139 14.83 16.526 14.5779 16.526H11.1081C10.856 16.526 10.6391 16.7138 10.5904 16.9743L10.3949 18.0178L8.86733 18.6852L8.02794 18.0924C7.81871 17.9445 7.53906 17.9731 7.36083 18.161L4.90734 20.7451C4.72903 20.9328 4.70174 21.2271 4.8422 21.4477L5.40504 22.3318L4.7714 23.9408L3.78069 24.1465C3.53339 24.1978 3.355 24.4263 3.355 24.6919V28.3465C3.355 28.612 3.53331 28.8405 3.78069 28.8918L4.7714 29.0975L5.40504 30.7065L4.8422 31.5906C4.70181 31.8111 4.72903 32.1054 4.90734 32.2932L7.3609 34.8774C7.53906 35.0652 7.81856 35.094 8.02801 34.946L8.86733 34.3532L10.3949 35.0205L10.5904 36.0641C10.6391 36.3245 10.856 36.5124 11.1081 36.5124H14.5779C14.83 36.5124 15.0469 36.3246 15.0956 36.0641L15.291 35.0205L16.8187 34.3532L17.658 34.9459C17.8672 35.0937 18.1468 35.0651 18.3251 34.8774L20.7786 32.2933C20.957 32.1055 20.9842 31.8112 20.8438 31.5906L20.281 30.7065L20.9146 29.0975L21.9053 28.8918C22.1526 28.8405 22.331 28.612 22.331 28.3465ZM21.2754 27.8894L20.4333 28.0644C20.2601 28.1003 20.1155 28.225 20.0479 28.3968L19.1977 30.5558C19.13 30.7276 19.1484 30.9238 19.2468 31.0783L19.7256 31.8302L17.8856 33.7681L17.1717 33.2639C17.0252 33.1603 16.8389 33.1408 16.6756 33.2122L14.6258 34.1076C14.4628 34.1787 14.3444 34.3311 14.3102 34.5135L14.1441 35.4006H11.542L11.3759 34.5135C11.3418 34.3311 11.2234 34.1787 11.0603 34.1076L9.01051 33.2122C8.84735 33.141 8.66104 33.1603 8.5144 33.2639L7.80054 33.7682L5.96056 31.8302L6.43933 31.0783C6.5378 30.9238 6.55619 30.7276 6.48849 30.5558L5.63824 28.3968C5.57061 28.2251 5.426 28.1004 5.25289 28.0644L4.41071 27.8894V25.1489L5.25289 24.9739C5.426 24.938 5.57061 24.8133 5.63824 24.6415L6.48849 22.4826C6.55612 22.3107 6.53772 22.1146 6.43933 21.96L5.96056 21.2081L7.80046 19.2702L8.5144 19.7745C8.66104 19.8782 8.84735 19.8976 9.01051 19.8262L11.0603 18.9307C11.2233 18.8595 11.3418 18.7072 11.3759 18.5249L11.542 17.6378H14.1441L14.3102 18.5249C14.3443 18.7072 14.4627 18.8595 14.6258 18.9307L16.6756 19.8262C16.8388 19.8975 17.0251 19.8781 17.1717 19.7745L17.8856 19.2702L19.7256 21.2082L19.2468 21.96C19.1483 22.1146 19.1299 22.3107 19.1977 22.4826L20.0479 24.6415C20.1155 24.8132 20.2601 24.938 20.4333 24.9739L21.2754 25.1489V27.8894ZM12.8431 19.9551C9.40664 19.9551 6.61086 22.8997 6.61086 26.5191C6.61086 30.1385 9.40664 33.0833 12.8431 33.0833C16.2795 33.0833 19.0753 30.1386 19.0753 26.5191C19.0753 22.8996 16.2795 19.9551 12.8431 19.9551ZM16.7023 30.1481C16.7356 29.9721 16.6876 29.7824 16.558 29.646L16.3669 29.4447C16.1609 29.2276 15.8266 29.2276 15.6206 29.4447C15.4145 29.6617 15.4145 30.0137 15.6206 30.2307L15.8117 30.432C15.9147 30.5406 16.0498 30.5949 16.1849 30.5949C16.2196 30.5949 16.2542 30.5912 16.2884 30.584C15.4394 31.3832 14.3398 31.8927 13.1305 31.9628C13.275 31.8636 13.3708 31.6922 13.3708 31.4969V31.2123C13.3708 30.9052 13.1346 30.6564 12.8431 30.6564C12.5516 30.6564 12.3153 30.9052 12.3153 31.2123V31.4969C12.3153 31.6922 12.411 31.8637 12.5557 31.9628C11.3464 31.8927 10.2468 31.3833 9.39774 30.584C9.4319 30.5912 9.46658 30.5949 9.50126 30.5949C9.6363 30.5949 9.77141 30.5406 9.8744 30.432L10.0655 30.2307C10.2717 30.0137 10.2717 29.6617 10.0655 29.4447C9.85955 29.2276 9.52524 29.2276 9.31925 29.4447L9.12812 29.646C8.99859 29.7825 8.95057 29.9721 8.98382 30.1481C8.22502 29.2538 7.74135 28.0958 7.67478 26.8222C7.76895 26.9743 7.93165 27.0752 8.11698 27.0752H8.38735C8.67883 27.0752 8.91513 26.8263 8.91513 26.5193C8.91513 26.2123 8.67883 25.9634 8.38735 25.9634H8.11698C7.93165 25.9634 7.76887 26.0643 7.67478 26.2164C7.74135 24.9427 8.22502 23.7845 8.98382 22.8903C8.95049 23.0663 8.99844 23.256 9.12805 23.3925L9.31918 23.5938C9.42217 23.7023 9.55728 23.7566 9.69232 23.7566C9.82735 23.7566 9.96246 23.7023 10.0655 23.5938C10.2716 23.3767 10.2716 23.0248 10.0655 22.8077L9.87432 22.6064C9.74479 22.4699 9.5646 22.4193 9.39744 22.4545C10.2466 21.6553 11.3461 21.1457 12.5555 21.0757C12.411 21.1749 12.3151 21.3463 12.3151 21.5415V21.8262C12.3151 22.1332 12.5514 22.3821 12.8429 22.3821C13.1344 22.3821 13.3707 22.1332 13.3707 21.8262V21.5415C13.3707 21.3463 13.2749 21.1748 13.1303 21.0757C14.3397 21.1457 15.4394 21.6553 16.2884 22.4545C16.1212 22.4194 15.941 22.4699 15.8115 22.6064L15.6204 22.8077C15.4142 23.0248 15.4142 23.3767 15.6204 23.5938C15.7234 23.7023 15.8585 23.7566 15.9935 23.7566C16.1286 23.7566 16.2637 23.7023 16.3667 23.5938L16.5578 23.3925C16.6874 23.256 16.7354 23.0662 16.702 22.8903C17.4608 23.7845 17.9446 24.9426 18.0111 26.2164C17.9169 26.0642 17.7542 25.9634 17.5689 25.9634H17.2985C17.007 25.9634 16.7707 26.2123 16.7707 26.5193C16.7707 26.8263 17.007 27.0752 17.2985 27.0752H17.5689C17.7542 27.0752 17.9169 26.9744 18.0111 26.8222C17.9445 28.0958 17.4608 29.2539 16.702 30.1481H16.7023ZM13.3708 23.5692V26.5192C13.3708 26.6666 13.3153 26.808 13.2162 26.9122L11.4969 28.723C11.3939 28.8316 11.2588 28.8859 11.1238 28.8859C10.9888 28.8859 10.8537 28.8316 10.7507 28.723C10.5445 28.506 10.5445 28.154 10.7507 27.937L12.3153 26.289V23.5692C12.3153 23.2622 12.5516 23.0133 12.8431 23.0133C13.1346 23.0133 13.3708 23.2622 13.3708 23.5692ZM12.3231 39.4907C12.2999 39.7807 12.0693 40 11.7978 40C11.783 40 11.768 39.9994 11.7529 39.9981C8.55639 39.715 5.59277 38.1873 3.40785 35.6965C1.21027 33.1913 0 29.9321 0 26.5193C0 19.4627 5.15706 13.6518 11.7099 13.0455L11.3908 12.8317C11.1448 12.6669 11.0723 12.3233 11.2288 12.0643C11.3853 11.8053 11.7116 11.7288 11.9575 11.8937L13.7267 13.0793C13.8747 13.1786 13.9663 13.3488 13.9709 13.5335C13.9756 13.7182 13.8928 13.8934 13.7499 14.0008L12.1349 15.215C12.042 15.2849 11.9348 15.3185 11.8287 15.3185C11.6639 15.3185 11.5017 15.2375 11.3987 15.0855C11.2294 14.8356 11.2844 14.4885 11.5217 14.3101L11.7203 14.1607C5.74538 14.7581 1.05555 20.0723 1.05555 26.5194C1.05555 32.9206 5.79325 38.3547 11.8414 38.8903C12.1319 38.916 12.3475 39.1849 12.3231 39.4908V39.4907ZM21.5946 35.7224C21.7813 35.9583 21.751 36.3088 21.527 36.5053L20.6047 37.3149C20.506 37.4016 20.3863 37.4438 20.2671 37.4438C20.1158 37.4438 19.9658 37.3758 19.8614 37.2438C19.6747 37.0079 19.705 36.6574 19.9289 36.4609L20.8512 35.6513C21.0752 35.4547 21.4078 35.4867 21.5945 35.7224H21.5946ZM15.8121 39.1636C15.856 39.4672 15.6579 39.7506 15.3698 39.7969L14.1828 39.9871C14.1559 39.9915 14.1291 39.9936 14.1027 39.9936C13.8464 39.9936 13.6214 39.7965 13.5817 39.5213C13.5378 39.2178 13.7358 38.9342 14.0239 38.8881L15.211 38.6978C15.4995 38.6519 15.7683 38.8601 15.8122 39.1636H15.8121ZM18.9268 37.8595C19.0465 38.1395 18.928 38.4686 18.6622 38.5946L17.5673 39.1136C17.4969 39.147 17.4234 39.1628 17.351 39.1628C17.1497 39.1628 16.9574 39.0408 16.8694 38.8349C16.7497 38.555 16.8682 38.2258 17.134 38.0998L18.229 37.5808C18.4946 37.4547 18.8072 37.5795 18.9268 37.8595ZM24.494 20.7926C24.6295 21.0644 24.5301 21.4004 24.272 21.5431C24.1937 21.5864 24.1099 21.6069 24.0272 21.6069C23.8373 21.6069 23.6538 21.4987 23.5594 21.3093L23.0014 20.1894C22.8659 19.9176 22.9654 19.5816 23.2235 19.4389C23.4815 19.2962 23.8005 19.4009 23.936 19.6727L24.494 20.7926ZM25.1798 30.3336L24.7882 31.5291C24.7128 31.7592 24.5081 31.9038 24.2893 31.9038C24.2322 31.9038 24.1741 31.894 24.1171 31.8733C23.8416 31.7731 23.6953 31.4567 23.7904 31.1665L24.182 29.971C24.2771 29.6808 24.5775 29.5268 24.853 29.6268C25.1285 29.7269 25.2748 30.0434 25.1798 30.3336ZM25.6991 26.7045L25.6266 27.9668C25.6097 28.2618 25.3772 28.4891 25.1004 28.4891C25.0896 28.4891 25.0789 28.4888 25.068 28.488C24.7771 28.4695 24.5554 28.2061 24.5731 27.8996L24.6455 26.6373C24.6631 26.3309 24.9142 26.0975 25.2041 26.116C25.4951 26.1345 25.7167 26.398 25.6991 26.7045ZM24.6473 22.6349C24.9323 22.5704 25.2129 22.7616 25.2741 23.0616L25.5261 24.2981C25.5874 24.5982 25.4059 24.8938 25.121 24.9582C25.0836 24.9666 25.0463 24.9707 25.0096 24.9707C24.7661 24.9707 24.5473 24.7922 24.4941 24.5315L24.2421 23.295C24.1808 22.9948 24.3623 22.6993 24.6472 22.6349H24.6473ZM23.7542 33.6826L23.0721 34.7234C22.9697 34.8796 22.8049 34.9634 22.6372 34.9634C22.5338 34.9634 22.4294 34.9316 22.3378 34.865C22.0979 34.6906 22.0378 34.3444 22.2033 34.0918L22.8855 33.051C23.0511 32.7982 23.3798 32.735 23.6196 32.9094C23.8595 33.0837 23.9197 33.43 23.7541 33.6826H23.7542ZM36.1188 12.9171C35.7916 12.9171 35.4839 13.0056 35.2156 13.161L33.4253 11.2754C33.3264 11.1711 33.1921 11.1125 33.0522 11.1125H27.03V9.77094H33.0522C33.1921 9.77094 33.3264 9.71241 33.4253 9.60806L35.2156 7.72244C35.4839 7.87777 35.7917 7.96639 36.1189 7.96639C37.1562 7.96639 38 7.07762 38 5.98508C38 4.89254 37.1562 4.00376 36.1189 4.00376C35.0815 4.00376 34.2378 4.89254 34.2378 5.98508C34.2378 6.32964 34.3218 6.6538 34.4693 6.93635L32.8336 8.6591H27.03V7.31752H31.4684C31.7599 7.31752 31.9962 7.06865 31.9962 6.76164V3.88274C32.7773 3.64181 33.3495 2.88089 33.3495 1.98131C33.3495 0.888772 32.5057 0 31.4684 0C30.4311 0 29.5872 0.888772 29.5872 1.98131C29.5872 2.88089 30.1595 3.64181 30.9406 3.88274V6.20584H27.03V6.02828C27.03 5.35368 26.5089 4.80487 25.8684 4.80487H24.8774V3.95485C24.8774 3.64784 24.6411 3.39897 24.3496 3.39897C24.0581 3.39897 23.8218 3.64784 23.8218 3.95485V4.80487H22.2058V3.95485C22.2058 3.64784 21.9695 3.39897 21.6781 3.39897C21.3866 3.39897 21.1503 3.64784 21.1503 3.95485V4.80487H19.5343V3.95485C19.5343 3.64784 19.298 3.39897 19.0065 3.39897C18.715 3.39897 18.4787 3.64784 18.4787 3.95485V4.80487H17.4877C16.8472 4.80487 16.3261 5.35368 16.3261 6.02828V7.07214H15.519C15.2276 7.07214 14.9913 7.32102 14.9913 7.62802C14.9913 7.93503 15.2276 8.1839 15.519 8.1839H16.3261V9.88585H15.519C15.2276 9.88585 14.9913 10.1347 14.9913 10.4417C14.9913 10.7487 15.2276 10.9976 15.519 10.9976H16.3261V12.6996H15.519C15.2276 12.6996 14.9913 12.9485 14.9913 13.2555C14.9913 13.5625 15.2276 13.8114 15.519 13.8114H16.3261V14.8553C16.3261 15.5299 16.8472 16.0787 17.4877 16.0787H18.4787V16.9288C18.4787 17.2358 18.715 17.4846 19.0065 17.4846C19.298 17.4846 19.5343 17.2358 19.5343 16.9288V16.0787H21.1503V16.9288C21.1503 17.2358 21.3866 17.4846 21.6781 17.4846C21.9695 17.4846 22.2058 17.2358 22.2058 16.9288V16.0787H23.8218V16.9288C23.8218 17.2358 24.0581 17.4846 24.3496 17.4846C24.6411 17.4846 24.8774 17.2358 24.8774 16.9288V16.0787H25.8684C26.5089 16.0787 27.03 15.5299 27.03 14.8553V14.6777H30.9406V17.0009C30.1595 17.2418 29.5872 18.0027 29.5872 18.9023C29.5872 19.9948 30.4311 20.8835 31.4684 20.8835C32.5057 20.8835 33.3495 19.9948 33.3495 18.9023C33.3495 18.0027 32.7773 17.2418 31.9962 17.0009V14.1218C31.9962 13.8148 31.7599 13.5659 31.4684 13.5659H27.03V12.2244H32.8336L34.4693 13.9472C34.3218 14.2297 34.2378 14.5539 34.2378 14.8985C34.2378 15.991 35.0816 16.8798 36.1189 16.8798C37.1561 16.8798 38 15.991 38 14.8985C38 13.8059 37.1562 12.9172 36.1189 12.9172L36.1188 12.9171ZM36.1188 5.11552C36.574 5.11552 36.9444 5.50559 36.9444 5.98508C36.9444 6.46456 36.574 6.85463 36.1188 6.85463C35.6635 6.85463 35.2933 6.46456 35.2933 5.98508C35.2933 5.50559 35.6636 5.11552 36.1188 5.11552ZM30.6427 1.98139C30.6427 1.50191 31.0131 1.11184 31.4683 1.11184C31.9236 1.11184 32.2939 1.50191 32.2939 1.98139C32.2939 2.46088 31.9236 2.85095 31.4683 2.85095C31.0131 2.85095 30.6427 2.46088 30.6427 1.98139ZM32.2939 18.9021C32.2939 19.3815 31.9236 19.7715 31.4683 19.7715C31.0131 19.7715 30.6427 19.3815 30.6427 18.9021C30.6427 18.4227 31.0131 18.0325 31.4683 18.0325C31.9236 18.0325 32.2939 18.4226 32.2939 18.9021ZM25.9744 14.8551C25.9744 14.9157 25.9258 14.9667 25.8684 14.9667H17.4878C17.4303 14.9667 17.3817 14.9156 17.3817 14.8551V6.02828C17.3817 5.96769 17.4304 5.91663 17.4878 5.91663H25.8684C25.9259 5.91663 25.9744 5.96777 25.9744 6.02828V14.8551ZM36.1188 15.7678C35.6636 15.7678 35.2933 15.3778 35.2933 14.8983C35.2933 14.4188 35.6636 14.0288 36.1188 14.0288C36.5739 14.0288 36.9444 14.4189 36.9444 14.8983C36.9444 15.3777 36.574 15.7678 36.1188 15.7678ZM24.6454 6.76037H18.7106C18.4191 6.76037 18.1828 7.00925 18.1828 7.31625V13.5671C18.1828 13.8741 18.4191 14.123 18.7106 14.123H24.6454C24.9369 14.123 25.1732 13.8741 25.1732 13.5671V7.31625C25.1732 7.00925 24.9369 6.76037 24.6454 6.76037ZM24.1177 13.0112H19.2384V7.87213H24.1177V13.0112Z" fill="#EB3D2E"/>
</svg>
