<svg width="33" height="40" viewBox="0 0 33 40" fill="none" xmlns="http://www.w3.org/2000/svg">
<path d="M9.73935e-05 32.0043C-0.00278357 32.2247 0.0583068 32.4411 0.175964 32.6274C0.293622 32.8137 0.462794 32.9619 0.662978 33.054L15.5191 39.9015C15.6719 39.9706 15.8376 40.0065 16.0053 40.0069C16.1756 40.0065 16.344 39.9702 16.4994 39.9002L31.3549 33.054C31.5519 32.9611 31.7183 32.814 31.8347 32.6298C31.9511 32.4457 32.0125 32.2322 32.0119 32.0144C32.0113 31.7966 31.9486 31.5835 31.8311 31.4C31.7137 31.2166 31.5464 31.0704 31.3489 30.9787L28.5373 29.6836L31.3549 28.3858C31.5519 28.293 31.7184 28.1459 31.8348 27.9618C31.9512 27.7777 32.0128 27.5643 32.0122 27.3465C32.0117 27.1286 31.949 26.9155 31.8317 26.732C31.7143 26.5485 31.547 26.4023 31.3495 26.3105L28.5426 25.0167L31.3435 23.727C31.5419 23.6356 31.7099 23.4894 31.8277 23.3054C31.9455 23.1215 32.0081 22.9077 32.0081 22.6893C32.0081 22.4709 31.9455 22.2571 31.8277 22.0732C31.7099 21.8893 31.5419 21.743 31.3435 21.6517L21.419 17.0802C21.5864 16.8681 21.7755 16.6741 21.9832 16.5013C23.4611 15.2696 24.5224 13.6114 25.022 11.7535C25.5215 9.89553 25.4349 7.92866 24.7739 6.12185C24.113 4.31504 22.91 2.75653 21.3295 1.65949C19.7491 0.562457 17.8683 -0.0195349 15.9444 -0.00687793C14.0205 0.00577905 12.1476 0.612467 10.5817 1.7302C9.01575 2.84794 7.83338 4.42214 7.19627 6.23749C6.55917 8.05284 6.49843 10.0207 7.02238 11.8719C7.54632 13.7231 8.62936 15.3672 10.1234 16.5794C10.3018 16.7256 10.4629 16.8919 10.6035 17.0748L0.666979 21.6517C0.468597 21.743 0.300555 21.8893 0.182763 22.0732C0.0649713 22.2571 0.0023666 22.4709 0.0023666 22.6893C0.0023666 22.9077 0.0649713 23.1215 0.182763 23.3054C0.300555 23.4894 0.468597 23.6356 0.666979 23.727L3.46788 25.0167L0.666979 26.3092C0.468593 26.401 0.300629 26.5477 0.182916 26.7319C0.0652023 26.9161 0.00265375 27.1302 0.00265375 27.3488C0.00265375 27.5674 0.0652023 27.7815 0.182916 27.9657C0.300629 28.1499 0.468593 28.2966 0.666979 28.3885L3.47855 29.6836L0.666979 30.9773C0.468764 31.0662 0.300402 31.2103 0.182108 31.3925C0.0638133 31.5747 0.000613832 31.7871 9.73935e-05 32.0043ZM19.3397 24.0017C19.3397 24.1786 19.2694 24.3482 19.1443 24.4733C19.0193 24.5984 18.8496 24.6686 18.6728 24.6686H13.3377C13.1609 24.6686 12.9912 24.5984 12.8662 24.4733C12.7411 24.3482 12.6708 24.1786 12.6708 24.0017C12.6708 23.8249 12.7411 23.6552 12.8662 23.5302C12.9912 23.4051 13.1609 23.3349 13.3377 23.3349H18.6728C18.8496 23.3349 19.0193 23.4051 19.1443 23.5302C19.2694 23.6552 19.3397 23.8249 19.3397 24.0017ZM20.0065 22.0011H12.004C11.8271 22.0011 11.6575 21.9308 11.5324 21.8058C11.4073 21.6807 11.3371 21.5111 11.3371 21.3342C11.3371 21.1573 11.4073 20.9877 11.5324 20.8627C11.6575 20.7376 11.8271 20.6673 12.004 20.6673H20.0065C20.1834 20.6673 20.353 20.7376 20.4781 20.8627C20.6032 20.9877 20.6734 21.1573 20.6734 21.3342C20.6734 21.5111 20.6032 21.6807 20.4781 21.8058C20.353 21.9308 20.1834 22.0011 20.0065 22.0011ZM8.00268 9.33035C8.00264 7.98371 8.34243 6.65884 8.99057 5.47844C9.63872 4.29804 10.5743 3.30029 11.7105 2.57759C12.8468 1.8549 14.1471 1.43063 15.491 1.34409C16.8348 1.25755 18.1788 1.51154 19.3984 2.08252C20.618 2.6535 21.6738 3.52302 22.468 4.61054C23.2622 5.69805 23.7691 6.9684 23.9418 8.30392C24.1144 9.63945 23.9473 10.9969 23.4559 12.2507C22.9644 13.5045 22.1645 14.6139 21.1302 15.4763C20.5801 15.9198 20.1345 16.479 19.825 17.1142C19.5155 17.7494 19.3498 18.445 19.3397 19.1515V19.3336H12.6708V19.2669C12.6821 18.5585 12.5345 17.8567 12.239 17.2129C11.9434 16.569 11.5074 15.9996 10.963 15.5464C10.036 14.7977 9.28878 13.8505 8.77645 12.7747C8.26412 11.699 7.9997 10.5219 8.00268 9.33035ZM11.197 18.2699C11.2889 18.5943 11.336 18.9297 11.3371 19.2669V19.4589C10.9351 19.5993 10.5887 19.865 10.3489 20.2169C10.1091 20.5687 9.98854 20.9883 10.005 21.4138C10.0214 21.8393 10.1739 22.2483 10.4401 22.5807C10.7063 22.913 11.0721 23.1512 11.4838 23.2602C11.3611 23.5633 11.3148 23.892 11.349 24.2172C11.3833 24.5425 11.497 24.8543 11.6802 25.1252C11.8633 25.3961 12.1103 25.6179 12.3994 25.7708C12.6884 25.9238 13.0107 26.0033 13.3377 26.0024H18.6728C19.0001 26.0035 19.3228 25.924 19.6121 25.7709C19.9015 25.6178 20.1487 25.3958 20.3319 25.1245C20.5152 24.8532 20.6288 24.5409 20.6627 24.2153C20.6967 23.8897 20.65 23.5608 20.5267 23.2575C20.9384 23.1485 21.3042 22.9104 21.5704 22.578C21.8366 22.2457 21.9891 21.8366 22.0055 21.4111C22.022 20.9856 21.9014 20.5661 21.6616 20.2142C21.4218 19.8623 21.0755 19.5966 20.6734 19.4563V19.1515C20.6757 18.8517 20.7206 18.5537 20.8068 18.2666L30.4099 22.6887L16.0053 29.3201L1.60061 22.6887L11.197 18.2699ZM5.06173 25.7503L15.5158 30.5625C15.6692 30.6339 15.8364 30.6709 16.0056 30.6709C16.1748 30.6709 16.342 30.6339 16.4954 30.5625L26.9514 25.7496L30.4192 27.3502L16.0053 33.9896L1.59328 27.3495L5.06173 25.7503ZM5.0684 30.4185L15.5204 35.234C15.6729 35.3027 15.8381 35.3384 16.0053 35.3387C16.1759 35.3383 16.3445 35.3019 16.5001 35.232L26.9421 30.4178L30.4146 32.0183L16.0053 38.6578L1.59394 32.0183L5.0684 30.4185Z" fill="#04E37B"/>
</svg>
