<svg xmlns="http://www.w3.org/2000/svg" width="500" height="400" viewBox="0 0 500 400" fill="none">
  <rect x="50" y="50" width="400" height="300" rx="20" fill="#CAF0F8" opacity="0.1"/>
  
  <!-- Paper/Document -->
  <rect x="140" y="100" width="220" height="250" rx="5" fill="white"/>
  <rect x="140" y="100" width="220" height="250" rx="5" stroke="#90E0EF" stroke-width="2"/>
  
  <!-- Document Lines -->
  <line x1="170" y1="150" x2="330" y2="150" stroke="#0077B6" stroke-width="2" stroke-linecap="round"/>
  <line x1="170" y1="180" x2="330" y2="180" stroke="#0077B6" stroke-width="2" stroke-linecap="round"/>
  <line x1="170" y1="210" x2="330" y2="210" stroke="#0077B6" stroke-width="2" stroke-linecap="round"/>
  <line x1="170" y1="240" x2="280" y2="240" stroke="#0077B6" stroke-width="2" stroke-linecap="round"/>
  
  <!-- Check marks/completion elements -->
  <circle cx="200" cy="290" r="20" fill="#00B4D8" opacity="0.2"/>
  <path d="M190 290L198 298L212 284" stroke="#023E8A" stroke-width="3" stroke-linecap="round" stroke-linejoin="round"/>
  
  <circle cx="280" cy="290" r="20" fill="#00B4D8" opacity="0.2"/>
  <path d="M270 290L278 298L292 284" stroke="#023E8A" stroke-width="3" stroke-linecap="round" stroke-linejoin="round"/>
  
  <!-- Decorative Elements -->
  <circle cx="110" cy="120" r="15" fill="#0077B6" opacity="0.3"/>
  <circle cx="390" cy="120" r="15" fill="#0077B6" opacity="0.3"/>
  <circle cx="110" cy="320" r="15" fill="#0077B6" opacity="0.3"/>
  <circle cx="390" cy="320" r="15" fill="#0077B6" opacity="0.3"/>
  
  <!-- Pencil -->
  <path d="M380 180L350 210L340 200L370 170L380 180Z" fill="#023E8A"/>
  <path d="M340 200L335 215L350 210L340 200Z" fill="#023E8A"/>
  <path d="M370 170L380 180L390 160L380 150L370 170Z" fill="#00B4D8"/>
</svg> 