<svg width="154" height="48" viewBox="0 0 154 48" fill="none" xmlns="http://www.w3.org/2000/svg">
<rect x="0.5" width="153" height="48" rx="24" fill="#2B4DFF"/>
<path d="M23.98 30V28.4H27.196C27.7613 28.4 28.1987 28.224 28.508 27.872C28.8173 27.52 28.972 27.1147 28.972 26.656C28.972 26.3467 28.9027 26.0587 28.764 25.792C28.6253 25.5253 28.4227 25.312 28.156 25.152C27.8893 24.992 27.5693 24.912 27.196 24.912H23.98V23.312H26.924C27.404 23.312 27.788 23.1893 28.076 22.944C28.364 22.6987 28.508 22.336 28.508 21.856C28.508 21.376 28.364 21.0133 28.076 20.768C27.788 20.5227 27.404 20.4 26.924 20.4H23.98V18.8H26.972C27.7293 18.8 28.3587 18.9387 28.86 19.216C29.3613 19.4933 29.7347 19.8507 29.98 20.288C30.2253 20.7253 30.348 21.1947 30.348 21.696C30.348 22.2827 30.1827 22.8 29.852 23.248C29.532 23.696 29.0573 24.0587 28.428 24.336L28.572 23.76C29.276 24.048 29.8253 24.4533 30.22 24.976C30.6147 25.4987 30.812 26.112 30.812 26.816C30.812 27.392 30.668 27.92 30.38 28.4C30.1027 28.88 29.6867 29.2693 29.132 29.568C28.588 29.856 27.916 30 27.116 30H23.98ZM22.716 30V18.8H24.556V30H22.716ZM35.9491 30.16C35.2025 30.16 34.5251 29.984 33.9171 29.632C33.3091 29.2693 32.8238 28.784 32.4611 28.176C32.1091 27.568 31.9331 26.8907 31.9331 26.144C31.9331 25.3973 32.1091 24.7253 32.4611 24.128C32.8238 23.5307 33.3091 23.056 33.9171 22.704C34.5251 22.3413 35.2025 22.16 35.9491 22.16C36.7065 22.16 37.3891 22.336 37.9971 22.688C38.6051 23.04 39.0851 23.52 39.4371 24.128C39.7998 24.7253 39.9811 25.3973 39.9811 26.144C39.9811 26.8907 39.7998 27.568 39.4371 28.176C39.0851 28.784 38.6051 29.2693 37.9971 29.632C37.3891 29.984 36.7065 30.16 35.9491 30.16ZM35.9491 28.464C36.3865 28.464 36.7705 28.368 37.1011 28.176C37.4425 27.9733 37.7038 27.696 37.8851 27.344C38.0771 26.992 38.1731 26.592 38.1731 26.144C38.1731 25.696 38.0771 25.3013 37.8851 24.96C37.6931 24.6187 37.4318 24.352 37.1011 24.16C36.7705 23.9573 36.3865 23.856 35.9491 23.856C35.5225 23.856 35.1385 23.9573 34.7971 24.16C34.4665 24.352 34.2051 24.6187 34.0131 24.96C33.8318 25.3013 33.7411 25.696 33.7411 26.144C33.7411 26.592 33.8318 26.992 34.0131 27.344C34.2051 27.696 34.4665 27.9733 34.7971 28.176C35.1385 28.368 35.5225 28.464 35.9491 28.464ZM44.9648 30.16C44.2181 30.16 43.5408 29.984 42.9328 29.632C42.3248 29.2693 41.8394 28.784 41.4768 28.176C41.1248 27.568 40.9488 26.8907 40.9488 26.144C40.9488 25.3973 41.1248 24.7253 41.4768 24.128C41.8394 23.5307 42.3248 23.056 42.9328 22.704C43.5408 22.3413 44.2181 22.16 44.9648 22.16C45.7221 22.16 46.4048 22.336 47.0128 22.688C47.6208 23.04 48.1008 23.52 48.4528 24.128C48.8154 24.7253 48.9968 25.3973 48.9968 26.144C48.9968 26.8907 48.8154 27.568 48.4528 28.176C48.1008 28.784 47.6208 29.2693 47.0128 29.632C46.4048 29.984 45.7221 30.16 44.9648 30.16ZM44.9648 28.464C45.4021 28.464 45.7861 28.368 46.1168 28.176C46.4581 27.9733 46.7194 27.696 46.9008 27.344C47.0928 26.992 47.1888 26.592 47.1888 26.144C47.1888 25.696 47.0928 25.3013 46.9008 24.96C46.7088 24.6187 46.4474 24.352 46.1168 24.16C45.7861 23.9573 45.4021 23.856 44.9648 23.856C44.5381 23.856 44.1541 23.9573 43.8128 24.16C43.4821 24.352 43.2208 24.6187 43.0288 24.96C42.8474 25.3013 42.7568 25.696 42.7568 26.144C42.7568 26.592 42.8474 26.992 43.0288 27.344C43.2208 27.696 43.4821 27.9733 43.8128 28.176C44.1541 28.368 44.5381 28.464 44.9648 28.464ZM55.3404 30L52.0924 26.08L55.3244 22.32H57.4204L53.7084 26.544L53.7884 25.536L57.5804 30H55.3404ZM50.4604 30V18.48H52.2204V30H50.4604ZM65.0514 30.16C64.358 30.16 63.7287 29.984 63.1634 29.632C62.6087 29.28 62.166 28.8053 61.8354 28.208C61.5154 27.6 61.3554 26.9227 61.3554 26.176C61.3554 25.4187 61.5154 24.7413 61.8354 24.144C62.166 23.536 62.6087 23.056 63.1634 22.704C63.7287 22.3413 64.358 22.16 65.0514 22.16C65.638 22.16 66.1554 22.288 66.6034 22.544C67.062 22.7893 67.4247 23.1307 67.6914 23.568C67.958 24.0053 68.0914 24.5013 68.0914 25.056V27.264C68.0914 27.8187 67.958 28.3147 67.6914 28.752C67.4354 29.1893 67.078 29.536 66.6194 29.792C66.1607 30.0373 65.638 30.16 65.0514 30.16ZM65.3394 28.496C65.99 28.496 66.5127 28.2773 66.9074 27.84C67.3127 27.4027 67.5154 26.8427 67.5154 26.16C67.5154 25.7013 67.4247 25.296 67.2434 24.944C67.062 24.592 66.806 24.32 66.4754 24.128C66.1554 23.9253 65.7767 23.824 65.3394 23.824C64.9127 23.824 64.534 23.9253 64.2034 24.128C63.8834 24.32 63.6274 24.592 63.4354 24.944C63.254 25.296 63.1634 25.7013 63.1634 26.16C63.1634 26.6187 63.254 27.024 63.4354 27.376C63.6274 27.728 63.8834 28.0053 64.2034 28.208C64.534 28.4 64.9127 28.496 65.3394 28.496ZM67.4034 30V27.936L67.7074 26.064L67.4034 24.208V22.32H69.1634V30H67.4034ZM79.6478 30.16C78.8371 30.16 78.0851 30.016 77.3918 29.728C76.7091 29.4293 76.1118 29.0187 75.5998 28.496C75.0878 27.9627 74.6931 27.3493 74.4158 26.656C74.1384 25.952 73.9998 25.2 73.9998 24.4C73.9998 23.6 74.1384 22.8533 74.4158 22.16C74.6931 21.456 75.0878 20.8427 75.5998 20.32C76.1118 19.7973 76.7091 19.3867 77.3918 19.088C78.0851 18.7893 78.8371 18.64 79.6478 18.64C80.5544 18.64 81.3384 18.7893 81.9998 19.088C82.6611 19.3867 83.2478 19.792 83.7598 20.304L82.5118 21.552C82.1811 21.1893 81.7758 20.9067 81.2958 20.704C80.8264 20.5013 80.2771 20.4 79.6478 20.4C79.0931 20.4 78.5864 20.496 78.1278 20.688C77.6691 20.88 77.2691 21.1573 76.9278 21.52C76.5971 21.872 76.3411 22.2933 76.1598 22.784C75.9784 23.2747 75.8878 23.8133 75.8878 24.4C75.8878 24.9867 75.9784 25.5253 76.1598 26.016C76.3411 26.5067 76.5971 26.9333 76.9278 27.296C77.2691 27.648 77.6691 27.92 78.1278 28.112C78.5864 28.304 79.0931 28.4 79.6478 28.4C80.3304 28.4 80.9064 28.2987 81.3758 28.096C81.8558 27.8827 82.2611 27.5947 82.5918 27.232L83.8398 28.48C83.3278 29.0027 82.7251 29.4133 82.0318 29.712C81.3384 30.0107 80.5438 30.16 79.6478 30.16ZM88.2389 30.16C87.5455 30.16 86.9162 29.984 86.3509 29.632C85.7962 29.28 85.3535 28.8053 85.0229 28.208C84.7029 27.6 84.5429 26.9227 84.5429 26.176C84.5429 25.4187 84.7029 24.7413 85.0229 24.144C85.3535 23.536 85.7962 23.056 86.3509 22.704C86.9162 22.3413 87.5455 22.16 88.2389 22.16C88.8255 22.16 89.3429 22.288 89.7909 22.544C90.2495 22.7893 90.6122 23.1307 90.8789 23.568C91.1455 24.0053 91.2789 24.5013 91.2789 25.056V27.264C91.2789 27.8187 91.1455 28.3147 90.8789 28.752C90.6229 29.1893 90.2655 29.536 89.8069 29.792C89.3482 30.0373 88.8255 30.16 88.2389 30.16ZM88.5269 28.496C89.1775 28.496 89.7002 28.2773 90.0949 27.84C90.5002 27.4027 90.7029 26.8427 90.7029 26.16C90.7029 25.7013 90.6122 25.296 90.4309 24.944C90.2495 24.592 89.9935 24.32 89.6629 24.128C89.3429 23.9253 88.9642 23.824 88.5269 23.824C88.1002 23.824 87.7215 23.9253 87.3909 24.128C87.0709 24.32 86.8149 24.592 86.6229 24.944C86.4415 25.296 86.3509 25.7013 86.3509 26.16C86.3509 26.6187 86.4415 27.024 86.6229 27.376C86.8149 27.728 87.0709 28.0053 87.3909 28.208C87.7215 28.4 88.1002 28.496 88.5269 28.496ZM90.5909 30V27.936L90.8949 26.064L90.5909 24.208V22.32H92.3509V30H90.5909ZM94.3041 30V18.48H96.0641V30H94.3041ZM98.0229 30V18.48H99.7829V30H98.0229Z" fill="white"/>
<circle cx="122.5" cy="24" r="13" fill="white"/>
<path d="M127.603 26.2729L125.914 26.3613L125.62 22.1594L118.933 29.853L117.666 28.7521L124.354 21.0585L120.152 21.3525L120.004 19.6678L127.106 19.1711L127.603 26.2729Z" fill="#2B4DFF"/>
</svg>
