<svg width="38" height="38" viewBox="0 0 38 38" fill="none" xmlns="http://www.w3.org/2000/svg">
<path d="M1.9 13.9333C0.850662 13.9333 0 13.0827 0 12.0333V1.9C0 0.850662 0.850662 0 1.9 0H12.0333C13.0827 0 13.9333 0.850662 13.9333 1.9V12.0333C13.9333 13.0827 13.0827 13.9333 12.0333 13.9333H1.9Z" fill="#4A3CFF"/>
<path d="M25.9664 38.0002C24.917 38.0002 24.0664 37.1496 24.0664 36.1002V25.9669C24.0664 24.9175 24.917 24.0669 25.9664 24.0669H36.0997C37.1491 24.0669 37.9997 24.9175 37.9997 25.9669V36.1002C37.9997 37.1496 37.1491 38.0002 36.0997 38.0002H25.9664Z" fill="#4A3CFF"/>
<path d="M25.1483 8.36349C24.4063 7.62148 24.4063 6.41846 25.1483 5.67645L29.7441 1.08067C30.4861 0.338667 31.6891 0.338674 32.4311 1.08067L37.0269 5.67645C37.7689 6.41846 37.7689 7.62148 37.0269 8.36349L32.4311 12.9593C31.6891 13.7012 30.4861 13.7012 29.7441 12.9593L25.1483 8.36349Z" fill="#4A3CFF"/>
<path d="M5.88861 16.9147C6.13593 17.162 6.53696 17.162 6.78427 16.9147L6.96984 16.7292V21.5336C6.96984 21.8834 7.25338 22.1669 7.60317 22.1669C7.95296 22.1669 8.23651 21.8834 8.23651 21.5336V16.7293L8.42195 16.9147C8.66926 17.162 9.07029 17.162 9.31761 16.9147C9.56492 16.6674 9.56492 16.2664 9.31761 16.0191L8.05607 14.7575C8.03656 14.7376 8.01579 14.7189 7.99375 14.7017C7.95657 14.6725 7.91693 14.648 7.87557 14.6283C7.79355 14.5892 7.70185 14.5671 7.60507 14.5669L7.59336 14.567C7.52059 14.5681 7.45073 14.5815 7.38588 14.6051C7.30171 14.6358 7.22279 14.6849 7.15528 14.7524L5.88861 16.0191C5.6413 16.2664 5.6413 16.6674 5.88861 16.9147Z" fill="#4A3CFF"/>
<path d="M31.8497 19.8191C32.097 19.5717 32.498 19.5717 32.7453 19.8191C32.9927 20.0664 32.9927 20.4674 32.7453 20.7147L31.4787 21.9814C31.4115 22.0485 31.3331 22.0974 31.2495 22.1281C31.1813 22.1532 31.1077 22.1669 31.0308 22.1669C30.8533 22.1669 30.6928 22.0939 30.5778 21.9762L29.3163 20.7147C29.069 20.4674 29.069 20.0664 29.3163 19.8191C29.5637 19.5717 29.9647 19.5717 30.212 19.8191L30.3974 20.0045V15.2002C30.3974 14.8504 30.681 14.5669 31.0308 14.5669C31.3806 14.5669 31.6641 14.8504 31.6641 15.2002V20.0046L31.8497 19.8191Z" fill="#4A3CFF"/>
<path d="M7.59753 37.3664C3.74994 37.3664 0.630859 34.2473 0.630859 30.3998C0.630859 26.5522 3.74994 23.4331 7.59753 23.4331C11.4451 23.4331 14.5642 26.5522 14.5642 30.3998C14.5642 34.2473 11.4451 37.3664 7.59753 37.3664Z" fill="#4A3CFF"/>
<path d="M20.4553 5.2524C20.208 5.49971 20.208 5.90074 20.4553 6.14806L20.6408 6.33356H15.8365C15.4867 6.33356 15.2031 6.6171 15.2031 6.96689C15.2031 7.31668 15.4867 7.60023 15.8365 7.60023H20.6408L20.4553 7.78573C20.208 8.03305 20.208 8.43407 20.4553 8.68139C20.7026 8.92871 21.1036 8.92871 21.351 8.68139L22.6176 7.50035C22.7464 7.37159 22.8081 7.17798 22.8028 6.98703C22.803 6.98038 22.8031 6.97361 22.8031 6.96689C22.8031 6.79266 22.7328 6.6349 22.619 6.52039L22.6176 6.51906L21.351 5.2524C21.1036 5.00506 20.7026 5.00506 20.4553 5.2524Z" fill="#4A3CFF"/>
</svg>
