<svg width="48" height="38" viewBox="0 0 48 38" fill="none" xmlns="http://www.w3.org/2000/svg">
<path d="M0.00135846 24.7294C-0.0184726 24.9837 0.181328 25.2017 0.436431 25.2017H3.08225C3.30728 25.2017 3.49637 25.0306 3.51611 24.8064C3.91208 20.2984 5.78039 16.2062 8.63624 13.0151L4.62013 12.3953C2.02301 15.8982 0.359434 20.1335 0.00135846 24.7294Z" fill="#456DFF"/>
<path d="M23.8345 2.69849C19.9942 2.69849 16.3623 3.60904 13.1436 5.22541L13.0566 9.29478C16.1856 7.33904 19.8801 6.20793 23.8345 6.20793C28.3237 6.20793 32.4781 7.66537 35.851 10.1334L38.3573 7.62701C34.3291 4.53728 29.2921 2.69849 23.8345 2.69849Z" fill="#456DFF"/>
<path d="M40.4831 9.46558L38.002 11.9467C41.4355 15.2655 43.7096 19.7773 44.1513 24.8058C44.1711 25.0302 44.3598 25.2019 44.5851 25.2019H47.2319C47.4868 25.2019 47.6869 24.9841 47.667 24.7299C47.2019 18.7631 44.5357 13.4043 40.4831 9.46558Z" fill="#456DFF"/>
<path d="M23.8346 15.3262C17.6161 15.3262 12.5566 20.3856 12.5566 26.6042C12.5566 32.8227 17.6161 37.8822 23.8346 37.8822C30.0532 37.8822 35.1126 32.8227 35.1126 26.6042C35.1126 20.3856 30.0533 15.3262 23.8346 15.3262ZM19.1108 24.0847C18.3119 24.0032 17.777 23.2904 17.8526 22.5516C17.9184 21.9073 18.4205 21.3646 19.1108 21.2942C19.6938 21.2341 20.2884 21.5504 20.5431 22.1534C20.9543 23.1278 20.1526 24.1933 19.1108 24.0847ZM26.8131 32.4338C26.0624 32.6217 25.3006 32.1655 25.1126 31.4148C24.7924 30.1237 22.8957 30.0689 22.5567 31.4148C22.368 32.1708 21.5982 32.6224 20.8562 32.4338C20.1045 32.246 19.6483 31.484 19.8362 30.7325C20.2971 28.8974 21.9405 27.6156 23.8345 27.6156C25.7926 27.6156 27.389 28.9657 27.8329 30.7325C28.0209 31.484 27.5646 32.246 26.8131 32.4338ZM29.8167 22.8273C29.7091 23.8829 28.5142 24.4437 27.6432 23.8557C26.9598 23.3889 26.849 22.513 27.2553 21.9112C27.569 21.4349 28.1907 21.1584 28.8286 21.3484C29.4823 21.5473 29.883 22.1785 29.8167 22.8273Z" fill="#456DFF"/>
<path d="M5.95984 0.204652L0.904324 4.44663C0.534144 4.75732 0.485917 5.30942 0.796603 5.6796C4.07831 9.59079 3.59185 9.01112 3.96585 9.45616C4.42447 9.52701 7.57398 10.0136 9.24034 10.2711C9.76321 10.3519 10.2375 9.95426 10.2487 9.42534C10.2814 7.89277 10.3421 5.04073 10.3621 4.08921C9.9524 3.60144 10.3017 4.01761 7.1929 0.312745C6.88222 -0.0574347 6.33002 -0.106035 5.95984 0.204652Z" fill="#456DFF"/>
</svg>
