<svg width="38" height="16" viewBox="0 0 38 16" fill="none" xmlns="http://www.w3.org/2000/svg">
<path d="M37.7071 8.70711C38.0976 8.31659 38.0976 7.68342 37.7071 7.2929L31.3431 0.928935C30.9526 0.538411 30.3195 0.53841 29.9289 0.928935C29.5384 1.31946 29.5384 1.95262 29.9289 2.34315L35.5858 8L29.9289 13.6569C29.5384 14.0474 29.5384 14.6805 29.9289 15.0711C30.3195 15.4616 30.9526 15.4616 31.3431 15.0711L37.7071 8.70711ZM-8.74228e-08 9L1.85 9L1.85 7L8.74228e-08 7L-8.74228e-08 9ZM5.55 9L9.25 9L9.25 7L5.55 7L5.55 9ZM12.95 9L16.65 9L16.65 7L12.95 7L12.95 9ZM20.35 9L24.05 9L24.05 7L20.35 7L20.35 9ZM27.75 9L31.45 9L31.45 7L27.75 7L27.75 9ZM35.15 9L37 9L37 7L35.15 7L35.15 9ZM37.7071 8.70711C38.0976 8.31659 38.0976 7.68342 37.7071 7.2929L31.3431 0.928935C30.9526 0.538411 30.3195 0.53841 29.9289 0.928935C29.5384 1.31946 29.5384 1.95262 29.9289 2.34315L35.5858 8L29.9289 13.6569C29.5384 14.0474 29.5384 14.6805 29.9289 15.0711C30.3195 15.4616 30.9526 15.4616 31.3431 15.0711L37.7071 8.70711ZM-8.74228e-08 9L1.85 9L1.85 7L8.74228e-08 7L-8.74228e-08 9ZM5.55 9L9.25 9L9.25 7L5.55 7L5.55 9ZM12.95 9L16.65 9L16.65 7L12.95 7L12.95 9ZM20.35 9L24.05 9L24.05 7L20.35 7L20.35 9ZM27.75 9L31.45 9L31.45 7L27.75 7L27.75 9ZM35.15 9L37 9L37 7L35.15 7L35.15 9Z" fill="black"/>
</svg>
