<svg width="96" height="96" viewBox="0 0 96 96" fill="none" xmlns="http://www.w3.org/2000/svg">
<g filter="url(#filter0_d_646_504)">
<rect x="8" y="8" width="80" height="80" rx="40" fill="white" shape-rendering="crispEdges"/>
<rect x="8.5" y="8.5" width="79" height="79" rx="39.5" stroke="#FBFBFB" shape-rendering="crispEdges"/>
<path d="M70.1269 33.1182C68.5461 33.1182 67.2182 34.1049 66.6997 35.5084H51.1949C50.6765 34.1049 49.3359 33.1182 47.7677 33.1182C46.1995 33.1182 44.8716 34.1049 44.3532 35.5084H28.1907C27.672 34.1049 26.3443 33.1182 24.7635 33.1182C22.7526 33.1182 21.1211 34.7495 21.1211 36.7729C21.1211 38.7834 22.7526 40.4147 24.7635 40.4147C26.3443 40.4147 27.672 39.4286 28.1907 38.0375H37.2456C30.6314 41.5403 26.0282 48.3559 25.6487 56.2724H24.8395C24.1185 56.2724 23.5241 56.854 23.5241 57.5876V61.6844C23.5241 62.4056 24.1185 62.9996 24.8395 62.9996H28.9496C29.6703 62.9996 30.2649 62.4056 30.2649 61.6844V57.5876C30.2649 56.854 29.6703 56.2724 28.9496 56.2724H28.178C28.6711 47.1296 35.5762 39.6558 44.4418 38.2777C44.8336 39.1125 45.5039 39.7695 46.3511 40.1362C46.3388 40.1616 46.3258 40.1745 46.3135 40.1998L36.9927 58.8392C36.7778 59.2819 36.8285 59.8259 37.157 60.205C37.4732 60.5971 37.9919 60.7613 38.4723 60.6224L47.4516 58.0679L56.4182 60.6224C57.0108 60.7544 57.4485 60.5649 57.7332 60.205C58.0623 59.8259 58.1253 59.2819 57.8977 58.8392L48.6276 40.3011C49.69 40.0609 50.5752 39.3397 51.0433 38.3789C59.6301 40.0103 66.2193 47.3321 66.6997 56.2724H65.9411C65.2202 56.2724 64.6258 56.854 64.6258 57.5876V61.6844C64.6258 62.4056 65.2202 62.9996 65.9411 62.9996H70.0513C70.7719 62.9996 71.3666 62.4056 71.3666 61.6844V57.5876C71.3666 56.854 70.7719 56.2724 70.0513 56.2724H69.2291C68.8496 48.3559 64.2464 41.5403 57.6322 38.0375H66.6997C67.2182 39.4286 68.5461 40.4147 70.1269 40.4147C72.1379 40.4147 73.7694 38.7834 73.7694 36.7729C73.7694 34.7495 72.1379 33.1182 70.1269 33.1182Z" fill="#478CFF"/>
<path d="M28.4704 36.7948C28.4704 38.8576 26.7981 40.5299 24.7352 40.5299C22.6723 40.5299 21 38.8576 21 36.7948C21 34.7319 22.6723 33.0596 24.7352 33.0596C26.7981 33.0596 28.4704 34.7319 28.4704 36.7948Z" fill="#15EC88"/>
<path d="M73.8844 36.7352C73.8844 38.7981 72.2121 40.4704 70.1492 40.4704C68.0864 40.4704 66.4141 38.7981 66.4141 36.7352C66.4141 34.6723 68.0864 33 70.1492 33C72.2121 33 73.8844 34.6723 73.8844 36.7352Z" fill="#15EC88"/>
<path d="M51.5954 36.7352C51.5954 38.7981 49.9231 40.4704 47.8602 40.4704C45.7973 40.4704 44.125 38.7981 44.125 36.7352C44.125 34.6723 45.7973 33 47.8602 33C49.9231 33 51.5954 34.6723 51.5954 36.7352Z" fill="#FF584A"/>
<path d="M23.3672 57.5456C23.3672 56.8252 23.9512 56.2412 24.6715 56.2412H29.0589C29.7793 56.2412 30.3632 56.8252 30.3632 57.5456V61.6958C30.3632 62.4161 29.7793 63.0001 29.0589 63.0001H24.6715C23.9512 63.0001 23.3672 62.4161 23.3672 61.6958V57.5456Z" fill="#FF584A"/>
<path d="M64.5195 57.5456C64.5195 56.8252 65.1035 56.2412 65.8239 56.2412H70.2112C70.9316 56.2412 71.5156 56.8252 71.5156 57.5456V61.6958C71.5156 62.4161 70.9316 63.0001 70.2112 63.0001H65.8239C65.1035 63.0001 64.5195 62.4161 64.5195 61.6958V57.5456Z" fill="#FFC107"/>
</g>
<defs>
<filter id="filter0_d_646_504" x="0" y="0" width="96" height="96" filterUnits="userSpaceOnUse" color-interpolation-filters="sRGB">
<feFlood flood-opacity="0" result="BackgroundImageFix"/>
<feColorMatrix in="SourceAlpha" type="matrix" values="0 0 0 0 0 0 0 0 0 0 0 0 0 0 0 0 0 0 127 0" result="hardAlpha"/>
<feOffset/>
<feGaussianBlur stdDeviation="4"/>
<feComposite in2="hardAlpha" operator="out"/>
<feColorMatrix type="matrix" values="0 0 0 0 0 0 0 0 0 0 0 0 0 0 0 0 0 0 0.1 0"/>
<feBlend mode="normal" in2="BackgroundImageFix" result="effect1_dropShadow_646_504"/>
<feBlend mode="normal" in="SourceGraphic" in2="effect1_dropShadow_646_504" result="shape"/>
</filter>
</defs>
</svg>
