<svg width="40" height="41" viewBox="0 0 40 41" fill="none" xmlns="http://www.w3.org/2000/svg">
<path d="M39.4141 36.8337H37.0008V27.6923C37.0008 27.3687 36.7384 27.1063 36.4148 27.1063C36.0912 27.1063 35.8289 27.3687 35.8289 27.6923V36.8337H30.6875V16.6978H35.8289V24.9579C35.8289 25.2815 36.0912 25.5438 36.4148 25.5438C36.7384 25.5438 37.0008 25.2815 37.0008 24.9579V16.1118C37.0008 15.7882 36.7384 15.5259 36.4148 15.5259H30.1016C29.778 15.5259 29.5156 15.7882 29.5156 16.1118V36.8337H28.1622V19.2686C28.1622 18.945 27.8998 18.6827 27.5763 18.6827H21.2627C20.9391 18.6827 20.6768 18.945 20.6768 19.2686V36.8337H19.3233V24.0038C19.3233 23.6802 19.0609 23.4178 18.7373 23.4178H12.4238C12.1002 23.4178 11.8379 23.6802 11.8379 24.0038V36.8337H10.4844V27.7919C10.4844 27.4683 10.222 27.206 9.89844 27.206H3.58484C3.26125 27.206 2.99891 27.4683 2.99891 27.7919V36.8337H0.585938C0.262344 36.8337 0 37.096 0 37.4196V39.9454C0 40.269 0.262344 40.5313 0.585938 40.5313H6.91406C7.23766 40.5313 7.5 40.269 7.5 39.9454C7.5 39.6218 7.23766 39.3595 6.91406 39.3595H1.17188V38.0056H38.8281V39.3595H9.64844C9.32484 39.3595 9.0625 39.6218 9.0625 39.9454C9.0625 40.269 9.32484 40.5313 9.64844 40.5313H39.4141C39.7377 40.5313 40 40.269 40 39.9454V37.4196C40 37.096 39.7377 36.8337 39.4141 36.8337ZM21.8487 19.8546H26.9903V36.8337H21.8487V19.8546ZM13.0097 24.5897H18.1513V36.8337H13.0097V24.5897ZM4.17078 28.3778H9.31242V36.8337H4.17078V28.3778Z" fill="#A84BFF"/>
<path d="M3.50781 21.9063H12.425C12.9423 21.9063 13.4392 21.6877 13.7882 21.3069L21.0515 13.3828H25.9992C26.4932 13.3828 26.9575 13.1906 27.3065 12.8416L33.3055 6.84266V8.69367C33.3055 9.01727 33.5678 9.27961 33.8914 9.27961H36.4164C36.74 9.27961 37.0023 9.01727 37.0023 8.69367V2.37969C37.0023 1.36047 36.1731 0.53125 35.1539 0.53125H28.8406C28.517 0.53125 28.2547 0.793594 28.2547 1.11719V3.64297C28.2547 3.96656 28.517 4.22891 28.8406 4.22891H30.6909L25.2339 9.68594H20.2383C19.7215 9.68594 19.2248 9.90445 18.8759 10.2852L11.6118 18.2094H9.99609C9.6725 18.2094 9.41016 18.4717 9.41016 18.7953C9.41016 19.1189 9.6725 19.3813 9.99609 19.3813H11.8695C12.0337 19.3813 12.1905 19.3123 12.3014 19.1913L19.7398 11.0771C19.8674 10.9378 20.0491 10.8579 20.2382 10.8579H25.4765C25.6319 10.8579 25.7809 10.7962 25.8908 10.6863L32.5197 4.05734C32.6873 3.88977 32.7374 3.63773 32.6467 3.41883C32.556 3.19984 32.3423 3.05711 32.1054 3.05711H29.4265V1.70313H35.1538C35.5269 1.70313 35.8304 2.00664 35.8304 2.37969V8.10781H34.4773V5.42813C34.4773 5.19117 34.3345 4.9775 34.1155 4.8868C33.8967 4.79625 33.6445 4.84625 33.477 5.01383L26.4779 12.013C26.3502 12.1406 26.1802 12.2109 25.9992 12.2109H20.7938C20.6295 12.2109 20.4728 12.2798 20.3618 12.4009L12.9242 20.5151C12.7966 20.6545 12.6146 20.7344 12.425 20.7344H4.09375V19.3813H7.26172C7.58531 19.3813 7.84766 19.1189 7.84766 18.7953C7.84766 18.4717 7.58531 18.2094 7.26172 18.2094H3.50781C3.18422 18.2094 2.92188 18.4717 2.92188 18.7953V21.3203C2.92188 21.6439 3.18422 21.9063 3.50781 21.9063Z" fill="#A84BFF"/>
</svg>
