<svg width="40" height="41" viewBox="0 0 40 41" fill="none" xmlns="http://www.w3.org/2000/svg">
<path d="M25.2557 4.47657C25.0844 3.96124 24.6517 3.5839 24.1271 3.49324L22.1984 3.15924L21.2931 1.34058C21.0431 0.841915 20.5484 0.53125 20.0011 0.53125C19.4538 0.53125 18.9591 0.841915 18.7091 1.34125L17.8038 3.15991L15.8758 3.4939C15.3504 3.58457 14.9171 3.96124 14.7464 4.47723C14.5698 5.00656 14.6964 5.5839 15.0758 5.98589L16.4624 7.45389L16.1678 9.49788C16.0864 10.0592 16.3198 10.6092 16.7758 10.9325C17.0224 11.1079 17.3111 11.1965 17.6004 11.1965C17.8251 11.1965 18.0511 11.1432 18.2584 11.0345L20.0004 10.1272L21.7424 11.0345C22.2184 11.2839 22.7871 11.2432 23.2257 10.9325C23.6824 10.6092 23.9151 10.0585 23.8337 9.49788L23.5391 7.45389L24.9257 5.98589C25.3051 5.5839 25.4317 5.00656 25.2551 4.47723L25.2557 4.47657ZM23.9577 5.0699L22.3497 6.77256C22.2097 6.92056 22.1451 7.12389 22.1744 7.32522L22.5157 9.68788C22.5291 9.78254 22.4777 9.82921 22.4557 9.84521C22.4091 9.87654 22.3771 9.86121 22.3591 9.85254L20.3091 8.78388C20.1164 8.68388 19.8857 8.68388 19.6931 8.78388L17.6431 9.85254C17.6251 9.86188 17.5924 9.87654 17.5464 9.84521C17.5244 9.82921 17.4738 9.78188 17.4864 9.68788L17.8278 7.32522C17.8571 7.12389 17.7924 6.92056 17.6524 6.77256L16.0444 5.0699C15.9838 5.00523 16.0011 4.9279 16.0111 4.8979C16.0284 4.84523 16.0591 4.81523 16.1031 4.80723L18.3644 4.41523C18.5731 4.37857 18.7524 4.24523 18.8478 4.05524L19.9037 1.93524C19.9124 1.91791 19.9391 1.86458 20.0011 1.86458C20.0631 1.86458 20.0904 1.91724 20.0984 1.93458L21.1544 4.05524C21.2497 4.24523 21.4284 4.37857 21.6377 4.41523L23.8997 4.80723C23.9424 4.81523 23.9731 4.84523 23.9911 4.8979C24.0017 4.9279 24.0184 5.00523 23.9577 5.0699Z" fill="#226FEF"/>
<path d="M13.2551 9.81006C13.0837 9.29473 12.6511 8.9174 12.1264 8.82673L10.1977 8.49274L9.29241 6.67408C9.04375 6.17541 8.54908 5.86475 8.00108 5.86475C7.45309 5.86475 6.95909 6.17541 6.70909 6.67474L5.80376 8.4934L3.87577 8.8274C3.35044 8.91807 2.9171 9.29473 2.74644 9.81073C2.56977 10.3401 2.69644 10.9174 3.07577 11.3194L4.46243 12.7874L4.16777 14.8314C4.08643 15.3927 4.31976 15.9427 4.77576 16.266C5.02243 16.4414 5.31109 16.53 5.60043 16.53C5.82509 16.53 6.05109 16.4767 6.25842 16.368L8.00042 15.4607L9.74241 16.368C10.2191 16.6174 10.7877 16.5767 11.2257 16.266C11.6824 15.9427 11.9151 15.392 11.8337 14.8314L11.5391 12.7874L12.9257 11.3194C13.3051 10.9174 13.4317 10.3394 13.2551 9.81006ZM11.9571 10.4034L10.3491 12.1061C10.2091 12.2541 10.1444 12.4574 10.1737 12.6587L10.5151 15.0214C10.5284 15.116 10.4771 15.1627 10.4551 15.1787C10.4084 15.21 10.3764 15.1954 10.3584 15.186L8.30841 14.1174C8.11575 14.0174 7.88508 14.0174 7.69242 14.1174L5.64243 15.186C5.62443 15.196 5.59243 15.21 5.54576 15.1787C5.52376 15.1627 5.47309 15.1154 5.48576 15.0214L5.82709 12.6587C5.85643 12.4574 5.79176 12.2541 5.65176 12.1061L4.04377 10.4034C3.9831 10.3387 4.00043 10.2614 4.01043 10.2314C4.02777 10.1787 4.05843 10.1487 4.10243 10.1407L6.36376 9.74873C6.57242 9.71206 6.75176 9.57873 6.84709 9.38873L7.90308 7.26874C7.91175 7.25141 7.93842 7.19807 8.00042 7.19807C8.06242 7.19807 8.08975 7.25074 8.09775 7.26807L9.15374 9.38873C9.24908 9.57873 9.42774 9.71206 9.63708 9.74873L11.8991 10.1407C11.9417 10.1487 11.9724 10.1787 11.9904 10.2314C12.0011 10.2614 12.0177 10.3387 11.9571 10.4034Z" fill="#226FEF"/>
<path d="M37.2551 9.81006C37.0837 9.29473 36.6511 8.9174 36.1264 8.82673L34.1977 8.49274L33.2924 6.67408C33.0437 6.17541 32.5491 5.86475 32.0011 5.86475C31.4531 5.86475 30.9591 6.17541 30.7091 6.67474L29.8038 8.4934L27.8758 8.8274C27.3504 8.91807 26.9171 9.29473 26.7464 9.81073C26.5698 10.3401 26.6964 10.9174 27.0758 11.3194L28.4624 12.7874L28.1678 14.8314C28.0864 15.3927 28.3198 15.9427 28.7758 16.266C29.0224 16.4414 29.3111 16.53 29.6004 16.53C29.8251 16.53 30.0511 16.4767 30.2584 16.368L32.0004 15.4607L33.7424 16.368C34.2184 16.6174 34.7877 16.5767 35.2257 16.266C35.6824 15.9427 35.9151 15.392 35.8337 14.8314L35.5391 12.7874L36.9257 11.3194C37.3051 10.9174 37.4317 10.3394 37.2551 9.81006ZM35.9571 10.4034L34.3491 12.1061C34.2091 12.2541 34.1444 12.4574 34.1737 12.6587L34.5151 15.0214C34.5284 15.116 34.4771 15.1627 34.4551 15.1787C34.4084 15.21 34.3764 15.1954 34.3584 15.186L32.3084 14.1174C32.1158 14.0174 31.8851 14.0174 31.6924 14.1174L29.6424 15.186C29.6251 15.196 29.5918 15.21 29.5458 15.1787C29.5238 15.1627 29.4731 15.1154 29.4858 15.0214L29.8271 12.6587C29.8564 12.4574 29.7918 12.2541 29.6518 12.1061L28.0438 10.4034C27.9831 10.3387 28.0004 10.2614 28.0104 10.2314C28.0278 10.1787 28.0584 10.1487 28.1024 10.1407L30.3638 9.74873C30.5724 9.71206 30.7518 9.57873 30.8471 9.38873L31.9031 7.26874C31.9118 7.25141 31.9384 7.19807 32.0004 7.19807C32.0624 7.19807 32.0897 7.25074 32.0977 7.26807L33.1537 9.38873C33.2491 9.57873 33.4277 9.71206 33.6371 9.74873L35.8991 10.1407C35.9417 10.1487 35.9724 10.1787 35.9904 10.2314C36.0011 10.2614 36.0177 10.3387 35.9571 10.4034Z" fill="#226FEF"/>
<path d="M19.9999 16.5312C8.97196 16.5312 0 25.5032 0 36.5312C0 37.2665 0.597997 37.8645 1.33333 37.8645H9.33329C10.0686 37.8645 10.6666 37.2665 10.6666 36.5312C10.6666 31.3845 14.8533 27.1979 19.9999 27.1979C23.1566 27.1979 26.0746 28.7952 27.7939 31.4112C24.8206 32.4625 22.5152 33.3112 20.8179 33.9778C20.5546 33.9105 20.2839 33.8645 19.9999 33.8645C18.1619 33.8645 16.6666 35.3598 16.6666 37.1978C16.6666 39.0358 18.1619 40.5312 19.9999 40.5312C21.3126 40.5312 22.4399 39.7618 22.9832 38.6558C24.7252 37.7072 26.9612 36.4192 29.2105 35.0992C29.2839 35.5712 29.3332 36.0485 29.3332 36.5312C29.3332 37.2665 29.9312 37.8645 30.6665 37.8645H38.6665C39.4018 37.8645 39.9998 37.2665 39.9998 36.5312C39.9998 25.5032 31.0279 16.5312 19.9999 16.5312ZM27.0512 28.5372C25.2952 26.9865 23.0579 26.0365 20.6666 25.8872V17.8812C25.3106 18.0452 29.5272 19.9119 32.7105 22.8779L27.0512 28.5372ZM9.33329 36.5312H1.33333C1.33333 31.6239 3.23932 27.1559 6.34664 23.8206L12.0119 29.4859C10.3506 31.3672 9.33329 33.8298 9.33329 36.5312ZM12.9546 28.5432L7.2893 22.8779C10.4726 19.9126 14.6886 18.0459 19.3333 17.8812V25.8979C16.8946 26.0499 14.6793 27.0199 12.9546 28.5432ZM34.1699 30.6052C30.9705 32.5198 26.5386 35.1545 23.3079 36.9538C23.2466 36.1225 22.8926 35.3725 22.3312 34.8218C25.0146 33.7985 28.9079 32.4112 34.1699 30.6052ZM19.9992 39.1978C18.8966 39.1978 17.9993 38.3005 17.9993 37.1978C17.9993 36.0952 18.8966 35.1978 19.9992 35.1978C21.1019 35.1978 21.9992 36.0952 21.9992 37.1978C21.9992 38.3005 21.1019 39.1978 19.9992 39.1978ZM30.6659 36.5312C30.6659 35.8018 30.5885 35.0792 30.4425 34.3738C32.0099 33.4485 33.5379 32.5372 34.8572 31.7485C35.4565 31.3852 35.6772 30.6645 35.3832 30.0345C35.0905 29.4085 34.4039 29.1139 33.7425 29.3419C32.0485 29.9232 30.5005 30.4605 29.0832 30.9579C28.7592 30.4305 28.3932 29.9385 27.9912 29.4825L33.6519 23.8219C36.7592 27.1572 38.6652 31.6252 38.6652 36.5325H30.6652L30.6659 36.5312Z" fill="#226FEF"/>
</svg>
