<svg width="50" height="52" viewBox="0 0 50 52" fill="none" xmlns="http://www.w3.org/2000/svg">
<path d="M45.1804 7.20899C46.2345 7.20899 47.0874 6.35608 47.0874 5.302C47.0874 4.24793 46.2345 3.39502 45.1804 3.39502C44.1264 3.39502 43.2734 4.24793 43.2734 5.302C43.2734 6.35608 44.1344 7.20899 45.1804 7.20899ZM45.1804 4.75485C45.4862 4.75485 45.7356 5.00429 45.7356 5.31005C45.7356 5.61581 45.4862 5.86525 45.1804 5.86525C44.8666 5.86525 44.6252 5.62386 44.6252 5.31005C44.6252 4.99624 44.8747 4.75485 45.1804 4.75485Z" fill="#252525"/>
<path d="M47.2964 0.313477H8.09462C6.60605 0.313477 5.39105 1.52848 5.39105 3.01705V7.14483H2.70357C1.215 7.14483 0 8.35982 0 9.8484V43.7477C0 45.2362 1.215 46.4512 2.70357 46.4512H20.6711V50.3618C20.6711 50.7319 20.9768 51.0376 21.347 51.0376H34.0441C34.4142 51.0376 34.72 50.7319 34.72 50.3618V46.4512H41.9054C43.3939 46.4512 44.6089 45.2362 44.6089 43.7477V39.6199H47.2964C48.785 39.6199 50 38.4049 50 36.9163V3.01705C50 1.52848 48.785 0.313477 47.2964 0.313477ZM6.74284 3.01705C6.74284 2.26874 7.35436 1.66526 8.09462 1.66526H47.2964C48.0447 1.66526 48.6482 2.27679 48.6482 3.01705V8.94721H22.9965L19.9791 5.81718C19.7457 5.57579 19.4239 5.439 19.094 5.439H12.4477C11.7718 5.439 11.2166 5.9942 11.2166 6.67009V8.94721H6.74284V3.01705ZM2.70357 45.1075C1.95526 45.1075 1.35179 44.496 1.35179 43.7557V9.8484C1.35179 9.10009 1.96331 8.49661 2.70357 8.49661H5.39105V36.9244C5.39105 38.4129 6.60605 39.6279 8.09462 39.6279H22.7712C23.0367 40.1429 23.1574 40.7222 23.1091 41.3177H22.0631C21.2906 41.3177 20.6711 41.9453 20.6711 42.7097V45.1075H2.70357ZM27.0277 30.954C27.1645 30.7126 27.4139 30.5597 27.6955 30.5597C28.1139 30.5597 28.4519 30.8976 28.4519 31.3161C28.4519 31.5896 28.307 31.8391 28.0737 31.9759C27.8162 32.1287 27.5105 32.1126 27.1967 31.9356C27.1564 31.9115 27.1162 31.8793 27.1001 31.8391C26.8426 31.4287 26.9472 31.1068 27.0277 30.954ZM27.0196 29.3367C26.5288 29.5056 26.1104 29.8355 25.8529 30.3022C25.4667 30.9942 25.515 31.8391 25.9656 32.5632C26.1104 32.7885 26.3035 32.9736 26.5369 33.1104C26.907 33.3196 27.3093 33.4322 27.7036 33.4322C28.0737 33.4322 28.4358 33.3357 28.7576 33.1506C29.4014 32.7724 29.8037 32.0724 29.8037 31.3241C29.8037 30.3988 29.2002 29.6183 28.3714 29.3367V25.8606L34.3499 36.6508C34.3418 36.6588 34.3338 36.6749 34.3096 36.683C32.1934 37.2301 30.8095 39.2095 30.9221 41.3177H24.477C24.5977 39.2015 23.2057 37.2221 21.0492 36.6186L27.0196 25.8606V29.3367ZM33.3682 49.6859H22.0229L22.0631 42.6614H33.328C33.3521 42.6614 33.3682 42.6775 33.3682 42.7016V49.6859ZM43.2572 43.7477C43.2572 44.496 42.6456 45.0994 41.9054 45.0994H34.72V42.7016C34.72 41.9292 34.0924 41.3096 33.328 41.3096H32.2819C32.2337 40.7142 32.3624 40.1349 32.6199 39.6199H43.2572V43.7477ZM47.2964 38.2761H33.9314C34.1487 38.1554 34.382 38.0508 34.6395 37.9865C35.066 37.8738 35.412 37.5761 35.589 37.1738C35.758 36.7795 35.7338 36.337 35.5246 35.9588L28.6048 23.495C28.4277 23.1651 28.0818 22.9559 27.7036 22.9559C27.3173 22.9639 26.9714 23.1571 26.7863 23.487L19.8584 35.9588C19.6492 36.337 19.6331 36.7876 19.8021 37.1818C19.971 37.5842 20.317 37.8738 20.7435 37.9865C21.001 38.0508 21.2263 38.1554 21.4516 38.2761H8.09462C7.34631 38.2761 6.74284 37.6646 6.74284 36.9244V10.299H11.3293C12.0051 10.299 12.5603 9.7438 12.5603 9.0679V6.79079H19.0377L22.055 9.92082C22.2884 10.1622 22.6102 10.299 22.9401 10.299H48.6482V36.9163C48.6482 37.6646 48.0447 38.2761 47.2964 38.2761Z" fill="#252525"/>
<path d="M40.5769 7.20899C41.631 7.20899 42.4839 6.35608 42.4839 5.302C42.4839 4.24793 41.631 3.39502 40.5769 3.39502C39.5228 3.39502 38.6699 4.24793 38.6699 5.302C38.6699 6.35608 39.5228 7.20899 40.5769 7.20899ZM40.5769 4.75485C40.8827 4.75485 41.1321 5.00429 41.1321 5.31005C41.1321 5.61581 40.8827 5.86525 40.5769 5.86525C40.2631 5.86525 40.0217 5.62386 40.0217 5.31005C40.0217 4.99624 40.2711 4.75485 40.5769 4.75485Z" fill="#252525"/>
<path d="M35.9675 7.20899C37.0216 7.20899 37.8745 6.35608 37.8745 5.302C37.8745 4.24793 37.0216 3.39502 35.9675 3.39502C34.9135 3.39502 34.0605 4.24793 34.0605 5.302C34.0605 6.35608 34.9135 7.20899 35.9675 7.20899ZM35.9675 4.75485C36.2733 4.75485 36.5227 5.00429 36.5227 5.31005C36.5227 5.61581 36.2733 5.86525 35.9675 5.86525C35.6537 5.86525 35.4123 5.62386 35.4123 5.31005C35.4123 4.99624 35.6618 4.75485 35.9675 4.75485Z" fill="#252525"/>
<path d="M40.7233 16.1887C40.329 16.583 40.0796 17.0819 39.983 17.6129H30.5286V16.5508C30.5286 15.8266 29.9412 15.2393 29.217 15.2393H26.1675C25.4433 15.2393 24.8559 15.8266 24.8559 16.5508V17.6129H15.4095C15.321 17.0899 15.0715 16.591 14.6692 16.1807C13.6473 15.1749 11.9013 15.191 10.9035 16.1887C10.3966 16.6956 10.123 17.3635 10.123 18.0716C10.123 18.7877 10.4047 19.4636 10.9035 19.9544C11.4105 20.4774 12.0864 20.743 12.7864 20.743C13.2289 20.743 13.6795 20.6384 14.106 20.4211C14.5646 20.1878 14.9428 19.8015 15.1681 19.3268C15.2244 19.2061 15.2727 19.0854 15.3129 18.9647H21.8707C18.3062 20.7027 15.6187 23.9695 14.6853 27.9123H13.6393C12.9151 27.9123 12.3277 28.4996 12.3277 29.2238V32.2734C12.3277 32.9975 12.9151 33.5849 13.6393 33.5849H16.6889C17.413 33.5849 18.0004 32.9975 18.0004 32.2734V29.2238C18.0004 28.4996 17.413 27.9123 16.6889 27.9123H16.0773C17.2038 23.6638 20.6074 20.3326 24.88 19.3027V19.5923C24.88 20.3165 25.4674 20.9039 26.1916 20.9039H29.2412C29.9653 20.9039 30.5527 20.3165 30.5527 19.5923V19.3027C34.8173 20.3326 38.2209 23.6638 39.3554 27.9123H38.8002C38.0761 27.9123 37.4887 28.4996 37.4887 29.2238V32.2734C37.4887 32.9975 38.0761 33.5849 38.8002 33.5849H41.8498C42.574 33.5849 43.1613 32.9975 43.1613 32.2734V29.2238C43.1613 28.4996 42.574 27.9123 41.8498 27.9123H40.7474C39.806 23.9695 37.1185 20.6947 33.5621 18.9647H40.1359C40.2647 19.3348 40.4739 19.6728 40.7555 19.9544C41.2624 20.4774 41.9383 20.743 42.6383 20.743C43.0809 20.743 43.5315 20.6384 43.9579 20.4211C44.4166 20.1878 44.7948 19.8015 45.0201 19.3268C45.5431 18.2245 45.358 17.0255 44.5292 16.1807C43.4752 15.1829 41.7291 15.191 40.7233 16.1887ZM13.937 18.7555C13.8405 18.9486 13.6795 19.1176 13.4864 19.2142C12.7864 19.5682 12.1829 19.3429 11.853 18.9969C11.6036 18.7555 11.4668 18.4256 11.4668 18.0716C11.4668 17.7256 11.6036 17.3957 11.853 17.1382C12.1024 16.8888 12.4323 16.752 12.7864 16.752C13.1324 16.752 13.4703 16.8888 13.7117 17.1301C14.1301 17.5647 14.2106 18.1681 13.937 18.7555ZM16.6728 32.2331L13.6634 32.2734L13.6232 29.264H16.6325L16.6728 32.2331ZM41.8257 32.2331L38.8163 32.2734L38.7761 29.264H41.7854L41.8257 32.2331ZM26.2157 19.6004L26.1996 18.5865C26.2157 18.5141 26.2157 18.4417 26.2077 18.3612V18.3532C26.2077 18.3291 26.2238 18.313 26.2238 18.2888C26.2238 18.2486 26.2077 18.2164 26.1996 18.1842L26.1755 16.5991H29.1848L29.209 18.1842C29.2009 18.2245 29.1848 18.2566 29.1848 18.2969C29.1848 18.321 29.1929 18.3371 29.2009 18.3612V18.3693C29.1848 18.4739 29.1929 18.5704 29.217 18.659L29.2331 19.5682L26.2157 19.6004ZM43.7648 18.7555C43.6683 18.9486 43.5073 19.1176 43.3142 19.2142C42.6142 19.5682 42.0107 19.3429 41.6808 18.9969C41.4314 18.7555 41.2946 18.4256 41.2946 18.0716C41.2946 17.7256 41.4314 17.3957 41.6808 17.1382C41.9303 16.8888 42.2602 16.752 42.6142 16.752C42.9602 16.752 43.2981 16.8888 43.5395 17.1301C43.9579 17.5647 44.0384 18.1681 43.7648 18.7555Z" fill="#252525"/>
</svg>
