<svg width="49" height="51" viewBox="0 0 49 51" fill="none" xmlns="http://www.w3.org/2000/svg">
<path fill-rule="evenodd" clip-rule="evenodd" d="M45.3008 43.5237H3.69922C1.6441 43.5237 0 41.8502 0 39.8244V9.90772C0 7.85259 1.6441 6.2085 3.69922 6.2085H9.45356C10.2463 6.2085 10.2463 7.38285 9.45356 7.38285H3.69922C2.31935 7.38285 1.17436 8.49849 1.17436 9.90772V39.8244C1.17436 41.2043 2.31935 42.3493 3.69922 42.3493H45.3008C46.6806 42.3493 47.8256 41.2043 47.8256 39.8244V9.90772C47.8256 8.49849 46.6806 7.38285 45.3008 7.38285H40.1336C39.3703 7.38285 39.3703 6.2085 40.1336 6.2085H45.3008C47.3265 6.2085 49 7.85259 49 9.90772V39.8244C49 41.8502 47.3265 43.5237 45.3008 43.5237Z" fill="#252525"/>
<path fill-rule="evenodd" clip-rule="evenodd" d="M43.627 38.9732H40.1333C39.37 38.9732 39.3406 37.7989 40.1333 37.7989H43.0399V11.9043H40.1333C39.3406 11.9043 39.3406 10.73 40.1333 10.73H43.627C43.95 10.73 44.2142 10.9942 44.2142 11.3172V38.3861C44.2142 38.709 43.95 38.9732 43.627 38.9732ZM9.45328 38.9732H5.34304C5.02009 38.9732 4.75586 38.709 4.75586 38.3861V11.3172C4.75586 10.9942 5.02009 10.73 5.34304 10.73H9.45328C10.246 10.73 10.246 11.9043 9.45328 11.9043H5.93022V37.7989H9.45328C10.246 37.7989 10.2166 38.9732 9.45328 38.9732Z" fill="#252525"/>
<path fill-rule="evenodd" clip-rule="evenodd" d="M35.7304 50.7755H13.2709C12.8892 50.7755 12.5956 50.4232 12.6837 50.0415C13.9168 45.3147 21.873 46.5771 22.2253 42.8779C22.2841 42.1146 23.4584 42.2027 23.3997 42.9954C22.9887 47.3992 15.8838 46.5478 14.1223 49.6011H34.8497C33.0881 46.5184 26.0126 47.4285 25.6016 42.9954C25.5135 42.2027 26.6879 42.1146 26.776 42.8779C27.1283 46.5771 35.0845 45.3147 36.2882 50.0415C36.3763 50.4232 36.1121 50.7755 35.7304 50.7755Z" fill="#252525"/>
<path fill-rule="evenodd" clip-rule="evenodd" d="M9.74537 41.2637H7.42601C6.66268 41.2637 6.66268 40.0894 7.42601 40.0894H9.74537C10.5087 40.0894 10.5087 41.2637 9.74537 41.2637Z" fill="#252525"/>
<path fill-rule="evenodd" clip-rule="evenodd" d="M14.3254 41.2637H12.0061C11.2428 41.2637 11.2428 40.0894 12.0061 40.0894H14.3254C15.0888 40.0894 15.0888 41.2637 14.3254 41.2637Z" fill="#252525"/>
<path fill-rule="evenodd" clip-rule="evenodd" d="M41.5696 41.2637H39.2502C38.4869 41.2637 38.4869 40.0894 39.2502 40.0894H41.5696C42.3329 40.0894 42.3329 41.2637 41.5696 41.2637Z" fill="#252525"/>
<path fill-rule="evenodd" clip-rule="evenodd" d="M40.1344 38.9735H9.45437C9.13142 38.9735 8.86719 38.7092 8.86719 38.3863V3.8015C8.86719 2.09868 10.2471 0.718812 11.9499 0.718812L37.6096 0.689453C39.3124 0.689453 40.7216 2.09868 40.7216 3.8015V38.3863C40.7216 38.7092 40.4574 38.9735 40.1344 38.9735ZM10.0415 37.7991H39.5472V3.8015C39.5472 2.74458 38.6958 1.86381 37.6389 1.86381L11.9792 1.89317C10.9223 1.89317 10.0415 2.74458 10.0415 3.8015V37.7991Z" fill="#252525"/>
<path fill-rule="evenodd" clip-rule="evenodd" d="M25.6561 24.0001C22.9257 24.0001 22.8964 24.2056 22.6322 21.7395C22.5147 21.7101 22.4266 21.6514 22.3092 21.5927C20.3715 23.1487 20.489 23.0019 18.5806 21.0936C17.6999 20.2128 18.6981 19.2733 19.2559 18.5687C19.2265 18.4513 19.1678 18.3632 19.1384 18.2458C16.6723 17.9522 16.8485 17.9228 16.8485 15.2218C16.8485 13.9887 18.2283 14.0474 19.1384 13.93C19.1678 13.8126 19.2265 13.7245 19.2559 13.6071C17.6999 11.6694 17.876 11.7868 19.7843 9.87848C20.6651 8.99772 21.6046 9.99592 22.3092 10.5537C22.4266 10.5244 22.5147 10.4657 22.6322 10.4363C22.8964 7.97015 22.9257 8.14631 25.6561 8.14631C26.8892 8.14631 26.8305 9.52618 26.9479 10.4363C27.036 10.4657 27.1534 10.5244 27.2709 10.5831C29.2086 9.02707 29.0911 9.17387 30.9994 11.0822C31.8802 11.963 30.882 12.9024 30.2948 13.6071C30.3535 13.7245 30.4123 13.8126 30.4416 13.93C32.9078 14.2236 32.7316 14.253 32.7316 16.954C32.7316 18.187 31.3518 18.1283 30.4416 18.2458C30.4123 18.3632 30.3535 18.4513 30.2948 18.5687C31.8802 20.5064 31.7041 20.389 29.7957 22.2973C28.915 23.1781 27.9755 22.1799 27.2709 21.5927C27.1534 21.6514 27.036 21.7101 26.9479 21.7395C26.8305 22.6496 26.8892 24.0001 25.6561 24.0001ZM22.2505 20.3302C22.4854 20.3302 22.8377 20.5945 23.3661 20.7413C24.0707 20.9761 23.7478 22.6496 23.9533 22.8551H25.6268L25.8323 21.2404C25.8616 20.7119 26.3901 20.7706 27.0654 20.389C27.7406 20.0367 28.6801 21.4459 29.003 21.4459L30.1774 20.2715L29.1498 19.0091C28.8269 18.5981 29.2086 18.2751 29.4434 17.5118C29.6783 16.8072 31.3518 17.1301 31.5573 16.9246V15.2512L29.9425 15.0456C29.4141 15.0163 29.4434 14.4878 29.0911 13.8126C28.7388 13.1373 30.148 12.1978 30.148 11.8749L28.9737 10.7005L27.7112 11.7281C27.3002 12.051 26.9773 11.6694 26.2139 11.4345C25.5093 11.1996 25.8323 9.52618 25.6268 9.32066H23.9533L23.7478 10.9354C23.6891 11.4639 23.19 11.4345 22.5147 11.7868C21.8395 12.1391 21.0761 10.8767 20.577 10.7005L19.4027 11.9042L20.4009 13.1667C20.7532 13.5777 20.3422 13.9007 20.1367 14.6346C19.9018 15.3686 18.2283 15.0456 18.0228 15.2512V16.9246L19.6376 17.1008C20.166 17.1595 20.1073 17.6879 20.489 18.3632C20.8413 19.0385 19.4027 19.9779 19.4027 20.2715L20.6064 21.4752C20.6064 21.4459 21.8982 20.3302 22.2505 20.3302Z" fill="#252525"/>
<path fill-rule="evenodd" clip-rule="evenodd" d="M24.7758 19.9784C22.6619 19.9784 20.9004 18.2168 20.9004 16.0736C20.9004 13.9304 22.6326 12.1982 24.7758 12.1982C26.919 12.1982 28.6805 13.9304 28.6805 16.0736C28.6805 18.2168 26.919 19.9784 24.7758 19.9784ZM24.7758 13.3726C21.2233 13.3726 21.2233 18.804 24.7758 18.804C28.3576 18.804 28.3576 13.3726 24.7758 13.3726Z" fill="#252525"/>
<path fill-rule="evenodd" clip-rule="evenodd" d="M35.4947 13.3724C35.2598 13.3724 35.025 13.1962 34.9369 12.9613C31.9716 3.39035 18.5546 2.74445 14.6205 11.9338C14.3269 12.6384 13.2406 12.1687 13.5342 11.464C17.9674 1.24715 32.7056 2.01048 36.0525 12.609C36.17 12.9613 35.9057 13.3724 35.4947 13.3724Z" fill="#252525"/>
<path fill-rule="evenodd" clip-rule="evenodd" d="M14.0927 12.2863C13.7404 12.2863 13.4468 11.9634 13.5056 11.6111L14.357 5.85672C14.4744 5.09339 15.6194 5.26955 15.502 6.03288L14.8267 10.6422L18.3791 8.85133C19.0838 8.49902 19.6122 9.55594 18.9076 9.90825C18.2911 10.2312 14.4157 12.2863 14.0927 12.2863Z" fill="#252525"/>
<path fill-rule="evenodd" clip-rule="evenodd" d="M24.9842 27.9928C19.729 27.9928 15.1196 24.6165 13.5342 19.5668C13.2994 18.8328 14.415 18.4805 14.6499 19.2145C17.6738 28.8736 31.0615 29.3727 34.9662 20.242C35.2598 19.5374 36.3461 20.0072 36.0232 20.7118C34.1442 25.1156 29.7991 27.9928 24.9842 27.9928Z" fill="#252525"/>
<path fill-rule="evenodd" clip-rule="evenodd" d="M34.6425 26.819C34.2902 26.819 34.026 26.4961 34.0553 26.1438L34.7599 21.5051L31.2075 23.3253C30.5029 23.6776 30.0038 22.6207 30.6791 22.2684L35.2297 19.9491C35.6407 19.7435 36.1398 20.0958 36.0811 20.5656L35.2297 26.3199C35.2003 26.6135 34.9361 26.819 34.6425 26.819Z" fill="#252525"/>
<path fill-rule="evenodd" clip-rule="evenodd" d="M32.6201 35.4798H16.9718C16.1791 35.4798 15.5332 34.8339 15.5332 34.0706V31.2228C15.5332 30.4301 16.1791 29.7842 16.9718 29.7842H32.6201C33.4128 29.7842 34.0587 30.4301 34.0587 31.2228V34.0706C34.0587 34.8339 33.4128 35.4798 32.6201 35.4798ZM16.9718 30.9585C16.825 30.9585 16.7076 31.076 16.7076 31.2228V34.0706C16.7076 34.2174 16.825 34.3348 16.9718 34.3348H32.6201C32.7669 34.3348 32.8843 34.2174 32.8843 34.0706V31.2228C32.8843 31.076 32.7669 30.9585 32.6201 30.9585H16.9718Z" fill="#252525"/>
<path fill-rule="evenodd" clip-rule="evenodd" d="M27.888 35.4798C27.565 35.4798 27.3008 35.2155 27.3008 34.8926V30.3713C27.3008 29.608 28.4751 29.608 28.4751 30.3713V34.8926C28.4751 35.2155 28.2109 35.4798 27.888 35.4798Z" fill="#252525"/>
</svg>
