<svg width="42" height="42" viewBox="0 0 42 42" fill="none" xmlns="http://www.w3.org/2000/svg">
<path fill-rule="evenodd" clip-rule="evenodd" d="M21.6316 38.271C21.3613 38.271 21.1417 38.0522 21.1417 37.7819C21.1417 37.5109 21.3613 37.2921 21.6316 37.2921C31.4968 37.2921 39.5225 29.2663 39.5225 19.4011C39.5225 9.53673 31.4968 1.51099 21.6316 1.51099C11.7672 1.51099 3.74146 9.53673 3.74146 19.4011C3.74146 19.6722 3.52184 19.891 3.25159 19.891C2.98134 19.891 2.76172 19.6722 2.76172 19.4011C2.76172 14.3612 4.72447 9.62246 8.28911 6.05864C11.8529 2.49482 16.5916 0.53125 21.6316 0.53125C26.6724 0.53125 31.4111 2.494 34.9749 6.05864C38.5387 9.62246 40.5015 14.3612 40.5015 19.4011C40.5015 24.4419 38.5387 29.1806 34.9749 32.7444C31.4111 36.3082 26.6716 38.271 21.6316 38.271Z" fill="#04E37B"/>
<path fill-rule="evenodd" clip-rule="evenodd" d="M3.25693 19.8906C3.21448 19.8906 3.17202 19.8857 3.13038 19.8742C2.98505 19.8351 2.86585 19.7314 2.80625 19.5926L0.265446 13.6153C0.160124 13.3671 0.27606 13.0789 0.525078 12.9736C0.774097 12.8683 1.06149 12.9834 1.16681 13.2324L3.46268 18.6332L8.15157 15.1037C8.36712 14.9412 8.6741 14.9845 8.83739 15.2009C8.99987 15.4164 8.95659 15.7234 8.74023 15.8867L3.55167 19.7926C3.46594 19.8571 3.36225 19.8906 3.25693 19.8906Z" fill="#04E37B"/>
<path fill-rule="evenodd" clip-rule="evenodd" d="M41.2938 38.2709H0.489056C0.21881 38.2709 0 38.0521 0 37.7819C0 37.5108 0.21881 37.292 0.489056 37.292H41.2938C41.564 37.292 41.7828 37.5108 41.7828 37.7819C41.7828 38.0521 41.564 38.2709 41.2938 38.2709Z" fill="#04E37B"/>
<path fill-rule="evenodd" clip-rule="evenodd" d="M37.7128 41.0715C37.5675 41.0715 37.4238 41.0062 37.3266 40.8829C37.1601 40.6698 37.1976 40.362 37.4107 40.1954L40.4977 37.782L37.4107 35.3669C37.1976 35.2004 37.1601 34.8926 37.3266 34.6795C37.494 34.4672 37.801 34.4297 38.0141 34.5962L41.5942 37.3958C41.7134 37.4889 41.7828 37.631 41.7828 37.782C41.7828 37.9322 41.7134 38.0743 41.5942 38.1674L38.0141 40.967C37.9251 41.0372 37.8181 41.0715 37.7128 41.0715Z" fill="#04E37B"/>
<path fill-rule="evenodd" clip-rule="evenodd" d="M28.5737 17.121H14.681C13.026 17.121 11.6797 15.7746 11.6797 14.1189V8.78823C11.6797 7.13246 13.026 5.78613 14.681 5.78613H28.5737C30.2287 5.78613 31.5758 7.13246 31.5758 8.78823V14.1189C31.5758 15.7746 30.2287 17.121 28.5737 17.121ZM14.681 6.76588C13.5657 6.76588 12.6586 7.67296 12.6586 8.78823V14.1189C12.6586 15.2341 13.5657 16.1412 14.681 16.1412H28.5737C29.689 16.1412 30.5961 15.2341 30.5961 14.1189V8.78823C30.5961 7.67296 29.689 6.76588 28.5737 6.76588H14.681Z" fill="#04E37B"/>
<path fill-rule="evenodd" clip-rule="evenodd" d="M28.3811 9.57365H14.8785C14.6083 9.57365 14.3887 9.35403 14.3887 9.08378C14.3887 8.81354 14.6083 8.59473 14.8785 8.59473H28.3811C28.6513 8.59473 28.8709 8.81354 28.8709 9.08378C28.8709 9.35403 28.6513 9.57365 28.3811 9.57365Z" fill="#04E37B"/>
<path fill-rule="evenodd" clip-rule="evenodd" d="M28.3811 11.9428H14.8785C14.6083 11.9428 14.3887 11.724 14.3887 11.4537C14.3887 11.1827 14.6083 10.9639 14.8785 10.9639H28.3811C28.6513 10.9639 28.8709 11.1827 28.8709 11.4537C28.8709 11.724 28.6513 11.9428 28.3811 11.9428Z" fill="#04E37B"/>
<path fill-rule="evenodd" clip-rule="evenodd" d="M28.3811 14.3118H14.8785C14.6083 14.3118 14.3887 14.0921 14.3887 13.8219C14.3887 13.5517 14.6083 13.332 14.8785 13.332H28.3811C28.6513 13.332 28.8709 13.5517 28.8709 13.8219C28.8709 14.0921 28.6513 14.3118 28.3811 14.3118Z" fill="#04E37B"/>
<path fill-rule="evenodd" clip-rule="evenodd" d="M28.5737 33.017H14.681C13.026 33.017 11.6797 31.6706 11.6797 30.0149V24.6842C11.6797 23.0285 13.026 21.6821 14.681 21.6821H28.5737C30.2287 21.6821 31.5758 23.0285 31.5758 24.6842V30.0149C31.5758 31.6706 30.2287 33.017 28.5737 33.017ZM14.681 22.6619C13.5657 22.6619 12.6586 23.569 12.6586 24.6842V30.0149C12.6586 31.1301 13.5657 32.0372 14.681 32.0372H28.5737C29.689 32.0372 30.5961 31.1301 30.5961 30.0149V24.6842C30.5961 23.569 29.689 22.6619 28.5737 22.6619H14.681Z" fill="#04E37B"/>
<path fill-rule="evenodd" clip-rule="evenodd" d="M28.3811 25.4701H14.8785C14.6083 25.4701 14.3887 25.2505 14.3887 24.9803C14.3887 24.71 14.6083 24.4912 14.8785 24.4912H28.3811C28.6513 24.4912 28.8709 24.71 28.8709 24.9803C28.8709 25.2505 28.6513 25.4701 28.3811 25.4701Z" fill="#04E37B"/>
<path fill-rule="evenodd" clip-rule="evenodd" d="M28.3811 27.8398H14.8785C14.6083 27.8398 14.3887 27.621 14.3887 27.3507C14.3887 27.0796 14.6083 26.8608 14.8785 26.8608H28.3811C28.6513 26.8608 28.8709 27.0796 28.8709 27.3507C28.8709 27.621 28.6513 27.8398 28.3811 27.8398Z" fill="#04E37B"/>
<path fill-rule="evenodd" clip-rule="evenodd" d="M28.3811 30.2087H14.8785C14.6083 30.2087 14.3887 29.9891 14.3887 29.7189C14.3887 29.4486 14.6083 29.229 14.8785 29.229H28.3811C28.6513 29.229 28.8709 29.4486 28.8709 29.7189C28.8709 29.9891 28.6513 30.2087 28.3811 30.2087Z" fill="#04E37B"/>
<path fill-rule="evenodd" clip-rule="evenodd" d="M23.7848 22.6626C23.5145 22.6626 23.2949 22.443 23.2949 22.1727V16.6307C23.2949 16.3604 23.5145 16.1416 23.7848 16.1416C24.055 16.1416 24.2747 16.3604 24.2747 16.6307V22.1727C24.2747 22.443 24.055 22.6626 23.7848 22.6626Z" fill="#04E37B"/>
<path fill-rule="evenodd" clip-rule="evenodd" d="M23.7886 22.6631C23.6384 22.6631 23.4963 22.5937 23.4033 22.4745L22.0063 20.6889C21.8397 20.4758 21.8773 20.168 22.0904 20.0014C22.3027 19.8349 22.6113 19.8724 22.7779 20.0855L23.7886 21.378L24.8002 20.0855C24.9668 19.8724 25.2746 19.8349 25.4877 20.0014C25.7008 20.168 25.7383 20.4758 25.5718 20.6889L24.1748 22.4745C24.0817 22.5937 23.9397 22.6631 23.7886 22.6631Z" fill="#04E37B"/>
<path fill-rule="evenodd" clip-rule="evenodd" d="M19.4676 22.6626C19.1973 22.6626 18.9785 22.443 18.9785 22.1727V16.6307C18.9785 16.3604 19.1973 16.1416 19.4676 16.1416C19.7386 16.1416 19.9574 16.3604 19.9574 16.6307V22.1727C19.9574 22.443 19.7386 22.6626 19.4676 22.6626Z" fill="#04E37B"/>
<path fill-rule="evenodd" clip-rule="evenodd" d="M20.8622 18.9068C20.7168 18.9068 20.5731 18.8423 20.476 18.7182L19.4652 17.4257L18.4536 18.7182C18.2871 18.9313 17.9793 18.9696 17.7662 18.8023C17.5531 18.6357 17.5155 18.3279 17.6821 18.1156L19.079 16.3292C19.1721 16.21 19.3142 16.1406 19.4652 16.1406C19.6154 16.1406 19.7575 16.21 19.8506 16.3292L21.2475 18.1156C21.4141 18.3279 21.3765 18.6357 21.1634 18.8023C21.0745 18.8725 20.9675 18.9068 20.8622 18.9068Z" fill="#04E37B"/>
</svg>
