<svg width="42" height="40" viewBox="0 0 42 40" fill="none" xmlns="http://www.w3.org/2000/svg">
<path d="M6.29922 6.86208L7.64279 9.60558L10.6906 10.0153C11.2948 10.0955 11.5112 10.8348 11.0964 11.2267L8.86913 13.3378L9.41918 16.3307C9.52739 16.9186 8.89618 17.364 8.37319 17.0789L5.659 15.6359L2.94482 17.0789C2.42182 17.3551 1.76356 16.9275 1.90784 16.2862L2.44887 13.3289L0.221618 11.2178C-0.211209 10.8081 0.023239 10.0777 0.63641 9.9975L3.67521 9.58776L5.01878 6.84427C5.27126 6.31873 6.04674 6.32763 6.29922 6.86208ZM6.51564 10.5676L5.659 8.8039L4.79335 10.5676C4.69416 10.7725 4.48676 10.9328 4.2433 10.9684L2.28656 11.2267L3.7203 12.5807C3.88261 12.741 3.97278 12.9726 3.9277 13.2131L3.57602 15.1371L5.30733 14.2196C5.51473 14.1127 5.77623 14.0949 5.99264 14.2196L7.73296 15.146L7.39031 13.2576C7.33621 13.026 7.39933 12.7677 7.58869 12.5807L9.02243 11.2267L7.08372 10.9684C6.84928 10.9417 6.62385 10.7903 6.51564 10.5676ZM21.6465 0.404182L22.9901 3.14768L26.0469 3.55742C26.6511 3.63759 26.8675 4.3769 26.4527 4.77774L24.2255 6.8888L24.7755 9.88171C24.8837 10.4696 24.2525 10.915 23.7295 10.6299L20.9973 9.18692L18.2831 10.6299C17.7601 10.9061 17.1019 10.4785 17.2461 9.83717L17.7872 6.8799L15.5509 4.76883C15.1181 4.35909 15.3525 3.62868 15.9657 3.54851L19.0045 3.13877L20.3481 0.404182C20.6186 -0.139172 21.385 -0.130264 21.6465 0.404182ZM21.8629 4.10968L20.9973 2.34601L20.1407 4.10968C20.0415 4.31455 19.8341 4.47489 19.5906 4.51052L17.6249 4.76883L19.0586 6.12276C19.2299 6.2831 19.3111 6.51469 19.266 6.75519L18.9143 8.6792L20.6546 7.76173C20.862 7.65484 21.1145 7.63703 21.3399 7.76173L23.0803 8.68811L22.7376 6.79973C22.6835 6.56814 22.7466 6.30982 22.936 6.12276L24.3697 4.76883L22.431 4.50161C22.1876 4.48379 21.9712 4.33237 21.8629 4.10968ZM36.9848 6.86208L38.3284 9.60558L41.3762 10.0153C41.9804 10.0955 42.2058 10.8348 41.782 11.2267L39.5547 13.3378L40.1048 16.3307C40.213 16.9186 39.5818 17.364 39.0588 17.0789L36.3446 15.6359L33.6304 17.0789C33.1074 17.3551 32.4492 16.9275 32.5844 16.2862L33.1255 13.3289L30.8982 11.2178C30.4654 10.8081 30.6998 10.0777 31.313 9.9975L34.3518 9.58776L35.6954 6.84427C35.9569 6.31873 36.7323 6.32763 36.9848 6.86208ZM37.2012 10.5676L36.3446 8.8039L35.479 10.5676C35.3798 10.7725 35.1814 10.9328 34.9289 10.9684L32.9722 11.2267L34.3969 12.5807C34.5592 12.741 34.6494 12.9726 34.6043 13.2131L34.2526 15.1371L35.9929 14.2196C36.2003 14.1127 36.4618 14.0949 36.6782 14.2196L38.4276 15.146L38.0849 13.2576C38.0308 13.026 38.0939 12.7677 38.2833 12.5807L39.708 11.2267L37.7693 10.9684C37.5349 10.9417 37.3094 10.7903 37.2012 10.5676ZM17.6519 25.0511C17.4535 24.7126 17.5708 24.2761 17.9134 24.0802C18.2561 23.8842 18.6979 24 18.8963 24.3385L19.8431 25.9596L23.2065 22.6372C23.486 22.361 23.9459 22.361 24.2255 22.6372C24.505 22.9133 24.505 23.3676 24.2255 23.6437L20.1948 27.6253C19.8611 27.9549 19.3021 27.8837 19.0676 27.4828L17.6519 25.0511ZM20.9973 17.5243C24.9198 17.5243 28.1029 20.6686 28.1029 24.5434C28.1029 28.4181 24.9198 31.5624 20.9973 31.5624C17.0748 31.5624 13.8917 28.4181 13.8917 24.5434C13.8917 20.6686 17.0748 17.5243 20.9973 17.5243ZM25.0009 20.5885C22.7917 18.4061 19.2029 18.4061 16.9936 20.5885C14.7844 22.7708 14.7844 26.3159 16.9936 28.4983C19.2029 30.6806 22.7917 30.6806 25.0009 28.4983C27.2102 26.307 27.2102 22.7708 25.0009 20.5885ZM20.9973 13.1151C27.3815 13.1151 32.5574 18.228 32.5574 24.5345C32.5574 26.9216 31.818 29.1396 30.5465 30.9745L34.0001 36.8802C34.3338 37.4324 33.8739 38.056 33.2788 37.9669L29.744 37.4146L27.8504 39.7127C27.5167 40.1403 26.8946 40.069 26.6511 39.6415L24.2345 35.5084C22.1244 36.1141 19.8611 36.1141 17.7601 35.5084L15.3435 39.6415C15.1 40.069 14.4778 40.1403 14.1442 39.7127L12.2506 37.4146L8.71584 37.9669C8.11169 38.0649 7.68788 37.4146 7.97643 36.9069L11.4481 30.9745C8.31007 26.4406 8.89618 20.339 12.8277 16.4554C14.9107 14.3978 17.8052 13.1151 20.9973 13.1151ZM29.5907 32.177C28.4906 33.3885 27.138 34.3594 25.6051 35.0185L27.3725 38.0381L28.8874 36.2032C29.0587 35.9894 29.3202 35.9093 29.5727 35.9538L32.0073 36.3368L29.5907 32.177ZM16.3805 35.0185C14.8566 34.3594 13.504 33.3885 12.4039 32.186L9.97825 36.3368L12.4129 35.9538C12.6564 35.9093 12.9269 35.9983 13.0982 36.2032L14.6131 38.0381L16.3805 35.0185ZM28.157 17.4709C24.2074 13.5694 17.7962 13.5694 13.8466 17.4709C9.89709 21.3723 9.89709 27.7055 13.8466 31.607C17.8052 35.5084 24.2074 35.5084 28.157 31.607C32.1065 27.7055 32.1065 21.3723 28.157 17.4709Z" fill="#E6B625"/>
</svg>
