<svg width="96" height="96" viewBox="0 0 96 96" fill="none" xmlns="http://www.w3.org/2000/svg">
<g filter="url(#filter0_d_646_524)">
<rect x="8" y="8" width="80" height="80" rx="40" fill="white" shape-rendering="crispEdges"/>
<rect x="8.5" y="8.5" width="79" height="79" rx="39.5" stroke="#FBFBFB" shape-rendering="crispEdges"/>
<path d="M30.4883 63.8526L30.498 40.4083C30.4983 39.7899 30.9998 39.2888 31.6182 39.2891L63.4916 39.3036C64.11 39.3039 64.6111 39.8054 64.6108 40.4238L64.6011 63.8682L30.4883 63.8526Z" fill="#F9F7F8"/>
<path d="M64.5346 40.4236L64.5253 63.8682L62.5933 63.8674L62.6024 40.8076C62.6028 39.9769 61.7056 39.3034 60.875 39.3032L63.4574 39.3039C64.0524 39.3039 64.5354 39.8056 64.5346 40.4236Z" fill="#EFEDEF"/>
<path d="M64.5984 64.4273C64.5983 64.4273 64.5983 64.4273 64.5982 64.4273C64.289 64.4273 64.0385 64.1765 64.0386 63.8673L64.0483 40.423C64.0484 40.2734 63.9902 40.1328 63.8845 40.027C63.7788 39.9212 63.6383 39.8629 63.4887 39.8628L31.6152 39.8483C31.6151 39.8483 31.615 39.8483 31.6149 39.8483C31.3063 39.8483 31.0553 40.0993 31.0551 40.4079L31.0523 48.1342L31.0455 63.8522C31.0453 64.1613 30.7947 64.4118 30.4857 64.4118C30.4856 64.4118 30.4855 64.4118 30.4854 64.4118C30.1762 64.4116 29.9256 64.1608 29.9258 63.8517L29.9338 45.5052L29.9355 40.4074C29.9357 39.9587 30.1105 39.537 30.4279 39.2199C30.7451 38.903 31.1666 38.7285 31.6149 38.7285H31.6157L63.4892 38.7431C63.9377 38.7433 64.3595 38.9181 64.6765 39.2355C64.9936 39.5529 65.1682 39.9747 65.1679 40.4233L65.1582 63.8676C65.1581 64.1769 64.9075 64.4273 64.5984 64.4273Z" fill="#478CFF"/>
<path d="M64.9895 63.6298C65.4018 63.6298 65.6921 63.7795 65.6921 64.1918C65.6921 65.4286 64.203 65.9201 62.9662 65.9201L61.3704 66.1681L31.2393 66.1681C30.0026 66.168 29 65.1654 29 63.9286C29 63.5163 29.3342 63.1821 29.7465 63.1821L62.595 63.1822L64.9895 63.6298Z" fill="#478CFF"/>
<path d="M66.0973 63.9207C66.0997 64.543 65.8485 65.1063 65.4412 65.5128C65.0359 65.9181 64.4761 66.1689 63.858 66.1689H60.8906C61.8307 66.1689 62.5928 65.407 62.5932 64.467L62.5937 63.1831H65.3509C65.7595 63.1831 66.0957 63.512 66.0973 63.9207Z" fill="#478CFF"/>
<path d="M45.2538 60.2929L43.8355 60.4423H34.3774C33.9338 60.4423 33.5742 60.0827 33.5742 59.6391V48.6133C33.5742 48.1697 33.9338 47.8101 34.3774 47.8101H43.8355L45.2538 47.9594C45.6974 47.9594 46.057 48.319 46.057 48.7626V59.4897C46.057 59.9333 45.6974 60.2929 45.2538 60.2929Z" fill="#FF584A"/>
<path d="M45.4006 47.8101H43.6836C44.1272 47.8101 44.4868 48.1697 44.4868 48.6133V59.639C44.4868 60.0826 44.1272 60.4422 43.6836 60.4422H45.4006C45.8442 60.4422 46.2038 60.0826 46.2038 59.639V48.6132C46.2038 48.1697 45.8442 47.8101 45.4006 47.8101Z" fill="#FF584A"/>
<path d="M60.5781 60.2929L58.9433 60.4423H49.7016C49.258 60.4423 48.8984 60.0827 48.8984 59.6391V48.6133C48.8984 48.1697 49.258 47.8101 49.7016 47.8101H58.9433L60.5781 47.9594C61.0217 47.9594 61.3813 48.319 61.3813 48.7626V59.4897C61.3813 59.9333 61.0217 60.2929 60.5781 60.2929Z" fill="#15EC88"/>
<path d="M60.7264 47.8101H58.793C59.2366 47.8101 59.5962 48.1697 59.5962 48.6133V59.639C59.5962 60.0826 59.2366 60.4422 58.793 60.4422H60.7264C61.17 60.4422 61.5296 60.0826 61.5296 59.639V48.6132C61.5296 48.1697 61.17 47.8101 60.7264 47.8101Z" fill="#15EC88"/>
<path d="M43.2795 50.6346C42.8948 50.2638 42.2753 50.2923 41.8975 50.6701L39.9955 52.5721C39.9372 52.6304 39.8427 52.6304 39.7844 52.5721L37.8824 50.6701C37.5046 50.2923 36.8849 50.2638 36.5003 50.6346C36.1084 51.0124 36.1041 51.6365 36.4874 52.0197L38.4121 53.9444C38.4704 54.0027 38.4704 54.0972 38.4121 54.1556L36.5077 56.0599C36.13 56.4376 36.1098 57.0755 36.4877 57.4531C36.6771 57.6423 36.9253 57.7369 37.1735 57.7369C37.4219 57.7369 37.6702 57.6422 37.8596 57.4526L39.7844 55.5279C39.8427 55.4696 39.9372 55.4696 39.9955 55.5279L41.9202 57.4526C42.1097 57.6421 42.358 57.7369 42.6064 57.7369C42.8546 57.7369 43.1027 57.6422 43.2921 57.4531C43.6701 57.0756 43.6499 56.4377 43.2721 56.0599L41.3678 54.1556C41.3095 54.0972 41.3095 54.0027 41.3678 53.9444L43.2925 52.0197C43.6757 51.6365 43.6714 51.0124 43.2795 50.6346Z" fill="#F9F7F8"/>
<path d="M59.2195 50.5678C58.7968 50.2384 58.187 50.314 57.8576 50.7368L54.4512 55.1084C54.3938 55.182 54.2838 55.1855 54.2218 55.1157L52.5455 53.2281C52.1907 52.8287 51.5738 52.7635 51.1679 53.1108C50.7543 53.4647 50.713 54.0875 51.073 54.4927L53.6641 57.4105C53.8486 57.6182 54.1128 57.7365 54.3896 57.7365C54.4 57.7365 54.4104 57.7363 54.4209 57.736C54.709 57.7267 54.978 57.5899 55.1551 57.3625L59.3885 51.9296C59.7178 51.507 59.6422 50.8973 59.2195 50.5678Z" fill="#F9F7F8"/>
<path d="M55.1368 38.9925L55.1889 36.5005C55.1889 36.3503 55.0773 36.2234 54.9283 36.2044L54.051 36.0982C53.9361 36.0835 53.8387 36.0041 53.8047 35.8933C53.6836 35.4982 53.6327 35.0126 53.4438 34.6525C53.4385 34.6424 53.4334 34.6321 53.4281 34.622C53.3736 34.5196 53.3862 34.3944 53.4571 34.3026L53.9947 33.6069C54.0866 33.488 54.0758 33.3195 53.9695 33.2132L52.0763 31.32C51.9701 31.2138 51.8015 31.203 51.6827 31.2949L50.9869 31.8325C50.8952 31.9033 50.7701 31.9159 50.6676 31.8615C50.2985 31.6655 49.9088 31.5031 49.5026 31.3786C49.3918 31.3447 49.3124 31.2472 49.2976 31.1323L49.1858 30.2606C49.1667 30.1117 49.0399 30 48.8897 30H46.2124C46.0622 30 45.9353 30.1116 45.9162 30.2606L45.8044 31.1323C45.7897 31.2472 45.7103 31.3446 45.5995 31.3786C45.1932 31.5031 44.8035 31.6654 44.4345 31.8615C44.3321 31.9159 44.2069 31.9033 44.1151 31.8325L43.4194 31.2949C43.3005 31.203 43.132 31.2138 43.0257 31.32L41.1325 33.2132C41.0263 33.3195 41.0155 33.4881 41.1074 33.6069L41.645 34.3026C41.7158 34.3944 41.7284 34.5195 41.674 34.622C41.478 34.9911 41.3156 35.3807 41.1911 35.787C41.1572 35.8977 41.0597 35.9772 40.9448 35.9919L40.0731 36.1037C39.9242 36.1229 39.8125 36.2497 39.8125 36.3999V39.0848C39.8125 39.236 39.9256 39.3634 40.0758 39.3813L40.8978 39.4791C41.0414 39.4975 41.1617 39.5973 41.2052 39.7354C41.3277 40.1252 41.4851 40.4996 41.6738 40.8548C41.7283 40.9573 41.716 41.0825 41.645 41.1744L41.1074 41.8702C41.0155 41.9891 41.0263 42.1576 41.1325 42.2638L43.0257 44.157C43.132 44.2633 43.3006 44.2741 43.4194 44.1822L44.1151 43.6446C44.2069 43.5737 44.332 43.5611 44.4345 43.6156C44.4446 43.6209 44.4547 43.6263 44.4648 43.6316C44.8249 43.8205 45.2916 43.8771 45.6868 43.9982C45.7975 44.0321 45.877 44.1296 45.8917 44.2445L45.9818 45.0712C46.0009 45.2201 46.1277 45.3318 46.2779 45.3318L48.7676 45.3869C48.9178 45.3869 49.0447 45.2754 49.0637 45.1263L49.1136 44.2444C49.1283 44.1295 49.2077 44.0321 49.3185 43.9981C49.7248 43.8737 50.2985 43.625 50.6676 43.429C50.77 43.3746 50.8951 43.3872 50.9869 43.458L51.6827 44.0009C51.8016 44.0928 51.9701 44.082 52.0763 43.9757L53.7392 42.2236C53.8454 42.1173 53.8562 41.9487 53.7643 41.8299L53.3041 41.1742C53.2331 41.0823 53.2209 40.9571 53.2754 40.8546C53.4641 40.4994 53.6747 40.0019 53.7972 39.6121C53.8406 39.474 53.9611 39.3742 54.1047 39.3558L54.8716 39.2891C55.0226 39.2723 55.1368 39.1445 55.1368 38.9925Z" fill="#478CFF"/>
<path d="M47.5539 42.0268C49.9223 42.0268 51.8422 40.1069 51.8422 37.7385C51.8422 35.3701 49.9223 33.4502 47.5539 33.4502C45.1856 33.4502 43.2656 35.3701 43.2656 37.7385C43.2656 40.1069 45.1856 42.0268 47.5539 42.0268Z" fill="#F9F7F8"/>
<path d="M55.0328 36.1036L54.1611 35.9918C54.0462 35.9771 53.9488 35.8977 53.9148 35.7869C53.7938 35.3917 53.6366 35.0125 53.4477 34.6523C53.255 37.035 52.1903 39.1608 50.5999 40.758C48.9996 42.365 46.8661 43.4375 44.4688 43.6314C44.8288 43.8203 45.2083 43.9772 45.6034 44.0983C45.7142 44.1322 45.7936 44.2297 45.8084 44.3446L45.9202 45.2162C45.9393 45.3652 46.0661 45.4769 46.2163 45.4769H48.8936C49.0438 45.4769 49.1707 45.3653 49.1898 45.2162L49.3016 44.3446C49.3163 44.2297 49.3957 44.1323 49.5065 44.0983C49.9128 43.9738 50.3025 43.8115 50.6715 43.6154C50.7739 43.5609 50.8991 43.5735 50.9908 43.6444L51.6865 44.182C51.8054 44.2739 51.974 44.2631 52.0802 44.1568L53.9734 42.2636C54.0796 42.1574 54.0904 41.9888 53.9985 41.87L53.4609 41.1742C53.3899 41.0823 53.3776 40.9571 53.4321 40.8546C53.6208 40.4994 53.7782 40.125 53.9007 39.7352C53.9441 39.5971 54.0645 39.4973 54.2081 39.4789L55.0282 39.3868C55.1792 39.3698 55.2934 39.2421 55.2934 39.09V36.3997C55.2934 36.2495 55.1818 36.1227 55.0328 36.1036Z" fill="#478CFF"/>
</g>
<defs>
<filter id="filter0_d_646_524" x="0" y="0" width="96" height="96" filterUnits="userSpaceOnUse" color-interpolation-filters="sRGB">
<feFlood flood-opacity="0" result="BackgroundImageFix"/>
<feColorMatrix in="SourceAlpha" type="matrix" values="0 0 0 0 0 0 0 0 0 0 0 0 0 0 0 0 0 0 127 0" result="hardAlpha"/>
<feOffset/>
<feGaussianBlur stdDeviation="4"/>
<feComposite in2="hardAlpha" operator="out"/>
<feColorMatrix type="matrix" values="0 0 0 0 0 0 0 0 0 0 0 0 0 0 0 0 0 0 0.1 0"/>
<feBlend mode="normal" in2="BackgroundImageFix" result="effect1_dropShadow_646_524"/>
<feBlend mode="normal" in="SourceGraphic" in2="effect1_dropShadow_646_524" result="shape"/>
</filter>
</defs>
</svg>
