<svg width="96" height="96" viewBox="0 0 96 96" fill="none" xmlns="http://www.w3.org/2000/svg">
<g filter="url(#filter0_d_646_514)">
<rect x="8" y="8" width="80" height="80" rx="40" fill="white" shape-rendering="crispEdges"/>
<rect x="8.5" y="8.5" width="79" height="79" rx="39.5" stroke="#FBFBFB" shape-rendering="crispEdges"/>
<path d="M59.1349 62.9862L65.775 57.4538L59.1349 51.9204V55.2405L42.4609 55.241V59.6672H59.1349V62.9862Z" fill="#FF584A"/>
<path d="M34.7158 47.4934C34.7158 43.2223 38.1914 39.7466 42.4625 39.7466L44.6759 37.3257L42.4625 35.3198C35.7394 35.3198 30.2891 40.7702 30.2891 47.4933C30.2891 54.2165 35.7394 59.6668 42.4625 59.6668L44.6759 57.6955L42.4625 55.2401C38.1914 55.2401 34.7158 51.7645 34.7158 47.4934Z" fill="#478CFF"/>
<path d="M42.4625 59.6671L44.6759 57.6958L42.4625 55.2404C38.1914 55.2404 34.7158 51.7648 34.7158 47.4937H30.2891C30.2891 54.2168 35.7394 59.6671 42.4625 59.6671Z" fill="#3C7AE0"/>
<path d="M43.5659 35.3759V32L36.9258 37.5334L43.5659 43.0657V39.8586C47.3101 40.4014 50.2059 43.6013 50.2059 47.4935C50.2059 51.7647 46.7303 55.2403 42.4592 55.2403L40.2458 57.4534L42.4592 59.667C49.1823 59.667 54.6327 54.2167 54.6327 47.4935C54.6327 41.1441 49.7696 35.9357 43.5659 35.3759Z" fill="#15EC88"/>
<path d="M42.4634 55.2404L40.25 57.4535L42.4634 59.6671C49.1865 59.6671 54.6368 54.2168 54.6368 47.4937H50.2101C50.2101 51.7648 46.7345 55.2404 42.4634 55.2404Z" fill="#13D57B"/>
<path d="M28 55.2412H42.4606V59.6671H28V55.2412Z" fill="#FFC107"/>
</g>
<defs>
<filter id="filter0_d_646_514" x="0" y="0" width="96" height="96" filterUnits="userSpaceOnUse" color-interpolation-filters="sRGB">
<feFlood flood-opacity="0" result="BackgroundImageFix"/>
<feColorMatrix in="SourceAlpha" type="matrix" values="0 0 0 0 0 0 0 0 0 0 0 0 0 0 0 0 0 0 127 0" result="hardAlpha"/>
<feOffset/>
<feGaussianBlur stdDeviation="4"/>
<feComposite in2="hardAlpha" operator="out"/>
<feColorMatrix type="matrix" values="0 0 0 0 0 0 0 0 0 0 0 0 0 0 0 0 0 0 0.1 0"/>
<feBlend mode="normal" in2="BackgroundImageFix" result="effect1_dropShadow_646_514"/>
<feBlend mode="normal" in="SourceGraphic" in2="effect1_dropShadow_646_514" result="shape"/>
</filter>
</defs>
</svg>
