<svg width="46" height="41" viewBox="0 0 46 41" fill="none" xmlns="http://www.w3.org/2000/svg">
<path d="M29.2359 40.5309H15.7931C14.9824 40.5309 14.2544 40.1256 13.834 39.4425C13.4287 38.7745 13.3912 37.9639 13.7515 37.2659L16.4761 31.9292C16.6037 31.6815 16.8589 31.5239 17.1441 31.5239H27.8774C28.1626 31.5239 28.4178 31.6815 28.5454 31.9292L31.27 37.2659C31.6228 37.9639 31.5927 38.7745 31.1874 39.4425C30.7671 40.1256 30.039 40.5309 29.2284 40.5309H29.2359ZM17.6095 33.0251L15.095 37.9489C14.9299 38.2791 15.0575 38.5568 15.125 38.6619C15.1926 38.7745 15.3953 39.0297 15.8006 39.0297H29.2434C29.6487 39.0297 29.8514 38.767 29.919 38.6619C29.979 38.5568 30.1141 38.2791 29.949 37.9489L27.4345 33.0251H17.617H17.6095Z" fill="#E93525"/>
<path d="M21.7678 14.261H5.25506C4.42943 14.261 3.75391 13.5855 3.75391 12.7599V5.25409C3.75391 4.42845 4.42943 3.75293 5.25506 3.75293H21.7678C22.5934 3.75293 23.269 4.42845 23.269 5.25409V12.7599C23.269 13.5855 22.5934 14.261 21.7678 14.261ZM5.25506 5.25409V12.7599H21.7678V5.25409H5.25506Z" fill="#E93525"/>
<path d="M11.2597 24.7692H5.25506C4.42943 24.7692 3.75391 24.0936 3.75391 23.268V17.2634C3.75391 16.4377 4.42943 15.7622 5.25506 15.7622H11.2597C12.0853 15.7622 12.7608 16.4377 12.7608 17.2634V23.268C12.7608 24.0936 12.0853 24.7692 11.2597 24.7692ZM5.25506 17.2634V23.268H11.2597V17.2634H5.25506Z" fill="#E93525"/>
<path d="M21.7675 24.7692H15.7629C14.9372 24.7692 14.2617 24.0936 14.2617 23.268V17.2634C14.2617 16.4377 14.9372 15.7622 15.7629 15.7622H21.7675C22.5931 15.7622 23.2687 16.4377 23.2687 17.2634V23.268C23.2687 24.0936 22.5931 24.7692 21.7675 24.7692ZM15.7629 17.2634V23.268H21.7675V17.2634H15.7629Z" fill="#E93525"/>
<path d="M40.5327 24.7687H29.274C28.8612 24.7687 28.5234 24.431 28.5234 24.0182C28.5234 23.6053 28.8612 23.2676 29.274 23.2676H40.5327C40.9455 23.2676 41.2833 23.6053 41.2833 24.0182C41.2833 24.431 40.9455 24.7687 40.5327 24.7687Z" fill="#E93525"/>
<path d="M40.5327 21.0158H29.274C28.8612 21.0158 28.5234 20.678 28.5234 20.2652C28.5234 19.8524 28.8612 19.5146 29.274 19.5146H40.5327C40.9455 19.5146 41.2833 19.8524 41.2833 20.2652C41.2833 20.678 40.9455 21.0158 40.5327 21.0158Z" fill="#E93525"/>
<path d="M40.5327 17.2629H29.274C28.8612 17.2629 28.5234 16.9251 28.5234 16.5123C28.5234 16.0995 28.8612 15.7617 29.274 15.7617H40.5327C40.9455 15.7617 41.2833 16.0995 41.2833 16.5123C41.2833 16.9251 40.9455 17.2629 40.5327 17.2629Z" fill="#E93525"/>
<path d="M41.2818 0H3.75289C1.6813 0 0 1.6813 0 3.75289V29.2726C0 31.3442 1.6813 33.0255 3.75289 33.0255H41.2818C43.3534 33.0255 45.0347 31.3442 45.0347 29.2726V3.75289C45.0347 1.6813 43.3534 0 41.2818 0ZM43.5336 3.75289V27.0208H26.2703V1.50116H41.2818C42.5203 1.50116 43.5336 2.51444 43.5336 3.75289ZM3.75289 1.50116H24.7691V27.0208H1.50116V3.75289C1.50116 2.51444 2.51444 1.50116 3.75289 1.50116ZM43.5336 29.2726C43.5336 30.511 42.5203 31.5243 41.2818 31.5243H3.75289C2.51444 31.5243 1.50116 30.511 1.50116 29.2726V28.522H43.5336V29.2726Z" fill="#E93525"/>
<path d="M38.281 12.0094C38.1234 12.0094 37.9658 11.9568 37.8307 11.8593C37.5004 11.6116 37.4329 11.1387 37.6806 10.8085L39.5945 8.25649L37.6806 5.70452C37.4329 5.37426 37.5004 4.9014 37.8307 4.65371C38.1609 4.40602 38.6338 4.47357 38.8815 4.80382L41.1332 7.80614C41.3359 8.07635 41.3359 8.43663 41.1332 8.70683L38.8815 11.7091C38.7314 11.9043 38.5062 12.0094 38.281 12.0094Z" fill="#E93525"/>
<path d="M30.7737 12.0094C30.5485 12.0094 30.3234 11.9043 30.1733 11.7091L27.9215 8.70683C27.7189 8.43663 27.7189 8.07635 27.9215 7.80614L30.1733 4.80382C30.421 4.47357 30.8938 4.40602 31.2241 4.65371C31.5543 4.9014 31.6219 5.37426 31.3742 5.70452L29.4602 8.25649L31.3742 10.8085C31.6219 11.1387 31.5543 11.6116 31.2241 11.8593C31.089 11.9568 30.9313 12.0094 30.7737 12.0094Z" fill="#E93525"/>
<path d="M33.7771 12.0094C33.7171 12.0094 33.657 12.0094 33.597 11.9868C33.1916 11.8893 32.9515 11.4764 33.049 11.0786L34.5502 5.07401C34.6478 4.6687 35.0531 4.42851 35.4584 4.52609C35.8637 4.62366 36.1039 5.03648 36.0063 5.43429L34.5052 11.4389C34.4226 11.7842 34.1149 12.0094 33.7771 12.0094Z" fill="#E93525"/>
</svg>
