<svg width="50" height="50" viewBox="0 0 50 50" fill="none" xmlns="http://www.w3.org/2000/svg">
<path d="M32.7755 0C23.2779 0 15.5509 7.72689 15.5509 17.2246C15.5509 21.1326 16.8599 24.7401 19.0613 27.6335L15.572 31.1228C15.5499 31.1449 15.5297 31.1682 15.5106 31.1922C15.2249 31.1327 14.9314 31.1015 14.6329 31.1015C13.4936 31.1015 12.4224 31.5452 11.6164 32.3512L1.24935 42.7183C0.443629 43.5238 0 44.5949 0 45.7343C0 46.8738 0.443628 47.945 1.24924 48.7503C2.05518 49.5563 3.12646 50 4.26577 50C5.40508 50 6.47635 49.5563 7.28229 48.7503L17.6494 38.3833C18.4551 37.5779 18.8987 36.5067 18.8987 35.3672C18.8987 35.0686 18.8675 34.7749 18.808 34.4893C18.832 34.4703 18.8552 34.4501 18.8773 34.428L22.3665 30.9388C25.26 33.1403 28.8675 34.4492 32.7755 34.4492C42.2731 34.4492 50.0001 26.7224 50.0001 17.2246C50.0001 7.72689 42.2731 0 32.7755 0ZM6.13672 47.605C5.63683 48.1049 4.97246 48.3801 4.26577 48.3801C3.55907 48.3801 2.89471 48.1049 2.39471 47.6049C1.89503 47.1054 1.61987 46.4411 1.61987 45.7343C1.61987 45.0275 1.89503 44.3633 2.39482 43.8637L11.7575 34.5011L15.499 38.2427L6.13672 47.605ZM16.6388 37.0916L12.91 33.3629C13.4041 32.9378 14.0178 32.7229 14.6329 32.7229C15.3105 32.7229 15.9882 32.9809 16.504 33.4968C17.0037 33.9962 17.2788 34.6605 17.2788 35.3673C17.2788 36.0072 17.0525 36.612 16.6388 37.0916ZM18.1134 32.9012C17.9754 32.7072 17.8212 32.5229 17.6495 32.3513C17.4775 32.1795 17.293 32.0252 17.0989 31.887L20.1055 28.8805C20.4295 29.2324 20.7679 29.5708 21.1199 29.8948L18.1134 32.9012ZM32.7755 32.8294C24.1709 32.8294 17.1707 25.8292 17.1707 17.2246C17.1707 8.62009 24.1709 1.61987 32.7755 1.61987C41.38 1.61987 48.3802 8.62009 48.3802 17.2246C48.3802 25.8292 41.38 32.8294 32.7755 32.8294Z" fill="#252525"/>
<path d="M32.7748 3.45605C25.1825 3.45605 19.0059 9.63273 19.0059 17.225C19.0059 24.8172 25.1825 30.9938 32.7748 30.9938C40.367 30.9938 46.5437 24.8172 46.5437 17.225C46.5437 9.63273 40.367 3.45605 32.7748 3.45605ZM32.7748 29.374C26.0758 29.374 20.6257 23.924 20.6257 17.225C20.6257 10.5259 26.0758 5.07592 32.7748 5.07592C39.4737 5.07592 44.9238 10.5259 44.9238 17.225C44.9238 23.924 39.4737 29.374 32.7748 29.374Z" fill="#252525"/>
<path d="M38.4007 8.5788C38.0259 8.33452 37.5242 8.44024 37.2799 8.81508C37.0357 9.18981 37.1415 9.69165 37.5162 9.93581C39.9918 11.5492 41.4698 14.274 41.4698 17.2248C41.4698 19.2407 40.7642 21.2054 39.4829 22.7568C39.198 23.1016 39.2467 23.6122 39.5916 23.897C39.7426 24.0218 39.9253 24.0825 40.1069 24.0825C40.3402 24.0825 40.5717 23.9821 40.7319 23.7883C42.2523 21.9474 43.0897 19.6164 43.0897 17.2249C43.0898 13.7245 41.3369 10.4924 38.4007 8.5788Z" fill="#252525"/>
<path d="M34.6509 7.08122C34.0367 6.96837 33.4061 6.91113 32.7767 6.91113C32.3293 6.91113 31.9668 7.27377 31.9668 7.72107C31.9668 8.16837 32.3293 8.531 32.7767 8.531C33.3083 8.531 33.8403 8.57928 34.3583 8.67442C34.4078 8.68349 34.457 8.68792 34.5056 8.68792C34.8888 8.68792 35.2294 8.41459 35.3012 8.0242C35.382 7.58424 35.0909 7.1621 34.6509 7.08122Z" fill="#252525"/>
</svg>
