<svg width="40" height="51" viewBox="0 0 40 51" fill="none" xmlns="http://www.w3.org/2000/svg">
<path d="M13.9932 15.4117C13.8916 15.6669 13.8591 15.9436 13.8988 16.2148C13.9386 16.486 14.0493 16.7425 14.2202 16.9592C14.5624 17.3954 14.9609 17.7862 15.4056 18.1219C15.6264 18.2897 15.8879 18.3985 16.1645 18.4375C16.441 18.4765 16.7231 18.4445 16.9833 18.3445L17.0786 18.3073C17.3724 18.4523 17.6766 18.5756 17.989 18.6764L18.0295 18.7707C18.1421 19.0217 18.319 19.2399 18.543 19.404C18.767 19.5681 19.0304 19.6727 19.3077 19.7075C19.8629 19.777 20.4248 19.777 20.9799 19.7075C21.2572 19.6729 21.5206 19.5684 21.7445 19.4042C21.9683 19.24 22.145 19.0218 22.2573 18.7707L22.2986 18.6764C22.611 18.5756 22.9153 18.4523 23.209 18.3073L23.3043 18.3445C23.5645 18.4444 23.8466 18.4764 24.1231 18.4374C24.3997 18.3983 24.6612 18.2897 24.8821 18.1219C25.3267 17.7862 25.7252 17.3954 26.0675 16.9592C26.2383 16.7425 26.349 16.486 26.3888 16.2148C26.4286 15.9436 26.3961 15.6669 26.2944 15.4117L26.2565 15.3182C26.4042 15.0301 26.53 14.7316 26.6328 14.4253L26.7289 14.3855C26.9848 14.2751 27.2072 14.1015 27.3746 13.8819C27.5419 13.6622 27.6485 13.4038 27.684 13.1318C27.7549 12.5873 27.7549 12.0361 27.684 11.4916C27.648 11.2204 27.5412 10.9629 27.3738 10.7441C27.2065 10.5253 26.9843 10.3526 26.7289 10.2428L26.6328 10.2023C26.53 9.89592 26.4042 9.59746 26.2565 9.30936L26.2944 9.21585C26.3961 8.96064 26.4286 8.68396 26.3888 8.41276C26.349 8.14156 26.2383 7.88509 26.0675 7.66833C25.7252 7.23217 25.3267 6.84135 24.8821 6.50562C24.6612 6.33782 24.3997 6.22909 24.1232 6.19007C23.8466 6.15105 23.5645 6.18308 23.3043 6.28301L23.209 6.32025C22.9153 6.1753 22.611 6.05193 22.2986 5.95116L22.2581 5.85682C22.1455 5.60584 21.9686 5.3877 21.7446 5.22356C21.5207 5.05942 21.2572 4.95486 20.9799 4.92004C20.4247 4.85218 19.863 4.85218 19.3077 4.92004C19.0312 4.95536 18.7687 5.06016 18.5456 5.2243C18.3225 5.38843 18.1465 5.60631 18.0346 5.85682L17.9932 5.95116C17.6809 6.05193 17.3766 6.1753 17.0829 6.32025L16.9875 6.28301C16.7274 6.18316 16.4452 6.15118 16.1687 6.1902C15.8922 6.22921 15.6307 6.33789 15.4098 6.50562C14.9651 6.84135 14.5667 7.23217 14.2244 7.66833C14.0535 7.88509 13.9428 8.14156 13.903 8.41276C13.8633 8.68396 13.8958 8.96064 13.9974 9.21585L14.0354 9.30936C13.8876 9.59746 13.7618 9.89592 13.6591 10.2023L13.5629 10.242C13.307 10.3525 13.0846 10.526 12.9173 10.7457C12.7499 10.9654 12.6433 11.2237 12.6078 11.4957C12.537 12.0403 12.537 12.5914 12.6078 13.1359C12.6438 13.4072 12.7507 13.6647 12.918 13.8835C13.0854 14.1023 13.3075 14.2749 13.5629 14.3847L13.6591 14.4253C13.7618 14.7316 13.8876 15.0301 14.0354 15.3182L13.9932 15.4117ZM14.6834 11.5669C14.801 11.5174 14.9055 11.4422 14.9891 11.3471C15.0727 11.2521 15.1332 11.1396 15.166 11.0182C15.2826 10.5831 15.4588 10.1656 15.6899 9.77692C15.7542 9.6684 15.7924 9.54696 15.8018 9.4218C15.8111 9.29664 15.7913 9.17103 15.7439 9.05447L15.5566 8.67049C15.6836 8.50937 15.8208 8.35625 15.9675 8.21203C16.1076 8.08818 16.2384 7.9546 16.359 7.81232L16.8205 7.99273C16.9393 8.03926 17.0674 8.05867 17.195 8.04949C17.3226 8.04032 17.4464 8.00279 17.557 7.93976C17.9532 7.71312 18.379 7.54025 18.8226 7.42586C18.9463 7.39374 19.061 7.33443 19.1579 7.25242C19.2548 7.17041 19.3314 7.06785 19.382 6.9525L19.5203 6.55527C19.7271 6.53004 19.9354 6.51788 20.1438 6.51886C20.332 6.52906 20.5207 6.52519 20.7083 6.50728L20.904 6.95581C20.9545 7.07116 21.0311 7.17372 21.1281 7.25573C21.225 7.33774 21.3396 7.39705 21.4634 7.42917C21.907 7.54356 22.3327 7.71643 22.7289 7.94307C22.8396 8.0061 22.9634 8.04363 23.091 8.0528C23.2186 8.06198 23.3467 8.04257 23.4655 7.99604L23.8511 7.81232C24.0153 7.93691 24.1714 8.07152 24.3185 8.21534C24.4447 8.35276 24.5809 8.48108 24.726 8.59932L24.5421 9.05199C24.4946 9.16854 24.4748 9.29416 24.4842 9.41932C24.4935 9.54448 24.5318 9.66592 24.5961 9.77444C24.8271 10.1631 25.0034 10.5807 25.12 11.0158C25.1527 11.1371 25.2132 11.2496 25.2968 11.3447C25.3804 11.4397 25.485 11.5149 25.6026 11.5644L26.0076 11.7001C26.035 11.9029 26.0491 12.1072 26.0498 12.3117C26.0495 12.5031 26.0377 12.6943 26.0143 12.8844L25.6043 13.0573C25.4867 13.1069 25.3821 13.182 25.2985 13.2771C25.2149 13.3722 25.1544 13.4846 25.1217 13.606C25.0051 14.0411 24.8288 14.4587 24.5977 14.8473C24.5335 14.9558 24.4952 15.0773 24.4859 15.2024C24.4765 15.3276 24.4963 15.4532 24.5437 15.5698L24.731 15.948C24.604 16.1091 24.4668 16.2622 24.3202 16.4064C24.1801 16.5303 24.0492 16.6639 23.9287 16.8061L23.4672 16.6257C23.3483 16.5792 23.2203 16.5598 23.0927 16.569C22.9651 16.5781 22.8413 16.6157 22.7306 16.6787C22.3344 16.9053 21.9087 17.0782 21.4651 17.1926C21.3413 17.2247 21.2267 17.284 21.1297 17.366C21.0328 17.448 20.9562 17.5506 20.9057 17.666L20.7673 18.0632C20.5606 18.0901 20.3523 18.1039 20.1438 18.1046C19.9556 18.0948 19.767 18.0986 19.5794 18.1161L19.3836 17.6676C19.3331 17.5523 19.2565 17.4497 19.1596 17.3677C19.0627 17.2857 18.948 17.2264 18.8243 17.1942C18.3807 17.0799 17.9549 16.907 17.5587 16.6803C17.4305 16.6074 17.285 16.5689 17.1369 16.5686C17.0299 16.5684 16.9239 16.5884 16.8247 16.6274L16.4391 16.8111C16.2748 16.6865 16.1187 16.5519 15.9717 16.4081C15.8454 16.2707 15.7092 16.1423 15.5642 16.0241L15.7481 15.5714C15.7956 15.4549 15.8153 15.3293 15.806 15.2041C15.7966 15.0789 15.7584 14.9575 15.6941 14.849C15.4631 14.4603 15.2868 14.0428 15.1702 13.6077C15.1374 13.4863 15.077 13.3738 14.9934 13.2788C14.9097 13.1837 14.8052 13.1085 14.6876 13.059L14.2826 12.9233C14.2543 12.7206 14.2394 12.5163 14.2379 12.3117C14.2478 12.1271 14.2439 11.9421 14.2261 11.7581L14.6834 11.5669Z" fill="#252525"/>
<path d="M19.8543 15.9639C20.4895 15.9639 21.1104 15.7669 21.6386 15.398C22.1667 15.0291 22.5784 14.5047 22.8215 13.8911C23.0645 13.2776 23.1281 12.6025 23.0042 11.9512C22.8803 11.2998 22.5744 10.7016 22.1253 10.232C21.6761 9.7624 21.1038 9.44261 20.4808 9.31305C19.8578 9.1835 19.2121 9.24999 18.6252 9.50412C18.0383 9.75826 17.5367 10.1886 17.1838 10.7408C16.8309 11.2929 16.6426 11.9421 16.6426 12.6062C16.6426 13.4967 16.981 14.3507 17.5833 14.9804C18.1856 15.6101 19.0025 15.9639 19.8543 15.9639ZM19.8543 10.9274C20.1719 10.9274 20.4823 11.0258 20.7464 11.2103C21.0105 11.3948 21.2163 11.657 21.3379 11.9637C21.4594 12.2705 21.4912 12.6081 21.4292 12.9337C21.3673 13.2594 21.2143 13.5585 20.9898 13.7933C20.7652 14.0281 20.479 14.188 20.1675 14.2528C19.856 14.3176 19.5332 14.2843 19.2397 14.1572C18.9463 14.0302 18.6955 13.815 18.519 13.5389C18.3426 13.2628 18.2484 12.9382 18.2484 12.6062C18.2484 12.1609 18.4176 11.7339 18.7188 11.4191C19.0199 11.1042 19.4284 10.9274 19.8543 10.9274Z" fill="#252525"/>
<path d="M0.000121695 40.9567C-0.00347814 41.2332 0.0728557 41.5049 0.219871 41.7387C0.366887 41.9725 0.578272 42.1585 0.828405 42.2741L19.3915 50.868C19.5824 50.9547 19.7894 50.9998 19.9989 51.0002C20.2118 50.9998 20.4222 50.9541 20.6164 50.8663L39.1786 42.2741C39.4248 42.1575 39.6327 41.9728 39.7781 41.7417C39.9236 41.5107 40.0004 41.2427 39.9996 40.9694C39.9988 40.696 39.9204 40.4285 39.7737 40.1983C39.627 39.9681 39.4179 39.7846 39.1711 39.6695L35.658 38.0441L39.1786 36.4154C39.4248 36.2988 39.6328 36.1142 39.7783 35.8832C39.9238 35.6522 40.0007 35.3843 40 35.1109C39.9993 34.8376 39.921 34.5701 39.7744 34.3398C39.6277 34.1095 39.4187 33.926 39.1719 33.8107L35.6646 32.187L39.1644 30.5684C39.4123 30.4537 39.6223 30.2701 39.7695 30.0393C39.9167 29.8085 39.9949 29.5401 39.9949 29.266C39.9949 28.9919 39.9167 28.7236 39.7695 28.4928C39.6223 28.262 39.4123 28.0784 39.1644 27.9637L26.7635 22.2264C26.9727 21.9602 27.209 21.7167 27.4685 21.4999C29.3152 19.954 30.6413 17.8729 31.2655 15.5411C31.8897 13.2094 31.7814 10.7409 30.9556 8.47327C30.1297 6.20566 28.6266 4.24968 26.6517 2.87286C24.6769 1.49604 22.3268 0.765619 19.9229 0.781504C17.519 0.797389 15.1787 1.5588 13.222 2.9616C11.2654 4.3644 9.78799 6.34008 8.99191 8.61841C8.19582 10.8967 8.11993 13.3665 8.77462 15.6898C9.4293 18.0131 10.7826 20.0765 12.6494 21.5978C12.8724 21.7814 13.0737 21.99 13.2493 22.2197L0.833405 27.9637C0.585523 28.0784 0.37555 28.262 0.228367 28.4928C0.0811831 28.7236 0.00295712 28.9919 0.00295712 29.266C0.00295712 29.5401 0.0811831 29.8085 0.228367 30.0393C0.37555 30.2701 0.585523 30.4537 0.833405 30.5684L4.33319 32.187L0.833405 33.8091C0.585518 33.9243 0.375643 34.1085 0.228557 34.3397C0.0814717 34.5709 0.00331591 34.8395 0.00331591 35.1139C0.00331591 35.3883 0.0814717 35.6569 0.228557 35.8881C0.375643 36.1193 0.585518 36.3034 0.833405 36.4187L4.34653 38.0441L0.833405 39.6678C0.585731 39.7793 0.37536 39.9602 0.227548 40.1888C0.0797361 40.4175 0.000766996 40.6841 0.000121695 40.9567ZM24.1653 30.9132C24.1653 31.1352 24.0775 31.348 23.9213 31.505C23.765 31.662 23.5531 31.7501 23.3321 31.7501H16.6658C16.4448 31.7501 16.2328 31.662 16.0766 31.505C15.9203 31.348 15.8325 31.1352 15.8325 30.9132C15.8325 30.6912 15.9203 30.4783 16.0766 30.3214C16.2328 30.1644 16.4448 30.0762 16.6658 30.0762H23.3321C23.5531 30.0762 23.765 30.1644 23.9213 30.3214C24.0775 30.4783 24.1653 30.6912 24.1653 30.9132ZM24.9986 28.4023H14.9992C14.7782 28.4023 14.5663 28.3141 14.41 28.1572C14.2537 28.0002 14.1659 27.7873 14.1659 27.5653C14.1659 27.3434 14.2537 27.1305 14.41 26.9735C14.5663 26.8166 14.7782 26.7284 14.9992 26.7284H24.9986C25.2196 26.7284 25.4316 26.8166 25.5878 26.9735C25.7441 27.1305 25.8319 27.3434 25.8319 27.5653C25.8319 27.7873 25.7441 28.0002 25.5878 28.1572C25.4316 28.3141 25.2196 28.4023 24.9986 28.4023ZM9.99952 12.5001C9.99947 10.81 10.424 9.14722 11.2339 7.66577C12.0438 6.18433 13.2128 4.93211 14.6326 4.0251C16.0524 3.1181 17.6771 2.58563 19.3563 2.47702C21.0355 2.36841 22.7148 2.68717 24.2387 3.40377C25.7626 4.12038 27.0819 5.21165 28.0742 6.57652C29.0666 7.9414 29.7 9.53573 29.9158 11.2119C30.1315 12.888 29.9227 14.5917 29.3086 16.1652C28.6945 17.7387 27.695 19.1311 26.4027 20.2135C25.7153 20.77 25.1585 21.4719 24.7718 22.2691C24.3851 23.0663 24.178 23.9393 24.1653 24.826V25.0545H15.8325V24.9708C15.8466 24.0818 15.6622 23.2009 15.2929 22.3929C14.9236 21.5849 14.3788 20.8702 13.6985 20.3014C12.5402 19.3617 11.6065 18.1731 10.9664 16.8229C10.3262 15.4727 9.9958 13.9955 9.99952 12.5001ZM13.9909 23.7195C14.1057 24.1266 14.1646 24.5476 14.1659 24.9708V25.2118C13.6636 25.388 13.2308 25.7214 12.9312 26.163C12.6315 26.6046 12.4809 27.1312 12.5014 27.6652C12.5219 28.1993 12.7125 28.7126 13.0452 29.1297C13.3778 29.5468 13.8349 29.8457 14.3493 29.9825C14.1959 30.3629 14.1381 30.7754 14.1809 31.1836C14.2237 31.5918 14.3658 31.9831 14.5946 32.3232C14.8235 32.6632 15.1321 32.9415 15.4933 33.1334C15.8545 33.3254 16.2571 33.4252 16.6658 33.4241H23.3321C23.7411 33.4255 24.1442 33.3257 24.5058 33.1335C24.8673 32.9413 25.1762 32.6627 25.4052 32.3222C25.6341 31.9818 25.7761 31.5899 25.8186 31.1813C25.861 30.7726 25.8026 30.3597 25.6486 29.9791C26.1629 29.8424 26.6201 29.5435 26.9527 29.1264C27.2853 28.7092 27.4759 28.1959 27.4964 27.6619C27.5169 27.1279 27.3663 26.6013 27.0667 26.1597C26.7671 25.718 26.3342 25.3846 25.8319 25.2085V24.826C25.8347 24.4497 25.8908 24.0757 25.9986 23.7153L37.9978 29.2652L19.9989 37.5879L2 29.2652L13.9909 23.7195ZM6.32474 33.1077L19.3873 39.1472C19.579 39.2368 19.7879 39.2832 19.9993 39.2832C20.2108 39.2832 20.4197 39.2368 20.6114 39.1472L33.6764 33.1069L38.0095 35.1156L19.9989 43.4483L1.99084 35.1147L6.32474 33.1077ZM6.33307 38.9664L19.3931 45.0101C19.5836 45.0963 19.79 45.1411 19.9989 45.1415C20.2121 45.141 20.4228 45.0953 20.6172 45.0076L33.6648 38.9656L38.0037 40.9743L19.9989 49.3071L1.99167 40.9743L6.33307 38.9664Z" fill="#252525"/>
</svg>
