<svg width="25" height="41" viewBox="0 0 25 41" fill="none" xmlns="http://www.w3.org/2000/svg">
<path d="M22.1958 0.53125H2.80417C2.0607 0.532061 1.34792 0.818784 0.822218 1.32851C0.296512 1.83824 0.000814545 2.52935 0 3.2502V37.8123C0.000814545 38.5332 0.296512 39.2243 0.822218 39.734C1.34792 40.2437 2.0607 40.5304 2.80417 40.5312H22.1958C22.9393 40.5304 23.6521 40.2437 24.1778 39.734C24.7035 39.2243 24.9992 38.5332 25 37.8123V3.2502C24.9992 2.52935 24.7035 1.83824 24.1778 1.32851C23.6521 0.818784 22.9393 0.532061 22.1958 0.53125ZM17.165 1.82157L16.2827 3.78665C16.2493 3.86862 16.1905 3.93856 16.1145 3.98688C16.0384 4.0352 15.9488 4.05955 15.858 4.05657H9.14205C9.05116 4.05956 8.96154 4.03521 8.88547 3.98687C8.80941 3.93854 8.75063 3.86857 8.71719 3.78657L7.83503 1.82157H17.165ZM23.6693 37.8123C23.6689 38.1911 23.5135 38.5542 23.2373 38.822C22.961 39.0899 22.5865 39.2405 22.1958 39.2409H2.80417C2.41353 39.2405 2.03902 39.0898 1.7628 38.822C1.48658 38.5542 1.33122 38.1911 1.3308 37.8123V3.2502C1.33122 2.87144 1.48658 2.50831 1.7628 2.24048C2.03902 1.97266 2.41353 1.822 2.80417 1.82157H6.3837L7.49692 4.30141C7.63384 4.61383 7.86319 4.8799 8.15601 5.06598C8.44882 5.25207 8.79195 5.34982 9.14205 5.34689H15.858C16.208 5.34983 16.5511 5.25209 16.8439 5.06602C17.1367 4.87995 17.3661 4.6139 17.503 4.30149L18.6164 1.82157H22.1958C22.5865 1.822 22.961 1.97266 23.2372 2.24048C23.5134 2.50831 23.6688 2.87144 23.6692 3.2502L23.6693 37.8123ZM14.2705 37.1902C14.2705 37.3613 14.2004 37.5254 14.0756 37.6464C13.9508 37.7674 13.7815 37.8354 13.6051 37.8354H11.3949C11.2185 37.8354 11.0492 37.7674 10.9244 37.6464C10.7996 37.5254 10.7295 37.3613 10.7295 37.1902C10.7295 37.0191 10.7996 36.855 10.9244 36.734C11.0492 36.613 11.2185 36.545 11.3949 36.545H13.6051C13.7815 36.545 13.9508 36.613 14.0756 36.734C14.2004 36.855 14.2705 37.0191 14.2705 37.1902ZM20.1084 14.2794L12.7513 11.2546C12.6692 11.2209 12.581 11.2035 12.4918 11.2035C12.4027 11.2035 12.3144 11.2209 12.2323 11.2546L4.82849 14.29C4.70654 14.34 4.60275 14.4242 4.53038 14.5317C4.45801 14.6392 4.42037 14.7651 4.42226 14.8935C4.46876 18.0462 4.63478 21.6396 6.02281 24.3848C7.19932 26.7116 9.19711 28.4332 12.3101 29.8017C12.3908 29.8372 12.478 29.8567 12.5665 29.8591C12.6551 29.8615 12.7432 29.8467 12.8258 29.8156C13.2835 29.6426 13.7259 29.4334 14.1483 29.1902C16.367 27.9146 18.149 25.725 19.3007 22.8583C20.3132 20.3388 20.7544 17.4071 20.5111 14.8151C20.5003 14.6988 20.4571 14.5876 20.3861 14.4933C20.3152 14.3989 20.2192 14.325 20.1084 14.2794ZM13.4696 28.0801C13.1897 28.2412 12.8995 28.3849 12.6008 28.5104C9.93321 27.2926 8.21872 25.7962 7.2177 23.8168C6.01166 21.4311 5.81462 18.212 5.76014 15.3087L12.4912 12.5491L19.2162 15.3141C19.5063 19.8071 17.6337 25.6859 13.4696 28.0801ZM15.8297 18.5031C15.9544 18.6241 16.0245 18.7882 16.0245 18.9593C16.0245 19.1304 15.9544 19.2945 15.8297 19.4154C15.3369 19.8932 14.8464 20.3722 14.358 20.8525C13.8649 21.3356 13.3708 21.8181 12.8757 22.2999C12.5786 22.5873 12.176 22.7487 11.7563 22.7487C11.3366 22.7487 10.934 22.5873 10.6369 22.2999C10.3957 22.066 10.1506 21.7982 9.91325 21.5388C9.67088 21.2739 9.42027 21 9.17016 20.7576C9.04536 20.6366 8.97524 20.4725 8.97523 20.3014C8.97523 20.1303 9.04533 19.9662 9.17012 19.8452C9.29491 19.7242 9.46417 19.6562 9.64065 19.6562C9.81714 19.6562 9.9864 19.7241 10.1112 19.8451C10.3893 20.1148 10.6534 20.4034 10.9088 20.6825C11.1434 20.9389 11.365 21.1811 11.5778 21.3874C11.6256 21.4325 11.6896 21.4577 11.7562 21.4577C11.8228 21.4577 11.8869 21.4325 11.9346 21.3874C12.4292 20.9079 12.9217 20.427 13.412 19.9449C13.9031 19.4636 14.3953 18.9831 14.8886 18.5032C14.9504 18.4433 15.0238 18.3957 15.1045 18.3633C15.1852 18.3309 15.2717 18.3142 15.3591 18.3142C15.4465 18.3142 15.533 18.3308 15.6138 18.3633C15.6945 18.3957 15.7679 18.4432 15.8297 18.5031Z" fill="#F22CCA"/>
</svg>
