<svg width="36" height="39" viewBox="0 0 36 39" fill="none" xmlns="http://www.w3.org/2000/svg">
<path fill-rule="evenodd" clip-rule="evenodd" d="M18.6313 33.3813C19.9036 33.6679 20.8547 34.8021 20.8547 36.1558C20.8547 37.7255 19.5756 39 18 39C16.4244 39 15.1453 37.7255 15.1453 36.1558C15.1453 34.8021 16.0964 33.6679 17.3687 33.3813V26.2858C17.3687 25.9386 17.6516 25.6567 18 25.6567C18.3484 25.6567 18.6313 25.9386 18.6313 26.2858V33.3813ZM18 34.5695C17.1213 34.5695 16.408 35.2802 16.408 36.1558C16.408 37.0312 17.1213 37.7419 18 37.7419C18.8787 37.7419 19.592 37.0312 19.592 36.1558C19.592 35.2802 18.8787 34.5695 18 34.5695ZM10.3161 20.5253H7.33017C4.04109 20.5253 1.35069 17.8445 1.35069 14.5696C1.35069 12.2422 2.70855 10.2156 4.67307 9.23632C4.67283 9.20581 4.67267 9.17538 4.67267 9.14495C4.67267 4.09476 8.78061 0 13.8494 0C16.189 0 18.3258 0.87294 19.9471 2.31059C20.7213 2.07439 21.5428 1.94709 22.3947 1.94709C26.5555 1.94709 30.0025 4.9791 30.6363 8.94625C33.0133 9.77445 34.6493 12.0295 34.6493 14.5696C34.6493 17.8445 31.9589 20.5253 28.6698 20.5253H26.826L23.6764 24.2206C23.6755 24.2217 23.6746 24.2228 23.6737 24.2239C23.4933 24.4326 23.2599 24.5412 22.9806 24.5412C22.7072 24.5412 22.468 24.4326 22.2876 24.2239C22.2867 24.2228 22.2857 24.2217 22.2848 24.2206L19.1353 20.5253H15.7226V23.3517C15.7226 24.0075 15.1868 24.5412 14.5286 24.5412H11.5101C10.8519 24.5412 10.3161 24.0075 10.3161 23.3517V20.5253ZM27.7564 19.2673H28.6698C31.2643 19.2673 33.3866 17.1528 33.3866 14.5696C33.3866 12.4533 31.9461 10.5883 29.8987 10.0347C29.6479 9.96686 29.4644 9.75275 29.4364 9.49524C29.0526 5.95804 26.0474 3.20516 22.3947 3.20516C21.5557 3.20516 20.7514 3.35038 20.0044 3.61694C19.778 3.69769 19.5253 3.64335 19.3524 3.47666C17.928 2.10293 15.9868 1.25806 13.8494 1.25806C9.47801 1.25806 5.93537 4.78953 5.93537 9.14495C5.93537 9.2967 5.93884 9.44846 5.94752 9.59848C5.96322 9.86661 5.80626 10.115 5.55695 10.217C3.83622 10.9203 2.61338 12.6091 2.61338 14.5696C2.61338 17.1528 4.73573 19.2673 7.33017 19.2673H10.3161V18.0035H9.14071C8.77919 18.0035 8.46359 17.8012 8.31199 17.4759C8.31144 17.4746 8.31081 17.4733 8.31025 17.472C8.15968 17.1432 8.20948 16.7852 8.4411 16.5082L8.44489 16.5038L12.3236 11.953C12.3245 11.9519 12.3254 11.9508 12.3263 11.9497C12.5067 11.741 12.7401 11.6323 13.0194 11.6323C13.2928 11.6323 13.532 11.741 13.7124 11.9497C13.7133 11.9508 13.7143 11.9519 13.7152 11.953L17.5939 16.5038C17.5951 16.5053 17.5963 16.5068 17.5976 16.5082C17.8292 16.7852 17.879 17.1432 17.7285 17.472C17.7279 17.4733 17.7273 17.4746 17.7267 17.4759C17.5751 17.8012 17.2596 18.0035 16.8981 18.0035H15.7226V19.2673H18.2049C18.1653 19.0826 18.1864 18.8875 18.2715 18.7016C18.2721 18.7003 18.2727 18.699 18.2733 18.6977C18.4249 18.3724 18.7404 18.1701 19.1019 18.1701H20.2774V12.8219C20.2774 12.1661 20.8132 11.6323 21.4714 11.6323H24.4899C25.1481 11.6323 25.6839 12.1661 25.6839 12.8219V18.1701H26.8593C27.2208 18.1701 27.5364 18.3724 27.688 18.6977C27.6886 18.699 27.6892 18.7003 27.6897 18.7016C27.7749 18.8875 27.796 19.0826 27.7564 19.2673ZM9.89541 16.7454H10.9475C11.2962 16.7454 11.5788 17.027 11.5788 17.3744V23.2832H14.4599V17.3744C14.4599 17.027 14.7426 16.7454 15.0912 16.7454H16.1433L13.0194 13.0802C12.3741 13.8373 10.721 15.7768 9.89541 16.7454ZM19.8567 19.4282L22.9806 23.0933C23.6259 22.3363 25.2789 20.3968 26.1046 19.4282H25.0525C24.7038 19.4282 24.4212 19.1466 24.4212 18.7992V12.8904H21.5401V18.7992C21.5401 19.1466 21.2574 19.4282 20.9088 19.4282H19.8567ZM30.7302 30.5815L27.0302 26.8951C26.9118 26.7771 26.8453 26.6171 26.8453 26.4503V22.2281C26.8453 21.881 27.1282 21.5991 27.4767 21.5991C27.8251 21.5991 28.108 21.881 28.108 22.2281V26.1897L31.6231 29.692C32.0638 29.4144 32.5858 29.2538 33.1452 29.2538C34.7208 29.2538 36 30.5283 36 32.0981C36 33.6679 34.7208 34.9423 33.1452 34.9423C31.5697 34.9423 30.2905 33.6679 30.2905 32.0981C30.2905 31.5407 30.4517 31.0206 30.7302 30.5815ZM33.1452 30.5118C32.2665 30.5118 31.5532 31.2226 31.5532 32.0981C31.5532 32.9736 32.2665 33.6843 33.1452 33.6843C34.024 33.6843 34.7373 32.9736 34.7373 32.0981C34.7373 31.2226 34.024 30.5118 33.1452 30.5118ZM5.26977 30.5815C5.54827 31.0206 5.7095 31.5407 5.7095 32.0981C5.7095 33.6679 4.43031 34.9423 2.85479 34.9423C1.27919 34.9423 0 33.6679 0 32.0981C0 30.5283 1.27919 29.2538 2.85479 29.2538C3.41416 29.2538 3.93621 29.4144 4.37689 29.692L7.89199 26.1897V22.2281C7.89199 21.881 8.17491 21.5991 8.52333 21.5991C8.87176 21.5991 9.15468 21.881 9.15468 22.2281V26.4503C9.15468 26.6171 9.08815 26.7771 8.96977 26.8951L5.26977 30.5815ZM2.85479 30.5118C1.97603 30.5118 1.26269 31.2226 1.26269 32.0981C1.26269 32.9736 1.97603 33.6843 2.85479 33.6843C3.73347 33.6843 4.44681 32.9736 4.44681 32.0981C4.44681 31.2226 3.73347 30.5118 2.85479 30.5118Z" fill="#226FEF"/>
</svg>
