<svg width="40" height="40" viewBox="0 0 40 40" fill="none" xmlns="http://www.w3.org/2000/svg">
<path d="M39.0781 34.5938H37.1562V14.0938H35.875V34.5938H3.84375V13.4531H7.04688V14.0938H5.125C4.77073 14.0938 4.48438 14.3801 4.48438 14.7344V33.3125C4.48438 33.6668 4.77073 33.9531 5.125 33.9531H34.5938C34.948 33.9531 35.2344 33.6668 35.2344 33.3125V14.7344H33.9531V32.6719H5.76562V15.375H7.04688V19.2188C7.04688 19.573 7.33323 19.8594 7.6875 19.8594H16.6562C17.0105 19.8594 17.2969 19.573 17.2969 19.2188V15.375H23.0625V14.0938H17.2969V13.4531H23.0625V12.1719H17.2969V10.25C17.2969 9.89573 17.0105 9.60938 16.6562 9.60938H7.6875C7.33323 9.60938 7.04688 9.89573 7.04688 10.25V12.1719H3.20312C2.84886 12.1719 2.5625 12.4582 2.5625 12.8125V34.5938H0.640625C0.286359 34.5938 0 34.8801 0 35.2344V37.7969C0 38.8565 0.862281 39.7188 1.92188 39.7188H37.7969C38.8565 39.7188 39.7188 38.8565 39.7188 37.7969V35.2344C39.7188 34.8801 39.4324 34.5938 39.0781 34.5938ZM8.32812 10.8906H16.0156V18.5781H8.32812V10.8906ZM38.4375 37.7969C38.4375 38.1505 38.1505 38.4375 37.7969 38.4375H1.92188C1.56825 38.4375 1.28125 38.1505 1.28125 37.7969V35.875H38.4375V37.7969Z" fill="#EB3D2E"/>
<path d="M23.7031 9.60938H24.6423C24.755 9.96748 24.8985 10.3141 25.0734 10.6465L24.4085 11.3115C24.158 11.562 24.158 11.9669 24.4085 12.2174L26.2201 14.029C26.4706 14.2795 26.8755 14.2795 27.126 14.029L27.791 13.3641C28.1241 13.5383 28.4707 13.6825 28.8281 13.7952V14.7344C28.8281 15.0886 29.1145 15.375 29.4688 15.375H32.0312C32.3855 15.375 32.6719 15.0886 32.6719 14.7344V13.7952C33.03 13.6825 33.3766 13.539 33.709 13.3641L34.374 14.029C34.6245 14.2795 35.0294 14.2795 35.2799 14.029L37.0915 12.2174C37.342 11.9669 37.342 11.562 37.0915 11.3115L36.4266 10.6465C36.6008 10.3134 36.745 9.96684 36.8577 9.60938H37.7969C38.1511 9.60938 38.4375 9.32302 38.4375 8.96875V6.40625C38.4375 6.05198 38.1511 5.76562 37.7969 5.76562H36.8577C36.745 5.40752 36.6015 5.06094 36.4266 4.72845L37.0915 4.06348C37.342 3.813 37.342 3.40812 37.0915 3.15764L35.2799 1.34595C35.0294 1.09547 34.6245 1.09547 34.374 1.34595L33.709 2.01092C33.3766 1.83603 33.03 1.69253 32.6719 1.57978V0.640625C32.6719 0.286359 32.3855 0 32.0312 0H29.4688C29.1145 0 28.8281 0.286359 28.8281 0.640625V1.57978C28.47 1.69253 28.1234 1.83603 27.791 2.01092L27.126 1.34595C26.8755 1.09547 26.4706 1.09547 26.2201 1.34595L24.4085 3.15764C24.158 3.40812 24.158 3.813 24.4085 4.06348L25.0734 4.72845C24.8985 5.06094 24.755 5.40752 24.6423 5.76562H23.7031C23.3489 5.76562 23.0625 6.05198 23.0625 6.40625V8.96875C23.0625 9.32302 23.3489 9.60938 23.7031 9.60938ZM24.3438 7.04688H25.1317C25.4309 7.04688 25.6897 6.83995 25.7563 6.54847C25.8845 5.98664 26.1061 5.45364 26.4142 4.96356C26.5738 4.70988 26.5366 4.38059 26.3252 4.16919L25.7666 3.61056L26.6724 2.70472L27.231 3.26334C27.4431 3.47603 27.773 3.51191 28.0254 3.35239C28.5155 3.04425 29.0485 2.82259 29.6103 2.69447C29.9025 2.62784 30.1094 2.36839 30.1094 2.06922V1.28125H31.3906V2.06922C31.3906 2.36839 31.5975 2.6272 31.889 2.69383C32.4509 2.82195 32.9839 3.04361 33.4739 3.35175C33.727 3.51127 34.0563 3.47539 34.2683 3.2627L34.8269 2.70408L35.7328 3.60992L35.1742 4.16855C34.9627 4.37995 34.9256 4.70987 35.0851 4.96292C35.3932 5.453 35.6149 5.986 35.743 6.54783C35.8097 6.83995 36.0691 7.04688 36.3683 7.04688H37.1562V8.32812H36.3683C36.0691 8.32812 35.8103 8.53505 35.7437 8.82653C35.6155 9.38836 35.3939 9.92136 35.0858 10.4114C34.9262 10.6651 34.9634 10.9944 35.1748 11.2058L35.7334 11.7644L34.8276 12.6703L34.269 12.1117C34.0569 11.8996 33.727 11.8631 33.4746 12.0226C32.9845 12.3308 32.4515 12.5524 31.8897 12.6805C31.5975 12.7472 31.3906 13.0066 31.3906 13.3058V14.0938H30.1094V13.3058C30.1094 13.0066 29.9025 12.7478 29.611 12.6812C29.0491 12.553 28.5161 12.3314 28.0261 12.0232C27.773 11.8637 27.4437 11.9002 27.2317 12.1123L26.6731 12.6709L25.7672 11.7651L26.3258 11.2065C26.5373 10.995 26.5744 10.6651 26.4149 10.4121C26.1068 9.922 25.8851 9.389 25.757 8.82717C25.6903 8.53505 25.4309 8.32812 25.1317 8.32812H24.3438V7.04688Z" fill="#EB3D2E"/>
<path d="M30.7461 12.1719C33.2183 12.1719 35.2305 10.1597 35.2305 7.6875C35.2305 5.21533 33.2183 3.20312 30.7461 3.20312C28.2739 3.20312 26.2617 5.21533 26.2617 7.6875C26.2617 10.1597 28.2739 12.1719 30.7461 12.1719ZM30.7461 4.48438C32.5123 4.48438 33.9492 5.9213 33.9492 7.6875C33.9492 9.4537 32.5123 10.8906 30.7461 10.8906C28.9799 10.8906 27.543 9.4537 27.543 7.6875C27.543 5.9213 28.9799 4.48438 30.7461 4.48438Z" fill="#EB3D2E"/>
<path d="M33.3125 21.7812V20.5H32.6206C32.5117 19.7421 32.2132 19.0464 31.7737 18.4602L32.2644 17.9695L31.3586 17.0637L30.8679 17.5544C30.2817 17.1149 29.586 16.8164 28.8281 16.7075V16.0156H27.5469V16.7075C26.789 16.8164 26.0933 17.1149 25.5071 17.5544L25.0164 17.0637L24.1106 17.9695L24.6013 18.4602C24.1618 19.0464 23.8633 19.7421 23.7544 20.5H23.0625V21.7812H23.7544C23.8633 22.5391 24.1618 23.2348 24.6013 23.821L24.1106 24.3117L25.0164 25.2176L25.5071 24.7268C26.0933 25.1663 26.789 25.4642 27.5469 25.5737V26.2656H28.8281V25.5737C29.586 25.4648 30.2817 25.1663 30.8679 24.7268L31.3586 25.2176L32.2644 24.3117L31.7737 23.821C32.2132 23.2348 32.5111 22.5391 32.6206 21.7812H33.3125ZM31.3906 21.1406C31.3906 22.9068 29.9537 24.3438 28.1875 24.3438C26.4213 24.3438 24.9844 22.9068 24.9844 21.1406C24.9844 19.3744 26.4213 17.9375 28.1875 17.9375C29.9537 17.9375 31.3906 19.3744 31.3906 21.1406Z" fill="#EB3D2E"/>
<path d="M28.1875 18.5781C26.7743 18.5781 25.625 19.7274 25.625 21.1406C25.625 22.5538 26.7743 23.7031 28.1875 23.7031C29.6007 23.7031 30.75 22.5538 30.75 21.1406C30.75 19.7274 29.6007 18.5781 28.1875 18.5781ZM28.1875 22.4219C27.4809 22.4219 26.9062 21.8472 26.9062 21.1406C26.9062 20.434 27.4809 19.8594 28.1875 19.8594C28.8941 19.8594 29.4688 20.434 29.4688 21.1406C29.4688 21.8472 28.8941 22.4219 28.1875 22.4219Z" fill="#EB3D2E"/>
<path d="M16.6562 21.1406H7.6875C7.33323 21.1406 7.04688 21.427 7.04688 21.7812V30.75C7.04688 31.1043 7.33323 31.3906 7.6875 31.3906H16.6562C17.0105 31.3906 17.2969 31.1043 17.2969 30.75V21.7812C17.2969 21.427 17.0105 21.1406 16.6562 21.1406ZM16.0156 30.1094H8.32812V22.4219H16.0156V30.1094Z" fill="#EB3D2E"/>
<path d="M11.484 16.1647L10.1227 14.3498L9.09766 15.1186L11.0195 17.6811C11.1413 17.8432 11.3309 17.9373 11.532 17.9373C11.541 17.9373 11.55 17.9373 11.5589 17.9367C11.7703 17.9277 11.9632 17.8156 12.0753 17.6362L15.2784 12.5112L14.1925 11.8315L11.484 16.1647Z" fill="#EB3D2E"/>
<path d="M10.0621 29.2808L12.1717 27.1713L14.2812 29.2808L15.1871 28.375L13.0775 26.2654L15.1871 24.1558L14.2812 23.25L12.1717 25.3596L10.0621 23.25L9.15625 24.1558L11.2658 26.2654L9.15625 28.375L10.0621 29.2808Z" fill="#EB3D2E"/>
</svg>
