<svg width="62" height="61" viewBox="0 0 62 61" fill="none" xmlns="http://www.w3.org/2000/svg">
<path d="M4.54364 41.164C4.3126 41.1642 4.10975 41.0104 4.04765 40.7879C3.98554 40.5654 4.07942 40.3287 4.27718 40.2093L19.4241 31.0211L2.14963 40.9943C1.90582 41.1332 1.59565 41.0511 1.45251 40.8097C1.30937 40.5683 1.3861 40.2568 1.62495 40.1095L20.5671 28.6076L1.23092 39.771C0.988295 39.9007 0.686586 39.8165 0.54614 39.58C0.405694 39.3434 0.476232 39.0382 0.706237 38.8873L25.4559 23.7507L1.23092 37.7361C0.988675 37.8621 0.690154 37.7769 0.550946 37.542C0.411738 37.307 0.480365 37.0043 0.707266 36.8523L21.7883 24.0161L1.23092 35.8842C0.988417 36.0157 0.685355 35.9325 0.543994 35.6956C0.402633 35.4588 0.473304 35.1525 0.704179 35.0015L28.0444 18.0974L1.23092 33.5725C0.987733 33.7048 0.683493 33.6209 0.542497 33.3826C0.401501 33.1444 0.474318 32.8373 0.707266 32.6878L10.5014 26.7691L1.23092 32.1189C0.988417 32.2504 0.685355 32.1671 0.543994 31.9303C0.402633 31.6934 0.473304 31.3871 0.704179 31.2362L20.7224 18.905L1.23092 30.158C0.987913 30.2949 0.680072 30.2132 0.536939 29.9738C0.393806 29.7344 0.467535 29.4245 0.70315 29.2753L19.8089 17.4308L1.23092 28.157C0.987834 28.2914 0.681953 28.2085 0.539943 27.9698C0.397934 27.7311 0.471093 27.4227 0.705208 27.2732L12.4335 20.0717L1.22989 26.5407C0.987599 26.6765 0.681289 26.5954 0.537905 26.3575C0.394521 26.1197 0.465846 25.811 0.699035 25.6601L18.8274 14.2312L1.23504 24.3906C0.991949 24.525 0.686068 24.4421 0.544059 24.2034C0.402049 23.9647 0.475208 23.6563 0.709323 23.5068L6.49835 19.9482L1.22989 22.9893C0.987703 23.1313 0.676445 23.0528 0.530453 22.8131C0.384461 22.5733 0.457651 22.2608 0.69492 22.1108L16.9159 11.6695L1.22989 20.7229C0.988362 20.8604 0.681299 20.7812 0.536434 20.544C0.391568 20.3068 0.46129 19.9975 0.693891 19.8454L13.8985 11.3146L1.22989 18.6324C0.987277 18.7804 0.67061 18.7037 0.522597 18.4611C0.374584 18.2185 0.451275 17.9018 0.693891 17.7538L10.4376 11.4699L1.22989 16.7857C0.988156 16.9187 0.684592 16.8372 0.541843 16.6011C0.399094 16.3651 0.467993 16.0584 0.698007 15.9061L4.16504 13.7168L1.22989 15.4061C0.993621 15.5217 0.708221 15.4404 0.568296 15.2177C0.42837 14.995 0.478999 14.7026 0.685661 14.5399L9.71435 8.45249L1.22989 13.3506C1.07479 13.4496 0.878615 13.4584 0.715277 13.3736C0.551939 13.2888 0.446248 13.1233 0.438017 12.9395C0.429786 12.7556 0.520266 12.5813 0.675373 12.4823L8.99317 6.59963L1.22989 11.0821C0.994022 11.2014 0.706136 11.1225 0.564024 10.8996C0.421911 10.6768 0.471832 10.3825 0.679488 10.2189L4.9603 7.24571L1.22989 9.39589C0.993469 9.51795 0.702982 9.43957 0.560049 9.21515C0.417115 8.99073 0.468912 8.69434 0.679488 8.53171L2.54572 7.23543L1.22989 7.99673C0.996547 8.13042 0.699604 8.06181 0.548566 7.8393C0.397528 7.61679 0.443379 7.31549 0.653768 7.14798L3.9315 4.56056L1.22989 6.1161C1.00079 6.23718 0.717395 6.16894 0.568514 5.95685C0.419633 5.74476 0.451756 5.45504 0.64348 5.28072L2.16198 4.00913L1.22989 4.54616C1.01705 4.66853 0.747402 4.62343 0.585963 4.43846C0.424524 4.25349 0.416299 3.98022 0.566321 3.78588L1.69799 2.31985C1.49532 2.33927 1.29955 2.24039 1.19491 2.06574C1.05287 1.81971 1.13716 1.50512 1.38318 1.36307L3.37184 0.213908C3.58474 0.0903223 3.85536 0.134896 4.01737 0.320236C4.17939 0.505575 4.18738 0.779722 4.03644 0.974187L2.97267 2.35277L6.81624 0.136749C7.04745 0.00381173 7.34191 0.069632 7.49451 0.28836C7.64712 0.507088 7.60724 0.806172 7.40266 0.977273L5.88621 2.24063L9.53535 0.136749C9.76869 0.00305717 10.0656 0.0716718 10.2167 0.294183C10.3677 0.516694 10.3219 0.817993 10.1115 0.985504L6.83373 3.57395L12.7925 0.136749C13.0308 0.00362024 13.3315 0.0797307 13.4777 0.310163C13.624 0.540595 13.5648 0.845126 13.3429 1.00402L11.4726 2.29722L15.2225 0.136749C15.4615 -0.00232016 15.7677 0.0724115 15.9157 0.305946C16.0637 0.539481 16.0007 0.848264 15.7729 1.00505L11.4931 3.97106L18.1361 0.136749C18.374 -0.00048006 18.6779 0.0735131 18.8261 0.304805C18.9743 0.536096 18.9147 0.843048 18.6906 1.00196L10.3728 6.88666L22.065 0.136749C22.3047 0.000156879 22.6095 0.0769467 22.7558 0.310802C22.9021 0.544658 22.8379 0.852312 22.6103 1.00814L13.5795 7.08831L25.6267 0.136749C25.8689 -0.00167525 26.1773 0.0782083 26.3219 0.316815C26.4664 0.555421 26.3945 0.865767 26.1596 1.01637L22.6946 3.20564L28.0156 0.136749C28.2579 -0.0115479 28.5746 0.0646824 28.7229 0.307014C28.8712 0.549346 28.7949 0.866013 28.5526 1.01431L18.812 7.29304L31.2131 0.136749C31.4546 -0.000737332 31.7617 0.0784867 31.9065 0.315666C32.0514 0.552844 31.9817 0.862203 31.7491 1.01431L18.5424 9.54198L34.8396 0.136749C35.0811 -0.000737332 35.3881 0.0784867 35.533 0.315666C35.6779 0.552844 35.6082 0.862203 35.3756 1.01431L19.1525 11.4535L38.7603 0.136749C39.0043 -0.00870701 39.3201 0.0712083 39.4655 0.315245C39.611 0.559281 39.5311 0.875027 39.287 1.02048L33.4867 4.57908L41.1872 0.136749C41.4304 -0.0101275 41.7466 0.0679454 41.8935 0.311129C42.0404 0.554313 41.9623 0.87052 41.7191 1.0174L23.5979 12.4391L44.9114 0.136749C45.1555 -0.00870698 45.4712 0.0712083 45.6167 0.315245C45.7621 0.559281 45.6822 0.875027 45.4382 1.02048L33.7346 8.20249L47.7108 0.136749C47.9545 -0.00927518 48.2705 0.0699492 48.4165 0.313701C48.5626 0.557454 48.4833 0.87343 48.2396 1.01945L29.1318 12.865L51.1778 0.136749C51.4219 -0.00899109 51.7378 0.0706938 51.8836 0.31473C52.0293 0.558767 51.9496 0.874743 51.7056 1.02048L31.6781 13.366L54.5893 0.136749C54.8331 0.000915635 55.1408 0.0843332 55.2827 0.324733C55.4245 0.565133 55.3487 0.874784 55.1119 1.02254L45.3487 6.92267L57.1016 0.136749C57.3457 -0.00899109 57.6616 0.0706938 57.8074 0.31473C57.9531 0.558767 57.8734 0.874743 57.6294 1.02048L30.2779 17.9266L59.4637 1.07604C59.7075 0.937102 60.0177 1.01921 60.1609 1.26058C60.304 1.50195 60.2273 1.8135 59.9884 1.9608L38.9053 14.8012L60.188 2.51018C60.3461 2.41627 60.5422 2.41381 60.7025 2.50373C60.8629 2.59364 60.9631 2.76228 60.9654 2.94611C60.9677 3.12994 60.8718 3.30103 60.7137 3.39494L35.9609 18.5326L60.3259 4.46591C60.569 4.33366 60.8733 4.41758 61.0143 4.65581C61.1553 4.89403 61.0825 5.20112 60.8495 5.35068L41.9197 16.8433L60.3259 6.21898C60.5697 6.08314 60.8774 6.16656 61.0192 6.40696C61.1611 6.64736 61.0853 6.95701 60.8485 7.10477L45.7067 16.2888L60.3259 7.8527C60.5697 7.71377 60.8798 7.79588 61.023 8.03725C61.1661 8.27861 61.0894 8.59017 60.8505 8.73746L43.0524 19.6159L60.3269 9.6356C60.5707 9.49977 60.8784 9.58319 61.0202 9.82359C61.1621 10.064 61.0863 10.3736 60.8495 10.5214L55.721 13.6139L60.3269 10.9545C60.5707 10.8187 60.8784 10.9021 61.0202 11.1425C61.1621 11.3829 61.0863 11.6925 60.8495 11.8403L54.1438 15.904L60.3279 12.3341C60.5703 12.2006 60.8749 12.2828 61.0172 12.5201C61.1595 12.7574 61.0886 13.0648 60.8567 13.2158L42.1121 24.8967L60.3279 14.3804C60.5703 14.2469 60.8749 14.3291 61.0172 14.5664C61.1595 14.8037 61.0886 15.1111 60.8567 15.2621L45.3219 24.943L60.3279 16.2796C60.5708 16.1321 60.8873 16.2095 61.0347 16.4524C61.1821 16.6953 61.1048 17.0117 60.8619 17.1592L42.5576 28.8648L60.3289 18.6046C60.572 18.4702 60.8779 18.5531 61.0199 18.7918C61.1619 19.0305 61.0888 19.3389 60.8547 19.4884L56.7138 22.0387L60.3289 19.9513C60.5704 19.8109 60.8798 19.8888 61.0259 20.1269C61.1721 20.3649 61.1015 20.6761 60.867 20.8278L45.5925 30.7999L60.3331 22.2898C60.5741 22.1551 60.8784 22.2347 61.0226 22.4701C61.1668 22.7055 61.0995 23.0127 60.8701 23.1663L49.4145 30.6261L60.331 24.3237C60.5732 24.1853 60.8816 24.2651 61.0262 24.5038C61.1707 24.7424 61.0988 25.0527 60.8639 25.2033L56.0224 28.2897L60.331 25.8021C60.5719 25.6515 60.8893 25.7247 61.0398 25.9656C61.1904 26.2066 61.1172 26.5239 60.8763 26.6745L51.4597 33.053L60.331 27.9306C60.5705 27.7887 60.8794 27.8631 61.0281 28.0984C61.1768 28.3337 61.1113 28.6446 60.8804 28.8L53.5142 33.8946L60.3351 29.9563C60.5718 29.8217 60.8724 29.8948 61.0208 30.1231C61.1691 30.3514 61.1139 30.6558 60.8948 30.8174L54.5852 35.4244L60.3331 32.1075C60.5652 31.9768 60.8587 32.0448 61.0096 32.2644C61.1604 32.484 61.1187 32.7825 60.9133 32.9522L56.0255 36.9028L60.3331 34.4162C60.5634 34.2849 60.8558 34.3502 61.0084 34.567C61.161 34.7838 61.1238 35.081 60.9226 35.2536L58.4781 37.3225L60.33 36.2515C60.5571 36.1134 60.8522 36.1711 61.0105 36.3847C61.1688 36.5983 61.1383 36.8974 60.94 37.0746L59.9493 38.0128L60.33 37.7937C60.5349 37.6761 60.7935 37.7132 60.957 37.8836C61.1206 38.054 61.1471 38.3139 61.0213 38.5138L60.4215 39.4603C60.615 39.5231 60.7533 39.6939 60.7744 39.8961C60.7955 40.0984 60.6955 40.2941 60.5193 40.3955L59.3269 41.0827C59.122 41.2013 58.8626 41.1647 58.6985 40.994C58.5344 40.8233 58.508 40.5627 58.6345 40.3626L59.0378 39.7278L56.6891 41.0827C56.4618 41.2233 56.1648 41.1665 56.0055 40.9519C55.8462 40.7374 55.8777 40.4366 56.078 40.2597L57.0718 39.3194L54.0224 41.0827C53.7921 41.214 53.4997 41.1487 53.3471 40.9319C53.1945 40.7151 53.2317 40.4179 53.4329 40.2453L55.8804 38.1815L50.8394 41.0827C50.6071 41.2159 50.3115 41.1487 50.1597 40.9281C50.008 40.7076 50.0507 40.4075 50.2581 40.2381L55.149 36.2855L46.8415 41.0827C46.6052 41.2161 46.3059 41.143 46.1577 40.9157C46.0095 40.6884 46.0634 40.3851 46.2808 40.2227L52.5873 35.6106L43.1069 41.0838C42.869 41.2137 42.571 41.1366 42.4258 40.9076C42.2807 40.6785 42.3384 40.3761 42.5576 40.2165L49.9268 35.1178L39.5926 41.0848C39.3537 41.2158 39.054 41.1377 38.9094 40.9068C38.7647 40.6759 38.8252 40.3723 39.0473 40.2144L48.4649 33.8359L35.9002 41.0889C35.659 41.2196 35.3576 41.138 35.2153 40.9034C35.073 40.6688 35.1399 40.3638 35.3673 40.2103L40.2027 37.1301L33.3499 41.0889C33.1097 41.2178 32.8106 41.137 32.6681 40.9046C32.5256 40.6723 32.5891 40.3691 32.8128 40.2134L44.2623 32.7547L29.8242 41.0879C29.5837 41.2203 29.2815 41.1406 29.1378 40.9066C28.994 40.6727 29.0593 40.3671 29.2861 40.2124L44.5637 30.2454L25.7718 41.091C25.5293 41.2225 25.2262 41.1393 25.0848 40.9024C24.9435 40.6655 25.0141 40.3592 25.245 40.2083L29.389 37.6558L23.4385 41.091C23.1977 41.2199 22.8982 41.1381 22.7562 40.9048C22.6143 40.6715 22.6794 40.368 22.9045 40.2134L41.217 28.5047L19.4087 41.092C19.1663 41.2255 18.8617 41.1433 18.7194 40.906C18.577 40.6687 18.648 40.3613 18.8799 40.2103L34.4147 30.5273L16.1176 41.092C15.8746 41.2321 15.5642 41.1517 15.4197 40.9113C15.2752 40.6709 15.35 40.3591 15.5877 40.2103L34.3303 28.5315L12.5754 41.093C12.3322 41.2253 12.028 41.1414 11.887 40.9031C11.746 40.6649 11.8188 40.3578 12.0518 40.2083L18.7533 36.1445L10.1855 41.093C9.94279 41.221 9.64231 41.1359 9.50274 40.8996C9.36316 40.6633 9.43365 40.3591 9.66292 40.2083L14.8203 37.0951L7.89545 41.093C7.65236 41.2274 7.34648 41.1446 7.20447 40.9058C7.06246 40.6671 7.13562 40.3588 7.36973 40.2093L25.1411 29.3483L4.79672 41.0941C4.71983 41.1389 4.63263 41.163 4.54364 41.164Z" fill="#478CFF"/>
<path d="M20.0319 53.5314C19.8116 53.5288 19.6174 53.3862 19.549 53.1768C19.4806 52.9674 19.5532 52.7377 19.7294 52.6055L20.2438 52.2351L19.7479 52.5211C19.5976 52.6287 19.4013 52.6478 19.2331 52.5714C19.0648 52.4949 18.9501 52.3345 18.9321 52.1506C18.9142 51.9666 18.9958 51.7871 19.1461 51.6796L21.0812 50.0027L19.7438 50.7763C19.5214 50.9031 19.2397 50.847 19.0827 50.6448C18.9258 50.4426 18.9414 50.1558 19.1193 49.9718L19.8848 49.1899L19.7438 49.2702C19.5641 49.3735 19.3398 49.3589 19.1751 49.233C19.0103 49.1071 18.9372 48.8946 18.9897 48.694L19.2685 47.6354C19.0954 47.554 18.9817 47.3832 18.9735 47.192C18.9653 47.0008 19.0639 46.8209 19.2294 46.7249L19.7438 46.4276C19.9236 46.3235 20.1483 46.3378 20.3135 46.4638C20.4787 46.5898 20.5518 46.8028 20.4989 47.0037L20.2932 47.763L22.6131 46.4255C22.8356 46.2972 23.1186 46.3526 23.2763 46.5554C23.4339 46.7581 23.4178 47.0461 23.2386 47.2301L22.4711 48.013L25.2283 46.4225C25.4575 46.293 25.7475 46.3575 25.9002 46.5719C26.0529 46.7863 26.0191 47.0814 25.8219 47.2558L23.8898 48.9307L28.2437 46.4173C28.4804 46.2827 28.781 46.3558 28.9293 46.5841C29.0777 46.8124 29.0225 47.1168 28.8034 47.2784L28.289 47.6508L30.4309 46.4163C30.6596 46.284 30.9512 46.3464 31.1057 46.5606C31.2602 46.7749 31.2274 47.0713 31.0297 47.2465L27.8919 50.0243L34.1665 46.4091C34.3962 46.2749 34.6904 46.3381 34.8448 46.5547C34.9992 46.7714 34.9629 47.07 34.7611 47.2434L31.7231 49.8782L37.7405 46.405C37.975 46.2704 38.2736 46.3403 38.424 46.5649C38.5744 46.7896 38.5253 47.0923 38.3115 47.2578L36.5018 48.6477L40.3948 46.4008C40.63 46.2706 40.9259 46.3435 41.0737 46.5682C41.2214 46.7928 41.1713 47.0934 40.9586 47.2578L39.7137 48.1837L41.8042 46.978C42.0309 46.85 42.3175 46.9115 42.4717 47.1212C42.6259 47.331 42.599 47.6229 42.4092 47.801L39.7971 50.193L41.8135 49.0284C42.0334 48.9021 42.3125 48.9549 42.4711 49.1527C42.6296 49.3506 42.6204 49.6345 42.4493 49.8216L41.5059 50.8442L41.8227 50.6611C42.003 50.5569 42.2284 50.5716 42.3935 50.6985C42.5587 50.8253 42.631 51.0392 42.5769 51.2403L42.3125 52.2207C42.4052 52.2659 42.4825 52.3375 42.5347 52.4265C42.6028 52.5448 42.6211 52.6853 42.5856 52.817C42.5501 52.9488 42.4637 53.0611 42.3454 53.1292L41.831 53.4254C41.6501 53.5276 41.4258 53.5127 41.26 53.3874C41.0952 53.2602 41.0233 53.0461 41.0779 52.8452L41.2579 52.1734L39.0841 53.4285C38.8643 53.5534 38.5864 53.5 38.4284 53.3027C38.2705 53.1053 38.2794 52.8224 38.4493 52.6353L39.3938 51.6127L36.2405 53.4327C36.0139 53.5589 35.7288 53.4968 35.5753 53.2876C35.4219 53.0785 35.4482 52.7879 35.6366 52.6096L38.2508 50.2156L32.6665 53.4388C32.431 53.5718 32.1328 53.4997 31.9841 53.274C31.8353 53.0482 31.8867 52.7458 32.1017 52.5818L33.3434 51.6559L30.2447 53.444C30.0104 53.5758 29.7141 53.505 29.5647 53.2815C29.4154 53.058 29.4633 52.7571 29.6748 52.5911L31.4865 51.1981L27.5914 53.4471C27.3617 53.5812 27.0676 53.5181 26.9131 53.3014C26.7587 53.0847 26.795 52.7861 26.9968 52.6127L30.0328 49.979L24.0174 53.4522C23.7888 53.5845 23.4971 53.5221 23.3426 53.3078C23.1881 53.0936 23.221 52.7972 23.4187 52.622L26.5555 49.8442L20.2901 53.4625C20.2117 53.5081 20.1226 53.5319 20.0319 53.5314Z" fill="#BBC1CE"/>
<path d="M14.2652 57.6248C14.052 57.6251 13.8606 57.4939 13.7841 57.2948C13.7076 57.0958 13.7619 56.8701 13.9206 56.7276L15.9473 54.8995L12.7529 56.7431C12.5086 56.8709 12.2071 56.7834 12.0691 56.5447C11.9312 56.306 12.0059 56.0011 12.2385 55.8532L19.651 51.5765C19.8772 51.4551 20.1583 51.5191 20.3097 51.7264C20.461 51.9338 20.4363 52.221 20.2518 52.3995L18.224 54.2297L22.8268 51.5765C23.0541 51.4359 23.3511 51.4928 23.5104 51.7073C23.6697 51.9218 23.6382 52.2226 23.438 52.3995L21.2322 54.489L26.2733 51.5796C26.5083 51.4458 26.8067 51.5168 26.9562 51.742C27.1058 51.9672 27.0556 52.2698 26.8412 52.4345L26.6951 52.5446L28.3679 51.5796C28.593 51.4461 28.8823 51.5029 29.0403 51.7114C29.1983 51.9199 29.1746 52.2139 28.9852 52.3944L26.7219 54.5785L31.9173 51.5765C32.1381 51.4486 32.4193 51.502 32.578 51.7019C32.7366 51.9018 32.7247 52.1878 32.55 52.3738L30.158 54.9139L35.945 51.5765C36.1718 51.4466 36.4599 51.5074 36.6148 51.7179C36.7698 51.9283 36.7423 52.2215 36.551 52.3995L34.4358 54.3542L39.2433 51.5765C39.4781 51.4408 39.7779 51.5108 39.9285 51.7363C40.079 51.9619 40.0286 52.2656 39.8133 52.4304L39.4624 52.6989L41.4069 51.5765C41.6333 51.4519 41.9171 51.5147 42.0698 51.7232C42.2225 51.9317 42.1968 52.2212 42.0097 52.3995L39.9521 54.2699L43.2237 52.3748C43.4383 52.2511 43.7106 52.2978 43.8716 52.4861C44.0326 52.6743 44.0366 52.9505 43.8811 53.1433L42.1641 55.2801L45.2185 53.5168C45.4459 53.3736 45.7451 53.4295 45.9055 53.645C46.0658 53.8606 46.0332 54.1633 45.8307 54.3398L45.663 54.5003L46.2926 54.1361C46.4846 54.0254 46.726 54.0501 46.8916 54.1974C47.0572 54.3448 47.1098 54.5817 47.022 54.7853L46.5447 55.8892L47.9448 55.0744C48.1043 54.973 48.3065 54.9672 48.4715 55.0593C48.6365 55.1514 48.7377 55.3265 48.7352 55.5154C48.7326 55.7044 48.6267 55.8767 48.4592 55.9643L45.7124 57.5435C45.5203 57.6542 45.279 57.6295 45.1134 57.4822C44.9478 57.3348 44.8952 57.0979 44.983 56.8943L45.4593 55.7904L42.4213 57.5435C42.194 57.684 41.897 57.6272 41.7377 57.4127C41.5784 57.1981 41.6099 56.8973 41.8102 56.7204L41.9778 56.562L40.2844 57.5383C40.0699 57.6621 39.7976 57.6153 39.6366 57.4271C39.4756 57.2389 39.4716 56.9626 39.627 56.7698L41.3482 54.6382L36.3226 57.5394C36.0961 57.664 35.8124 57.6012 35.6596 57.3927C35.5069 57.1841 35.5326 56.8947 35.7197 56.7163L37.7773 54.847L33.1066 57.5425C32.8717 57.6781 32.572 57.6082 32.4214 57.3826C32.2709 57.1571 32.3213 56.8534 32.5366 56.6886L32.8833 56.4231L30.943 57.5435C30.7162 57.6733 30.4281 57.6125 30.2732 57.4021C30.1182 57.1916 30.1457 56.8984 30.337 56.7204L32.4543 54.7657L27.6437 57.5435C27.4229 57.6698 27.1429 57.6159 26.9849 57.4165C26.827 57.2171 26.8385 56.9322 27.012 56.7462L29.406 54.2009L23.6159 57.5445C23.3909 57.678 23.1015 57.6212 22.9435 57.4127C22.7856 57.2041 22.8093 56.9102 22.9987 56.7297L25.262 54.5445L20.0625 57.5538C19.8275 57.6875 19.5291 57.6165 19.3795 57.3913C19.2299 57.1661 19.2802 56.8636 19.4946 56.6988L19.6427 56.5867L17.9668 57.5538C17.7396 57.6943 17.4425 57.6375 17.2832 57.4229C17.1239 57.2084 17.1554 56.9076 17.3557 56.7307L19.5615 54.6454L14.5204 57.5548C14.4431 57.6004 14.355 57.6246 14.2652 57.6248Z" fill="#CED2DC"/>
<path d="M14.2456 60.7029C14.031 60.7032 13.8388 60.5701 13.7634 60.3692C13.688 60.1683 13.7453 59.9416 13.9071 59.8007L14.5831 59.2112L12.7878 60.2461C12.5743 60.3693 12.3035 60.3237 12.1421 60.1374C11.9807 59.9512 11.974 59.6766 12.1263 59.4828L13.3609 57.9149L12.544 58.3861C12.3626 58.4902 12.1362 58.4742 11.9713 58.3454C11.8064 58.2167 11.7359 58.0009 11.793 57.7997L12.0522 56.8881C11.9647 56.8416 11.893 56.7699 11.8465 56.6824C11.705 56.4369 11.7887 56.1231 12.0337 55.9808L12.5481 55.6834C12.7294 55.5789 12.9559 55.5946 13.1211 55.7231C13.2862 55.8516 13.357 56.0674 13.3002 56.2688L13.1335 56.8552L15.1643 55.6917C15.3778 55.5685 15.6487 55.6141 15.8101 55.8004C15.9715 55.9866 15.9781 56.2612 15.8258 56.455L14.5913 58.0229L18.6355 55.6834C18.8645 55.5524 19.1556 55.6159 19.3092 55.8305C19.4628 56.0452 19.4291 56.3412 19.2311 56.5157L18.5542 57.1073L21.0233 55.6814C21.2409 55.5563 21.5171 55.6065 21.6767 55.8002C21.8363 55.994 21.8328 56.2746 21.6684 56.4643L20.155 58.206L24.5336 55.6783C24.7464 55.5559 25.016 55.601 25.1775 55.786C25.3389 55.971 25.3471 56.2442 25.1971 56.4386L23.6539 58.4344L28.4337 55.6752C28.6545 55.5488 28.9345 55.6028 29.0924 55.8022C29.2504 56.0016 29.2389 56.2865 29.0654 56.4725L27.6292 57.9962L31.6549 55.6721C31.8786 55.5463 32.1608 55.6047 32.3163 55.8089C32.4717 56.0131 32.4529 56.3006 32.2721 56.4828L30.9933 57.7492L34.5941 55.667C34.8194 55.5386 35.105 55.5979 35.2605 55.8054C35.416 56.0129 35.3928 56.3037 35.2063 56.4838L34.0273 57.6155L37.4048 55.6608C37.634 55.5276 37.9268 55.5904 38.0813 55.8058C38.2357 56.0213 38.2012 56.3188 38.0015 56.4931L37.2752 57.1299L39.8245 55.6587C40.0507 55.5373 40.3318 55.6013 40.4832 55.8087C40.6346 56.0161 40.6099 56.3033 40.4253 56.4818L39.5632 57.2544L42.3409 55.6515C42.564 55.529 42.8431 55.588 42.9975 55.7902C43.152 55.9925 43.1352 56.2773 42.9582 56.4602L41.6475 57.7688L45.3193 55.6485C45.5447 55.5128 45.8361 55.569 45.9948 55.7788C46.1536 55.9886 46.1284 56.2843 45.9366 56.4643L44.7339 57.6217L48.1567 55.6464C48.3708 55.5237 48.6419 55.5703 48.8027 55.7575C48.9635 55.9447 48.9688 56.2197 48.8151 56.4128L47.2545 58.3614L49.0034 57.3532C49.2014 57.2392 49.4509 57.2695 49.6158 57.4276C49.7808 57.5857 49.8217 57.8336 49.7164 58.0363L49.2143 58.9961C49.439 59.0142 49.6258 59.1764 49.6751 59.3963C49.7244 59.6163 49.6248 59.8427 49.4293 59.955L48.274 60.6206C48.0757 60.736 47.825 60.7062 47.6593 60.5475C47.4937 60.3887 47.4532 60.1395 47.56 59.9365L47.9828 59.1289L45.4016 60.6299C45.1875 60.7526 44.9164 60.706 44.7556 60.5188C44.5948 60.3316 44.5896 60.0566 44.7432 59.8634L46.3039 57.9169L41.6012 60.6299C41.3759 60.7656 41.0844 60.7093 40.9257 60.4996C40.767 60.2898 40.7921 59.994 40.984 59.814L42.1846 58.6577L38.771 60.6299C38.548 60.7524 38.2689 60.6935 38.1144 60.4912C37.96 60.2889 37.9767 60.0041 38.1538 59.8212L39.4655 58.5126L35.7927 60.6299C35.5664 60.7513 35.2853 60.6873 35.134 60.4799C34.9826 60.2725 35.0073 59.9853 35.1919 59.8068L36.053 59.0352L33.2824 60.6299C33.0535 60.7626 32.7613 60.7 32.6068 60.4852C32.4523 60.2703 32.486 59.9734 32.6847 59.7986L33.412 59.1608L30.8658 60.6299C30.6401 60.768 30.3464 60.7123 30.1869 60.5012C30.0273 60.2901 30.054 59.9924 30.2485 59.813L31.4275 58.6813L28.0582 60.6299C27.8345 60.7557 27.5523 60.6973 27.3968 60.4931C27.2413 60.2889 27.2601 60.0014 27.4409 59.8192L28.7177 58.5548L25.1169 60.6299C24.8961 60.7562 24.6161 60.7022 24.4582 60.5029C24.3002 60.3035 24.3117 60.0186 24.4852 59.8326L25.9173 58.3089L21.8988 60.6299C21.686 60.7522 21.4163 60.7071 21.2549 60.5222C21.0934 60.3372 21.0852 60.0639 21.2352 59.8696L22.7784 57.8748L18.0069 60.6299C17.7895 60.7537 17.5146 60.7032 17.3555 60.5103C17.1963 60.3173 17.199 60.0378 17.3618 59.848L18.8762 58.1052L14.5028 60.6299C14.425 60.6765 14.3363 60.7017 14.2456 60.7029Z" fill="#BBC1CE"/>
<path d="M4.68402 48.3574C4.45791 48.3577 4.25812 48.2103 4.19168 47.9942C4.12523 47.7781 4.20771 47.5439 4.39493 47.4171L4.70356 47.2114L3.20461 48.0755C2.96752 48.2048 2.67084 48.1287 2.52519 47.9013C2.37955 47.674 2.43454 47.3726 2.65112 47.2114L4.65521 45.7937L2.05648 47.2947C1.8223 47.4333 1.52068 47.3655 1.36829 47.1401C1.2159 46.9146 1.26547 46.6095 1.48138 46.4439L4.90727 43.7577L1.35278 45.8153C1.11733 45.9482 0.819147 45.8762 0.670351 45.6504C0.521555 45.4247 0.572951 45.1222 0.787976 44.9583L1.4392 44.4696L1.23344 44.589C1.01312 44.7153 0.733591 44.6619 0.575319 44.4633C0.417048 44.2647 0.427406 43.9803 0.599706 43.7937L2.42993 41.8184L1.23344 42.5087C1.05757 42.6105 0.83827 42.5992 0.67378 42.4799C0.508888 42.3602 0.43021 42.1544 0.473165 41.9552L0.796206 40.4512C0.683699 40.4102 0.589311 40.3307 0.529749 40.2269C0.388235 39.9813 0.471959 39.6676 0.716989 39.5252L1.23139 39.2279C1.40756 39.1255 1.62759 39.1367 1.79242 39.2566C1.95725 39.3764 2.03579 39.5822 1.99269 39.7814L1.72109 41.0396L4.862 39.231C5.08202 39.1062 5.36016 39.1598 5.51794 39.3576C5.67572 39.5553 5.6663 39.8384 5.49574 40.0252L3.66551 41.9954L8.46483 39.2248C8.70028 39.0919 8.99847 39.1639 9.14727 39.3897C9.29606 39.6154 9.24467 39.9179 9.02964 40.0818L8.37636 40.5705L10.7148 39.2238C10.9485 39.0892 11.2464 39.158 11.3975 39.3813C11.5486 39.6046 11.5017 39.9067 11.2899 40.0736L7.85785 42.7577L13.9833 39.2217C14.221 39.0882 14.5216 39.1633 14.6685 39.393C14.8155 39.6227 14.7577 39.9271 14.5368 40.087L12.5347 41.4943L16.476 39.2207C16.7161 39.0785 17.0259 39.1536 17.1741 39.39C17.3223 39.6265 17.255 39.938 17.0223 40.0921L16.7219 40.2979L18.5871 39.2207C18.8262 39.084 19.1306 39.1599 19.2775 39.3929C19.4244 39.6258 19.3618 39.9331 19.1355 40.09L18.1067 40.7937L20.834 39.2197C21.0724 39.0804 21.3783 39.1542 21.5269 39.3869C21.6756 39.6196 21.6141 39.9281 21.3875 40.0859L19.1242 41.6806L23.3895 39.2187C23.6247 39.0819 23.9257 39.1518 24.0764 39.3783C24.2272 39.6048 24.1755 39.9095 23.9585 40.0736L19.6653 43.3349L26.8031 39.2197C27.0383 39.0895 27.3342 39.1624 27.482 39.387C27.6297 39.6116 27.5796 39.9122 27.3669 40.0767L23.4019 43.0375L30.0242 39.2145C30.2577 39.0826 30.5534 39.1522 30.7035 39.3744C30.8536 39.5967 30.8078 39.897 30.5983 40.0643L25.8854 43.7577L33.7598 39.2115C33.9923 39.0776 34.2888 39.1449 34.4406 39.3662C34.5924 39.5875 34.5486 39.8883 34.34 40.0571L29.3524 44.0746L37.7803 39.2094C38.0179 39.0739 38.32 39.148 38.4679 39.378C38.6158 39.6081 38.5578 39.9137 38.3359 40.0736L35.5807 42.0386L40.485 39.2073C40.7179 39.0726 41.0152 39.1401 41.1671 39.3622C41.319 39.5842 41.2742 39.8858 41.0642 40.054L36.0674 44.0828L44.5138 39.2063C44.7469 39.0751 45.0417 39.1446 45.1918 39.3661C45.3419 39.5876 45.2971 39.8871 45.0889 40.0551L40.3091 43.8205L48.3038 39.2043C48.5372 39.0706 48.8341 39.1392 48.9852 39.3617C49.1362 39.5842 49.0904 39.8855 48.88 40.053L44.0827 43.8369L52.1073 39.2022C52.3434 39.0669 52.6441 39.139 52.7933 39.3667C52.9424 39.5943 52.8884 39.8988 52.67 40.0612L48.9046 42.839L55.2153 39.1971C55.4527 39.0594 55.7564 39.1324 55.9054 39.3629C56.0543 39.5935 55.996 39.9004 55.7729 40.0602L52.7431 42.2382L58.0146 39.195C58.2543 39.0584 58.559 39.1352 58.7054 39.369C58.8517 39.6029 58.7875 39.9106 58.5599 40.0664L58.4776 40.1219L60.0845 39.196C60.3232 39.0613 60.6256 39.1373 60.7722 39.3689C60.9187 39.6005 60.8579 39.9064 60.6339 40.0643L59.2183 41.0417L60.3222 40.4059C60.5543 40.2709 60.8512 40.3372 61.0039 40.558C61.1566 40.7788 61.1138 41.08 60.9055 41.2495L57.2235 44.2762L60.3232 42.4871C60.5555 42.358 60.8479 42.427 60.9979 42.6464C61.1479 42.8657 61.1061 43.1633 60.9014 43.3328L60.0331 44.0303L60.3232 43.8637C60.5395 43.7395 60.8137 43.7883 60.9738 43.9796C61.1339 44.1708 61.1338 44.4493 60.9734 44.6404L59.8911 45.9254C60.1415 45.8433 60.4134 45.9636 60.521 46.2042C60.6286 46.4447 60.537 46.7276 60.3088 46.8595L57.8624 48.272C57.6458 48.3975 57.3704 48.3489 57.2099 48.1569C57.0493 47.9648 57.0503 47.6852 57.2122 47.4943L58.28 46.234L54.7245 48.2916C54.4923 48.4207 54.1999 48.3517 54.0499 48.1324C53.8999 47.913 53.9417 47.6155 54.1464 47.4459L55.0167 46.7474L52.3419 48.2906C52.1102 48.4224 51.8162 48.3554 51.6645 48.1363C51.5128 47.9171 51.5536 47.6184 51.7585 47.448L55.4406 44.4223L48.7298 48.2844C48.4918 48.4144 48.1938 48.3373 48.0487 48.1082C47.9036 47.8791 47.9612 47.5767 48.1804 47.4171L49.5888 46.4428L46.3995 48.2844C46.1603 48.4189 45.8576 48.3419 45.7117 48.1095C45.5658 47.877 45.6281 47.571 45.8532 47.414L45.9386 47.3554L44.3296 48.2813C44.0922 48.419 43.7884 48.346 43.6395 48.1154C43.4906 47.8849 43.5489 47.578 43.772 47.4181L46.8059 45.2371L41.5323 48.2844C41.2962 48.4197 40.9955 48.3476 40.8463 48.1199C40.6972 47.8922 40.7512 47.5878 40.9696 47.4253L44.7319 44.6476L38.4274 48.2844C38.1942 48.4156 37.8994 48.3461 37.7494 48.1246C37.5993 47.9031 37.6441 47.6036 37.8523 47.4356L42.6475 43.6548L34.6229 48.2844C34.3898 48.4156 34.095 48.3461 33.9449 48.1246C33.7948 47.9031 33.8396 47.6036 34.0478 47.4356L38.8266 43.6713L30.838 48.2844C30.6054 48.4183 30.309 48.3509 30.1572 48.1296C30.0054 47.9083 30.0491 47.6075 30.2578 47.4387L35.2556 43.41L26.8113 48.2844C26.5737 48.4199 26.2716 48.3458 26.1237 48.1157C25.9758 47.8857 26.0338 47.5801 26.2558 47.4202L29.0129 45.4542L24.1107 48.2844C23.8782 48.4183 23.5817 48.3509 23.4299 48.1296C23.2781 47.9083 23.3219 47.6075 23.5305 47.4387L28.5181 43.4213L20.0933 48.2844C19.8598 48.4163 19.5641 48.3467 19.414 48.1245C19.2639 47.9023 19.3097 47.602 19.5192 47.4346L24.2332 43.7412L16.3619 48.2844C16.1264 48.4173 15.8282 48.3453 15.6794 48.1195C15.5306 47.8938 15.582 47.5913 15.797 47.4274L19.7682 44.4676L13.1479 48.2844C12.9127 48.4212 12.6117 48.3512 12.461 48.1247C12.3103 47.8982 12.362 47.5936 12.579 47.4295L16.8721 44.1692L9.73848 48.2844C9.50077 48.4179 9.20015 48.3428 9.05322 48.1131C8.90628 47.8834 8.96409 47.579 9.18499 47.4192L11.4483 45.8266L7.1881 48.2844C6.94972 48.4157 6.65032 48.3386 6.505 48.1085C6.35969 47.8784 6.41875 47.5749 6.63975 47.4161L7.66855 46.7124L4.94122 48.2844C4.86342 48.331 4.77469 48.3562 4.68402 48.3574Z" fill="#CED2DC"/>
<path d="M6.9904 18.1132C6.78894 18.113 6.60611 17.9953 6.52263 17.812C6.43915 17.6286 6.47038 17.4134 6.60254 17.2614L7.18072 16.5988L6.52229 16.9795C6.31253 17.101 6.04638 17.0596 5.88347 16.8801C5.72055 16.7005 5.7051 16.4316 5.84638 16.2346L6.40707 15.4497C6.17633 15.4447 5.97716 15.2866 5.91989 15.063C5.86262 14.8395 5.96127 14.6051 6.16119 14.4898L7.84532 13.5176C8.05508 13.396 8.32124 13.4374 8.48415 13.617C8.64707 13.7965 8.66252 14.0654 8.52124 14.2624L8.06549 14.9003L9.34633 14.1595C9.56424 14.0331 9.84167 14.0831 10.0017 14.2776C10.1618 14.4722 10.1574 14.754 9.99139 14.9435L9.41115 15.6081L9.88336 15.3355C10.1292 15.1957 10.4417 15.2806 10.5831 15.5254C10.7245 15.7703 10.6417 16.0834 10.3978 16.2264L7.24759 18.0443C7.1694 18.0894 7.08069 18.1132 6.9904 18.1132Z" fill="#FFC107"/>
<path d="M15.3472 11.32C15.1578 11.3201 14.9837 11.216 14.894 11.0491C14.8044 10.8823 14.8136 10.6796 14.9182 10.5217L15.5355 9.59578L14.0499 10.4528C13.8555 10.5627 13.6124 10.5346 13.4481 10.3833C13.2839 10.232 13.236 9.99193 13.3298 9.7892L14.1528 8.02482L13.8781 8.18325C13.6323 8.32301 13.3198 8.23816 13.1784 7.99328C13.037 7.7484 13.1198 7.43532 13.3637 7.29231L15.0571 6.30982C15.2515 6.19987 15.4946 6.22794 15.6589 6.37928C15.8231 6.53062 15.871 6.77066 15.7773 6.97339L14.9542 8.73674L16.9182 7.60507C17.1251 7.48483 17.3876 7.5232 17.5515 7.69763C17.7154 7.87207 17.7373 8.13648 17.6044 8.33551L16.948 9.32624C17.1931 9.28579 17.4321 9.42631 17.516 9.66016C17.5998 9.89402 17.5046 10.1544 17.2896 10.2789L15.6075 11.2501C15.5285 11.2961 15.4387 11.3203 15.3472 11.32Z" fill="#FFC107"/>
<path d="M23.4764 17.4649C23.2968 17.4649 23.1302 17.3712 23.0369 17.2178C22.9435 17.0643 22.937 16.8733 23.0196 16.7139L23.8663 15.0801L22.0145 16.1521C21.8079 16.2718 21.5462 16.2337 21.3824 16.0601C21.2186 15.8865 21.1958 15.623 21.3272 15.4237L21.997 14.4032C21.749 14.4564 21.4991 14.3209 21.4085 14.084C21.3179 13.8471 21.4136 13.5794 21.6338 13.4536L23.3221 12.4793C23.5284 12.3605 23.7892 12.3987 23.9528 12.5718C24.1163 12.7448 24.1397 13.0075 24.0093 13.2067L23.3725 14.1789L24.8797 13.3085C25.0775 13.1943 25.327 13.2242 25.4922 13.3821C25.6574 13.5399 25.6988 13.7878 25.5936 13.9906L24.7459 15.6254L25.1009 15.4196C25.2601 15.3263 25.4571 15.3254 25.6172 15.4173C25.7773 15.5093 25.8758 15.6799 25.8754 15.8645C25.875 16.0491 25.7757 16.2193 25.6152 16.3106L23.7367 17.3949C23.6577 17.441 23.5678 17.4651 23.4764 17.4649Z" fill="#FFC107"/>
<path d="M30.8185 9.24994C30.6336 9.24991 30.463 9.15072 30.3716 8.99012C30.2801 8.82951 30.2818 8.63218 30.3761 8.4732L31.0962 7.25717L29.3833 8.24584C29.1854 8.3601 28.9359 8.33016 28.7707 8.17233C28.6055 8.0145 28.5642 7.76662 28.6693 7.56375L29.4666 6.02056L29.3 6.11726C29.0542 6.25702 28.7416 6.17217 28.6003 5.92729C28.4589 5.68242 28.5416 5.36933 28.7856 5.22633L30.48 4.25206C30.6779 4.1378 30.9274 4.16774 31.0926 4.32557C31.2578 4.48339 31.2991 4.73128 31.194 4.93415L30.3967 6.47734L32.2948 5.38373C32.4976 5.26617 32.7542 5.30058 32.9189 5.46742C33.0836 5.63427 33.1146 5.89133 32.9944 6.09257L32.2742 7.30963C32.5247 7.18667 32.8276 7.28584 32.9568 7.53315C33.086 7.78046 32.9945 8.08572 32.7505 8.22115L31.0788 9.18204C30.9996 9.22736 30.9097 9.25079 30.8185 9.24994Z" fill="#FFC107"/>
<path d="M13.0554 34.8535C12.848 34.8535 12.6609 34.7289 12.5809 34.5376C12.5009 34.3463 12.5435 34.1257 12.6891 33.978L15.2745 31.3474L10.0832 34.3443C9.85092 34.482 9.55172 34.4167 9.39797 34.1947C9.24422 33.9727 9.28825 33.6697 9.49882 33.5007L11.4474 31.9009L8.66961 33.5048C8.45091 33.6297 8.17393 33.5779 8.01516 33.3824C7.8564 33.1868 7.86255 32.9051 8.0297 32.7167L10.0976 30.4122L7.3507 31.9945C7.12528 32.1214 6.84069 32.0612 6.68602 31.8538C6.53135 31.6465 6.55473 31.3565 6.74062 31.1766L8.73751 29.2826L6.65112 30.4863C6.42248 30.6186 6.13081 30.5562 5.9763 30.3419C5.82179 30.1277 5.85467 29.8312 6.05236 29.6561L8.10995 27.8289L6.38055 28.8268C6.15064 28.9593 5.85774 28.8951 5.70423 28.6787C5.55073 28.4623 5.58699 28.1647 5.78796 27.9915L7.72415 26.33L6.66758 26.939C6.44079 27.0689 6.15268 27.008 5.99774 26.7976C5.84279 26.5871 5.87027 26.294 6.06162 26.116L7.74575 24.5522C7.5605 24.4812 7.43257 24.3101 7.41697 24.1123C7.40137 23.9145 7.50088 23.7254 7.67271 23.6263L10.5533 21.9617C10.7802 21.8299 11.0699 21.8901 11.2257 22.1012C11.3814 22.3124 11.3532 22.6069 11.1603 22.7847L10.1027 23.7652L11.972 22.687C12.2019 22.5546 12.4948 22.6187 12.6484 22.8351C12.8019 23.0515 12.7656 23.3492 12.5646 23.5224L10.6305 25.1839L11.9803 24.4041C12.2093 24.2691 12.5034 24.3309 12.6588 24.5466C12.8141 24.7623 12.7796 25.0608 12.579 25.2353L10.5214 27.0625L11.9916 26.2147C12.2188 26.0742 12.5159 26.131 12.6752 26.3456C12.8345 26.5601 12.803 26.8609 12.6027 27.0378L10.612 28.9266L12.3743 27.9092C12.593 27.7842 12.87 27.8361 13.0287 28.0316C13.1875 28.2271 13.1814 28.5088 13.0142 28.6972L10.9453 31.0007L16.3434 27.8834C16.5755 27.7485 16.8724 27.8147 17.0251 28.0356C17.1778 28.2564 17.1349 28.5576 16.9267 28.7271L14.9792 30.3279L18.0316 28.5645C18.2547 28.4343 18.5396 28.4896 18.6977 28.6938C18.8558 28.898 18.838 29.1878 18.6561 29.3711L16.0646 32.0058L16.9637 31.4914C17.1232 31.3901 17.3254 31.3843 17.4904 31.4764C17.6554 31.5684 17.7566 31.7436 17.7541 31.9325C17.7515 32.1214 17.6456 32.2937 17.4781 32.3813L13.3084 34.7877C13.2313 34.8315 13.144 34.8542 13.0554 34.8535Z" fill="#15EC88"/>
<path d="M14.0059 28.8322C13.8027 28.8326 13.6183 28.7133 13.5354 28.5278C13.4524 28.3423 13.4864 28.1254 13.6222 27.9742L14.6952 26.7767L12.545 28.0174C12.3245 28.1437 12.0447 28.09 11.8866 27.891C11.7285 27.692 11.7394 27.4074 11.9123 27.2211L13.3259 25.7047L12.545 26.1553C12.33 26.2788 12.0575 26.2314 11.8969 26.0425C11.7363 25.8536 11.7332 25.5771 11.8897 25.3847L12.5285 24.6008C12.352 24.6942 12.1373 24.677 11.9779 24.5566C11.8184 24.4363 11.7431 24.2344 11.7847 24.039L12.0214 22.9259C11.9474 22.8814 11.8861 22.8187 11.8434 22.7438C11.7012 22.498 11.785 22.1835 12.0306 22.0411L12.4329 21.8086C12.6088 21.7071 12.828 21.7186 12.9924 21.838C13.1567 21.9574 13.2354 22.1624 13.1932 22.3611L13.0316 23.1234L14.439 22.3107C14.6541 22.1859 14.9276 22.2328 15.0888 22.422C15.25 22.6113 15.2528 22.8888 15.0954 23.0812L14.4575 23.8631L15.795 23.0926C16.0155 22.9662 16.2953 23.0199 16.4534 23.2189C16.6115 23.4179 16.6006 23.7025 16.4277 23.8888L15.0141 25.4053L16.9688 24.2736C17.1879 24.1458 17.4674 24.1968 17.6273 24.3936C17.7871 24.5905 17.7797 24.8745 17.6098 25.0627L16.5336 26.2684L17.6602 25.6172C17.8192 25.5264 18.0145 25.5269 18.173 25.6187C18.3315 25.7104 18.4293 25.8795 18.4297 26.0627V27.5153C18.6529 27.5368 18.8365 27.7002 18.8835 27.9195C18.9305 28.1387 18.8302 28.3631 18.6355 28.4742L18.1653 28.7458C18.0065 28.839 17.8097 28.839 17.6509 28.7458C17.4914 28.6537 17.3934 28.4834 17.3937 28.2993V26.9546L14.2549 28.7663C14.1788 28.8091 14.0931 28.8317 14.0059 28.8322Z" fill="#FFC107"/>
<path d="M34.5793 34.3958C34.3882 34.3956 34.2129 34.2895 34.1242 34.1202C34.0355 33.951 34.0479 33.7465 34.1565 33.5892L34.9713 32.4092L33.8005 33.0851C33.5779 33.2119 33.2958 33.1556 33.139 32.953C32.9822 32.7504 32.9984 32.4632 33.177 32.2796L33.8591 31.581L32.9733 32.0954C32.751 32.2253 32.4669 32.1708 32.3085 31.9679C32.15 31.765 32.1659 31.4761 32.3458 31.2919L33.6986 29.8969L31.9703 30.8948C31.7438 31.0194 31.4601 30.9566 31.3073 30.7481C31.1546 30.5396 31.1803 30.2501 31.3674 30.0718L32.1904 29.3321L31.1616 29.9257C30.9363 30.0614 30.6448 30.0051 30.4861 29.7954C30.3274 29.5856 30.3525 29.2898 30.5444 29.1098L31.8952 27.8053L31.0608 28.2868C30.8465 28.4094 30.5753 28.3625 30.4147 28.175C30.2541 27.9874 30.2493 27.7123 30.4034 27.5193L31.6884 25.9185L31.0608 26.2807C30.8891 26.3799 30.6757 26.3715 30.5122 26.2593C30.3488 26.147 30.2644 25.9508 30.2954 25.7549L30.5762 23.9834C30.4848 23.9383 30.4091 23.8665 30.3592 23.7776C30.217 23.5318 30.3008 23.2173 30.5464 23.0749L30.9487 22.8424C31.1204 22.7432 31.3338 22.7516 31.4972 22.8638C31.6607 22.9761 31.7451 23.1723 31.7141 23.3681L31.4795 24.8486L33.5505 23.648C33.7649 23.5241 34.037 23.5705 34.1983 23.7584C34.3595 23.9463 34.3639 24.2224 34.2089 24.4155L32.924 26.0152L35.0021 24.8146C35.2275 24.6789 35.5189 24.7352 35.6776 24.9449C35.8364 25.1547 35.8112 25.4505 35.6194 25.6305L34.2706 26.937L35.857 26.0204C36.0835 25.8958 36.3672 25.9586 36.52 26.1671C36.6727 26.3756 36.647 26.6651 36.4599 26.8434L35.6441 27.5821L36.3786 27.1582C36.601 27.0283 36.885 27.0828 37.0435 27.2857C37.202 27.4886 37.1861 27.7775 37.0062 27.9617L35.6492 29.3609L36.6389 28.7899C36.8619 28.6597 37.1469 28.715 37.305 28.9192C37.4631 29.1234 37.4453 29.4132 37.2634 29.5965L36.5433 30.3238C36.7322 30.2665 36.9373 30.3225 37.071 30.4679C37.2341 30.6446 37.2529 30.9108 37.1163 31.1088L35.676 33.19C35.6847 33.2022 35.6926 33.2149 35.6996 33.2281C35.841 33.4739 35.7568 33.7877 35.5114 33.9297L34.8313 34.3227C34.7553 34.369 34.6683 34.3942 34.5793 34.3958Z" fill="#FFC107"/>
<path d="M29.8629 35.8627C29.6554 35.8623 29.4686 35.7373 29.389 35.5457C29.3094 35.3541 29.3526 35.1335 29.4987 34.9862L29.9822 34.4996L28.5316 35.336C28.3031 35.4662 28.0131 35.4031 27.8594 35.1896C27.7057 34.9762 27.7379 34.6812 27.9339 34.5058L28.1818 34.2876L27.3958 34.7403C27.1689 34.8721 26.8792 34.812 26.7235 34.6008C26.5678 34.3896 26.5959 34.0951 26.7888 33.9173L27.7847 32.9914L26.4308 33.7722C26.2068 33.8998 25.9229 33.8418 25.7668 33.6366C25.6108 33.4314 25.6307 33.1423 25.8135 32.9605L27.5337 31.264L25.5543 32.407C25.3249 32.5385 25.0333 32.4747 24.8797 32.2595C24.7262 32.0444 24.7607 31.7478 24.9596 31.5737L26.4092 30.3103L25.0985 31.0665C24.8653 31.1977 24.5705 31.1282 24.4205 30.9067C24.2704 30.6852 24.3152 30.3857 24.5234 30.2177L24.8537 29.9564C24.6174 30.0508 24.3477 29.9583 24.2191 29.7388C24.0905 29.5194 24.1415 29.2389 24.3393 29.0789L25.0594 28.5048C24.834 28.6049 24.5693 28.531 24.4284 28.3286C24.2874 28.1261 24.3101 27.8522 24.4823 27.6756L26.4956 25.6098C26.2975 25.6234 26.1085 25.5243 26.0069 25.3536C25.8649 25.1076 25.9492 24.793 26.1952 24.6509L29.0758 22.9863C29.2983 22.858 29.5813 22.9134 29.739 23.1162C29.8966 23.3189 29.8806 23.6069 29.7013 23.7909L27.8145 25.7332L30.4894 24.19C30.7224 24.0571 31.0184 24.1257 31.1694 24.3474C31.3204 24.5691 31.2756 24.8697 31.0665 25.0378L30.3587 25.6026L30.4904 25.5264C30.7241 25.3919 31.022 25.4606 31.1731 25.6839C31.3243 25.9072 31.2773 26.2093 31.0655 26.3762L30.6345 26.7157C30.8642 26.6634 31.1001 26.7739 31.207 26.9839C31.3139 27.1938 31.2645 27.4496 31.0871 27.6046L29.6468 28.8638L30.5028 28.37C30.7268 28.2425 31.0107 28.3005 31.1667 28.5057C31.3228 28.7109 31.3028 28.9999 31.12 29.1817L29.3989 30.8793L31.2507 29.8124C31.4776 29.6806 31.7673 29.7407 31.923 29.9519C32.0788 30.1631 32.0506 30.4576 31.8577 30.6354L30.8649 31.5552L32.1118 30.835C32.3407 30.7023 32.633 30.7649 32.7874 30.9797C32.9419 31.1946 32.9082 31.4915 32.7095 31.6663L32.4606 31.8875L32.8227 31.6817C33.0454 31.5607 33.3231 31.6199 33.477 31.8213C33.6309 32.0227 33.6152 32.3062 33.44 32.4893L32.9544 32.978L33.5974 32.6066C33.808 32.4847 34.0751 32.527 34.2378 32.708C34.4004 32.889 34.4139 33.1592 34.2702 33.3556L34.0387 33.6714L34.3474 33.4955C34.5068 33.3941 34.709 33.3883 34.874 33.4804C35.039 33.5725 35.1402 33.7476 35.1377 33.9365C35.1351 34.1255 35.0292 34.2978 34.8618 34.3854L32.4462 35.7794C32.2359 35.8992 31.9705 35.8562 31.8088 35.6762C31.6471 35.4961 31.6327 35.2277 31.7744 35.0315L32.0058 34.7136L30.1201 35.7938C30.0421 35.8395 29.9532 35.8633 29.8629 35.8627Z" fill="#15EC88"/>
<path d="M50.7408 34.7579C50.5306 34.7575 50.3418 34.6293 50.2639 34.4341C50.1861 34.2389 50.2347 34.016 50.3869 33.871L51.6914 32.6272L49.5834 33.8433C49.3523 33.9739 49.0598 33.9073 48.9081 33.6895C48.7564 33.4717 48.7953 33.1742 48.998 33.0027L50.4075 31.8351L49.5844 32.3104C49.359 32.4461 49.0676 32.3898 48.9089 32.18C48.7502 31.9703 48.7753 31.6745 48.9671 31.4945L49.5947 30.8896L49.5803 30.8978C49.4017 31.0007 49.179 30.987 49.0143 30.8631C48.8496 30.7392 48.7748 30.529 48.8241 30.3289L49.1215 29.1262C49.0189 29.0831 48.9335 29.0071 48.8787 28.9102C48.7365 28.6644 48.8203 28.3499 49.0659 28.2075L49.5803 27.9082C49.7589 27.8046 49.9822 27.8179 50.1472 27.942C50.3123 28.066 50.3872 28.2767 50.3375 28.4771L50.1081 29.403L52.7284 27.8896C52.9541 27.7515 53.2478 27.8072 53.4073 28.0183C53.5668 28.2294 53.5402 28.5271 53.3457 28.7065L52.7171 29.3114L55.1739 27.8938C55.4054 27.7602 55.7006 27.8262 55.8532 28.0456C56.0058 28.265 55.965 28.5647 55.7592 28.7353L54.3518 29.9009L54.9012 29.583C55.1268 29.4526 55.4143 29.5115 55.5705 29.7202C55.7266 29.9288 55.7021 30.2212 55.5134 30.4009L53.7521 32.0799C53.9534 32.1331 54.1028 32.3024 54.1305 32.5088C54.1582 32.7152 54.0587 32.9179 53.8786 33.0223L50.998 34.6889C50.9198 34.7341 50.8311 34.7579 50.7408 34.7579Z" fill="#FF584A"/>
<path d="M48.0457 34.7803C47.9109 34.7811 47.7813 34.7281 47.6856 34.6332C47.5206 34.4708 47.4844 34.2181 47.5972 34.0159L47.9367 33.4058L46.6939 34.126C46.4797 34.25 46.2076 34.2039 46.0462 34.0163C45.8848 33.8287 45.8799 33.5528 46.0344 33.3596L47.1826 31.9192L45.2423 33.0417C45.0179 33.1711 44.7323 33.1134 44.5756 32.9072C44.419 32.7009 44.4401 32.4103 44.625 32.2289L46.0252 30.8555L44.3122 31.8452C44.0895 31.9736 43.8062 31.9179 43.6487 31.7147C43.4912 31.5115 43.5079 31.2233 43.6878 31.0396L46.2772 28.3977L43.6024 29.9409C43.3695 30.0756 43.0721 30.0081 42.9203 29.786C42.7684 29.564 42.8132 29.2624 43.0232 29.0942L43.6775 28.5695L43.4213 28.7176C43.1905 28.8517 42.8956 28.7871 42.7421 28.5687C42.5886 28.3504 42.6275 28.0509 42.8318 27.8792L44.5807 26.3998L43.7186 26.8977C43.4918 27.0276 43.2037 26.9667 43.0488 26.7563C42.8938 26.5458 42.9213 26.2527 43.1127 26.0747L44.769 24.5469C44.5889 24.4712 44.4673 24.2999 44.455 24.1049C44.4428 23.9099 44.5422 23.7248 44.7114 23.6272L47.592 21.9626C47.8188 21.8327 48.1069 21.8935 48.2619 22.104C48.4168 22.3144 48.3893 22.6076 48.198 22.7856L47.2206 23.6837L49.0087 22.655C49.2394 22.5209 49.5344 22.5855 49.6879 22.8039C49.8414 23.0222 49.8024 23.3217 49.5982 23.4934L47.8554 24.9718L49.0179 24.301C49.2506 24.1689 49.5458 24.2373 49.6967 24.4583C49.8476 24.6793 49.8039 24.9791 49.5961 25.1477L48.9418 25.6714L49.021 25.6261C49.2438 25.496 49.5285 25.5511 49.6867 25.7548C49.8449 25.9586 49.8277 26.248 49.6465 26.4317L47.0571 29.0726L49.0272 27.9347C49.2516 27.8053 49.5372 27.8629 49.6938 28.0692C49.8505 28.2755 49.8293 28.566 49.6445 28.7475L48.2433 30.1219L49.0313 29.6662C49.2455 29.5422 49.5176 29.5883 49.679 29.7759C49.8404 29.9634 49.8453 30.2394 49.6908 30.4326L48.5426 31.8729L49.0375 31.588C49.2378 31.4723 49.4906 31.5046 49.6555 31.6668C49.8203 31.829 49.8567 32.0813 49.7443 32.2834L49.3255 33.0334C49.5529 33.0455 49.7452 33.2056 49.7984 33.4269C49.8516 33.6482 49.753 33.8782 49.556 33.9923L48.3039 34.7124C48.2253 34.7574 48.1363 34.7808 48.0457 34.7803Z" fill="#15EC88"/>
<path d="M52.711 28.8226C52.5297 28.8221 52.3621 28.7264 52.2697 28.5704C52.1773 28.4145 52.1737 28.2215 52.2604 28.0623L53.1276 26.4738L49.5783 28.5232C49.3564 28.6498 49.0752 28.5943 48.9179 28.393C48.7607 28.1916 48.7751 27.9053 48.9518 27.7207L50.4744 26.1477L49.5783 26.6621C49.3564 26.7887 49.0752 26.7333 48.9179 26.5319C48.7607 26.3305 48.7751 26.0442 48.9518 25.8596L49.4662 25.3257C49.297 25.3762 49.1138 25.3364 48.9808 25.2203C48.8479 25.1042 48.7837 24.9281 48.8108 24.7537L49.0927 22.9471C49.0007 22.9024 48.9246 22.8306 48.8746 22.7414C48.7324 22.4956 48.8162 22.1811 49.0618 22.0387L49.4641 21.8062C49.6356 21.7072 49.8487 21.7154 50.0121 21.8274C50.1754 21.9394 50.26 22.1352 50.2295 22.3309L49.9939 23.8473L52.0978 22.6323C52.3201 22.5024 52.6042 22.5569 52.7627 22.7598C52.9212 22.9627 52.9052 23.2516 52.7254 23.4358L52.2449 23.9317L53.1461 23.4111C53.3684 23.2829 53.6511 23.338 53.8089 23.5403C53.9667 23.7427 53.9512 24.0303 53.7727 24.2146L52.2501 25.7866L54.1976 24.6611C54.3973 24.5455 54.6496 24.577 54.8147 24.7383C54.9799 24.8996 55.0173 25.1511 54.9064 25.3535L54.0381 26.945L54.9465 26.4203C55.1202 26.32 55.3363 26.3297 55.5003 26.4453C55.6642 26.5608 55.746 26.7611 55.7099 26.9584L55.607 27.5458C55.7915 27.6182 55.9181 27.79 55.9324 27.9877C55.9467 28.1854 55.8461 28.3737 55.6739 28.4718L55.2037 28.7434C55.0298 28.8476 54.8108 28.8398 54.6446 28.7236C54.4785 28.6074 54.396 28.4045 54.4342 28.2053L54.4949 27.8699L52.964 28.7547C52.8868 28.7984 52.7997 28.8218 52.711 28.8226Z" fill="#FFC107"/>
<path d="M0.188955 28.3896V41.2321C0.188955 43.1004 -0.275031 45.8483 1.1982 47.3019C2.57061 48.6589 4.88025 48.3102 6.6292 48.3102H18.7093V51.7823C16.3122 52.6342 13.8935 54.6126 11.7732 55.8234C11.6342 55.8945 11.545 56.0357 11.5407 56.1918C11.5211 56.2275 11.5098 56.2673 11.5077 56.308C11.5077 59.1825 11.1518 60.0014 13.7454 60.5436C17.232 61.273 21.6671 60.5436 25.2154 60.5436H47.781C47.8437 60.5396 47.9059 60.5286 47.9661 60.5106C48.1566 60.5165 48.3463 60.4836 48.5237 60.4139C50.5227 59.5909 50.0587 58.0261 50.0361 56.0498C50.0638 55.9732 50.0476 55.8877 49.9939 55.8265C49.9795 55.7463 49.9116 55.6856 49.7768 55.6527C47.6513 54.4181 45.2079 52.4346 42.8325 51.6733V48.3122H47.6894C50.9105 48.3122 59.3652 49.8945 61.11 45.9007C62.0976 43.6374 61.3528 39.8164 61.3528 37.4801V6.32098C61.3528 3.45476 61.5081 0.922901 58.1172 0.165709C58.0733 0.150579 58.0277 0.140904 57.9814 0.136902H57.9722H57.964C57.9116 0.124803 57.8582 0.117911 57.8045 0.116326H10.48C6.63641 0.116326 0.956435 -1.05341 0.192041 4.02574C-0.240052 6.88785 0.192041 10.1697 0.192041 13.0544L0.188955 28.3896ZM19.3626 52.5457C19.4902 52.5354 19.7278 52.4963 19.9037 52.4737C20.6239 52.3821 21.3533 52.3348 22.093 52.306H25.5312C27.3831 52.3636 29.2349 52.4737 31.0126 52.4737C32.1443 52.4737 33.3994 52.3873 34.6782 52.306H40.5424C40.8922 52.3502 41.2399 52.4007 41.5712 52.4737C43.0115 52.7926 45.3468 54.3872 47.2676 55.6177H17.9315C16.7844 55.6177 15.5139 55.4901 14.3359 55.5745C15.7052 54.8718 17.0828 53.9984 18.3081 53.2021C18.5581 53.0385 18.9799 52.7525 19.3626 52.5457ZM16.6435 59.8985C13.5283 59.8985 13.052 59.631 13.0026 56.5889H48.355C48.6709 57.1979 49.0381 59.2401 48.2141 59.8985H16.6435ZM41.3428 51.3348C37.8274 50.7916 33.421 51.5025 30.0168 51.5025C26.9911 51.5025 23.1959 50.8945 20.1404 51.4202C19.9666 50.391 19.9722 49.3395 20.1568 48.3122H41.3428V51.3348ZM59.861 43.5242C59.0555 49.1188 53.071 47.4336 48.6606 47.4336H11.1816C9.42649 47.4336 6.40493 48.0098 4.71565 47.4336C2.17247 46.5643 1.37927 43.5242 1.23524 40.1426H60.1851C60.1152 41.2887 60.0185 42.4203 59.859 43.5242H59.861ZM1.68276 30.2127V6.32098C1.68276 4.16051 1.43585 1.82515 4.14467 0.987715C5.91522 0.441425 8.78967 0.987715 10.6106 0.987715H57.1317C59.2674 1.46096 59.5905 3.4918 59.859 5.07408C59.965 6.39396 59.965 7.72021 59.859 9.04008V21.2272C59.859 26.9617 60.4968 33.2291 60.2366 39.1467H1.20952C1.1838 35.7599 1.68276 32.2085 1.68276 30.2127Z" fill="#262626"/>
<path d="M10.9388 15.8836C10.9388 15.8641 10.9264 15.8527 10.9244 15.8352C10.9223 15.8178 10.9398 15.8003 10.9388 15.7807C10.9223 15.2902 10.7468 14.8182 10.4388 14.4361L13.8451 11.0298C14.8475 11.4423 15.9876 11.3442 16.9047 10.7664L21.1032 13.9145C20.8848 14.2721 20.7684 14.6827 20.7668 15.1017C20.7514 18.4247 26.205 17.8897 26.3686 14.8507C26.3686 14.8322 26.3573 14.8229 26.3552 14.8065C26.3532 14.79 26.3717 14.7715 26.3707 14.7519C26.3564 14.232 26.1614 13.7332 25.8192 13.3415L29.5435 9.08739C31.1669 9.645 33.4683 8.77875 33.5825 6.6615C33.5651 5.95642 33.2636 5.28828 32.7463 4.80881C32.2291 4.32934 31.54 4.07921 30.8356 4.11523C29.3272 4.11078 28.0708 5.27071 27.955 6.77466C27.9262 7.3539 28.111 7.92356 28.4746 8.37547L24.7164 12.6666C23.8171 12.4134 22.8539 12.5304 22.0415 12.9917L17.8235 9.82606C18.0189 9.48384 18.131 9.10037 18.1506 8.70674C18.1472 8.67975 18.141 8.6532 18.1321 8.62752C18.1321 8.61003 18.1444 8.5946 18.1434 8.57608C17.9623 5.20987 12.5149 5.68723 12.5344 8.91044C12.5246 9.43133 12.6885 9.94066 13.0005 10.358L9.57665 13.7838C7.91823 13.074 5.34316 13.9978 5.33596 16.1285C5.32361 19.4607 10.7731 18.9432 10.9388 15.8836ZM30.6072 5.21913C31.4283 5.27512 32.0672 5.95484 32.0722 6.77775C32.0342 7.48144 31.636 8.30036 30.8037 8.22526C30.0396 8.09617 29.4768 7.43948 29.4663 6.66458C29.4016 5.95597 29.903 5.32072 30.6072 5.21913ZM23.6845 13.3744C23.8614 13.4344 24.0265 13.5249 24.1721 13.6419C24.2047 13.7013 24.2518 13.7516 24.309 13.7879C24.6513 14.1518 24.8521 14.6263 24.8748 15.1254C24.8182 15.8301 24.4417 16.7478 23.5888 16.5832C22.7973 16.3577 22.2553 15.6294 22.2668 14.8065C22.2648 14.0256 22.7936 13.075 23.6845 13.3744ZM15.4212 7.2654C16.1458 7.48005 16.6414 8.14757 16.6373 8.90324C16.5827 9.59253 16.199 10.4053 15.3821 10.3219C14.5856 10.1656 14.0194 9.45536 14.0447 8.64398C14.0478 7.89296 14.5879 7.07919 15.4212 7.2654ZM8.25465 14.4124C8.97057 14.6877 9.44269 15.3758 9.44187 16.1429C9.38529 16.8476 9.00567 17.755 8.15382 17.5945C7.36421 17.3761 6.82223 16.6513 6.83594 15.8322C6.83491 15.0544 7.36783 14.1285 8.25465 14.4124Z" fill="#262626"/>
<path d="M12.9754 21.9472C12.818 21.4842 11.9178 21.5789 11.6133 21.9595C8.39319 22.261 5.3634 24.476 5.34385 28.4749C5.30167 37.1898 18.7295 36.4995 19.176 28.2177C19.176 28.2012 19.1647 28.193 19.1626 28.1776C19.1605 28.1621 19.1791 28.1426 19.178 28.123C19.0858 24.7408 16.358 22.0249 12.9754 21.9472ZM17.605 27.8113H13.0084V22.6756C13.3145 22.732 13.615 22.8153 13.9065 22.9245C15.9446 23.7489 17.3652 25.626 17.605 27.8113ZM10.9055 33.8421C8.48424 33.0109 6.86014 30.7313 6.86544 28.1714C6.81958 25.4249 8.79458 23.0601 11.5053 22.6159V28.3885C11.5053 28.7681 11.8715 28.835 12.1833 28.835H17.6472C17.2645 32.088 14.4878 35.0334 10.9024 33.8442L10.9055 33.8421Z" fill="#262626"/>
<path d="M48.5478 34.6386V34.6983C48.5478 34.9463 49.4738 34.8475 49.8637 34.5584C53.0138 34.1181 56.0076 31.8959 56.2103 28.1264C56.1169 24.7706 53.3943 22.0852 50.0375 22.038V21.9536C50.0375 21.718 49.196 21.7921 48.7773 22.0462C45.5067 22.3209 42.3915 24.541 42.3751 28.5276C42.3576 32.6253 45.3442 34.5759 48.5478 34.6386ZM50.0375 34.1541V28.7128H54.7C54.4757 31.4412 52.592 33.8815 50.0375 34.1541ZM50.5684 22.7571C52.8364 23.5222 54.4383 25.555 54.6517 27.9391H50.0375V22.6244C50.2168 22.6587 50.3941 22.703 50.5684 22.7571ZM48.5478 22.5359V34.0584C48.1696 33.9791 47.801 33.8598 47.4481 33.7024C45.2717 32.6967 43.8746 30.5218 43.8648 28.1243C43.7954 25.3479 45.8021 22.9533 48.5478 22.5359Z" fill="#262626"/>
<path d="M33.3144 43.4668H29.1992C28.8272 43.4495 28.4591 43.5484 28.1457 43.7497C27.9667 43.9061 27.8885 44.0491 28.226 44.0491H32.3412C32.7132 44.0663 33.0813 43.9674 33.3946 43.7661C33.5736 43.6098 33.6508 43.4668 33.3144 43.4668Z" fill="#262626"/>
<path d="M40.7734 17.9636V13.8485C40.7734 13.1417 39.2734 13.4133 39.2734 13.9966V18.1118C39.2734 18.8186 40.7734 18.5521 40.7734 17.9636Z" fill="#262626"/>
<path d="M45.9116 17.8384V10.6369C45.9116 10.3807 44.4219 10.5957 44.4219 11.036V18.2376C44.4219 18.4938 45.9116 18.2787 45.9116 17.8384Z" fill="#262626"/>
<path d="M51.0641 17.9503V8.69118C51.0641 8.04407 49.5703 8.34551 49.5703 8.86608V18.1252C49.5703 18.7723 51.0641 18.4709 51.0641 17.9503Z" fill="#262626"/>
<path d="M56.215 17.971V5.62546C56.215 4.88884 54.7109 5.14296 54.7109 5.7592V18.1047C54.7109 18.8413 56.215 18.5872 56.215 17.971Z" fill="#262626"/>
<path d="M30.5038 22.83C27.1417 22.9071 23.8649 25.1128 23.8361 29.4142C23.7919 35.8956 31.0068 37.4141 35.05 34.3895C35.2037 34.3304 35.3355 34.2255 35.4276 34.0891C36.8143 32.8785 37.6344 31.1451 37.6909 29.3052C37.5995 25.839 34.8499 23.0302 31.3865 22.8649C31.1125 22.7211 30.7883 22.7083 30.5038 22.83ZM30.3525 34.943C27.5134 34.5688 25.3818 32.1635 25.3516 29.3C25.3207 26.568 27.3188 24.2359 30.0233 23.8474V26.5727C29.8866 27.5625 29.8866 28.5664 30.0233 29.5562C30.501 30.3533 31.0942 31.0751 31.7836 31.6982L33.764 34.0757C32.7735 34.7774 31.5579 35.0865 30.3525 34.943ZM36.1868 29.4091C36.1239 30.7483 35.6445 32.0345 34.8154 33.0881L33.4307 31.4327C32.718 30.7345 32.0699 29.9731 31.4945 29.1581C31.4098 28.1651 31.4149 27.1666 31.5099 26.1746V23.8299C34.1826 24.3643 36.1251 26.6841 36.1817 29.4091H36.1868Z" fill="#262626"/>
</svg>
