<svg width="34" height="41" viewBox="0 0 34 41" fill="none" xmlns="http://www.w3.org/2000/svg">
<path d="M29.7907 1.8916H28.3721V4.72881C28.3721 5.73211 27.9735 6.69432 27.2641 7.40376C26.5547 8.1132 25.5925 8.51176 24.5892 8.51176H8.51163C7.50833 8.51176 6.54612 8.1132 5.83668 7.40376C5.12724 6.69432 4.72868 5.73211 4.72868 4.72881V1.8916H3.31008C2.43372 1.89657 1.59467 2.2469 0.974986 2.86659C0.355299 3.48627 0.00496531 4.32532 0 5.20168V37.3567C0.00496531 38.2331 0.355299 39.0721 0.974986 39.6918C1.59467 40.3115 2.43372 40.6618 3.31008 40.6668H29.7907C30.6671 40.6618 31.5061 40.3115 32.1258 39.6918C32.7455 39.0721 33.0958 38.2331 33.1008 37.3567V5.20168C33.0958 4.32532 32.7455 3.48627 32.1258 2.86659C31.5061 2.2469 30.6671 1.89657 29.7907 1.8916ZM23.2651 20.8063L16.1721 28.3722C15.8966 28.6493 15.5225 28.8057 15.1318 28.8073C14.7824 28.8114 14.4445 28.683 14.1861 28.4479L9.93024 24.6649C9.78932 24.544 9.67426 24.3958 9.59193 24.2293C9.50961 24.0628 9.46172 23.8815 9.45112 23.6961C9.44053 23.5106 9.46745 23.325 9.53027 23.1502C9.59309 22.9754 9.69053 22.8151 9.81675 22.6789C10.0487 22.3796 10.3894 22.1839 10.7648 22.1343C11.1402 22.0847 11.52 22.1853 11.8217 22.4141L15.0372 25.2891L21.1845 18.7635C21.4505 18.4979 21.8111 18.3487 22.187 18.3487C22.5629 18.3487 22.9235 18.4979 23.1895 18.7635C23.4487 19.0171 23.6009 19.3603 23.615 19.7226C23.6291 20.0849 23.5039 20.4389 23.2651 20.7118V20.8063Z" fill="#478CFF"/>
<path d="M24.1172 0H8.98544C7.67965 0 6.62109 1.05855 6.62109 2.36434V4.25582C6.62109 5.56161 7.67965 6.62016 8.98544 6.62016H24.1172C25.423 6.62016 26.4816 5.56161 26.4816 4.25582V2.36434C26.4816 1.05855 25.423 0 24.1172 0Z" fill="#15EC88"/>
</svg>
