<svg width="37" height="40" viewBox="0 0 37 40" fill="none" xmlns="http://www.w3.org/2000/svg">
<path d="M28.1869 24.2345L27.4661 22.9979C27.7449 22.4694 27.9751 21.9176 28.1529 21.3513L29.5462 20.9812C30.1597 20.8162 30.5718 20.2826 30.5718 19.6535V17.0436C30.5718 16.4123 30.1587 15.8795 29.5448 15.7178L28.1531 15.348C27.976 14.783 27.7458 14.2312 27.4662 13.7013L28.188 12.463C28.5047 11.9142 28.4148 11.2478 27.9657 10.8058L26.107 8.96216C25.6594 8.51468 24.9879 8.42579 24.4356 8.74128L23.1867 9.45648C22.6524 9.17908 22.096 8.95066 21.5263 8.77493L21.1538 7.39557C20.9904 6.7857 20.4532 6.37591 19.8168 6.37591H17.1856C16.5514 6.37591 16.0134 6.78466 15.8466 7.39454L15.4738 8.77517C14.9057 8.95089 14.3494 9.17932 13.8141 9.45656L12.5664 8.74096C12.0159 8.42642 11.344 8.51484 10.8945 8.96082L9.03451 10.8057C8.5848 11.2517 8.49686 11.9185 8.81525 12.4643L9.53431 13.701C9.2576 14.226 9.02747 14.778 8.84774 15.3477L7.45645 15.7174C6.84294 15.879 6.43068 16.4127 6.43068 17.0457V19.6533C6.43068 20.2828 6.8419 20.8164 7.45541 20.9813L8.84798 21.3513C9.02771 21.9197 9.25784 22.4715 9.53455 22.9977L8.81565 24.2342C8.49822 24.7784 8.58568 25.4447 9.03459 25.8934L10.8946 27.7383C10.9717 27.8149 11.057 27.88 11.1478 27.9347C11.0964 28.0371 11.0821 28.1558 11.1129 28.2697L12.9434 35.0485C12.9916 35.227 13.1398 35.3618 13.3234 35.394C13.3513 35.3989 13.3792 35.4013 13.4068 35.4013C13.5615 35.4013 13.7089 35.3269 13.7997 35.1985L15.6061 32.6413L16.1965 34.4384C16.2608 34.6343 16.4449 34.7669 16.6526 34.7669H20.0777C20.2856 34.7669 20.4698 34.6341 20.534 34.4379L21.123 32.64L22.9283 35.1983C23.019 35.3269 23.1665 35.4013 23.3212 35.4013C23.3489 35.4013 23.3767 35.399 23.4045 35.3941C23.5881 35.362 23.7364 35.2274 23.7846 35.0487L25.6174 28.2699C25.637 28.1974 25.6377 28.1228 25.6231 28.0516C25.7987 27.9837 25.9634 27.8796 26.1057 27.7384L27.9657 25.8936C28.414 25.4489 28.5034 24.7829 28.1869 24.2345ZM13.604 33.817L12.1113 28.289L13.7034 26.7097C13.8654 28.5045 14.3081 30.2464 15.0085 31.8286L13.6039 33.817H13.604ZM20.8626 31.4056H15.8677C15.0322 29.502 14.5919 27.351 14.5919 25.1635C14.5919 23.1887 14.954 21.2301 15.6408 19.4681C16.4876 19.8691 17.4189 20.0799 18.3652 20.0799C19.3115 20.0799 20.2431 19.8691 21.0885 19.4679C21.7759 21.2305 22.1384 23.1892 22.1384 25.1635C22.1384 27.351 21.6981 29.5021 20.8626 31.4056ZM16.016 18.5919C16.6297 17.2887 17.4325 16.1135 18.3651 15.1526C19.2959 16.112 20.0979 17.2873 20.7121 18.5923C19.9858 18.944 19.1826 19.1283 18.3651 19.1283C17.5475 19.1283 16.7441 18.9438 16.016 18.592V18.5919ZM21.8009 18.676L21.7942 18.6787C21.7883 18.6567 21.7821 18.6346 21.7728 18.6131C21.0212 16.8774 19.9573 15.3296 18.6961 14.1369C18.5108 13.9616 18.2194 13.9616 18.034 14.1369C16.7704 15.332 15.7057 16.8799 14.9551 18.6131C14.9462 18.6337 14.9404 18.6548 14.9346 18.6759L14.9293 18.6737C14.5594 19.539 14.2657 20.4536 14.0519 21.3973C13.4305 20.5081 13.0948 19.4543 13.0948 18.3487C13.0948 15.3918 15.5201 12.9862 18.5012 12.9862C21.4823 12.9862 23.9076 15.3918 23.9076 18.3487C23.9076 19.5647 23.4885 20.7378 22.7381 21.6784C22.5205 20.6363 22.2071 19.6263 21.801 18.676H21.8009ZM19.7289 33.8153H17.0008L16.5218 32.3574H20.2067L19.729 33.8153H19.7289ZM23.1244 33.8167L21.7216 31.8288C22.422 30.2466 22.8647 28.5046 23.0268 26.7097L24.6189 28.289L23.1244 33.8167ZM26.5012 23.2441L27.3553 24.7092C27.4542 24.8807 27.4276 25.0816 27.2872 25.2208L25.4273 27.0656C25.2892 27.2026 25.0924 27.23 24.924 27.1367L24.6192 26.9435L23.0942 25.4309C23.0956 25.3417 23.0978 25.2528 23.0978 25.1635C23.0978 24.3943 23.0445 23.6271 22.9424 22.871C24.1679 21.6866 24.8671 20.0535 24.8671 18.3488C24.8671 14.8672 22.0113 12.0346 18.5012 12.0346C14.9911 12.0346 12.1353 14.8672 12.1353 18.3488C12.1353 19.9502 12.7327 21.4603 13.8207 22.6294C13.696 23.4631 13.6323 24.3121 13.6323 25.1635C13.6323 25.2528 13.6345 25.3418 13.6359 25.4309L11.8739 27.1786C11.7822 27.1808 11.6675 27.1594 11.5729 27.0656L9.71419 25.222C9.5736 25.0816 9.54687 24.881 9.64626 24.7105L10.4991 23.2436C10.5834 23.0987 10.5847 22.9206 10.5027 22.7744C10.1591 22.1622 9.88631 21.5082 9.69211 20.8307C9.64594 20.6696 9.51783 20.5446 9.35483 20.5012L7.70491 20.0629C7.51358 20.0114 7.38995 19.8508 7.38995 19.6537V17.0461C7.38995 16.8479 7.51262 16.6875 7.70346 16.6373L9.35474 16.1985C9.5179 16.1552 9.6461 16.0299 9.69219 15.8687C9.88631 15.1893 10.1589 14.5356 10.5023 13.9259C10.5846 13.7796 10.5834 13.6012 10.499 13.4561L9.64578 11.9885C9.54623 11.818 9.57256 11.6179 9.71267 11.4789L11.5727 9.63403C11.7133 9.49442 11.9153 9.46767 12.0866 9.56553L13.5655 10.4138C13.7116 10.4976 13.8915 10.499 14.039 10.4176C14.6641 10.0724 15.323 9.80205 15.9974 9.61395C16.1604 9.56847 16.2871 9.44116 16.3309 9.27901L16.7728 7.64257C16.825 7.45145 16.987 7.32787 17.1854 7.32787H19.8166C20.0146 7.32787 20.1754 7.45041 20.2265 7.64114L20.6688 9.27901C20.7126 9.44132 20.8395 9.56871 21.0027 9.61411C21.679 9.80213 22.3376 10.0723 22.96 10.4172C23.1075 10.4989 23.2876 10.4977 23.4338 10.4139L24.9146 9.56601C25.0863 9.46791 25.2869 9.4941 25.427 9.63411L27.2882 11.4803C27.4282 11.618 27.4543 11.8184 27.356 11.9888L26.5008 13.4557C26.4162 13.6008 26.4148 13.7795 26.4973 13.9259C26.8451 14.5435 27.1175 15.1966 27.307 15.8674C27.3528 16.0292 27.4811 16.1551 27.6449 16.1986L29.2972 16.6376C29.4884 16.688 29.612 16.8474 29.612 17.0439V19.6537C29.612 19.8505 29.4875 20.011 29.2961 20.0625L27.6449 20.5012C27.4813 20.5446 27.353 20.6704 27.3072 20.832C27.1164 21.5051 26.8439 22.1584 26.4973 22.7738C26.4148 22.9202 26.4162 23.0989 26.5008 23.2441H26.5012ZM18.3652 22.629C16.9287 22.629 15.7601 23.7892 15.7601 25.2152C15.7601 26.6412 16.9287 27.7992 18.3652 27.7992C19.8017 27.7992 20.9703 26.6401 20.9703 25.2152C20.9703 23.7904 19.8017 22.629 18.3652 22.629ZM18.3652 26.8474C17.4577 26.8474 16.7196 26.1152 16.7196 25.2152C16.7196 24.3152 17.4578 23.5807 18.3652 23.5807C19.2725 23.5807 20.0108 24.3139 20.0108 25.2152C20.0108 26.1165 19.2725 26.8474 18.3652 26.8474ZM17.1323 36.8154V38.1788C17.1323 38.4416 16.9175 38.6546 16.6526 38.6546C16.3876 38.6546 16.1729 38.4416 16.1729 38.1788V36.8154C16.1729 36.5526 16.3876 36.3396 16.6526 36.3396C16.9175 36.3396 17.1323 36.5526 17.1323 36.8154ZM20.5574 36.8154V38.1788C20.5574 38.4416 20.3426 38.6546 20.0777 38.6546C19.8127 38.6546 19.5979 38.4416 19.5979 38.1788V36.8154C19.5979 36.5526 19.8127 36.3396 20.0777 36.3396C20.3426 36.3396 20.5574 36.5526 20.5574 36.8154ZM18.8449 36.3631V39.5242C18.8449 39.787 18.6301 40 18.3652 40C18.1002 40 17.8855 39.787 17.8855 39.5242V36.3631C17.8855 36.1003 18.1002 35.8873 18.3652 35.8873C18.6301 35.8873 18.8449 36.1003 18.8449 36.3631ZM5.28264 5.77485C5.26263 5.62785 5.31289 5.47999 5.41859 5.37498C5.5243 5.27005 5.67345 5.21981 5.82149 5.23958L7.57263 5.47134C7.83526 5.5061 8.0197 5.7454 7.98465 6.00589C7.9496 6.2663 7.70827 6.44949 7.44572 6.41456L7.10012 6.36885L8.87799 8.13061C9.0654 8.31634 9.06556 8.61762 8.87831 8.80359C8.78461 8.89661 8.66178 8.94312 8.53895 8.94312C8.41612 8.94312 8.29353 8.89676 8.19991 8.8039L6.42332 7.04341L6.46941 7.38224C6.50486 7.64265 6.32073 7.88226 6.05811 7.91742C6.03642 7.92036 6.01474 7.92179 5.99337 7.92179C5.75683 7.92179 5.55102 7.74837 5.51854 7.50947L5.28264 5.77485ZM17.0491 1.58001L18.1197 0.187312C18.2104 0.0692896 18.3515 0 18.5012 0C18.6509 0 18.7919 0.0692896 18.8827 0.187312L19.9533 1.58001C20.1139 1.78899 20.0733 2.08758 19.8627 2.24695C19.7759 2.31267 19.6736 2.34442 19.5722 2.34442C19.4276 2.34442 19.2848 2.27989 19.1903 2.1571L18.9809 1.88471V4.37485C18.9809 4.63764 18.7661 4.85067 18.5012 4.85067C18.2363 4.85067 18.0215 4.63764 18.0215 4.37485V1.88471L17.8121 2.1571C17.6514 2.36608 17.3504 2.40624 17.1397 2.24695C16.929 2.08758 16.8884 1.78899 17.0491 1.58001ZM31.5812 5.37482C31.687 5.47967 31.7374 5.62738 31.7175 5.77429L31.4839 7.50891C31.4517 7.74805 31.2456 7.92179 31.0089 7.92179C30.9877 7.92179 30.9664 7.92036 30.9448 7.9175C30.6821 7.88274 30.4977 7.64328 30.5328 7.38287L30.5787 7.04206L28.8025 8.80382C28.7089 8.89676 28.586 8.9432 28.4633 8.9432C28.3405 8.9432 28.2177 8.89676 28.1241 8.80382C27.9368 8.61802 27.9368 8.31673 28.1241 8.13085L29.9003 6.36908L29.5567 6.41464C29.2939 6.44956 29.0527 6.26646 29.0177 6.00605C28.9826 5.74556 29.1671 5.50618 29.4296 5.47142L31.1784 5.23966C31.3269 5.22005 31.4755 5.27006 31.5812 5.37482H31.5812ZM37 18.3486C37 18.497 36.9303 18.6368 36.8115 18.7268L35.4097 19.7887C35.3228 19.8546 35.2204 19.8864 35.1188 19.8864C34.9744 19.8864 34.8316 19.822 34.7372 19.6994C34.5764 19.4905 34.6167 19.1919 34.8272 19.0324L35.1017 18.8245H32.5893C32.3244 18.8245 32.1096 18.6114 32.1096 18.3486C32.1096 18.0858 32.3244 17.8728 32.5893 17.8728H35.1017L34.8272 17.6649C34.6167 17.5053 34.5764 17.2068 34.7372 16.9979C34.8981 16.7889 35.1992 16.749 35.4097 16.9086L36.8115 17.9705C36.9303 18.0605 37 18.2004 37 18.3487V18.3486ZM31.7175 30.9252C31.7374 31.0723 31.6869 31.2201 31.581 31.3249C31.4904 31.4146 31.3682 31.4641 31.242 31.4641C31.2207 31.4641 31.1993 31.4626 31.1779 31.4598L29.429 31.2258C29.1665 31.1907 28.9823 30.9511 29.0177 30.6906C29.0531 30.4302 29.295 30.2476 29.5573 30.2826L29.8989 30.3284L28.124 28.5662C27.9368 28.3803 27.9369 28.079 28.1243 27.8932C28.3118 27.7075 28.6156 27.7077 28.8028 27.8935L30.5788 29.6567L30.5329 29.3165C30.4979 29.0561 30.6823 28.8167 30.9449 28.7819C31.2073 28.7469 31.4488 28.9301 31.4839 29.1905L31.7175 30.9251V30.9252ZM8.87815 27.8935C9.06548 28.0793 9.06548 28.3805 8.87815 28.5664L7.10156 30.3286L7.44516 30.2827C7.70795 30.2474 7.94928 30.4303 7.98465 30.6908C8.02002 30.9512 7.8359 31.1908 7.57327 31.2259L5.82213 31.4598C5.80077 31.4627 5.77932 31.4641 5.75803 31.4641C5.63168 31.4641 5.50941 31.4146 5.41883 31.3248C5.31305 31.2198 5.26263 31.0718 5.28264 30.9247L5.51854 29.1901C5.5539 28.9296 5.79484 28.7468 6.05811 28.7822C6.32073 28.8172 6.50486 29.0569 6.46941 29.3173L6.4234 29.6555L8.19975 27.8936C8.38707 27.7077 8.6909 27.7077 8.87823 27.8936L8.87815 27.8935ZM4.89262 18.3486C4.89262 18.6114 4.67785 18.8245 4.41291 18.8245H1.90006L2.17469 19.0322C2.38538 19.1915 2.42595 19.4901 2.26527 19.6991C2.17085 19.8219 2.02793 19.8864 1.88342 19.8864C1.78195 19.8864 1.67977 19.8547 1.59287 19.789L0.188846 18.7271C0.069857 18.6371 0 18.4971 0 18.3486C0 18.2001 0.069857 18.0603 0.188846 17.9702L1.59287 16.9082C1.80348 16.7489 2.10451 16.7891 2.26527 16.9981C2.42587 17.2071 2.3853 17.5057 2.17469 17.665L1.90006 17.8727H4.41291C4.67785 17.8727 4.89262 18.0858 4.89262 18.3486V18.3486Z" fill="#04E37B"/>
</svg>
